<?xml version="1.0" standalone="no"?>
<!DOCTYPE svg PUBLIC "-//W3C//DTD SVG 20010904//EN"
 "http://www.w3.org/TR/2001/REC-SVG-20010904/DTD/svg10.dtd">
<svg version="1.0" xmlns="http://www.w3.org/2000/svg"
 width="225.000000pt" height="225.000000pt" viewBox="0 0 225.000000 225.000000"
 preserveAspectRatio="xMidYMid meet">
<metadata>
Created by potrace 1.11, written by Peter Selinger 2001-2013
</metadata>
<g transform="translate(0.000000,225.000000) scale(0.100000,-0.100000)"
fill="#000000" stroke="none">
<path d="M905 2220 c-215 -46 -388 -136 -541 -282 -388 -369 -464 -937 -186
-1403 63 -106 229 -275 342 -348 264 -170 593 -222 895 -143 118 31 292 115
386 185 88 67 204 190 263 281 141 213 209 501 177 742 -36 268 -138 476 -325
664 -142 142 -311 240 -504 291 -135 36 -374 42 -507 13z m453 -279 c288 -83
519 -319 592 -605 28 -110 28 -311 0 -422 -81 -321 -355 -571 -683 -624 -95
-16 -276 -8 -362 15 -177 48 -367 187 -476 346 -99 146 -143 293 -143 474 1
242 85 441 258 609 108 105 229 172 379 212 82 22 107 24 227 20 96 -3 156
-10 208 -25z"/>
</g>
</svg>
