<?xml version="1.0" standalone="no"?>
<!DOCTYPE svg PUBLIC "-//W3C//DTD SVG 20010904//EN"
 "http://www.w3.org/TR/2001/REC-SVG-20010904/DTD/svg10.dtd">
<svg version="1.0" xmlns="http://www.w3.org/2000/svg"
 width="554.000000pt" height="554.000000pt" viewBox="0 0 554.000000 554.000000"
 preserveAspectRatio="xMidYMid meet">
<metadata>
Created by potrace 1.11, written by Peter Selinger 2001-2013
</metadata>
<g transform="translate(0.000000,554.000000) scale(0.100000,-0.100000)"
fill="#000000" stroke="none">
<path d="M2505 5533 c-22 -2 -98 -12 -169 -23 -577 -90 -1103 -357 -1520 -773
-426 -426 -690 -941 -788 -1542 -19 -122 -22 -177 -23 -420 0 -245 3 -298 23
-425 95 -596 360 -1118 782 -1540 421 -420 949 -689 1535 -780 179 -28 536
-38 704 -20 341 36 648 124 947 271 122 60 329 181 359 210 11 11 -522 549
-544 549 -8 0 -64 -26 -125 -58 -145 -77 -336 -144 -516 -182 -126 -27 -172
-32 -350 -37 -177 -4 -223 -2 -338 16 -610 96 -1127 441 -1441 963 -348 580
-375 1322 -71 1928 163 324 433 620 739 810 604 374 1367 403 1990 73 l124
-65 273 273 c151 151 274 276 274 279 -1 13 -220 143 -356 211 -291 146 -581
234 -907 274 -111 14 -482 19 -602 8z"/>
<path d="M4606 4311 l-270 -270 30 -40 c192 -268 313 -527 373 -806 31 -142
44 -269 43 -426 0 -453 -139 -857 -424 -1237 l-32 -43 270 -270 271 -271 74
94 c311 386 508 850 579 1361 28 200 28 536 -1 742 -69 501 -261 954 -572
1348 -38 48 -69 87 -70 87 -1 0 -123 -121 -271 -269z"/>
</g>
</svg>
