<?xml version="1.0" encoding="UTF-8" standalone="no"?>
<!DOCTYPE svg PUBLIC "-//W3C//DTD SVG 1.1//EN"
"http://www.w3.org/Graphics/SVG/1.1/DTD/svg11.dtd">


<!-- Page 20 -->
<svg x="0" y="0" width="931" height="1096" viewBox="0 0 931 1096" version="1.1" xmlns="http://www.w3.org/2000/svg" xmlns:xlink="http://www.w3.org/1999/xlink"
style="display: block;margin-left: auto;margin-right: auto;">
<defs>
<clipPath id="c_20"><path d="M0,0H931V1096H0Z"/></clipPath>
<style type="text/css"><![CDATA[
text { white-space: pre; }
path, image { pointer-events: none; }

.s1_20{
font-size: 15.28px;
font-family: MyriadPro-Semibold_49;
fill: #231F20;
}
.s2_20{
font-size: 12.22px;
font-family: MyriadPro-Regular_4i;
fill: #231F20;
}
.s3_20{
font-size: 15.28px;
font-family: TimesLTStd-Roman_6c;
fill: #231F20;
}
.s4_20{
font-size: 15.28px;
font-family: TimesLTStd-Italic_o3;
fill: #231F20;
}
.s5_20{
font-size: 13.75px;
font-family: TimesLTStd-Roman_6c;
fill: #231F20;
}
.s6_20{
font-size: 13.75px;
font-family: TimesLTStd-Italic_o3;
fill: #231F20;
}
.s7_20{
font-size: 16.81px;
font-family: MyriadPro-Semibold_49;
fill: #231F20;
}
.s8_20{
font-size: 7.64px;
font-family: Times-Roman_4n;
fill: #000000;
}

.g0_20{
fill: #CC017A;
}

]]></style>

</defs>
<g clip-path="url(#c_20)">
<path d="M0,0
L0,1096
L931,1096
L931,0 Z " 
fill="#FFFFFF" stroke="none"/>
<text x="53" y="64" dx="0,.3,0,0,0" class="s1_20">xviii</text>
<text x="127" y="64" dx="0,-.1,0,.1,.1,.1,0" class="s2_20">Preface</text>
<text x="287" y="107" dx="0,0,0,-.2,0,0,0,0,0,0,0,0,0,0,0" class="s3_20">Edward Dobson, </text>
<text x="393" y="107" class="s4_20">Mississippi State University</text>
<text x="287" y="126" class="s3_20">Isaac Goldbring, </text>
<text x="393" y="126" class="s4_20">University of Illinois at Chicago</text>
<text x="287" y="144" class="s3_20">Lea Jenkins, </text>
<text x="367" y="144" class="s4_20">Clemson University</text>
<text x="287" y="162" dx="0,0,0,0,0,0,0,0,-.5,-1.2,0,0,0,0" class="s3_20">Rebecca Wahl, </text>
<text x="382" y="162" class="s4_20">Butler University</text>
<text x="53" y="275" dx="0,0,0,0,0,0,-.8,0,0,0,0,0,0,0,0,0" class="s5_20">Maria Andersen, </text>
<text x="148" y="275" class="s6_20">Muskegon Community College</text>
<text x="53" y="292" dx="0,0,0,0,0,-.8,0,0,0,0,0,0,0" class="s5_20">Eric Aurand, </text>
<text x="127" y="292" class="s6_20">East±eld College</text>
<text x="53" y="309" dx="0,0,-.1,0,0,0,0,0,-.1,0,-.6,0" class="s5_20">Joy Becker, </text>
<text x="121" y="309" class="s6_20">University of Wisconsin–Stout</text>
<text x="53" y="326" dx="0,0,0,0,0,0,0,0,0,-.2,0,0,0,0,-.1,0,0,0,0,0" class="s5_20">Przemyslaw Bogacki, </text>
<text x="176" y="326" class="s6_20">Old Dominion University</text>
<text x="53" y="342" dx="0,0,0,0,0,0,0,0,0,0,0,0,0,0,0,0,-.3,0,0,0,0,0" class="s5_20">Amy Elizabeth Bowman, </text>
<text x="196" y="342" class="s6_20">University of Alabama </text>
<text x="72" y="359" class="s6_20">in Huntsville</text>
<text x="53" y="376" dx="0,0,0,0,0,0,0,0,0,0,-.3,0,0,0" class="s5_20">Monica Brown, </text>
<text x="143" y="376" class="s6_20">University of Missouri–St. Louis</text>
<text x="53" y="393" class="s5_20">Roxanne Byrne, </text>
<text x="146" y="393" class="s6_20">University of Colorado at Denver and </text>
<text x="72" y="410" class="s6_20">Health Sciences Center</text>
<text x="53" y="426" dx="0,-1,0,0,0,0,0,0,0,0,0,0,0,0,0,0,0,0,0" class="s5_20">Teri Christiansen, </text>
<text x="154" y="426" class="s6_20">University of Missouri–Columbia</text>
<text x="53" y="443" class="s5_20">Bobby Dale Daniel, </text>
<text x="166" y="443" class="s6_20">Lamar University</text>
<text x="53" y="460" class="s5_20">Jennifer Daniel, </text>
<text x="145" y="460" class="s6_20">Lamar University</text>
<text x="53" y="477" dx="0,0,0,0,0,0,0,0,0,0,0,0,-.1,0,0,0" class="s5_20">Andras Domokos, </text>
<text x="157" y="477" class="s6_20">California State University, Sacramento</text>
<text x="53" y="494" dx="0,-.5,0,0,0,0,-.1,0,0,0,0,0,0,0,0,0,-.9,0" class="s5_20">Timothy Flaherty, </text>
<text x="155" y="494" class="s6_20">Carnegie Mellon University</text>
<text x="53" y="510" class="s5_20">Lee Gibson, </text>
<text x="124" y="510" class="s6_20">University of Louisville</text>
<text x="53" y="527" class="s5_20">Jane Golden, </text>
<text x="129" y="527" class="s6_20">Hillsborough Community College</text>
<text x="53" y="544" class="s5_20">Semion Gutman, </text>
<text x="150" y="544" class="s6_20">University of Oklahoma</text>
<text x="53" y="561" dx="0,0,0,0,0,0,0,0,0,-.3,0,0,0,0,0" class="s5_20">Diane Hoffoss, </text>
<text x="140" y="561" class="s6_20">University of San Diego</text>
<text x="53" y="578" class="s5_20">Lorraine Hughes, </text>
<text x="153" y="578" class="s6_20">Mississippi State University</text>
<text x="53" y="594" class="s5_20">Jay Jahangiri, </text>
<text x="132" y="594" class="s6_20">Kent State University</text>
<text x="53" y="611" dx="0,0,0,0,0,0,0,0,0,0,0,-.1,0,0,0" class="s5_20">John Jernigan, </text>
<text x="136" y="611" class="s6_20">Community College of Philadelphia</text>
<text x="448" y="275" class="s5_20">Brian Karasek, </text>
<text x="533" y="275" class="s6_20">South Mountain Community College</text>
<text x="448" y="292" dx="0,0,0,0,0,0,0,-.5,0,0,0,0,0,0,0,0" class="s5_20">Jason Kozinski, </text>
<text x="538" y="292" class="s6_20">University of Florida</text>
<text x="448" y="309" dx="0,0,0,0,0,0,0,0,0,0,0,-.2,0,0,-.6,0" class="s5_20">Carole Krueger, </text>
<text x="539" y="309" class="s6_20">The University of Texas at Arlington</text>
<text x="448" y="326" dx="0,-.3,0,0,0,-.2,0,0,0,0,0,0" class="s5_20">Ken Kubota, </text>
<text x="521" y="326" class="s6_20">University of Kentucky</text>
<text x="448" y="342" class="s5_20">John Mitchell, </text>
<text x="530" y="342" class="s6_20">Clark College</text>
<text x="448" y="359" dx="0,0,0,0,0,0,0,0,-.2,0,0,0,0" class="s5_20">Donald Paul, </text>
<text x="523" y="359" class="s6_20">Tulsa Community College</text>
<text x="448" y="376" class="s5_20">Chad Pierson, </text>
<text x="528" y="376" class="s6_20">University of Minnesota, Duluth</text>
<text x="448" y="393" class="s5_20">Lanita Presson, </text>
<text x="536" y="393" class="s6_20">University of Alabama in Huntsville</text>
<text x="448" y="410" class="s5_20">Karin Reinhold, </text>
<text x="540" y="410" class="s6_20">State University of New York at Albany</text>
<text x="448" y="426" class="s5_20">Thomas Riedel, </text>
<text x="538" y="426" class="s6_20">University of Louisville</text>
<text x="448" y="443" dx="0,0,0,0,0,0,0,0,0,0,0,0,0,0,0,0,0,0,0,0,0,-.6,0" class="s5_20">Christopher Schroeder, </text>
<text x="578" y="443" class="s6_20">Morehead State University</text>
<text x="448" y="460" class="s5_20">Angela Sharp, </text>
<text x="530" y="460" class="s6_20">University of Minnesota, Duluth</text>
<text x="448" y="477" dx="0,-.2,0,0,0,0,0,0,0,0,0,0,-.2,-.9,0" class="s5_20">Patricia Shaw, </text>
<text x="529" y="477" class="s6_20">Mississippi State University</text>
<text x="448" y="494" class="s5_20">Carl Spitznagel, </text>
<text x="540" y="494" class="s6_20">John Carroll University</text>
<text x="448" y="510" dx="0,0,0,0,0,0,0,0,0,-.2,-1.1,0,0,0,0,0,0,0,0" class="s5_20">Mohammad Tabanjeh, </text>
<text x="574" y="510" class="s6_20">Virginia State University</text>
<text x="448" y="527" dx="0,0,0,0,0,0,0,-.5,0,0,0,0,0,-.2,-1.1,0,0,0,0,0,0" class="s5_20">Capt. Koichi Takagi, </text>
<text x="565" y="527" class="s6_20">United States Naval Academy</text>
<text x="448" y="544" dx="0,0,0,0,0,0,-.2,-1,0,0,0,0,0,0,0" class="s5_20">Lorna TenEyck, </text>
<text x="539" y="544" class="s6_20">Chemeketa Community College</text>
<text x="448" y="561" dx="0,0,0,0,0,0,-.4,-1.1,0,0,0,0,0,0,0" class="s5_20">Roger Werbylo, </text>
<text x="538" y="561" class="s6_20">Pima Community College</text>
<text x="448" y="578" dx="0,0,-.3,0,0,0,-.4,-.6,0,0,0,0,0,0,0,0" class="s5_20">David Williams, </text>
<text x="541" y="578" class="s6_20">Clayton State University</text>
<text x="448" y="594" dx="0,0,0,0,0,0,-1.2,-1.4,0,0" class="s5_20">Zhuan Ye, </text>
<text x="506" y="594" class="s6_20">Northern Illinois University</text>
<path d="M55.4,241c0,0,-1.5,0,-1.5,1.5v9.2c0,0,0,1.5,1.5,1.5h9.2c0,0,1.5,0,1.5,-1.5v-9.2c0,0,0,-1.5,-1.5,-1.5Z" class="g0_20"/>
<text x="73" y="253" dx="0,-1.1,.1,-.1,-.1,0,0,0,.1,.1,0,0,0,-.2,0,-.1,-.1,-.2,0,.1" class="s7_20">Technology Reviewers</text>
<text x="53" y="708" dx="0,0,0,0,0,0,-.8,0,0,-.1,0,0,-.1,0,0,0,0" class="s5_20">B. D. Aggarwala, </text>
<text x="152" y="708" class="s6_20">University of Calgary</text>
<text x="53" y="725" dx="0,0,0,0,0,-.8,0,0,0,0,-.2,0,0,0,0,0,0" class="s5_20">John Alberghini, </text>
<text x="148" y="725" class="s6_20">Manchester Community College</text>
<text x="53" y="742" dx="0,0,0,0,0,0,0,0,-.8,0,0,0,0,0,0,0" class="s5_20">Michael Albert, </text>
<text x="143" y="742" class="s6_20">Carnegie-Mellon University</text>
<text x="53" y="759" dx="0,0,0,0,0,0,0,-.8,0,0,0,0,0,0,0,0,0" class="s5_20">Daniel Anderson, </text>
<text x="153" y="759" class="s6_20">University of Iowa</text>
<text x="53" y="775" dx="0,0,0,0,-.8,0,0,0,0,0,0,0" class="s5_20">Amy Austin, </text>
<text x="127" y="775" class="s6_20">Texas A&amp;M University</text>
<text x="53" y="792" dx="0,0,0,0,0,0,0,0,0,0,0,0,0,0,-.2,-.9,0" class="s5_20">Donna J. Bailey, </text>
<text x="147" y="792" class="s6_20">Northeast Missouri State University</text>
<text x="53" y="809" dx="0,-1.1,0,0,0,0,0,0,0,0,0,0,-.5,0" class="s5_20">Wayne Barber, </text>
<text x="138" y="809" class="s6_20">Chemeketa Community College</text>
<text x="53" y="826" class="s5_20">Marilyn Belkin, </text>
<text x="144" y="826" class="s6_20">Villanova University</text>
<text x="53" y="843" dx="0,0,0,0,0,0,0,0,-.2,0,0,-.6,0" class="s5_20">Neil Berger, </text>
<text x="124" y="843" class="s6_20">University of Illinois, Chicago</text>
<text x="53" y="859" dx="0,0,-.3,0,0,0,0,0,0,0,0,0,0,0" class="s5_20">David Berman, </text>
<text x="140" y="859" class="s6_20">University of New Orleans</text>
<text x="53" y="876" dx="0,0,0,0,0,0,-.2,0,0,0,0,0,0,-.3,-.2,0,0,0,0,0,0,0,0" class="s5_20">Anthony J. Bevelacqua, </text>
<text x="187" y="876" class="s6_20">University of North Dakota</text>
<text x="53" y="893" class="s5_20">Richard Biggs, </text>
<text x="139" y="893" class="s6_20">University of Western Ontario</text>
<text x="53" y="910" class="s5_20">Robert Blumenthal, </text>
<text x="165" y="910" class="s6_20">Oglethorpe University</text>
<text x="53" y="927" class="s5_20">Martina Bode, </text>
<text x="136" y="927" class="s6_20">Northwestern University</text>
<text x="53" y="943" class="s5_20">Barbara Bohannon, </text>
<text x="163" y="943" class="s6_20">Hofstra University</text>
<text x="53" y="960" class="s5_20">Jay Bourland, </text>
<text x="133" y="960" class="s6_20">Colorado State University</text>
<text x="53" y="977" dx="0,0,0,0,0,0,0,0,0,0,0,0,-.3,0,0,0,0,0" class="s5_20">Philip L. Bowers, </text>
<text x="153" y="977" class="s6_20">Florida State University</text>
<text x="53" y="994" dx="0,0,0,0,0,0,0,0,0,0,0,0,0,0,0,0,-.3,0,0,0,0,0" class="s5_20">Amy Elizabeth Bowman, </text>
<text x="195" y="994" class="s6_20">University of Alabama in Huntsville</text>
<text x="53" y="1011" dx="0,0,0,0,0,0,0,0,-.4,-1.3,0,0,0,0,0,0,-.9,0" class="s5_20">Stephen W. Brady, </text>
<text x="158" y="1011" class="s6_20">Wichita State University</text>
<text x="53" y="1027" class="s5_20">Michael Breen, </text>
<text x="141" y="1027" class="s6_20">Tennessee Technological University</text>
<text x="53" y="1044" class="s5_20">Robert N. Bryan, </text>
<text x="151" y="1044" class="s6_20">University of Western Ontario</text>
<text x="447" y="708" dx="0,0,-.3,0,0,0,0,0,0,0,0,0,0,0,0,0" class="s5_20">David Buchthal, </text>
<text x="540" y="708" class="s6_20">University of Akron</text>
<text x="447" y="725" dx="0,0,0,0,0,0,0,0,0,0,0,0,0,0,0,-.6,0" class="s5_20">Jenna Carpenter, </text>
<text x="542" y="725" class="s6_20">Louisiana Tech University</text>
<text x="447" y="742" dx="0,0,0,-.2,0,0,0,0,0,0,0,0,0,0" class="s5_20">Jorge Cassio, </text>
<text x="524" y="742" class="s6_20">Miami-Dade Community College</text>
<text x="447" y="759" dx="0,0,0,0,0,0,0,0,0,0,-.6,0" class="s5_20">Jack Ceder, </text>
<text x="514" y="759" class="s6_20">University of California, Santa Barbara</text>
<text x="447" y="775" class="s5_20">Scott Chapman, </text>
<text x="538" y="775" class="s6_20">Trinity University</text>
<text x="447" y="792" class="s5_20">Zhen-Qing Chen, </text>
<text x="547" y="792" class="s6_20">University of Washington—Seattle</text>
<text x="447" y="809" dx="0,0,0,0,0,0,0,0,0,0,0,-.1,0,0" class="s5_20">James Choike, </text>
<text x="531" y="809" class="s6_20">Oklahoma State University</text>
<text x="447" y="826" class="s5_20">Barbara Cortzen, </text>
<text x="545" y="826" class="s6_20">DePaul University</text>
<text x="447" y="843" dx="0,0,0,0,0,0,0,-.3,0,0,0,0" class="s5_20">Carl Cowen, </text>
<text x="520" y="843" class="s6_20">Purdue University</text>
<text x="447" y="859" dx="0,0,0,0,0,0,0,0,0,0,0,0,0,0,0,-.1,0,0" class="s5_20">Philip S. Crooke, </text>
<text x="545" y="859" class="s6_20">Vanderbilt University</text>
<text x="447" y="876" class="s5_20">Charles N. Curtis, </text>
<text x="550" y="876" class="s6_20">Missouri Southern State College</text>
<text x="447" y="893" class="s5_20">Daniel Cyphert, </text>
<text x="538" y="893" class="s6_20">Armstrong State College</text>
<text x="447" y="910" class="s5_20">Robert Dahlin</text>
<text x="447" y="927" dx="0,0,0,0,0,0,0,0,0,0,0,0,-.3,0,0,0,0,0" class="s5_20">M. Hilary Davies, </text>
<text x="550" y="927" class="s6_20">University of Alaska Anchorage</text>
<text x="447" y="943" dx="0,0,0,-.2,0,0,0,0,0,0,0,0,0,-.3,0,0,0,0" class="s5_20">Gregory J. Davis, </text>
<text x="547" y="943" class="s6_20">University of Wisconsin–Green Bay</text>
<text x="447" y="960" class="s5_20">Elias Deeba, </text>
<text x="520" y="960" class="s6_20">University of Houston–Downtown</text>
<text x="447" y="977" class="s5_20">Daniel DiMaria, </text>
<text x="541" y="977" class="s6_20">Suffolk Community College</text>
<text x="447" y="994" dx="0,0,-.2,0,0,0,0,0,0,0,0,0,0,-.6,0" class="s5_20">Seymour Ditor, </text>
<text x="535" y="994" class="s6_20">University of Western Ontario</text>
<text x="447" y="1011" dx="0,0,0,-.2,0,0,0,0,0,0,0,0,0,0" class="s5_20">Greg Dresden, </text>
<text x="531" y="1011" class="s6_20">Washington and Lee University</text>
<text x="447" y="1027" dx="0,0,0,0,0,0,0,0,0,0,0,0,-.1,0,-.6,0" class="s5_20">Daniel Drucker, </text>
<text x="538" y="1027" class="s6_20">Wayne State University</text>
<text x="447" y="1044" dx="0,-.3,0,0,0,0,0,0,0,0,0" class="s5_20">Kenn Dunn, </text>
<text x="517" y="1044" class="s6_20">Dalhousie University</text>
<path d="M55,673.9c0,0,-1.5,0,-1.5,1.5v9.2c0,0,0,1.5,1.5,1.5h9.2c0,0,1.5,0,1.5,-1.5v-9.2c0,0,0,-1.5,-1.5,-1.5Z" class="g0_20"/>
<text x="73" y="686" dx="0,-.2,0,-.2,0,-.1,0,-.1,0,0,0,-.1,-.1,-.1,-.1,0,0,0,0,-.2,0,-.1,-.1,-.2,0,.1" class="s7_20">Previous Edition Reviewers</text>
<text x="121" y="1076" class="s8_20">Copyright 2016 Cengage Learning. All Rights Reserved. May not be copied, scanned, or duplicated, in whole or in part. Due to electronic rights, some third party content may be suppressed from the eBook and/or eChapter(s).</text>
<text x="106" y="1087" class="s8_20">Editorial review has deemed that any suppressed content does not materially affect the overall learning experience. Cengage Learning reserves the right to remove additional content at any time if subsequent rights restrictions require it.</text>

</g>

<!-- Any embedded fonts defined here -->
<style type="text/css" ><![CDATA[

@font-face {
	font-family: MyriadPro-Regular_4i;
	src: url("fonts/MyriadPro-Regular_4i.woff") format("woff");
}

@font-face {
	font-family: MyriadPro-Semibold_49;
	src: url("fonts/MyriadPro-Semibold_49.woff") format("woff");
}

@font-face {
	font-family: Times-Roman_4n;
	src: url("fonts/Times-Roman_4n.woff") format("woff");
}

@font-face {
	font-family: TimesLTStd-Italic_o3;
	src: url("fonts/TimesLTStd-Italic_o3.woff") format("woff");
}

@font-face {
	font-family: TimesLTStd-Roman_6c;
	src: url("fonts/TimesLTStd-Roman_6c.woff") format("woff");
}

]]></style>

</svg>
