<?xml version="1.0" encoding="UTF-8" standalone="no"?>
<!DOCTYPE svg PUBLIC "-//W3C//DTD SVG 1.1//EN"
"http://www.w3.org/Graphics/SVG/1.1/DTD/svg11.dtd">


<!-- Page 23 -->
<svg x="0" y="0" width="931" height="1096" viewBox="0 0 931 1096" version="1.1" xmlns="http://www.w3.org/2000/svg" xmlns:xlink="http://www.w3.org/1999/xlink"
style="display: block;margin-left: auto;margin-right: auto;">
<defs>
<clipPath id="c_23"><path d="M0,0H931V1096H0Z"/></clipPath>
<clipPath id="c0_23"><path d="M507.8,307.8V287h86v20.8Z"/></clipPath>

<style type="text/css"><![CDATA[
text { white-space: pre; }
path, image { pointer-events: none; }

.s1_23{
font-size: 15.28px;
font-family: MyriadPro-SemiboldSemiCn_4e;
fill: #231F20;
}
.s2_23{
font-size: 13.75px;
font-family: ZapfDingbatsStd_qv;
fill: #EC008C;
}
.s3_23{
font-size: 13.75px;
font-family: TimesLTStd-Roman_6c;
fill: #EC008C;
}
.s4_23{
font-size: 13.75px;
font-family: ZapfDingbatsStd_qv;
fill: #00AEEF;
}
.s5_23{
font-size: 13.75px;
font-family: TimesLTStd-Roman_6c;
fill: #00AEEF;
}
.s6_23{
font-size: 13.75px;
font-family: TimesLTStd-Italic_o3;
fill: #231F20;
}
.s7_23{
font-size: 13.75px;
font-family: MyriadPro-Bold_74;
fill: #00AEEF;
}
.s8_23{
font-size: 13.75px;
font-family: TimesLTStd-Roman_6c;
fill: #231F20;
}
.s9_23{
font-size: 13.75px;
font-family: MyriadPro-Bold_74;
fill: #CC017A;
}
.sa_23{
font-size: 7.64px;
font-family: ZapfDingbats_qq;
fill: #231F20;
}
.sb_23{
font-size: 13.75px;
font-family: MyriadPro-Bold_74;
fill: #FFFFFF;
}
.sc_23{
font-size: 7.64px;
font-family: Times-Roman_4n;
fill: #000000;
}

.g0_23{
fill: none;
stroke: #231F20;
stroke-width: 0.763;
stroke-linecap: butt;
stroke-linejoin: miter;
stroke-miterlimit: 4;
}
.g1_23{
fill: #FFFFFF;
}
.g2_23{
fill: #EC008C;
}
.g3_23{
fill: #231F20;
}
.g4_23{
fill: #C5121A;
}

]]></style>

</defs>
<g clip-path="url(#c_23)">
<path d="M0,0
L0,1096
L931,1096
L931,0 Z " 
fill="#FFFFFF" stroke="none"/>
<path d="M109,999H879V53.3H109V999Z" class="g0_23"/>
<text x="861" y="1043" class="s1_23">xxi</text>
<path d="M109,1028.6H879v-18.3H109v18.3Z" class="g1_23"/>
<text x="109" y="1020" class="s2_23">■</text>
<text x="122" y="1020" class="s3_23">Electronic items</text>
<text x="226" y="1020" class="s4_23">■</text>
<text x="240" y="1020" class="s5_23">Printed items </text>
<text x="713" y="1020" dx="0,0,-1.3,0,0,0,0,0,0,0,0,0,0,0,0,0,0,0,0,0,0,0,-.1,-.1,0,0,0,0,0,0" class="s6_23">(Table continues on page xxii)</text>
<image preserveAspectRatio="none" x="114" y="59" width="369" height="35" xlink:href="23/img/1.png"/>
<text x="118" y="114" dx="0,0,0,0,0,0,0,.2,-.1,0,.2,-1.3,0,0,0,0,0,0" class="s7_23">Instructor’s Guide</text>
<text x="118" y="134" dx="0,0,0,0,0,0,0,0,0,0,0,0,0,0,-.2" class="s8_23">by Douglas Shaw</text>
<text x="118" y="154" class="s8_23">ISBN 978-1-305-39371-4</text>
<text x="136" y="175" dx="0,0,0,-.2,0,0,0,0,0,0,0,0,0,0,0,0,0,0,0,0,0,0,-.3,0,0,0,0,0,0,0,0,0,0,0,0,0,0,0,0,0,-.6,0,0,0,0,-.2,0,0,-.2,0,0,0,0,0,-.2,0,0,0,0,0,0,0,0" class="s6_23">Each section of the text is discussed from several viewpoints. </text>
<text x="136" y="192" dx="0,0,0,0,0,0,0,0,0,0,0,0,0,0,0,-.5,0,0,0,0,0,0,0,0,0,0,0,0,0,0,0,0,0,0,0,-.1,-.1,0,0,0,0,0,0,0,0,0,0,0,0,0,0,0,0,0,0,0,0,0,0,0,0,0,0,0" class="s6_23">The Instructor’s Guide contains suggested time to allot, points </text>
<text x="136" y="209" dx="0,0,0,0,0,0,-.5,0,0,0,0,0,0,-.3,0,0,0,0,0,0,0,0,0,0,0,0,0,0,0,0,0,0,0,0,0,0,0,0,-.5,0,0,0,0,0,0,0,0,0,0,0,0,0,0,0,0,0,0,0,0,0,-.5,-.1,0" class="s6_23">to stress, text discussion topics, core materials for lecture, </text>
<text x="136" y="226" dx="0,0,0,0,0,0,0,0,0,0,0,0,0,0,0,0,0,0,0,0,0,0,0,-.1,-.1,0,0,0,0,0,0,0,0,0,0,-.6,0,0,0,0,0,0,0,0,0,-.3,0,0,-.5,0,0,0,0,0,0,0,0" class="s6_23">workshop/discussion suggestions, group work exercises in </text>
<text x="136" y="242" dx="0,0,0,0,0,0,0,0,0,0,0,0,0,0,0,0,0,0,0,0,0,0,0,0,0,0,0,0,0,0,0,0,0,0,0,0,-.1,-.1,0,0,0,0,0,0,0,0,0,-.2,0,0,0,0" class="s6_23">a form suitable for handout, and suggested homework </text>
<text x="136" y="259" class="s6_23">assignments.</text>
<text x="118" y="308" dx="0,-.3,0,0,0,0,0,-.1,0,0,.1,0,0,0,0,0,0,0,0,0,0,0,0,0,0" class="s7_23">Complete Solutions Manual</text>
<text x="136" y="329" dx="0,0,0,0,0,0,0,-.5,-.6,0,0,0,0,0,0,0,0,0,0,0,0,0,-.5,-.7,-.2,0,0,0,-.2,0,0,0,0,-.1,0,0,0" class="s7_23">Single Variable Early Transcendentals</text>
<text x="136" y="349" dx="0,0,0,0,0,0,0,0,0,0,-.8,0,0,0,0,0,0,0,0,0,0,0,0,-.3,0,0,0,0,-.8,0,0,0,0,0,0,0,0,0,0,0,0,0,0,0,0,0,0,0,0,0,0,0,0,-.1,0" class="s8_23">By Daniel Anderson, Jeffery A. Cole, and Daniel Drucker</text>
<text x="136" y="369" class="s8_23">ISBN 978-1-305-27239-2</text>
<text x="136" y="394" dx="0,0,0,0,0,0,-.1,0,0,0,0,0,0" class="s7_23">Multivariable</text>
<text x="136" y="413" dx="0,0,0,0,0,0,0,0,0,0,-.2,0,0,0,0,0,0,0,0,0,0,0,0,0,0,0,0,0,0,0" class="s8_23">By Dan Clegg and Barbara Frank</text>
<text x="136" y="433" class="s8_23">ISBN 978-1-305-27611-6</text>
<text x="136" y="455" dx="0,0,0,0,0,0,0,0,0,0,0,0,0,-.1,0,0,0,0,0,0,0,0,0,0,0,0,0,0,0,0,0,0,0,0,0,0,0,0,-.3,0,0,-.5,0,0,0,0,0,0,0,0,0,0,0,0,0,0,-.3,0,0" class="s6_23">Includes worked-out solutions to all exercises in the text.</text>
<text x="118" y="504" dx="0,-.1,0,0,-.1,-.1,0,0,-.5,-1.1,0,0,0,0,0,0,0" class="s7_23">Printed Test Bank</text>
<text x="118" y="523" dx="0,0,0,-.4,-.6,0,0,0,0,0,0,0,0,0,-.3,-.2,0,0,0,0,0,0,0,0" class="s8_23">By William Steven Harmon</text>
<text x="118" y="543" class="s8_23">ISBN 978-1-305-38722-5</text>
<text x="136" y="565" dx="0,0,0,0,0,0,0,0,0,0,0,-.3,0,0,0,0,0,0,0,0,0,0,0,0,0,0,0,0,0,0,0,0,-.2,0,0,0,0,0,0,0,0,0,0,0,-.5,0,0,0,-.5,0,0,0,0,0,0,0,0,0,0,0,0" class="s6_23">Contains text-speci±c multiple-choice and free response test </text>
<text x="136" y="582" class="s6_23">items.</text>
<text x="118" y="630" dx="0,-.3,0,0,0,0,0,0,0,-.1,0,0,0,0,0,0,0,-.5,-1.1,0,0,0,0,0,0,0,-.3,-.1,-.2,0,-.1,0,0,0,-.1,0,0,-.3,0,0,0,0,-.1" class="s9_23">Cengage Learning Testing Powered by Cognero</text>
<text x="118" y="649" dx="0,0,0,0,0,0,0,0,0,0,0,-.1,0,0,0,0,0,0,0" class="s8_23">(login.cengage.com)</text>
<text x="136" y="670" dx="0,0,0,0,0,0,0,-.3,0,0,0,0,0,0,0,0,0,0,0,0,0,0,0,0,0,0,0,0,0,0,0,0,0,0,0,0,0,0,0,0,0,0,0,0,0,0,0,-1.5,0,0,0,0,0,0,0,0,0,0,0" class="s6_23">This ²exible online system allows you to author, edit, and </text>
<text x="136" y="687" dx="0,0,0,0,-.1,-.1,0,0,0,0,0,0,0,0,0,0,0,0,0,0,0,0,0,0,0,0,0,-.6,0,0,0,0,0,0,0,0,0,0,0,0,0,0,0,0,-.1,-.1,0,0,0,0,0,0,0,0,0,0" class="s6_23">manage test bank content from multiple Cengage Learning </text>
<text x="136" y="704" dx="0,0,0,0,0,0,0,0,0,0,0,0,0,-.5,0,0,0,0,0,0,0,0,0,0,0,0,0,0,0,0,0,0,0,0,0,-.1,0,0,0,0,0,0,0,0,0,0,0,0,0,0,0,0,0,0,0,0,0,0,0,0" class="s6_23">solutions; create multiple test versions in an instant; and </text>
<text x="136" y="721" dx="0,0,0,0,0,0,0,0,0,0,0,0,0,0,0,0,-.6,0,0,0,0,0,0,0,0,0,0,0,0,0,0,0,0,0,0,0,0,0,0,0,-.6,0,0,0,0,0,0,0,0,0,0,0,-.5,-.2,0,0,0,0,0,0,0" class="s6_23">deliver tests from your LMS, your classroom, or wherever you </text>
<text x="136" y="737" class="s6_23">want.</text>
<image preserveAspectRatio="none" x="114" y="780" width="369" height="35" xlink:href="23/img/2.png"/>
<text x="118" y="835" dx="0,-.1,-.1,-.1,-.1,0,.3,0,-.5,-.6,0,0,0,0,-.1" class="s9_23">Stewart Website</text>
<text x="118" y="855" dx="0,0,0,-.9,0,0,0,-.3,-.1,0,0,0,0,0,0,0,0,0,0,0,0,0,0" class="s8_23">www.stewartcalculus.com</text>
<text x="136" y="876" class="s8_23">Contents: </text>
<text x="192" y="876" dx="0,0,0,0,-.2,0,0,0,0,0,0,0,0,0,0" class="s6_23">Homework Hints </text>
<text x="292" y="875" class="sa_23">n</text>
<text x="305" y="876" dx="0,0,0,-.1,0,0,-.2,0,0,0,-.2,0,0,-.2,0" class="s6_23">Algebra Review </text>
<text x="398" y="875" class="sa_23">n</text>
<text x="411" y="876" class="s6_23">Additional </text>
<text x="136" y="893" dx="0,-1.3,0,0,0,0,0" class="s6_23">Topics </text>
<text x="178" y="891" class="sa_23">n</text>
<text x="191" y="893" dx="0,0,0,0,0,0,0,-.3,0,0,-.5,0,0,0,0,0" class="s6_23">Drill exercises </text>
<text x="278" y="891" class="sa_23">n</text>
<text x="290" y="893" dx="0,0,0,0,0,0,0,0,-.1,0,0,0,-.6,0,0,0,0,0,0" class="s6_23">Challenge Problems </text>
<text x="409" y="891" class="sa_23">n</text>
<text x="421" y="893" dx="0,-1.3,0,0" class="s6_23">Web </text>
<text x="136" y="910" class="s6_23">Links </text>
<text x="173" y="908" class="sa_23">n</text>
<text x="185" y="910" class="s6_23">History of Mathematics </text>
<text x="322" y="908" class="sa_23">n</text>
<text x="335" y="910" dx="0,-1.3,0,0,0,0,0,0,0,0,0,0,0,0,0,-.2,0,0,0,0" class="s6_23">Tools for Enriching </text>
<text x="136" y="927" class="s6_23">Calculus (TEC) </text>
<path d="M510.8,67.6c0,0,-3,0,-3,3.1v9.1c0,0,0,3.1,3,3.1h21.4c0,0,3.1,0,3.1,-3.1V70.7c0,0,0,-3.1,-3.1,-3.1Z" class="g2_23"/>
<text x="510" y="80" class="sb_23">TEC</text>
<text x="542" y="80" dx="0,-.4,0,0,0,0,0,0,0,0,0,0,0,0,0,0,0,0,0,0,0,0,.1,0,-.5,0,0,-.4,0" class="s9_23">TOOLS FOR ENRICHING™ CALCULUS</text>
<text x="507" y="100" dx="0,0,0,0,0,0,0,0,0,0,0,0,-.3,-.1,0,0,0,0,0,0,0,0,-.2,-.2,0,0,-.3,-.2,0,0,0,0,0,0,0,0,0,0,0,0,-.2,0,0,0,0,0,0,0,0,0,-.3,-.2,0,0,0,0,0,0" class="s8_23">By James Stewart, Harvey Keynes, Dan Clegg, and developer </text>
<text x="507" y="117" class="s8_23">Hubert Hohn</text>
<text x="526" y="139" dx="0,-1.3,0,0,0,0,0,0,0,0,0,0,0,0,0,-.2,0,0,0,0,0,0,0,0,0,0,0,0,0,0,0,0,0,0,0,0,0,0,0,0,0,0,0,0,0,0,0,0,0,0,0,0,0,0,0" class="s6_23">Tools for Enriching Calculus (TEC) functions as both a </text>
<text x="526" y="155" dx="0,0,0,0,0,0,0,0,0,0,0,0,0,0,0,0,0,0,0,0,0,0,0,0,0,0,0,0,-.1,0,0,0,0,0,0,0,0,0,0,0,0,0,0,0,0,0,0,0,0,0,-.6,0,0,-.6,0,0,0,0,0,0" class="s6_23">powerful tool for instructors and as a tutorial environment </text>
<text x="526" y="172" dx="0,0,0,0,0,0,0,-.2,0,0,0,0,0,0,0,0,0,0,0,0,0,0,0,-.3,0,0,0,0,-.5,0,0,0,0,0,0,-.5,-.2,0,0,-.2,0,0,0,0,0,0,0,0,0,0,0,0,0,0,0,0,0,0,-.2,0,0,0" class="s6_23">in which students can explore and review selected topics. The </text>
<text x="526" y="189" dx="0,0,0,0,0,0,0,0,0,0,0,0,0,0,0,0,0,0,0,0,0,0,0,0,0,0,0,0,-.2,0,0,0,0,0,0,0,0,0,0,0,0,0,0,0,0,0,0,0,0,0,0,0,0,0,0,0,0,0,0,0,0,0" class="s6_23">Flash simulation modules in TEC include instructions, written </text>
<text x="526" y="206" dx="0,0,0,0,0,0,0,0,0,0,0,-.3,0,0,0,0,0,0,0,0,0,0,0,0,0,0,0,0,0,0,0,0,0,0,0,0,0,0,0,0,0,0,0,0,0,-.3,0,0,-.5,0,0,0,0,0,0,-.2,0,0,0" class="s6_23">and audio explanations of the concepts, and exercises. TEC </text>
<text x="526" y="223" dx="0,0,0,0,0,0,0,0,0,0,0,0,0,0,0,0,0,0,0,0,0,0,0,0,0,0,0,0,0,0,0,0,0,0,0,-.1,0,0,0,0,0,0,0,0,0,0,0,0,0,0,0,0,0,0,0" class="s6_23">is accessible in the eBook via CourseMate and Enhanced </text>
<text x="526" y="239" dx="0,-1.3,0,0,0,0,0,0,0,0,0,0,0,0,0,0,0,0,0,0,-.5,-1,0,0,0,0,0,0,0,0,0,0,0,0,0,0,0,0,0,0,0,0,-.5,0,0,0,0,0,0,0,0,0,0,0,0,0,0" class="s6_23">WebAssign. Selected Visuals and Modules are available at </text>
<text x="526" y="256" dx="0,0,0,-.9,0,0,0,-.3,-.1,0,0,0,0,0,0,0,0,0,0,0,0,0,0,0" class="s8_23">www.stewartcalculus.com.</text>
<path d="M531.3,296.1h1.4l2.1,7.6h.1l1.9,-7.6h1.8l1.9,7.6h.1l2.1,-7.6h1.4l-2.8,8.9h-1.7l-1.9,-7.8l-2,7.8H534Z" class="g3_23"/>
<path d="M547.9,301.1c0,-1,-.6,-1.8,-1.6,-1.8c-1.2,0,-1.7,1,-1.8,1.8Zm.8,3.6c-.5,.2,-1,.5,-2.1,.5c-2.3,0,-3.4,-1.5,-3.4,-3.6c0,-1.9,1.2,-3.3,3.1,-3.3c2.2,0,2.9,1.6,2.9,3.7h-4.7c0,1.3,1,2.2,2.2,2.2c.7,0,1.7,-.4,2,-.7Z" class="g3_23"/>
<path d="M552.8,299.3c-1.3,0,-1.9,1.2,-1.9,2.4c0,1.1,.6,2.5,1.9,2.5c1.3,0,1.9,-1.5,1.8,-2.5c.1,-1.2,-.4,-2.4,-1.8,-2.4m-3.1,-3.9h1.2v4c.4,-.6,1.1,-1.1,2.2,-1.1c1.9,0,2.8,1.6,2.8,3.3c0,1.8,-.8,3.5,-2.8,3.5c-1.1,0,-1.9,-.5,-2.2,-1v.9h-1.2Z" class="g3_23"/>
<path d="M560.4,297.9v0l-1.2,3.5h2.3Zm-1.5,-1.8h3l3.4,8.9h-2.6l-.7,-1.9h-3.3L558,305h-2.5Z" class="g4_23"/>
<path d="M565,303.2c.5,.2,1.3,.4,2.1,.4c.5,0,1,-.1,1,-.5c0,-1.2,-3.3,-.4,-3.3,-2.8c0,-1.5,1.5,-2.1,2.8,-2.1c.8,0,1.7,.1,2.4,.4l-.2,1.5c-.5,-.2,-1.2,-.4,-1.8,-.4c-.5,0,-1.1,.1,-1.1,.5c0,1,3.5,.2,3.5,2.7c0,1.8,-1.6,2.2,-3.1,2.2c-1.1,0,-1.8,0,-2.4,-.3Z" class="g4_23"/>
<path d="M570.4,303.2c.5,.2,1.3,.4,2.1,.4c.5,0,1,-.1,1,-.5c0,-1.2,-3.3,-.4,-3.3,-2.8c0,-1.5,1.5,-2.1,2.8,-2.1c.8,0,1.6,.1,2.4,.4l-.2,1.5c-.5,-.2,-1.2,-.4,-1.8,-.4c-.5,0,-1.1,.1,-1.1,.5c0,1,3.5,.2,3.5,2.7c0,1.8,-1.6,2.2,-3.1,2.2c-1.1,0,-1.8,0,-2.5,-.3Z" class="g4_23"/>
<path d="M576.1,298.3h2.3V305h-2.3Zm2.3,-1.1h-2.3v-1.7h2.3Z" class="g4_23"/>
<path d="M582.5,303.2c.8,0,1.5,-.7,1.5,-1.7c0,-.7,-.5,-1.6,-1.5,-1.6c-.9,0,-1.3,.8,-1.3,1.7c0,1,.6,1.6,1.3,1.6m3.7,1c0,2.8,-1.3,3.6,-4,3.6c-1.1,0,-2,-.2,-2.6,-.4l.1,-1.8c.7,.3,1.3,.6,2.3,.6c1.3,0,2.1,-.7,2.1,-2v-.3H584c-.5,.7,-1.3,1.1,-2.2,1.1c-1.9,0,-3,-1.4,-3,-3.4c0,-1.9,.9,-3.4,3,-3.4c1,0,1.8,.5,2.3,1.3v-1.2h2.1Z" class="g4_23"/>
<path d="M586.7,298.3h2.1v1.3c.4,-1,1.4,-1.4,2.4,-1.4c1.8,0,2.6,1.2,2.6,2.6V305h-2.3v-3.2c0,-1.3,-.5,-1.7,-1.1,-1.7c-1,0,-1.4,.6,-1.4,2.1V305h-2.3Z" class="g4_23"/>
<g clip-path="url(#c0_23)">
<path d="M542.1,289.7c.2,2.2,-7.3,4.6,-16.8,5.4c-9.5,.8,-17.3,-.3,-17.5,-2.4c-.2,-2.2,7.3,-4.6,16.8,-5.4c9.5,-.9,17.3,.2,17.5,2.4Z" class="g4_23"/>
</g>
<path d="M510.9,289.5h2.5v.7h-1.5v.7h1.4v.7h-1.4v.8h1.6v.7h-2.6Z" class="g1_23"/>
<path d="M514.1,289.5h1.1l1.2,2.4h.1l-.1,-2.4h.9v3.6h-1.2l-1.2,-2.5v2.5h-.8Z" class="g1_23"/>
<path d="M518,289.5h.9v1.4H520v-1.4h1v3.6h-1v-1.6h-1.1v1.6H518Z" class="g1_23"/>
<path d="M523.2,290.3v0l-.4,1.3h.9Zm-.5,-.8h1.1l1.4,3.6h-1l-.3,-.8h-1.3l-.3,.8h-1Z" class="g1_23"/>
<path d="M525.6,289.5h1.1l1.2,2.4h.1l-.1,-2.4h.9v3.6h-1.2l-1.2,-2.5v2.5h-.8Z" class="g1_23"/>
<path d="M532.4,293c-.3,0,-.6,.1,-1,.1c-1,0,-2.1,-.5,-2.1,-1.8c0,-1.2,.9,-1.8,2.1,-1.8c.3,0,.7,0,1,.2l-.1,.7c-.3,-.2,-.6,-.2,-.9,-.2c-.7,0,-1.1,.5,-1.1,1.1c0,.7,.5,1.1,1.2,1.1c.3,0,.6,-.1,.9,-.2Z" class="g1_23"/>
<path d="M532.8,289.5h2.5v.7h-1.5v.7h1.4v.7h-1.4v.8h1.6v.7h-2.6Z" class="g1_23"/>
<path d="M536.9,292.4h.3c.7,0,1.1,-.4,1.1,-1.1c0,-.7,-.4,-1.1,-1.1,-1.1h-.3Zm-1,-2.9h1.3c1.2,0,2.1,.4,2.1,1.8c0,1.3,-.9,1.8,-2.1,1.8h-1.3Z" class="g1_23"/>
<text x="607" y="305" dx="0,0,0,0,0,0,-.2,0,0,-.5,-.6,0,0,0,0,0,0,0,0" class="s9_23">Enhanced WebAssign®</text>
<text x="507" y="325" dx="0,0,0,-.9,0,0,0,0,0,0,0,0,0,0,0,0,0" class="s8_23">www.webassign.net</text>
<text x="507" y="345" dx="0,0,0,0,0,0,0,0,-.8,0,0,0,0,0,0,0,0,0,0,0,0,0,0,0,0,0,0,0,0,0,0,0,0,0,0,0,0,0,0,0,0,0,0" class="s8_23">Printed Access Code: ISBN 978-1-285-85826-5</text>
<text x="507" y="365" dx="0,0,0,0,0,0,0,0,-.8,0,0,0,0,0,0,0,0,0,0,0,0,0,0,0,0,0,0,0,0,0,0,0,0,0,0,0,0,0,0,0,0,0,0" class="s8_23">Instant Access Code ISBN: 978-1-285-85825-8</text>
<text x="526" y="386" dx="0,0,0,0,0,0,0,0,0,0,0,0,0,0,-.6,0,0,0,0,0,0,0,-.1,-.1,0,0,0,0,0,0,0,0,0,-.1,0,0,0,0,0,0,0,0,0,0,-.6,-1.3,0,0,0,0,0,0,0,0" class="s6_23">Exclusively from Cengage Learning, Enhanced WebAssign </text>
<text x="526" y="403" dx="0,0,-.2,0,0,-.1,0,0,0,0,0,-.3,0,0,0,0,0,0,0,0,0,0,0,0,0,0,0,0,0,-.6,-.1,0,-.2,0,0,0,0,0,0,0,0,0,-.2,0,0,0,0,-.6,0" class="s6_23">offers an extensive online program for Stewart’s </text>
<text x="793" y="403" class="s8_23">Calculus </text>
<text x="526" y="420" dx="0,0,0,0,0,0,0,0,0,-.2,-.1,-.1,0,0,0,0,0,0,0,-.2,0,0,0,0,0,0,0,0,0,0,0,0,0,0,0,0,0,0,0,0,0,0,0,0,0,0,0,0,0,0,0,0,0,0,0,0,0,0" class="s6_23">to encourage the practice that is so critical for concept </text>
<text x="526" y="436" dx="0,0,0,0,0,0,0,-.8,0,-.2,0,0,0,0,0,0,0,0,0,0,0,0,0,0,0,0,0,0,-.2,0,0,0,0,0,0,0,0,0,-.1,0,-.1,0,0,0,0,0,0,0,-.3,0,0,-.5,0,0,0,0,0" class="s6_23">mastery. The meticulously crafted pedagogy and exercises </text>
<text x="526" y="453" dx="0,0,0,0,0,0,0,0,0,-.6,-.1,0,0,0,0,0,-.3,0,0,0,0,0,0,0,0,0,0,0,-.2,0,0,0,0,0,0,-.5,0,0,0,-.2,0,0,0,0,0,0,0,0,0,0,0,0,0,0,0,0,0,0,0" class="s6_23">in our proven texts become even more effective in Enhanced </text>
<text x="526" y="470" dx="0,-1.3,0,0,0,0,0,0,0,0,0,0,0,0,0,0,0,0,0,0,0,0,0,0,0,0,0,0,0,0,0,0,0,0,0,0,0,0,0,0,0,0,0,0,0,0,0,0,0,0,0,0,0,0,0,0,0,0,0" class="s6_23">WebAssign, supplemented by multimedia tutorial support and </text>
<text x="526" y="487" dx="0,0,0,0,0,0,0,0,0,0,0,0,0,0,0,0,0,-.3,0,0,0,0,0,0,0,0,0,0,0,0,0,0,0,0,0,0,0,0,0,0,0,0,0,0,0,0,0,0,0,0,0,0,0,0,0,0,0,0,0" class="s6_23">immediate feedback as students complete their assignments. </text>
<text x="526" y="504" dx="0,-.5,-.4,0,0,0,0,0,0,0,-.5,0,0,0,0,0,0,0,0,0,0,0" class="s6_23">Key features include: </text>
<text x="526" y="524" class="sa_23">n</text>
<text x="538" y="525" dx="0,0,0,0,0,0,0,0,0,0,0,0,0,0,0,0,0,-.2,0,0,0,0,0,0,-.6,0,0,0,0,0,0,0,0,0,0,0,0,0,0,0,-.2,0,0,0,0,0,0,0,0,-.3,0,0" class="s6_23">Thousands of homework problems that match your text-</text>
<text x="538" y="542" dx="0,0,0,0,0,-.6,0,0,0,0,0,0,0,0,0,0,0,0,0,0,0,0,0,-.3,0,0,-.5,0,0,0,0" class="s6_23">book’s end-of-section exercises</text>
<text x="526" y="566" class="sa_23">n</text>
<text x="538" y="568" dx="0,0,0,0,0,0,0,0,0,0,0,0,0,0,0,0,0,0,0,0,0,0,0,0,0,0,0,0,0,0,0,-.5,-.2,0,0,-.2,0,0,0,-.5,0,-.5,0,0,0,0,0,0,0,0,0,0,0,0,0,0,0,0,0,0,0" class="s6_23">Opportunities for students to review prerequisite skills and </text>
<text x="538" y="585" dx="0,0,0,0,0,0,0,0,0,0,0,0,0,0,0,0,0,0,0,0,0,0,0,0,0,0,0,0,0,0,0,0,0,0,0,0,0,-.1,0,0,0,0,0,0,0,0,0,0,0,0,0,0,0,-.6,0,0,0,0,0,0,0" class="s6_23">content both at the start of the course and at the beginning </text>
<text x="538" y="601" dx="0,0,0,0,0,0,-.2,0,0,0,0,0,0,0,0" class="s6_23">of each section</text>
<text x="526" y="626" class="sa_23">n</text>
<text x="538" y="627" class="s8_23">Read It</text>
<text x="582" y="627" dx="0,0,0,0,0,0,0,0,-.1,-.1,0,0,0" class="s6_23">eBook pages, </text>
<text x="658" y="627" dx="0,-1.1,0,0,0,0,0,0" class="s8_23">Watch It</text>
<text x="708" y="627" class="s6_23">videos, </text>
<text x="750" y="627" class="s8_23">Master It</text>
<text x="804" y="627" class="s6_23">tutorials, </text>
<text x="538" y="644" class="s6_23">and </text>
<text x="562" y="644" dx="0,0,0,0,0,-.8,0,0,0,0,0,0,0" class="s8_23">Chat About It</text>
<text x="641" y="644" class="s6_23">links</text>
<text x="526" y="669" class="sa_23">n</text>
<text x="538" y="670" dx="0,0,0,0,0,0,0,0,0,0,0,0,0,0,0,0,0,0,0,0,-.1,-.1,0" class="s6_23">A customizable Cengage </text>
<text x="677" y="670" dx="0,-1.5,0,0,0,0,0" class="s8_23">YouBook</text>
<text x="733" y="670" dx="0,0,0,0,0,0,0,0,0,0,0,0,0,0,0,0,0,-.1,0,0,0,0,0,0" class="s6_23">with highlighting, note-</text>
<text x="538" y="687" dx="0,0,0,0,0,0,-.1,0,0,0,0,0,0,0,0,0,-.5,-.2,0,0,0,0,0,0,0,-.5,0,0,0,0,0,0,0,0,0,0,0,0,0,0,0,0,0,0,0,0,0,0,0,0,0,0,0,0,0,0,0,0,0,0" class="s6_23">taking, and search features, as well as links to multimedia </text>
<text x="538" y="704" dx="0,-.5,0,0,0,0,-.5,0,0" class="s6_23">resources</text>
<text x="526" y="728" class="sa_23">n</text>
<text x="538" y="730" class="s8_23">Personal Study Plans</text>
<text x="658" y="730" dx="0,0,0,0,0,0,0,0,0,0,0,0,0,-.1,0,0,0,0,0,0,0,0,0,0,0,0,0,0,0,0,0,0,0,0,0,0" class="s6_23">(based on diagnostic quizzing) that </text>
<text x="538" y="747" dx="0,0,0,0,0,0,0,0,0,0,-.2,0,0,0,0,0,0,0,0,0,0,0,0,0,0,0,0,0,0,0,0,0,0,0,0,0,0,0,0,0,0,0,0,0,0,0,0,0,0,0,0,0,0,0,0,0,0" class="s6_23">identify chapter topics that students will need to master</text>
<text x="526" y="771" class="sa_23">n</text>
<text x="538" y="773" dx="0,0,-.5,-1.3,0,0,0,0,0,0,0,0" class="s6_23">A WebAssign </text>
<text x="613" y="773" dx="0,0,0,0,0,0,0,0,0,-.3,0,0,0,0,0,0" class="s8_23">Answer Evaluator</text>
<text x="716" y="773" dx="0,0,0,0,0,0,-.5,0,0,-.1,0,0,0,0,0,0,0,0,0,0,0,0,0,0,0,0,0,0" class="s6_23">that recognizes and accepts </text>
<text x="538" y="789" dx="0,0,0,0,0,0,0,0,0,0,0,0,0,0,0,0,0,0,0,0,0,0,0,0,0,-.5,0,0,0,0,0,0,0,0,0,0,0,0,0,0,0,0,0,0,0,0,0,0,0,0,0,0,0" class="s6_23">equivalent mathematical responses in the same way an </text>
<text x="538" y="806" dx="0,0,0,0,0,0,0,0,0,0,0,0,0,-.2,0,0,0" class="s6_23">instructor grades</text>
<text x="526" y="831" class="sa_23">n</text>
<text x="538" y="832" class="s6_23">A </text>
<text x="550" y="832" dx="0,0,0,-.3,0,0,0,0,-.4,-1.1,0,0" class="s8_23">Show My Work</text>
<text x="640" y="832" dx="0,0,0,0,0,0,-.5,0,0,0,0,0,0,0,0,0,0,0,0,0,0,0,0,0,0,0,0,0,0,-.1,0,0,0,0,0,0,0,0,0,0,0,0" class="s6_23">feature that gives instructors the option </text>
<text x="538" y="849" dx="0,0,0,0,0,0,0,0,0,0,0,0,0,0,0,0,0,0,0,-1.5,0,0,0,0,0,0,0,0,0,0,0,0,0,0,0,0,0,0" class="s6_23">of seeing students’ detailed solutions</text>
<text x="526" y="873" class="sa_23">n</text>
<text x="538" y="875" dx="0,-.8,0,0,0,0,0,0,0,0,0,0,0,0,0,0,0,0,0,0,0,-.8,0,0,0,0,0,0,0,0,0,0,0,0,0,0,0,0,0,0,0,-.7,-.8,0,0,0,0,0,0" class="s8_23">Visualizing Calculus Animations, Lecture Videos, </text>
<text x="815" y="875" dx="0,0,0,0,0,0,0,-.5" class="s6_23">and more</text>
<text x="121" y="1076" class="sc_23">Copyright 2016 Cengage Learning. All Rights Reserved. May not be copied, scanned, or duplicated, in whole or in part. Due to electronic rights, some third party content may be suppressed from the eBook and/or eChapter(s).</text>
<text x="106" y="1087" class="sc_23">Editorial review has deemed that any suppressed content does not materially affect the overall learning experience. Cengage Learning reserves the right to remove additional content at any time if subsequent rights restrictions require it.</text>

</g>

<!-- Any embedded fonts defined here -->
<style type="text/css" ><![CDATA[

@font-face {
	font-family: MyriadPro-Bold_74;
	src: url("fonts/MyriadPro-Bold_74.woff") format("woff");
}

@font-face {
	font-family: MyriadPro-SemiboldSemiCn_4e;
	src: url("fonts/MyriadPro-SemiboldSemiCn_4e.woff") format("woff");
}

@font-face {
	font-family: Times-Roman_4n;
	src: url("fonts/Times-Roman_4n.woff") format("woff");
}

@font-face {
	font-family: TimesLTStd-Italic_o3;
	src: url("fonts/TimesLTStd-Italic_o3.woff") format("woff");
}

@font-face {
	font-family: TimesLTStd-Roman_6c;
	src: url("fonts/TimesLTStd-Roman_6c.woff") format("woff");
}

@font-face {
	font-family: ZapfDingbatsStd_qv;
	src: url("fonts/ZapfDingbatsStd_qv.woff") format("woff");
}

@font-face {
	font-family: ZapfDingbats_qq;
	src: url("fonts/ZapfDingbats_qq.woff") format("woff");
}

]]></style>

</svg>
