<?xml version="1.0" encoding="UTF-8" standalone="no"?>
<!DOCTYPE svg PUBLIC "-//W3C//DTD SVG 1.1//EN"
"http://www.w3.org/Graphics/SVG/1.1/DTD/svg11.dtd">


<!-- Page 28 -->
<svg x="0" y="0" width="931" height="1096" viewBox="0 0 931 1096" version="1.1" xmlns="http://www.w3.org/2000/svg" xmlns:xlink="http://www.w3.org/1999/xlink"
style="display: block;margin-left: auto;margin-right: auto;">
<defs>
<clipPath id="c_28"><path d="M0,0H931V1096H0Z"/></clipPath>
<clipPath id="c0_28"><path d="M337.7,482.9V452.4h19.9v30.5Z"/></clipPath>
<clipPath id="c1_28"><path d="M337.7,547.6V531.8h78.5v15.8Z"/></clipPath>
<clipPath id="c2_28"><path d="M338.4,889.3V858.8h75.4v30.5Z"/></clipPath>
<clipPath id="c3_28"><path d="M536.3,889.5V858.8H669.2v30.7Z"/></clipPath>
<clipPath id="c4_28"><path d="M338.4,947.4V916.8h99.2v30.6Z"/></clipPath>
<clipPath id="c5_28"><path d="M536.3,969.3V902.6h46.1v66.7Z"/></clipPath>

<style type="text/css"><![CDATA[
text { white-space: pre; }
path, image { pointer-events: none; }

.s1_28{
font-size: 15.28px;
font-family: MyriadPro-Semibold_49;
fill: #231F20;
}
.s2_28{
font-size: 15.28px;
font-family: TimesLTStd-Roman_6c;
fill: #231F20;
}
.s3_28{
font-size: 13.75px;
font-family: MyriadPro-BoldSemiCn_90;
fill: #231F20;
}
.s4_28{
font-size: 13.75px;
font-family: TimesLTStd-Roman_6c;
fill: #231F20;
}
.s5_28{
font-size: 13.75px;
font-family: MathematicalPiLTStd-3_ry;
fill: #231F20;
}
.s6_28{
font-size: 13.75px;
font-family: MathematicalPiLTStd-1_rr;
fill: #231F20;
}
.s7_28{
font-size: 8.25px;
font-family: TimesLTStd-Roman_6c;
fill: #231F20;
}
.s8_28{
font-size: 8.25px;
font-family: MathematicalPiLTStd-1_rr;
fill: #231F20;
}
.s9_28{
font-size: 42.63px;
font-family: MathematicalPiLTStd-3_ry;
fill: #231F20;
}
.sa_28{
font-size: 8.25px;
font-family: MathematicalPiLTStd-3_ry;
fill: #231F20;
}
.sb_28{
font-size: 13.75px;
font-family: BeaconDingbatsTypeOne_od;
fill: #231F20;
}
.sc_28{
font-size: 13.75px;
font-family: TimesLTStd-Italic_o3;
fill: #231F20;
}
.sd_28{
font-size: 19.25px;
font-family: MathematicalPiLTStd-3_ry;
fill: #231F20;
}
.se_28{
font-size: 45.83px;
font-family: MyriadPro-SemiboldSemiCn_4e;
fill: #231F20;
}
.sf_28{
font-size: 7.64px;
font-family: Times-Roman_4n;
fill: #000000;
}

.g0_28{
fill: none;
stroke: #0079C2;
stroke-width: 0.763;
stroke-linecap: butt;
stroke-linejoin: miter;
stroke-miterlimit: 4;
}
.g1_28{
fill: none;
stroke: #231F20;
stroke-width: 0.687;
stroke-linecap: butt;
stroke-linejoin: miter;
}

]]></style>

</defs>
<g clip-path="url(#c_28)">
<path d="M0,0
L0,1096
L931,1096
L931,0 Z " 
fill="#FFFFFF" stroke="none"/>
<image preserveAspectRatio="none" x="0" y="-19" width="935" height="61" xlink:href="28/img/1.png"/>
<image preserveAspectRatio="none" x="42" y="45" width="865" height="127" xlink:href="28/img/2.png"/>
<text x="53" y="1035" dx="0,0,.3,0" class="s1_28">xxvi</text>
<text x="299" y="224" dx="0,-.2,-.1,.1,.1,0,0,0,.1,.2,0,.1,0,.3,-.2,-.1,.2,-.2,0,0,.1,0,0,.2,0,-.1,.1,0,.1,0,0,.1,0,.1,0,.4,-.1,-.2,0,.1,-.3,0,.1,0,-.2,0,.1,-.1,0,.1,.4,-.1,-.4,-.4,-.2,.2,-.1,-.2,0,.1,-.2,0,.1,.3,0,0,.1,.1,0,.3,0,-.1,.1,0,.2,-.2,-.1,0,.1,.3,0,0,0" class="s2_28">Success in calculus depends to a large extent on knowledge of the mathematics that </text>
<text x="299" y="243" dx="0,0,.1,.2,.1,.2,0,0,0,-.2,0,.3,-.2,-.1,.2,-.2,0,-.4,0,-.2,.3,-.2,-.2,-.1,0,.1,.2,0,-.2,.3,0,.3,-.3,.3,.2,-.2,0,-.2,-.2,.1,-.1,0,0,.3,.4,-1,0,-.2,.3,.2,-.1,0,.2,-.3,-.1,0,0,0,-.2,.3,-.1,0,-.2,.3,.4,-.3,-.2,-.1,-.1,-.1,0,0,.3,.4,-1.1,0,-.2,.4,0,0,-.2,-.4,-.2,-.1" class="s2_28">precedes calculus: algebra, analytic geometry, functions, and trigonometry. The fol-</text>
<text x="299" y="261" dx="0,-.2,-.4,.1,.2,-.2,0,-.5,.1,0,-.1,.2,0,-.5,.4,.1,0,-.5,.2,-.2,.1,0,-.1,0,.2,0,-.5,0,0,-.5,.2,-.1,0,.2,-.1,0,0,0,-.5,-.4,.1,.4,.4,0,0,0,0,0,0,-.5,.3,0,0,0,-.5,-.5,0,0,-.5,.4,-.3,.1,-.1,0,-.5,0,-.4,-.4,0,-.5,.2,0,-.5,.3,0,0,0,0,-.5,.4,.1,.1,.2,-.1,0" class="s2_28">lowing tests are intended to diagnose weaknesses that you might have in these areas. </text>
<text x="299" y="279" dx="0,.3,.3,.1,0,0,0,.3,.4,.5,.2,-.2,0,0,.1,.1,-.1,0,0,.1,0,-.1,0,0,-.5,0,0,0,0,.3,0,0,-.1,0,.2,-.2,0,0,-.5,0,.3,0,0,.3,0,-.2,-.4,0,.1,0,0,0,-.1,.3,.2,0,-.1,0,0,.3,0,0,0,.2,-.3,-.4,0,0,0,.3,0,-.2,-.4,0,.1,0,0,.3,-.1,.1,0,0,.2,0" class="s2_28">After taking each test you can check your answers against the given answers and, if </text>
<text x="299" y="298" dx="0,0,.2,.1,0,0,0,.4,.4,-1,0,0,.1,-.2,.3,.1,0,-.1,0,0,-.5,0,.3,0,0,-.1,.5,.2,.2,0,0,0,-.3,0,0,.1,-.2,-.4,0,.5,.4,.2,-.2,0,0,0,0,0,.3,0,0,0,.1,-.3,.1,-.2,-.3,0,0,.1,0,.1,0,.4,-.1,.3,0,0,0,.3,0,0,0,0,.4,.1,0,0,0,0,-.4,.1,-.2,0,.2,0" class="s2_28">necessary, refresh your skills by referring to the review materials that are provided.</text>
<path d="M290.7,201.2c0,0,-3.1,0,-3.1,3.1V311.1c0,0,0,3,3.1,3H820.1c0,0,3,0,3,-3V204.3c0,0,0,-3.1,-3,-3.1H290.7Z" class="g0_28"/>
<image preserveAspectRatio="none" x="50" y="352" width="775" height="37" xlink:href="28/img/3.png"/>
<text x="298" y="421" class="s3_28">±. </text>
<text x="315" y="421" dx="0,-.4,-.2,.3,-.2,.2,.1,.2,0,0,.1,.1,0,0,0,-.2,0,.1,.1,.1,0,-.1,-.2,0,0,0,.1,-.2,.3,0,0,-.1,0,0,.1,-.1,.2,-.1,0,0,0,0,.1,.3,-.1,0,.2,0,.1,.1,0,-.5" class="s4_28">Evaluate each expression without using a calculator.</text>
<text x="314" y="441" class="s4_28">(a) </text>
<text x="337" y="441" class="s5_28">s</text>
<text x="342" y="441" class="s6_28">2</text>
<text x="353" y="441" class="s4_28">3</text>
<text x="360" y="441" class="s5_28">d</text>
<text x="365" y="435" class="s7_28">4</text>
<text x="419" y="441" class="s4_28">(b) </text>
<text x="443" y="441" class="s6_28">2</text>
<text x="454" y="441" class="s4_28">3</text>
<text x="461" y="435" class="s7_28">4</text>
<text x="513" y="441" dx="0,0,0,0,4.2" class="s4_28">(c) 3</text>
<text x="543" y="435" class="s8_28">2</text>
<text x="549" y="435" class="s7_28">4</text>
<text x="313" y="473" class="s4_28">(d) </text>
<text x="339" y="463" class="s4_28">5</text>
<text x="347" y="457" class="s7_28">23</text>
<g clip-path="url(#c0_28)">
<path d="M338,468.6h19.9" class="g1_28"/>
</g>
<text x="339" y="482" class="s4_28">5</text>
<text x="347" y="477" class="s7_28">21</text>
<text x="420" y="473" class="s4_28">(e) </text>
<text x="443" y="475" class="s9_28">S</text>
<text x="454" y="463" class="s4_28">2</text>
<path d="M452.9,468.6h11" class="g1_28"/>
<text x="454" y="482" class="s4_28">3</text>
<text x="463" y="475" class="s9_28">D</text>
<text x="470" y="455" class="s8_28">2</text>
<text x="477" y="455" class="s7_28">2</text>
<text x="513" y="473" dx="0,0,1.1,0,4.2,0" class="s4_28">(f) 16</text>
<text x="550" y="467" class="s8_28">2</text>
<text x="557" y="467" class="s7_28">3</text>
<text x="561" y="467" class="sa_28">y</text>
<text x="565" y="467" class="s7_28">4</text>
<text x="297" y="520" class="s3_28">². </text>
<text x="315" y="520" dx="0,-.2,.3,0,-.1,.3,.2,.3,0,0,.1,.1,-.1,0,0,-.2,0,.1,.1,.1,0,-.1,-.2,0,0,0,0,-.5,.4,-.2,.2,0,0,-.3,0,.3,0,0,.3,.1,-.1,-.3,.1,0,0,.1,-.2,.3,0,0,-.1,0,0,0,-.1,-.1,.1,.2,-.2,-.3,0,0,-.2,0,.2,0,0,0,-.1,.2,-.1" class="s4_28">Simplify each expression. Write your answer without negative exponents.</text>
<text x="314" y="544" class="s4_28">(a) </text>
<text x="337" y="545" class="sb_28">s</text>
<text x="347" y="544" class="s4_28">200</text>
<path d="M348.1,532.1h22.8" class="g1_28"/>
<text x="374" y="544" class="s6_28">2</text>
<text x="390" y="545" class="sb_28">s</text>
<text x="400" y="544" class="s4_28">32</text>
<g clip-path="url(#c1_28)">
<path d="M400.7,532.1h15.8" class="g1_28"/>
</g>
<text x="314" y="567" class="s4_28">(b) </text>
<text x="337" y="567" class="s5_28">s</text>
<text x="342" y="567" class="s4_28">3</text>
<text x="349" y="567" class="sc_28">a</text>
<text x="356" y="562" class="s7_28">3</text>
<text x="360" y="567" class="sc_28">b</text>
<text x="368" y="562" class="s7_28">3</text>
<text x="373" y="567" class="s5_28">ds</text>
<text x="382" y="567" class="s4_28">4</text>
<text x="390" y="567" dx="0,.7" class="sc_28">ab</text>
<text x="405" y="562" class="s7_28">2</text>
<text x="410" y="567" class="s5_28">d</text>
<text x="415" y="562" class="s7_28">2</text>
<text x="314" y="604" class="s4_28">(c) </text>
<text x="337" y="606" class="s9_28">S</text>
<text x="349" y="594" class="s4_28">3</text>
<text x="356" y="594" class="sc_28">x</text>
<text x="363" y="589" class="s7_28">3</text>
<text x="367" y="589" class="sa_28">y</text>
<text x="371" y="589" class="s7_28">2</text>
<text x="376" y="594" class="sc_28">y</text>
<text x="384" y="589" class="s7_28">3</text>
<path d="M347.5,600h43.2" class="g1_28"/>
<text x="349" y="614" class="sc_28">x</text>
<text x="357" y="608" class="s7_28">2</text>
<text x="362" y="614" class="sc_28">y</text>
<text x="368" y="608" class="s8_28">2</text>
<text x="375" y="608" class="s7_28">1</text>
<text x="379" y="608" class="sa_28">y</text>
<text x="383" y="608" class="s7_28">2</text>
<text x="390" y="606" class="s9_28">D</text>
<text x="397" y="586" class="s8_28">2</text>
<text x="404" y="586" class="s7_28">2</text>
<text x="297" y="639" class="s3_28">³. </text>
<text x="315" y="639" dx="0,.1,0,0,.3,0,0,0,.3,0,0,0,-.1,.3,0,-.1,.3,.2,.3,-.9" class="s4_28">Expand and simplify.</text>
<text x="315" y="664" dx="0,0,0,0,4.2" class="s4_28">(a) 3</text>
<text x="345" y="664" class="s5_28">s</text>
<text x="350" y="664" class="sc_28">x</text>
<text x="360" y="664" class="s6_28">1</text>
<text x="376" y="664" class="s4_28">6</text>
<text x="383" y="664" class="s5_28">d</text>
<text x="391" y="664" class="s6_28">1</text>
<text x="407" y="664" class="s4_28">4</text>
<text x="415" y="664" class="s5_28">s</text>
<text x="419" y="664" class="s4_28">2</text>
<text x="427" y="664" class="sc_28">x</text>
<text x="437" y="664" class="s6_28">2</text>
<text x="453" y="664" class="s4_28">5</text>
<text x="459" y="664" class="s5_28">d</text>
<text x="512" y="664" class="s4_28">(b) </text>
<text x="536" y="664" class="s5_28">s</text>
<text x="541" y="664" class="sc_28">x</text>
<text x="551" y="664" class="s6_28">1</text>
<text x="567" y="664" class="s4_28">3</text>
<text x="574" y="664" class="s5_28">ds</text>
<text x="583" y="664" class="s4_28">4</text>
<text x="591" y="664" class="sc_28">x</text>
<text x="601" y="664" class="s6_28">2</text>
<text x="616" y="664" class="s4_28">5</text>
<text x="623" y="664" class="s5_28">d</text>
<text x="315" y="690" class="s4_28">(c) </text>
<text transform="matrix(0.71,0,0,1,338,690)" class="sd_28">s</text>
<text x="343" y="690" class="sb_28">s</text>
<text x="353" y="690" class="sc_28">a</text>
<path d="M353.5,677.3h9" class="g1_28"/>
<text x="366" y="690" class="s6_28">1</text>
<text x="381" y="690" class="sb_28">s</text>
<text x="392" y="690" class="sc_28">b</text>
<path d="M392.3,677.3h9.1" class="g1_28"/>
<text transform="matrix(0.71,0,0,1,402,690)" class="sd_28">ds</text>
<text x="411" y="690" class="sb_28">s</text>
<text x="422" y="690" class="sc_28">a</text>
<path d="M422.2,677.3h9.1" class="g1_28"/>
<text x="435" y="690" class="s6_28">2</text>
<text x="450" y="690" class="sb_28">s</text>
<text x="460" y="690" class="sc_28">b</text>
<path d="M461.1,677.3h9" class="g1_28"/>
<text transform="matrix(0.71,0,0,1,471,690)" class="sd_28">d</text>
<text x="512" y="690" class="s4_28">(d) </text>
<text x="536" y="690" class="s5_28">s</text>
<text x="540" y="690" class="s4_28">2</text>
<text x="548" y="690" class="sc_28">x</text>
<text x="558" y="690" class="s6_28">1</text>
<text x="574" y="690" class="s4_28">3</text>
<text x="581" y="690" class="s5_28">d</text>
<text x="585" y="684" class="s7_28">2</text>
<text x="315" y="714" class="s4_28">(e) </text>
<text x="338" y="714" class="s5_28">s</text>
<text x="343" y="714" class="sc_28">x</text>
<text x="353" y="714" class="s6_28">1</text>
<text x="369" y="714" class="s4_28">2</text>
<text x="376" y="714" class="s5_28">d</text>
<text x="380" y="708" class="s7_28">3</text>
<text x="296" y="749" class="s3_28">´. </text>
<text x="315" y="749" dx="0,-.3,.1,0,.1,0,0,0,.1,.1,0,0,0,-.2,0,.1,.1,.1,0,-.1,-.2,0,0" class="s4_28">Factor each expression.</text>
<text x="314" y="769" dx="0,0,0,0,4.2" class="s4_28">(a) 4</text>
<text x="345" y="769" class="sc_28">x</text>
<text x="352" y="763" class="s7_28">2</text>
<text x="361" y="769" class="s6_28">2</text>
<text x="376" y="769" class="s4_28">25 </text>
<text x="512" y="769" dx="0,0,0,0,4.2" class="s4_28">(b) 2</text>
<text x="543" y="769" class="sc_28">x</text>
<text x="551" y="763" class="s7_28">2</text>
<text x="559" y="769" class="s6_28">1</text>
<text x="575" y="769" class="s4_28">5</text>
<text x="582" y="769" class="sc_28">x</text>
<text x="592" y="769" class="s6_28">2</text>
<text x="607" y="769" class="s4_28">12</text>
<text x="314" y="789" class="s4_28">(c) </text>
<text x="338" y="789" class="sc_28">x</text>
<text x="345" y="783" class="s7_28">3</text>
<text x="353" y="789" class="s6_28">2</text>
<text x="369" y="789" class="s4_28">3</text>
<text x="376" y="789" class="sc_28">x</text>
<text x="383" y="783" class="s7_28">2</text>
<text x="392" y="789" class="s6_28">2</text>
<text x="407" y="789" class="s4_28">4</text>
<text x="415" y="789" class="sc_28">x</text>
<text x="425" y="789" class="s6_28">1</text>
<text x="441" y="789" class="s4_28">12 </text>
<text x="512" y="789" class="s4_28">(d) </text>
<text x="536" y="789" class="sc_28">x</text>
<text x="544" y="783" class="s7_28">4</text>
<text x="552" y="789" class="s6_28">1</text>
<text x="568" y="789" class="s4_28">27</text>
<text x="581" y="789" class="sc_28">x</text>
<text x="314" y="809" dx="0,0,0,0,4.2" class="s4_28">(e) 3</text>
<text x="344" y="809" class="sc_28">x</text>
<text x="352" y="803" class="s7_28">3</text>
<text x="356" y="803" class="sa_28">y</text>
<text x="360" y="803" class="s7_28">2</text>
<text x="368" y="809" class="s6_28">2</text>
<text x="384" y="809" class="s4_28">9</text>
<text x="390" y="809" class="sc_28">x</text>
<text x="398" y="803" class="s7_28">1</text>
<text x="402" y="803" class="sa_28">y</text>
<text x="406" y="803" class="s7_28">2</text>
<text x="414" y="809" class="s6_28">1</text>
<text x="430" y="809" class="s4_28">6</text>
<text x="438" y="809" class="sc_28">x</text>
<text x="444" y="803" class="s8_28">2</text>
<text x="451" y="803" class="s7_28">1</text>
<text x="455" y="803" class="sa_28">y</text>
<text x="459" y="803" class="s7_28">2</text>
<text x="513" y="809" dx="0,0,1.1,0" class="s4_28">(f) </text>
<text x="536" y="809" class="sc_28">x</text>
<text x="544" y="803" class="s7_28">3</text>
<text x="549" y="809" class="sc_28">y</text>
<text x="559" y="809" class="s6_28">2</text>
<text x="574" y="809" class="s4_28">4</text>
<text x="582" y="809" dx="0,.7" class="sc_28">xy</text>
<text x="297" y="844" class="s3_28">µ.</text>
<text x="315" y="844" dx="0,-.2,.3,0,-.1,.3,.2,.3,0,0,.3,.1,0,0,.1,.1,.2,-.2,0,.1,.3,0,0,-.2,0,.1,.1,.1,0,-.1,-.2,0,0" class="s4_28">Simplify the rational expression.</text>
<text x="315" y="879" class="s4_28">(a) </text>
<text x="340" y="869" class="sc_28">x</text>
<text x="348" y="864" class="s7_28">2</text>
<text x="356" y="869" class="s6_28">1</text>
<text x="372" y="869" class="s4_28">3</text>
<text x="379" y="869" class="sc_28">x</text>
<text x="389" y="869" class="s6_28">1</text>
<text x="404" y="869" class="s4_28">2</text>
<g clip-path="url(#c2_28)">
<path d="M339.2,875h74.9" class="g1_28"/>
</g>
<text x="344" y="889" class="sc_28">x</text>
<text x="351" y="883" class="s7_28">2</text>
<text x="360" y="889" class="s6_28">2</text>
<text x="375" y="889" class="sc_28">x</text>
<text x="385" y="889" class="s6_28">2</text>
<text x="401" y="889" class="s4_28">2</text>
<text x="512" y="879" class="s4_28">(b) </text>
<text x="538" y="869" class="s4_28">2</text>
<text x="545" y="869" class="sc_28">x</text>
<text x="553" y="864" class="s7_28">2</text>
<text x="561" y="869" class="s6_28">2</text>
<text x="577" y="869" class="sc_28">x</text>
<text x="587" y="869" class="s6_28">2</text>
<text x="603" y="869" class="s4_28">1</text>
<path d="M536.6,875h75.7" class="g1_28"/>
<text x="555" y="889" class="sc_28">x</text>
<text x="562" y="883" class="s7_28">2</text>
<text x="570" y="889" class="s6_28">2</text>
<text x="586" y="889" class="s4_28">9</text>
<text x="616" y="879" class="s6_28">?</text>
<text x="630" y="869" class="sc_28">x</text>
<text x="640" y="869" class="s6_28">1</text>
<text x="656" y="869" class="s4_28">3</text>
<g clip-path="url(#c3_28)">
<path d="M625.2,875h44.3" class="g1_28"/>
</g>
<text x="626" y="889" class="s4_28">2</text>
<text x="634" y="889" class="sc_28">x</text>
<text x="644" y="889" class="s6_28">1</text>
<text x="660" y="889" class="s4_28">1</text>
<text x="315" y="937" class="s4_28">(c) </text>
<text x="354" y="927" class="sc_28">x</text>
<text x="361" y="922" class="s7_28">2</text>
<path d="M339.2,933.1h42.3" class="g1_28"/>
<text x="340" y="947" class="sc_28">x</text>
<text x="348" y="941" class="s7_28">2</text>
<text x="356" y="947" class="s6_28">2</text>
<text x="372" y="947" class="s4_28">4</text>
<text x="385" y="937" class="s6_28">2</text>
<text x="402" y="927" class="sc_28">x</text>
<text x="413" y="927" class="s6_28">1</text>
<text x="428" y="927" class="s4_28">1</text>
<g clip-path="url(#c4_28)">
<path d="M401.2,933.1h36.7" class="g1_28"/>
</g>
<text x="402" y="947" class="sc_28">x</text>
<text x="413" y="947" class="s6_28">1</text>
<text x="428" y="947" class="s4_28">2</text>
<text x="512" y="937" class="s4_28">(d) </text>
<text x="541" y="908" class="sc_28">y</text>
<path d="M539.8,913.8H550" class="g1_28"/>
<text x="541" y="927" class="sc_28">x</text>
<text x="553" y="918" class="s6_28">2</text>
<text x="571" y="908" class="sc_28">x</text>
<path d="M569.7,913.8h10.2" class="g1_28"/>
<text x="571" y="927" class="sc_28">y</text>
<g clip-path="url(#c5_28)">
<path d="M537,933.1h45.8" class="g1_28"/>
</g>
<text x="540" y="947" class="s4_28">1</text>
<path d="M539.1,952.3H550" class="g1_28"/>
<text x="541" y="966" class="sc_28">y</text>
<text x="553" y="956" class="s6_28">2</text>
<text x="571" y="947" class="s4_28">1</text>
<path d="M569.7,952.3h11" class="g1_28"/>
<text x="571" y="966" class="sc_28">x</text>
<text x="106" y="98" dx="0,.2,0,0,0,0,0,0,0,0,0,-1.6,-3.2,0,0,0" class="se_28">Diagnostic Tests</text>
<text x="121" y="1076" class="sf_28">Copyright 2016 Cengage Learning. All Rights Reserved. May not be copied, scanned, or duplicated, in whole or in part. Due to electronic rights, some third party content may be suppressed from the eBook and/or eChapter(s).</text>
<text x="106" y="1087" class="sf_28">Editorial review has deemed that any suppressed content does not materially affect the overall learning experience. Cengage Learning reserves the right to remove additional content at any time if subsequent rights restrictions require it.</text>

</g>

<!-- Any embedded fonts defined here -->
<style type="text/css" ><![CDATA[

@font-face {
	font-family: BeaconDingbatsTypeOne_od;
	src: url("fonts/BeaconDingbatsTypeOne_od.woff") format("woff");
}

@font-face {
	font-family: MathematicalPiLTStd-1_rr;
	src: url("fonts/MathematicalPiLTStd-1_rr.woff") format("woff");
}

@font-face {
	font-family: MathematicalPiLTStd-3_ry;
	src: url("fonts/MathematicalPiLTStd-3_ry.woff") format("woff");
}

@font-face {
	font-family: MyriadPro-BoldSemiCn_90;
	src: url("fonts/MyriadPro-BoldSemiCn_90.woff") format("woff");
}

@font-face {
	font-family: MyriadPro-SemiboldSemiCn_4e;
	src: url("fonts/MyriadPro-SemiboldSemiCn_4e.woff") format("woff");
}

@font-face {
	font-family: MyriadPro-Semibold_49;
	src: url("fonts/MyriadPro-Semibold_49.woff") format("woff");
}

@font-face {
	font-family: Times-Roman_4n;
	src: url("fonts/Times-Roman_4n.woff") format("woff");
}

@font-face {
	font-family: TimesLTStd-Italic_o3;
	src: url("fonts/TimesLTStd-Italic_o3.woff") format("woff");
}

@font-face {
	font-family: TimesLTStd-Roman_6c;
	src: url("fonts/TimesLTStd-Roman_6c.woff") format("woff");
}

]]></style>

</svg>
