<?xml version="1.0" encoding="UTF-8" standalone="no"?>
<!DOCTYPE svg PUBLIC "-//W3C//DTD SVG 1.1//EN"
"http://www.w3.org/Graphics/SVG/1.1/DTD/svg11.dtd">


<!-- Page 29 -->
<svg x="0" y="0" width="931" height="1096" viewBox="0 0 931 1096" version="1.1" xmlns="http://www.w3.org/2000/svg" xmlns:xlink="http://www.w3.org/1999/xlink"
style="display: block;margin-left: auto;margin-right: auto;">
<defs>
<clipPath id="c_29"><path d="M0,0H931V1096H0Z"/></clipPath>
<clipPath id="c0_29"><path d="M393.2,155.7V119.1H443v36.6Z"/></clipPath>
<clipPath id="c1_29"><path d="M660.6,151.6V119.1h76.3v32.5Z"/></clipPath>
<clipPath id="c2_29"><path d="M660.6,280V251.3H761.3V280Z"/></clipPath>
<clipPath id="c3_29"><path d="M660.6,508.2V492.4h85.5v15.8Z"/></clipPath>
<clipPath id="c4_29"><path d="M393.2,588.2V556.9h97.3v31.3Z"/></clipPath>
<clipPath id="c5_29"><path d="M660.6,587.9V555.7H778.2v32.2Z"/></clipPath>
<clipPath id="c6_29"><path d="M151.1,719.2V703.4h26.7v15.8Z"/></clipPath>
<clipPath id="c7_29"><path d="M386.3,729V700.8h21.6V729Z"/></clipPath>
<clipPath id="c8_29"><path d="M151.1,906.6V877.9h37.1v28.7Z"/></clipPath>
<clipPath id="c9_29"><path d="M354.2,906.6V877.9h37.2v28.7Z"/></clipPath>
<clipPath id="ca_29"><path d="M151.1,941.8V913h36.7v28.8Z"/></clipPath>
<clipPath id="cb_29"><path d="M549.8,673.4V657.7h80.1v15.7Z"/></clipPath>
<clipPath id="cc_29"><path d="M753,684.6V651.9h76.4v32.7Z"/></clipPath>
<clipPath id="cd_29"><path d="M549.8,775.1V758.5h63.1v16.6Z"/></clipPath>
<clipPath id="ce_29"><path d="M673.6,774.3V758.5h55.7v15.8Z"/></clipPath>

<style type="text/css"><![CDATA[
text { white-space: pre; }
path, image { pointer-events: none; }

.s1_29{
font-size: 12.22px;
font-family: MyriadPro-Regular_4i;
fill: #231F20;
}
.s2_29{
font-size: 15.28px;
font-family: MyriadPro-SemiboldSemiCn_4e;
fill: #231F20;
}
.s3_29{
font-size: 13.75px;
font-family: MyriadPro-BoldSemiCn_90;
fill: #231F20;
}
.s4_29{
font-size: 13.75px;
font-family: TimesLTStd-Roman_6c;
fill: #231F20;
}
.s5_29{
font-size: 13.75px;
font-family: BeaconDingbatsTypeOne_od;
fill: #231F20;
}
.s6_29{
font-size: 13.75px;
font-family: MathematicalPiLTStd-1_rr;
fill: #231F20;
}
.s7_29{
font-size: 13.75px;
font-family: TimesLTStd-Italic_o3;
fill: #231F20;
}
.s8_29{
font-size: 8.25px;
font-family: TimesLTStd-Roman_6c;
fill: #231F20;
}
.s9_29{
font-size: 13.75px;
font-family: MathematicalPiLTStd-5_vb;
fill: #231F20;
}
.sa_29{
font-size: 9.63px;
font-family: TimesLTStd-Roman_6c;
fill: #231F20;
}
.sb_29{
font-size: 22.00px;
font-family: MathematicalPiLTStd-3_ry;
fill: #231F20;
}
.sc_29{
font-size: 13.75px;
font-family: MathematicalPiLTStd-3_ry;
fill: #231F20;
}
.sd_29{
font-size: 8.25px;
font-family: MathematicalPiLTStd-1_rr;
fill: #231F20;
}
.se_29{
font-size: 8.25px;
font-family: MathematicalPiLTStd-3_ry;
fill: #231F20;
}
.sf_29{
font-size: 15.28px;
font-family: MyriadPro-SemiboldSemiCn_4e;
fill: #00AEEF;
}
.sg_29{
font-size: 19.25px;
font-family: MathematicalPiLTStd-3_ry;
fill: #231F20;
}
.sh_29{
font-size: 13.75px;
font-family: MathematicalPiLTStd-4_v8;
fill: #231F20;
}
.si_29{
font-size: 15.28px;
font-family: TimesLTStd-Roman_6c;
fill: #00AEEF;
}
.sj_29{
font-size: 15.28px;
font-family: TimesLTStd-Semibold_vf;
fill: #00AEEF;
}
.sk_29{
font-size: 7.64px;
font-family: Times-Roman_4n;
fill: #000000;
}

.g0_29{
fill: none;
stroke: #00AEEF;
stroke-width: 0.763;
stroke-linecap: butt;
stroke-linejoin: miter;
}
.g1_29{
fill: none;
stroke: #231F20;
stroke-width: 0.687;
stroke-linecap: butt;
stroke-linejoin: miter;
}
.g2_29{
fill: none;
stroke: #231F20;
stroke-width: 0.481;
stroke-linecap: butt;
stroke-linejoin: miter;
}
.g3_29{
fill: none;
stroke: #0079C2;
stroke-width: 0.763;
stroke-linecap: butt;
stroke-linejoin: miter;
stroke-miterlimit: 4;
}

]]></style>

</defs>
<g clip-path="url(#c_29)">
<path d="M0,0
L0,1096
L931,1096
L931,0 Z " 
fill="#FFFFFF" stroke="none"/>
<text x="735" y="64" dx="0,.1,.1,.1,0,.1,.1,.1,.1,.1,.1,-.4,-.7,.1,.1,.1,.1" class="s1_29">Diagnostic Tests </text>
<text x="850" y="64" dx="0,0,.3,0,0" class="s2_29">xxvii</text>
<path d="M109,630.7H879" class="g0_29"/>
<text x="352" y="109" class="s3_29">¶. </text>
<text x="371" y="109" dx="0,.1,.1,.2,-.2,0,.1,.3,.3,.2,.2,0,0,.3,.1,0,0,-.2,0,.1,.1,.1,0,-.1,-.2,0,0,0,.3,0,0,0,-.1,.3,0,-.1,.3,.2,.3,-.9" class="s4_29">Rationalize the expression and simplify.</text>
<text x="370" y="141" class="s4_29">(a) </text>
<text x="405" y="132" class="s5_29">s</text>
<text x="415" y="132" class="s4_29">10</text>
<g clip-path="url(#c0_29)">
<path d="M415.6,119.5h15.9m-37.9,17.9h49.8" class="g1_29"/>
</g>
<text x="395" y="153" class="s5_29">s</text>
<text x="405" y="153" class="s4_29">5</text>
<path d="M405.7,140.3h9.1" class="g1_29"/>
<text x="418" y="153" class="s6_29">2</text>
<text x="434" y="153" class="s4_29">2</text>
<text x="636" y="141" class="s4_29">(b) </text>
<text x="662" y="132" class="s5_29">s</text>
<text x="672" y="132" class="s4_29">4</text>
<text x="683" y="132" class="s6_29">1</text>
<text x="699" y="132" class="s7_29">h</text>
<path d="M673.1,119.5h35.6" class="g1_29"/>
<text x="712" y="132" class="s6_29">2</text>
<text x="728" y="132" class="s4_29">2</text>
<g clip-path="url(#c1_29)">
<path d="M660.9,137.4h76.4" class="g1_29"/>
</g>
<text x="695" y="151" class="s7_29">h</text>
<text x="353" y="186" class="s3_29">·. </text>
<text x="371" y="186" dx="0,-.1,-.2,.2,.4,-.2,.2,0,0,-.2,0,0,.1,0,0,-.1,-.1,0,.2,.2,-.1,0,0,.3,.1,0,0,.1,0,.2,.4,.1,-.2" class="s4_29">Rewrite by completing the square.</text>
<text x="370" y="206" class="s4_29">(a) </text>
<text x="393" y="206" class="s7_29">x</text>
<text x="401" y="200" class="s8_29">2</text>
<text x="409" y="206" class="s6_29">1</text>
<text x="424" y="206" class="s7_29">x</text>
<text x="435" y="206" class="s6_29">1</text>
<text x="450" y="206" class="s4_29">1 </text>
<text x="636" y="206" dx="0,0,0,0,4.2" class="s4_29">(b) 2</text>
<text x="668" y="206" class="s7_29">x</text>
<text x="675" y="200" class="s8_29">2</text>
<text x="683" y="206" class="s6_29">2</text>
<text x="699" y="206" class="s4_29">12</text>
<text x="714" y="206" class="s7_29">x</text>
<text x="724" y="206" class="s6_29">1</text>
<text x="739" y="206" class="s4_29">11</text>
<text x="352" y="241" class="s3_29">¸. </text>
<text x="371" y="241" dx="0,-.1,-.1,-.2,-.3,0,0,.3,.1,0,0,.2,0,.2,.1,.2,-.2,0,0,0,0,.3,0,.2,0,0,0,0,.3,-.2,0,0,.3,.1,0,0,.1,.1,.3,0,0,0,-.1,-.2,-.1,.2,-.2,0,.1,-.1,-.9" class="s4_29">Solve the equation. (Find only the real solutions.)</text>
<text x="370" y="270" class="s4_29">(a) </text>
<text x="393" y="270" class="s7_29">x</text>
<text x="403" y="270" class="s6_29">1</text>
<text x="419" y="270" class="s4_29">5</text>
<text x="430" y="270" class="s9_29">-</text>
<text x="445" y="270" class="s4_29">14</text>
<text x="463" y="270" class="s6_29">2</text>
<text x="479" y="264" class="sa_29">1</text>
<path d="M479.5,265.6h4.8" class="g2_29"/>
<text x="479" y="273" class="sa_29">2</text>
<text x="485" y="270" class="s7_29">x</text>
<text x="636" y="270" class="s4_29">(b) </text>
<text x="672" y="260" class="s4_29">2</text>
<text x="679" y="260" class="s7_29">x</text>
<path d="M660.9,265.7h36.7" class="g1_29"/>
<text x="662" y="279" class="s7_29">x</text>
<text x="672" y="279" class="s6_29">1</text>
<text x="688" y="279" class="s4_29">1</text>
<text x="701" y="270" class="s9_29">-</text>
<text x="719" y="260" class="s4_29">2</text>
<text x="726" y="260" class="s7_29">x</text>
<text x="736" y="260" class="s6_29">2</text>
<text x="752" y="260" class="s4_29">1</text>
<g clip-path="url(#c2_29)">
<path d="M717.3,265.7h44.4" class="g1_29"/>
</g>
<text x="736" y="279" class="s7_29">x</text>
<text x="370" y="299" class="s4_29">(c) </text>
<text x="393" y="299" class="s7_29">x</text>
<text x="401" y="293" class="s8_29">2</text>
<text x="409" y="299" class="s6_29">2</text>
<text x="424" y="299" class="s7_29">x</text>
<text x="435" y="299" class="s6_29">2</text>
<text x="450" y="299" class="s4_29">12</text>
<text x="468" y="299" class="s9_29">-</text>
<text x="484" y="299" class="s4_29">0 </text>
<text x="636" y="299" dx="0,0,0,0,4.2" class="s4_29">(d) 2</text>
<text x="668" y="299" class="s7_29">x</text>
<text x="675" y="293" class="s8_29">2</text>
<text x="683" y="299" class="s6_29">1</text>
<text x="699" y="299" class="s4_29">4</text>
<text x="707" y="299" class="s7_29">x</text>
<text x="717" y="299" class="s6_29">1</text>
<text x="732" y="299" class="s4_29">1</text>
<text x="743" y="299" class="s9_29">-</text>
<text x="759" y="299" class="s4_29">0</text>
<text x="370" y="322" class="s4_29">(e) </text>
<text x="393" y="322" class="s7_29">x</text>
<text x="401" y="316" class="s8_29">4</text>
<text x="409" y="322" class="s6_29">2</text>
<text x="424" y="322" class="s4_29">3</text>
<text x="431" y="322" class="s7_29">x</text>
<text x="439" y="316" class="s8_29">2</text>
<text x="447" y="322" class="s6_29">1</text>
<text x="463" y="322" class="s4_29">2</text>
<text x="474" y="322" class="s9_29">-</text>
<text x="489" y="322" class="s4_29">0 </text>
<text x="638" y="322" dx="0,0,1.1,0,4.2" class="s4_29">(f) 3</text>
<text transform="matrix(0.63,0,0,1,667,325)" class="sb_29">|</text>
<text x="673" y="322" class="s7_29">x</text>
<text x="683" y="322" class="s6_29">2</text>
<text x="699" y="322" class="s4_29">4</text>
<text transform="matrix(0.63,0,0,1,708,325)" class="sb_29">|</text>
<text x="716" y="322" class="s9_29">-</text>
<text x="731" y="322" class="s4_29">10</text>
<text x="370" y="345" dx="0,0,0,0,3.4" class="s4_29">(g) 2</text>
<text x="400" y="345" class="s7_29">x</text>
<text x="407" y="345" class="sc_29">s</text>
<text x="412" y="345" class="s4_29">4</text>
<text x="423" y="345" class="s6_29">2</text>
<text x="438" y="345" class="s7_29">x</text>
<text x="444" y="345" class="sc_29">d</text>
<text x="449" y="339" class="sd_29">2</text>
<text x="456" y="339" class="s8_29">1</text>
<text x="460" y="339" class="se_29">y</text>
<text x="464" y="339" class="s8_29">2</text>
<text x="472" y="345" class="s6_29">2</text>
<text x="488" y="345" class="s4_29">3</text>
<text x="496" y="345" class="s5_29">s</text>
<text x="506" y="345" class="s4_29">4</text>
<text x="517" y="345" class="s6_29">2</text>
<text x="533" y="345" class="s7_29">x</text>
<path d="M507.1,332.3h34.7" class="g1_29"/>
<text x="545" y="345" class="s9_29">-</text>
<text x="561" y="345" class="s4_29">0</text>
<text x="352" y="380" class="s3_29">¹. </text>
<text x="371" y="380" dx="0,-.1,-.1,-.2,-.3,0,0,.1,.1,-.1,0,0,.2,0,.2,0,.2,.3,.3,-.2,.3,-.9,0,0,-.5,.4,-.2,.2,0,0,-.3,0,.3,0,0,.3,.1,-.1,-.3,.1,0,0,.1,-.1,.2,-.1,0,0,.2,-.1,.2,.1,.4,-.2,.3,0,0,0,0,.3,.1,.2,-.2,0,0" class="s4_29">Solve each inequality. Write your answer using interval notation.</text>
<text x="370" y="400" class="s4_29">(a) </text>
<text x="393" y="400" class="s6_29">2</text>
<text x="404" y="400" class="s4_29">4</text>
<text x="415" y="400" class="s6_29">,</text>
<text x="431" y="400" class="s4_29">5</text>
<text x="442" y="400" class="s6_29">2</text>
<text x="457" y="400" class="s4_29">3</text>
<text x="464" y="400" class="s7_29">x</text>
<text x="474" y="400" class="s6_29">&lt;</text>
<text x="490" y="400" class="s4_29">17 </text>
<text x="636" y="400" class="s4_29">(b) </text>
<text x="660" y="400" class="s7_29">x</text>
<text x="668" y="394" class="s8_29">2</text>
<text x="676" y="400" class="s6_29">,</text>
<text x="692" y="400" class="s4_29">2</text>
<text x="699" y="400" class="s7_29">x</text>
<text x="710" y="400" class="s6_29">1</text>
<text x="725" y="400" class="s4_29">8</text>
<text x="370" y="419" class="s4_29">(c) </text>
<text x="393" y="419" class="s7_29">x</text>
<text x="400" y="419" class="sc_29">s</text>
<text x="405" y="419" class="s7_29">x</text>
<text x="415" y="419" class="s6_29">2</text>
<text x="431" y="419" class="s4_29">1</text>
<text x="438" y="419" class="sc_29">ds</text>
<text x="448" y="419" class="s7_29">x</text>
<text x="458" y="419" class="s6_29">1</text>
<text x="474" y="419" class="s4_29">2</text>
<text x="480" y="419" class="sc_29">d</text>
<text x="489" y="419" class="s6_29">.</text>
<text x="505" y="419" class="s4_29">0 </text>
<text x="636" y="419" class="s4_29">(d) </text>
<text transform="matrix(0.63,0,0,1,660,423)" class="sb_29">|</text>
<text x="666" y="419" class="s7_29">x</text>
<text x="676" y="419" class="s6_29">2</text>
<text x="692" y="419" class="s4_29">4</text>
<text transform="matrix(0.63,0,0,1,701,423)" class="sb_29">|</text>
<text x="709" y="419" class="s6_29">,</text>
<text x="725" y="419" class="s4_29">3</text>
<text x="370" y="450" class="s4_29">(e) </text>
<text x="395" y="440" class="s4_29">2</text>
<text x="402" y="440" class="s7_29">x</text>
<text x="413" y="440" class="s6_29">2</text>
<text x="428" y="440" class="s4_29">3</text>
<path d="M393.6,446h44.3" class="g1_29"/>
<text x="399" y="460" class="s7_29">x</text>
<text x="409" y="460" class="s6_29">1</text>
<text x="424" y="460" class="s4_29">1</text>
<text x="441" y="450" class="s6_29">&lt;</text>
<text x="457" y="450" class="s4_29">1</text>
<text x="347" y="485" class="s3_29">±º. </text>
<text x="371" y="485" dx="0,-.1,.3,.1,.2,0,0,-.1,.1,0,.3,.1,.1,0,0,.1,.1,0,0,0,.2,0,.2,.1,.2,-.2,0,0,0,0,0,0,.3,.5,0,0,0,0,0,0,-.2,.3,.1,.1,-.2" class="s4_29">State whether each equation is true or false.</text>
<text x="370" y="505" class="s4_29">(a) </text>
<text x="393" y="505" class="sc_29">s</text>
<text x="399" y="505" class="s7_29">p</text>
<text x="410" y="505" class="s6_29">1</text>
<text x="425" y="505" class="s7_29">q</text>
<text x="432" y="505" class="sc_29">d</text>
<text x="437" y="499" class="s8_29">2</text>
<text x="445" y="505" class="s9_29">-</text>
<text x="461" y="505" class="s7_29">p</text>
<text x="468" y="499" class="s8_29">2</text>
<text x="476" y="505" class="s6_29">1</text>
<text x="492" y="505" class="s7_29">q</text>
<text x="500" y="499" class="s8_29">2</text>
<text x="633" y="505" class="s4_29">(b) </text>
<text x="660" y="505" class="s5_29">s</text>
<text x="670" y="505" class="s7_29">ab</text>
<path d="M671,492.7h15.9" class="g1_29"/>
<text x="690" y="505" class="s9_29">-</text>
<text x="706" y="505" class="s5_29">s</text>
<text x="716" y="505" class="s7_29">a</text>
<path d="M716.7,492.7h9.1" class="g1_29"/>
<text x="726" y="505" class="s5_29">s</text>
<text x="737" y="505" class="s7_29">b</text>
<g clip-path="url(#c3_29)">
<path d="M737.4,492.7h9.1" class="g1_29"/>
</g>
<text x="370" y="536" class="s4_29">(c) </text>
<text x="393" y="536" class="s5_29">s</text>
<text x="403" y="536" class="s7_29">a</text>
<text x="411" y="531" class="s8_29">2</text>
<text x="418" y="536" class="s6_29">1</text>
<text x="434" y="536" class="s7_29">b</text>
<text x="441" y="531" dx="0,-.8" class="s8_29">2 </text>
<path d="M403.7,523.3h43.8" class="g1_29"/>
<text x="451" y="536" class="s9_29">-</text>
<text x="466" y="536" class="s7_29">a</text>
<text x="477" y="536" class="s6_29">1</text>
<text x="493" y="536" class="s7_29">b</text>
<text x="633" y="536" class="s4_29">(d) </text>
<text x="662" y="526" class="s4_29">1</text>
<text x="673" y="526" class="s6_29">1</text>
<text x="689" y="526" class="s7_29">TC</text>
<path d="M660.9,531.6h47.5" class="g1_29"/>
<text x="679" y="545" class="s7_29">C</text>
<text x="712" y="536" class="s9_29">-</text>
<text x="727" y="536" class="s4_29">1</text>
<text x="738" y="536" class="s6_29">1</text>
<text x="754" y="536" class="s7_29">T</text>
<text x="370" y="575" class="s4_29">(e) </text>
<text x="407" y="566" class="s4_29">1</text>
<path d="M393.6,571.3h35.9" class="g1_29"/>
<text x="395" y="585" class="s7_29">x</text>
<text x="405" y="585" class="s6_29">2</text>
<text x="421" y="585" class="s7_29">y</text>
<text x="433" y="575" class="s9_29">-</text>
<text x="450" y="566" class="s4_29">1</text>
<path d="M449.2,571.3h11" class="g1_29"/>
<text x="451" y="585" class="s7_29">x</text>
<text x="463" y="575" class="s6_29">2</text>
<text x="481" y="566" class="s4_29">1</text>
<g clip-path="url(#c4_29)">
<path d="M479.8,571.3h11" class="g1_29"/>
</g>
<text x="481" y="585" class="s7_29">y</text>
<text x="635" y="575" dx="0,0,1.1,0" class="s4_29">(f) </text>
<text x="681" y="566" class="s4_29">1</text>
<text x="687" y="566" class="sc_29">y</text>
<text x="693" y="566" class="s7_29">x</text>
<path d="M660.9,571.3h60.4" class="g1_29"/>
<text x="662" y="585" class="s7_29">a</text>
<text x="668" y="585" class="sc_29">y</text>
<text x="674" y="585" class="s7_29">x</text>
<text x="685" y="585" class="s6_29">2</text>
<text x="700" y="585" class="s7_29">b</text>
<text x="706" y="585" class="sc_29">y</text>
<text x="712" y="585" class="s7_29">x</text>
<text x="725" y="575" class="s9_29">-</text>
<text x="756" y="566" class="s4_29">1</text>
<g clip-path="url(#c5_29)">
<path d="M741,571.3h37.5" class="g1_29"/>
</g>
<text x="742" y="585" class="s7_29">a</text>
<text x="753" y="585" class="s6_29">2</text>
<text x="769" y="585" class="s7_29">b</text>
<text x="109" y="619" dx="0,.9,.9,.9,.9,.9,.9,.8,.2,.5,.8,.8,.9,.9,.6,.9,.9,.9,.9,.9,.9,.8,.2,.9,.9,.9,.8,.8,.8,.6,.8,.9,.4,.9,.9,.9,1" class="sf_29">ANSWERS TO DIAGNOSTIC TEST A: ALGEBRA</text>
<text x="115" y="664" class="s3_29">±. </text>
<text x="128" y="664" dx="0,0,0,0,3.4,0,0" class="s4_29">(a) 81 </text>
<text x="251" y="664" class="s4_29">(b) </text>
<text x="274" y="664" class="s6_29">2</text>
<text x="286" y="664" class="s4_29">81 </text>
<text x="364" y="664" class="s4_29">(c) </text>
<text x="388" y="658" class="sa_29">1</text>
<path d="M386.6,660h9.6" class="g2_29"/>
<text x="386" y="668" class="sa_29">81</text>
<text x="128" y="685" dx="0,0,0,0,3.4,0,0" class="s4_29">(d) 25 </text>
<text x="252" y="685" class="s4_29">(e) </text>
<text x="274" y="679" class="sa_29">9</text>
<path d="M275,681.4h4.8" class="g2_29"/>
<text x="274" y="689" class="sa_29">4</text>
<text x="364" y="685" dx="0,0,1.1,0" class="s4_29">(f) </text>
<text x="386" y="679" class="sa_29">1</text>
<path d="M386.6,681.4h4.8" class="g2_29"/>
<text x="386" y="689" class="sa_29">8</text>
<text x="114" y="716" class="s3_29">². </text>
<text x="128" y="716" dx="0,0,0,0,3.4" class="s4_29">(a) 6</text>
<text x="158" y="716" class="s5_29">s</text>
<text x="168" y="716" class="s4_29">2</text>
<g clip-path="url(#c6_29)">
<path d="M169.1,703.8h9.1" class="g1_29"/>
</g>
<text x="251" y="716" dx="0,0,0,0,3.4,0" class="s4_29">(b) 48</text>
<text x="289" y="716" class="s7_29">a</text>
<text x="296" y="711" class="s8_29">5</text>
<text x="300" y="716" class="s7_29">b</text>
<text x="307" y="711" class="s8_29">7</text>
<text x="364" y="716" class="s4_29">(c) </text>
<text x="394" y="706" class="s7_29">x</text>
<g clip-path="url(#c7_29)">
<path d="M387.1,712.1h21.1" class="g1_29"/>
</g>
<text x="388" y="726" class="s4_29">9</text>
<text x="395" y="726" class="s7_29">y</text>
<text x="401" y="720" class="s8_29">7</text>
<text x="114" y="747" class="s3_29">³. </text>
<text x="128" y="747" dx="0,0,0,0,3.4,0" class="s4_29">(a) 11</text>
<text x="165" y="747" class="s7_29">x</text>
<text x="175" y="747" class="s6_29">2</text>
<text x="191" y="747" class="s4_29">2 </text>
<text x="251" y="747" dx="0,0,0,0,3.4" class="s4_29">(b) 4</text>
<text x="282" y="747" class="s7_29">x</text>
<text x="289" y="741" class="s8_29">2</text>
<text x="298" y="747" class="s6_29">1</text>
<text x="313" y="747" class="s4_29">7</text>
<text x="320" y="747" class="s7_29">x</text>
<text x="330" y="747" class="s6_29">2</text>
<text x="346" y="747" class="s4_29">15</text>
<text x="128" y="766" class="s4_29">(c) </text>
<text x="151" y="766" class="s7_29">a</text>
<text x="162" y="766" class="s6_29">2</text>
<text x="177" y="766" class="s7_29">b</text>
<text x="251" y="766" dx="0,0,0,0,3.4" class="s4_29">(d) 4</text>
<text x="282" y="766" class="s7_29">x</text>
<text x="289" y="761" class="s8_29">2</text>
<text x="298" y="766" class="s6_29">1</text>
<text x="313" y="766" class="s4_29">12</text>
<text x="328" y="766" class="s7_29">x</text>
<text x="338" y="766" class="s6_29">1</text>
<text x="354" y="766" class="s4_29">9</text>
<text x="128" y="786" class="s4_29">(e) </text>
<text x="151" y="786" class="s7_29">x</text>
<text x="159" y="781" class="s8_29">3</text>
<text x="167" y="786" class="s6_29">1</text>
<text x="182" y="786" class="s4_29">6</text>
<text x="190" y="786" class="s7_29">x</text>
<text x="198" y="781" class="s8_29">2</text>
<text x="206" y="786" class="s6_29">1</text>
<text x="221" y="786" class="s4_29">12</text>
<text x="236" y="786" class="s7_29">x</text>
<text x="246" y="786" class="s6_29">1</text>
<text x="262" y="786" class="s4_29">8</text>
<text x="113" y="817" class="s3_29">´. </text>
<text x="128" y="817" class="s4_29">(a) </text>
<text x="151" y="817" class="sc_29">s</text>
<text x="155" y="817" class="s4_29">2</text>
<text x="163" y="817" class="s7_29">x</text>
<text x="173" y="817" class="s6_29">2</text>
<text x="189" y="817" class="s4_29">5</text>
<text x="195" y="817" class="sc_29">ds</text>
<text x="205" y="817" class="s4_29">2</text>
<text x="212" y="817" class="s7_29">x</text>
<text x="222" y="817" class="s6_29">1</text>
<text x="238" y="817" class="s4_29">5</text>
<text x="245" y="817" class="sc_29">d</text>
<text x="330" y="817" class="s4_29">(b) </text>
<text x="354" y="817" class="sc_29">s</text>
<text x="358" y="817" class="s4_29">2</text>
<text x="366" y="817" class="s7_29">x</text>
<text x="376" y="817" class="s6_29">2</text>
<text x="392" y="817" class="s4_29">3</text>
<text x="399" y="817" class="sc_29">ds</text>
<text x="408" y="817" class="s7_29">x</text>
<text x="419" y="817" class="s6_29">1</text>
<text x="434" y="817" class="s4_29">4</text>
<text x="441" y="817" class="sc_29">d</text>
<text x="128" y="837" class="s4_29">(c) </text>
<text x="151" y="837" class="sc_29">s</text>
<text x="156" y="837" class="s7_29">x</text>
<text x="166" y="837" class="s6_29">2</text>
<text x="182" y="837" class="s4_29">3</text>
<text x="189" y="837" class="sc_29">ds</text>
<text x="198" y="837" class="s7_29">x</text>
<text x="209" y="837" class="s6_29">2</text>
<text x="224" y="837" class="s4_29">2</text>
<text x="231" y="837" class="sc_29">ds</text>
<text x="241" y="837" class="s7_29">x</text>
<text x="251" y="837" class="s6_29">1</text>
<text x="267" y="837" class="s4_29">2</text>
<text x="274" y="837" class="sc_29">d</text>
<text x="330" y="837" class="s4_29">(d) </text>
<text x="354" y="837" class="s7_29">x</text>
<text x="361" y="837" class="sc_29">s</text>
<text x="366" y="837" class="s7_29">x</text>
<text x="377" y="837" class="s6_29">1</text>
<text x="392" y="837" class="s4_29">3</text>
<text x="399" y="837" class="sc_29">ds</text>
<text x="409" y="837" class="s7_29">x</text>
<text x="416" y="831" class="s8_29">2</text>
<text x="425" y="837" class="s6_29">2</text>
<text x="440" y="837" class="s4_29">3</text>
<text x="447" y="837" class="s7_29">x</text>
<text x="457" y="837" class="s6_29">1</text>
<text x="473" y="837" class="s4_29">9</text>
<text x="480" y="837" class="sc_29">d</text>
<text x="128" y="857" dx="0,0,0,0,3.4" class="s4_29">(e) 3</text>
<text x="157" y="857" class="s7_29">x</text>
<text x="163" y="851" class="sd_29">2</text>
<text x="170" y="851" class="s8_29">1</text>
<text x="174" y="851" class="se_29">y</text>
<text x="178" y="851" class="s8_29">2</text>
<text x="183" y="857" class="sc_29">s</text>
<text x="188" y="857" class="s7_29">x</text>
<text x="198" y="857" class="s6_29">2</text>
<text x="214" y="857" class="s4_29">1</text>
<text x="221" y="857" class="sc_29">ds</text>
<text x="230" y="857" class="s7_29">x</text>
<text x="241" y="857" class="s6_29">2</text>
<text x="256" y="857" class="s4_29">2</text>
<text x="263" y="857" class="sc_29">d</text>
<text x="331" y="857" dx="0,0,1.1,0" class="s4_29">(f) </text>
<text x="354" y="857" dx="0,.7" class="s7_29">xy</text>
<text x="368" y="857" class="sc_29">s</text>
<text x="373" y="857" class="s7_29">x</text>
<text x="383" y="857" class="s6_29">2</text>
<text x="399" y="857" class="s4_29">2</text>
<text x="406" y="857" class="sc_29">ds</text>
<text x="416" y="857" class="s7_29">x</text>
<text x="426" y="857" class="s6_29">1</text>
<text x="441" y="857" class="s4_29">2</text>
<text x="448" y="857" class="sc_29">d</text>
<text x="114" y="896" class="s3_29">µ. </text>
<text x="128" y="896" class="s4_29">(a) </text>
<text x="153" y="887" class="s7_29">x</text>
<text x="163" y="887" class="s6_29">1</text>
<text x="179" y="887" class="s4_29">2</text>
<g clip-path="url(#c8_29)">
<path d="M151.8,892.3h36.7" class="g1_29"/>
</g>
<text x="153" y="906" class="s7_29">x</text>
<text x="163" y="906" class="s6_29">2</text>
<text x="179" y="906" class="s4_29">2</text>
<text x="330" y="896" class="s4_29">(b) </text>
<text x="356" y="887" class="s7_29">x</text>
<text x="366" y="887" class="s6_29">2</text>
<text x="382" y="887" class="s4_29">1</text>
<g clip-path="url(#c9_29)">
<path d="M355,892.3h36.7" class="g1_29"/>
</g>
<text x="356" y="906" class="s7_29">x</text>
<text x="366" y="906" class="s6_29">2</text>
<text x="382" y="906" class="s4_29">3</text>
<text x="128" y="931" class="s4_29">(c) </text>
<text x="165" y="922" class="s4_29">1</text>
<g clip-path="url(#ca_29)">
<path d="M151.4,927.5h36.7" class="g1_29"/>
</g>
<text x="153" y="941" class="s7_29">x</text>
<text x="163" y="941" class="s6_29">2</text>
<text x="178" y="941" class="s4_29">2</text>
<text x="330" y="931" class="s4_29">(d) </text>
<text x="354" y="931" class="s6_29">2</text>
<text x="365" y="931" class="sc_29">s</text>
<text x="371" y="931" class="s7_29">x</text>
<text x="381" y="931" class="s6_29">1</text>
<text x="396" y="931" class="s7_29">y</text>
<text x="402" y="931" class="sc_29">d</text>
<text x="512" y="670" class="s3_29">¶. </text>
<text x="527" y="670" dx="0,0,0,0,3.4" class="s4_29">(a) 5</text>
<text x="557" y="671" class="s5_29">s</text>
<text x="567" y="670" class="s4_29">2</text>
<path d="M567.9,658h9" class="g1_29"/>
<text x="580" y="670" class="s6_29">1</text>
<text x="596" y="670" class="s4_29">2</text>
<text x="603" y="671" class="s5_29">s</text>
<text x="614" y="670" class="s4_29">10</text>
<g clip-path="url(#cb_29)">
<path d="M614.3,658h15.9" class="g1_29"/>
</g>
<text x="729" y="670" class="s4_29">(b) </text>
<text x="787" y="661" class="s4_29">1</text>
<g clip-path="url(#cc_29)">
<path d="M753.3,666.3h76.4" class="g1_29"/>
</g>
<text x="755" y="682" class="s5_29">s</text>
<text x="765" y="681" class="s4_29">4</text>
<text x="776" y="681" class="s6_29">1</text>
<text x="791" y="681" class="s7_29">h</text>
<path d="M765.5,669.2h35.6" class="g1_29"/>
<text x="804" y="681" class="s6_29">1</text>
<text x="820" y="681" class="s4_29">2</text>
<text x="513" y="710" class="s3_29">·. </text>
<text x="527" y="710" class="s4_29">(a) </text>
<text transform="matrix(0.71,0,0,1,549,710)" class="sg_29">s</text>
<text x="555" y="710" class="s7_29">x</text>
<text x="565" y="710" class="s6_29">1</text>
<text x="580" y="704" class="sa_29">1</text>
<path d="M581.2,705.9h4.7" class="g2_29"/>
<text x="580" y="713" class="sa_29">2</text>
<text transform="matrix(0.71,0,0,1,586,710)" class="sg_29">d</text>
<text x="592" y="702" class="s8_29">2</text>
<text x="599" y="710" class="s6_29">1</text>
<text x="615" y="704" class="sa_29">3</text>
<path d="M615.5,705.9h4.8" class="g2_29"/>
<text x="615" y="714" class="sa_29">4</text>
<text x="729" y="710" class="s4_29">(b) </text>
<text x="752" y="710" class="s4_29">2</text>
<text x="759" y="710" class="sc_29">s</text>
<text x="765" y="710" class="s7_29">x</text>
<text x="775" y="710" class="s6_29">2</text>
<text x="790" y="710" class="s4_29">3</text>
<text x="797" y="710" class="sc_29">d</text>
<text x="802" y="704" class="s8_29">2</text>
<text x="810" y="710" class="s6_29">2</text>
<text x="826" y="710" class="s4_29">7</text>
<text x="512" y="750" class="s3_29">¸. </text>
<text x="527" y="750" dx="0,0,0,0,3.4,0" class="s4_29">(a) 6 </text>
<text x="650" y="750" dx="0,0,0,0,3.4,0" class="s4_29">(b) 1 </text>
<text x="762" y="750" class="s4_29">(c) </text>
<text x="785" y="750" class="s6_29">2</text>
<text x="796" y="750" class="s4_29">3, 4</text>
<text x="526" y="771" class="s4_29">(d) </text>
<text x="549" y="771" class="s6_29">2</text>
<text x="561" y="771" class="s4_29">1</text>
<text x="572" y="771" class="s6_29">6</text>
<text x="587" y="765" class="sa_29">1</text>
<path d="M588,767h4.8" class="g2_29"/>
<text x="587" y="775" class="sa_29">2</text>
<text x="593" y="772" class="s5_29">s</text>
<text x="603" y="771" class="s4_29">2</text>
<g clip-path="url(#cd_29)">
<path d="M604.2,758.8h9" class="g1_29"/>
</g>
<text x="651" y="771" class="s4_29">(e) </text>
<text x="673" y="771" class="s6_29">6</text>
<text x="684" y="771" class="s4_29">1, </text>
<text x="698" y="771" class="s6_29">6</text>
<text x="710" y="772" class="s5_29">s</text>
<text x="720" y="771" class="s4_29">2</text>
<g clip-path="url(#ce_29)">
<path d="M720.6,758.8h9" class="g1_29"/>
</g>
<text x="763" y="771" dx="0,0,1.1,0" class="s4_29">(f) </text>
<text x="785" y="765" class="sa_29">2</text>
<path d="M785.3,767h4.8" class="g2_29"/>
<text x="785" y="775" class="sa_29">3</text>
<text x="791" y="771" class="s4_29">, </text>
<text x="797" y="765" class="sa_29">22</text>
<path d="M798.1,767h9.6" class="g2_29"/>
<text x="800" y="775" class="sa_29">3</text>
<text x="526" y="792" class="s4_29">(g) </text>
<text x="549" y="786" class="sa_29">12</text>
<path d="M550,788.4h9.6" class="g2_29"/>
<text x="552" y="796" class="sa_29">5</text>
<text x="512" y="834" class="s3_29">¹. </text>
<text x="527" y="834" class="s4_29">(a) </text>
<text x="549" y="834" class="sc_29">f</text>
<text x="554" y="834" class="s6_29">2</text>
<text x="565" y="834" class="s4_29">4, 3</text>
<text x="586" y="834" class="sc_29">d</text>
<text x="729" y="834" class="s4_29">(b) </text>
<text x="752" y="834" class="sc_29">s</text>
<text x="757" y="834" class="s6_29">2</text>
<text x="769" y="834" class="s4_29">2, 4</text>
<text x="789" y="834" class="sc_29">d</text>
<text x="527" y="852" class="s4_29">(c) </text>
<text x="549" y="852" class="sc_29">s</text>
<text x="554" y="852" class="s6_29">2</text>
<text x="565" y="852" class="s4_29">2, 0</text>
<text x="586" y="852" class="sc_29">d</text>
<text x="595" y="852" class="sh_29">ø</text>
<text x="610" y="852" class="sc_29">s</text>
<text x="615" y="852" class="s4_29">1, </text>
<text x="628" y="852" class="s6_29">`</text>
<text x="638" y="852" class="sc_29">d</text>
<text x="729" y="852" class="s4_29">(d) </text>
<text x="752" y="852" class="sc_29">s</text>
<text x="757" y="852" class="s4_29">1, 7</text>
<text x="778" y="852" class="sc_29">d</text>
<text x="527" y="870" class="s4_29">(e) </text>
<text x="549" y="870" class="sc_29">s</text>
<text x="554" y="870" class="s6_29">2</text>
<text x="565" y="870" class="s4_29">1, 4</text>
<text x="586" y="870" class="sc_29">g</text>
<text x="507" y="910" class="s3_29">±º. </text>
<text x="527" y="910" dx="0,0,0,0,3.4,0,0,0,0,0" class="s4_29">(a) False </text>
<text x="650" y="910" dx="0,0,0,0,3.4,0,0,0,0" class="s4_29">(b) True </text>
<text x="762" y="910" dx="0,0,0,0,3.4,0,0,0,0" class="s4_29">(c) False</text>
<text x="526" y="928" dx="0,0,0,0,3.4,0,0,0,0,0" class="s4_29">(d) False </text>
<text x="651" y="928" dx="0,0,0,0,3.4,0,0,0,0,0" class="s4_29">(e) False </text>
<text x="763" y="928" dx="0,0,1.1,0,3.4,0,0,0" class="s4_29">(f) True</text>
<text x="278" y="996" dx="0,.3,0,0,-.5,0,0,0,0,.1,0,0,.2,.2,.2,-.2,-.1,.2,-.3,.3,0,0,.1,-.3,.3,0,0,.3,0,0,0,0,0,0,0,-.1,-.2,-.2,-.1,.2,0,0,0,-.5,0,0,0,.1,-.3,0,0,.1,0,-.1,0,0,0,0,0,0,-.1,0,-.1,.2,-.3,0,0,.3,0,.7" class="si_29">If you had dif±culty with these problems, you may wish to consult the </text>
<text x="278" y="1014" dx="0,-.2,-.3,.1,-.2,-.3,0,0,-.2,0,0,.3,-.2,-.2,-.1,0,.1,0,0,-.1,0,0,.3,0,0,0,-.4,-.1,0,-.2,-.3,.1,0" class="si_29">Review of Algebra on the website </text>
<text x="488" y="1014" dx="0,.3,.3,-1,.1,0,.1,-.2,-.2,.2,.2,.1,.2,.2,-.1,0,.2,-.2,.1,0,-.2,.1,-.1" class="sj_29">www.stewartcalculus.com</text>
<text x="656" y="1014" class="si_29">.</text>
<path d="M269.6,974.4c0,0,-3.1,0,-3.1,3v53.3c0,0,0,3,3.1,3H717.4c0,0,3,0,3,-3V977.4c0,0,0,-3,-3,-3H269.6Z" class="g3_29"/>
<text x="121" y="1076" class="sk_29">Copyright 2016 Cengage Learning. All Rights Reserved. May not be copied, scanned, or duplicated, in whole or in part. Due to electronic rights, some third party content may be suppressed from the eBook and/or eChapter(s).</text>
<text x="106" y="1087" class="sk_29">Editorial review has deemed that any suppressed content does not materially affect the overall learning experience. Cengage Learning reserves the right to remove additional content at any time if subsequent rights restrictions require it.</text>

</g>

<!-- Any embedded fonts defined here -->
<style type="text/css" ><![CDATA[

@font-face {
	font-family: BeaconDingbatsTypeOne_od;
	src: url("fonts/BeaconDingbatsTypeOne_od.woff") format("woff");
}

@font-face {
	font-family: MathematicalPiLTStd-1_rr;
	src: url("fonts/MathematicalPiLTStd-1_rr.woff") format("woff");
}

@font-face {
	font-family: MathematicalPiLTStd-3_ry;
	src: url("fonts/MathematicalPiLTStd-3_ry.woff") format("woff");
}

@font-face {
	font-family: MathematicalPiLTStd-4_v8;
	src: url("fonts/MathematicalPiLTStd-4_v8.woff") format("woff");
}

@font-face {
	font-family: MathematicalPiLTStd-5_vb;
	src: url("fonts/MathematicalPiLTStd-5_vb.woff") format("woff");
}

@font-face {
	font-family: MyriadPro-BoldSemiCn_90;
	src: url("fonts/MyriadPro-BoldSemiCn_90.woff") format("woff");
}

@font-face {
	font-family: MyriadPro-Regular_4i;
	src: url("fonts/MyriadPro-Regular_4i.woff") format("woff");
}

@font-face {
	font-family: MyriadPro-SemiboldSemiCn_4e;
	src: url("fonts/MyriadPro-SemiboldSemiCn_4e.woff") format("woff");
}

@font-face {
	font-family: Times-Roman_4n;
	src: url("fonts/Times-Roman_4n.woff") format("woff");
}

@font-face {
	font-family: TimesLTStd-Italic_o3;
	src: url("fonts/TimesLTStd-Italic_o3.woff") format("woff");
}

@font-face {
	font-family: TimesLTStd-Roman_6c;
	src: url("fonts/TimesLTStd-Roman_6c.woff") format("woff");
}

@font-face {
	font-family: TimesLTStd-Semibold_vf;
	src: url("fonts/TimesLTStd-Semibold_vf.woff") format("woff");
}

]]></style>

</svg>
