<?xml version="1.0" encoding="UTF-8" standalone="no"?>
<!DOCTYPE svg PUBLIC "-//W3C//DTD SVG 1.1//EN"
"http://www.w3.org/Graphics/SVG/1.1/DTD/svg11.dtd">


<!-- Page 30 -->
<svg x="0" y="0" width="931" height="1096" viewBox="0 0 931 1096" version="1.1" xmlns="http://www.w3.org/2000/svg" xmlns:xlink="http://www.w3.org/1999/xlink"
style="display: block;margin-left: auto;margin-right: auto;">
<defs>
<clipPath id="c_30"><path d="M0,0H931V1096H0Z"/></clipPath>
<style type="text/css"><![CDATA[
text { white-space: pre; }
path, image { pointer-events: none; }

.s1_30{
font-size: 15.28px;
font-family: MyriadPro-Semibold_49;
fill: #231F20;
}
.s2_30{
font-size: 12.22px;
font-family: MyriadPro-Regular_4i;
fill: #231F20;
}
.s3_30{
font-size: 15.28px;
font-family: MyriadPro-SemiboldSemiCn_4e;
fill: #00AEEF;
}
.s4_30{
font-size: 13.75px;
font-family: MyriadPro-BoldSemiCn_90;
fill: #231F20;
}
.s5_30{
font-size: 13.75px;
font-family: TimesLTStd-Roman_6c;
fill: #231F20;
}
.s6_30{
font-size: 13.75px;
font-family: TimesLTStd-Italic_o3;
fill: #231F20;
}
.s7_30{
font-size: 13.75px;
font-family: MathematicalPiLTStd-5_vb;
fill: #231F20;
}
.s8_30{
font-size: 13.75px;
font-family: MathematicalPiLTStd-1_rr;
fill: #231F20;
}
.s9_30{
font-size: 9.63px;
font-family: TimesLTStd-Roman_6c;
fill: #231F20;
}
.sa_30{
font-size: 13.75px;
font-family: MathematicalPiLTStd-3_ry;
fill: #231F20;
}
.sb_30{
font-size: 8.25px;
font-family: TimesLTStd-Roman_6c;
fill: #231F20;
}
.sc_30{
font-size: 9.62px;
font-family: TECHMath-Mix_vz;
fill: #231F20;
}
.sd_30{
font-size: 9.62px;
font-family: Times-Roman_n6;
fill: #231F20;
}
.se_30{
font-size: 12.22px;
font-family: Times-Roman_n6;
fill: #231F20;
}
.sf_30{
font-size: 10.99px;
font-family: TECHMath-Mix_vz;
fill: #231F20;
}
.sg_30{
font-size: 8.25px;
font-family: Times-Roman_n6;
fill: #231F20;
}
.sh_30{
font-size: 22.00px;
font-family: MathematicalPiLTStd-3_ry;
fill: #231F20;
}
.si_30{
font-size: 15.28px;
font-family: TimesLTStd-Roman_6c;
fill: #00AEEF;
}
.sj_30{
font-size: 7.64px;
font-family: Times-Roman_4n;
fill: #000000;
}

.g0_30{
fill: none;
stroke: #00AEEF;
stroke-width: 0.763;
stroke-linecap: butt;
stroke-linejoin: miter;
}
.g1_30{
fill: none;
stroke: #231F20;
stroke-width: 0.481;
stroke-linecap: butt;
stroke-linejoin: miter;
}
.g2_30{
fill: #FFFFFF;
}
.g3_30{
fill: none;
stroke: #231F20;
stroke-width: 0.993;
stroke-linecap: butt;
stroke-linejoin: miter;
stroke-miterlimit: 4;
}
.g4_30{
fill: #C7C9CB;
}
.g5_30{
fill: none;
stroke: #231F20;
stroke-width: 0.993;
stroke-linecap: butt;
stroke-linejoin: miter;
stroke-miterlimit: 4;
stroke-dasharray: 7,4;
}
.g6_30{
fill: none;
stroke: #231F20;
stroke-width: 0.534;
stroke-linecap: round;
stroke-linejoin: round;
stroke-miterlimit: 4;
}
.g7_30{
fill: #231F20;
}
.g8_30{
fill: none;
stroke: #231F20;
stroke-width: 0.993;
stroke-linecap: round;
stroke-linejoin: round;
stroke-miterlimit: 4;
}
.g9_30{
fill: none;
stroke: #231F20;
stroke-width: 0.381;
stroke-linecap: round;
stroke-linejoin: round;
stroke-miterlimit: 4;
}
.ga_30{
fill: none;
stroke: #231F20;
stroke-width: 0.305;
stroke-linecap: round;
stroke-linejoin: round;
stroke-miterlimit: 4;
}
.gb_30{
fill: none;
stroke: #0079C2;
stroke-width: 0.763;
stroke-linecap: butt;
stroke-linejoin: miter;
stroke-miterlimit: 4;
}

]]></style>

</defs>
<g clip-path="url(#c_30)">
<path d="M0,0
L0,1096
L931,1096
L931,0 Z " 
fill="#FFFFFF" stroke="none"/>
<text x="53" y="64" dx="0,0,.3,0,0,0" class="s1_30">xxviii</text>
<text x="127" y="64" dx="0,.1,.1,.1,0,.1,.1,.1,.1,.1,.1,-.4,-.7,.1,.1,.1" class="s2_30">Diagnostic Tests</text>
<path d="M53.9,629.8h770" class="g0_30"/>
<text x="54" y="618" dx="0,.9,.9,.9,.9,.9,.9,.8,.2,.5,.8,.8,.9,.9,.6,.9,.9,.9,.9,.9,.9,.8,.2,.9,.9,.9,.8,.8,.8,.6,.8,.9,.9,.9,-.3,1.2,.9,.9,.8,.8,.9,.9,.9,.9,1,.9,.7" class="s3_30">ANSWERS TO DIAGNOSTIC TEST B: ANALYTIC GEOMETRY</text>
<text x="65" y="657" class="s4_30">±. </text>
<text x="78" y="657" class="s5_30">(a) </text>
<text x="100" y="657" class="s6_30">y</text>
<text x="111" y="657" class="s7_30">-</text>
<text x="126" y="657" class="s8_30">2</text>
<text x="138" y="657" class="s5_30">3</text>
<text x="144" y="657" class="s6_30">x</text>
<text x="155" y="657" class="s8_30">1</text>
<text x="170" y="657" class="s5_30">1 </text>
<text x="250" y="657" class="s5_30">(b) </text>
<text x="274" y="657" class="s6_30">y</text>
<text x="284" y="657" class="s7_30">-</text>
<text x="300" y="657" class="s8_30">2</text>
<text x="311" y="657" class="s5_30">5</text>
<text x="78" y="678" class="s5_30">(c) </text>
<text x="100" y="678" class="s6_30">x</text>
<text x="111" y="678" class="s7_30">-</text>
<text x="126" y="678" class="s5_30">2 </text>
<text x="250" y="678" class="s5_30">(d) </text>
<text x="274" y="678" class="s6_30">y</text>
<text x="284" y="678" class="s7_30">-</text>
<text x="300" y="672" class="s9_30">1</text>
<path d="M300.3,674.4h4.8" class="g1_30"/>
<text x="300" y="682" class="s9_30">2</text>
<text x="306" y="678" class="s6_30">x</text>
<text x="316" y="678" class="s8_30">2</text>
<text x="332" y="678" class="s5_30">6</text>
<text x="63" y="709" class="s4_30">². </text>
<text x="78" y="709" class="sa_30">s</text>
<text x="83" y="709" class="s6_30">x</text>
<text x="93" y="709" class="s8_30">1</text>
<text x="109" y="709" class="s5_30">1</text>
<text x="116" y="709" class="sa_30">d</text>
<text x="120" y="704" class="sb_30">2</text>
<text x="129" y="709" class="s8_30">1</text>
<text x="144" y="709" class="sa_30">s</text>
<text x="150" y="709" class="s6_30">y</text>
<text x="160" y="709" class="s8_30">2</text>
<text x="176" y="709" class="s5_30">4</text>
<text x="183" y="709" class="sa_30">d</text>
<text x="187" y="704" class="sb_30">2</text>
<text x="196" y="709" class="s7_30">-</text>
<text x="211" y="709" class="s5_30">52</text>
<text x="63" y="740" class="s4_30">³. </text>
<text x="78" y="740" class="s5_30">Center </text>
<text x="118" y="740" class="sa_30">s</text>
<text x="123" y="740" class="s5_30">3, </text>
<text x="136" y="740" class="s8_30">2</text>
<text x="148" y="740" class="s5_30">5</text>
<text x="154" y="740" class="sa_30">d</text>
<text x="159" y="740" class="s5_30">, radius 5</text>
<text x="63" y="772" class="s4_30">´. </text>
<text x="78" y="772" class="s5_30">(a) </text>
<text x="100" y="772" class="s8_30">2</text>
<text x="112" y="765" class="s9_30">4</text>
<path d="M112.2,767.6h5.5" class="g1_30"/>
<text x="112" y="775" class="s9_30">3</text>
<text x="77" y="792" dx="0,0,0,0,3.4" class="s5_30">(b) 4</text>
<text x="108" y="792" class="s6_30">x</text>
<text x="118" y="792" class="s8_30">1</text>
<text x="133" y="792" class="s5_30">3</text>
<text x="140" y="792" class="s6_30">y</text>
<text x="150" y="792" class="s8_30">1</text>
<text x="166" y="792" class="s5_30">16</text>
<text x="184" y="792" class="s7_30">-</text>
<text x="199" y="792" class="s5_30">0; </text>
<text x="214" y="792" class="s6_30">x</text>
<text x="220" y="792" class="s5_30">-intercept </text>
<text x="276" y="792" class="s8_30">2</text>
<text x="287" y="792" class="s5_30">4, </text>
<text x="302" y="792" class="s6_30">y</text>
<text x="308" y="792" class="s5_30">-intercept </text>
<text x="364" y="792" class="s8_30">2</text>
<text x="376" y="785" class="s9_30">16</text>
<path d="M375.9,787.4h10.4" class="g1_30"/>
<text x="378" y="795" class="s9_30">3</text>
<text x="78" y="811" class="s5_30">(c) </text>
<text x="100" y="811" class="sa_30">s</text>
<text x="105" y="811" class="s8_30">2</text>
<text x="116" y="811" class="s5_30">1, </text>
<text x="130" y="811" class="s8_30">2</text>
<text x="141" y="811" class="s5_30">4</text>
<text x="148" y="811" class="sa_30">d</text>
<text x="77" y="831" dx="0,0,0,0,3.4,0" class="s5_30">(d) 20</text>
<text x="78" y="851" dx="0,0,0,0,3.4" class="s5_30">(e) 3</text>
<text x="107" y="851" class="s6_30">x</text>
<text x="117" y="851" class="s8_30">2</text>
<text x="133" y="851" class="s5_30">4</text>
<text x="140" y="851" class="s6_30">y</text>
<text x="150" y="851" class="s7_30">-</text>
<text x="166" y="851" class="s5_30">13</text>
<text x="78" y="871" dx="0,0,1.1,0" class="s5_30">(f) </text>
<text x="100" y="871" class="sa_30">s</text>
<text x="105" y="871" class="s6_30">x</text>
<text x="116" y="871" class="s8_30">1</text>
<text x="131" y="871" class="s5_30">1</text>
<text x="138" y="871" class="sa_30">d</text>
<text x="143" y="865" class="sb_30">2</text>
<text x="151" y="871" class="s8_30">1</text>
<text x="166" y="871" class="sa_30">s</text>
<text x="172" y="871" class="s6_30">y</text>
<text x="183" y="871" class="s8_30">1</text>
<text x="198" y="871" class="s5_30">4</text>
<text x="205" y="871" class="sa_30">d</text>
<text x="210" y="865" class="sb_30">2</text>
<text x="218" y="871" class="s7_30">-</text>
<text x="233" y="871" class="s5_30">100</text>
<text x="458" y="657" class="s4_30">µ. </text>
<path d="M449.6,886.3H815.5v-220H449.6v220Z" class="g2_30"/>
<path d="M795.1,837.1c0,15.2,-16.4,27.5,-36.6,27.5c-20.2,0,-36.6,-12.3,-36.6,-27.5c0,-15.1,16.4,-27.5,36.6,-27.5c20.2,0,36.6,12.4,36.6,27.5Z" class="g3_30"/>
<path d="M649,837.1c0,10.2,-8.2,18.4,-18.3,18.4c-10.1,0,-18.3,-8.2,-18.3,-18.4c0,-10.1,8.2,-18.3,18.3,-18.3c10.1,0,18.3,8.2,18.3,18.3Z" class="g4_30"/>
<path d="M649,837.1c0,10.2,-8.2,18.4,-18.3,18.4c-10.1,0,-18.3,-8.2,-18.3,-18.4c0,-10.1,8.2,-18.3,18.3,-18.3c10.1,0,18.3,8.2,18.3,18.3Z" class="g5_30"/>
<path d="M524.4,790c-1.6,19.1,-12.5,56.3,-22.4,56.3c-10,0,-20.9,-37.2,-22.5,-56.3h44.9Z" class="g4_30"/>
<path d="M455.7,837.1h93.5" class="g6_30"/>
<path fill-rule="evenodd" d="M549.2,837.1L547.8,835l5.6,2.1l-5.6,2.1Z" class="g7_30"/>
<path d="M502,883.4V790" class="g6_30"/>
<text x="493" y="790" class="sc_30">y</text>
<text x="547" y="846" class="sc_30">x</text>
<text x="510" y="846" class="sc_30">1</text>
<text x="651" y="846" class="sc_30">2</text>
<text x="494" y="835" class="sd_30">0</text>
<path fill-rule="evenodd" d="M502,790l-2.1,1.4l2.1,-5.6l2.1,5.6Z" class="g7_30"/>
<path d="M524.4,790c-1.6,19.1,-12.5,56.3,-22.4,56.3c-10,0,-20.9,-37.2,-22.5,-56.3" class="g8_30"/>
<path d="M584,837.1h93.4" class="g6_30"/>
<path fill-rule="evenodd" d="M677.4,837.1L676,835l5.6,2.1l-5.6,2.1Z" class="g7_30"/>
<path d="M630.2,883.4V790" class="g6_30"/>
<text x="621" y="790" class="sc_30">y</text>
<text x="675" y="846" class="sc_30">x</text>
<text x="623" y="845" class="sd_30">0</text>
<path fill-rule="evenodd" d="M630.2,790l-2.1,1.4l2.1,-5.6l2.1,5.6Z" class="g7_30"/>
<path d="M712.2,837.1h96.5" class="g6_30"/>
<path fill-rule="evenodd" d="M808.7,837.1L807.3,835l5.6,2.1l-5.6,2.1Z" class="g7_30"/>
<path d="M758.5,883.4V790" class="g6_30"/>
<text x="750" y="790" class="sc_30">y</text>
<text x="807" y="846" class="sc_30">x</text>
<text x="751" y="845" class="sd_30">0</text>
<text x="795" y="846" class="sd_30">4</text>
<text x="751" y="806" class="sd_30">3</text>
<path fill-rule="evenodd" d="M758.5,790l-2.1,1.4l2.1,-5.6l2.1,5.6Z" class="g7_30"/>
<text x="489" y="855" class="sc_30">_1</text>
<text x="622" y="816" class="sd_30">2</text>
<path d="M712.2,690.6l93.5,45.8v32.5H712.2Z" class="g4_30"/>
<path d="M455.7,731.8h93.5V695.1H455.7v36.7Z" class="g4_30"/>
<path d="M593.1,740.9h75.2V704.3H593.1v36.6Z" class="g4_30"/>
<path d="M593.1,740.9h75.2V704.3H593.1v36.6Z" class="g5_30"/>
<path d="M455.7,722.6h93.5" class="g6_30"/>
<path d="M455.7,695.1h93.5m-93.5,36.7h93.5" class="g8_30"/>
<path fill-rule="evenodd" d="M549.2,722.6l-1.4,-2.1l5.6,2.1l-5.6,2.1Z" class="g7_30"/>
<path d="M502,768.9V675.4" class="g6_30"/>
<text x="493" y="676" class="sc_30">y</text>
<text x="547" y="732" class="sc_30">x</text>
<text x="494" y="720" class="sd_30">0</text>
<path fill-rule="evenodd" d="M502,675.4l-2.1,1.4l2.1,-5.6l2.1,5.6Z" class="g7_30"/>
<path d="M579.4,722.6H682" class="g6_30"/>
<path fill-rule="evenodd" d="M682,722.6l-1.4,-2.1l5.6,2.1l-5.6,2.1Z" class="g7_30"/>
<path d="M630.2,768.9V675.4" class="g6_30"/>
<text x="621" y="676" class="sc_30">y</text>
<text x="680" y="732" class="sc_30">x</text>
<text x="623" y="731" class="sd_30">0</text>
<text x="672" y="731" class="sd_30">4</text>
<text x="578" y="731" class="sc_30">_4</text>
<path fill-rule="evenodd" d="M630.2,675.4l-2.1,1.4l2.1,-5.6l2.1,5.6Z" class="g7_30"/>
<path d="M712.2,722.6h93.5" class="g6_30"/>
<path d="M712.2,690.6l93.5,45.8Z" class="g4_30"/>
<path d="M712.2,690.6l93.5,45.8" class="g5_30"/>
<path fill-rule="evenodd" d="M805.7,722.6l-1.4,-2.1l5.6,2.1l-5.6,2.1Z" class="g7_30"/>
<path d="M758.5,768.9V675.4" class="g6_30"/>
<text x="750" y="676" class="sc_30">y</text>
<text x="804" y="732" class="sc_30">x</text>
<text x="751" y="731" class="sd_30">0</text>
<text x="774" y="732" class="sd_30">2</text>
<text x="751" y="707" class="sd_30">1</text>
<path fill-rule="evenodd" d="M758.5,675.4l-2.1,1.4l2.1,-5.6l2.1,5.6Z" class="g7_30"/>
<text x="454" y="677" class="se_30">(a)</text>
<text x="582" y="677" class="se_30">(b)</text>
<text x="710" y="677" class="se_30">(c)</text>
<text x="454" y="791" class="se_30">(d)</text>
<text x="582" y="791" class="se_30">(e)</text>
<text x="710" y="791" dx="0,0,1.2" class="se_30">(f)</text>
<text x="489" y="740" class="sc_30">_1</text>
<text x="494" y="692" class="sc_30">3</text>
<text x="622" y="702" class="sd_30">2</text>
<text x="616" y="750" class="sc_30">_2</text>
<text x="509" y="862" class="sf_30">y=≈-1</text>
<text x="638" y="811" class="sf_30">≈+¥=4</text>
<text x="765" y="699" class="sf_30">y=1- </text>
<text x="807" y="699" class="sf_30">x</text>
<text x="801" y="693" class="sg_30">1</text>
<text x="801" y="703" class="sg_30">2</text>
<path d="M801.5,695.7h5.1" class="g9_30"/>
<path d="M787.8,704.7l-14.5,10.7" class="ga_30"/>
<path d="M773.3,715.4l1.2,.6c0,0,-2.4,.3,-3.4,1c1,-.7,2,-2.9,2,-2.9l.2,1.3Z" class="g7_30"/>
<path d="M773.3,715.4l1.2,.6c0,0,-2.4,.3,-3.4,1c1,-.7,2,-2.9,2,-2.9l.2,1.3ZM527.8,849.5L519,827.2" class="ga_30"/>
<path d="M519,827.2l-.9,.9c0,0,.4,-2.4,-.1,-3.5c.5,1.1,2.3,2.7,2.3,2.7l-1.3,-.1Z" class="g7_30"/>
<path d="M519,827.2l-.9,.9c0,0,.4,-2.4,-.1,-3.5c.5,1.1,2.3,2.7,2.3,2.7l-1.3,-.1ZM657.1,815.9l-7,10.5" class="ga_30"/>
<path d="M650.1,826.4l1.3,.2c0,0,-2.1,1.1,-2.8,2.1c.7,-1,.9,-3.4,.9,-3.4l.6,1.1Z" class="g7_30"/>
<path d="M650.1,826.4l1.3,.2c0,0,-2.1,1.1,-2.8,2.1c.7,-1,.9,-3.4,.9,-3.4l.6,1.1Z" class="ga_30"/>
<image preserveAspectRatio="none" x="51" y="96" width="774" height="37" xlink:href="30/img/1.png"/>
<text x="299" y="164" class="s4_30">±. </text>
<text x="315" y="164" dx="0,0,.2,0,0,0,.3,0,0,.2,0,.2,.1,.2,-.2,0,0,0,-.3,0,0,0,.3,.1,0,0,.3,.2,0,0,0,.3,.1,.1,0,0,0,.2,0,.1,.1,0,0,.3,.4,.1,0,-.1,.2,0,0,.3,.1,0,0,.2,-.1,.2,-.1,0" class="s5_30">Find an equation for the line that passes through the point </text>
<text x="640" y="164" class="sa_30">s</text>
<text x="644" y="164" class="s5_30">2, </text>
<text x="658" y="164" class="s8_30">2</text>
<text x="670" y="164" class="s5_30">5</text>
<text x="676" y="164" class="sa_30">d</text>
<text x="684" y="164" dx="0,.3,0" class="s5_30">and</text>
<text x="315" y="184" dx="0,0,0,0,4.2,0,0,0,.3,0,0,0,0,0" class="s5_30">(a) has slope </text>
<text x="392" y="184" class="s8_30">2</text>
<text x="404" y="184" class="s5_30">3</text>
<text x="315" y="204" dx="0,0,0,0,3.5,0,0,.3,0,0,0,0,0,0,0,0,.3,0,0,.3,0,0,0" class="s5_30">(b) is parallel to the </text>
<text x="431" y="204" class="s6_30">x</text>
<text x="437" y="204" class="s5_30">-axis</text>
<text x="315" y="224" dx="0,0,0,0,4.2,0,0,.3,0,0,0,0,0,0,0,0,.3,0,0,.3,0,0,0" class="s5_30">(c) is parallel to the </text>
<text x="431" y="224" class="s6_30">y</text>
<text x="437" y="224" class="s5_30">-axis</text>
<text x="315" y="244" dx="0,0,0,0,3.5,0,0,.3,0,0,0,0,0,0,0,0,.3,0,0,.3,0,0,0,.3,0,0,0,0,.3" class="s5_30">(d) is parallel to the line 2</text>
<text x="463" y="244" class="s6_30">x</text>
<text x="473" y="244" class="s8_30">2</text>
<text x="488" y="244" class="s5_30">4</text>
<text x="496" y="244" class="s6_30">y</text>
<text x="506" y="244" class="s7_30">-</text>
<text x="522" y="244" class="s5_30">3</text>
<text x="297" y="274" class="s4_30">².</text>
<text x="315" y="274" dx="0,0,0,0,0,.3,0,0,.3,0,0,0,0,0,0,0,0,.3,0,0,0,.3,0,0,0,.3,0,0,0,0,0,0,.3,0,0,0,0,.3,0,0,0,.3,0,0,0,0,0,0" class="s5_30">Find an equation for the circle that has center </text>
<text x="571" y="274" class="sa_30">s</text>
<text x="575" y="274" class="s8_30">2</text>
<text x="587" y="274" class="s5_30">1, 4</text>
<text x="607" y="274" class="sa_30">d</text>
<text x="616" y="274" dx="0,0,0,0,.3,0,0,0,0,0,0,.3,0,0,0,0,0,0,0,.3,0,0,0,.3,0,0,0,0,0" class="s5_30">and passes through the point </text>
<text x="778" y="274" class="sa_30">s</text>
<text x="782" y="274" class="s5_30">3, </text>
<text x="796" y="274" class="s8_30">2</text>
<text x="807" y="274" class="s5_30">2</text>
<text x="814" y="274" class="sa_30">d</text>
<text x="819" y="274" class="s5_30">.</text>
<text x="297" y="305" class="s4_30">³.</text>
<text x="315" y="305" dx="0,0,0,0,0,.3,0,0,0,.3,0,0,0,0,0,0,.3,0,0,0,.3,0,0,0,0,0,0,.3,0,0,.3,0,0,0,.3,0,0,0,0,0,0,.3,0,0,0,0,.3,0,0,0,0,0,0,0,0" class="s5_30">Find the center and radius of the circle with equation </text>
<text x="613" y="305" class="s6_30">x</text>
<text x="621" y="299" class="sb_30">2</text>
<text x="629" y="305" class="s8_30">1</text>
<text x="645" y="305" class="s6_30">y</text>
<text x="652" y="299" class="sb_30">2</text>
<text x="660" y="305" class="s8_30">2</text>
<text x="676" y="305" class="s5_30">6</text>
<text x="684" y="305" class="s6_30">x</text>
<text x="694" y="305" class="s8_30">1</text>
<text x="709" y="305" class="s5_30">10</text>
<text x="724" y="305" class="s6_30">y</text>
<text x="734" y="305" class="s8_30">1</text>
<text x="750" y="305" class="s5_30">9</text>
<text x="761" y="305" class="s7_30">-</text>
<text x="776" y="305" class="s5_30">0.</text>
<text x="297" y="335" class="s4_30">´.</text>
<text x="315" y="335" class="s5_30">Let </text>
<text x="338" y="335" class="s6_30">A</text>
<text x="347" y="335" class="sa_30">s</text>
<text x="351" y="335" class="s8_30">2</text>
<text x="363" y="335" class="s5_30">7, 4</text>
<text x="383" y="335" class="sa_30">d</text>
<text x="392" y="335" class="s5_30">and </text>
<text x="415" y="335" class="s6_30">B</text>
<text x="424" y="335" class="sa_30">s</text>
<text x="428" y="335" class="s5_30">5, </text>
<text x="442" y="335" class="s8_30">2</text>
<text x="453" y="335" class="s5_30">12</text>
<text x="467" y="335" class="sa_30">d</text>
<text x="475" y="335" dx="0,0,0,.3,0,0,0,0,0,0,.3,0,0,.3,0,0,0,.3,0,0,0,0,0" class="s5_30">be points in the plane.</text>
<text x="315" y="355" class="s5_30">(a) </text>
<text x="338" y="355" dx="0,0,0,0,0,.3,0,0,0,.3,0,0,0,0,0,.3,0,0,.3,0,0,0,.3,0,0,0,0,.3,0,0,0,0,.3,0,0,0,0,0,0,0,0" class="s5_30">Find the slope of the line that contains </text>
<text x="555" y="355" class="s6_30">A</text>
<text x="567" y="355" class="s5_30">and </text>
<text x="591" y="355" class="s6_30">B</text>
<text x="599" y="355" class="s5_30">.</text>
<text x="315" y="375" class="s5_30">(b) </text>
<text x="338" y="375" dx="0,0,0,0,0,.3,0,0,.3,0,0,0,0,0,0,0,0,.3,0,0,.3,0,0,0,.3,0,0,0,0,.3,0,0,0,0,.3,0,0,0,0,0,0,.3,0,0,0,0,0,0,0" class="s5_30">Find an equation of the line that passes through </text>
<text x="605" y="375" class="s6_30">A</text>
<text x="617" y="375" class="s5_30">and </text>
<text x="641" y="375" class="s6_30">B</text>
<text x="650" y="375" dx="0,0,.3,0,0,0,0,.3,0,0,0,.3,0,0,0,.3,0,0,0,0,0,0,0,0,0,0" class="s5_30">. What are the intercepts?</text>
<text x="315" y="395" dx="0,0,0,0,4.2,0,0,0,0,.3,0,0,0,.3,0,0,0,0,0,0,0,0,.3,0,0,.3,0,0,0,.3,0,0,0,0,0,0,0" class="s5_30">(c) Find the midpoint of the segment </text>
<text x="527" y="395" class="s6_30">AB</text>
<text x="544" y="395" class="s5_30">.</text>
<text x="315" y="415" dx="0,0,0,0,3.5,0,0,0,0,.3,0,0,0,.3,0,0,0,0,0,0,.3,0,0,.3,0,0,0,.3,0,0,0,0,0,0,0" class="s5_30">(d) Find the length of the segment </text>
<text x="511" y="415" class="s6_30">AB</text>
<text x="528" y="415" class="s5_30">.</text>
<text x="315" y="435" dx="0,0,0,0,4.2,0,0,0,0,.3,0,0,.3,0,0,0,0,0,0,0,0,.3,0,0,.3,0,0,0,.3,0,0,0,0,0,0,0,0,0,0,0,0,0,.3,0,0,0,0,0,0,0,0,.3,0,0" class="s5_30">(e) Find an equation of the perpendicular bisector of </text>
<text x="613" y="435" class="s6_30">AB</text>
<text x="630" y="435" class="s5_30">.</text>
<text x="315" y="455" dx="0,0,1.1,0,4.6,0,0,0,0,.3,0,0,.3,0,0,0,0,0,0,0,0,.3,0,0,.3,0,0,0,.3,0,0,0,0,0,0,.3,0,0,0,.3,0,0,0,0,0" class="s5_30">(f) Find an equation of the circle for which </text>
<text x="562" y="455" class="s6_30">AB</text>
<text x="583" y="455" dx="0,0,0,.3,0,.3,0,0,0,0,0,0,0,0" class="s5_30">is a diameter.</text>
<text x="297" y="485" class="s4_30">µ.</text>
<text x="315" y="485" dx="0,0,0,0,0,0,0,.3,0,0,0,.3,0,0,0,0,0,0,.3,0,0,.3,0,0,0" class="s5_30">Sketch the region in the </text>
<text x="452" y="485" dx="0,.7" class="s6_30">xy</text>
<text x="464" y="485" dx="0,0,0,0,0,0,0,.3,0,0,0,0,0,0,.3,0,0,.3,0,0,0,.3,0,0,0,0,0,0,0,0,.3,0,0,.3,0,0,0,0,0,0,0,0,0,0,0,0" class="s5_30">-plane de±ned by the equation or inequalities.</text>
<text x="315" y="510" class="s5_30">(a) </text>
<text x="338" y="510" class="s8_30">2</text>
<text x="349" y="510" class="s5_30">1</text>
<text x="360" y="510" class="s8_30">&lt;</text>
<text x="376" y="510" class="s6_30">y</text>
<text x="386" y="510" class="s8_30">&lt;</text>
<text x="401" y="510" class="s5_30">3 </text>
<text x="512" y="510" class="s5_30">(b) </text>
<text transform="matrix(0.63,0,0,1,536,513)" class="sh_30">|</text>
<text x="542" y="510" class="s6_30">x</text>
<text transform="matrix(0.63,0,0,1,551,513)" class="sh_30">|</text>
<text x="559" y="510" class="s8_30">,</text>
<text x="574" y="510" class="s5_30">4 and </text>
<text transform="matrix(0.63,0,0,1,608,513)" class="sh_30">|</text>
<text x="614" y="510" class="s6_30">y</text>
<text transform="matrix(0.63,0,0,1,622,513)" class="sh_30">|</text>
<text x="630" y="510" class="s8_30">,</text>
<text x="646" y="510" class="s5_30">2</text>
<text x="315" y="534" class="s5_30">(c) </text>
<text x="338" y="534" class="s6_30">y</text>
<text x="348" y="534" class="s8_30">,</text>
<text x="364" y="534" class="s5_30">1</text>
<text x="375" y="534" class="s8_30">2</text>
<text x="390" y="528" class="s9_30">1</text>
<path d="M391,529.9h4.8" class="g1_30"/>
<text x="390" y="538" class="s9_30">2</text>
<text x="397" y="534" class="s6_30">x</text>
<text x="512" y="534" class="s5_30">(d) </text>
<text x="537" y="534" class="s6_30">y</text>
<text x="547" y="534" class="s8_30">&gt;</text>
<text x="562" y="534" class="s6_30">x</text>
<text x="570" y="529" class="sb_30">2</text>
<text x="578" y="534" class="s8_30">2</text>
<text x="594" y="534" class="s5_30">1</text>
<text x="315" y="558" class="s5_30">(e) </text>
<text x="338" y="558" class="s6_30">x</text>
<text x="346" y="553" class="sb_30">2</text>
<text x="354" y="558" class="s8_30">1</text>
<text x="369" y="558" class="s6_30">y</text>
<text x="377" y="553" class="sb_30">2</text>
<text x="385" y="558" class="s8_30">,</text>
<text x="401" y="558" class="s5_30">4 </text>
<text x="514" y="558" dx="0,0,1.1,0,4.2" class="s5_30">(f) 9</text>
<text x="543" y="558" class="s6_30">x</text>
<text x="551" y="553" class="sb_30">2</text>
<text x="559" y="558" class="s8_30">1</text>
<text x="574" y="558" class="s5_30">16</text>
<text x="588" y="558" class="s6_30">y</text>
<text x="596" y="553" class="sb_30">2</text>
<text x="604" y="558" class="s7_30">-</text>
<text x="619" y="558" class="s5_30">144</text>
<text x="232" y="948" dx="0,.3,0,0,-.5,0,0,0,0,.1,0,0,.2,.2,.2,-.2,-.1,.2,-.3,.3,0,0,.1,-.3,.3,0,0,.3,0,0,0,0,0,0,0,-.1,-.2,-.2,-.1,.2,0,0,0,-.5,0,0,0,.1,-.3,0,0,.1,0,-.1,0,0,0,0,0,0,-.1,0,-.1,.2,-.3,0" class="si_30">If you had dif±culty with these problems, you may wish to consult </text>
<text x="232" y="966" dx="0,.3,0,0,0,.1,-.3,.1,-.2,-.3,0,0,-.2,0,0,.3,0,.3,-.3,.3,.2,-.2,0,0,-.2,.1,-.1,0,0,.3,.4,0,0,.2,0,0,-.1,0,.2,0,-.1,.2,.2,-.3,0,0,0,0,0,.3,-.1,0,0,0" class="si_30">the review of analytic geometry in Appendixes B and C.</text>
<path d="M224.2,926.3c0,0,-3.1,0,-3.1,3.1v53.2c0,0,0,3.1,3.1,3.1H671.9c0,0,3.1,0,3.1,-3.1V929.4c0,0,0,-3.1,-3.1,-3.1H224.2Z" class="gb_30"/>
<text x="121" y="1076" class="sj_30">Copyright 2016 Cengage Learning. All Rights Reserved. May not be copied, scanned, or duplicated, in whole or in part. Due to electronic rights, some third party content may be suppressed from the eBook and/or eChapter(s).</text>
<text x="106" y="1087" class="sj_30">Editorial review has deemed that any suppressed content does not materially affect the overall learning experience. Cengage Learning reserves the right to remove additional content at any time if subsequent rights restrictions require it.</text>

</g>

<!-- Any embedded fonts defined here -->
<style type="text/css" ><![CDATA[

@font-face {
	font-family: MathematicalPiLTStd-1_rr;
	src: url("fonts/MathematicalPiLTStd-1_rr.woff") format("woff");
}

@font-face {
	font-family: MathematicalPiLTStd-3_ry;
	src: url("fonts/MathematicalPiLTStd-3_ry.woff") format("woff");
}

@font-face {
	font-family: MathematicalPiLTStd-5_vb;
	src: url("fonts/MathematicalPiLTStd-5_vb.woff") format("woff");
}

@font-face {
	font-family: MyriadPro-BoldSemiCn_90;
	src: url("fonts/MyriadPro-BoldSemiCn_90.woff") format("woff");
}

@font-face {
	font-family: MyriadPro-Regular_4i;
	src: url("fonts/MyriadPro-Regular_4i.woff") format("woff");
}

@font-face {
	font-family: MyriadPro-SemiboldSemiCn_4e;
	src: url("fonts/MyriadPro-SemiboldSemiCn_4e.woff") format("woff");
}

@font-face {
	font-family: MyriadPro-Semibold_49;
	src: url("fonts/MyriadPro-Semibold_49.woff") format("woff");
}

@font-face {
	font-family: TECHMath-Mix_vz;
	src: url("fonts/TECHMath-Mix_vz.woff") format("woff");
}

@font-face {
	font-family: Times-Roman_4n;
	src: url("fonts/Times-Roman_4n.woff") format("woff");
}

@font-face {
	font-family: Times-Roman_n6;
	src: url("fonts/Times-Roman_n6.woff") format("woff");
}

@font-face {
	font-family: TimesLTStd-Italic_o3;
	src: url("fonts/TimesLTStd-Italic_o3.woff") format("woff");
}

@font-face {
	font-family: TimesLTStd-Roman_6c;
	src: url("fonts/TimesLTStd-Roman_6c.woff") format("woff");
}

]]></style>

</svg>
