<?xml version="1.0" encoding="UTF-8" standalone="no"?>
<!DOCTYPE svg PUBLIC "-//W3C//DTD SVG 1.1//EN"
"http://www.w3.org/Graphics/SVG/1.1/DTD/svg11.dtd">


<!-- Page 31 -->
<svg x="0" y="0" width="931" height="1096" viewBox="0 0 931 1096" version="1.1" xmlns="http://www.w3.org/2000/svg" xmlns:xlink="http://www.w3.org/1999/xlink"
style="display: block;margin-left: auto;margin-right: auto;">
<defs>
<clipPath id="c_31"><path d="M0,0H931V1096H0Z"/></clipPath>
<clipPath id="c0_31"><path d="M626.6,290V260.2h96.6V290Z"/></clipPath>
<clipPath id="c1_31"><path d="M393.2,349.7V321H505.1v28.7Z"/></clipPath>
<clipPath id="c2_31"><path d="M575.8,349.7V317.1h84.9v32.6Z"/></clipPath>
<clipPath id="c3_31"><path d="M721.7,342.5V326.8H877.3v15.7Z"/></clipPath>
<clipPath id="c4_31"><path d="M552.1,468V452h46.6v16Z"/></clipPath>
<clipPath id="c5_31"><path d="M721.7,468V452h54.9v16Z"/></clipPath>

<style type="text/css"><![CDATA[
text { white-space: pre; }
path, image { pointer-events: none; }

.s1_31{
font-size: 12.22px;
font-family: MyriadPro-Regular_4i;
fill: #231F20;
}
.s2_31{
font-size: 15.28px;
font-family: MyriadPro-SemiboldSemiCn_4e;
fill: #231F20;
}
.s3_31{
font-size: 13.75px;
font-family: MyriadPro-BoldSemiCn_90;
fill: #231F20;
}
.s4_31{
font-size: 13.75px;
font-family: TimesLTStd-Roman_6c;
fill: #231F20;
}
.s5_31{
font-size: 13.75px;
font-family: TimesLTStd-Italic_o3;
fill: #231F20;
}
.s6_31{
font-size: 13.75px;
font-family: MathematicalPiLTStd-3_ry;
fill: #231F20;
}
.s7_31{
font-size: 13.75px;
font-family: MathematicalPiLTStd-1_rr;
fill: #231F20;
}
.s8_31{
font-size: 13.75px;
font-family: MathematicalPiLTStd-5_vb;
fill: #231F20;
}
.s9_31{
font-size: 8.25px;
font-family: TimesLTStd-Roman_6c;
fill: #231F20;
}
.sa_31{
font-size: 13.75px;
font-family: BeaconDingbatsTypeOne_od;
fill: #231F20;
}
.sb_31{
font-size: 6.88px;
font-family: TimesLTStd-Roman_6c;
fill: #231F20;
}
.sc_31{
font-size: 8.25px;
font-family: TimesLTStd-Italic_o3;
fill: #231F20;
}
.sd_31{
font-size: 8.25px;
font-family: MathematicalPiLTStd-1_rr;
fill: #231F20;
}
.se_31{
font-size: 42.63px;
font-family: MathematicalPiLTStd-3_ry;
fill: #231F20;
}
.sf_31{
font-size: 12.22px;
font-family: TECHMath-Mix_vz;
fill: #231F20;
}
.sg_31{
font-size: 12.22px;
font-family: TECHMath-Mix_wh;
fill: #231F20;
}
.sh_31{
font-size: 14.51px;
font-family: MyriadPro-Bold_74;
fill: #231F20;
}
.si_31{
font-size: 15.28px;
font-family: MyriadPro-Bold_74;
fill: #231F20;
}
.sj_31{
font-size: 15.28px;
font-family: MyriadPro-SemiboldSemiCn_4e;
fill: #00AEEF;
}
.sk_31{
font-size: 13.75px;
font-family: MathematicalPiLTStd-4_v8;
fill: #231F20;
}
.sl_31{
font-size: 9.61px;
font-family: TECHMath-Mix_wh;
fill: #231F20;
}
.sm_31{
font-size: 9.61px;
font-family: TECHMath-Mix_vz;
fill: #231F20;
}
.sn_31{
font-size: 9.61px;
font-family: Times-Roman_n6;
fill: #231F20;
}
.so_31{
font-size: 12.20px;
font-family: Times-Roman_n6;
fill: #231F20;
}
.sp_31{
font-size: 9.61px;
font-family: TECHMath-Mix_wl;
fill: #231F20;
}
.sq_31{
font-size: 7.64px;
font-family: Times-Roman_4n;
fill: #000000;
}

.g0_31{
fill: none;
stroke: #231F20;
stroke-width: 0.687;
stroke-linecap: butt;
stroke-linejoin: miter;
}
.g1_31{
fill: none;
stroke: #EC008C;
stroke-width: 1.069;
stroke-linecap: butt;
stroke-linejoin: round;
stroke-miterlimit: 3;
}
.g2_31{
fill: none;
stroke: #231F20;
stroke-width: 0.611;
stroke-linecap: butt;
stroke-linejoin: miter;
stroke-miterlimit: 3;
}
.g3_31{
fill: #231F20;
}
.g4_31{
fill: none;
stroke: #231F20;
stroke-width: 0.381;
stroke-linecap: butt;
stroke-linejoin: miter;
stroke-miterlimit: 3;
}
.g5_31{
fill: #FFFFFF;
}
.g6_31{
fill: none;
stroke: #FFFFFF;
stroke-width: 1.527;
stroke-linecap: butt;
stroke-linejoin: miter;
stroke-miterlimit: 4;
}
.g7_31{
fill: none;
stroke: #00AEEF;
stroke-width: 0.763;
stroke-linecap: butt;
stroke-linejoin: miter;
}
.g8_31{
fill: none;
stroke: #231F20;
stroke-width: 0.533;
stroke-linecap: round;
stroke-linejoin: round;
stroke-miterlimit: 4;
}
.g9_31{
fill: none;
stroke: #231F20;
stroke-width: 0.991;
stroke-linecap: round;
stroke-linejoin: round;
stroke-miterlimit: 4;
}
.ga_31{
fill: none;
stroke: #231F20;
stroke-width: 0.533;
stroke-linecap: round;
stroke-linejoin: round;
stroke-miterlimit: 4;
stroke-dasharray: 7,4;
}
.gb_31{
fill: none;
stroke: #231F20;
stroke-width: 0.991;
stroke-linecap: square;
stroke-linejoin: miter;
}

]]></style>

</defs>
<g clip-path="url(#c_31)">
<path d="M0,0
L0,1096
L931,1096
L931,0 Z " 
fill="#FFFFFF" stroke="none"/>
<text x="735" y="64" dx="0,.1,.1,.1,0,.1,.1,.1,.1,.1,.1,-.4,-.7,.1,.1,.1,.1" class="s1_31">Diagnostic Tests </text>
<text x="854" y="64" class="s2_31">xxix</text>
<image preserveAspectRatio="none" x="106" y="96" width="774" height="37" xlink:href="31/img/1.png"/>
<text x="354" y="164" class="s3_31">±. </text>
<text x="371" y="164" dx="0,.4,.1,0,0,.3,.1,0,0,0,0,-.1,0,0,0,0,.3,.2,0,0,.2,-.2,0,0" class="s4_31">The graph of a function </text>
<text x="507" y="164" class="s5_31">f</text>
<text x="516" y="164" dx="0,0,0,0,.2,-.2,-.3,0,0,0,.1,0,0,.3,.1,0,0,-.1,-.1,.3,.1" class="s4_31">is given at the left.</text>
<text x="370" y="181" dx="0,0,0,0,4.2,0,0,0,0,0,.3,0,0,0,.3,0,0,0,0,0,.3,0,0" class="s4_31">(a) State the value of </text>
<text x="495" y="181" class="s5_31">f</text>
<text x="501" y="181" class="s6_31">s</text>
<text x="506" y="181" class="s7_31">2</text>
<text x="517" y="181" class="s4_31">1</text>
<text x="524" y="181" class="s6_31">d</text>
<text x="529" y="181" class="s4_31">.</text>
<text x="370" y="198" dx="0,0,0,0,3.5,0,0,0,0,0,0,0,0,.3,0,0,0,.3,0,0,0,0,0,.3,0,0" class="s4_31">(b) Estimate the value of </text>
<text x="516" y="198" class="s5_31">f</text>
<text x="522" y="198" class="s6_31">s</text>
<text x="527" y="198" class="s4_31">2</text>
<text x="533" y="198" class="s6_31">d</text>
<text x="538" y="198" class="s4_31">.</text>
<text x="370" y="215" dx="0,0,0,0,4.2,0,0,0,.3,0,0,0,0,.3,0,0,0,0,0,0,.3,0,0" class="s4_31">(c) For what values of </text>
<text x="501" y="215" class="s5_31">x</text>
<text x="510" y="215" class="s4_31">is </text>
<text x="525" y="215" class="s5_31">f</text>
<text x="531" y="215" class="s6_31">s</text>
<text x="537" y="215" class="s5_31">x</text>
<text x="543" y="215" class="s6_31">d</text>
<text x="552" y="215" class="s8_31">-</text>
<text x="567" y="215" class="s4_31">2?</text>
<text x="370" y="232" dx="0,0,0,0,3.5,0,0,0,0,0,0,0,0,.3,0,0,0,.3,0,0,0,0,0,0,.3,0,0" class="s4_31">(d) Estimate the values of </text>
<text x="520" y="232" class="s5_31">x</text>
<text x="530" y="232" dx="0,0,0,0,0,.3,0,0,0,0" class="s4_31">such that </text>
<text x="585" y="232" class="s5_31">f</text>
<text x="591" y="232" class="s6_31">s</text>
<text x="596" y="232" class="s5_31">x</text>
<text x="602" y="232" class="s6_31">d</text>
<text x="611" y="232" class="s8_31">-</text>
<text x="627" y="232" class="s4_31">0.</text>
<text x="370" y="248" dx="0,0,0,0,4.2,0,0,0,0,0,.3,0,0,0,.3,0,0,0,0,0,0,.3,0,0,0,.3,0,0,0,0,0,.3,0,0" class="s4_31">(e) State the domain and range of </text>
<text x="565" y="248" class="s5_31">f</text>
<text x="569" y="248" class="s4_31">.</text>
<text x="352" y="280" class="s3_31">².</text>
<text x="371" y="280" class="s4_31">If </text>
<text x="385" y="280" class="s5_31">f</text>
<text x="392" y="280" class="s6_31">s</text>
<text x="397" y="280" class="s5_31">x</text>
<text x="403" y="280" class="s6_31">d</text>
<text x="412" y="280" class="s8_31">-</text>
<text x="427" y="280" class="s5_31">x</text>
<text x="435" y="274" class="s9_31">3</text>
<text x="439" y="280" dx="0,0,.3,0,0,0,0,0,0,0,0,.3,0,0,0,.3,0,0,0,0,0,0,0,0,0,0,.3,0,0,0,0,0,0,0,0" class="s4_31">, evaluate the difference quotient </text>
<text x="630" y="270" class="s5_31">f</text>
<text x="636" y="270" class="s6_31">s</text>
<text x="641" y="270" class="s4_31">2</text>
<text x="652" y="270" class="s7_31">1</text>
<text x="667" y="270" class="s5_31">h</text>
<text x="674" y="270" class="s6_31">d</text>
<text x="683" y="270" class="s7_31">2</text>
<text x="698" y="270" class="s5_31">f</text>
<text x="705" y="270" class="s6_31">s</text>
<text x="709" y="270" class="s4_31">2</text>
<text x="716" y="270" class="s6_31">d</text>
<g clip-path="url(#c0_31)">
<path d="M628.9,275.8h94.6" class="g0_31"/>
</g>
<text x="672" y="289" class="s5_31">h</text>
<text x="726" y="280" dx="0,0,0,0,.3,0,0,0,0,0,0,0,0,.3,0,0,0,0,.3,0,0,0,0,0,0" class="s4_31">and simplify your answer.</text>
<text x="352" y="309" class="s3_31">³.</text>
<text x="371" y="309" dx="0,0,0,0,0,.3,0,0,0,.3,0,0,0,0,0,0,.3,0,0,.3,0,0,0,.3,0,0,0,0,0,0,0,0" class="s4_31">Find the domain of the function.</text>
<text x="370" y="339" class="s4_31">(a) </text>
<text x="395" y="339" class="s5_31">f</text>
<text x="401" y="339" class="s6_31">s</text>
<text x="406" y="339" class="s5_31">x</text>
<text x="412" y="339" class="s6_31">d</text>
<text x="421" y="339" class="s8_31">-</text>
<text x="450" y="330" class="s4_31">2</text>
<text x="458" y="330" class="s5_31">x</text>
<text x="468" y="330" class="s7_31">1</text>
<text x="484" y="330" class="s4_31">1</text>
<g clip-path="url(#c1_31)">
<path d="M437.3,335.4h68.1" class="g0_31"/>
</g>
<text x="439" y="349" class="s5_31">x</text>
<text x="446" y="343" class="s9_31">2</text>
<text x="454" y="349" class="s7_31">1</text>
<text x="470" y="349" class="s5_31">x</text>
<text x="480" y="349" class="s7_31">2</text>
<text x="496" y="349" class="s4_31">2</text>
<text x="552" y="339" class="s4_31">(b) </text>
<text x="575" y="339" class="sa_31">t</text>
<text x="582" y="339" class="s6_31">s</text>
<text x="587" y="339" class="s5_31">x</text>
<text x="594" y="339" class="s6_31">d</text>
<text x="602" y="339" class="s8_31">-</text>
<text x="630" y="330" class="sa_31">s</text>
<text x="632" y="324" class="sb_31">3</text>
<text x="640" y="330" class="s5_31">x</text>
<g clip-path="url(#c2_31)">
<path d="M640.8,317.5H649m-30.3,17.9H661" class="g0_31"/>
</g>
<text x="620" y="349" class="s5_31">x</text>
<text x="627" y="343" class="s9_31">2</text>
<text x="636" y="349" class="s7_31">1</text>
<text x="651" y="349" class="s4_31">1</text>
<text x="698" y="339" class="s4_31">(c) </text>
<text x="721" y="339" class="s5_31">h</text>
<text x="728" y="339" class="s6_31">s</text>
<text x="733" y="339" class="s5_31">x</text>
<text x="739" y="339" class="s6_31">d</text>
<text x="748" y="339" class="s8_31">-</text>
<text x="764" y="340" class="sa_31">s</text>
<text x="774" y="339" class="s4_31">4</text>
<text x="785" y="339" class="s7_31">2</text>
<text x="801" y="339" class="s5_31">x</text>
<path d="M774.7,327.1h34.8" class="g0_31"/>
<text x="813" y="339" class="s7_31">1</text>
<text x="828" y="340" class="sa_31">s</text>
<text x="839" y="339" class="s5_31">x</text>
<text x="846" y="335" class="s9_31">2</text>
<text x="854" y="339" class="s7_31">2</text>
<text x="870" y="339" class="s4_31">1</text>
<g clip-path="url(#c3_31)">
<path d="M839.3,327.1h38.4" class="g0_31"/>
</g>
<text x="352" y="376" class="s3_31">´.</text>
<text x="371" y="376" dx="0,0,0,0,.3,0,0,0,.3,0,0,0,0,0,0,.3,0,0,.3,0,0,0,.3,0,0,0,0,0,0,0,0,0,.3,0,0,0,0,0,0,0,0,.3,0,0,0,0,.3,0,0,0,.3,0,0,0,0,0,.3,0,0" class="s4_31">How are graphs of the functions obtained from the graph of </text>
<text x="707" y="376" class="s5_31">f</text>
<text x="714" y="376" class="s4_31">?</text>
<text x="370" y="396" class="s4_31">(a) </text>
<text x="393" y="396" class="s5_31">y</text>
<text x="403" y="396" class="s8_31">-</text>
<text x="419" y="396" class="s7_31">2</text>
<text x="430" y="396" class="s5_31">f</text>
<text x="436" y="396" class="s6_31">s</text>
<text x="442" y="396" class="s5_31">x</text>
<text x="448" y="396" class="s6_31">d</text>
<text x="529" y="396" class="s4_31">(b) </text>
<text x="552" y="396" class="s5_31">y</text>
<text x="562" y="396" class="s8_31">-</text>
<text x="578" y="396" class="s4_31">2</text>
<text x="587" y="396" class="s5_31">f</text>
<text x="593" y="396" class="s6_31">s</text>
<text x="598" y="396" class="s5_31">x</text>
<text x="604" y="396" class="s6_31">d</text>
<text x="613" y="396" class="s7_31">2</text>
<text x="629" y="396" class="s4_31">1 </text>
<text x="698" y="396" class="s4_31">(c) </text>
<text x="722" y="396" class="s5_31">y</text>
<text x="732" y="396" class="s8_31">-</text>
<text x="747" y="396" class="s5_31">f</text>
<text x="753" y="396" class="s6_31">s</text>
<text x="759" y="396" class="s5_31">x</text>
<text x="769" y="396" class="s7_31">2</text>
<text x="785" y="396" class="s4_31">3</text>
<text x="791" y="396" class="s6_31">d</text>
<text x="800" y="396" class="s7_31">1</text>
<text x="816" y="396" class="s4_31">2</text>
<text x="352" y="425" class="s3_31">µ.</text>
<text x="371" y="425" dx="0,0,0,0,0,0,0,0,.3,0,0,0,0,0,.3,0,.3,0,0,0,0,0,0,0,0,0,0,0,.3,0,0,0,0,.3,0,.3,0,0,0,0,0,.3,0,0,0,0,0,0,.3,0,0,.3,0,0,0,.3,0,0,0,0,0" class="s4_31">Without using a calculator, make a rough sketch of the graph.</text>
<text x="370" y="445" class="s4_31">(a) </text>
<text x="393" y="445" class="s5_31">y</text>
<text x="403" y="445" class="s8_31">-</text>
<text x="419" y="445" class="s5_31">x</text>
<text x="426" y="439" class="s9_31">3</text>
<text x="529" y="445" class="s4_31">(b) </text>
<text x="552" y="445" class="s5_31">y</text>
<text x="562" y="445" class="s8_31">-</text>
<text x="578" y="445" class="s6_31">s</text>
<text x="583" y="445" class="s5_31">x</text>
<text x="593" y="445" class="s7_31">1</text>
<text x="609" y="445" class="s4_31">1</text>
<text x="616" y="445" class="s6_31">d</text>
<text x="620" y="439" class="s9_31">3</text>
<text x="698" y="445" class="s4_31">(c) </text>
<text x="722" y="445" class="s5_31">y</text>
<text x="732" y="445" class="s8_31">-</text>
<text x="747" y="445" class="s6_31">s</text>
<text x="753" y="445" class="s5_31">x</text>
<text x="763" y="445" class="s7_31">2</text>
<text x="778" y="445" class="s4_31">2</text>
<text x="785" y="445" class="s6_31">d</text>
<text x="790" y="439" class="s9_31">3</text>
<text x="798" y="445" class="s7_31">1</text>
<text x="814" y="445" class="s4_31">3</text>
<text x="370" y="465" class="s4_31">(d) </text>
<text x="393" y="465" class="s5_31">y</text>
<text x="403" y="465" class="s8_31">-</text>
<text x="419" y="465" class="s4_31">4</text>
<text x="430" y="465" class="s7_31">2</text>
<text x="445" y="465" class="s5_31">x</text>
<text x="453" y="459" class="s9_31">2</text>
<text x="529" y="465" class="s4_31">(e) </text>
<text x="552" y="465" class="s5_31">y</text>
<text x="562" y="465" class="s8_31">-</text>
<text x="578" y="465" class="sa_31">s</text>
<text x="588" y="465" class="s5_31">x</text>
<g clip-path="url(#c4_31)">
<path d="M588.7,452.4H599" class="g0_31"/>
</g>
<text x="699" y="465" dx="0,0,1.1,0" class="s4_31">(f) </text>
<text x="722" y="465" class="s5_31">y</text>
<text x="732" y="465" class="s8_31">-</text>
<text x="747" y="465" class="s4_31">2</text>
<text x="756" y="465" class="sa_31">s</text>
<text x="766" y="465" class="s5_31">x</text>
<g clip-path="url(#c5_31)">
<path d="M766.7,452.4H777" class="g0_31"/>
</g>
<text x="370" y="485" class="s4_31">(g) </text>
<text x="393" y="485" class="s5_31">y</text>
<text x="403" y="485" class="s8_31">-</text>
<text x="419" y="485" class="s7_31">2</text>
<text x="430" y="485" class="s4_31">2</text>
<text x="438" y="479" class="sc_31">x</text>
<text x="529" y="485" class="s4_31">(h) </text>
<text x="552" y="485" class="s5_31">y</text>
<text x="562" y="485" class="s8_31">-</text>
<text x="578" y="485" class="s4_31">1</text>
<text x="589" y="485" class="s7_31">1</text>
<text x="604" y="485" class="s5_31">x</text>
<text x="610" y="479" class="sd_31">2</text>
<text x="617" y="479" class="s9_31">1</text>
<text x="352" y="525" class="s3_31">¶.</text>
<text x="371" y="525" class="s4_31">Let </text>
<text x="395" y="525" class="s5_31">f</text>
<text x="401" y="525" class="s6_31">s</text>
<text x="406" y="525" class="s5_31">x</text>
<text x="412" y="525" class="s6_31">d</text>
<text x="421" y="525" class="s8_31">-</text>
<text x="436" y="527" class="se_31">H</text>
<text x="446" y="515" class="s4_31">1</text>
<text x="457" y="515" class="s7_31">2</text>
<text x="472" y="515" class="s5_31">x</text>
<text x="480" y="510" class="s9_31">2</text>
<text x="446" y="534" class="s4_31">2</text>
<text x="454" y="534" class="s5_31">x</text>
<text x="464" y="534" class="s7_31">1</text>
<text x="479" y="534" class="s4_31">1</text>
<text x="500" y="515" class="s4_31">if</text>
<text x="515" y="515" class="s5_31">x</text>
<text x="525" y="515" class="s7_31">&lt;</text>
<text x="541" y="515" class="s4_31">0</text>
<text x="500" y="534" class="s4_31">if</text>
<text x="515" y="534" class="s5_31">x</text>
<text x="525" y="534" class="s7_31">.</text>
<text x="541" y="534" class="s4_31">0</text>
<text x="370" y="555" dx="0,0,0,0,4.2,0,0,0,0,0,0,0,0" class="s4_31">(a) Evaluate </text>
<text x="447" y="555" class="s5_31">f</text>
<text x="453" y="555" class="s6_31">s</text>
<text x="457" y="555" class="s7_31">2</text>
<text x="469" y="555" class="s4_31">2</text>
<text x="476" y="555" class="s6_31">d</text>
<text x="484" y="555" class="s4_31">and </text>
<text x="510" y="555" class="s5_31">f</text>
<text x="516" y="555" class="s6_31">s</text>
<text x="520" y="555" class="s4_31">1</text>
<text x="527" y="555" class="s6_31">d</text>
<text x="532" y="555" class="s4_31">. </text>
<text x="588" y="555" dx="0,0,0,0,5,0,0,0,0,0,0,.3,0,0,0,.3,0,0,0,0,0,.3,0,0" class="s4_31">(b) Sketch the graph of </text>
<text x="726" y="555" class="s5_31">f</text>
<text x="731" y="555" class="s4_31">.</text>
<text x="353" y="587" class="s3_31">·.</text>
<text x="371" y="587" class="s4_31">If </text>
<text x="385" y="587" class="s5_31">f</text>
<text x="392" y="587" class="s6_31">s</text>
<text x="397" y="587" class="s5_31">x</text>
<text x="403" y="587" class="s6_31">d</text>
<text x="412" y="587" class="s8_31">-</text>
<text x="427" y="587" class="s5_31">x</text>
<text x="435" y="582" class="s9_31">2</text>
<text x="443" y="587" class="s7_31">1</text>
<text x="459" y="587" class="s4_31">2</text>
<text x="466" y="587" class="s5_31">x</text>
<text x="476" y="587" class="s7_31">2</text>
<text x="492" y="587" dx="0,0,.3,0,0,0" class="s4_31">1 and </text>
<text x="526" y="587" class="sa_31">t</text>
<text x="533" y="587" class="s6_31">s</text>
<text x="538" y="587" class="s5_31">x</text>
<text x="545" y="587" class="s6_31">d</text>
<text x="553" y="587" class="s8_31">-</text>
<text x="569" y="587" class="s4_31">2</text>
<text x="576" y="587" class="s5_31">x</text>
<text x="587" y="587" class="s7_31">2</text>
<text x="602" y="587" dx="0,0,0,.3,0,0,0,.3,0,0,0,0,.3,0,0,.3,0,0,0,.3,0,0,0,0,0,0,0,0,0,.3,0,0,0,0,0,0,0,0,0" class="s4_31">3, ±nd each of the following functions.</text>
<text x="370" y="604" class="s4_31">(a) </text>
<text x="395" y="604" class="s5_31">f</text>
<text x="403" y="608" class="s7_31">8</text>
<text x="411" y="604" class="sa_31">t</text>
<text x="552" y="604" class="s4_31">(b) </text>
<text x="575" y="604" class="sa_31">t</text>
<text x="585" y="608" class="s7_31">8</text>
<text x="594" y="604" class="s5_31">f</text>
<text x="698" y="604" class="s4_31">(c) </text>
<text x="721" y="604" class="sa_31">t</text>
<text x="731" y="608" class="s7_31">8</text>
<text x="740" y="604" class="sa_31">t</text>
<text x="750" y="608" class="s7_31">8</text>
<text x="759" y="604" class="sa_31">t</text>
<path d="M128,193c1.6,15.2,15.4,73.3,36.7,73.3c21.4,0,28.1,-60.7,36.6,-73.3c5,-7.4,14.3,-18.4,36.8,-18.4" class="g1_31"/>
<text x="172" y="162" class="sf_31">y</text>
<text x="173" y="241" class="sg_31">0</text>
<text x="249" y="241" class="sg_31">x</text>
<path d="M109.7,229.6H251.4" class="g2_31"/>
<path fill-rule="evenodd" d="M251.4,229.6l-1.7,-2.4l6.6,2.4l-6.6,2.5Z" class="g3_31"/>
<path d="M183,284.6V161.3" class="g2_31"/>
<path fill-rule="evenodd" d="M183,161.3l-2.4,1.6l2.4,-6.5l2.4,6.5Z" class="g3_31"/>
<path d="M128,284.6V156.3m-18.3,110H256.3M109.7,174.6H256.3M109.7,193H256.3M109.7,211.3H256.3M238,284.6V156.3M219.7,284.6V156.3M201.3,284.6V156.3M164.7,284.6V156.3M146.3,284.6V156.3M109.7,248H256.3M109.7,156.3H256.3V284.6H109.7Z" class="g4_31"/>
<path d="M171.6,218.5h9.2V204.8h-9.2v13.7Z" class="g5_31"/>
<text x="173" y="216" class="sg_31">1</text>
<path d="M194.7,245.7h13.7V231.9H194.7v13.8Z" class="g5_31"/>
<text x="199" y="242" class="sg_31">1</text>
<path d="M260.7,156.7V285" class="g6_31"/>
<text x="109" y="313" dx="0,.3,.3,.3,.3,.3,.1,.1,.3,.3,.1,.1,.3,.2,.3,.3,.3,.3,.1" class="sh_31">FIGURE FOR PROBLEM </text>
<text x="260" y="313" class="si_31">1</text>
<path d="M108.9,682.9h770" class="g7_31"/>
<text x="109" y="671" dx="0,.9,.9,.9,.9,.9,.9,.8,.2,.5,.8,.8,.9,.9,.6,.9,.9,.9,.9,.9,.9,.8,.2,.9,.9,.9,.8,.8,.8,.6,.8,.9,.9,.9,1.2,.9,.9,.9,.9" class="sj_31">ANSWERS TO DIAGNOSTIC TEST C: FUNCTIONS</text>
<text x="120" y="710" class="s3_31">±. </text>
<text x="133" y="710" class="s4_31">(a) </text>
<text x="155" y="710" class="s7_31">2</text>
<text x="166" y="710" class="s4_31">2 </text>
<text x="305" y="710" dx="0,0,0,0,4.2,0,0" class="s4_31">(b) 2.8</text>
<text x="133" y="727" class="s4_31">(c) </text>
<text x="155" y="727" class="s7_31">2</text>
<text x="166" y="727" class="s4_31">3, 1 </text>
<text x="305" y="727" class="s4_31">(d) </text>
<text x="328" y="727" class="s7_31">2</text>
<text x="340" y="727" class="s4_31">2.5, 0.3</text>
<text x="133" y="744" class="s4_31">(e) </text>
<text x="155" y="744" class="s6_31">f</text>
<text x="160" y="744" class="s7_31">2</text>
<text x="171" y="744" class="s4_31">3, 3</text>
<text x="192" y="744" class="s6_31">g</text>
<text x="196" y="744" class="s4_31">, </text>
<text x="203" y="744" class="s6_31">f</text>
<text x="208" y="744" class="s7_31">2</text>
<text x="219" y="744" class="s4_31">2, 3</text>
<text x="240" y="744" class="s6_31">g</text>
<text x="118" y="776" class="s3_31">². </text>
<text x="133" y="776" class="s4_31">12</text>
<text x="151" y="776" class="s7_31">1</text>
<text x="166" y="776" class="s4_31">6</text>
<text x="173" y="776" class="s5_31">h</text>
<text x="184" y="776" class="s7_31">1</text>
<text x="200" y="776" class="s5_31">h</text>
<text x="208" y="770" class="s9_31">2</text>
<text x="118" y="808" class="s3_31">³. </text>
<text x="133" y="808" class="s4_31">(a) </text>
<text x="155" y="808" class="s6_31">s</text>
<text x="160" y="808" class="s7_31">2`</text>
<text x="180" y="808" class="s4_31">, </text>
<text x="187" y="808" class="s7_31">2</text>
<text x="198" y="808" class="s4_31">2</text>
<text x="205" y="808" class="s6_31">d</text>
<text x="214" y="808" class="sk_31">ø</text>
<text x="230" y="808" class="s6_31">s</text>
<text x="234" y="808" class="s7_31">2</text>
<text x="246" y="808" class="s4_31">2, 1</text>
<text x="266" y="808" class="s6_31">d</text>
<text x="275" y="808" class="sk_31">ø</text>
<text x="290" y="808" class="s6_31">s</text>
<text x="295" y="808" class="s4_31">1, </text>
<text x="309" y="808" class="s7_31">`</text>
<text x="318" y="808" class="s6_31">d</text>
<text x="132" y="825" class="s4_31">(b) </text>
<text x="155" y="825" class="s6_31">s</text>
<text x="160" y="825" class="s7_31">2`</text>
<text x="180" y="825" class="s4_31">, </text>
<text x="187" y="825" class="s7_31">`</text>
<text x="196" y="825" class="s6_31">d</text>
<text x="133" y="842" class="s4_31">(c) </text>
<text x="155" y="842" class="s6_31">s</text>
<text x="160" y="842" class="s7_31">2`</text>
<text x="180" y="842" class="s4_31">, </text>
<text x="187" y="842" class="s7_31">2</text>
<text x="198" y="842" class="s4_31">1</text>
<text x="205" y="842" class="s6_31">g</text>
<text x="214" y="842" class="sk_31">ø</text>
<text x="230" y="842" class="s6_31">f</text>
<text x="234" y="842" class="s4_31">1, 4</text>
<text x="255" y="842" class="s6_31">g</text>
<text x="118" y="874" class="s3_31">´. </text>
<text x="133" y="874" dx="0,0,0,0,3.4,0,0,0,0,0,0,0,0,0,0,0,0,0,0,0,0" class="s4_31">(a) Re²ect about the </text>
<text x="252" y="874" class="s5_31">x</text>
<text x="258" y="874" class="s4_31">-axis</text>
<text x="132" y="891" class="s4_31">(b) </text>
<text x="155" y="891" class="s4_31">Stretch vertically by a factor of 2, then shift 1 unit </text>
<text x="155" y="907" class="s4_31">downward</text>
<text x="133" y="924" dx="0,0,0,0,3.4,0,0,0,0,0,0,0,0,0,0,0,0,0,0,0,0,0,0,0,0,0,0,0,0,0,0,0,0,0,0,0,0,0,0,0,0,0,0,0,0,0,0,0,0" class="s4_31">(c) Shift 3 units to the right and 2 units upward</text>
<text x="513" y="710" class="s3_31">µ. </text>
<path d="M524.4,1036.2H878.6V701.1H524.4v335.1Z" class="g5_31"/>
<path d="M529.5,757.3H621" class="g8_31"/>
<path fill-rule="evenodd" d="M621,757.3l-1.4,-2.1l5.6,2.1l-5.6,2.1Z" class="g3_31"/>
<path d="M575.3,803V711.5" class="g8_31"/>
<text x="566" y="712" class="sl_31">y</text>
<text x="619" y="767" class="sm_31">x</text>
<text x="568" y="767" class="sn_31">0</text>
<path fill-rule="evenodd" d="M575.3,711.5l-2.1,1.5l2.1,-5.6l2,5.6Z" class="g3_31"/>
<text x="527" y="712" class="so_31">(a)</text>
<text x="568" y="746" class="sm_31">1</text>
<text x="587" y="767" class="sm_31">1</text>
<path d="M589,759.6V755M577.5,743.6H573" class="g8_31"/>
<path d="M554.5,803c4.6,-33.8,9.7,-45.7,20.8,-45.7c11,0,16.1,-11.9,20.7,-45.7" class="g9_31"/>
<text x="682" y="712" class="sm_31">y</text>
<path fill-rule="evenodd" d="M691.2,711.5L689,713l2.2,-5.6l2,5.6Z" class="g3_31"/>
<text x="643" y="712" class="so_31">(b)</text>
<path d="M656.7,803c4.6,-33.8,9.7,-45.7,20.7,-45.7c11.1,0,16.2,-11.9,20.7,-45.7" class="g9_31"/>
<path d="M645.4,757.3h91.5" class="g8_31"/>
<path fill-rule="evenodd" d="M736.9,757.3l-1.4,-2.1l5.6,2.1l-5.6,2.1Z" class="g3_31"/>
<path d="M691.2,803V711.5" class="g8_31"/>
<text x="735" y="767" class="sm_31">x</text>
<text x="693" y="767" class="sn_31">0</text>
<text x="684" y="746" class="sm_31">1</text>
<text x="670" y="767" class="sp_31">_1</text>
<path d="M677.4,759.6V755m16,-11.4h-4.5" class="g8_31"/>
<text x="759" y="712" class="so_31">(c)</text>
<text x="780" y="712" class="sp_31">y</text>
<path fill-rule="evenodd" d="M788.7,711.5l-2.1,1.5l2.1,-5.6l2.1,5.6Z" class="g3_31"/>
<path d="M761.3,766.5h91.5" class="g8_31"/>
<path fill-rule="evenodd" d="M852.8,766.5l-1.4,-2.1l5.6,2.1l-5.6,2Z" class="g3_31"/>
<path d="M788.7,803V711.5" class="g8_31"/>
<text x="851" y="776" class="sp_31">x</text>
<text x="781" y="776" class="sn_31">0</text>
<text x="810" y="738" class="sp_31">(2, 3)</text>
<path d="M791.7,802.8c3.5,-44.8,9.7,-77.5,24.5,-77.5c6.4,0,10.7,-4,14.2,-13.8" class="g9_31"/>
<path d="M817.7,725.3c0,.8,-.7,1.5,-1.5,1.5c-.9,0,-1.5,-.7,-1.5,-1.5c0,-.9,.6,-1.5,1.5,-1.5c.8,0,1.5,.6,1.5,1.5Z" class="g3_31"/>
<text x="566" y="822" class="sp_31">y</text>
<path fill-rule="evenodd" d="M575.3,821.3l-2.1,1.4l2.1,-5.6l2,5.6Z" class="g3_31"/>
<text x="527" y="821" class="so_31">(d)</text>
<path d="M529.5,867.1H621" class="g8_31"/>
<path fill-rule="evenodd" d="M621,867.1L619.6,865l5.6,2.1l-5.6,2.1Z" class="g3_31"/>
<path d="M575.3,912.8V821.3" class="g8_31"/>
<text x="619" y="876" class="sp_31">x</text>
<text x="568" y="876" class="sn_31">0</text>
<text x="567" y="835" class="sp_31">4</text>
<text x="586" y="877" class="sp_31">2</text>
<path d="M577.2,836.6h-3.9" class="g8_31"/>
<path d="M551.6,912.8c4.4,-31.3,12.6,-76.2,23.7,-76.2m23.6,76.2c-4.3,-31.3,-12.6,-76.2,-23.6,-76.2" class="g9_31"/>
<text x="643" y="821" class="so_31">(e)</text>
<path d="M645.7,867.1h91.5" class="g8_31"/>
<path fill-rule="evenodd" d="M737.2,867.1L735.7,865l5.6,2.1l-5.6,2.1Z" class="g3_31"/>
<path d="M691.4,912.8V821.3" class="g8_31"/>
<text x="683" y="822" class="sp_31">y</text>
<text x="735" y="876" class="sp_31">x</text>
<text x="684" y="876" class="sn_31">0</text>
<path fill-rule="evenodd" d="M691.4,821.3l-2.1,1.4l2.1,-5.6l2.1,5.6Z" class="g3_31"/>
<text x="703" y="877" class="sp_31">1</text>
<path d="M705.1,869.4v-4.6" class="g8_31"/>
<path d="M691.4,867.1c0,-12.1,29.2,-19.7,45.8,-25.1" class="g9_31"/>
<text x="759" y="821" dx="0,0,1.2" class="so_31">(f)</text>
<text x="799" y="822" class="sp_31">y</text>
<path fill-rule="evenodd" d="M807.6,821.3l-2.1,1.4l2.1,-5.6l2,5.6Z" class="g3_31"/>
<path d="M761.8,867.1h91.5" class="g8_31"/>
<path fill-rule="evenodd" d="M853.3,867.1L851.9,865l5.6,2.1l-5.6,2.1Z" class="g3_31"/>
<path d="M807.6,912.8V821.3" class="g8_31"/>
<text x="851" y="876" class="sp_31">x</text>
<text x="800" y="876" class="sn_31">0</text>
<text x="819" y="877" class="sp_31">1</text>
<path d="M821.3,869.4v-4.6" class="g8_31"/>
<path d="M807.6,867.1c0,-18.3,19,-35.5,38.1,-45.8" class="g9_31"/>
<text x="527" y="933" class="so_31">(g)</text>
<text x="566" y="933" class="sp_31">y</text>
<path fill-rule="evenodd" d="M575.3,932.7l-2.1,1.4l2.1,-5.6l2,5.6Z" class="g3_31"/>
<path d="M529.5,978.4H621m-45.7,45.8V932.7" class="g8_31"/>
<text x="619" y="988" class="sp_31">x</text>
<text x="568" y="975" class="sn_31">0</text>
<text x="587" y="989" class="sp_31">1</text>
<path d="M589,980.7v-4.6" class="g8_31"/>
<text x="562" y="996" class="sp_31">_1</text>
<path d="M577.5,992.1H573" class="g8_31"/>
<path d="M529.5,979.9c41.7,0,58.5,18.3,69.6,44.3" class="g9_31"/>
<path fill-rule="evenodd" d="M621,978.4l-1.4,-2.1l5.6,2.1l-5.6,2.1Z" class="g3_31"/>
<text x="682" y="933" class="sp_31">y</text>
<path fill-rule="evenodd" d="M691.2,932.7l-2.2,1.4l2.2,-5.6l2,5.6Z" class="g3_31"/>
<text x="643" y="933" class="so_31">(h)</text>
<path d="M645.4,978.4h91.5" class="g8_31"/>
<path d="M645.4,964.7h91.5" class="ga_31"/>
<path fill-rule="evenodd" d="M736.9,978.4l-1.4,-2.1l5.6,2.1l-5.6,2.1Z" class="g3_31"/>
<path d="M691.2,1024.2V932.7" class="g8_31"/>
<text x="735" y="988" class="sp_31">x</text>
<text x="683" y="988" class="sn_31">0</text>
<text x="684" y="962" class="sp_31">1</text>
<text x="702" y="989" class="sp_31">1</text>
<path d="M704.9,980.7v-4.6" class="g8_31"/>
<path d="M645.5,968.8c36.3,3,38.5,9.3,42.6,55.4m9,-91.5c3.2,18.2,9.8,26.4,39.9,27.8" class="gb_31"/>
<text x="121" y="1076" class="sq_31">Copyright 2016 Cengage Learning. All Rights Reserved. May not be copied, scanned, or duplicated, in whole or in part. Due to electronic rights, some third party content may be suppressed from the eBook and/or eChapter(s).</text>
<text x="106" y="1087" class="sq_31">Editorial review has deemed that any suppressed content does not materially affect the overall learning experience. Cengage Learning reserves the right to remove additional content at any time if subsequent rights restrictions require it.</text>

</g>

<!-- Any embedded fonts defined here -->
<style type="text/css" ><![CDATA[

@font-face {
	font-family: BeaconDingbatsTypeOne_od;
	src: url("fonts/BeaconDingbatsTypeOne_od.woff") format("woff");
}

@font-face {
	font-family: MathematicalPiLTStd-1_rr;
	src: url("fonts/MathematicalPiLTStd-1_rr.woff") format("woff");
}

@font-face {
	font-family: MathematicalPiLTStd-3_ry;
	src: url("fonts/MathematicalPiLTStd-3_ry.woff") format("woff");
}

@font-face {
	font-family: MathematicalPiLTStd-4_v8;
	src: url("fonts/MathematicalPiLTStd-4_v8.woff") format("woff");
}

@font-face {
	font-family: MathematicalPiLTStd-5_vb;
	src: url("fonts/MathematicalPiLTStd-5_vb.woff") format("woff");
}

@font-face {
	font-family: MyriadPro-BoldSemiCn_90;
	src: url("fonts/MyriadPro-BoldSemiCn_90.woff") format("woff");
}

@font-face {
	font-family: MyriadPro-Bold_74;
	src: url("fonts/MyriadPro-Bold_74.woff") format("woff");
}

@font-face {
	font-family: MyriadPro-Regular_4i;
	src: url("fonts/MyriadPro-Regular_4i.woff") format("woff");
}

@font-face {
	font-family: MyriadPro-SemiboldSemiCn_4e;
	src: url("fonts/MyriadPro-SemiboldSemiCn_4e.woff") format("woff");
}

@font-face {
	font-family: TECHMath-Mix_vz;
	src: url("fonts/TECHMath-Mix_vz.woff") format("woff");
}

@font-face {
	font-family: TECHMath-Mix_wh;
	src: url("fonts/TECHMath-Mix_wh.woff") format("woff");
}

@font-face {
	font-family: TECHMath-Mix_wl;
	src: url("fonts/TECHMath-Mix_wl.woff") format("woff");
}

@font-face {
	font-family: Times-Roman_4n;
	src: url("fonts/Times-Roman_4n.woff") format("woff");
}

@font-face {
	font-family: Times-Roman_n6;
	src: url("fonts/Times-Roman_n6.woff") format("woff");
}

@font-face {
	font-family: TimesLTStd-Italic_o3;
	src: url("fonts/TimesLTStd-Italic_o3.woff") format("woff");
}

@font-face {
	font-family: TimesLTStd-Roman_6c;
	src: url("fonts/TimesLTStd-Roman_6c.woff") format("woff");
}

]]></style>

</svg>
