<?xml version="1.0" encoding="UTF-8" standalone="no"?>
<!DOCTYPE svg PUBLIC "-//W3C//DTD SVG 1.1//EN"
"http://www.w3.org/Graphics/SVG/1.1/DTD/svg11.dtd">


<!-- Page 33 -->
<svg x="0" y="0" width="931" height="1096" viewBox="0 0 931 1096" version="1.1" xmlns="http://www.w3.org/2000/svg" xmlns:xlink="http://www.w3.org/1999/xlink"
style="display: block;margin-left: auto;margin-right: auto;">
<defs>
<clipPath id="c_33"><path d="M0,0H931V1096H0Z"/></clipPath>
<clipPath id="c0_33"><path d="M438.5,859.9V579.8H843.7V859.9Z"/></clipPath>

<style type="text/css"><![CDATA[
text { white-space: pre; }
path, image { pointer-events: none; }

.s1_33{
font-size: 15.28px;
font-family: MyriadPro-BoldSemiCn_90;
fill: #231F20;
}
.s2_33{
font-size: 12.22px;
font-family: MyriadPro-Bold_74;
fill: #6D6F71;
}
.s3_33{
font-size: 45.83px;
font-family: MyriadPro-SemiboldSemiCn_4e;
fill: #231F20;
}
.s4_33{
font-size: 14.51px;
font-family: MyriadPro-BoldSemiCn_90;
fill: #231F20;
}
.s5_33{
font-size: 14.51px;
font-family: TimesLTStd-Roman_6c;
fill: #231F20;
}
.s6_33{
font-size: 7.64px;
font-family: Times-Roman_4n;
fill: #000000;
}

.g0_33{
fill: #040503;
}
.g1_33{
fill: #F58021;
}
.g2_33{
fill: #FFFFFF;
}
.g3_33{
fill: #FCFBE6;
}
.g4_33{
fill: #FCFADB;
}
.g5_33{
fill: #FDFAD6;
}
.g6_33{
fill: #FDF9CF;
}
.g7_33{
fill: #FCF9CD;
}
.g8_33{
fill: #FCF8C9;
}
.g9_33{
fill: #FCF8C7;
}
.ga_33{
fill: #FCF7C4;
}
.gb_33{
fill: #E9B21E;
}
.gc_33{
fill: #723816;
}
.gd_33{
fill: #1C1714;
}
.ge_33{
fill: #895020;
}
.gf_33{
fill: #C5A891;
}
.gg_33{
fill: #FEEACA;
}
.gh_33{
fill: #F9D8A4;
}
.gi_33{
fill: #ECC168;
}
.gj_33{
fill: #818281;
}
.gk_33{
fill: #E3D4C7;
}
.gl_33{
fill: #FEE6C2;
}
.gm_33{
fill: #FEF2CD;
}
.gn_33{
fill: #F4D88B;
}
.go_33{
fill: #FEE2BB;
}
.gp_33{
fill: #FAEEC7;
}

]]></style>

</defs>
<g clip-path="url(#c_33)">
<path d="M0,0
L0,1096
L931,1096
L931,0 Z " 
fill="#FFFFFF" stroke="none"/>
<image preserveAspectRatio="none" x="0" y="-20" width="952" height="61" xlink:href="33/img/1.png"/>
<text x="870" y="1042" class="s1_33">1</text>
<image preserveAspectRatio="none" x="106" y="781" width="212" height="245" xlink:href="33/img/2.png"/>
<text x="250" y="188" dx="0,-.1,0,0,0,0,0,0,0,0,0,0,0,-.2,0,0,0,0,0,0,0,0,0,0,0,0,0,0,-.1,0,0,0,0,-.2,0,0,-.2,0,0,0,0,0,0,0,0,0,0,0,0,0,0,0,0,-.1,0,0,0,0,0,0,0,0" class="s2_33">By the time you ±nish this course, you will be able to calcu- </text>
<text x="240" y="204" dx="0,0,-.1,-.1,0,0,0,0,0,0,0,0,0,0,0,0,0,0,0,0,0,0,0,0,0,0,.2,-.2,0,0,0,0,0,0,0,-.1,0,0,0,0,0,0,0,0,0,0,0,0,0,.1,-.1,-.1,-.1,-.1,-.1,0,0,-.1,-.1,0,0" class="s2_33">late the length of the curve used to design the Gateway Arch </text>
<text x="260" y="221" dx="0,0,0,0,-.1,-.1,0,0,-.1,0,0,0,-.1,0,0,0,0,-.1,0,0,0,0,0,0,0,0,0,0,-.1,0,0,0,0,0,0,0,0,0,0,0,0,0,0,0,0,0,0,0,0,.3,0,0,0,0,0,-.1,0,-.1,0" class="s2_33">in St. Louis, determine where a pilot should start descent </text>
<text x="255" y="238" dx="0,-.1,0,0,0,0,0,0,0,0,0,0,0,0,0,0,0,0,0,0,-.2,0,0,-.1,0,0,0,0,-.1,0,0,0,0,0,0,-.1,0,-.1,-.1,0,0,0,0,0,0,0,0,0,0,0,0,0,0,0,0,0,-.1,0" class="s2_33">for a smooth landing, compute the force on a baseball bat </text>
<text x="261" y="255" dx="0,0,0,0,0,0,0,0,0,0,0,0,0,-.2,0,0,0,0,0,0,0,0,0,0,-.1,0,0,0,0,0,0,0,0,0,0,0,-.1,0,0,0,0,0,0,0,0,0,0,-.1,0,0,0,0,0,0,0,0,-.1,0" class="s2_33">when it strikes the ball, and measure the amount of light </text>
<text x="290" y="272" dx="0,0,0,0,0,0,0,0,-.1,0,0,0,0,0,0,0,0,0,0,0,0,-.1,-.2,0,0,0,0,0,0,0,0,0,0,0,0,0,0,0,0,0,0,0,0,0,0,0,0,0,-.1,-.2" class="s2_33">sensed by the human eye as the pupil changes size.</text>
<text x="170" y="131" dx="0,0,0,-.5,-.4,-.2,0,0,-.2,0,0,0,0,0,-.3,0,0,0,0,0,0" class="s3_33">A Preview of Calculus</text>
<text x="310" y="924" dx="0,.5,.3,-.2,.3,.3,-.1,.3,.1,.3,.3,.1,.3,.3,.3,.3,.1,.3,.3,.3,.3,-.6,.3,.3,-.8,.1,.3,.3,.3,.3,.3,.3,.3,.3,.3,.1,.3,.3,.3,.3,.1" class="s4_33">CALCULUS IS FUNDAMENTALLY DIFFERENT FROM </text>
<text x="617" y="924" dx="0,0,0,0,.3,0,0,0,0,0,0,0,0,0,0,0,.3,0,0,0,0,.3,0,0,0,.3,0,-.3,-.2,0,.3,0,0,0,0,0,0,0,.3,0,0,-.4,0,0" class="s5_33">the mathematics that you have studied previ-</text>
<text x="310" y="942" dx="0,0,0,0,0,0,0,.7,0,0,0,0,0,0,0,0,.7,0,0,.7,0,0,0,0,.7,0,0,0,0,0,0,.7,0,0,0,.7,0,0,0,0,.7,0,0,0,0,0,0,0,0,.7,0,0,.7,0,0,.7,0,0,0,0,0,0,0,0,0,.7,0,0,0,0,.7,0,0,0,0,0,0,.7,0,0,0,.7,0,0,0,0,0,0,0,.7,0,0,.7,0,0,0,0,0" class="s5_33">ously: calculus is less static and more dynamic. It is concerned with change and motion; it deals </text>
<text x="310" y="961" dx="0,0,0,0,0,-.2,0,0,0,0,0,0,0,0,0,0,-.2,0,0,0,0,-.2,0,0,0,0,0,0,0,0,-.2,0,0,0,0,0,-.2,0,0,0,0,0,0,0,0,0,0,0,-.2,-.2,0,0,-.2,0,0,0,0,-.2,0,0,0,0,0,0,-.2,0,0,-.2,0,0,0,-.2,0,0,-.2,0,0,0,0,0,0,-.2,0,0,-.2,0,-.3,-.2,0,-.2,0,0,-.2,-.2,-.2,0,0,0,0,-.4,0" class="s5_33">with quantities that approach other quantities. For that reason it may be useful to have an overview </text>
<text x="310" y="979" dx="0,0,0,1,0,0,0,1,0,0,0,0,0,0,0,1,0,0,0,0,0,0,1,0,-.2,0,0,0,0,0,0,0,1,0,0,0,1,0,0,0,0,0,0,-.4,-.2,0,1,0,0,0,0,-.9,0,1,0,0,0,0,1,0,0,1,0,-.4,-.2,0,1,0,1,0,0,0,0,0,0,0,1,0,0,1,0,0,0,0,1,0,0,1,0,0,0,1,0,0,0,0" class="s5_33">of the subject before beginning its intensive study. Here we give a glimpse of some of the main </text>
<text x="310" y="997" dx="0,0,0,0,0,0,.2,0,0,.2,0,0,0,0,0,0,0,0,.2,0,0,.2,0,0,-.4,0,0,0,0,.2,0,-.4,0,.2,0,0,0,.2,0,0,0,0,0,0,0,.2,0,0,.2,0,.2,0,0,0,0,0,.2,0,0,0,0,0,0,.2,0,0,0,0,.2,0,0,.2,0,0,0,0,0,0,0,.2,0,0,.2,0,0,0,-.2,0,.2,0,.2,-.4,0,0,0,0,0,0" class="s5_33">ideas of calculus by showing how the concept of a limit arises when we attempt to solve a variety </text>
<text x="310" y="1016" class="s5_33">of problems.</text>
<path d="M438.6,859.9h405V579.8h-405V859.9Z" class="g0_33"/>
<image x="437" y="578" width="408" height="231" xlink:href="33/shade/1.png"/>
<image x="437" y="758" width="408" height="52" xlink:href="33/shade/2.png"/>
<image x="437" y="772" width="408" height="38" xlink:href="33/shade/3.png"/>
<image x="450" y="810" width="394" height="78" xlink:href="33/shade/4.png"/>
<path fill-rule="evenodd" d="M547.9,809.7c.3,0,.5,-.3,.5,-.5c0,-.3,-.2,-.5,-.5,-.5c-.2,0,-.4,.2,-.4,.5c0,.2,.2,.5,.4,.5Z" class="g1_33"/>
<path fill-rule="evenodd" d="M558.9,808.7c.3,0,.4,.2,.4,.5c0,.2,-.1,.5,-.4,.5c-.2,0,-.5,-.3,-.5,-.5c0,-.3,.3,-.5,.5,-.5Z" class="g1_33"/>
<path fill-rule="evenodd" d="M569.9,808.7c.2,0,.4,.2,.4,.5c0,.2,-.2,.5,-.4,.5c-.2,0,-.5,-.3,-.5,-.5c0,-.3,.3,-.5,.5,-.5Z" class="g1_33"/>
<path fill-rule="evenodd" d="M580.9,808.7c.2,0,.4,.2,.4,.5c0,.2,-.2,.5,-.4,.5c-.3,0,-.5,-.3,-.5,-.5c0,-.3,.2,-.5,.5,-.5Z" class="g1_33"/>
<path fill-rule="evenodd" d="M591.9,808.7c.2,0,.4,.2,.4,.5c0,.2,-.2,.5,-.4,.5c-.3,0,-.5,-.3,-.5,-.5c0,-.3,.2,-.5,.5,-.5Z" class="g1_33"/>
<path fill-rule="evenodd" d="M602.8,808.7c.3,0,.4,.2,.4,.5c0,.2,-.1,.5,-.4,.5c-.2,0,-.4,-.3,-.4,-.5c0,-.3,.2,-.5,.4,-.5Z" class="g1_33"/>
<path fill-rule="evenodd" d="M613.8,808.7c.3,0,.4,.2,.4,.5c0,.2,-.1,.5,-.4,.5c-.3,0,-.4,-.3,-.4,-.5c0,-.3,.1,-.5,.4,-.5Z" class="g1_33"/>
<path fill-rule="evenodd" d="M624.8,808.7c.2,0,.4,.2,.4,.5c0,.2,-.2,.5,-.4,.5c-.3,0,-.5,-.3,-.5,-.5c0,-.3,.2,-.5,.5,-.5Z" class="g1_33"/>
<path fill-rule="evenodd" d="M635.8,808.7c.2,0,.4,.2,.4,.5c0,.2,-.2,.5,-.4,.5c-.3,0,-.5,-.3,-.5,-.5c0,-.3,.2,-.5,.5,-.5Z" class="g1_33"/>
<path fill-rule="evenodd" d="M646.8,808.7c.2,0,.4,.2,.4,.5c0,.2,-.2,.5,-.4,.5c-.3,0,-.5,-.3,-.5,-.5c0,-.3,.2,-.5,.5,-.5Z" class="g1_33"/>
<path fill-rule="evenodd" d="M657.7,808.7c.2,0,.4,.2,.4,.5c0,.2,-.2,.5,-.4,.5c-.3,0,-.5,-.3,-.5,-.5c0,-.3,.2,-.5,.5,-.5Z" class="g1_33"/>
<path fill-rule="evenodd" d="M668.7,808.7c.2,0,.4,.2,.4,.5c0,.2,-.2,.5,-.4,.5c-.4,0,-.5,-.3,-.5,-.5c0,-.3,.1,-.5,.5,-.5Z" class="g1_33"/>
<path fill-rule="evenodd" d="M679.6,808.7c.3,0,.4,.2,.4,.5c0,.2,-.1,.5,-.4,.5c-.3,0,-.4,-.3,-.4,-.5c0,-.3,.1,-.5,.4,-.5Z" class="g1_33"/>
<path fill-rule="evenodd" d="M690.6,808.7c.3,0,.4,.2,.4,.5c0,.2,-.1,.5,-.4,.5c-.3,0,-.4,-.3,-.4,-.5c0,-.3,.1,-.5,.4,-.5Z" class="g1_33"/>
<path fill-rule="evenodd" d="M701.5,808.7c.3,0,.5,.2,.5,.5c0,.2,-.2,.5,-.5,.5c-.2,0,-.4,-.3,-.4,-.5c0,-.3,.2,-.5,.4,-.5Z" class="g1_33"/>
<path fill-rule="evenodd" d="M712.5,808.7c.3,0,.5,.2,.5,.5c0,.2,-.2,.5,-.5,.5c-.2,0,-.4,-.3,-.4,-.5c0,-.3,.2,-.5,.4,-.5Z" class="g1_33"/>
<path fill-rule="evenodd" d="M723.5,808.7c.3,0,.5,.2,.5,.5c0,.2,-.2,.5,-.5,.5c-.2,0,-.4,-.3,-.4,-.5c0,-.3,.2,-.5,.4,-.5Z" class="g1_33"/>
<path fill-rule="evenodd" d="M734.5,808.7c.3,0,.5,.2,.5,.5c0,.2,-.2,.5,-.5,.5c-.3,0,-.4,-.3,-.4,-.5c0,-.3,.1,-.5,.4,-.5Z" class="g1_33"/>
<path fill-rule="evenodd" d="M745.5,808.7c.3,0,.4,.2,.4,.5c0,.2,-.1,.5,-.4,.5c-.3,0,-.4,-.3,-.4,-.5c0,-.3,.1,-.5,.4,-.5Z" class="g1_33"/>
<path fill-rule="evenodd" d="M756.4,808.7c.4,0,.5,.2,.5,.5c0,.2,-.1,.5,-.5,.5c-.2,0,-.3,-.3,-.3,-.5c0,-.3,.1,-.5,.3,-.5Z" class="g1_33"/>
<path fill-rule="evenodd" d="M767.4,808.7c.3,0,.5,.2,.5,.5c0,.2,-.2,.5,-.5,.5c-.2,0,-.4,-.3,-.4,-.5c0,-.3,.2,-.5,.4,-.5Z" class="g1_33"/>
<path fill-rule="evenodd" d="M778.4,809.7c.2,0,.5,-.3,.5,-.5c0,-.3,-.3,-.5,-.5,-.5c-.2,0,-.4,.2,-.4,.5c0,.2,.2,.5,.4,.5Z" class="g1_33"/>
<path fill-rule="evenodd" d="M471.5,811.4c.3,0,.5,-.3,.5,-.5c0,-.2,-.2,-.5,-.5,-.5c-.2,0,-.4,.3,-.4,.5c0,.2,.2,.5,.4,.5Z" class="g1_33"/>
<path fill-rule="evenodd" d="M488.2,810.4c.3,0,.5,.3,.5,.5c0,.2,-.2,.5,-.5,.5c-.2,0,-.4,-.3,-.4,-.5c0,-.2,.2,-.5,.4,-.5Z" class="g1_33"/>
<path fill-rule="evenodd" d="M504.9,810.4c.3,0,.4,.3,.4,.5c0,.2,-.1,.5,-.4,.5c-.2,0,-.4,-.3,-.4,-.5c0,-.2,.2,-.5,.4,-.5Z" class="g1_33"/>
<path fill-rule="evenodd" d="M521.7,810.4c.2,0,.3,.3,.3,.5c0,.2,-.1,.5,-.3,.5c-.4,0,-.5,-.3,-.5,-.5c0,-.2,.1,-.5,.5,-.5Z" class="g1_33"/>
<path fill-rule="evenodd" d="M538.3,810.4c.3,0,.5,.3,.5,.5c0,.2,-.2,.5,-.5,.5c-.2,0,-.4,-.3,-.4,-.5c0,-.2,.2,-.5,.4,-.5Z" class="g1_33"/>
<path fill-rule="evenodd" d="M555,810.4c.2,0,.5,.3,.5,.5c0,.2,-.3,.5,-.5,.5c-.2,0,-.4,-.3,-.4,-.5c0,-.2,.2,-.5,.4,-.5Z" class="g1_33"/>
<path fill-rule="evenodd" d="M571.7,810.4c.2,0,.5,.3,.5,.5c0,.2,-.3,.5,-.5,.5c-.2,0,-.5,-.3,-.5,-.5c0,-.2,.3,-.5,.5,-.5Z" class="g1_33"/>
<path fill-rule="evenodd" d="M588.4,810.4c.2,0,.5,.3,.5,.5c0,.2,-.3,.5,-.5,.5c-.2,0,-.5,-.3,-.5,-.5c0,-.2,.3,-.5,.5,-.5Z" class="g1_33"/>
<path fill-rule="evenodd" d="M605.1,810.4c.3,0,.4,.3,.4,.5c0,.2,-.1,.5,-.4,.5c-.2,0,-.5,-.3,-.5,-.5c0,-.2,.3,-.5,.5,-.5Z" class="g1_33"/>
<path fill-rule="evenodd" d="M621.8,810.4c.3,0,.4,.3,.4,.5c0,.2,-.1,.5,-.4,.5c-.3,0,-.4,-.3,-.4,-.5c0,-.2,.1,-.5,.4,-.5Z" class="g1_33"/>
<path fill-rule="evenodd" d="M638.5,810.4c.3,0,.4,.3,.4,.5c0,.2,-.1,.5,-.4,.5c-.3,0,-.4,-.3,-.4,-.5c0,-.2,.1,-.5,.4,-.5Z" class="g1_33"/>
<path fill-rule="evenodd" d="M655.1,810.4c.2,0,.5,.3,.5,.5c0,.2,-.3,.5,-.5,.5c-.2,0,-.4,-.3,-.4,-.5c0,-.2,.2,-.5,.4,-.5Z" class="g1_33"/>
<path fill-rule="evenodd" d="M671.8,810.4c.2,0,.5,.3,.5,.5c0,.2,-.3,.5,-.5,.5c-.2,0,-.5,-.3,-.5,-.5c0,-.2,.3,-.5,.5,-.5Z" class="g1_33"/>
<path fill-rule="evenodd" d="M688.5,810.4c.2,0,.5,.3,.5,.5c0,.2,-.3,.5,-.5,.5c-.2,0,-.5,-.3,-.5,-.5c0,-.2,.3,-.5,.5,-.5Z" class="g1_33"/>
<path fill-rule="evenodd" d="M705.2,810.4c.3,0,.4,.3,.4,.5c0,.2,-.1,.5,-.4,.5c-.2,0,-.5,-.3,-.5,-.5c0,-.2,.3,-.5,.5,-.5Z" class="g1_33"/>
<path fill-rule="evenodd" d="M721.9,810.4c.3,0,.4,.3,.4,.5c0,.2,-.1,.5,-.4,.5c-.3,0,-.4,-.3,-.4,-.5c0,-.2,.1,-.5,.4,-.5Z" class="g1_33"/>
<path fill-rule="evenodd" d="M738.6,810.4c.3,0,.4,.3,.4,.5c0,.2,-.1,.5,-.4,.5c-.3,0,-.4,-.3,-.4,-.5c0,-.2,.1,-.5,.4,-.5Z" class="g1_33"/>
<path fill-rule="evenodd" d="M755.3,810.4c.2,0,.4,.3,.4,.5c0,.2,-.2,.5,-.4,.5c-.3,0,-.4,-.3,-.4,-.5c0,-.2,.1,-.5,.4,-.5Z" class="g1_33"/>
<path fill-rule="evenodd" d="M772,810.4c.2,0,.4,.3,.4,.5c0,.2,-.2,.5,-.4,.5c-.3,0,-.5,-.3,-.5,-.5c0,-.2,.2,-.5,.5,-.5Z" class="g1_33"/>
<path fill-rule="evenodd" d="M788.7,810.4c.2,0,.5,.3,.5,.5c0,.2,-.3,.5,-.5,.5c-.2,0,-.5,-.3,-.5,-.5c0,-.2,.3,-.5,.5,-.5Z" class="g1_33"/>
<path fill-rule="evenodd" d="M805.4,810.4c.2,0,.5,.3,.5,.5c0,.2,-.3,.5,-.5,.5c-.2,0,-.5,-.3,-.5,-.5c0,-.2,.3,-.5,.5,-.5Z" class="g1_33"/>
<path fill-rule="evenodd" d="M822.1,811.4c.2,0,.4,-.3,.4,-.5c0,-.2,-.2,-.5,-.4,-.5c-.3,0,-.5,.3,-.5,.5c0,.2,.2,.5,.5,.5Z" class="g1_33"/>
<path fill-rule="evenodd" d="M480.5,812.6c.3,0,.4,-.2,.4,-.4c0,-.3,-.1,-.5,-.4,-.5c-.2,0,-.4,.2,-.4,.5c0,.2,.2,.4,.4,.4Z" class="g2_33"/>
<path fill-rule="evenodd" d="M497.3,811.7c.2,0,.3,.2,.3,.5c0,.2,-.1,.4,-.3,.4c-.4,0,-.5,-.2,-.5,-.4c0,-.3,.1,-.5,.5,-.5Z" class="g2_33"/>
<path fill-rule="evenodd" d="M513.9,811.7c.3,0,.5,.2,.5,.5c0,.2,-.2,.4,-.5,.4c-.2,0,-.4,-.2,-.4,-.4c0,-.3,.2,-.5,.4,-.5Z" class="g2_33"/>
<path fill-rule="evenodd" d="M530.6,811.7c.2,0,.5,.2,.5,.5c0,.2,-.3,.4,-.5,.4c-.2,0,-.4,-.2,-.4,-.4c0,-.3,.2,-.5,.4,-.5Z" class="g2_33"/>
<path fill-rule="evenodd" d="M547.3,811.7c.2,0,.5,.2,.5,.5c0,.2,-.3,.4,-.5,.4c-.2,0,-.5,-.2,-.5,-.4c0,-.3,.3,-.5,.5,-.5Z" class="g2_33"/>
<path fill-rule="evenodd" d="M564,811.7c.3,0,.5,.2,.5,.5c0,.2,-.2,.4,-.5,.4c-.2,0,-.4,-.2,-.4,-.4c0,-.3,.2,-.5,.4,-.5Z" class="g2_33"/>
<path fill-rule="evenodd" d="M580.7,811.7c.3,0,.5,.2,.5,.5c0,.2,-.2,.4,-.5,.4c-.2,0,-.4,-.2,-.4,-.4c0,-.3,.2,-.5,.4,-.5Z" class="g2_33"/>
<path fill-rule="evenodd" d="M597.4,811.7c.3,0,.4,.2,.4,.5c0,.2,-.1,.4,-.4,.4c-.3,0,-.4,-.2,-.4,-.4c0,-.3,.1,-.5,.4,-.5Z" class="g2_33"/>
<path fill-rule="evenodd" d="M614.1,811.7c.3,0,.4,.2,.4,.5c0,.2,-.1,.4,-.4,.4c-.3,0,-.4,-.2,-.4,-.4c0,-.3,.1,-.5,.4,-.5Z" class="g2_33"/>
<path fill-rule="evenodd" d="M630.8,811.7c.2,0,.4,.2,.4,.5c0,.2,-.2,.4,-.4,.4c-.3,0,-.4,-.2,-.4,-.4c0,-.3,.1,-.5,.4,-.5Z" class="g2_33"/>
<path fill-rule="evenodd" d="M647.5,811.7c.2,0,.4,.2,.4,.5c0,.2,-.2,.4,-.4,.4c-.3,0,-.5,-.2,-.5,-.4c0,-.3,.2,-.5,.5,-.5Z" class="g2_33"/>
<path fill-rule="evenodd" d="M664.1,811.7c.2,0,.5,.2,.5,.5c0,.2,-.3,.4,-.5,.4c-.2,0,-.5,-.2,-.5,-.4c0,-.3,.3,-.5,.5,-.5Z" class="g2_33"/>
<path fill-rule="evenodd" d="M680.8,811.7c.3,0,.5,.2,.5,.5c0,.2,-.2,.4,-.5,.4c-.2,0,-.4,-.2,-.4,-.4c0,-.3,.2,-.5,.4,-.5Z" class="g2_33"/>
<path fill-rule="evenodd" d="M697.5,811.7c.3,0,.4,.2,.4,.5c0,.2,-.1,.4,-.4,.4c-.3,0,-.4,-.2,-.4,-.4c0,-.3,.1,-.5,.4,-.5Z" class="g2_33"/>
<path fill-rule="evenodd" d="M714.2,811.7c.3,0,.4,.2,.4,.5c0,.2,-.1,.4,-.4,.4c-.3,0,-.4,-.2,-.4,-.4c0,-.3,.1,-.5,.4,-.5Z" class="g2_33"/>
<path fill-rule="evenodd" d="M730.9,811.7c.2,0,.4,.2,.4,.5c0,.2,-.2,.4,-.4,.4c-.3,0,-.4,-.2,-.4,-.4c0,-.3,.1,-.5,.4,-.5Z" class="g2_33"/>
<path fill-rule="evenodd" d="M747.6,811.7c.2,0,.4,.2,.4,.5c0,.2,-.2,.4,-.4,.4c-.3,0,-.5,-.2,-.5,-.4c0,-.3,.2,-.5,.5,-.5Z" class="g2_33"/>
<path fill-rule="evenodd" d="M764.3,811.7c.2,0,.5,.2,.5,.5c0,.2,-.3,.4,-.5,.4c-.2,0,-.5,-.2,-.5,-.4c0,-.3,.3,-.5,.5,-.5Z" class="g2_33"/>
<path fill-rule="evenodd" d="M781,811.7c.2,0,.5,.2,.5,.5c0,.2,-.3,.4,-.5,.4c-.2,0,-.5,-.2,-.5,-.4c0,-.3,.3,-.5,.5,-.5Z" class="g2_33"/>
<path fill-rule="evenodd" d="M797.7,811.7c.2,0,.4,.2,.4,.5c0,.2,-.2,.4,-.4,.4c-.3,0,-.5,-.2,-.5,-.4c0,-.3,.2,-.5,.5,-.5Z" class="g2_33"/>
<path fill-rule="evenodd" d="M814.3,811.7c.3,0,.5,.2,.5,.5c0,.2,-.2,.4,-.5,.4c-.2,0,-.4,-.2,-.4,-.4c0,-.3,.2,-.5,.4,-.5Z" class="g2_33"/>
<path fill-rule="evenodd" d="M831.1,812.6c.2,0,.4,-.2,.4,-.4c0,-.3,-.2,-.5,-.4,-.5c-.3,0,-.4,.2,-.4,.5c0,.2,.1,.4,.4,.4Z" class="g2_33"/>
<path fill-rule="evenodd" d="M691.4,811.9h.2v-3.4h-.2v3.4Z" class="g0_33"/>
<path fill-rule="evenodd" d="M691.5,808.5c.4,0,.7,-.3,.7,-.7c0,-.4,-.3,-.7,-.7,-.7c-.3,0,-.7,.3,-.7,.7c0,.4,.4,.7,.7,.7Z" class="g2_33"/>
<path fill-rule="evenodd" d="M691,807.4h1.1c.1,.1,.1,.3,.1,.4c0,.1,0,.3,-.1,.4H691c-.1,-.1,-.2,-.3,-.2,-.4c0,-.1,.1,-.3,.2,-.4Z" class="g2_33"/>
<path fill-rule="evenodd" d="M691.5,808c.2,0,.3,-.1,.3,-.2c0,-.1,-.1,-.2,-.3,-.2c-.1,0,-.2,.1,-.2,.2c0,.1,.1,.2,.2,.2Z" class="g2_33"/>
<path fill-rule="evenodd" d="M691.6,807.4c-.2,0,-.4,.1,-.4,.1c0,0,.2,0,.4,0c.3,0,.5,0,.5,0c0,0,-.2,-.1,-.5,-.1Z" class="g2_33"/>
<path fill-rule="evenodd" d="M691.6,807.6c-.2,0,-.4,0,-.4,0c0,0,.2,0,.4,0c.3,0,.5,0,.5,0c0,0,-.2,0,-.5,0Z" class="g2_33"/>
<path fill-rule="evenodd" d="M691.6,807.6c-.2,0,-.4,.1,-.4,.1c0,0,.2,0,.4,0c.3,0,.5,0,.5,0c0,0,-.2,-.1,-.5,-.1Z" class="g2_33"/>
<path fill-rule="evenodd" d="M691.6,807.8c-.2,0,-.4,0,-.4,0c0,0,.2,0,.4,0c.3,0,.5,0,.5,0c0,0,-.2,0,-.5,0Z" class="g2_33"/>
<path fill-rule="evenodd" d="M691.6,807.8c-.2,0,-.4,0,-.4,.1c0,0,.2,0,.4,0c.3,0,.5,0,.5,0c0,-.1,-.2,-.1,-.5,-.1Z" class="g2_33"/>
<path fill-rule="evenodd" d="M691.6,807.9c-.2,0,-.4,0,-.4,0c0,.1,.2,.1,.4,.1c.3,0,.5,0,.5,-.1c0,0,-.2,0,-.5,0Z" class="g2_33"/>
<path fill-rule="evenodd" d="M691.6,808c-.2,0,-.4,0,-.4,.1c0,0,.2,0,.4,0c.3,0,.5,0,.5,0c0,-.1,-.2,-.1,-.5,-.1Z" class="g2_33"/>
<path fill-rule="evenodd" d="M691.6,808.1c-.2,0,-.4,0,-.4,0c0,0,.2,.1,.4,.1c.3,0,.5,-.1,.5,-.1c0,0,-.2,0,-.5,0Z" class="g2_33"/>
<path fill-rule="evenodd" d="M696.8,813.5h.3v-5.3h-.3v5.3Z" class="g0_33"/>
<image x="695" y="805" width="6" height="5" xlink:href="33/shade/5.png"/>
<image x="695" y="805" width="6" height="4" xlink:href="33/shade/6.png"/>
<path fill-rule="evenodd" d="M696.9,807.5c.2,0,.4,-.2,.4,-.3c0,-.2,-.2,-.4,-.4,-.4c-.2,0,-.3,.2,-.3,.4c0,.1,.1,.3,.3,.3Z" class="g3_33"/>
<path fill-rule="evenodd" d="M697,806.6c-.3,0,-.7,0,-.7,0c0,0,.4,0,.7,0c.4,0,.7,0,.7,0c0,0,-.3,0,-.7,0Z" class="g2_33"/>
<path fill-rule="evenodd" d="M697,806.7c-.3,0,-.7,.1,-.7,.1c0,0,.4,0,.7,0c.4,0,.7,0,.7,0c0,0,-.3,-.1,-.7,-.1Z" class="g2_33"/>
<path fill-rule="evenodd" d="M697,806.9c-.3,0,-.7,0,-.7,0c0,0,.4,0,.7,0c.4,0,.7,0,.7,0c0,0,-.3,0,-.7,0Z" class="g2_33"/>
<path fill-rule="evenodd" d="M697,807c-.3,0,-.7,0,-.7,.1c0,0,.4,0,.7,0c.4,0,.7,0,.7,0c0,-.1,-.3,-.1,-.7,-.1Z" class="g2_33"/>
<path fill-rule="evenodd" d="M697,807.2c-.3,0,-.7,0,-.7,0c0,0,.4,0,.7,0c.4,0,.7,0,.7,0c0,0,-.3,0,-.7,0Z" class="g2_33"/>
<path fill-rule="evenodd" d="M697,807.4c-.3,0,-.7,0,-.7,0c0,0,.4,0,.7,0c.4,0,.7,0,.7,0c0,0,-.3,0,-.7,0Z" class="g2_33"/>
<path fill-rule="evenodd" d="M697,807.5c-.3,0,-.7,0,-.7,0c0,0,.4,0,.7,0c.4,0,.7,0,.7,0c0,0,-.3,0,-.7,0Z" class="g2_33"/>
<path fill-rule="evenodd" d="M697,807.6c-.3,0,-.7,.1,-.7,.1c0,0,.4,0,.7,0c.4,0,.7,0,.7,0c0,0,-.3,-.1,-.7,-.1Z" class="g2_33"/>
<path fill-rule="evenodd" d="M702.9,815.4h.4v-7.6h-.4v7.6Z" class="g0_33"/>
<image x="700" y="804" width="6" height="6" xlink:href="33/shade/7.png"/>
<image x="700" y="804" width="6" height="5" xlink:href="33/shade/8.png"/>
<path fill-rule="evenodd" d="M703.1,806.9c.3,0,.5,-.2,.5,-.5c0,-.3,-.2,-.5,-.5,-.5c-.2,0,-.4,.2,-.4,.5c0,.3,.2,.5,.4,.5Z" class="g4_33"/>
<path fill-rule="evenodd" d="M703.3,805.6c-.6,0,-1,0,-1,0c0,.1,.4,.1,1,.1c.5,0,.9,0,.9,-.1c0,0,-.4,0,-.9,0Z" class="g2_33"/>
<path fill-rule="evenodd" d="M703.3,805.8c-.6,0,-1,0,-1,.1c0,0,.4,0,1,0c.5,0,.9,0,.9,0c0,-.1,-.4,-.1,-.9,-.1Z" class="g2_33"/>
<path fill-rule="evenodd" d="M703.3,806c-.6,0,-1,0,-1,.1c0,0,.4,0,1,0c.5,0,.9,0,.9,0c0,-.1,-.4,-.1,-.9,-.1Z" class="g2_33"/>
<path fill-rule="evenodd" d="M703.3,806.2c-.6,0,-1,.1,-1,.1c0,0,.4,0,1,0c.5,0,.9,0,.9,0c0,0,-.4,-.1,-.9,-.1Z" class="g2_33"/>
<path fill-rule="evenodd" d="M703.3,806.5c-.6,0,-1,0,-1,0c0,0,.4,0,1,0c.5,0,.9,0,.9,0c0,0,-.4,0,-.9,0Z" class="g2_33"/>
<path fill-rule="evenodd" d="M703.3,806.7c-.6,0,-1,0,-1,0c0,0,.4,0,1,0c.5,0,.9,0,.9,0c0,0,-.4,0,-.9,0Z" class="g2_33"/>
<path fill-rule="evenodd" d="M703.3,806.9c-.6,0,-1,0,-1,0c0,0,.4,0,1,0c.5,0,.9,0,.9,0c0,0,-.4,0,-.9,0Z" class="g2_33"/>
<path fill-rule="evenodd" d="M703.3,807.1c-.6,0,-1,0,-1,0c0,0,.4,.1,1,.1c.5,0,.9,-.1,.9,-.1c0,0,-.4,0,-.9,0Z" class="g2_33"/>
<path fill-rule="evenodd" d="M710.1,817.6h.6V807.4h-.6v10.2Z" class="g0_33"/>
<image x="707" y="802" width="6" height="6" xlink:href="33/shade/9.png"/>
<image x="707" y="803" width="6" height="5" xlink:href="33/shade/10.png"/>
<path fill-rule="evenodd" d="M710.4,806.1c.3,0,.6,-.2,.6,-.6c0,-.3,-.3,-.6,-.6,-.6c-.3,0,-.6,.3,-.6,.6c0,.4,.3,.6,.6,.6Z" class="g5_33"/>
<path fill-rule="evenodd" d="M710.6,804.5c-.7,0,-1.3,0,-1.3,0c0,0,.6,0,1.3,0c.7,0,1.3,0,1.3,0c0,0,-.6,0,-1.3,0Z" class="g2_33"/>
<path fill-rule="evenodd" d="M710.6,804.7c-.7,0,-1.3,.1,-1.3,.1c0,0,.6,0,1.3,0c.7,0,1.3,0,1.3,0c0,0,-.6,-.1,-1.3,-.1Z" class="g2_33"/>
<path fill-rule="evenodd" d="M710.6,805c-.7,0,-1.3,0,-1.3,.1c0,0,.6,0,1.3,0c.7,0,1.3,0,1.3,0c0,-.1,-.6,-.1,-1.3,-.1Z" class="g2_33"/>
<path fill-rule="evenodd" d="M710.6,805.3c-.7,0,-1.3,0,-1.3,0c0,.1,.6,.1,1.3,.1c.7,0,1.3,0,1.3,-.1c0,0,-.6,0,-1.3,0Z" class="g2_33"/>
<path fill-rule="evenodd" d="M710.6,805.6c-.7,0,-1.3,0,-1.3,0c0,.1,.6,.1,1.3,.1c.7,0,1.3,0,1.3,-.1c0,0,-.6,0,-1.3,0Z" class="g2_33"/>
<path fill-rule="evenodd" d="M710.6,805.9c-.7,0,-1.3,0,-1.3,0c0,0,.6,0,1.3,0c.7,0,1.3,0,1.3,0c0,0,-.6,0,-1.3,0Z" class="g2_33"/>
<path fill-rule="evenodd" d="M710.6,806.1c-.7,0,-1.3,.1,-1.3,.1c0,0,.6,0,1.3,0c.7,0,1.3,0,1.3,0c0,0,-.6,-.1,-1.3,-.1Z" class="g2_33"/>
<path fill-rule="evenodd" d="M710.6,806.4c-.7,0,-1.3,.1,-1.3,.1c0,0,.6,0,1.3,0c.7,0,1.3,0,1.3,0c0,0,-.6,-.1,-1.3,-.1Z" class="g2_33"/>
<path fill-rule="evenodd" d="M718.8,820.2h.8V806.9h-.8v13.3Z" class="g0_33"/>
<image x="715" y="801" width="8" height="8" xlink:href="33/shade/11.png"/>
<image x="715" y="802" width="8" height="7" xlink:href="33/shade/12.png"/>
<path fill-rule="evenodd" d="M719.2,805.2c.5,0,.8,-.3,.8,-.8c0,-.4,-.3,-.8,-.8,-.8c-.4,0,-.8,.4,-.8,.8c0,.5,.4,.8,.8,.8Z" class="g6_33"/>
<path fill-rule="evenodd" d="M719.5,803c-1,0,-1.7,.1,-1.7,.1c0,0,.7,.1,1.7,.1c.9,0,1.7,-.1,1.7,-.1c0,0,-.8,-.1,-1.7,-.1Z" class="g2_33"/>
<path fill-rule="evenodd" d="M719.5,803.4c-1,0,-1.7,0,-1.7,.1c0,0,.7,0,1.7,0c.9,0,1.7,0,1.7,0c0,-.1,-.8,-.1,-1.7,-.1Z" class="g2_33"/>
<path fill-rule="evenodd" d="M719.5,803.8c-1,0,-1.7,0,-1.7,0c0,.1,.7,.1,1.7,.1c.9,0,1.7,0,1.7,-.1c0,0,-.8,0,-1.7,0Z" class="g2_33"/>
<path fill-rule="evenodd" d="M719.5,804.1c-1,0,-1.7,.1,-1.7,.1c0,0,.7,.1,1.7,.1c.9,0,1.7,-.1,1.7,-.1c0,0,-.8,-.1,-1.7,-.1Z" class="g2_33"/>
<path fill-rule="evenodd" d="M719.5,804.5c-1,0,-1.7,0,-1.7,.1c0,0,.7,0,1.7,0c.9,0,1.7,0,1.7,0c0,-.1,-.8,-.1,-1.7,-.1Z" class="g2_33"/>
<path fill-rule="evenodd" d="M719.5,804.9c-1,0,-1.7,0,-1.7,.1c0,0,.7,0,1.7,0c.9,0,1.7,0,1.7,0c0,-.1,-.8,-.1,-1.7,-.1Z" class="g2_33"/>
<path fill-rule="evenodd" d="M719.5,805.3c-1,0,-1.7,0,-1.7,0c0,.1,.7,.1,1.7,.1c.9,0,1.7,0,1.7,-.1c0,0,-.8,0,-1.7,0Z" class="g2_33"/>
<path fill-rule="evenodd" d="M719.5,805.6c-1,0,-1.7,.1,-1.7,.1c0,0,.7,0,1.7,0c.9,0,1.7,0,1.7,0c0,0,-.8,-.1,-1.7,-.1Z" class="g2_33"/>
<path fill-rule="evenodd" d="M730,823.5h1V806.3h-1v17.2Z" class="g0_33"/>
<image x="726" y="798" width="9" height="10" xlink:href="33/shade/13.png"/>
<image x="726" y="800" width="9" height="6" xlink:href="33/shade/14.png"/>
<path fill-rule="evenodd" d="M730.5,804.1c.6,0,1,-.5,1,-1c0,-.6,-.4,-1.1,-1,-1.1c-.6,0,-1.1,.5,-1.1,1.1c0,.5,.5,1,1.1,1Z" class="g7_33"/>
<path fill-rule="evenodd" d="M730.8,801.2c-1.2,0,-2.2,.1,-2.2,.1c0,.1,1,.1,2.2,.1c1.2,0,2.2,0,2.2,-.1c0,0,-1,-.1,-2.2,-.1Z" class="g2_33"/>
<path fill-rule="evenodd" d="M730.8,801.7c-1.2,0,-2.2,.1,-2.2,.1c0,.1,1,.1,2.2,.1c1.2,0,2.2,0,2.2,-.1c0,0,-1,-.1,-2.2,-.1Z" class="g2_33"/>
<path fill-rule="evenodd" d="M730.8,802.2c-1.2,0,-2.2,.1,-2.2,.1c0,0,1,.1,2.2,.1c1.2,0,2.2,-.1,2.2,-.1c0,0,-1,-.1,-2.2,-.1Z" class="g2_33"/>
<path fill-rule="evenodd" d="M730.8,802.7c-1.2,0,-2.2,0,-2.2,.1c0,0,1,0,2.2,0c1.2,0,2.2,0,2.2,0c0,-.1,-1,-.1,-2.2,-.1Z" class="g2_33"/>
<path fill-rule="evenodd" d="M730.8,803.2c-1.2,0,-2.2,0,-2.2,.1c0,0,1,0,2.2,0c1.2,0,2.2,0,2.2,0c0,-.1,-1,-.1,-2.2,-.1Z" class="g2_33"/>
<path fill-rule="evenodd" d="M730.8,803.7c-1.2,0,-2.2,0,-2.2,0c0,.1,1,.1,2.2,.1c1.2,0,2.2,0,2.2,-.1c0,0,-1,0,-2.2,0Z" class="g2_33"/>
<path fill-rule="evenodd" d="M730.8,804.1c-1.2,0,-2.2,.1,-2.2,.1c0,.1,1,.1,2.2,.1c1.2,0,2.2,0,2.2,-.1c0,0,-1,-.1,-2.2,-.1Z" class="g2_33"/>
<path fill-rule="evenodd" d="M730.8,804.6c-1.2,0,-2.2,.1,-2.2,.1c0,0,1,.1,2.2,.1c1.2,0,2.2,-.1,2.2,-.1c0,0,-1,-.1,-2.2,-.1Z" class="g2_33"/>
<path fill-rule="evenodd" d="M745.3,828.2h1.3V805.4h-1.3v22.8Z" class="g0_33"/>
<image x="740" y="795" width="12" height="12" xlink:href="33/shade/15.png"/>
<image x="740" y="797" width="12" height="8" xlink:href="33/shade/16.png"/>
<path fill-rule="evenodd" d="M746,802.6c.7,0,1.3,-.7,1.3,-1.4c0,-.8,-.6,-1.4,-1.3,-1.4c-.8,0,-1.5,.6,-1.5,1.4c0,.7,.7,1.4,1.5,1.4Z" class="g8_33"/>
<path fill-rule="evenodd" d="M746.4,798.8c-1.6,0,-2.9,0,-2.9,.1c0,0,1.3,.1,2.9,.1c1.6,0,2.9,-.1,2.9,-.1c0,-.1,-1.3,-.1,-2.9,-.1Z" class="g2_33"/>
<path fill-rule="evenodd" d="M746.4,799.4c-1.6,0,-2.9,.1,-2.9,.1c0,.1,1.3,.1,2.9,.1c1.6,0,2.9,0,2.9,-.1c0,0,-1.3,-.1,-2.9,-.1Z" class="g2_33"/>
<path fill-rule="evenodd" d="M746.4,800.1c-1.6,0,-2.9,0,-2.9,0c0,.1,1.3,.1,2.9,.1c1.6,0,2.9,0,2.9,-.1c0,0,-1.3,0,-2.9,0Z" class="g2_33"/>
<path fill-rule="evenodd" d="M746.4,800.7c-1.6,0,-2.9,0,-2.9,.1c0,0,1.3,.1,2.9,.1c1.6,0,2.9,-.1,2.9,-.1c0,-.1,-1.3,-.1,-2.9,-.1Z" class="g2_33"/>
<path fill-rule="evenodd" d="M746.4,801.3c-1.6,0,-2.9,.1,-2.9,.1c0,.1,1.3,.1,2.9,.1c1.6,0,2.9,0,2.9,-.1c0,0,-1.3,-.1,-2.9,-.1Z" class="g2_33"/>
<path fill-rule="evenodd" d="M746.4,802c-1.6,0,-2.9,0,-2.9,.1c0,0,1.3,.1,2.9,.1c1.6,0,2.9,-.1,2.9,-.1c0,-.1,-1.3,-.1,-2.9,-.1Z" class="g2_33"/>
<path fill-rule="evenodd" d="M746.4,802.6c-1.6,0,-2.9,0,-2.9,.1c0,.1,1.3,.1,2.9,.1c1.6,0,2.9,0,2.9,-.1c0,-.1,-1.3,-.1,-2.9,-.1Z" class="g2_33"/>
<path fill-rule="evenodd" d="M746.4,803.2c-1.6,0,-2.9,.1,-2.9,.1c0,.1,1.3,.1,2.9,.1c1.6,0,2.9,0,2.9,-.1c0,0,-1.3,-.1,-2.9,-.1Z" class="g2_33"/>
<path fill-rule="evenodd" d="M770,835.6h1.9V804H770v31.6Z" class="g0_33"/>
<image x="763" y="791" width="16" height="15" xlink:href="33/shade/17.png"/>
<image x="763" y="793" width="16" height="9" xlink:href="33/shade/18.png"/>
<path fill-rule="evenodd" d="M770.9,800.1c1.1,0,2,-.9,2,-2c0,-1.1,-.9,-1.9,-2,-1.9c-1,0,-1.9,.8,-1.9,1.9c0,1.1,.9,2,1.9,2Z" class="g9_33"/>
<path fill-rule="evenodd" d="M771.5,794.8c-2.2,0,-4,.1,-4,.1c0,.1,1.8,.2,4,.2c2.3,0,4.1,-.1,4.1,-.2c0,0,-1.8,-.1,-4.1,-.1Z" class="g2_33"/>
<path fill-rule="evenodd" d="M771.5,795.7c-2.2,0,-4,0,-4,.1c0,.1,1.8,.2,4,.2c2.3,0,4.1,-.1,4.1,-.2c0,-.1,-1.8,-.1,-4.1,-.1Z" class="g2_33"/>
<path fill-rule="evenodd" d="M771.5,796.6c-2.2,0,-4,0,-4,.1c0,.1,1.8,.1,4,.1c2.3,0,4.1,0,4.1,-.1c0,-.1,-1.8,-.1,-4.1,-.1Z" class="g2_33"/>
<path fill-rule="evenodd" d="M771.5,797.4c-2.2,0,-4,.1,-4,.2c0,.1,1.8,.1,4,.1c2.3,0,4.1,0,4.1,-.1c0,-.1,-1.8,-.2,-4.1,-.2Z" class="g2_33"/>
<path fill-rule="evenodd" d="M771.5,798.3c-2.2,0,-4,.1,-4,.2c0,0,1.8,.1,4,.1c2.3,0,4.1,-.1,4.1,-.1c0,-.1,-1.8,-.2,-4.1,-.2Z" class="g2_33"/>
<path fill-rule="evenodd" d="M771.5,799.2c-2.2,0,-4,.1,-4,.1c0,.1,1.8,.2,4,.2c2.3,0,4.1,-.1,4.1,-.2c0,0,-1.8,-.1,-4.1,-.1Z" class="g2_33"/>
<path fill-rule="evenodd" d="M771.5,800.1c-2.2,0,-4,.1,-4,.1c0,.1,1.8,.2,4,.2c2.3,0,4.1,-.1,4.1,-.2c0,0,-1.8,-.1,-4.1,-.1Z" class="g2_33"/>
<path fill-rule="evenodd" d="M771.5,801c-2.2,0,-4,0,-4,.1c0,.1,1.8,.2,4,.2c2.3,0,4.1,-.1,4.1,-.2c0,-.1,-1.8,-.1,-4.1,-.1Z" class="g2_33"/>
<g clip-path="url(#c0_33)">
<path fill-rule="evenodd" d="M842,857.3h3.5V800H842v57.3Z" class="g0_33"/>
</g>
<image x="831" y="777" width="14" height="26" xlink:href="33/shade/19.png"/>
<image x="831" y="781" width="14" height="15" xlink:href="33/shade/20.png"/>
<g clip-path="url(#c0_33)">
<path fill-rule="evenodd" d="M843.8,792.7c1.9,0,3.5,-1.6,3.5,-3.5c0,-1.9,-1.6,-3.5,-3.5,-3.5c-2,0,-3.6,1.6,-3.6,3.5c0,1.9,1.6,3.5,3.6,3.5Z" class="ga_33"/>
<path fill-rule="evenodd" d="M844.8,783.2c-4,0,-7.3,.1,-7.3,.2c0,.2,3.3,.3,7.3,.3c4.1,0,7.4,-.1,7.4,-.3c0,-.1,-3.3,-.2,-7.4,-.2Z" class="g2_33"/>
<path fill-rule="evenodd" d="M844.8,784.8c-4,0,-7.3,.1,-7.3,.2c0,.2,3.3,.3,7.3,.3c4.1,0,7.4,-.1,7.4,-.3c0,-.1,-3.3,-.2,-7.4,-.2Z" class="g2_33"/>
<path fill-rule="evenodd" d="M844.8,786.4c-4,0,-7.3,.1,-7.3,.3c0,.1,3.3,.2,7.3,.2c4.1,0,7.4,-.1,7.4,-.2c0,-.2,-3.3,-.3,-7.4,-.3Z" class="g2_33"/>
<path fill-rule="evenodd" d="M844.8,788c-4,0,-7.3,.1,-7.3,.3c0,.1,3.3,.2,7.3,.2c4.1,0,7.4,-.1,7.4,-.2c0,-.2,-3.3,-.3,-7.4,-.3Z" class="g2_33"/>
<path fill-rule="evenodd" d="M844.8,789.6c-4,0,-7.3,.1,-7.3,.3c0,.1,3.3,.2,7.3,.2c4.1,0,7.4,-.1,7.4,-.2c0,-.2,-3.3,-.3,-7.4,-.3Z" class="g2_33"/>
<path fill-rule="evenodd" d="M844.8,791.2c-4,0,-7.3,.1,-7.3,.3c0,.1,3.3,.2,7.3,.2c4.1,0,7.4,-.1,7.4,-.2c0,-.2,-3.3,-.3,-7.4,-.3Z" class="g2_33"/>
<path fill-rule="evenodd" d="M844.8,792.8c-4,0,-7.3,.1,-7.3,.3c0,.1,3.3,.2,7.3,.2c4.1,0,7.4,-.1,7.4,-.2c0,-.2,-3.3,-.3,-7.4,-.3Z" class="g2_33"/>
<path fill-rule="evenodd" d="M844.8,794.4c-4,0,-7.3,.1,-7.3,.3c0,.1,3.3,.2,7.3,.2c4.1,0,7.4,-.1,7.4,-.2c0,-.2,-3.3,-.3,-7.4,-.3Z" class="g2_33"/>
</g>
<path fill-rule="evenodd" d="M658.8,811.9h.2v-3.4h-.2v3.4Z" class="g0_33"/>
<path fill-rule="evenodd" d="M658.9,808.5c.4,0,.7,-.3,.7,-.7c0,-.4,-.3,-.7,-.7,-.7c-.4,0,-.7,.3,-.7,.7c0,.4,.3,.7,.7,.7Z" class="g2_33"/>
<path fill-rule="evenodd" d="M658.4,807.4h1.1c.1,.1,.1,.3,.1,.4c0,.1,0,.3,-.1,.4h-1.1c-.1,-.1,-.2,-.3,-.2,-.4c0,-.1,.1,-.3,.2,-.4Z" class="g2_33"/>
<path fill-rule="evenodd" d="M658.9,808c.2,0,.2,-.1,.2,-.2c0,-.1,0,-.2,-.2,-.2c-.1,0,-.2,.1,-.2,.2c0,.1,.1,.2,.2,.2Z" class="g2_33"/>
<path fill-rule="evenodd" d="M659,807.4c-.2,0,-.4,.1,-.4,.1c0,0,.2,0,.4,0c.3,0,.4,0,.4,0c0,0,-.1,-.1,-.4,-.1Z" class="g2_33"/>
<path fill-rule="evenodd" d="M659,807.6c-.2,0,-.4,0,-.4,0c0,0,.2,0,.4,0c.3,0,.4,0,.4,0c0,0,-.1,0,-.4,0Z" class="g2_33"/>
<path fill-rule="evenodd" d="M659,807.6c-.2,0,-.4,.1,-.4,.1c0,0,.2,0,.4,0c.3,0,.4,0,.4,0c0,0,-.1,-.1,-.4,-.1Z" class="g2_33"/>
<path fill-rule="evenodd" d="M659,807.8c-.2,0,-.4,0,-.4,0c0,0,.2,0,.4,0c.3,0,.4,0,.4,0c0,0,-.1,0,-.4,0Z" class="g2_33"/>
<path fill-rule="evenodd" d="M659,807.8c-.2,0,-.4,0,-.4,.1c0,0,.2,0,.4,0c.3,0,.4,0,.4,0c0,-.1,-.1,-.1,-.4,-.1Z" class="g2_33"/>
<path fill-rule="evenodd" d="M659,807.9c-.2,0,-.4,0,-.4,0c0,.1,.2,.1,.4,.1c.3,0,.4,0,.4,-.1c0,0,-.1,0,-.4,0Z" class="g2_33"/>
<path fill-rule="evenodd" d="M659,808c-.2,0,-.4,0,-.4,.1c0,0,.2,0,.4,0c.3,0,.4,0,.4,0c0,-.1,-.1,-.1,-.4,-.1Z" class="g2_33"/>
<path fill-rule="evenodd" d="M659,808.1c-.2,0,-.4,0,-.4,0c0,0,.2,.1,.4,.1c.3,0,.4,-.1,.4,-.1c0,0,-.1,0,-.4,0Z" class="g2_33"/>
<path fill-rule="evenodd" d="M661.4,813.5h.3v-5.3h-.3v5.3Z" class="g0_33"/>
<image x="659" y="805" width="5" height="5" xlink:href="33/shade/21.png"/>
<image x="659" y="805" width="5" height="4" xlink:href="33/shade/22.png"/>
<path fill-rule="evenodd" d="M661.5,807.5c.2,0,.4,-.2,.4,-.3c0,-.2,-.2,-.4,-.4,-.4c-.1,0,-.3,.2,-.3,.4c0,.1,.2,.3,.3,.3Z" class="g3_33"/>
<path fill-rule="evenodd" d="M661.6,806.6c-.3,0,-.6,0,-.6,0c0,0,.3,0,.6,0c.4,0,.7,0,.7,0c0,0,-.3,0,-.7,0Z" class="g2_33"/>
<path fill-rule="evenodd" d="M661.6,806.7c-.3,0,-.6,.1,-.6,.1c0,0,.3,0,.6,0c.4,0,.7,0,.7,0c0,0,-.3,-.1,-.7,-.1Z" class="g2_33"/>
<path fill-rule="evenodd" d="M661.6,806.9c-.3,0,-.6,0,-.6,0c0,0,.3,0,.6,0c.4,0,.7,0,.7,0c0,0,-.3,0,-.7,0Z" class="g2_33"/>
<path fill-rule="evenodd" d="M661.6,807c-.3,0,-.6,0,-.6,.1c0,0,.3,0,.6,0c.4,0,.7,0,.7,0c0,-.1,-.3,-.1,-.7,-.1Z" class="g2_33"/>
<path fill-rule="evenodd" d="M661.6,807.2c-.3,0,-.6,0,-.6,0c0,0,.3,0,.6,0c.4,0,.7,0,.7,0c0,0,-.3,0,-.7,0Z" class="g2_33"/>
<path fill-rule="evenodd" d="M661.6,807.4c-.3,0,-.6,0,-.6,0c0,0,.3,0,.6,0c.4,0,.7,0,.7,0c0,0,-.3,0,-.7,0Z" class="g2_33"/>
<path fill-rule="evenodd" d="M661.6,807.5c-.3,0,-.6,0,-.6,0c0,0,.3,0,.6,0c.4,0,.7,0,.7,0c0,0,-.3,0,-.7,0Z" class="g2_33"/>
<path fill-rule="evenodd" d="M661.6,807.6c-.3,0,-.6,.1,-.6,.1c0,0,.3,0,.6,0c.4,0,.7,0,.7,0c0,0,-.3,-.1,-.7,-.1Z" class="g2_33"/>
<path fill-rule="evenodd" d="M664.3,815.4h.5v-7.6h-.5v7.6Z" class="g0_33"/>
<image x="662" y="804" width="6" height="6" xlink:href="33/shade/23.png"/>
<image x="662" y="804" width="6" height="5" xlink:href="33/shade/24.png"/>
<path fill-rule="evenodd" d="M664.5,806.9c.3,0,.5,-.2,.5,-.5c0,-.3,-.2,-.5,-.5,-.5c-.2,0,-.4,.2,-.4,.5c0,.3,.2,.5,.4,.5Z" class="g4_33"/>
<path fill-rule="evenodd" d="M664.7,805.6c-.5,0,-1,0,-1,0c0,.1,.5,.1,1,.1c.5,0,1,0,1,-.1c0,0,-.5,0,-1,0Z" class="g2_33"/>
<path fill-rule="evenodd" d="M664.7,805.8c-.5,0,-1,0,-1,.1c0,0,.5,0,1,0c.5,0,1,0,1,0c0,-.1,-.5,-.1,-1,-.1Z" class="g2_33"/>
<path fill-rule="evenodd" d="M664.7,806c-.5,0,-1,0,-1,.1c0,0,.5,0,1,0c.5,0,1,0,1,0c0,-.1,-.5,-.1,-1,-.1Z" class="g2_33"/>
<path fill-rule="evenodd" d="M664.7,806.2c-.5,0,-1,.1,-1,.1c0,0,.5,0,1,0c.5,0,1,0,1,0c0,0,-.5,-.1,-1,-.1Z" class="g2_33"/>
<path fill-rule="evenodd" d="M664.7,806.5c-.5,0,-1,0,-1,0c0,0,.5,0,1,0c.5,0,1,0,1,0c0,0,-.5,0,-1,0Z" class="g2_33"/>
<path fill-rule="evenodd" d="M664.7,806.7c-.5,0,-1,0,-1,0c0,0,.5,0,1,0c.5,0,1,0,1,0c0,0,-.5,0,-1,0Z" class="g2_33"/>
<path fill-rule="evenodd" d="M664.7,806.9c-.5,0,-1,0,-1,0c0,0,.5,0,1,0c.5,0,1,0,1,0c0,0,-.5,0,-1,0Z" class="g2_33"/>
<path fill-rule="evenodd" d="M664.7,807.1c-.5,0,-1,0,-1,0c0,0,.5,.1,1,.1c.5,0,1,-.1,1,-.1c0,0,-.5,0,-1,0Z" class="g2_33"/>
<path fill-rule="evenodd" d="M667.8,817.6h.6V807.4h-.6v10.2Z" class="g0_33"/>
<image x="665" y="802" width="7" height="6" xlink:href="33/shade/25.png"/>
<image x="665" y="803" width="7" height="5" xlink:href="33/shade/26.png"/>
<path fill-rule="evenodd" d="M668.1,806.1c.3,0,.6,-.2,.6,-.6c0,-.3,-.3,-.6,-.6,-.6c-.4,0,-.7,.3,-.7,.6c0,.4,.3,.6,.7,.6Z" class="g5_33"/>
<path fill-rule="evenodd" d="M668.3,804.5c-.8,0,-1.3,0,-1.3,0c0,0,.5,0,1.3,0c.7,0,1.3,0,1.3,0c0,0,-.6,0,-1.3,0Z" class="g2_33"/>
<path fill-rule="evenodd" d="M668.3,804.7c-.8,0,-1.3,.1,-1.3,.1c0,0,.5,0,1.3,0c.7,0,1.3,0,1.3,0c0,0,-.6,-.1,-1.3,-.1Z" class="g2_33"/>
<path fill-rule="evenodd" d="M668.3,805c-.8,0,-1.3,0,-1.3,.1c0,0,.5,0,1.3,0c.7,0,1.3,0,1.3,0c0,-.1,-.6,-.1,-1.3,-.1Z" class="g2_33"/>
<path fill-rule="evenodd" d="M668.3,805.3c-.8,0,-1.3,0,-1.3,0c0,.1,.5,.1,1.3,.1c.7,0,1.3,0,1.3,-.1c0,0,-.6,0,-1.3,0Z" class="g2_33"/>
<path fill-rule="evenodd" d="M668.3,805.6c-.8,0,-1.3,0,-1.3,0c0,.1,.5,.1,1.3,.1c.7,0,1.3,0,1.3,-.1c0,0,-.6,0,-1.3,0Z" class="g2_33"/>
<path fill-rule="evenodd" d="M668.3,805.9c-.8,0,-1.3,0,-1.3,0c0,0,.5,0,1.3,0c.7,0,1.3,0,1.3,0c0,0,-.6,0,-1.3,0Z" class="g2_33"/>
<path fill-rule="evenodd" d="M668.3,806.1c-.8,0,-1.3,.1,-1.3,.1c0,0,.5,0,1.3,0c.7,0,1.3,0,1.3,0c0,0,-.6,-.1,-1.3,-.1Z" class="g2_33"/>
<path fill-rule="evenodd" d="M668.3,806.4c-.8,0,-1.3,.1,-1.3,.1c0,0,.5,0,1.3,0c.7,0,1.3,0,1.3,0c0,0,-.6,-.1,-1.3,-.1Z" class="g2_33"/>
<path fill-rule="evenodd" d="M671.9,820.2h.8V806.9h-.8v13.3Z" class="g0_33"/>
<image x="668" y="801" width="9" height="8" xlink:href="33/shade/27.png"/>
<image x="668" y="802" width="9" height="7" xlink:href="33/shade/28.png"/>
<path fill-rule="evenodd" d="M672.3,805.2c.5,0,.9,-.3,.9,-.8c0,-.4,-.4,-.8,-.9,-.8c-.4,0,-.8,.4,-.8,.8c0,.5,.4,.8,.8,.8Z" class="g6_33"/>
<path fill-rule="evenodd" d="M672.6,803c-.9,0,-1.7,.1,-1.7,.1c0,0,.8,.1,1.7,.1c.9,0,1.7,-.1,1.7,-.1c0,0,-.8,-.1,-1.7,-.1Z" class="g2_33"/>
<path fill-rule="evenodd" d="M672.6,803.4c-.9,0,-1.7,0,-1.7,.1c0,0,.8,0,1.7,0c.9,0,1.7,0,1.7,0c0,-.1,-.8,-.1,-1.7,-.1Z" class="g2_33"/>
<path fill-rule="evenodd" d="M672.6,803.8c-.9,0,-1.7,0,-1.7,0c0,.1,.8,.1,1.7,.1c.9,0,1.7,0,1.7,-.1c0,0,-.8,0,-1.7,0Z" class="g2_33"/>
<path fill-rule="evenodd" d="M672.6,804.1c-.9,0,-1.7,.1,-1.7,.1c0,0,.8,.1,1.7,.1c.9,0,1.7,-.1,1.7,-.1c0,0,-.8,-.1,-1.7,-.1Z" class="g2_33"/>
<path fill-rule="evenodd" d="M672.6,804.5c-.9,0,-1.7,0,-1.7,.1c0,0,.8,0,1.7,0c.9,0,1.7,0,1.7,0c0,-.1,-.8,-.1,-1.7,-.1Z" class="g2_33"/>
<path fill-rule="evenodd" d="M672.6,804.9c-.9,0,-1.7,0,-1.7,.1c0,0,.8,0,1.7,0c.9,0,1.7,0,1.7,0c0,-.1,-.8,-.1,-1.7,-.1Z" class="g2_33"/>
<path fill-rule="evenodd" d="M672.6,805.3c-.9,0,-1.7,0,-1.7,0c0,.1,.8,.1,1.7,.1c.9,0,1.7,0,1.7,-.1c0,0,-.8,0,-1.7,0Z" class="g2_33"/>
<path fill-rule="evenodd" d="M672.6,805.6c-.9,0,-1.7,.1,-1.7,.1c0,0,.8,0,1.7,0c.9,0,1.7,0,1.7,0c0,0,-.8,-.1,-1.7,-.1Z" class="g2_33"/>
<path fill-rule="evenodd" d="M677.3,823.5h1V806.3h-1v17.2Z" class="g0_33"/>
<image x="673" y="798" width="10" height="10" xlink:href="33/shade/29.png"/>
<image x="673" y="800" width="10" height="6" xlink:href="33/shade/30.png"/>
<path fill-rule="evenodd" d="M677.8,804.1c.6,0,1.1,-.5,1.1,-1c0,-.6,-.5,-1.1,-1.1,-1.1c-.6,0,-1.1,.5,-1.1,1.1c0,.5,.5,1,1.1,1Z" class="g7_33"/>
<path fill-rule="evenodd" d="M678.1,801.2c-1.2,0,-2.2,.1,-2.2,.1c0,.1,1,.1,2.2,.1c1.2,0,2.2,0,2.2,-.1c0,0,-1,-.1,-2.2,-.1Z" class="g2_33"/>
<path fill-rule="evenodd" d="M678.1,801.7c-1.2,0,-2.2,.1,-2.2,.1c0,.1,1,.1,2.2,.1c1.2,0,2.2,0,2.2,-.1c0,0,-1,-.1,-2.2,-.1Z" class="g2_33"/>
<path fill-rule="evenodd" d="M678.1,802.2c-1.2,0,-2.2,.1,-2.2,.1c0,0,1,.1,2.2,.1c1.2,0,2.2,-.1,2.2,-.1c0,0,-1,-.1,-2.2,-.1Z" class="g2_33"/>
<path fill-rule="evenodd" d="M678.1,802.7c-1.2,0,-2.2,0,-2.2,.1c0,0,1,0,2.2,0c1.2,0,2.2,0,2.2,0c0,-.1,-1,-.1,-2.2,-.1Z" class="g2_33"/>
<path fill-rule="evenodd" d="M678.1,803.2c-1.2,0,-2.2,0,-2.2,.1c0,0,1,0,2.2,0c1.2,0,2.2,0,2.2,0c0,-.1,-1,-.1,-2.2,-.1Z" class="g2_33"/>
<path fill-rule="evenodd" d="M678.1,803.7c-1.2,0,-2.2,0,-2.2,0c0,.1,1,.1,2.2,.1c1.2,0,2.2,0,2.2,-.1c0,0,-1,0,-2.2,0Z" class="g2_33"/>
<path fill-rule="evenodd" d="M678.1,804.1c-1.2,0,-2.2,.1,-2.2,.1c0,.1,1,.1,2.2,.1c1.2,0,2.2,0,2.2,-.1c0,0,-1,-.1,-2.2,-.1Z" class="g2_33"/>
<path fill-rule="evenodd" d="M678.1,804.6c-1.2,0,-2.2,.1,-2.2,.1c0,0,1,.1,2.2,.1c1.2,0,2.2,-.1,2.2,-.1c0,0,-1,-.1,-2.2,-.1Z" class="g2_33"/>
<path fill-rule="evenodd" d="M684.6,828.2H686V805.4h-1.4v22.8Z" class="g0_33"/>
<image x="679" y="795" width="11" height="12" xlink:href="33/shade/31.png"/>
<image x="679" y="797" width="11" height="8" xlink:href="33/shade/32.png"/>
<path fill-rule="evenodd" d="M685.3,802.6c.8,0,1.4,-.7,1.4,-1.4c0,-.8,-.6,-1.4,-1.4,-1.4c-.8,0,-1.4,.6,-1.4,1.4c0,.7,.6,1.4,1.4,1.4Z" class="g8_33"/>
<path fill-rule="evenodd" d="M685.7,798.8c-1.6,0,-2.9,0,-2.9,.1c0,0,1.3,.1,2.9,.1c1.6,0,2.9,-.1,2.9,-.1c0,-.1,-1.3,-.1,-2.9,-.1Z" class="g2_33"/>
<path fill-rule="evenodd" d="M685.7,799.4c-1.6,0,-2.9,.1,-2.9,.1c0,.1,1.3,.1,2.9,.1c1.6,0,2.9,0,2.9,-.1c0,0,-1.3,-.1,-2.9,-.1Z" class="g2_33"/>
<path fill-rule="evenodd" d="M685.7,800.1c-1.6,0,-2.9,0,-2.9,0c0,.1,1.3,.1,2.9,.1c1.6,0,2.9,0,2.9,-.1c0,0,-1.3,0,-2.9,0Z" class="g2_33"/>
<path fill-rule="evenodd" d="M685.7,800.7c-1.6,0,-2.9,0,-2.9,.1c0,0,1.3,.1,2.9,.1c1.6,0,2.9,-.1,2.9,-.1c0,-.1,-1.3,-.1,-2.9,-.1Z" class="g2_33"/>
<path fill-rule="evenodd" d="M685.7,801.3c-1.6,0,-2.9,.1,-2.9,.1c0,.1,1.3,.1,2.9,.1c1.6,0,2.9,0,2.9,-.1c0,0,-1.3,-.1,-2.9,-.1Z" class="g2_33"/>
<path fill-rule="evenodd" d="M685.7,802c-1.6,0,-2.9,0,-2.9,.1c0,0,1.3,.1,2.9,.1c1.6,0,2.9,-.1,2.9,-.1c0,-.1,-1.3,-.1,-2.9,-.1Z" class="g2_33"/>
<path fill-rule="evenodd" d="M685.7,802.6c-1.6,0,-2.9,0,-2.9,.1c0,.1,1.3,.1,2.9,.1c1.6,0,2.9,0,2.9,-.1c0,-.1,-1.3,-.1,-2.9,-.1Z" class="g2_33"/>
<path fill-rule="evenodd" d="M685.7,803.2c-1.6,0,-2.9,.1,-2.9,.1c0,.1,1.3,.1,2.9,.1c1.6,0,2.9,0,2.9,-.1c0,0,-1.3,-.1,-2.9,-.1Z" class="g2_33"/>
<path fill-rule="evenodd" d="M696.4,835.6h1.9V804h-1.9v31.6Z" class="g0_33"/>
<image x="690" y="791" width="16" height="15" xlink:href="33/shade/33.png"/>
<image x="690" y="793" width="16" height="9" xlink:href="33/shade/34.png"/>
<path fill-rule="evenodd" d="M697.4,800.1c1.1,0,1.9,-.9,1.9,-2c0,-1.1,-.8,-1.9,-1.9,-1.9c-1.1,0,-1.9,.8,-1.9,1.9c0,1.1,.8,2,1.9,2Z" class="g9_33"/>
<path fill-rule="evenodd" d="M698,794.8c-2.2,0,-4.1,.1,-4.1,.1c0,.1,1.9,.2,4.1,.2c2.2,0,4,-.1,4,-.2c0,0,-1.8,-.1,-4,-.1Z" class="g2_33"/>
<path fill-rule="evenodd" d="M698,795.7c-2.2,0,-4.1,0,-4.1,.1c0,.1,1.9,.2,4.1,.2c2.2,0,4,-.1,4,-.2c0,-.1,-1.8,-.1,-4,-.1Z" class="g2_33"/>
<path fill-rule="evenodd" d="M698,796.6c-2.2,0,-4.1,0,-4.1,.1c0,.1,1.9,.1,4.1,.1c2.2,0,4,0,4,-.1c0,-.1,-1.8,-.1,-4,-.1Z" class="g2_33"/>
<path fill-rule="evenodd" d="M698,797.4c-2.2,0,-4.1,.1,-4.1,.2c0,.1,1.9,.1,4.1,.1c2.2,0,4,0,4,-.1c0,-.1,-1.8,-.2,-4,-.2Z" class="g2_33"/>
<path fill-rule="evenodd" d="M698,798.3c-2.2,0,-4.1,.1,-4.1,.2c0,0,1.9,.1,4.1,.1c2.2,0,4,-.1,4,-.1c0,-.1,-1.8,-.2,-4,-.2Z" class="g2_33"/>
<path fill-rule="evenodd" d="M698,799.2c-2.2,0,-4.1,.1,-4.1,.1c0,.1,1.9,.2,4.1,.2c2.2,0,4,-.1,4,-.2c0,0,-1.8,-.1,-4,-.1Z" class="g2_33"/>
<path fill-rule="evenodd" d="M698,800.1c-2.2,0,-4.1,.1,-4.1,.1c0,.1,1.9,.2,4.1,.2c2.2,0,4,-.1,4,-.2c0,0,-1.8,-.1,-4,-.1Z" class="g2_33"/>
<path fill-rule="evenodd" d="M698,801c-2.2,0,-4.1,0,-4.1,.1c0,.1,1.9,.2,4.1,.2c2.2,0,4,-.1,4,-.2c0,-.1,-1.8,-.1,-4,-.1Z" class="g2_33"/>
<path fill-rule="evenodd" d="M730.9,857.3h3.5V800h-3.5v57.3Z" class="g0_33"/>
<image x="720" y="777" width="26" height="26" xlink:href="33/shade/35.png"/>
<image x="720" y="781" width="26" height="15" xlink:href="33/shade/36.png"/>
<path fill-rule="evenodd" d="M732.7,792.7c1.9,0,3.5,-1.6,3.5,-3.5c0,-1.9,-1.6,-3.5,-3.5,-3.5c-2,0,-3.6,1.6,-3.6,3.5c0,1.9,1.6,3.5,3.6,3.5Z" class="ga_33"/>
<path fill-rule="evenodd" d="M733.8,783.2c-4.1,0,-7.4,.1,-7.4,.2c0,.2,3.3,.3,7.4,.3c4,0,7.3,-.1,7.3,-.3c0,-.1,-3.3,-.2,-7.3,-.2Z" class="g2_33"/>
<path fill-rule="evenodd" d="M733.8,784.8c-4.1,0,-7.4,.1,-7.4,.2c0,.2,3.3,.3,7.4,.3c4,0,7.3,-.1,7.3,-.3c0,-.1,-3.3,-.2,-7.3,-.2Z" class="g2_33"/>
<path fill-rule="evenodd" d="M733.8,786.4c-4.1,0,-7.4,.1,-7.4,.3c0,.1,3.3,.2,7.4,.2c4,0,7.3,-.1,7.3,-.2c0,-.2,-3.3,-.3,-7.3,-.3Z" class="g2_33"/>
<path fill-rule="evenodd" d="M733.8,788c-4.1,0,-7.4,.1,-7.4,.3c0,.1,3.3,.2,7.4,.2c4,0,7.3,-.1,7.3,-.2c0,-.2,-3.3,-.3,-7.3,-.3Z" class="g2_33"/>
<path fill-rule="evenodd" d="M733.8,789.6c-4.1,0,-7.4,.1,-7.4,.3c0,.1,3.3,.2,7.4,.2c4,0,7.3,-.1,7.3,-.2c0,-.2,-3.3,-.3,-7.3,-.3Z" class="g2_33"/>
<path fill-rule="evenodd" d="M733.8,791.2c-4.1,0,-7.4,.1,-7.4,.3c0,.1,3.3,.2,7.4,.2c4,0,7.3,-.1,7.3,-.2c0,-.2,-3.3,-.3,-7.3,-.3Z" class="g2_33"/>
<path fill-rule="evenodd" d="M733.8,792.8c-4.1,0,-7.4,.1,-7.4,.3c0,.1,3.3,.2,7.4,.2c4,0,7.3,-.1,7.3,-.2c0,-.2,-3.3,-.3,-7.3,-.3Z" class="g2_33"/>
<path fill-rule="evenodd" d="M733.8,794.4c-4.1,0,-7.4,.1,-7.4,.3c0,.1,3.3,.2,7.4,.2c4,0,7.3,-.1,7.3,-.2c0,-.2,-3.3,-.3,-7.3,-.3Z" class="g2_33"/>
<path fill-rule="evenodd" d="M606.3,812.2h.2v-3.4h-.2v3.4Z" class="g0_33"/>
<path fill-rule="evenodd" d="M606.4,808.8c-.4,0,-.7,-.3,-.7,-.7c0,-.4,.3,-.7,.7,-.7c.4,0,.7,.3,.7,.7c0,.4,-.3,.7,-.7,.7Z" class="g2_33"/>
<path fill-rule="evenodd" d="M607,807.7h-1.2c0,.1,-.1,.3,-.1,.4c0,.1,0,.3,.1,.4H607c0,-.1,.1,-.3,.1,-.4c0,-.1,-.1,-.3,-.1,-.4Z" class="g2_33"/>
<path fill-rule="evenodd" d="M606.4,808.3c-.1,0,-.2,-.1,-.2,-.2c0,-.1,.1,-.2,.2,-.2c.1,0,.2,.1,.2,.2c0,.1,-.1,.2,-.2,.2Z" class="g2_33"/>
<path fill-rule="evenodd" d="M606.3,807.8c.3,0,.5,0,.5,0c0,0,-.2,0,-.5,0c-.2,0,-.4,0,-.4,0c0,0,.2,0,.4,0Z" class="g2_33"/>
<path fill-rule="evenodd" d="M606.3,807.8c.3,0,.5,0,.5,.1c0,0,-.2,0,-.5,0c-.2,0,-.4,0,-.4,0c0,-.1,.2,-.1,.4,-.1Z" class="g2_33"/>
<path fill-rule="evenodd" d="M606.3,807.9c.3,0,.5,0,.5,0c0,.1,-.2,.1,-.5,.1c-.2,0,-.4,0,-.4,-.1c0,0,.2,0,.4,0Z" class="g2_33"/>
<path fill-rule="evenodd" d="M606.3,808c.3,0,.5,0,.5,.1c0,0,-.2,0,-.5,0c-.2,0,-.4,0,-.4,0c0,-.1,.2,-.1,.4,-.1Z" class="g2_33"/>
<path fill-rule="evenodd" d="M606.3,808.1c.3,0,.5,0,.5,0c0,0,-.2,.1,-.5,.1c-.2,0,-.4,-.1,-.4,-.1c0,0,.2,0,.4,0Z" class="g2_33"/>
<path fill-rule="evenodd" d="M606.3,808.2c.3,0,.5,0,.5,0c0,.1,-.2,.1,-.5,.1c-.2,0,-.4,0,-.4,-.1c0,0,.2,0,.4,0Z" class="g2_33"/>
<path fill-rule="evenodd" d="M606.3,808.3c.3,0,.5,0,.5,0c0,0,-.2,.1,-.5,.1c-.2,0,-.4,-.1,-.4,-.1c0,0,.2,0,.4,0Z" class="g2_33"/>
<path fill-rule="evenodd" d="M606.3,808.4c.3,0,.5,0,.5,0c0,.1,-.2,.1,-.5,.1c-.2,0,-.4,0,-.4,-.1c0,0,.2,0,.4,0Z" class="g2_33"/>
<path fill-rule="evenodd" d="M600.9,813.8h.3v-5.3h-.3v5.3Z" class="g0_33"/>
<image x="599" y="805" width="4" height="5" xlink:href="33/shade/37.png"/>
<image x="599" y="806" width="4" height="4" xlink:href="33/shade/38.png"/>
<path fill-rule="evenodd" d="M601,807.8c-.2,0,-.3,-.2,-.3,-.4c0,-.1,.1,-.3,.3,-.3c.2,0,.3,.2,.3,.3c0,.2,-.1,.4,-.3,.4Z" class="g3_33"/>
<path fill-rule="evenodd" d="M600.9,806.9c.4,0,.7,0,.7,0c0,0,-.3,0,-.7,0c-.4,0,-.7,0,-.7,0c0,0,.3,0,.7,0Z" class="g2_33"/>
<path fill-rule="evenodd" d="M600.9,807c.4,0,.7,0,.7,.1c0,0,-.3,0,-.7,0c-.4,0,-.7,0,-.7,0c0,-.1,.3,-.1,.7,-.1Z" class="g2_33"/>
<path fill-rule="evenodd" d="M600.9,807.2c.4,0,.7,0,.7,0c0,0,-.3,0,-.7,0c-.4,0,-.7,0,-.7,0c0,0,.3,0,.7,0Z" class="g2_33"/>
<path fill-rule="evenodd" d="M600.9,807.3c.4,0,.7,.1,.7,.1c0,0,-.3,0,-.7,0c-.4,0,-.7,0,-.7,0c0,0,.3,-.1,.7,-.1Z" class="g2_33"/>
<path fill-rule="evenodd" d="M600.9,807.5c.4,0,.7,0,.7,0c0,0,-.3,0,-.7,0c-.4,0,-.7,0,-.7,0c0,0,.3,0,.7,0Z" class="g2_33"/>
<path fill-rule="evenodd" d="M600.9,807.6c.4,0,.7,0,.7,.1c0,0,-.3,0,-.7,0c-.4,0,-.7,0,-.7,0c0,-.1,.3,-.1,.7,-.1Z" class="g2_33"/>
<path fill-rule="evenodd" d="M600.9,807.8c.4,0,.7,0,.7,0c0,0,-.3,0,-.7,0c-.4,0,-.7,0,-.7,0c0,0,.3,0,.7,0Z" class="g2_33"/>
<path fill-rule="evenodd" d="M600.9,807.9c.4,0,.7,0,.7,.1c0,0,-.3,0,-.7,0c-.4,0,-.7,0,-.7,0c0,-.1,.3,-.1,.7,-.1Z" class="g2_33"/>
<path fill-rule="evenodd" d="M594.6,815.7h.5v-7.6h-.5v7.6Z" class="g0_33"/>
<image x="592" y="804" width="6" height="6" xlink:href="33/shade/39.png"/>
<image x="592" y="805" width="6" height="4" xlink:href="33/shade/40.png"/>
<path fill-rule="evenodd" d="M594.8,807.2c-.2,0,-.4,-.3,-.4,-.5c0,-.3,.2,-.5,.4,-.5c.3,0,.5,.2,.5,.5c0,.2,-.2,.5,-.5,.5Z" class="g4_33"/>
<path fill-rule="evenodd" d="M594.7,805.9c.5,0,1,0,1,0c0,0,-.5,.1,-1,.1c-.5,0,-1,-.1,-1,-.1c0,0,.5,0,1,0Z" class="g2_33"/>
<path fill-rule="evenodd" d="M594.7,806.1c.5,0,1,0,1,0c0,.1,-.5,.1,-1,.1c-.5,0,-1,0,-1,-.1c0,0,.5,0,1,0Z" class="g2_33"/>
<path fill-rule="evenodd" d="M594.7,806.3c.5,0,1,0,1,.1c0,0,-.5,0,-1,0c-.5,0,-1,0,-1,0c0,-.1,.5,-.1,1,-.1Z" class="g2_33"/>
<path fill-rule="evenodd" d="M594.7,806.5c.5,0,1,0,1,.1c0,0,-.5,0,-1,0c-.5,0,-1,0,-1,0c0,-.1,.5,-.1,1,-.1Z" class="g2_33"/>
<path fill-rule="evenodd" d="M594.7,806.7c.5,0,1,.1,1,.1c0,0,-.5,0,-1,0c-.5,0,-1,0,-1,0c0,0,.5,-.1,1,-.1Z" class="g2_33"/>
<path fill-rule="evenodd" d="M594.7,807c.5,0,1,0,1,0c0,0,-.5,0,-1,0c-.5,0,-1,0,-1,0c0,0,.5,0,1,0Z" class="g2_33"/>
<path fill-rule="evenodd" d="M594.7,807.2c.5,0,1,0,1,0c0,0,-.5,0,-1,0c-.5,0,-1,0,-1,0c0,0,.5,0,1,0Z" class="g2_33"/>
<path fill-rule="evenodd" d="M594.7,807.4c.5,0,1,0,1,0c0,0,-.5,0,-1,0c-.5,0,-1,0,-1,0c0,0,.5,0,1,0Z" class="g2_33"/>
<path fill-rule="evenodd" d="M587.2,817.8h.7V807.7h-.7v10.1Z" class="g0_33"/>
<image x="584" y="803" width="7" height="6" xlink:href="33/shade/41.png"/>
<image x="584" y="803" width="7" height="5" xlink:href="33/shade/42.png"/>
<path fill-rule="evenodd" d="M587.6,806.4c-.4,0,-.7,-.3,-.7,-.6c0,-.3,.3,-.6,.7,-.6c.3,0,.6,.3,.6,.6c0,.3,-.3,.6,-.6,.6Z" class="g5_33"/>
<path fill-rule="evenodd" d="M587.4,804.7c.7,0,1.3,.1,1.3,.1c0,0,-.6,0,-1.3,0c-.8,0,-1.3,0,-1.3,0c0,0,.5,-.1,1.3,-.1Z" class="g2_33"/>
<path fill-rule="evenodd" d="M587.4,805c.7,0,1.3,0,1.3,.1c0,0,-.6,0,-1.3,0c-.8,0,-1.3,0,-1.3,0c0,-.1,.5,-.1,1.3,-.1Z" class="g2_33"/>
<path fill-rule="evenodd" d="M587.4,805.3c.7,0,1.3,0,1.3,.1c0,0,-.6,0,-1.3,0c-.8,0,-1.3,0,-1.3,0c0,-.1,.5,-.1,1.3,-.1Z" class="g2_33"/>
<path fill-rule="evenodd" d="M587.4,805.6c.7,0,1.3,0,1.3,0c0,.1,-.6,.1,-1.3,.1c-.8,0,-1.3,0,-1.3,-.1c0,0,.5,0,1.3,0Z" class="g2_33"/>
<path fill-rule="evenodd" d="M587.4,805.9c.7,0,1.3,0,1.3,0c0,0,-.6,.1,-1.3,.1c-.8,0,-1.3,-.1,-1.3,-.1c0,0,.5,0,1.3,0Z" class="g2_33"/>
<path fill-rule="evenodd" d="M587.4,806.2c.7,0,1.3,0,1.3,0c0,0,-.6,.1,-1.3,.1c-.8,0,-1.3,-.1,-1.3,-.1c0,0,.5,0,1.3,0Z" class="g2_33"/>
<path fill-rule="evenodd" d="M587.4,806.4c.7,0,1.3,.1,1.3,.1c0,0,-.6,0,-1.3,0c-.8,0,-1.3,0,-1.3,0c0,0,.5,-.1,1.3,-.1Z" class="g2_33"/>
<path fill-rule="evenodd" d="M587.4,806.7c.7,0,1.3,0,1.3,.1c0,0,-.6,0,-1.3,0c-.8,0,-1.3,0,-1.3,0c0,-.1,.5,-.1,1.3,-.1Z" class="g2_33"/>
<path fill-rule="evenodd" d="M578.3,820.5h.8V807.2h-.8v13.3Z" class="g0_33"/>
<image x="575" y="801" width="8" height="9" xlink:href="33/shade/43.png"/>
<image x="575" y="802" width="8" height="5" xlink:href="33/shade/44.png"/>
<path fill-rule="evenodd" d="M578.7,805.5c-.4,0,-.8,-.3,-.8,-.8c0,-.4,.4,-.8,.8,-.8c.5,0,.8,.4,.8,.8c0,.5,-.3,.8,-.8,.8Z" class="g6_33"/>
<path fill-rule="evenodd" d="M578.5,803.3c.9,0,1.7,.1,1.7,.1c0,0,-.8,0,-1.7,0c-1,0,-1.7,0,-1.7,0c0,0,.7,-.1,1.7,-.1Z" class="g2_33"/>
<path fill-rule="evenodd" d="M578.5,803.7c.9,0,1.7,0,1.7,.1c0,0,-.8,0,-1.7,0c-1,0,-1.7,0,-1.7,0c0,-.1,.7,-.1,1.7,-.1Z" class="g2_33"/>
<path fill-rule="evenodd" d="M578.5,804.1c.9,0,1.7,0,1.7,0c0,.1,-.8,.1,-1.7,.1c-1,0,-1.7,0,-1.7,-.1c0,0,.7,0,1.7,0Z" class="g2_33"/>
<path fill-rule="evenodd" d="M578.5,804.5c.9,0,1.7,0,1.7,0c0,0,-.8,.1,-1.7,.1c-1,0,-1.7,-.1,-1.7,-.1c0,0,.7,0,1.7,0Z" class="g2_33"/>
<path fill-rule="evenodd" d="M578.5,804.8c.9,0,1.7,0,1.7,.1c0,0,-.8,0,-1.7,0c-1,0,-1.7,0,-1.7,0c0,-.1,.7,-.1,1.7,-.1Z" class="g2_33"/>
<path fill-rule="evenodd" d="M578.5,805.2c.9,0,1.7,0,1.7,0c0,.1,-.8,.1,-1.7,.1c-1,0,-1.7,0,-1.7,-.1c0,0,.7,0,1.7,0Z" class="g2_33"/>
<path fill-rule="evenodd" d="M578.5,805.6c.9,0,1.7,0,1.7,0c0,0,-.8,.1,-1.7,.1c-1,0,-1.7,-.1,-1.7,-.1c0,0,.7,0,1.7,0Z" class="g2_33"/>
<path fill-rule="evenodd" d="M578.5,805.9c.9,0,1.7,0,1.7,.1c0,0,-.8,.1,-1.7,.1c-1,0,-1.7,-.1,-1.7,-.1c0,-.1,.7,-.1,1.7,-.1Z" class="g2_33"/>
<path fill-rule="evenodd" d="M567,823.8h1V806.6h-1v17.2Z" class="g0_33"/>
<image x="563" y="799" width="10" height="10" xlink:href="33/shade/45.png"/>
<image x="563" y="800" width="10" height="7" xlink:href="33/shade/46.png"/>
<path fill-rule="evenodd" d="M567.5,804.4c-.6,0,-1.1,-.5,-1.1,-1c0,-.6,.5,-1.1,1.1,-1.1c.6,0,1,.5,1,1.1c0,.5,-.4,1,-1,1Z" class="g7_33"/>
<path fill-rule="evenodd" d="M567.1,801.5c1.3,0,2.3,.1,2.3,.1c0,.1,-1,.1,-2.3,.1c-1.2,0,-2.2,0,-2.2,-.1c0,0,1,-.1,2.2,-.1Z" class="g2_33"/>
<path fill-rule="evenodd" d="M567.1,802c1.3,0,2.3,.1,2.3,.1c0,0,-1,.1,-2.3,.1c-1.2,0,-2.2,-.1,-2.2,-.1c0,0,1,-.1,2.2,-.1Z" class="g2_33"/>
<path fill-rule="evenodd" d="M567.1,802.5c1.3,0,2.3,0,2.3,.1c0,0,-1,0,-2.3,0c-1.2,0,-2.2,0,-2.2,0c0,-.1,1,-.1,2.2,-.1Z" class="g2_33"/>
<path fill-rule="evenodd" d="M567.1,803c1.3,0,2.3,0,2.3,.1c0,0,-1,0,-2.3,0c-1.2,0,-2.2,0,-2.2,0c0,-.1,1,-.1,2.2,-.1Z" class="g2_33"/>
<path fill-rule="evenodd" d="M567.1,803.5c1.3,0,2.3,0,2.3,0c0,.1,-1,.1,-2.3,.1c-1.2,0,-2.2,0,-2.2,-.1c0,0,1,0,2.2,0Z" class="g2_33"/>
<path fill-rule="evenodd" d="M567.1,803.9c1.3,0,2.3,.1,2.3,.1c0,.1,-1,.1,-2.3,.1c-1.2,0,-2.2,0,-2.2,-.1c0,0,1,-.1,2.2,-.1Z" class="g2_33"/>
<path fill-rule="evenodd" d="M567.1,804.4c1.3,0,2.3,.1,2.3,.1c0,.1,-1,.1,-2.3,.1c-1.2,0,-2.2,0,-2.2,-.1c0,0,1,-.1,2.2,-.1Z" class="g2_33"/>
<path fill-rule="evenodd" d="M567.1,804.9c1.3,0,2.3,.1,2.3,.1c0,0,-1,.1,-2.3,.1c-1.2,0,-2.2,-.1,-2.2,-.1c0,0,1,-.1,2.2,-.1Z" class="g2_33"/>
<path fill-rule="evenodd" d="M551.3,828.5h1.4V805.7h-1.4v22.8Z" class="g0_33"/>
<image x="546" y="796" width="12" height="11" xlink:href="33/shade/47.png"/>
<image x="546" y="798" width="12" height="8" xlink:href="33/shade/48.png"/>
<path fill-rule="evenodd" d="M552,802.8c-.8,0,-1.4,-.6,-1.4,-1.3c0,-.8,.6,-1.4,1.4,-1.4c.8,0,1.4,.6,1.4,1.4c0,.7,-.6,1.3,-1.4,1.3Z" class="g8_33"/>
<path fill-rule="evenodd" d="M551.6,799.1c1.6,0,2.9,0,2.9,.1c0,0,-1.3,.1,-2.9,.1c-1.6,0,-2.9,-.1,-2.9,-.1c0,-.1,1.3,-.1,2.9,-.1Z" class="g2_33"/>
<path fill-rule="evenodd" d="M551.6,799.7c1.6,0,2.9,0,2.9,.1c0,.1,-1.3,.1,-2.9,.1c-1.6,0,-2.9,0,-2.9,-.1c0,-.1,1.3,-.1,2.9,-.1Z" class="g2_33"/>
<path fill-rule="evenodd" d="M551.6,800.3c1.6,0,2.9,.1,2.9,.1c0,.1,-1.3,.1,-2.9,.1c-1.6,0,-2.9,0,-2.9,-.1c0,0,1.3,-.1,2.9,-.1Z" class="g2_33"/>
<path fill-rule="evenodd" d="M551.6,801c1.6,0,2.9,0,2.9,.1c0,0,-1.3,.1,-2.9,.1c-1.6,0,-2.9,-.1,-2.9,-.1c0,-.1,1.3,-.1,2.9,-.1Z" class="g2_33"/>
<path fill-rule="evenodd" d="M551.6,801.6c1.6,0,2.9,.1,2.9,.1c0,.1,-1.3,.1,-2.9,.1c-1.6,0,-2.9,0,-2.9,-.1c0,0,1.3,-.1,2.9,-.1Z" class="g2_33"/>
<path fill-rule="evenodd" d="M551.6,802.3c1.6,0,2.9,0,2.9,.1c0,0,-1.3,0,-2.9,0c-1.6,0,-2.9,0,-2.9,0c0,-.1,1.3,-.1,2.9,-.1Z" class="g2_33"/>
<path fill-rule="evenodd" d="M551.6,802.9c1.6,0,2.9,0,2.9,.1c0,0,-1.3,.1,-2.9,.1c-1.6,0,-2.9,-.1,-2.9,-.1c0,-.1,1.3,-.1,2.9,-.1Z" class="g2_33"/>
<path fill-rule="evenodd" d="M551.6,803.5c1.6,0,2.9,.1,2.9,.1c0,.1,-1.3,.1,-2.9,.1c-1.6,0,-2.9,0,-2.9,-.1c0,0,1.3,-.1,2.9,-.1Z" class="g2_33"/>
<path fill-rule="evenodd" d="M526.1,835.9H528V804.3h-1.9v31.6Z" class="g0_33"/>
<image x="519" y="791" width="15" height="15" xlink:href="33/shade/49.png"/>
<image x="519" y="794" width="15" height="10" xlink:href="33/shade/50.png"/>
<path fill-rule="evenodd" d="M527,800.3c-1.1,0,-1.9,-.8,-1.9,-1.9c0,-1.1,.8,-1.9,1.9,-1.9c1.1,0,1.9,.8,1.9,1.9c0,1.1,-.8,1.9,-1.9,1.9Z" class="g9_33"/>
<path fill-rule="evenodd" d="M526.4,795.1c2.2,0,4,0,4,.1c0,.1,-1.8,.2,-4,.2c-2.2,0,-4,-.1,-4,-.2c0,-.1,1.8,-.1,4,-.1Z" class="g2_33"/>
<path fill-rule="evenodd" d="M526.4,796c2.2,0,4,0,4,.1c0,.1,-1.8,.1,-4,.1c-2.2,0,-4,0,-4,-.1c0,-.1,1.8,-.1,4,-.1Z" class="g2_33"/>
<path fill-rule="evenodd" d="M526.4,796.9c2.2,0,4,0,4,.1c0,.1,-1.8,.1,-4,.1c-2.2,0,-4,0,-4,-.1c0,-.1,1.8,-.1,4,-.1Z" class="g2_33"/>
<path fill-rule="evenodd" d="M526.4,797.7c2.2,0,4,.1,4,.2c0,.1,-1.8,.1,-4,.1c-2.2,0,-4,0,-4,-.1c0,-.1,1.8,-.2,4,-.2Z" class="g2_33"/>
<path fill-rule="evenodd" d="M526.4,798.6c2.2,0,4,.1,4,.2c0,0,-1.8,.1,-4,.1c-2.2,0,-4,-.1,-4,-.1c0,-.1,1.8,-.2,4,-.2Z" class="g2_33"/>
<path fill-rule="evenodd" d="M526.4,799.5c2.2,0,4,.1,4,.2c0,0,-1.8,.1,-4,.1c-2.2,0,-4,-.1,-4,-.1c0,-.1,1.8,-.2,4,-.2Z" class="g2_33"/>
<path fill-rule="evenodd" d="M526.4,800.4c2.2,0,4,0,4,.1c0,.1,-1.8,.2,-4,.2c-2.2,0,-4,-.1,-4,-.2c0,-.1,1.8,-.1,4,-.1Z" class="g2_33"/>
<path fill-rule="evenodd" d="M526.4,801.3c2.2,0,4,0,4,.1c0,.1,-1.8,.1,-4,.1c-2.2,0,-4,0,-4,-.1c0,-.1,1.8,-.1,4,-.1Z" class="g2_33"/>
<path fill-rule="evenodd" d="M452.5,857.6h3.4V800.3h-3.4v57.3Z" class="g0_33"/>
<image x="442" y="777" width="25" height="26" xlink:href="33/shade/51.png"/>
<image x="442" y="782" width="25" height="15" xlink:href="33/shade/52.png"/>
<path fill-rule="evenodd" d="M454.2,793c-1.9,0,-3.5,-1.6,-3.5,-3.5c0,-1.9,1.6,-3.5,3.5,-3.5c1.9,0,3.5,1.6,3.5,3.5c0,1.9,-1.6,3.5,-3.5,3.5Z" class="ga_33"/>
<path fill-rule="evenodd" d="M453.1,783.5c4,0,7.3,.1,7.3,.2c0,.2,-3.3,.3,-7.3,.3c-4.1,0,-7.4,-.1,-7.4,-.3c0,-.1,3.3,-.2,7.4,-.2Z" class="g2_33"/>
<path fill-rule="evenodd" d="M453.1,785.1c4,0,7.3,.1,7.3,.2c0,.2,-3.3,.3,-7.3,.3c-4.1,0,-7.4,-.1,-7.4,-.3c0,-.1,3.3,-.2,7.4,-.2Z" class="g2_33"/>
<path fill-rule="evenodd" d="M453.1,786.7c4,0,7.3,.1,7.3,.2c0,.2,-3.3,.3,-7.3,.3c-4.1,0,-7.4,-.1,-7.4,-.3c0,-.1,3.3,-.2,7.4,-.2Z" class="g2_33"/>
<path fill-rule="evenodd" d="M453.1,788.3c4,0,7.3,.1,7.3,.2c0,.2,-3.3,.3,-7.3,.3c-4.1,0,-7.4,-.1,-7.4,-.3c0,-.1,3.3,-.2,7.4,-.2Z" class="g2_33"/>
<path fill-rule="evenodd" d="M453.1,789.9c4,0,7.3,.1,7.3,.3c0,.1,-3.3,.2,-7.3,.2c-4.1,0,-7.4,-.1,-7.4,-.2c0,-.2,3.3,-.3,7.4,-.3Z" class="g2_33"/>
<path fill-rule="evenodd" d="M453.1,791.5c4,0,7.3,.1,7.3,.3c0,.1,-3.3,.2,-7.3,.2c-4.1,0,-7.4,-.1,-7.4,-.2c0,-.2,3.3,-.3,7.4,-.3Z" class="g2_33"/>
<path fill-rule="evenodd" d="M453.1,793.1c4,0,7.3,.1,7.3,.3c0,.1,-3.3,.2,-7.3,.2c-4.1,0,-7.4,-.1,-7.4,-.2c0,-.2,3.3,-.3,7.4,-.3Z" class="g2_33"/>
<path fill-rule="evenodd" d="M453.1,794.7c4,0,7.3,.1,7.3,.3c0,.1,-3.3,.2,-7.3,.2c-4.1,0,-7.4,-.1,-7.4,-.2c0,-.2,3.3,-.3,7.4,-.3Z" class="g2_33"/>
<path fill-rule="evenodd" d="M638.9,812.2h.2v-3.4h-.2v3.4Z" class="g0_33"/>
<path fill-rule="evenodd" d="M639,808.8c-.4,0,-.7,-.3,-.7,-.7c0,-.4,.3,-.7,.7,-.7c.4,0,.7,.3,.7,.7c0,.4,-.3,.7,-.7,.7Z" class="g2_33"/>
<path fill-rule="evenodd" d="M639.6,807.7h-1.2c0,.1,-.1,.3,-.1,.4c0,.1,.1,.3,.1,.4h1.2c.1,-.1,.1,-.3,.1,-.4c0,-.1,-.1,-.3,-.1,-.4Z" class="g2_33"/>
<path fill-rule="evenodd" d="M639,808.3c-.1,0,-.2,-.1,-.2,-.2c0,-.1,.1,-.2,.2,-.2c.1,0,.2,.1,.2,.2c0,.1,-.1,.2,-.2,.2Z" class="g2_33"/>
<path fill-rule="evenodd" d="M638.9,807.8c.3,0,.5,0,.5,0c0,0,-.2,0,-.5,0c-.2,0,-.4,0,-.4,0c0,0,.2,0,.4,0Z" class="g2_33"/>
<path fill-rule="evenodd" d="M638.9,807.8c.3,0,.5,0,.5,.1c0,0,-.2,0,-.5,0c-.2,0,-.4,0,-.4,0c0,-.1,.2,-.1,.4,-.1Z" class="g2_33"/>
<path fill-rule="evenodd" d="M638.9,807.9c.3,0,.5,0,.5,0c0,.1,-.2,.1,-.5,.1c-.2,0,-.4,0,-.4,-.1c0,0,.2,0,.4,0Z" class="g2_33"/>
<path fill-rule="evenodd" d="M638.9,808c.3,0,.5,0,.5,.1c0,0,-.2,0,-.5,0c-.2,0,-.4,0,-.4,0c0,-.1,.2,-.1,.4,-.1Z" class="g2_33"/>
<path fill-rule="evenodd" d="M638.9,808.1c.3,0,.5,0,.5,0c0,0,-.2,.1,-.5,.1c-.2,0,-.4,-.1,-.4,-.1c0,0,.2,0,.4,0Z" class="g2_33"/>
<path fill-rule="evenodd" d="M638.9,808.2c.3,0,.5,0,.5,0c0,.1,-.2,.1,-.5,.1c-.2,0,-.4,0,-.4,-.1c0,0,.2,0,.4,0Z" class="g2_33"/>
<path fill-rule="evenodd" d="M638.9,808.3c.3,0,.5,0,.5,0c0,0,-.2,.1,-.5,.1c-.2,0,-.4,-.1,-.4,-.1c0,0,.2,0,.4,0Z" class="g2_33"/>
<path fill-rule="evenodd" d="M638.9,808.4c.3,0,.5,0,.5,0c0,.1,-.2,.1,-.5,.1c-.2,0,-.4,0,-.4,-.1c0,0,.2,0,.4,0Z" class="g2_33"/>
<path fill-rule="evenodd" d="M636.2,813.8h.4v-5.3h-.4v5.3Z" class="g0_33"/>
<image x="634" y="805" width="5" height="5" xlink:href="33/shade/53.png"/>
<image x="634" y="806" width="5" height="4" xlink:href="33/shade/54.png"/>
<path fill-rule="evenodd" d="M636.4,807.8c-.2,0,-.3,-.2,-.3,-.4c0,-.1,.1,-.3,.3,-.3c.2,0,.3,.2,.3,.3c0,.2,-.1,.4,-.3,.4Z" class="g3_33"/>
<path fill-rule="evenodd" d="M636.3,806.9c.4,0,.7,0,.7,0c0,0,-.3,0,-.7,0c-.4,0,-.7,0,-.7,0c0,0,.3,0,.7,0Z" class="g2_33"/>
<path fill-rule="evenodd" d="M636.3,807c.4,0,.7,0,.7,.1c0,0,-.3,0,-.7,0c-.4,0,-.7,0,-.7,0c0,-.1,.3,-.1,.7,-.1Z" class="g2_33"/>
<path fill-rule="evenodd" d="M636.3,807.2c.4,0,.7,0,.7,0c0,0,-.3,0,-.7,0c-.4,0,-.7,0,-.7,0c0,0,.3,0,.7,0Z" class="g2_33"/>
<path fill-rule="evenodd" d="M636.3,807.3c.4,0,.7,.1,.7,.1c0,0,-.3,0,-.7,0c-.4,0,-.7,0,-.7,0c0,0,.3,-.1,.7,-.1Z" class="g2_33"/>
<path fill-rule="evenodd" d="M636.3,807.5c.4,0,.7,0,.7,0c0,0,-.3,0,-.7,0c-.4,0,-.7,0,-.7,0c0,0,.3,0,.7,0Z" class="g2_33"/>
<path fill-rule="evenodd" d="M636.3,807.6c.4,0,.7,0,.7,.1c0,0,-.3,0,-.7,0c-.4,0,-.7,0,-.7,0c0,-.1,.3,-.1,.7,-.1Z" class="g2_33"/>
<path fill-rule="evenodd" d="M636.3,807.8c.4,0,.7,0,.7,0c0,0,-.3,0,-.7,0c-.4,0,-.7,0,-.7,0c0,0,.3,0,.7,0Z" class="g2_33"/>
<path fill-rule="evenodd" d="M636.3,807.9c.4,0,.7,0,.7,.1c0,0,-.3,0,-.7,0c-.4,0,-.7,0,-.7,0c0,-.1,.3,-.1,.7,-.1Z" class="g2_33"/>
<path fill-rule="evenodd" d="M633.2,815.7h.4v-7.6h-.4v7.6Z" class="g0_33"/>
<image x="631" y="804" width="5" height="6" xlink:href="33/shade/55.png"/>
<image x="631" y="805" width="5" height="4" xlink:href="33/shade/56.png"/>
<path fill-rule="evenodd" d="M633.4,807.2c-.3,0,-.5,-.3,-.5,-.5c0,-.3,.2,-.5,.5,-.5c.3,0,.5,.2,.5,.5c0,.2,-.2,.5,-.5,.5Z" class="g4_33"/>
<path fill-rule="evenodd" d="M633.3,805.9c.5,0,.9,0,.9,0c0,0,-.4,.1,-.9,.1c-.6,0,-1,-.1,-1,-.1c0,0,.4,0,1,0Z" class="g2_33"/>
<path fill-rule="evenodd" d="M633.3,806.1c.5,0,.9,0,.9,0c0,.1,-.4,.1,-.9,.1c-.6,0,-1,0,-1,-.1c0,0,.4,0,1,0Z" class="g2_33"/>
<path fill-rule="evenodd" d="M633.3,806.3c.5,0,.9,0,.9,.1c0,0,-.4,0,-.9,0c-.6,0,-1,0,-1,0c0,-.1,.4,-.1,1,-.1Z" class="g2_33"/>
<path fill-rule="evenodd" d="M633.3,806.5c.5,0,.9,0,.9,.1c0,0,-.4,0,-.9,0c-.6,0,-1,0,-1,0c0,-.1,.4,-.1,1,-.1Z" class="g2_33"/>
<path fill-rule="evenodd" d="M633.3,806.7c.5,0,.9,.1,.9,.1c0,0,-.4,0,-.9,0c-.6,0,-1,0,-1,0c0,0,.4,-.1,1,-.1Z" class="g2_33"/>
<path fill-rule="evenodd" d="M633.3,807c.5,0,.9,0,.9,0c0,0,-.4,0,-.9,0c-.6,0,-1,0,-1,0c0,0,.4,0,1,0Z" class="g2_33"/>
<path fill-rule="evenodd" d="M633.3,807.2c.5,0,.9,0,.9,0c0,0,-.4,0,-.9,0c-.6,0,-1,0,-1,0c0,0,.4,0,1,0Z" class="g2_33"/>
<path fill-rule="evenodd" d="M633.3,807.4c.5,0,.9,0,.9,0c0,0,-.4,0,-.9,0c-.6,0,-1,0,-1,0c0,0,.4,0,1,0Z" class="g2_33"/>
<path fill-rule="evenodd" d="M629.6,817.8h.6V807.7h-.6v10.1Z" class="g0_33"/>
<image x="627" y="803" width="7" height="6" xlink:href="33/shade/57.png"/>
<image x="627" y="803" width="7" height="5" xlink:href="33/shade/58.png"/>
<path fill-rule="evenodd" d="M629.9,806.4c-.4,0,-.6,-.3,-.6,-.6c0,-.3,.2,-.6,.6,-.6c.3,0,.6,.3,.6,.6c0,.3,-.3,.6,-.6,.6Z" class="g5_33"/>
<path fill-rule="evenodd" d="M629.7,804.7c.7,0,1.3,.1,1.3,.1c0,0,-.6,0,-1.3,0c-.7,0,-1.3,0,-1.3,0c0,0,.6,-.1,1.3,-.1Z" class="g2_33"/>
<path fill-rule="evenodd" d="M629.7,805c.7,0,1.3,0,1.3,.1c0,0,-.6,0,-1.3,0c-.7,0,-1.3,0,-1.3,0c0,-.1,.6,-.1,1.3,-.1Z" class="g2_33"/>
<path fill-rule="evenodd" d="M629.7,805.3c.7,0,1.3,0,1.3,.1c0,0,-.6,0,-1.3,0c-.7,0,-1.3,0,-1.3,0c0,-.1,.6,-.1,1.3,-.1Z" class="g2_33"/>
<path fill-rule="evenodd" d="M629.7,805.6c.7,0,1.3,0,1.3,0c0,.1,-.6,.1,-1.3,.1c-.7,0,-1.3,0,-1.3,-.1c0,0,.6,0,1.3,0Z" class="g2_33"/>
<path fill-rule="evenodd" d="M629.7,805.9c.7,0,1.3,0,1.3,0c0,0,-.6,.1,-1.3,.1c-.7,0,-1.3,-.1,-1.3,-.1c0,0,.6,0,1.3,0Z" class="g2_33"/>
<path fill-rule="evenodd" d="M629.7,806.2c.7,0,1.3,0,1.3,0c0,0,-.6,.1,-1.3,.1c-.7,0,-1.3,-.1,-1.3,-.1c0,0,.6,0,1.3,0Z" class="g2_33"/>
<path fill-rule="evenodd" d="M629.7,806.4c.7,0,1.3,.1,1.3,.1c0,0,-.6,0,-1.3,0c-.7,0,-1.3,0,-1.3,0c0,0,.6,-.1,1.3,-.1Z" class="g2_33"/>
<path fill-rule="evenodd" d="M629.7,806.7c.7,0,1.3,0,1.3,.1c0,0,-.6,0,-1.3,0c-.7,0,-1.3,0,-1.3,0c0,-.1,.6,-.1,1.3,-.1Z" class="g2_33"/>
<path fill-rule="evenodd" d="M625.2,820.5h.8V807.2h-.8v13.3Z" class="g0_33"/>
<image x="622" y="801" width="8" height="9" xlink:href="33/shade/59.png"/>
<image x="622" y="802" width="8" height="5" xlink:href="33/shade/60.png"/>
<path fill-rule="evenodd" d="M625.6,805.5c-.4,0,-.8,-.3,-.8,-.8c0,-.4,.4,-.8,.8,-.8c.5,0,.8,.4,.8,.8c0,.5,-.3,.8,-.8,.8Z" class="g6_33"/>
<path fill-rule="evenodd" d="M625.4,803.3c.9,0,1.6,.1,1.6,.1c0,0,-.7,0,-1.6,0c-1,0,-1.7,0,-1.7,0c0,0,.7,-.1,1.7,-.1Z" class="g2_33"/>
<path fill-rule="evenodd" d="M625.4,803.7c.9,0,1.6,0,1.6,.1c0,0,-.7,0,-1.6,0c-1,0,-1.7,0,-1.7,0c0,-.1,.7,-.1,1.7,-.1Z" class="g2_33"/>
<path fill-rule="evenodd" d="M625.4,804.1c.9,0,1.6,0,1.6,0c0,.1,-.7,.1,-1.6,.1c-1,0,-1.7,0,-1.7,-.1c0,0,.7,0,1.7,0Z" class="g2_33"/>
<path fill-rule="evenodd" d="M625.4,804.5c.9,0,1.6,0,1.6,0c0,0,-.7,.1,-1.6,.1c-1,0,-1.7,-.1,-1.7,-.1c0,0,.7,0,1.7,0Z" class="g2_33"/>
<path fill-rule="evenodd" d="M625.4,804.8c.9,0,1.6,0,1.6,.1c0,0,-.7,0,-1.6,0c-1,0,-1.7,0,-1.7,0c0,-.1,.7,-.1,1.7,-.1Z" class="g2_33"/>
<path fill-rule="evenodd" d="M625.4,805.2c.9,0,1.6,0,1.6,0c0,.1,-.7,.1,-1.6,.1c-1,0,-1.7,0,-1.7,-.1c0,0,.7,0,1.7,0Z" class="g2_33"/>
<path fill-rule="evenodd" d="M625.4,805.6c.9,0,1.6,0,1.6,0c0,0,-.7,.1,-1.6,.1c-1,0,-1.7,-.1,-1.7,-.1c0,0,.7,0,1.7,0Z" class="g2_33"/>
<path fill-rule="evenodd" d="M625.4,805.9c.9,0,1.6,0,1.6,.1c0,0,-.7,.1,-1.6,.1c-1,0,-1.7,-.1,-1.7,-.1c0,-.1,.7,-.1,1.7,-.1Z" class="g2_33"/>
<path fill-rule="evenodd" d="M619.6,823.8h1.1V806.6h-1.1v17.2Z" class="g0_33"/>
<image x="615" y="799" width="9" height="10" xlink:href="33/shade/61.png"/>
<image x="615" y="800" width="9" height="7" xlink:href="33/shade/62.png"/>
<path fill-rule="evenodd" d="M620.2,804.4c-.6,0,-1.1,-.5,-1.1,-1c0,-.6,.5,-1.1,1.1,-1.1c.5,0,1,.5,1,1.1c0,.5,-.5,1,-1,1Z" class="g7_33"/>
<path fill-rule="evenodd" d="M619.8,801.5c1.2,0,2.2,.1,2.2,.1c0,.1,-1,.1,-2.2,.1c-1.2,0,-2.2,0,-2.2,-.1c0,0,1,-.1,2.2,-.1Z" class="g2_33"/>
<path fill-rule="evenodd" d="M619.8,802c1.2,0,2.2,.1,2.2,.1c0,0,-1,.1,-2.2,.1c-1.2,0,-2.2,-.1,-2.2,-.1c0,0,1,-.1,2.2,-.1Z" class="g2_33"/>
<path fill-rule="evenodd" d="M619.8,802.5c1.2,0,2.2,0,2.2,.1c0,0,-1,0,-2.2,0c-1.2,0,-2.2,0,-2.2,0c0,-.1,1,-.1,2.2,-.1Z" class="g2_33"/>
<path fill-rule="evenodd" d="M619.8,803c1.2,0,2.2,0,2.2,.1c0,0,-1,0,-2.2,0c-1.2,0,-2.2,0,-2.2,0c0,-.1,1,-.1,2.2,-.1Z" class="g2_33"/>
<path fill-rule="evenodd" d="M619.8,803.5c1.2,0,2.2,0,2.2,0c0,.1,-1,.1,-2.2,.1c-1.2,0,-2.2,0,-2.2,-.1c0,0,1,0,2.2,0Z" class="g2_33"/>
<path fill-rule="evenodd" d="M619.8,803.9c1.2,0,2.2,.1,2.2,.1c0,.1,-1,.1,-2.2,.1c-1.2,0,-2.2,0,-2.2,-.1c0,0,1,-.1,2.2,-.1Z" class="g2_33"/>
<path fill-rule="evenodd" d="M619.8,804.4c1.2,0,2.2,.1,2.2,.1c0,.1,-1,.1,-2.2,.1c-1.2,0,-2.2,0,-2.2,-.1c0,0,1,-.1,2.2,-.1Z" class="g2_33"/>
<path fill-rule="evenodd" d="M619.8,804.9c1.2,0,2.2,.1,2.2,.1c0,0,-1,.1,-2.2,.1c-1.2,0,-2.2,-.1,-2.2,-.1c0,0,1,-.1,2.2,-.1Z" class="g2_33"/>
<path fill-rule="evenodd" d="M612,828.5h1.3V805.7H612v22.8Z" class="g0_33"/>
<image x="607" y="796" width="12" height="11" xlink:href="33/shade/63.png"/>
<image x="607" y="798" width="12" height="8" xlink:href="33/shade/64.png"/>
<path fill-rule="evenodd" d="M612.7,802.8c-.8,0,-1.4,-.6,-1.4,-1.3c0,-.8,.6,-1.4,1.4,-1.4c.7,0,1.3,.6,1.3,1.4c0,.7,-.6,1.3,-1.3,1.3Z" class="g8_33"/>
<path fill-rule="evenodd" d="M612.2,799.1c1.6,0,2.9,0,2.9,.1c0,0,-1.3,.1,-2.9,.1c-1.6,0,-2.9,-.1,-2.9,-.1c0,-.1,1.3,-.1,2.9,-.1Z" class="g2_33"/>
<path fill-rule="evenodd" d="M612.2,799.7c1.6,0,2.9,0,2.9,.1c0,.1,-1.3,.1,-2.9,.1c-1.6,0,-2.9,0,-2.9,-.1c0,-.1,1.3,-.1,2.9,-.1Z" class="g2_33"/>
<path fill-rule="evenodd" d="M612.2,800.3c1.6,0,2.9,.1,2.9,.1c0,.1,-1.3,.1,-2.9,.1c-1.6,0,-2.9,0,-2.9,-.1c0,0,1.3,-.1,2.9,-.1Z" class="g2_33"/>
<path fill-rule="evenodd" d="M612.2,801c1.6,0,2.9,0,2.9,.1c0,0,-1.3,.1,-2.9,.1c-1.6,0,-2.9,-.1,-2.9,-.1c0,-.1,1.3,-.1,2.9,-.1Z" class="g2_33"/>
<path fill-rule="evenodd" d="M612.2,801.6c1.6,0,2.9,.1,2.9,.1c0,.1,-1.3,.1,-2.9,.1c-1.6,0,-2.9,0,-2.9,-.1c0,0,1.3,-.1,2.9,-.1Z" class="g2_33"/>
<path fill-rule="evenodd" d="M612.2,802.3c1.6,0,2.9,0,2.9,.1c0,0,-1.3,0,-2.9,0c-1.6,0,-2.9,0,-2.9,0c0,-.1,1.3,-.1,2.9,-.1Z" class="g2_33"/>
<path fill-rule="evenodd" d="M612.2,802.9c1.6,0,2.9,0,2.9,.1c0,0,-1.3,.1,-2.9,.1c-1.6,0,-2.9,-.1,-2.9,-.1c0,-.1,1.3,-.1,2.9,-.1Z" class="g2_33"/>
<path fill-rule="evenodd" d="M612.2,803.5c1.6,0,2.9,.1,2.9,.1c0,.1,-1.3,.1,-2.9,.1c-1.6,0,-2.9,0,-2.9,-.1c0,0,1.3,-.1,2.9,-.1Z" class="g2_33"/>
<path fill-rule="evenodd" d="M599.6,835.9h1.9V804.3h-1.9v31.6Z" class="g0_33"/>
<image x="593" y="791" width="15" height="15" xlink:href="33/shade/65.png"/>
<image x="593" y="794" width="15" height="10" xlink:href="33/shade/66.png"/>
<path fill-rule="evenodd" d="M600.6,800.3c-1.1,0,-2,-.8,-2,-1.9c0,-1.1,.9,-1.9,2,-1.9c1,0,1.9,.8,1.9,1.9c0,1.1,-.9,1.9,-1.9,1.9Z" class="g9_33"/>
<path fill-rule="evenodd" d="M600,795.1c2.2,0,4,0,4,.1c0,.1,-1.8,.2,-4,.2c-2.3,0,-4.1,-.1,-4.1,-.2c0,-.1,1.8,-.1,4.1,-.1Z" class="g2_33"/>
<path fill-rule="evenodd" d="M600,796c2.2,0,4,0,4,.1c0,.1,-1.8,.1,-4,.1c-2.3,0,-4.1,0,-4.1,-.1c0,-.1,1.8,-.1,4.1,-.1Z" class="g2_33"/>
<path fill-rule="evenodd" d="M600,796.9c2.2,0,4,0,4,.1c0,.1,-1.8,.1,-4,.1c-2.3,0,-4.1,0,-4.1,-.1c0,-.1,1.8,-.1,4.1,-.1Z" class="g2_33"/>
<path fill-rule="evenodd" d="M600,797.7c2.2,0,4,.1,4,.2c0,.1,-1.8,.1,-4,.1c-2.3,0,-4.1,0,-4.1,-.1c0,-.1,1.8,-.2,4.1,-.2Z" class="g2_33"/>
<path fill-rule="evenodd" d="M600,798.6c2.2,0,4,.1,4,.2c0,0,-1.8,.1,-4,.1c-2.3,0,-4.1,-.1,-4.1,-.1c0,-.1,1.8,-.2,4.1,-.2Z" class="g2_33"/>
<path fill-rule="evenodd" d="M600,799.5c2.2,0,4,.1,4,.2c0,0,-1.8,.1,-4,.1c-2.3,0,-4.1,-.1,-4.1,-.1c0,-.1,1.8,-.2,4.1,-.2Z" class="g2_33"/>
<path fill-rule="evenodd" d="M600,800.4c2.2,0,4,0,4,.1c0,.1,-1.8,.2,-4,.2c-2.3,0,-4.1,-.1,-4.1,-.2c0,-.1,1.8,-.1,4.1,-.1Z" class="g2_33"/>
<path fill-rule="evenodd" d="M600,801.3c2.2,0,4,0,4,.1c0,.1,-1.8,.1,-4,.1c-2.3,0,-4.1,0,-4.1,-.1c0,-.1,1.8,-.1,4.1,-.1Z" class="g2_33"/>
<path fill-rule="evenodd" d="M563.6,857.6H567V800.3h-3.4v57.3Z" class="g0_33"/>
<image x="553" y="777" width="25" height="26" xlink:href="33/shade/67.png"/>
<image x="553" y="782" width="25" height="15" xlink:href="33/shade/68.png"/>
<path fill-rule="evenodd" d="M565.3,793c-2,0,-3.5,-1.6,-3.5,-3.5c0,-1.9,1.5,-3.5,3.5,-3.5c1.9,0,3.5,1.6,3.5,3.5c0,1.9,-1.6,3.5,-3.5,3.5Z" class="ga_33"/>
<path fill-rule="evenodd" d="M564.2,783.5c4,0,7.3,.1,7.3,.2c0,.2,-3.3,.3,-7.3,.3c-4.1,0,-7.4,-.1,-7.4,-.3c0,-.1,3.3,-.2,7.4,-.2Z" class="g2_33"/>
<path fill-rule="evenodd" d="M564.2,785.1c4,0,7.3,.1,7.3,.2c0,.2,-3.3,.3,-7.3,.3c-4.1,0,-7.4,-.1,-7.4,-.3c0,-.1,3.3,-.2,7.4,-.2Z" class="g2_33"/>
<path fill-rule="evenodd" d="M564.2,786.7c4,0,7.3,.1,7.3,.2c0,.2,-3.3,.3,-7.3,.3c-4.1,0,-7.4,-.1,-7.4,-.3c0,-.1,3.3,-.2,7.4,-.2Z" class="g2_33"/>
<path fill-rule="evenodd" d="M564.2,788.3c4,0,7.3,.1,7.3,.2c0,.2,-3.3,.3,-7.3,.3c-4.1,0,-7.4,-.1,-7.4,-.3c0,-.1,3.3,-.2,7.4,-.2Z" class="g2_33"/>
<path fill-rule="evenodd" d="M564.2,789.9c4,0,7.3,.1,7.3,.3c0,.1,-3.3,.2,-7.3,.2c-4.1,0,-7.4,-.1,-7.4,-.2c0,-.2,3.3,-.3,7.4,-.3Z" class="g2_33"/>
<path fill-rule="evenodd" d="M564.2,791.5c4,0,7.3,.1,7.3,.3c0,.1,-3.3,.2,-7.3,.2c-4.1,0,-7.4,-.1,-7.4,-.2c0,-.2,3.3,-.3,7.4,-.3Z" class="g2_33"/>
<path fill-rule="evenodd" d="M564.2,793.1c4,0,7.3,.1,7.3,.3c0,.1,-3.3,.2,-7.3,.2c-4.1,0,-7.4,-.1,-7.4,-.2c0,-.2,3.3,-.3,7.4,-.3Z" class="g2_33"/>
<path fill-rule="evenodd" d="M564.2,794.7c4,0,7.3,.1,7.3,.3c0,.1,-3.3,.2,-7.3,.2c-4.1,0,-7.4,-.1,-7.4,-.2c0,-.2,3.3,-.3,7.4,-.3Z" class="g2_33"/>
<path d="M706.7,694.2c2.9,0,3.8,-1.9,6.2,-2.2c-.3,8,3.8,8.4,4.2,-.5l11.3,-1.4c-.4,7.1,3.2,6.9,4.1,-.3l7.5,-.5c4.1,9,15,3.1,15.2,-5.1l36,-.2c.4,7.6,.9,3,2,-.5c.3,0,-.1,-1.4,-.3,-1.6c-.2,-.3,-2.2,-5.1,-1.9,-1.4c.1,1.5,-1.6,.2,-2.8,.2c0,-.1,-33.2,-2.5,-35.8,-2.7c-2.6,-2.1,-6.3,-2.2,-9.1,-.5c-23,-1.1,-46.2,-1.3,-69.2,0c-12.1,.6,-11.2,-.4,-10.5,-8.1c1,-10.2,-1.9,-22.5,-13.4,-24.8c0,-1.6,-.8,-10.7,-2.4,-4.2c0,1.4,-.1,2.8,-.1,4.2c-13.9,2.7,-14.8,19.5,-12.8,30.7c-2.6,3.4,-6.4,2.4,-11.1,2.2c-23,-1.3,-46.2,-1.1,-69.2,0c-2.1,-1.3,-4.7,-1.6,-7,-.7c0,-.1,-1.6,.8,-2.1,1.2c-2.6,.2,-35.8,2.6,-35.8,2.7c0,0,-1.6,.1,-2.9,.4c.3,-4.8,-2.6,1.1,-2.1,2.5c0,.2,2,8.9,1.9,3c0,-.8,0,-1.7,.1,-2.6l36,.2c.3,8.9,11.3,13.5,15.3,5.1c3.4,.2,7.3,.1,7.4,.6c.4,5.7,4.6,8.4,4.1,.2l11.3,1.4c.1,2,.3,6.4,2.7,6.6c3.1,0,-.4,-8.4,3.1,-5.6c.8,.8,3.2,1.6,3,1.5c6.4,.5,5.7,-.8,5.8,-.8c0,2,0,7.3,2.6,7.4c1.9,0,1.5,-5.4,1.5,-6.7l11.2,3c.2,4.3,3.6,7.5,4,.8l5.1,.7h-.7c-2.6,0,-1.2,6.7,-.3,8.6c2.3,1,2.8,-2.1,3.6,-2.1c0,2.3,1.9,-1.7,1.9,1.1c3.9,4,4.3,-5,2.8,-6.6c4.3,.6,4.1,.1,4.1,4c0,3.6,-1.1,5.8,2.1,5.8c.7,0,1.2,-.6,1.2,-1.2c0,-.9,2.7,-1.3,2.7,0c1.2,1.2,.1,1.2,2.1,1.2c2,0,1.2,-8.2,1.2,-9.6c5.6,.2,8,3,13.5,0c1.1,0,2.3,0,3.4,0c0,2.5,-1.4,11,2.6,9.5c.6,-.2,1.5,-3.9,1.5,-1.6c1.2,0,1.9,-1.5,1.9,.5c0,1.2,1.4,1.3,2.3,1.2c1.9,-.5,1,-7.6,1,-9.2c1.1,-.2,5.6,-1.9,3.8,.9c-2.6,6.3,3.1,7.8,3.1,5.1c0,-2.8,1.9,1.2,1.9,-1.1c.4,0,2,3.7,3.8,1.9c0,-2.4,3.1,-8.4,-1.2,-8.4l5.1,-.7c.3,6,3.7,4.4,4,-.8l11.2,-3c-.2,9.9,4,7.7,4.1,-.7c1.1,-.1,2.9,1,4.2,1Z" class="gb_33"/>
<image x="648" y="637" width="3" height="9" xlink:href="33/shade/69.png"/>
<image x="504" y="678" width="5" height="13" xlink:href="33/shade/70.png"/>
<path fill-rule="evenodd" d="M622.2,702.8h-.9v-.3h.9Zm1.9,0h-.3v-.3h.3Zm13.4,-.3v.3c0,0,0,-.1,0,-.1v-.1Zm-3,.3h-.3v-.3h.3v.2c0,0,0,.1,0,.1m3,-2.2v-.1v.4h-.1c0,0,.1,-.1,.1,-.2Zm-2.2,4.2h-1.1v-.4h1.1Zm2.2,0h-.7v-.4h.7Zm22.9,-2.3v.3c0,0,0,-.1,0,-.1v-.1Zm3,.3h.3v-.3h-.3v.2c0,0,0,.1,0,.1m-3,-2.2v-.1v.4h.1c-.1,0,-.1,-.1,-.1,-.2Zm2.2,4.2h1.1v-.4h-1.1Zm-2.2,0h.7v-.4h-.7Zm15.2,-2h1v-.3h-1Zm-1.9,0h.4v-.3h-.4Zm-.9,-4.3c.5,0,.9,.4,.9,.9v.4h.1v-.9l-1.1,-.9l-.2,.1l-4.4,-4.3l.8,-.8l4.4,4.3l-.1,.2l.6,.5v-1.3l-.7,-.6l-.1,.2L668.6,692l.7,-.8l4.4,4.3l-.1,.1l.2,.2v-3.2h.4v-1.9h2v7.2h.2c.2,.1,.3,.2,.3,.4v.6c0,.2,-.1,.3,-.3,.3h-.5v.6h.1c.2,0,.3,.1,.3,.3v.6c0,.1,0,.2,-.1,.2h.5v-.1h.1v-.1h.1q0,-.1,0,-.1q.1,-.1,.1,-.1h.1v-1.3c0,0,0,-.1,0,-.1V699h.1v-.1l.1,-.1l.1,-.1h.1v-.1c.1,0,.3,-.1,.5,-.1h.8c.5,0,.9,.4,.9,.9v4.5c0,.3,-.1,.5,-.2,.6c-.1,0,-.1,.1,-.2,.1v1.2c0,.2,-.1,.4,-.3,.6l-.1,.1h-.1v.1c0,0,-.1,0,-.1,0h-.1c-.1,0,-.1,.1,-.1,.1h-1c-.5,0,-.9,-.4,-.9,-.9v-1.4h-1.4v.6h-.5v-.6h-1.1c-.1,.1,-.2,.2,-.3,.3v1.1c0,.3,-.2,.6,-.4,.7l-.1,.1h-.2c0,0,-.1,.1,-.1,.1h-.9c-.5,0,-.9,-.4,-.9,-.9v-4.6q0,-.1,0,-.1v-.2h.1v-.1c.1,-.1,.2,-.2,.3,-.3v-1.2c0,0,0,-.1,0,-.1v-.1h.1v-.2c.2,-.2,.5,-.4,.8,-.4Zm-12.6,.4c.1,.1,.2,.3,.2,.5v.2l.2,.2c0,0,.1,0,.1,0h.1v-.6c-.2,0,-.4,-.1,-.4,-.3Zm-22.7,0v0c0,.2,-.2,.3,-.4,.3v.6h.1c0,0,.1,0,.1,0l.2,-.2v-.2c0,-.2,.1,-.4,.2,-.5Zm-132.3,-17c0,0,-.4,.7,-.2,1.3c.1,.6,.4,1.2,.4,2c0,.7,-.1,2.1,.4,2.6c.3,.2,.4,.1,.5,-.3c-.4,-.6,-.3,-1.7,-.3,-2.3c0,-.8,-.2,-1.4,-.4,-2c-.1,-.2,-.1,-.4,0,-.5c.2,.4,.6,.8,.6,.8l45,.3l20.1,.1l34.7,1.4l24.6,4.2c-.1,1.4,-.2,2.6,-.2,3.1c.1,2,2,4.4,4.1,5.5c0,0,0,.1,0,.2v.6c0,.2,.2,.3,.4,.3h.1v.6h-.2c-.2,0,-.3,.1,-.3,.3v.6c0,.1,0,.2,.1,.2h-.4v-1.7h-.1c0,0,0,-.1,0,-.1v-.2H634v-.1q-.1,0,-.1,-.1q-.1,0,-.1,0v-.1c-.2,0,-.3,-.1,-.5,-.1h-.9c-.5,0,-.8,.4,-.8,.9v8.4c0,.2,0,.4,.2,.6c0,0,.1,0,.1,.1h.1c0,.1,.1,.1,.1,.1h1.2c.5,0,.9,-.4,.9,-.8v-1.4h1.4v.6h.5v-.6h1.4v1.4c0,.3,.2,.6,.4,.7h.1v.1h.2c0,0,.1,0,.1,0h1c.4,0,.8,-.4,.8,-.8v-8.5c0,0,0,-.1,0,-.1V699c1.2,.1,2.6,.1,3.9,.1c2.1,1.2,4.9,1.5,4.9,1.5c0,0,2.9,-.3,5,-1.5c1.3,0,2.6,0,3.9,-.1v.2c0,0,0,.1,-.1,.1v8.5c0,.4,.4,.8,.9,.8h1.3v-.1c.3,-.1,.5,-.4,.5,-.7v-1.4h1.4v.6h.5v-.6h1.4v1.4c0,.4,.4,.8,.9,.8h.9q.1,0,.1,0h.2l.1,-.1h.1c0,-.1,.1,-.1,.1,-.1c.1,-.2,.2,-.4,.2,-.6v-8.4c0,-.5,-.4,-.9,-.9,-.9h-.8c-.2,0,-.3,.1,-.5,.1v.1c0,0,-.1,0,-.1,0q0,.1,-.1,.1v.1h-.1v.2h-.1c0,0,0,.1,0,.1v1.7h-.4c.1,0,.1,-.1,.1,-.2v-.6c0,-.2,-.2,-.3,-.3,-.3h-.2v-.6h.1c.2,0,.4,-.1,.4,-.3v-.6c0,-.1,0,-.2,-.1,-.2c2.2,-1.1,4.1,-3.5,4.1,-5.5c.1,-.5,0,-1.7,-.1,-3.1l24.6,-4.2l34.7,-1.4l20.1,-.1l44.8,-.3c.1,.8,.1,1.6,.1,2.2c0,1.4,-.2,2.5,.4,2.1c.6,-.5,.5,-1.9,.5,-2.6c0,-.8,.2,-1.4,.4,-2c.2,-.6,-.2,-1.3,-.2,-1.3c0,0,-.2,-.3,-.5,-1.2c-.3,-.9,-.5,-1.7,-.8,-1.4c-.2,.4,-.1,.6,0,1.5v.5c-1.3,-.4,-3.2,-.5,-3.2,-.5l-39.5,-2.9L731.3,677l-37.1,-.2c0,0,-16.7,.6,-20.1,.8c-3.5,.2,-7.8,-.3,-7.8,-.3c0,0,-1.3,-.5,-2.5,-.4c0,-.1,-.1,-.2,-.2,-.4c-.4,-.5,-.7,-1,-.9,-1.3c.2,-1.1,.3,-2.1,.4,-2.9c.4,-7.1,1.6,-10.2,-2,-18.7c-3.6,-8.5,-12.2,-9,-12.2,-9c0,0,-8.5,.5,-12.1,9c-3.6,8.5,-2.5,11.6,-2,18.7c.1,.8,.2,1.8,.4,2.9c-.3,.3,-.5,.8,-.9,1.3c-.1,.2,-.2,.3,-.3,.4c-1.1,-.1,-2.4,.4,-2.4,.4c0,0,-4.3,.5,-7.8,.3c-3.5,-.2,-20.1,-.8,-20.1,-.8l-37.1,.2l-17.5,.9l-39.4,2.9c0,0,-2.4,.1,-3.7,.6c.1,-.2,.2,-.4,.3,-.7c.1,-.3,.2,-.6,.3,-.9c0,-.2,-.1,-.3,-.2,-.5c-.2,-.3,-.5,.5,-.7,1.4c-.3,.9,-.5,1.2,-.5,1.2M625,698.5c-.4,0,-.9,.4,-.9,.9v.4v-.9l1.1,-.9l.1,.1l4.5,-4.3L629,693l-4.4,4.3l.1,.2l-.6,.5v-1.3l.7,-.6l.1,.2l4.4,-4.3l-.7,-.8l-4.4,4.3l.1,.1l-.2,.2v-3.2h-.4v-1.9h-2v7.2h-.2c-.2,.1,-.4,.2,-.4,.4v.6c0,.2,.2,.3,.4,.3h.5v.6h-.1c-.2,0,-.3,.1,-.3,.3v.6c0,.1,0,.2,.1,.2h-.5l-.1,-.1v-.1H621q0,-.1,0,-.1h-.1q0,-.1,0,-.1h-.1v-1.3c0,0,0,-.1,0,-.1V699h-.1v-.1h-.1v-.1l-.1,-.1h-.1v-.1c-.1,0,-.3,-.1,-.5,-.1h-.8c-.5,0,-.9,.4,-.9,.9v4.5c0,.3,.1,.5,.2,.6c.1,0,.1,.1,.1,.1h.1v1.2c0,.2,.1,.4,.2,.6q.1,0,.2,.1h.1v.1h.2c0,0,.1,.1,.1,.1h1c.5,0,.9,-.4,.9,-.9v-1.4h1.4v.6h.5v-.6h1.1c.1,.1,.2,.2,.3,.3v1.1c0,.3,.2,.6,.4,.7l.1,.1h.2c0,0,0,.1,.1,.1h.9c.5,0,.9,-.4,.9,-.9v-4.6q0,-.1,0,-.1v-.2h-.1v-.1c-.1,-.1,-.2,-.2,-.3,-.3v-1.2c0,0,0,-.1,0,-.1v-.1h-.1v-.2h-.1c-.1,-.2,-.4,-.4,-.7,-.4Z" class="g0_33"/>
<image x="650" y="647" width="17" height="29" xlink:href="33/shade/71.png"/>
<path fill-rule="evenodd" d="M656.3,654.7l-1.6,-2l-.5,-.2l1.1,1.9Z" class="gc_33"/>
<path fill-rule="evenodd" d="M654.7,654.1l-1.1,-1.7l-.7,-.3l.2,.7l.7,1.1Z" class="gc_33"/>
<image x="648" y="651" width="6" height="4" xlink:href="33/shade/72.png"/>
<path fill-rule="evenodd" d="M699.5,686.4c0,4,3.2,7.3,7.2,7.3c5,0,8,-5.1,8,-9.5c0,-4,-3.3,-7.2,-7.3,-7.2c-2.7,0,-5.3,1.4,-6.5,3.6c-.8,1.5,-1.4,4.2,-1.4,5.8Z" class="gd_33"/>
<path fill-rule="evenodd" d="M739.6,685.9c0,4.1,3.3,7.3,7.3,7.3c5,0,8,-5,8,-9.5c0,-4,-3.3,-7.3,-7.3,-7.3c-2.8,0,-5.4,1.4,-6.6,3.7c-.8,1.5,-1.4,4.2,-1.4,5.8Z" class="gd_33"/>
<path fill-rule="evenodd" d="M700.5,681c-.8,0,-1.5,.7,-1.6,1.5l-.2,12.2c-.1,3.5,.4,5.4,1.3,5.3c.8,0,2.1,-1.7,2.2,-5.3l.2,-12.2c0,-.8,-1.1,-1.5,-1.9,-1.5m16.6,1.8h-3.4l-.5,9.5c-.1,3.4,.3,5.4,1.2,5.3c.8,-.1,2.2,-1.7,2.3,-5.3Zm15.6,-.9h-3.5l-.5,7.7c-.2,3.4,.1,5.4,1.1,5.3c.8,-.1,2.2,-1.7,2.4,-5.3ZM597.4,681c.8,0,1.5,.7,1.6,1.5l.2,12.2c.1,3.5,-.4,5.4,-1.3,5.3c-.8,0,-2.1,-1.7,-2.2,-5.3l-.2,-12.2c0,-.8,1,-1.5,1.9,-1.5m-16.7,1.8h3.5l.5,9.5c.1,3.4,-.3,5.4,-1.2,5.3c-.8,-.1,-2.2,-1.7,-2.3,-5.3Zm-15.5,-.9h3.5l.5,7.7c.2,3.4,-.1,5.4,-1.1,5.3c-.8,-.1,-2.2,-1.7,-2.4,-5.3Zm47.7,.1c.8,0,1.5,.7,1.5,1.5v12.2c0,3.5,-.4,5.4,-1.4,5.4c-.8,-.1,-2,-1.8,-2,-5.4V683.5c0,-.8,1.1,-1.5,1.9,-1.5m72.1,0c-.9,0,-1.5,.7,-1.5,1.5v12.2c0,3.5,.4,5.4,1.3,5.4c.9,-.1,2.1,-1.8,2.1,-5.4V683.5c0,-.8,-1.1,-1.5,-1.9,-1.5Z" class="gd_33"/>
<image x="682" y="685" width="51" height="17" xlink:href="33/shade/73.png"/>
<image x="651" y="666" width="4" height="7" xlink:href="33/shade/74.png"/>
<path fill-rule="evenodd" d="M648.9,638.1v7.4H648l.1,-5.3l.4,-1.6Z" class="gd_33"/>
<path d="M660.8,660.9c.1,1.5,.1,2.9,-.1,4.3c0,.2,.1,.4,.3,.6c.1,.1,.2,.2,.3,.3q.1,0,.2,-.1c.2,-1.3,.3,-2.7,.2,-4.1c-.1,-1.5,-.4,-3,-.8,-4.7c-.1,-.3,-.5,-.8,-.8,-1.1c-.1,-.1,-.2,-.1,-.3,-.1c0,-.1,-.1,0,-.2,.1c0,0,0,.2,.2,.5c.5,1.5,.9,2.9,1,4.3m-.9,-4.4v0c-.1,-.2,-.1,-.3,-.1,-.4q.1,0,.2,.1c.3,.3,.7,.8,.8,1c.4,1.7,.6,3.3,.7,4.7c.1,1.4,0,2.7,-.2,4c0,0,-.1,-.1,-.2,-.2c-.1,-.2,-.3,-.4,-.3,-.4c.2,-1.5,.3,-2.9,.1,-4.4c-.1,-1.4,-.4,-2.9,-1,-4.4Z" class="gd_33"/>
<path fill-rule="evenodd" d="M662.5,661.4c0,0,-.1,.6,-.1,1.4c0,.7,.1,1.4,.1,1.4c.1,0,.1,-.7,.1,-1.4c0,-.8,0,-1.4,-.1,-1.4m.2,1.2c0,0,-.1,.6,-.1,1.2c0,.7,.1,1.3,.1,1.3c.1,0,.1,-.6,.1,-1.3c0,-.6,0,-1.2,-.1,-1.2m.2,1.2c-.1,0,-.1,.5,-.1,1.1c0,.6,0,1.1,.1,1.1c0,0,0,-.5,0,-1.1c0,-.6,0,-1.1,0,-1.1m.1,1.2c0,0,0,.5,0,1c0,.5,0,1,0,1c.1,0,.1,-.5,.1,-1c0,-.5,0,-1,-.1,-1m.2,1.1c-.1,0,-.1,.3,-.1,.8c0,.4,0,.7,.1,.7c0,0,0,-.3,0,-.7c0,-.5,0,-.8,0,-.8m-1,-5.9c0,0,0,.7,0,1.5c0,.9,0,1.5,0,1.5c.1,0,.1,-.6,.1,-1.5c0,-.8,0,-1.5,-.1,-1.5Z" class="gd_33"/>
<image x="505" y="682" width="61" height="3" xlink:href="33/shade/75.png"/>
<path fill-rule="evenodd" d="M641.6,654.7l1.6,-2l.5,-.2l-1.1,1.9Z" class="gc_33"/>
<path fill-rule="evenodd" d="M643.2,654.1l1.1,-1.7l.7,-.3l-.2,.7l-.7,1.1Z" class="gc_33"/>
<path fill-rule="evenodd" d="M645.2,653.4l.4,-1.4l2.9,-.1l-.1,1.4Z" class="gc_33"/>
<image x="566" y="685" width="50" height="17" xlink:href="33/shade/76.png"/>
<path fill-rule="evenodd" d="M598.4,686.4c0,4,-3.3,7.3,-7.3,7.3c-4.9,0,-7.9,-5.1,-7.9,-9.5c0,-4,3.3,-7.2,7.3,-7.2c2.7,0,5.3,1.4,6.5,3.6c.8,1.5,1.4,4.2,1.4,5.8Z" class="gd_33"/>
<path fill-rule="evenodd" d="M558.3,685.9c0,4.1,-3.3,7.3,-7.3,7.3c-5,0,-8,-5,-8,-9.5c0,-4,3.3,-7.3,7.3,-7.3c2.8,0,5.3,1.4,6.6,3.7c.8,1.5,1.4,4.2,1.4,5.8Z" class="gd_33"/>
<path fill-rule="evenodd" d="M631,689.4l.4,10.1l-18.6,-2.6l-6.9,-1.8v-1.9h-.4V695l-7.4,-2l-15,-1.8l-7.2,-.8v-1.3h-.4v1.2l-7.6,-.9l-17,-1.1v-3.8l16.9,-.3l15,.6l15.4,.7l8.6,.7l7.2,1.2Z" class="gd_33"/>
<path d="M637.1,660.9c-.2,1.5,-.1,2.9,.1,4.3c0,.2,-.1,.4,-.3,.6c-.1,.1,-.3,.2,-.3,.3c-.1,0,-.2,0,-.2,-.1c-.2,-1.3,-.3,-2.7,-.2,-4.1c.1,-1.5,.3,-3,.8,-4.7c0,-.3,.5,-.8,.8,-1.1c.1,-.1,.2,-.1,.2,-.1c.1,-.1,.2,0,.2,.1c.1,0,0,.2,-.1,.5c-.5,1.5,-.9,2.9,-1,4.3m.9,-4.4v0c.1,-.2,.1,-.3,.1,-.4q-.1,0,-.2,.1c-.3,.3,-.7,.8,-.8,1c-.4,1.7,-.7,3.3,-.7,4.7c-.1,1.4,0,2.7,.1,4c.1,0,.2,-.1,.3,-.2c.1,-.2,.3,-.4,.3,-.4c-.2,-1.5,-.3,-2.9,-.2,-4.4c.2,-1.4,.5,-2.9,1.1,-4.4Z" class="gc_33"/>
<image x="633" y="659" width="5" height="10" xlink:href="33/shade/77.png"/>
<image x="590" y="683" width="10" height="13" xlink:href="33/shade/78.png"/>
<image x="550" y="682" width="10" height="12" xlink:href="33/shade/79.png"/>
<path fill-rule="evenodd" d="M648,673.4c0,.5,.4,.9,.9,.9c.5,0,.9,-.4,.9,-.9c0,-.5,-.4,-.9,-.9,-.9c-.5,0,-.9,.4,-.9,.9Z" class="ge_33"/>
<image x="647" y="671" width="5" height="5" xlink:href="33/shade/80.png"/>
<path fill-rule="evenodd" d="M648.5,673.6c0,.2,.2,.3,.4,.3c.2,0,.4,-.1,.4,-.3c0,-.3,-.2,-.4,-.4,-.4c-.2,0,-.4,.1,-.4,.4Z" class="g2_33"/>
<image x="646" y="666" width="5" height="5" xlink:href="33/shade/81.png"/>
<path fill-rule="evenodd" d="M648.9,667.8c-.4,0,-.7,-.2,-.7,-.5c0,-.2,.3,-.4,.7,-.4c.4,0,.7,.2,.7,.4c0,.3,-.3,.5,-.7,.5Z" class="gd_33"/>
<image x="647" y="666" width="4" height="4" xlink:href="33/shade/82.png"/>
<path fill-rule="evenodd" d="M648.9,667.4c-.1,0,-.3,-.1,-.3,-.2c0,-.1,.2,-.2,.3,-.2c.1,0,.3,.1,.3,.2c0,.1,-.2,.2,-.3,.2Z" class="g2_33"/>
<path fill-rule="evenodd" d="M668.8,678.3h-.6c-.2,0,-.3,.2,-.3,.3v2c0,.2,.1,.3,.3,.3h.6c.2,0,.4,-.1,.4,-.3v-2c0,-.1,-.2,-.3,-.4,-.3Z" class="ge_33"/>
<image x="667" y="677" width="4" height="5" xlink:href="33/shade/83.png"/>
<path fill-rule="evenodd" d="M668.8,678.7h-.6c-.1,0,-.1,.1,-.1,.1v.3c0,0,0,.1,.1,.1h.6c.1,0,.2,-.1,.2,-.1v-.3c0,0,-.1,-.1,-.2,-.1Z" class="g2_33"/>
<path fill-rule="evenodd" d="M668.8,680.3h-.6c-.1,0,-.1,.1,-.1,.1v.3c0,0,0,.1,.1,.1h.6c.1,0,.2,-.1,.2,-.1v-.3c0,0,-.1,-.1,-.2,-.1Z" class="g2_33"/>
<path fill-rule="evenodd" d="M668.8,679.8h-.6q-.1,0,-.1,.1v.2q0,.1,.1,.1h.6c.1,0,.2,0,.2,-.1v-.2c0,-.1,-.1,-.1,-.2,-.1Z" class="g2_33"/>
<path fill-rule="evenodd" d="M668.8,679.2h-.6c-.1,0,-.1,.1,-.1,.2v.2q0,.1,.1,.1h.6c.1,0,.2,0,.2,-.1v-.2c0,-.1,-.1,-.2,-.2,-.2Z" class="g2_33"/>
<path fill-rule="evenodd" d="M630.4,678.3h-.6c-.2,0,-.3,.2,-.3,.3v2c0,.2,.1,.3,.3,.3h.6c.2,0,.4,-.1,.4,-.3v-2c0,-.1,-.2,-.3,-.4,-.3Z" class="ge_33"/>
<image x="628" y="677" width="4" height="5" xlink:href="33/shade/84.png"/>
<path fill-rule="evenodd" d="M630.5,678.7h-.7c-.1,0,-.1,.1,-.1,.1v.3c0,0,0,.1,.1,.1h.7c0,0,.1,-.1,.1,-.1v-.3c0,0,-.1,-.1,-.1,-.1Z" class="g2_33"/>
<path fill-rule="evenodd" d="M630.5,680.3h-.7c-.1,0,-.1,.1,-.1,.1v.3c0,0,0,.1,.1,.1h.7c0,0,.1,-.1,.1,-.1v-.3c0,0,-.1,-.1,-.1,-.1Z" class="g2_33"/>
<path fill-rule="evenodd" d="M630.5,679.8h-.7q-.1,0,-.1,.1v.2q0,.1,.1,.1h.7c0,0,.1,0,.1,-.1v-.2c0,-.1,-.1,-.1,-.1,-.1Z" class="g2_33"/>
<path fill-rule="evenodd" d="M630.5,679.2h-.7c-.1,0,-.1,.1,-.1,.2v.2q0,.1,.1,.1h.7c0,0,.1,0,.1,-.1v-.2c0,-.1,-.1,-.2,-.1,-.2Z" class="g2_33"/>
<image x="542" y="675" width="14" height="15" xlink:href="33/shade/85.png"/>
<image x="582" y="675" width="15" height="15" xlink:href="33/shade/86.png"/>
<path fill-rule="evenodd" d="M666.8,689.4l-.3,10.1l18.6,-2.6l6.9,-1.8v-1.9h.4V695l7.4,-2l15,-1.8l7.2,-.8v-1.3h.4v1.2l7.6,-.9l17,-1.1l-.1,-3.8l-16.8,-.3l-15,.6l-15.4,.7l-8.7,.7l-7.1,1.2Z" class="gd_33"/>
<image x="705" y="684" width="10" height="12" xlink:href="33/shade/87.png"/>
<image x="746" y="683" width="11" height="11" xlink:href="33/shade/88.png"/>
<image x="741" y="675" width="15" height="14" xlink:href="33/shade/89.png"/>
<image x="701" y="676" width="14" height="15" xlink:href="33/shade/90.png"/>
<path fill-rule="evenodd" d="M660.7,657.9c0,0,.2,.4,.3,1c.1,.5,.2,1,.1,1c0,0,-.2,-.4,-.3,-1c-.1,-.5,-.2,-1,-.1,-1Z" class="gd_33"/>
<path d="M630.6,680.8c-.1,.1,-.2,.1,-.3,.1h-.4q-.1,0,-.2,0q.1,0,.1,0h.6q.1,0,.2,0v-.1Z" class="gf_33"/>
<image x="628" y="679" width="4" height="2" xlink:href="33/shade/91.png"/>
<path d="M630.1,680.4l-.3,.4h.6l.1,-.1Z" class="g2_33"/>
<path d="M624.6,688.5l-.1,.2h.1l.1,-.2Z" class="gg_33"/>
<path d="M635,673.5l-.4,.3c.1,.5,.2,1,.3,1.5c-.6,.8,-1.3,1.3,-2,1.7h.1l.8,-.5l1.4,-1.5c-.1,-.5,-.2,-1.1,-.2,-1.5m-1.5,3.4c.1,0,.2,0,.3,0c.1,0,.2,0,.2,0c.1,-.1,.2,-.2,.3,-.3c.1,-.2,.2,-.3,.2,-.5l-.7,.4Zm1.3,-5.6c-.1,-.1,-.1,-.3,-.1,-.4l-.4,.5c.1,.2,.1,.4,.1,.6Z" class="gh_33"/>
<path d="M626.5,676.5l1.9,1c.1,0,.3,0,.4,0l-.9,-1.7L614.4,663.4Zm8.1,-2.8l-2.2,2.1l-.8,1.5c.2,-.1,.7,-.2,1.3,-.3c.7,-.4,1.4,-.9,2,-1.7c-.1,-.5,-.2,-1,-.3,-1.6m-7.6,3.9c.1,0,.3,0,.4,0l-.9,-1.1l-6.9,-3.6Zm7.3,-6.2l-3.7,6l-.5,-10.6l-.4,10.6l-5.6,-8.9l3.8,7.3l1.8,1.7c.4,-.1,.7,-.1,1,-.1l1.7,-1.6l2,-3.8c0,-.2,0,-.4,-.1,-.6Z" class="gi_33"/>
<path d="M620.9,687.9l-.3,.3l.9,.1l.4,-.3Z" class="gg_33"/>
<path d="M614.4,694.9l7.1,-6.6l-.9,-.1Zm12.5,-13.6l-6,6.6l1,.1l5.7,-5.3l1.3,-2.5Zm6.5,0l-2,-1.1l1.3,2.5l13.2,12.2Zm-1.6,-2.7h.1l.3,-.3Zm-3.7,-.3l.3,.3h.1Zm.7,-.8c-.1,0,-.3,0,-.4,0l.5,.3Zm6.4,-2.5l10.7,-11.6l-11,10.1c.1,.4,.2,1,.3,1.5m-2.3,2c-.6,.1,-1.1,.2,-1.3,.3l-.2,.5L633,677q-.1,0,-.1,0m3.3,12.6l-3.5,-6.9l-1.9,-1.6Zm-12.1,0l.5,-.9h-.1Zm.5,-1.1h.1l4.8,-7.4l-1.9,1.6Zm7.2,-9l10.5,-.5l-10.4,-.4l-.5,.5l2,2.2l7.3,3.8Zm-3.4,-.9L618,679l10.5,.5l-8.9,5.6l7.3,-3.8l2,-2.2Zm1.4,2.3h-.1l.4,8.4v1.9l.1,-1.9l.4,-8.4q-.1,0,-.2,0ZM627,677.6l1.1,.7l-.7,-.7c-.1,0,-.3,0,-.4,0m7.5,-1.5c0,.2,-.1,.3,-.2,.5c-.1,.1,-.2,.2,-.3,.3c0,0,-.1,0,-.2,0c-.1,0,-.2,0,-.3,0l-1.3,1.4l8.5,-5.4Zm1.7,-7.6l-1.5,2.4c0,.1,0,.3,.1,.4Zm-6.1,9.4l.6,-.5c-.3,0,-.6,0,-1,.1Z" class="gj_33"/>
<path d="M630.7,680.8q0,.1,-.1,.1l.2,.2Z" class="gj_33"/>
<path d="M630.6,680.7q0,.1,0,.1v.1q.1,0,.1,-.1Z" class="gf_33"/>
<image x="629" y="679" width="2" height="2" xlink:href="33/shade/92.png"/>
<path d="M629.6,680.9l-.1,.2l.1,-.2Z" class="gj_33"/>
<path d="M629.6,680.8v.1l.1,-.1c0,0,-.1,0,-.1,0Z" class="gf_33"/>
<image x="628" y="679" width="3" height="2" xlink:href="33/shade/93.png"/>
<path d="M629.7,680.7v0Z" class="g2_33"/>
<path d="M633.5,676.9l.3,-.4l-.8,.5l-1.6,.8l.2,-.5l.8,-1.5l-1.7,1.6l-.6,.5l-.4,-.4l-1.8,-1.7l.9,1.7l.1,.3l-.5,-.3l-1.9,-1l.9,1.1l.7,.7l.4,.3h-.1l.5,.5l-2,2.2l2,-1.1l-1.3,2.5l1.9,-1.6l.1,-.2c-.1,-.1,-.1,-.2,-.1,-.2v-2.1c0,-.1,.1,-.3,.3,-.3h.6c.2,0,.4,.2,.4,.3v2.1c0,0,-.1,.1,-.1,.1l.1,.3l1.9,1.6l-1.3,-2.5l2,1.1l-2,-2.2l.5,-.5h-.1l.4,-.3Z" class="g2_33"/>
<path d="M630.4,678.3h-.6c-.2,0,-.3,.2,-.3,.3v2.1c0,0,0,.1,.1,.2v-.1q0,-.1,0,-.2v-1.8c0,-.2,.1,-.3,.3,-.3h.4c.2,0,.4,.1,.4,.3v1.8q0,.1,-.1,.1l.1,.1c0,0,.1,-.1,.1,-.1v-2.1c0,-.1,-.2,-.3,-.4,-.3m.2,2.5v0Z" class="gk_33"/>
<image x="628" y="677" width="4" height="5" xlink:href="33/shade/94.png"/>
<path d="M630.4,678.7h-.6l-.1,.1v.3l.1,.1h.6l.2,-.1v-.3Z" class="g2_33"/>
<path d="M630.4,680.3h-.6l-.1,.1v.3l.1,.1l.3,-.4l.4,.3h.1v-.3Z" class="g2_33"/>
<path d="M630.4,679.8h-.6l-.1,.1v.2l.1,.1h.6l.2,-.1v-.2Z" class="g2_33"/>
<path d="M630.4,679.2h-.6l-.1,.2v.2l.1,.1h.6l.2,-.1v-.2Z" class="g2_33"/>
<path d="M663.2,670.2c0,.1,0,.2,0,.3l.3,.5c0,-.1,0,-.2,0,-.3Z" class="gl_33"/>
<path d="M662.4,668.9l.8,1.6c0,-.1,0,-.2,0,-.3Z" class="gm_33"/>
<path d="M672.3,677.6c-.2,0,-.5,0,-.8,0c.2,0,.5,0,.8,0Z" class="gn_33"/>
<path d="M663.3,676.2c.1,.1,.2,.2,.3,.4c.1,.1,.2,.2,.2,.3c.1,0,.2,0,.3,0c.1,0,.3,0,.5,0c-.3,-.1,-.4,-.2,-.6,-.4Z" class="gl_33"/>
<path d="M673.8,688.4h-.2l.1,.2h.1Z" class="go_33"/>
<path d="M663.4,675.5l1.4,1.4l.1,.1c.8,.1,1.4,.3,1.4,.3c0,0,.2,0,.5,.1l-.6,-1.2l-2.9,-2.7c0,.8,0,1.4,.1,2m7.3,.7l-.7,1.4c.3,0,.6,0,.8,0l1.4,-.7l12,-13.1Zm-6.1,.7c0,0,.1,.1,.2,.1v-.1l-.8,-.4c.2,.2,.3,.3,.6,.4m6.9,.7c.3,0,.6,0,.8,0l6.7,-4.3l-6.8,3.6Zm-2.4,-.1c0,0,.1,0,.2,0l1.4,-1.3l3.8,-7.3Zm-1.1,-.1c.3,.1,.6,.1,.9,.1l-.5,-10.3ZM663.5,671l2.7,5.2l1.3,1.2c.1,0,.2,0,.3,0l-4.3,-6.7c0,.1,0,.2,0,.3Z" class="gi_33"/>
<path d="M663,673.2c-.1,.5,-.2,1,-.2,1.5l.6,.8c-.1,-.6,-.1,-1.2,-.1,-2Z" class="gl_33"/>
<path d="M662.5,672.8c.1,.5,.2,1,.3,1.4c.1,-.3,.1,-.6,.1,-1Z" class="gm_33"/>
<path d="M677.3,687.8l-1,.2l.3,.3l1,-.1Z" class="go_33"/>
<path d="M677.6,688.2l-1,.1l7.6,7Zm-8.7,-7l.2,.2l-.2,-.3Zm-1.1,.2l.2,-.2v-.1Zm-2.6,.3l-12.5,13.6l13.2,-12.2l1.4,-2.5Zm6.5,0l-2,-1.1l1.3,2.5l5.3,4.9l1,-.2Zm-5.2,-2.9l.2,.2h.1Zm3.6,.2h.2l.2,-.3Zm-7.3,-4.9c0,0,0,.1,0,.1c0,0,0,-.1,0,-.1m.1,-.9c0,.3,0,.6,-.1,.9c.1,-.3,.1,-.6,.2,-.9Zm3.9,4.2c-.3,-.1,-.5,-.1,-.5,-.1c0,0,-.6,-.2,-1.4,-.3l2.4,1.2Zm-4,-3.2c-.1,-.4,-.2,-.9,-.3,-1.4l-9.8,-9l10.1,10.9c0,-.2,0,-.3,0,-.5m7.2,3.4l-.3,.6l1.1,-.6c-.2,0,-.5,0,-.8,0m3.7,11l.8,1.4l-.7,-1.4Zm-.1,-.2h.2L671,683.1l-1.9,-1.7ZM662.4,690l5.4,-8.6l-1.9,1.7Zm4.3,-11l-10.4,.4l10.5,.5l-8.9,5.6l7.3,-3.8l2,-2.1Zm3.4,.9l10.5,-.5L670.3,679l-.6,.6l2,2.1l7.3,3.8Zm-5.5,-3c-.2,0,-.4,0,-.5,0c-.1,0,-.2,0,-.3,0c0,-.1,-.1,-.2,-.2,-.3c-.1,-.2,-.2,-.3,-.3,-.4l-5.4,-2.9l8.6,5.5L664.8,677c-.1,0,-.2,-.1,-.2,-.1m3.7,4l-.3,.3l.4,8.1l.1,2.3l.1,-2.4l.3,-8l-.3,-.3Zm3.2,-3.3l-1,1.1l1.8,-1.1c-.3,0,-.6,0,-.8,0m-2.2,-.1c-.1,0,-.2,0,-.2,0l-.2,.3v-.3c-.3,0,-.6,0,-.9,-.1v.4l-.2,-.4c-.1,0,-.2,0,-.3,0l1,.9Z" class="gj_33"/>
<path d="M671.5,677.6c-.1,0,-.2,0,-.4,0c.2,0,.3,0,.4,0Z" class="gp_33"/>
<path d="M669.7,679.6l.6,-.6h-.2l.4,-.3l1,-1.1c-.1,0,-.2,0,-.4,0c.2,0,.3,0,.4,0l.7,-.7l-1.4,.7l-1.1,.6l.3,-.6l.7,-1.4l-1.4,1.3l-.8,.8l-1,-.9l-1.3,-1.2l.6,1.1l.5,.9L664.9,677l-.1,-.1v.1l1.7,1.8l.3,.2h-.1l.5,.6l-2,2.1l2.1,-1.1l-1.4,2.5l1.9,-1.7l.2,-.3v.1l.3,-.3h-.1c-.2,0,-.3,-.1,-.3,-.2v-2.1c0,-.1,.1,-.3,.3,-.3h.6c.2,0,.4,.2,.4,.3v2.1c0,.1,-.2,.2,-.4,.2h-.2l.3,.3v-.1l.2,.3l1.9,1.7l-1.3,-2.5l2,1.1Z" class="g2_33"/>
<path d="M668.5,680.9h-.2h.3Z" class="gf_33"/>
<image x="667" y="680" width="4" height="2" xlink:href="33/shade/95.png"/>
<path d="M668.8,678.3h-.6c-.2,0,-.3,.2,-.3,.3v2.1c0,.1,.1,.2,.3,.2h.2h-.1c-.2,0,-.3,-.1,-.3,-.3v-1.8c0,-.2,.1,-.3,.3,-.3h.4c.2,0,.3,.1,.3,.3v1.8c0,.2,-.1,.3,-.3,.3h-.2h.3c.2,0,.4,-.1,.4,-.2v-2.1c0,-.1,-.2,-.3,-.4,-.3Z" class="gk_33"/>
<image x="667" y="677" width="4" height="5" xlink:href="33/shade/96.png"/>
<path d="M668.8,678.7h-.6l-.1,.1v.3l.1,.1h.6l.2,-.1v-.3Z" class="g2_33"/>
<path d="M668.8,680.3h-.6l-.1,.1v.3l.1,.1h.6l.2,-.1v-.3Z" class="g2_33"/>
<path d="M668.8,679.8h-.6l-.1,.1v.2l.1,.1h.6l.2,-.1v-.2Z" class="g2_33"/>
<path d="M668.8,679.2h-.6l-.1,.2v.2l.1,.1h.6l.2,-.1v-.2Z" class="g2_33"/>
<path fill-rule="evenodd" d="M648.9,670.3l-.1,3.1l-1.6,-2.6l1.4,2.8l-2.8,-1.5l2.7,1.7l-3.1,.1l3.1,.1l-2.7,1.7l2.8,-1.4l-1.4,2.7l1.6,-2.6l.1,3.1l.2,-3.1l1.6,2.6l-1.4,-2.7l2.7,1.4L649.4,674l3.1,-.1l-3.1,-.1l2.6,-1.7l-2.7,1.5l1.4,-2.8l-1.6,2.6Z" class="g2_33"/>
<path fill-rule="evenodd" d="M653.6,669.3l-4.7,4.3l-4.6,-4.3l4.3,4.6l-4.3,4.7l4.6,-4.3l4.7,4.3l-4.3,-4.7Z" class="g2_33"/>
<image preserveAspectRatio="none" x="594" y="160" width="277" height="395" xlink:href="33/img/3.png"/>
<image preserveAspectRatio="none" x="127" y="548" width="286" height="348" xlink:href="33/img/4.png"/>
<image preserveAspectRatio="none" x="292" y="296" width="337" height="309" xlink:href="33/img/5.png"/>
<text x="121" y="1076" class="s6_33">Copyright 2016 Cengage Learning. All Rights Reserved. May not be copied, scanned, or duplicated, in whole or in part. Due to electronic rights, some third party content may be suppressed from the eBook and/or eChapter(s).</text>
<text x="106" y="1087" class="s6_33">Editorial review has deemed that any suppressed content does not materially affect the overall learning experience. Cengage Learning reserves the right to remove additional content at any time if subsequent rights restrictions require it.</text>

</g>

<!-- Any embedded fonts defined here -->
<style type="text/css" ><![CDATA[

@font-face {
	font-family: MyriadPro-BoldSemiCn_90;
	src: url("fonts/MyriadPro-BoldSemiCn_90.woff") format("woff");
}

@font-face {
	font-family: MyriadPro-Bold_74;
	src: url("fonts/MyriadPro-Bold_74.woff") format("woff");
}

@font-face {
	font-family: MyriadPro-SemiboldSemiCn_4e;
	src: url("fonts/MyriadPro-SemiboldSemiCn_4e.woff") format("woff");
}

@font-face {
	font-family: Times-Roman_4n;
	src: url("fonts/Times-Roman_4n.woff") format("woff");
}

@font-face {
	font-family: TimesLTStd-Roman_6c;
	src: url("fonts/TimesLTStd-Roman_6c.woff") format("woff");
}

]]></style>

</svg>
