<?xml version="1.0" encoding="UTF-8" standalone="no"?>
<!DOCTYPE svg PUBLIC "-//W3C//DTD SVG 1.1//EN"
"http://www.w3.org/Graphics/SVG/1.1/DTD/svg11.dtd">


<!-- Page 34 -->
<svg x="0" y="0" width="931" height="1096" viewBox="0 0 931 1096" version="1.1" xmlns="http://www.w3.org/2000/svg" xmlns:xlink="http://www.w3.org/1999/xlink"
style="display: block;margin-left: auto;margin-right: auto;">
<defs>
<clipPath id="c_34"><path d="M0,0H931V1096H0Z"/></clipPath>
<style type="text/css"><![CDATA[
text { white-space: pre; }
path, image { pointer-events: none; }

.s1_34{
font-size: 15.28px;
font-family: MyriadPro-Semibold_49;
fill: #231F20;
}
.s2_34{
font-size: 12.22px;
font-family: MyriadPro-Semibold_49;
fill: #231F20;
}
.s3_34{
font-size: 16.81px;
font-family: MyriadPro-Semibold_49;
fill: #231F20;
}
.s4_34{
font-size: 15.28px;
font-family: TimesLTStd-Roman_6c;
fill: #231F20;
}
.s5_34{
font-size: 15.28px;
font-family: TimesLTStd-Italic_o3;
fill: #231F20;
}
.s6_34{
font-size: 13.75px;
font-family: TECHMath-Mix_xb;
fill: #231F20;
}
.s7_34{
font-size: 19.86px;
font-family: MathematicalPi-One__6;
fill: #231F20;
}
.s8_34{
font-size: 13.75px;
font-family: TECHMath-Mix__2;
fill: #231F20;
}
.s9_34{
font-size: 9.17px;
font-family: TimesLTStd-Italic_o3;
fill: #231F20;
}
.sa_34{
font-size: 15.28px;
font-family: MathematicalPiLTStd-5_vb;
fill: #231F20;
}
.sb_34{
font-size: 9.93px;
font-family: TimesLTStd-Italic_o3;
fill: #231F20;
}
.sc_34{
font-size: 9.93px;
font-family: UniversalChemicalPi-T_-_;
fill: #231F20;
}
.sd_34{
font-size: 9.93px;
font-family: MathematicalPiLTStd-1_rr;
fill: #231F20;
}
.se_34{
font-size: 15.28px;
font-family: TimesLTStd-Roman_-s;
fill: #231F20;
}
.sf_34{
font-size: 15.28px;
font-family: MathematicalPi-One-Italic_x2;
fill: #231F20;
}
.sg_34{
font-size: 9.17px;
font-family: TimesLTStd-Roman_-s;
fill: #231F20;
}
.sh_34{
font-size: 10.70px;
font-family: TECHMath-Mix_-x;
fill: #231F20;
}
.si_34{
font-size: 12.22px;
font-family: Times-Roman_n6;
fill: #231F20;
}
.sj_34{
font-size: 12.22px;
font-family: TECHMath-Mix_-x;
fill: #231F20;
}
.sk_34{
font-size: 12.99px;
font-family: TECHMath-Mix_-x;
fill: #231F20;
}
.sl_34{
font-size: 12.99px;
font-family: Times-Italic_n3;
fill: #231F20;
}
.sm_34{
font-size: 15.28px;
font-family: MathematicalPiLTStd-3_ry;
fill: #231F20;
}
.sn_34{
font-size: 12.99px;
font-family: TECHMath-Mix__2;
fill: #231F20;
}
.so_34{
font-size: 12.99px;
font-family: TECHMath-Mix_-o;
fill: #231F20;
}
.sp_34{
font-size: 14.51px;
font-family: MyriadPro-Bold_74;
fill: #231F20;
}
.sq_34{
font-size: 15.28px;
font-family: MyriadPro-Bold_74;
fill: #231F20;
}
.sr_34{
font-size: 13.75px;
font-family: MyriadPro-Bold_74;
fill: #FFFFFF;
}
.ss_34{
font-size: 13.75px;
font-family: TimesLTStd-Roman_-s;
fill: #231F20;
}
.st_34{
font-size: 7.64px;
font-family: Times-Roman_4n;
fill: #000000;
}

.g0_34{
fill: #CC017A;
}
.g1_34{
fill: none;
stroke: #00AEEF;
stroke-width: 0.916;
stroke-linecap: butt;
stroke-linejoin: round;
stroke-miterlimit: 3;
}
.g2_34{
fill: none;
stroke: #EC008C;
stroke-width: 0.763;
stroke-linecap: butt;
stroke-linejoin: round;
stroke-miterlimit: 3;
}
.g3_34{
fill: #C7EAFA;
}
.g4_34{
fill: none;
stroke: #231F20;
stroke-width: 0.381;
stroke-linecap: butt;
stroke-linejoin: miter;
stroke-miterlimit: 3;
}
.g5_34{
fill: #231F20;
}
.g6_34{
fill: none;
stroke: #231F20;
stroke-width: 0.611;
stroke-linecap: butt;
stroke-linejoin: miter;
stroke-miterlimit: 3;
}
.g7_34{
fill: #00AEEF;
}
.g8_34{
fill: none;
stroke: #00AEEF;
stroke-width: 0.583;
stroke-linecap: butt;
stroke-linejoin: miter;
stroke-miterlimit: 3;
}
.g9_34{
fill: none;
stroke: #00AEEF;
stroke-width: 0.763;
stroke-linecap: butt;
stroke-linejoin: miter;
stroke-miterlimit: 3;
}
.ga_34{
fill: none;
stroke: #EC008C;
stroke-width: 0.763;
stroke-linecap: butt;
stroke-linejoin: miter;
stroke-miterlimit: 3;
}
.gb_34{
fill: #EC008C;
}

]]></style>

</defs>
<g clip-path="url(#c_34)">
<path d="M0,0
L0,1096
L931,1096
L931,0 Z " 
fill="#FFFFFF" stroke="none"/>
<text x="53" y="64" class="s1_34">2</text>
<text x="126" y="64" dx="0,.1,.1,.2,.2,.3,.2,.2,.3,.1,.1,.2,.1,.1,.3,.2,-.2,.2,.2,-.2,.2" class="s2_34">A PREVIEW OF CALCULUS</text>
<path d="M288.8,97.9c0,0,-1.6,0,-1.6,1.6v9.1c0,0,0,1.6,1.6,1.6h9.1c0,0,1.6,0,1.6,-1.6V99.5c0,0,0,-1.6,-1.6,-1.6Z" class="g0_34"/>
<text x="306" y="110" dx="0,-.2,0,0,0,-.1,-.2,0,0,0,-.2,-.2,0,0,0,0" class="s3_34">The Area Problem</text>
<text x="286" y="133" dx="0,0,0,0,1.4,0,0,0,0,0,0,0,1.4,0,0,1.4,0,0,0,0,0,0,0,0,1.4,0,0,1.4,0,0,0,0,1.4,0,0,1.4,0,0,0,0,0,1.4,0,0,0,0,1.4,0,0,0,0,0,1.4,0,0,1.4,0,0,0,1.4,0,0,0,0,0,0,0,1.4,0,0,0,0,0,0,0,1.4,0,0,0,1.4,0,0,0,0,0" class="s4_34">The origins of calculus go back at least 2500 years to the ancient Greeks, who found </text>
<text x="287" y="151" dx="0,0,0,0,0,0,.3,0,0,0,0,0,.3,0,0,0,.3,0,0,0,0,0,0,0,.3,0,0,.3,-.2,0,0,0,0,0,0,0,0,0,-1.1,0,0,0,0,-.2,0,.3,0,0,-.4,0,.3,0,-.4,0,.3,0,0,.3,0,0,0,.3,0,0,0,.3,0,0,0,0" class="s4_34">areas using the “method of exhaustion.” They knew how to ±nd the area </text>
<text x="734" y="151" class="s5_34">A</text>
<text x="748" y="151" dx="0,0,0,.3,0,-.2,0,.3,0,0,0,0" class="s4_34">of any poly-</text>
<text x="287" y="169" dx="0,0,0,0,0,0,0,0,0,-.4,0,0,0,0,0,0,0,0,0,0,0,0,0,0,0,0,0,0,0,0,0,0,0,0,0,0,0,0,0,0,0,0,0,0,0,0,0,0,0,0,0,0,0,0,0,0,0,0,0,0,0,0,0,0,0,0,0,0,0,0,0,0,0,0,0,0,0,0,0,0,0,0,0,0,0,0,0,0,0" class="s4_34">gon by dividing it into triangles as in Figure 1 and adding the areas of these triangles.</text>
<text x="305" y="188" dx="0,0,0,1.6,0,0,1.6,0,1.6,0,0,0,0,1.6,0,0,0,0,1.6,0,0,-.4,0,0,0,0,0,1.6,0,0,0,0,0,0,0,1.6,0,0,1.6,0,0,0,1.6,0,0,0,1.6,0,0,0,0,1.6,0,0,1.6,0,1.6,0,0,0,-.2,0,0,1.6,0,0,0,0,0,0,1.3,0,0,0,1.6,0,0,0,0,-.1" class="s4_34">It is a much more dif±cult problem to ±nd the area of a curved ±gure. The Greek </text>
<text x="287" y="206" dx="0,0,0,0,0,0,0,.2,0,0,.2,-.2,0,0,0,0,0,0,0,0,0,.2,-.2,0,0,.2,0,0,.2,0,0,0,0,0,0,0,0,.2,0,0,0,0,0,0,0,0,.2,0,0,.2,0,0,0,.2,0,0,0,0,0,.2,0,0,0,.2,0,0,0,0,0,0,0,0,0,0,0,0,.2,0,0,0,0,0,0,0,0" class="s4_34">method of exhaustion was to inscribe polygons in the ±gure and circumscribe polygons </text>
<text x="287" y="224" dx="0,0,0,0,0,0,-.4,0,0,0,-.4,0,0,0,0,0,-.4,0,0,0,-.4,0,0,0,0,-.4,0,0,0,-.4,0,0,0,-.4,0,0,0,0,0,0,-.4,0,0,-.4,0,0,0,0,0,-.4,0,0,-.4,0,0,0,-.4,0,0,0,0,0,0,0,0,-.4,0,0,0,0,0,0,0,0,0,-.4,0,0,0,0,0,0,-.4,0,-.4,0,0,0,0,0" class="s4_34">about the ±gure and then let the number of sides of the polygons increase. Figure 2 illus-</text>
<text x="287" y="243" dx="0,0,0,0,0,0,0,0,0,0,0,0,0,0,0,0,0,0,0,0,0,0,0,0,0,0,0,0,0,0,0,0,0,0,0,0,0,0,0,0,0,0,0,0,0,0,0,0,0,0,0,0,0,0,0,0,0,0,0,0,0,0,0,0,0,0,0,0,0,0,-.2,0,0,0,0,0,0,0,0,0,0,0,0,0,0" class="s4_34">trates this process for the special case of a circle with inscribed regular polygons.</text>
<text x="742" y="319" class="s6_34">A¡™</text>
<path d="M704.9,316.9c0,-25.3,20.5,-45.9,45.8,-45.9c25.3,0,45.8,20.6,45.8,45.9c0,25.3,-20.5,45.8,-45.8,45.8c-25.3,0,-45.8,-20.5,-45.8,-45.8Z" class="g1_34"/>
<text x="803" y="324" class="s7_34">°°°</text>
<path d="M773.5,356.2l-22.8,6.2l-22.9,-6.2L711.1,339.5L705,316.7l6.1,-22.8l16.7,-16.8L750.7,271l22.8,6.1l16.7,16.8l6.2,22.8l-6.2,22.8l-16.7,16.7Z" class="g2_34"/>
<text x="617" y="319" class="s8_34">A¶</text>
<path d="M578.1,316.9c0,-25.3,20.5,-45.8,45.9,-45.8c25.3,0,45.8,20.5,45.8,45.8c0,25.3,-20.5,45.9,-45.8,45.9c-25.4,0,-45.9,-20.6,-45.9,-45.9Z" class="g1_34"/>
<text x="676" y="324" class="s7_34">°°°</text>
<path d="M659.5,345.1l-35.4,17.2l-35.6,-17l-8.8,-38.4l24.5,-30.8l39.3,-.1l24.7,30.7l-8.7,38.4Z" class="g2_34"/>
<text x="502" y="319" class="s8_34">Aß</text>
<path d="M463.2,316.9c0,-25.3,20.6,-45.8,45.9,-45.8c25.3,0,45.8,20.5,45.8,45.8c0,25.3,-20.5,45.9,-45.8,45.9c-25.3,0,-45.9,-20.6,-45.9,-45.9Z" class="g1_34"/>
<path d="M531.7,356.1H486.5L463.8,316.9l22.7,-39.2h45.2l22.6,39.2l-22.6,39.2Z" class="g2_34"/>
<text x="387" y="319" class="s8_34">A∞</text>
<path d="M348,316.9c0,-25.3,20.5,-45.8,45.8,-45.8c25.3,0,45.8,20.5,45.8,45.8c0,25.3,-20.5,45.9,-45.8,45.9C368.5,362.8,348,342.2,348,316.9Z" class="g1_34"/>
<path d="M437,330.9l-43.2,31.4L350.6,330.9l16.5,-50.7h53.4L437,330.9Z" class="g2_34"/>
<text x="272" y="319" class="s8_34">A¢</text>
<path d="M233.5,316.9c0,-25.3,20.5,-45.8,45.8,-45.8c25.3,0,45.8,20.5,45.8,45.8c0,25.3,-20.5,45.9,-45.8,45.9c-25.3,0,-45.8,-20.6,-45.8,-45.9Z" class="g1_34"/>
<path d="M246.9,349.3h64.8V284.6H246.9v64.7Z" class="g2_34"/>
<path d="M118.9,316.9c0,-25.3,20.6,-45.8,45.9,-45.8c25.3,0,45.8,20.5,45.8,45.8c0,25.3,-20.5,45.9,-45.8,45.9c-25.3,0,-45.9,-20.6,-45.9,-45.9Z" class="g1_34"/>
<path d="M125.3,339.7l39.5,-68.5l39.5,68.5h-79Z" class="g2_34"/>
<text x="158" y="319" class="s8_34">A£</text>
<text x="305" y="399" class="s4_34">Let </text>
<text x="330" y="399" class="s5_34">A</text>
<text x="339" y="401" class="s9_34">n</text>
<text x="347" y="399" dx="0,0,0,-.5,0,0,0,-.5,0,0,0,0,-.5,0,0,-.5,0,0,0,-.5,0,0,0,0,0,0,0,0,0,-.5,0,0,0,0,0,0,0,-.5,0,0,0,0" class="s4_34">be the area of the inscribed polygon with </text>
<text x="596" y="399" class="s5_34">n</text>
<text x="607" y="399" dx="0,0,0,0,0,0,0,-1.4,0,0" class="s4_34">sides. As </text>
<text x="664" y="399" class="s5_34">n</text>
<text x="675" y="399" dx="0,0,0,0,0,0,0,0,0,0,0,-.5,0,0,-.5,0,0,0,0,0,0,0,-.5,0,0,0,0" class="s4_34">increases, it appears that </text>
<text x="288" y="418" class="s5_34">A</text>
<text x="297" y="419" class="s9_34">n</text>
<text x="306" y="418" dx="0,0,0,0,0,0,0,0,.4,0,0,0,0,0,0,.4,0,0,0,.4,0,0,0,0,0,0,.4,0,0,.4,0,0,0,.4,0,0,0,0,.4,0,0,.4,0,0,0,.4,0,0,0,0,0,0,0,-.1,-1.2,0,.4,0,0,0,.4,0,0,0,0,.4,0,0,0,.4,0,0,0,0,.4,0,0,.4,0,0,0,.4,0,0,0,0,0,0" class="s4_34">becomes closer and closer to the area of the circle. We say that the area of the circle </text>
<text x="287" y="436" class="s4_34">is the limit of the areas of the inscribed polygons, and we write</text>
<text x="518" y="473" class="s5_34">A</text>
<text x="532" y="473" class="sa_34">-</text>
<text x="551" y="473" dx="0,0,0,-1.5" class="s4_34">lim </text>
<text x="549" y="482" class="sb_34">n</text>
<text x="556" y="482" class="sc_34">l</text>
<text x="567" y="482" class="sd_34">`</text>
<text x="579" y="473" class="s5_34">A</text>
<text x="588" y="474" class="s9_34">n</text>
<text x="287" y="514" dx="0,0,0,0,2,0,0,0,0,0,0,2,0,0,0,0,0,0,0,-.2,0,0,2,0,0,0,2,0,0,0,2,0,0,0,2,0,0,0,0,0,0,2,-.2,0,0,0,0,0,0,0,0,-1,0,2,0,-.4,0,-.4,-.2,0,-.6,0,2,0,0,2,0,0,0,0,0,0,0,0,2,0,0,0,0,0,0,0,0,0,0" class="s4_34">The Greeks themselves did not use limits explicitly. However, by indirect reasoning, </text>
<text x="287" y="532" dx="0,0,0,0,0,0,0,0,.2,0" class="s4_34">Eudoxus (±</text>
<text x="357" y="532" dx="0,0,0,0,.2,0,0,0,0,0,0,0,.2,0,0,0,.2,0,0,0,0,.2,-.2,0,0,0,0,0,0,0,0,0,.2,0,0,.2,0,0,-.2,-.2,0,.2,0,0,0,.2,-.2,0,0,0,0,0,0,0,.2,0,0,0,0,0,0,0,.2,0,0,0,.2,0,0,0,.2,0,0,0,0,.2,0,0" class="se_34">fth century bC) used exhaustion to prove the familiar formula for the area of </text>
<text x="287" y="551" class="se_34">a circle: </text>
<text x="340" y="551" class="s5_34">A</text>
<text x="354" y="551" class="sa_34">-</text>
<text x="371" y="551" class="sf_34">°</text>
<text x="382" y="551" class="s5_34">r</text>
<text x="390" y="545" class="sg_34">2</text>
<text x="394" y="551" class="se_34">.</text>
<text x="305" y="569" dx="0,-1.2,0,.5,0,0,0,0,.5,0,0,0,.5,0,.5,0,0,0,0,0,0,0,.5,0,0,0,0,.5,0,0,.5,0,0,0,0,0,0,0,.5,0,.5,0,0,.5,0,0,0,.5,0,0,0,0,0,.5,0,0,.5,0,-.2,0,0,0,0,0,.5,0,0,.5,0,0,0,.5,0,0,0,0,.5,0,0,-.4,0,0,.5,0,0" class="se_34">We will use a similar idea in ±hapter 5 to Ind areas of regions of the type shown in </text>
<text x="287" y="587" dx="0,0,0,0,0,0,0,-.1,0,0,-.6,-1.2,0,-.1,0,0,0,0,-.1,0,0,0,0,0,0,0,0,0,0,0,-.1,0,0,0,-.1,0,0,0,0,0,0,0,-.1,0,0,0,0" class="se_34">Figure 3. We will approximate the desired area </text>
<text x="576" y="587" class="s5_34">A</text>
<text x="589" y="587" dx="0,0,0,-.1,0,0,0,0,0,-.1,0,0,-.1,0,0,0,0,0,0,0,0,0,0,-.1,0,0,0,-.1,0,0,-.1,0,0,0,0,0,0,-.1,0,0,0" class="se_34">By areas of rectangles (as in Figure 4), </text>
<text x="287" y="606" dx="0,0,0,0,.5,0,0,0,.5,0,0,0,0,0,.5,0,0,.5,0,0,0,.5,0,0,0,0,0,0,0,0,0,0,.5,0,0,0,0,0,0,0,0,0,.5,0,0,0,.5,0,0,0,0,.5,0,0,0,0,0,0,0,0,0" class="se_34">let the width of the rectangles decrease, and then calculate </text>
<text x="652" y="606" class="s5_34">A</text>
<text x="666" y="606" dx="0,0,0,.5,0,0,0,.5,0,0,0,0,0,.5,0,0,.5,0,0,0,0,0,.5,0,0,0,0" class="se_34">as the limit of these sums </text>
<text x="287" y="624" class="se_34">of areas of rectangles.</text>
<path d="M768.1,769.7h6.8V671.6h-6.8v98.1Z" class="g3_34"/>
<path d="M673.3,769.7h6.8v-3h-6.8v3Z" class="g3_34"/>
<path d="M680.1,769.7h6.8v-5h-6.8v5Z" class="g3_34"/>
<path d="M666.5,769.7h6.8v-1.5h-6.8v1.5Z" class="g3_34"/>
<path d="M707.2,769.7H714v-21h-6.8v21Z" class="g3_34"/>
<path d="M700.4,769.7h6.8V753.6h-6.8v16.1Z" class="g3_34"/>
<path d="M693.6,769.7h6.8V758.3h-6.8v11.4Z" class="g3_34"/>
<path d="M686.9,769.7h6.7v-7.6h-6.7v7.6Z" class="g3_34"/>
<path d="M720.7,769.7h6.8V735.8h-6.8v33.9Z" class="g3_34"/>
<path d="M727.5,769.7h6.8V728.5h-6.8v41.2Z" class="g3_34"/>
<path d="M713.9,769.7h6.8V742.8h-6.8v26.9Z" class="g3_34"/>
<path d="M761.4,769.7h6.7V681.9h-6.7v87.8Z" class="g3_34"/>
<path d="M754.6,769.7h6.8v-77h-6.8v77Z" class="g3_34"/>
<path d="M747.8,769.7h6.8V702.3h-6.8v67.4Z" class="g3_34"/>
<path d="M741,769.7h6.8V711.6H741v58.1Z" class="g3_34"/>
<path d="M734.3,769.7H741v-49h-6.7v49Z" class="g3_34"/>
<path d="M564.7,769.7h13.6V671.6H564.7v98.1Z" class="g3_34"/>
<path d="M551.2,769.7h13.5V692.4H551.2v77.3Z" class="g3_34"/>
<path d="M537.6,769.7h13.6V711.9H537.6v57.8Z" class="g3_34"/>
<path d="M524.1,769.7h13.5V728.5H524.1v41.2Z" class="g3_34"/>
<path d="M510.5,769.7h13.6V742.5H510.5v27.2Z" class="g3_34"/>
<path d="M497,769.7h13.5V753.6H497v16.1Z" class="g3_34"/>
<path d="M483.5,769.7H497v-7.6H483.5v7.6Z" class="g3_34"/>
<path d="M469.9,769.7h13.6V767H469.9v2.7Z" class="g3_34"/>
<path d="M273.3,769.7h27.1v-6.8H273.3v6.8Z" class="g3_34"/>
<path d="M300.4,769.7h27.1V743.1H300.4v26.6Z" class="g3_34"/>
<path d="M327.5,769.7h27.1V712.2H327.5v57.5Z" class="g3_34"/>
<path d="M354.6,769.7h27.1v-98H354.6v98Z" class="g3_34"/>
<path d="M82.9,769.7c44.1,0,84.9,-58.7,108.4,-98.5l-.1,98.5Z" class="g3_34"/>
<text x="679" y="785" class="sh_34">1</text>
<text x="679" y="797" class="sh_34">n</text>
<path d="M678.6,787.4h6.9" class="g4_34"/>
<path fill-rule="evenodd" d="M666.5,652.2l-2.4,1.6l2.4,-6.5l2.5,6.5Z" class="g5_34"/>
<path fill-rule="evenodd" d="M798.7,769.7l-1.6,-2.5l6.5,2.5l-6.5,2.4Z" class="g5_34"/>
<text x="772" y="784" class="si_34">1</text>
<path d="M774.9,671.6V772.7" class="g6_34"/>
<path d="M678.3,778.7l-2.8,-4.2" class="g4_34"/>
<path d="M673.7,771.8l3.8,2.7h-2l-.8,1.8Z" class="g5_34"/>
<text x="657" y="782" class="sj_34">0</text>
<text x="797" y="781" class="sj_34">x</text>
<text x="656" y="652" class="sj_34">y</text>
<text x="780" y="676" class="sj_34">(1, 1)</text>
<path d="M773.2,671.6c0,-1,.8,-1.8,1.7,-1.8c1,0,1.8,.8,1.8,1.8c0,.9,-.8,1.7,-1.8,1.7c-.9,0,-1.7,-.8,-1.7,-1.7Z" class="g7_34"/>
<path d="M773.2,671.6c0,-1,.8,-1.8,1.7,-1.8c1,0,1.8,.8,1.8,1.8c0,.9,-.8,1.7,-1.8,1.7c-.9,0,-1.7,-.8,-1.7,-1.7Z" class="g8_34"/>
<path fill-rule="evenodd" d="M469.9,652.2l-2.4,1.6l2.4,-6.5l2.4,6.5Z" class="g5_34"/>
<path fill-rule="evenodd" d="M602.1,769.7l-1.6,-2.5l6.5,2.5l-6.5,2.4Z" class="g5_34"/>
<text x="575" y="784" class="si_34">1</text>
<path d="M578.3,671.6V772.7M564.7,671.6v98.1" class="g6_34"/>
<text x="460" y="782" class="sj_34">0</text>
<text x="600" y="781" class="sj_34">x</text>
<text x="459" y="652" class="sj_34">y</text>
<text x="583" y="676" class="sj_34">(1, 1)</text>
<path d="M576.5,671.6c0,-.9,.8,-1.7,1.7,-1.7c1,0,1.8,.8,1.8,1.7c0,.9,-.8,1.7,-1.8,1.7c-.9,0,-1.7,-.8,-1.7,-1.7Z" class="g7_34"/>
<path d="M576.5,671.6c0,-.9,.8,-1.7,1.7,-1.7c1,0,1.8,.8,1.8,1.7c0,.9,-.8,1.7,-1.8,1.7c-.9,0,-1.7,-.8,-1.7,-1.7Z" class="g8_34"/>
<text x="298" y="784" class="sh_34">1</text>
<text x="297" y="797" class="sh_34">4</text>
<path d="M296.7,787.2h6.9" class="g4_34"/>
<text x="325" y="784" class="sh_34">1</text>
<text x="324" y="797" class="sh_34">2</text>
<path d="M324,787.2h6.9" class="g4_34"/>
<text x="351" y="784" class="sh_34">3</text>
<text x="351" y="797" class="sh_34">4</text>
<path d="M350.7,787.2h6.9" class="g4_34"/>
<path fill-rule="evenodd" d="M273.3,652.2l-2.5,1.6l2.5,-6.5l2.4,6.5Z" class="g5_34"/>
<path fill-rule="evenodd" d="M405.5,769.7l-1.6,-2.5l6.5,2.5l-6.5,2.4Z" class="g5_34"/>
<text x="264" y="782" class="sj_34">0</text>
<text x="403" y="781" class="sj_34">x</text>
<text x="262" y="652" class="sj_34">y</text>
<text x="378" y="784" class="si_34">1</text>
<path d="M381.7,671.7v101M300.4,762.1v10.6m27.1,-29.6v29.6m27.1,-60.5v60.5" class="g6_34"/>
<path d="M379.9,671.7c0,-.9,.9,-1.7,1.8,-1.7c.9,0,1.7,.8,1.7,1.7c0,.9,-.8,1.7,-1.7,1.7c-.9,0,-1.8,-.8,-1.8,-1.7Z" class="g7_34"/>
<path d="M379.9,671.7c0,-.9,.9,-1.7,1.8,-1.7c.9,0,1.7,.8,1.7,1.7c0,.9,-.8,1.7,-1.7,1.7c-.9,0,-1.8,-.8,-1.8,-1.7Z" class="g8_34"/>
<text x="387" y="676" class="sj_34">(1, 1)</text>
<text x="189" y="784" class="sj_34">1</text>
<path fill-rule="evenodd" d="M82.9,652.2l-2.4,1.6l2.4,-6.5l2.4,6.5Z" class="g5_34"/>
<text x="73" y="782" class="sj_34">0</text>
<text x="213" y="781" class="sj_34">x</text>
<text x="72" y="652" class="sj_34">y</text>
<text x="132" y="706" class="sk_34">y=≈</text>
<text x="163" y="749" class="sl_34">A</text>
<path fill-rule="evenodd" d="M214.7,769.7l-1.6,-2.5l6.5,2.5l-6.5,2.4Z" class="g5_34"/>
<path d="M57.6,763.4c8.4,3.6,16.9,6.3,25.7,6.3c41.1,0,80.5,-48,117,-113.6m47.3,107.3c8.4,3.6,17,6.3,25.7,6.3c41.1,0,80.5,-48,117.1,-113.6m53.8,107.3c8.5,3.6,17,6.3,25.7,6.3c41.1,0,80.5,-48.5,117.1,-113.6m53.9,107.3c8.4,3.6,16.9,6.3,25.6,6.3c41.1,0,80.6,-48.5,117.1,-113.6" class="g1_34"/>
<path d="M189.5,671.3c0,-.9,.8,-1.7,1.7,-1.7c1,0,1.8,.8,1.8,1.7c0,.9,-.8,1.7,-1.8,1.7c-.9,0,-1.7,-.8,-1.7,-1.7Z" class="g7_34"/>
<path d="M189.5,671.3c0,-.9,.8,-1.7,1.7,-1.7c1,0,1.8,.8,1.8,1.7c0,.9,-.8,1.7,-1.8,1.7c-.9,0,-1.7,-.8,-1.7,-1.7Z" class="g9_34"/>
<text x="197" y="676" class="sj_34">(1, 1)</text>
<path d="M82.9,795.8V652.2M54,769.7H214.7M191.3,671.2V772.7m109.1,-9.8H273.3v6.8h27.1Zm27.1,-19.8H300.4v26.6h27.1Zm27.1,-30.9H327.5v57.5h27.1Zm27.1,-40.5H354.6v98h27.1Zm196.6,-.1H564.7v98.1h13.6Zm-13.6,20.8H551.2v77.3h13.5Zm-13.5,19.5H537.6v57.8h13.6Zm-13.6,16.6H524.1v41.2h13.5Zm-13.5,14H510.5v27.2h13.6Zm-13.6,11.1H497v16.1h13.5ZM497,762.1H483.5v7.6H497ZM483.5,767H469.9v2.7h13.6Zm-42.1,2.7H602.1m-357.4,0H405.5m64.4,26.1V652.2M273.3,795.8V652.2m501.6,19.4h-6.8v98.1h6.8Zm-94.8,95.1h-6.8v3h6.8Zm6.8,-2h-6.8v5h6.8Zm-13.6,3.5h-6.8v1.5h6.8Zm40.6,-19.5h-6.7v21h6.7Zm-6.7,4.9h-6.8v16.1h6.8Zm-6.8,4.7h-6.8v11.4h6.8Zm-6.8,3.8h-6.7v7.6h6.7Zm33.9,-26.3h-6.8v33.9h6.8Zm6.8,-7.3h-6.8v41.2h6.8Zm-13.6,14.3h-6.8v26.9h6.8Zm47.4,-60.9h-6.7v87.8h6.7Zm-6.7,10.8h-6.8v77h6.8Zm-6.8,9.6h-6.8v67.4h6.8Zm-6.8,9.3H741v58.1h6.8Zm-6.8,9.1h-6.7v49H741Zm-103.4,49H798.7M666.5,795.8V652.2" class="g6_34"/>
<text x="305" y="857" class="se_34">The area proBlem is the central proBlem in the Branch of calculus called </text>
<text x="748" y="857" dx="0,0,0,0,-.6,0,-.2,0,0,0,0,0,0" class="s5_34">integral cal-</text>
<text x="287" y="876" class="s5_34">culus</text>
<text x="319" y="876" dx="0,0,-.7,0,0,0,-.5,0,0,0,0,0,0,0,0,0,0,-.5,0,0,0,0,-.5,0,0,-.5,0,0,0,0,-.5,0,-.4,-.2,0,0,0,0,-.5,0,0,-.5,0,0,0,0,0,0,0,-.5,0,-.5,0,0,0,-.5,0,0,0,0,0,0,-.5,0,0,0,0,0,-.5,0,0,0,0,-.5,0,0,0,0,-.5,0,0,0,0,0,0" class="se_34">. The techniques that we will develop in ±hapter 5 for Inding areas will also enaBle </text>
<text x="287" y="894" dx="0,0,0,.7,0,0,.7,0,0,0,0,0,0,0,.7,0,0,0,.7,-.3,0,0,0,0,0,.7,0,0,.7,0,.7,0,0,0,0,0,0,.7,0,0,0,.7,0,0,0,0,0,0,.7,0,0,.7,0,.7,0,0,0,-.2,0,0,.7,0,0,0,.7,0,0,0,0,0,.7,0,0,.7,-.2,0,0,0,0,.7,0,-.1,0,0,0,0,0,.7,0" class="se_34">us to compute the volume of a solid, the length of a curve, the force of water against a </text>
<text x="287" y="912" dx="0,0,0,0,0,.7,0,0,0,.7,0,0,0,0,.7,0,0,0,.7,0,0,0,0,0,0,.7,0,0,.7,0,0,-.3,0,0,0,0,.7,0,0,.7,0,.7,0,0,0,0,.7,0,0,0,.7,0,0,0,.7,-.2,0,0,0,.7,0,0,0,0,.7,0,0,.7,0,0,0,0,0,0,0,.7,-.2,0,0,0,0,.7,0,0,0" class="se_34">dam, the mass and center of gravity of a rod, and the work done in pumping water out </text>
<text x="287" y="931" class="se_34">of a tank.</text>
<path d="M288.8,957.1c0,0,-1.6,0,-1.6,1.5v9.2c0,0,0,1.5,1.6,1.5h9.1c0,0,1.6,0,1.6,-1.5v-9.2c0,0,0,-1.5,-1.6,-1.5Z" class="g0_34"/>
<text x="306" y="969" dx="0,-.2,0,0,-.7,-1.1,0,0,0,0,-.1,0,0,-.2,-.2,0,0,0,0" class="s3_34">The Tangent Problem</text>
<text x="287" y="992" dx="0,0,0,0,0,0,0,0,0,.7,0,0,0,.7,0,0,0,0,0,0,0,.7,0,0,.7,0,0,0,0,0,0,.7,0,0,.7,0,0,0,.7,0,0,.7,0,0,0,0,0,0,0,0,.7,0,0,.7,0,0,0,.7,0,0,0,0,0,0,0,.7,0,0,0,0" class="se_34">±onsider the proBlem of trying to Ind an equation of the tangent line </text>
<text x="721" y="992" class="s5_34">t</text>
<text x="730" y="992" dx="0,0,0,.7,0,.7,0,0,0,-.2,0,.7,0,0,0,0" class="se_34">to a curve with </text>
<text x="287" y="1010" class="se_34">equation </text>
<text x="343" y="1010" class="s5_34">y</text>
<text x="354" y="1010" class="sa_34">-</text>
<text x="372" y="1010" class="s5_34">f</text>
<text x="378" y="1010" class="sm_34">s</text>
<text x="384" y="1010" class="s5_34">x</text>
<text x="391" y="1010" class="sm_34">d</text>
<text x="399" y="1010" dx="0,0,0,-.7,0,-.7,0,-.4,-.2,0,0,-.7,0,0,0,0,0" class="se_34">at a given point </text>
<text x="494" y="1010" class="s5_34">P</text>
<text x="502" y="1010" dx="0,0,-.7,0,-1.2,0,-.7,0,0,0,0,-.7,0,-.4,-.2,0,-.7,0,-.7,0,0,0,0,0,0,0,-.7,0,0,0,0,0,0,0,0,0,-.7,0,0,-.7,0,-.7,0,0,0,0,0,0,0,-.7,0,0,0,0,-.7,0,0" class="se_34">. (We will give a precise deInition of a tangent line in </text>
<text x="58" y="209" class="sn_34">A=A</text>
<text x="90" y="209" dx="0,0,0,.8,0,0,.8,0,0,.8,0,0,.8" class="so_34">¡+A™+A£+A¢+A∞</text>
<path d="M179.8,106l-3.6,64.5M179.8,106l-75.3,86m75.3,-86L54.2,170.5M179.8,106L68.6,134.7" class="ga_34"/>
<path d="M179.8,106H129.6l-61,28.7L54.2,170.5L104.5,192l71.7,-21.5L218,134.7L179.8,106Z" class="g1_34"/>
<text x="96" y="108" dx="0,1" class="so_34">A¡</text>
<text x="73" y="146" dx="0,1" class="so_34">A™</text>
<text x="92" y="169" dx="0,1" class="so_34">A£</text>
<text x="152" y="163" dx="0,1" class="so_34">A¢</text>
<text x="189" y="135" dx="0,1" class="so_34">A∞</text>
<path d="M111.2,105.8c6.8,0,13.7,2.1,17.2,5.8" class="g4_34"/>
<path d="M130.6,114.1L126.4,112l2,-.4l.5,-1.8Z" class="g5_34"/>
<text x="53" y="238" dx="0,.3,.3,.3,.3,.3,.1" class="sp_34">FIGURE </text>
<text x="106" y="238" class="sq_34">1</text>
<text x="53" y="354" dx="0,.3,.3,.3,.3,.3,.1" class="sp_34">FIGURE </text>
<text x="106" y="354" class="sq_34">2</text>
<path d="M56.5,439.5c0,0,-3,0,-3,3v9.2c0,0,0,3.1,3,3.1H77.9c0,0,3.1,0,3.1,-3.1v-9.2c0,0,0,-3,-3.1,-3Z" class="gb_34"/>
<text x="55" y="451" class="sr_34">TEC </text>
<text x="85" y="451" dx="0,0,0,0,0,0,0,0,0,0,-.3,0,0,-.3,0,-.7,-.8,0,0,0,0,0,0,0,0,0,0" class="ss_34">²n the Preview Visual, you </text>
<text x="53" y="468" dx="0,0,0,0,0,0,0,0,0,0,-.3,0,0,0,0,0,0,0,0,0,0,0,0,0,0,0,0,0,0,0,0,0,0,0,0" class="ss_34">can see how areas of inscriBed and </text>
<text x="53" y="484" class="ss_34">circumscriBed polygons approximate </text>
<text x="53" y="501" class="ss_34">the area of a circle.</text>
<text x="54" y="823" dx="0,.3,.3,.3,.3,.3,.1" class="sp_34">FIGURE </text>
<text x="106" y="823" class="sq_34">3</text>
<text x="243" y="823" dx="0,.3,.3,.3,.3,.3,.1" class="sp_34">FIGURE </text>
<text x="295" y="823" class="sq_34">4</text>
<text x="121" y="1076" class="st_34">Copyright 2016 Cengage Learning. All Rights Reserved. May not be copied, scanned, or duplicated, in whole or in part. Due to electronic rights, some third party content may be suppressed from the eBook and/or eChapter(s).</text>
<text x="106" y="1087" class="st_34">Editorial review has deemed that any suppressed content does not materially affect the overall learning experience. Cengage Learning reserves the right to remove additional content at any time if subsequent rights restrictions require it.</text>

</g>

<!-- Any embedded fonts defined here -->
<style type="text/css" ><![CDATA[

@font-face {
	font-family: MathematicalPi-One-Italic_x2;
	src: url("fonts/MathematicalPi-One-Italic_x2.woff") format("woff");
}

@font-face {
	font-family: MathematicalPi-One__6;
	src: url("fonts/MathematicalPi-One__6.woff") format("woff");
}

@font-face {
	font-family: MathematicalPiLTStd-1_rr;
	src: url("fonts/MathematicalPiLTStd-1_rr.woff") format("woff");
}

@font-face {
	font-family: MathematicalPiLTStd-3_ry;
	src: url("fonts/MathematicalPiLTStd-3_ry.woff") format("woff");
}

@font-face {
	font-family: MathematicalPiLTStd-5_vb;
	src: url("fonts/MathematicalPiLTStd-5_vb.woff") format("woff");
}

@font-face {
	font-family: MyriadPro-Bold_74;
	src: url("fonts/MyriadPro-Bold_74.woff") format("woff");
}

@font-face {
	font-family: MyriadPro-Semibold_49;
	src: url("fonts/MyriadPro-Semibold_49.woff") format("woff");
}

@font-face {
	font-family: TECHMath-Mix_-o;
	src: url("fonts/TECHMath-Mix_-o.woff") format("woff");
}

@font-face {
	font-family: TECHMath-Mix_-x;
	src: url("fonts/TECHMath-Mix_-x.woff") format("woff");
}

@font-face {
	font-family: TECHMath-Mix__2;
	src: url("fonts/TECHMath-Mix__2.woff") format("woff");
}

@font-face {
	font-family: TECHMath-Mix_xb;
	src: url("fonts/TECHMath-Mix_xb.woff") format("woff");
}

@font-face {
	font-family: Times-Italic_n3;
	src: url("fonts/Times-Italic_n3.woff") format("woff");
}

@font-face {
	font-family: Times-Roman_4n;
	src: url("fonts/Times-Roman_4n.woff") format("woff");
}

@font-face {
	font-family: Times-Roman_n6;
	src: url("fonts/Times-Roman_n6.woff") format("woff");
}

@font-face {
	font-family: TimesLTStd-Italic_o3;
	src: url("fonts/TimesLTStd-Italic_o3.woff") format("woff");
}

@font-face {
	font-family: TimesLTStd-Roman_-s;
	src: url("fonts/TimesLTStd-Roman_-s.woff") format("woff");
}

@font-face {
	font-family: TimesLTStd-Roman_6c;
	src: url("fonts/TimesLTStd-Roman_6c.woff") format("woff");
}

@font-face {
	font-family: UniversalChemicalPi-T_-_;
	src: url("fonts/UniversalChemicalPi-T_-_.woff") format("woff");
}

]]></style>

</svg>
