<?xml version="1.0" encoding="UTF-8" standalone="no"?>
<!DOCTYPE svg PUBLIC "-//W3C//DTD SVG 1.1//EN"
"http://www.w3.org/Graphics/SVG/1.1/DTD/svg11.dtd">


<!-- Page 37 -->
<svg x="0" y="0" width="931" height="1096" viewBox="0 0 931 1096" version="1.1" xmlns="http://www.w3.org/2000/svg" xmlns:xlink="http://www.w3.org/1999/xlink"
style="display: block;margin-left: auto;margin-right: auto;">
<defs>
<clipPath id="c_37"><path d="M0,0H931V1096H0Z"/></clipPath>
<clipPath id="c0_37"><path d="M586.8,731.4V699.5h47.1v31.9Z"/></clipPath>

<style type="text/css"><![CDATA[
text { white-space: pre; }
path, image { pointer-events: none; }

.s1_37{
font-size: 12.22px;
font-family: MyriadPro-Semibold_49;
fill: #231F20;
}
.s2_37{
font-size: 15.28px;
font-family: MyriadPro-Semibold_49;
fill: #231F20;
}
.s3_37{
font-size: 15.28px;
font-family: TimesLTStd-Roman_-s;
fill: #231F20;
}
.s4_37{
font-size: 16.81px;
font-family: MyriadPro-Semibold_49;
fill: #231F20;
}
.s5_37{
font-size: 15.28px;
font-family: TimesLTStd-Italic_o3;
fill: #231F20;
}
.s6_37{
font-size: 9.17px;
font-family: TimesLTStd-Roman_-s;
fill: #231F20;
}
.s7_37{
font-size: 15.28px;
font-family: MathematicalPiLTStd-5_vb;
fill: #231F20;
}
.s8_37{
font-size: 12.99px;
font-family: Times-Roman_n6;
fill: #231F20;
}
.s9_37{
font-size: 12.99px;
font-family: TECHMath-Mix__z;
fill: #231F20;
}
.sa_37{
font-size: 13.75px;
font-family: Times-Italic_n3;
fill: #231F20;
}
.sb_37{
font-size: 15.28px;
font-family: MathematicalPiLTStd-3_ry;
fill: #231F20;
}
.sc_37{
font-size: 9.17px;
font-family: TimesLTStd-Italic_o3;
fill: #231F20;
}
.sd_37{
font-size: 21.39px;
font-family: MathematicalPiLTStd-3_ry;
fill: #231F20;
}
.se_37{
font-size: 10.69px;
font-family: TimesLTStd-Roman_-s;
fill: #231F20;
}
.sf_37{
font-size: 9.93px;
font-family: TimesLTStd-Italic_o3;
fill: #231F20;
}
.sg_37{
font-size: 9.93px;
font-family: UniversalChemicalPi-T_-_;
fill: #231F20;
}
.sh_37{
font-size: 9.93px;
font-family: MathematicalPiLTStd-1_rr;
fill: #231F20;
}
.si_37{
font-size: 14.51px;
font-family: MyriadPro-Bold_74;
fill: #231F20;
}
.sj_37{
font-size: 15.28px;
font-family: MyriadPro-Bold_74;
fill: #231F20;
}
.sk_37{
font-size: 12.22px;
font-family: TECHMath-Mix_-x;
fill: #231F20;
}
.sl_37{
font-size: 12.22px;
font-family: TECHMath-Mix__v;
fill: #231F20;
}
.sm_37{
font-size: 12.99px;
font-family: TECHMath-Mix__v;
fill: #231F20;
}
.sn_37{
font-size: 7.64px;
font-family: Times-Roman_4n;
fill: #000000;
}

.g0_37{
fill: #CC017A;
}
.g1_37{
fill: #EC008C;
}
.g2_37{
fill: none;
stroke: #EC008C;
stroke-width: 0.763;
stroke-linecap: butt;
stroke-linejoin: miter;
stroke-miterlimit: 3;
}
.g3_37{
fill: #00AEEF;
}
.g4_37{
fill: none;
stroke: #00AEEF;
stroke-width: 0.763;
stroke-linecap: butt;
stroke-linejoin: miter;
stroke-miterlimit: 3;
}
.g5_37{
fill: none;
stroke: #231F20;
stroke-width: 0.611;
stroke-linecap: butt;
stroke-linejoin: miter;
stroke-miterlimit: 3;
}
.g6_37{
fill: none;
stroke: #231F20;
stroke-width: 0.534;
stroke-linecap: butt;
stroke-linejoin: miter;
}
.g7_37{
fill: none;
stroke: #231F20;
stroke-width: 0.763;
stroke-linecap: butt;
stroke-linejoin: miter;
}
.g8_37{
fill: #231F20;
}
.g9_37{
fill: none;
stroke: #EC008C;
stroke-width: 0.381;
stroke-linecap: butt;
stroke-linejoin: miter;
stroke-miterlimit: 3;
}

]]></style>

</defs>
<g clip-path="url(#c_37)">
<path d="M0,0
L0,1096
L931,1096
L931,0 Z " 
fill="#FFFFFF" stroke="none"/>
<text x="666" y="64" dx="0,.1,.1,.2,.2,.3,.2,.2,.3,.1,.1,.2,.1,.1,.3,.2,-.2,.2,.2,-.2,.2" class="s1_37">A PREVIEW OF CALCULUS</text>
<text x="870" y="64" class="s2_37">5</text>
<text x="360" y="107" dx="0,0,0,0,0,0,-.2,0,0,0,0,-.2,0,0,-.2,0,0,0,-.2,0,-.2,0,0,0,-.2,0,0,0,0,0,0,0,-.2,0,0,0,0,0,0,0,-.2,0,0,-.2,0,0,-.4,0,0,0,0,0,0,0,0,0,-.2,0,0,0,0,0,0,0,0,0,-.2,0,0,-.2,0,0,0,-.2,0,0,0,0,-.2,0,0,0,0,0,0,0" class="s3_37">Thus, when we solve the tangent proBlem in differential calculus, we are also solving </text>
<text x="342" y="126" dx="0,0,0,0,0,0,0,0,0,.7,0,0,0,0,0,0,0,0,0,0,.7,-.2,0,0,0,0,0,0,0,0,0,0,.5,0,0,0,.7,0,0,0,0,.7,0,0,0,0,0,0,0,0,0,0,.7,0,0,0,0,.7,0,0,0,0,0,0,.7,0,0,.7,0,0,.7,0,0,0,-.2,0,.7,0,0,0,0,0,0,0,0" class="s3_37">proBlems concerning velocities. The same techniques also enaBle us to solve proBlems </text>
<text x="342" y="144" dx="0,0,-.6,-.3,0,0,0,0,0,0,0,0,0,0,0,0,0,0,0,0,0,0,0,0,0,0,0,0,0,0,0,0,0,0,0,0,0,0,0,0,0,0,0,0,0,0,0,0,0,0,0,0,0,0,0,0,0,0,0,0,0,0,0,0,0,0,0,0" class="s3_37">involving rates of change in all of the natural and social sciences.</text>
<path d="M343.8,184.4c0,0,-1.6,0,-1.6,1.5v9.2c0,0,0,1.5,1.6,1.5h9.1c0,0,1.6,0,1.6,-1.5v-9.2c0,0,0,-1.5,-1.6,-1.5Z" class="g0_37"/>
<text x="361" y="196" dx="0,-.2,0,0,0,0,0,0,0,0,0,0,0,0,0,0,.1,0,0,0,0,0,-.2" class="s4_37">The Limit of a Sequence</text>
<text x="342" y="219" dx="0,0,0,1.3,0,0,0,1.3,-.4,0,0,0,1.3,0,0,0,0,0,0,0,1.3,0,0,1.3,0,0,0,1.3,0,0,0,0,0,1.3,0,0,0,0,0,0,0,0,0,0,0,1.3,0,0,0,0,1.3,0,0,1.3,0,0,0,0,1.3,0,0,0,0,0,1.3,0,0,0,0,1.3,0,0,0,0,0,0,0,0,0,1.3,0,-.4,0" class="s3_37">²n the Ifth century bC the Greek philosopher Zeno of Elea posed four proBlems, now </text>
<text x="342" y="237" dx="0,0,0,-.4,0,0,-1.1,0,0" class="s3_37">known as </text>
<text x="401" y="237" dx="0,0,0,0,0,-.6,0,-1.1,0,0,-.2,0,0,0,0,0" class="s5_37">Zeno’s paradoxes</text>
<text x="508" y="237" dx="0,0,-1.1,0,0,0,0,-1.1,0,0,0,0,-1.1,0,0,0,0,0,0,0,0,-1.1,0,0,-1.1,0,0,0,0,0,0,0,0,0,-1.1,0,0,0,0,-1.1,0,0,-1.1,0,0,0,-1.1,0,0,0,0,0,-1.1,0,0,0,0,0,0,0,0,0,0" class="s3_37">, that were intended to challenge some of the ideas concerning </text>
<text x="342" y="256" dx="0,0,0,0,0,0,-.6,0,0,0,-.5,0,0,0,0,-.6,0,0,0,0,-.6,0,0,0,0,-.5,0,0,0,0,-.6,0,0,-.5,0,0,0,-.6,0,0,-1,0,-.5,0,0,0,0,-.8,0,-.5,0,0,0,0,0,0,-.6,0,0,0,0,0,0,0,-.6,0,0,0,0,0,0,0,0,-.6,0,-.5,0,0,0,0,-.6,0,0,0,0,0,0,0" class="s3_37">space and time that were held in his day. Zeno’s second paradox concerns a race Between </text>
<text x="342" y="274" dx="0,0,0,0,-1.1,0,0,0,0,0,-1.1,0,0,0,0,-2,0,0,0,0,0,0,0,0,-1.1,0,0,0,-1.1,0,-1.1,0,0,0,0,0,0,0,0,-1.1,0,0,0,0,-1.1,0,0,0,-1.1,0,0,0,0,-1.1,0,-.4,-.2,0,0,-1.1,0,-1.1,0,0,0,0,-1.1,0,0,0,0,0,0,-1.1,0,0,0,0,-1.1,0,-.3,0,0,0,0,0,-1.1,0,0,-1.1,0,0,0,0" class="s3_37">the Greek hero Achilles and a tortoise that has Been given a head start. Zeno argued, as fol- </text>
<text x="342" y="292" dx="0,0,-.4,0,0,0,.1,0,0,0,0,-.7,0,0,0,0,0,0,0,0,.1,0,0,0,0,0,.1,0,-.4,-.2,0,0,.1,0,0,0,0,.1,0,0,0,.1,0,0,0,0,0,0,0,0,0,.1,0,0,0,0,0,0,0,.1,0,0,0,0,-.7,0,0,0,0,.1,0,0,0,.1,0,0,0,0,0,0,.1,0,0,.1,0,0,0,0,0,0,0,0" class="s3_37">lows, that Achilles could never pass the tortoise: Suppose that Achilles starts at position </text>
<text x="342" y="311" class="s5_37">a</text>
<text x="350" y="312" class="s6_37">1</text>
<text x="359" y="311" dx="0,0,0,0,.6,0,0,0,.6,0,0,0,0,0,0,0,0,.6,0,0,0,0,0,0,.6,0,0,.6,0,0,0,0,0,0,0,0" class="s3_37">and the tortoise starts at position </text>
<text x="565" y="311" class="s5_37">t</text>
<text x="569" y="312" class="s6_37">1</text>
<text x="573" y="311" dx="0,0,.6,0,0,0,0,.6,0,0,0,0,0,0,.6,0,0,0,.1,0,0,0,0,-.3,0,0,0,0,0,0,0,0,.6,0,0,0,0,0,0,0,.6,0,0,0,.6,0,0,0,0,0" class="s3_37">. (See Figure 9.) When Achilles reaches the point </text>
<text x="342" y="329" class="s5_37">a</text>
<text x="350" y="331" class="s6_37">2</text>
<text x="359" y="329" class="s7_37">-</text>
<text x="377" y="329" class="s5_37">t</text>
<text x="381" y="331" class="s6_37">1</text>
<text x="385" y="329" dx="0,0,-.6,0,0,0,-.6,0,0,0,0,0,0,0,0,-.6,0,0,-.6,-.2,0,0,0,0,0,0,-.6,0,0,0,0,0,-.6,0,0,-.6,0,0,0,0,0,0,0,0" class="s3_37">, the tortoise is farther ahead at position </text>
<text x="626" y="329" class="s5_37">t</text>
<text x="630" y="331" class="s6_37">2</text>
<text x="635" y="329" dx="0,0,-1.1,0,0,0,0,-1.4,0,0,0,0,0,0,0,0,-.6,0,0,0,0,0,0,0" class="s3_37">. When Achilles reaches </text>
<text x="784" y="329" class="s5_37">a</text>
<text x="792" y="331" class="s6_37">3</text>
<text x="801" y="329" class="s7_37">-</text>
<text x="818" y="329" class="s5_37">t</text>
<text x="823" y="331" class="s6_37">2</text>
<text x="827" y="329" dx="0,0,-.6,0,0,0,-.6,0,0,-.3,0" class="s3_37">, the tor- </text>
<text x="342" y="347" dx="0,0,0,0,0,0,.9,0,0,.9,0,0" class="s3_37">toise is at </text>
<text x="406" y="347" class="s5_37">t</text>
<text x="410" y="349" class="s6_37">3</text>
<text x="415" y="347" dx="0,0,.6,0,0,0,0,.9,0,0,0,0,0,0,0,.9,0,0,0,0,0,0,0,0,0,.9,0,0,0,0,0,0,0,0,0,0,0,.9,0,0,0,.9,0,0,.9,0,0,.9,0,0,0,0,0,0,0,.9,0,0,0,0,.9,0,0,0,.9,0,0,0,0,0,0,0,0,.9,0,0,0,0" class="s3_37">. This process continues indeInitely and so it appears that the tortoise will </text>
<text x="342" y="366" dx="0,0,-.2,-.2,0,0,0,0,0,0,0,0,0,0,0,0,0,0,0,0,0,0,0,0,0,0,0,0,0,0,0,0,0,0,0,0,0,0,0,0,0,0,0,0,0" class="s3_37">always Be ahead! ³ut this deIes common sense.</text>
<text x="391" y="423" class="s8_37">Achilles</text>
<text x="392" y="445" class="s8_37">tortoise</text>
<text x="446" y="409" dx="0,.5" class="s9_37">a¡</text>
<text x="613" y="409" dx="0,.5" class="s9_37">a™</text>
<text x="684" y="409" dx="0,.8" class="s9_37">a£</text>
<text x="740" y="409" dx="0,.5,0,13.4,0" class="s9_37">a¢ a∞</text>
<text x="615" y="457" dx="0,1" class="s9_37">t¡</text>
<text x="688" y="457" dx="0,.8" class="s9_37">t™</text>
<text x="743" y="457" dx="0,.8,0,14.3,.5" class="s9_37">t£ t¢</text>
<text x="805" y="409" class="sa_37">. . .</text>
<text x="805" y="456" class="sa_37">. . .</text>
<path d="M616.5,419.6c0,-.9,.8,-1.7,1.7,-1.7c1,0,1.7,.8,1.7,1.7c0,1,-.7,1.8,-1.7,1.8c-.9,0,-1.7,-.8,-1.7,-1.8Z" class="g1_37"/>
<path d="M616.5,419.6c0,-.9,.8,-1.7,1.7,-1.7c1,0,1.7,.8,1.7,1.7c0,1,-.7,1.8,-1.7,1.8c-.9,0,-1.7,-.8,-1.7,-1.8Z" class="g2_37"/>
<path d="M689.8,419.6c0,-.9,.8,-1.7,1.8,-1.7c.9,0,1.7,.8,1.7,1.7c0,1,-.8,1.8,-1.7,1.8c-1,0,-1.8,-.8,-1.8,-1.8Z" class="g1_37"/>
<path d="M689.8,419.6c0,-.9,.8,-1.7,1.8,-1.7c.9,0,1.7,.8,1.7,1.7c0,1,-.8,1.8,-1.7,1.8c-1,0,-1.8,-.8,-1.8,-1.8Z" class="g2_37"/>
<path d="M744.8,419.6c0,-.9,.8,-1.7,1.8,-1.7c.9,0,1.7,.8,1.7,1.7c0,1,-.8,1.8,-1.7,1.8c-1,0,-1.8,-.8,-1.8,-1.8Z" class="g1_37"/>
<path d="M744.8,419.6c0,-.9,.8,-1.7,1.8,-1.7c.9,0,1.7,.8,1.7,1.7c0,1,-.8,1.8,-1.7,1.8c-1,0,-1.8,-.8,-1.8,-1.8Z" class="g2_37"/>
<path d="M781.5,419.6c0,-.9,.8,-1.7,1.7,-1.7c1,0,1.7,.8,1.7,1.7c0,1,-.7,1.8,-1.7,1.8c-.9,0,-1.7,-.8,-1.7,-1.8Z" class="g1_37"/>
<path d="M781.5,419.6c0,-.9,.8,-1.7,1.7,-1.7c1,0,1.7,.8,1.7,1.7c0,1,-.7,1.8,-1.7,1.8c-.9,0,-1.7,-.8,-1.7,-1.8Z" class="g2_37"/>
<path d="M450.1,419.6c0,-.9,.8,-1.7,1.8,-1.7c.9,0,1.7,.8,1.7,1.7c0,1,-.8,1.8,-1.7,1.8c-1,0,-1.8,-.8,-1.8,-1.8Z" class="g1_37"/>
<path d="M450.1,419.6c0,-.9,.8,-1.7,1.8,-1.7c.9,0,1.7,.8,1.7,1.7c0,1,-.8,1.8,-1.7,1.8c-1,0,-1.8,-.8,-1.8,-1.8Z" class="g2_37"/>
<path d="M616.5,442.6c0,-1,.8,-1.7,1.7,-1.7c1,0,1.7,.7,1.7,1.7c0,.9,-.7,1.7,-1.7,1.7c-.9,0,-1.7,-.8,-1.7,-1.7Z" class="g3_37"/>
<path d="M616.5,442.6c0,-1,.8,-1.7,1.7,-1.7c1,0,1.7,.7,1.7,1.7c0,.9,-.7,1.7,-1.7,1.7c-.9,0,-1.7,-.8,-1.7,-1.7Z" class="g4_37"/>
<path d="M689.8,442.6c0,-1,.8,-1.7,1.8,-1.7c.9,0,1.7,.7,1.7,1.7c0,.9,-.8,1.7,-1.7,1.7c-1,0,-1.8,-.8,-1.8,-1.7Z" class="g3_37"/>
<path d="M689.8,442.6c0,-1,.8,-1.7,1.8,-1.7c.9,0,1.7,.7,1.7,1.7c0,.9,-.8,1.7,-1.7,1.7c-1,0,-1.8,-.8,-1.8,-1.7Z" class="g4_37"/>
<path d="M744.8,442.6c0,-1,.8,-1.7,1.8,-1.7c.9,0,1.7,.7,1.7,1.7c0,.9,-.8,1.7,-1.7,1.7c-1,0,-1.8,-.8,-1.8,-1.7Z" class="g3_37"/>
<path d="M744.8,442.6c0,-1,.8,-1.7,1.8,-1.7c.9,0,1.7,.7,1.7,1.7c0,.9,-.8,1.7,-1.7,1.7c-1,0,-1.8,-.8,-1.8,-1.7Z" class="g4_37"/>
<path d="M781.5,442.6c0,-1,.8,-1.7,1.7,-1.7c1,0,1.7,.7,1.7,1.7c0,.9,-.7,1.7,-1.7,1.7c-.9,0,-1.7,-.8,-1.7,-1.7Z" class="g3_37"/>
<path d="M781.5,442.6c0,-1,.8,-1.7,1.7,-1.7c1,0,1.7,.7,1.7,1.7c0,.9,-.7,1.7,-1.7,1.7c-.9,0,-1.7,-.8,-1.7,-1.7Z" class="g4_37"/>
<path d="M829.2,419.6H451.9m166.3,23h211" class="g5_37"/>
<text x="360" y="514" dx="0,0,0,0,-1.1,-.2,0,0,-1.1,0,0,-1.1,-.2,0,0,0,0,0,0,0,0,0,-1.1,0,0,0,0,-1.1,0,0,0,0,0,0,0,-1.1,0,0,-1.1,0,0,0,0,-1.1,0,0,0,-1.1,0,0,0,0,-1.1,0,0,-1.1,0" class="s3_37">One way of explaining this paradox is with the idea of a </text>
<text x="692" y="514" class="s5_37">sequence</text>
<text x="748" y="514" dx="0,0,-1.4,0,0,0,-1.1,0,0,0,0,0,0,0,-.4,-.2,0,-1.1,0,0,0,0" class="s3_37">. The successive posi-</text>
<text x="342" y="532" dx="0,0,0,0,0,0,.4,0,0,-.4,0,0,0,0,0,0,0,0" class="s3_37">tions of Achilles </text>
<text x="447" y="532" class="sb_37">s</text>
<text x="452" y="532" class="s5_37">a</text>
<text x="460" y="534" class="s6_37">1</text>
<text x="465" y="532" class="s3_37">, </text>
<text x="473" y="532" class="s5_37">a</text>
<text x="481" y="534" class="s6_37">2</text>
<text x="486" y="532" class="s3_37">, </text>
<text x="494" y="532" class="s5_37">a</text>
<text x="502" y="534" class="s6_37">3</text>
<text x="508" y="532" dx="0,0,0,0,-.8,0,-.8" class="s3_37">, . . .</text>
<text x="533" y="532" class="sb_37">d</text>
<text x="542" y="532" dx="0,0,0,.4,0,0,0,.4,0,0,0,0,0,0,0,-.4,-.2,0,.4,0,0,0,0,0,0,0,0,0,.4,0,0,.4,0,0,0,.4,0,0,0,0,0,0,0,0" class="s3_37">or the successive positions of the tortoise </text>
<text x="799" y="532" class="sb_37">s</text>
<text x="805" y="532" class="s5_37">t</text>
<text x="809" y="534" class="s6_37">1</text>
<text x="813" y="532" class="s3_37">, </text>
<text x="821" y="532" class="s5_37">t</text>
<text x="825" y="534" class="s6_37">2</text>
<text x="831" y="532" class="s3_37">, </text>
<text x="838" y="532" class="s5_37">t</text>
<text x="842" y="534" class="s6_37">3</text>
<text x="848" y="532" dx="0,0,0,0,-.8,0,-.8" class="s3_37">, . . .</text>
<text x="873" y="532" class="sb_37">d</text>
<text x="342" y="550" dx="0,0,0,0,0,0,0,0,0,0,0,0,0,0,0,0,-.4,0,0,0,0,0,0,0,0,0,0,0,0,0,0,0,0" class="s3_37">form what is known as a sequence.</text>
<text x="360" y="569" dx="0,0,0,-.5,0,0,0,0,0,0,0,0,-.5,0,-.5,0,0,0,0,0,0,0,0" class="s3_37">²n general, a sequence </text>
<text x="498" y="569" class="sb_37">h</text>
<text x="503" y="569" class="s5_37">a</text>
<text x="511" y="571" class="sc_37">n</text>
<text x="516" y="569" class="sb_37">j</text>
<text x="524" y="569" dx="0,0,0,-.5,0,-.5,0,0,0,-.5,0,0,-.5,0,0,0,0,0,0,0,-.5,0,0,0,0,0,0,0,-.5,0,0,-.5,0,-.5,0,0,0,0,0,0,0,-.5,0,0,0,0,-.8,0,-.5,-.2,0,0,-.5,0,0,0,0,0,0,0,0,0" class="s3_37">is a set of numBers written in a deInite order. For instance, </text>
<text x="342" y="587" class="s3_37">the sequence</text>
<text transform="matrix(0.71,0,0,1,558,624)" class="sd_37">h</text>
<text x="563" y="624" class="s3_37">1, </text>
<text x="578" y="617" class="se_37">1</text>
<path d="M578.9,619.2h5.4" class="g6_37"/>
<text x="578" y="628" class="se_37">2</text>
<text x="585" y="624" class="s3_37">, </text>
<text x="593" y="617" class="se_37">1</text>
<path d="M593.8,619.2h5.4" class="g6_37"/>
<text x="593" y="628" class="se_37">3</text>
<text x="600" y="624" class="s3_37">, </text>
<text x="608" y="617" class="se_37">1</text>
<path d="M608.7,619.2h5.4" class="g6_37"/>
<text x="608" y="628" class="se_37">4</text>
<text x="615" y="624" class="s3_37">, </text>
<text x="623" y="617" class="se_37">1</text>
<path d="M623.6,619.2H629" class="g6_37"/>
<text x="623" y="628" class="se_37">5</text>
<text x="630" y="624" dx="0,0,0,0,-.8,0,-.8" class="s3_37">, . . .</text>
<text transform="matrix(0.71,0,0,1,657,624)" class="sd_37">j</text>
<text x="342" y="670" dx="0,0,0,0,0,0,0,0,0,0,0,0,0,0,0,0,0,0,0,0,0,0,-.4,0,0,0,0,0,0,0,0,0,0,0,0,0,-.4,0,0,0,0,0,0,0,0,0,0,0,0,0,0,0,0,0,0,0,0" class="s3_37">can Be descriBed By giving the following formula for the </text>
<text x="691" y="670" class="s5_37">n</text>
<text x="698" y="670" class="s3_37">th term:</text>
<text x="586" y="720" class="s5_37">a</text>
<text x="595" y="722" class="sc_37">n</text>
<text x="604" y="720" class="s7_37">-</text>
<text x="623" y="709" class="s3_37">1</text>
<g clip-path="url(#c0_37)">
<path d="M622.1,715.6h12.2" class="g7_37"/>
</g>
<text x="623" y="731" class="s5_37">n</text>
<text x="360" y="766" dx="0,-1.2,0,2.3,0,0,0,2.3,0,0,0,0,0,0,0,0,0,2.3,0,0,0,0,2.3,0,0,0,0,0,0,0,0,2.3,0,0,2.3,0,0,0,0,0,0,0,0,2.3,0,0,0,2.3,0,0,0,0,0,2.3,0,0,2.3,0,2.3,0,0,0,0,0,0,2.3,0,0,0,0,2.3,0,0,2.3,0,0,2.3,0,0,0,0" class="s3_37">We can visualize this sequence By plotting its terms on a numBer line as in Fig- </text>
<text x="342" y="784" dx="0,0,0,0,-.3,0,0,0,0,0,-.3,0,0,-.3,0,0,-.3,0,0,-.2,0,0,0,0,-.3,0,0,0,-.3,0,0,0,0,0,-.3,0,0,-.3,0,0,-.3,0,0,0,0,0,0,-.3,0,0,0,0,0,0,-.3,0,0,0,0,0,-.2,0,-.3,0,0,0,0,-.3,0,0,0,0,0,0,-.3,0,0,0,0,0,0,0,-.3,0,0,0,0,-.3,0,0,0" class="s3_37">ure 10(a) or By drawing its graph as in Figure 10(B). OBserve from either picture that the </text>
<text x="342" y="803" dx="0,0,0,0,0,0,1,0,0,1,0,0,0,1,0,0,0,0,0,0,0,0" class="s3_37">terms of the sequence </text>
<text x="482" y="803" class="s5_37">a</text>
<text x="491" y="804" class="sc_37">n</text>
<text x="500" y="803" class="s7_37">-</text>
<text x="517" y="803" class="s3_37">1</text>
<text x="523" y="803" class="sb_37">y</text>
<text x="531" y="803" class="s5_37">n</text>
<text x="543" y="803" dx="0,0,0,0,1,0,0,0,0,0,0,0,0,1,0,0,0,0,0,0,1,0,0,0,1,0,0,0,0,0,0,1,0,0,1,0,1,0,0" class="s3_37">are Becoming closer and closer to 0 as </text>
<text x="788" y="803" class="s5_37">n</text>
<text x="801" y="803" dx="0,0,0,0,0,0,0,0,0,0,0,1,0,0" class="s3_37">increases. ²n </text>
<text x="342" y="821" dx="0,-.2,0,0,0,0,0,0,0,0,0,0,0,0,0,0,0,0,0,0,0,0,0,0,0,0,0,0,0,0,0,0,0,0,0,0,0,0,0,0,0,0,0,0,0,0,0,0,0,0,0,0,0,0,0" class="s3_37">fact, we can Ind terms as small as we please By making </text>
<text x="687" y="821" class="s5_37">n</text>
<text x="698" y="821" dx="0,0,0,-.3,0,0,0,0,0,0,0,0,0,0,-.4,-1.2,0,0,0,0,0,0,0,0,0,0,0,0,0,0" class="s3_37">large enough. We say that the </text>
<text x="342" y="839" class="s3_37">limit of the sequence is 0, and we indicate this By writing</text>
<text x="577" y="890" dx="0,0,0,-1.5" class="s3_37">lim </text>
<text x="575" y="899" class="sf_37">n</text>
<text x="581" y="899" class="sg_37">l</text>
<text x="593" y="899" class="sh_37">`</text>
<text x="606" y="879" class="s3_37">1</text>
<path d="M604.1,885.2h12.2" class="g7_37"/>
<text x="606" y="900" class="s5_37">n</text>
<text x="620" y="890" class="s7_37">-</text>
<text x="637" y="890" class="s3_37">0</text>
<text x="342" y="929" class="s3_37">²n general, the notation</text>
<text x="575" y="961" dx="0,0,0,-1.5" class="s3_37">lim </text>
<text x="574" y="971" class="sf_37">n</text>
<text x="580" y="971" class="sg_37">l</text>
<text x="592" y="971" class="sh_37">`</text>
<text x="603" y="961" class="s5_37">a</text>
<text x="611" y="963" class="sc_37">n</text>
<text x="620" y="961" class="s7_37">-</text>
<text x="638" y="961" class="s5_37">L</text>
<text x="342" y="1007" dx="0,0,0,-1.3,0,0,0,0,-1.3,0,0,-1.3,0,0,0,-1.3,0,0,0,0,0" class="s3_37">is used if the terms </text>
<text x="455" y="1007" class="s5_37">a</text>
<text x="463" y="1009" class="sc_37">n</text>
<text x="470" y="1007" dx="0,0,0,0,0,0,0,0,0,-1.3,0,0,0,-1.3,0,0,0,0,0,0" class="s3_37">approach the numBer </text>
<text x="599" y="1007" class="s5_37">L</text>
<text x="610" y="1007" class="s3_37">as </text>
<text x="625" y="1007" class="s5_37">n</text>
<text x="636" y="1007" dx="0,0,0,0,0,0,0,0,-1.3,0,0,-.3,0,0,0,-1.6,0,0,0,0,-1.3,0,0,0,0,0,-1.3,0,0,0,0,-1.3,0,0,0,-1.3,0,0,0,0" class="s3_37">Becomes large. This means that the num- </text>
<text x="342" y="1026" class="s3_37">Bers </text>
<text x="372" y="1026" class="s5_37">a</text>
<text x="380" y="1027" class="sc_37">n</text>
<text x="389" y="1026" dx="0,0,0,0,.7,0,0,.7,0,0,0,0,.7,0,0,.7,0,0,0,0,0,.7,0,0,.7,0,0,.7,0,0,-.2,0,.7,0,0,.7,0,0,0,.7,0,0,0,0,0,0" class="s3_37">can Be made as close as we like to the numBer </text>
<text x="683" y="1026" class="s5_37">L</text>
<text x="696" y="1026" dx="0,0,0,.7,0,0,0,0,0,0" class="s3_37">By taking </text>
<text x="759" y="1026" class="s5_37">n</text>
<text x="771" y="1026" dx="0,0,0,-.4,0,0,0,0,0,0,0,0,.7,0,0,-.3,0,0" class="s3_37">sufIciently large.</text>
<text x="267" y="462" dx="0,.3,.3,.3,.3,.3,.1" class="si_37">FIGURE </text>
<text x="319" y="462" class="sj_37">9</text>
<path d="M123.8,850.8h6.1" class="g5_37"/>
<text x="115" y="855" class="sk_37">1</text>
<path d="M108.5,905.8H305.6" class="g5_37"/>
<path fill-rule="evenodd" d="M305.6,905.8l-1.7,-2.5l6.6,2.5l-6.6,2.4Z" class="g8_37"/>
<text x="304" y="918" class="sk_37">n</text>
<path d="M126.8,925.6V837" class="g5_37"/>
<path fill-rule="evenodd" d="M126.8,837l-2.4,1.6l2.4,-6.5l2.5,6.5Z" class="g8_37"/>
<path d="M236.7,902.7v6.2M223,902.7v6.2m-13.8,-6.2v6.2m-13.7,-6.2v6.2m-13.8,-6.2v6.2M168,902.7v6.2m-13.8,-6.2v6.2m-13.7,-6.2v6.2" class="g5_37"/>
<text x="137" y="921" class="sk_37">1</text>
<text x="151" y="921" dx="0,7.2,7.2,7.2,7.2,7.2,7.2" class="sl_37">2345678</text>
<path d="M139,850.8c0,-.8,.7,-1.5,1.5,-1.5c.8,0,1.5,.7,1.5,1.5c0,.8,-.7,1.5,-1.5,1.5c-.8,0,-1.5,-.7,-1.5,-1.5Z" class="g1_37"/>
<path d="M139,850.8c0,-.8,.7,-1.5,1.5,-1.5c.8,0,1.5,.7,1.5,1.5c0,.8,-.7,1.5,-1.5,1.5c-.8,0,-1.5,-.7,-1.5,-1.5Z" class="g2_37"/>
<path d="M152.7,878.3c0,-.8,.7,-1.5,1.5,-1.5c.9,0,1.6,.7,1.6,1.5c0,.8,-.7,1.5,-1.6,1.5c-.8,0,-1.5,-.7,-1.5,-1.5Z" class="g1_37"/>
<path d="M152.7,878.3c0,-.8,.7,-1.5,1.5,-1.5c.9,0,1.6,.7,1.6,1.5c0,.8,-.7,1.5,-1.6,1.5c-.8,0,-1.5,-.7,-1.5,-1.5Z" class="g2_37"/>
<path d="M166.5,887.5c0,-.9,.7,-1.6,1.5,-1.6c.8,0,1.5,.7,1.5,1.6c0,.8,-.7,1.5,-1.5,1.5c-.8,0,-1.5,-.7,-1.5,-1.5Z" class="g1_37"/>
<path d="M166.5,887.5c0,-.9,.7,-1.6,1.5,-1.6c.8,0,1.5,.7,1.5,1.6c0,.8,-.7,1.5,-1.5,1.5c-.8,0,-1.5,-.7,-1.5,-1.5Z" class="g2_37"/>
<path d="M180.2,892.1c0,-.9,.7,-1.6,1.5,-1.6c.9,0,1.6,.7,1.6,1.6c0,.8,-.7,1.5,-1.6,1.5c-.8,0,-1.5,-.7,-1.5,-1.5Z" class="g1_37"/>
<path d="M180.2,892.1c0,-.9,.7,-1.6,1.5,-1.6c.9,0,1.6,.7,1.6,1.6c0,.8,-.7,1.5,-1.6,1.5c-.8,0,-1.5,-.7,-1.5,-1.5Z" class="g2_37"/>
<path d="M194,894.8c0,-.8,.7,-1.5,1.5,-1.5c.8,0,1.5,.7,1.5,1.5c0,.8,-.7,1.5,-1.5,1.5c-.8,0,-1.5,-.7,-1.5,-1.5Z" class="g1_37"/>
<path d="M194,894.8c0,-.8,.7,-1.5,1.5,-1.5c.8,0,1.5,.7,1.5,1.5c0,.8,-.7,1.5,-1.5,1.5c-.8,0,-1.5,-.7,-1.5,-1.5Z" class="g2_37"/>
<path d="M207.7,896.6c0,-.8,.7,-1.5,1.5,-1.5c.9,0,1.6,.7,1.6,1.5c0,.9,-.7,1.6,-1.6,1.6c-.8,0,-1.5,-.7,-1.5,-1.6Z" class="g1_37"/>
<path d="M207.7,896.6c0,-.8,.7,-1.5,1.5,-1.5c.9,0,1.6,.7,1.6,1.5c0,.9,-.7,1.6,-1.6,1.6c-.8,0,-1.5,-.7,-1.5,-1.6Z" class="g2_37"/>
<path d="M221.5,898c0,-.9,.7,-1.6,1.5,-1.6c.8,0,1.5,.7,1.5,1.6c0,.8,-.7,1.5,-1.5,1.5c-.8,0,-1.5,-.7,-1.5,-1.5Z" class="g1_37"/>
<path d="M221.5,898c0,-.9,.7,-1.6,1.5,-1.6c.8,0,1.5,.7,1.5,1.6c0,.8,-.7,1.5,-1.5,1.5c-.8,0,-1.5,-.7,-1.5,-1.5Z" class="g2_37"/>
<path d="M235.2,898.9c0,-.8,.7,-1.5,1.5,-1.5c.9,0,1.6,.7,1.6,1.5c0,.9,-.7,1.6,-1.6,1.6c-.8,0,-1.5,-.7,-1.5,-1.6Z" class="g1_37"/>
<path d="M235.2,898.9c0,-.8,.7,-1.5,1.5,-1.5c.9,0,1.6,.7,1.6,1.5c0,.9,-.7,1.6,-1.6,1.6c-.8,0,-1.5,-.7,-1.5,-1.6Z" class="g2_37"/>
<path d="M249,899.7c0,-.8,.7,-1.5,1.5,-1.5c.8,0,1.5,.7,1.5,1.5c0,.8,-.7,1.5,-1.5,1.5c-.8,0,-1.5,-.7,-1.5,-1.5Z" class="g1_37"/>
<path d="M249,899.7c0,-.8,.7,-1.5,1.5,-1.5c.8,0,1.5,.7,1.5,1.5c0,.8,-.7,1.5,-1.5,1.5c-.8,0,-1.5,-.7,-1.5,-1.5Z" class="g2_37"/>
<path d="M262.7,900.3c0,-.8,.7,-1.5,1.5,-1.5c.9,0,1.6,.7,1.6,1.5c0,.9,-.7,1.5,-1.6,1.5c-.8,0,-1.5,-.6,-1.5,-1.5Z" class="g1_37"/>
<path d="M262.7,900.3c0,-.8,.7,-1.5,1.5,-1.5c.9,0,1.6,.7,1.6,1.5c0,.9,-.7,1.5,-1.6,1.5c-.8,0,-1.5,-.6,-1.5,-1.5Z" class="g2_37"/>
<path d="M276.5,900.8c0,-.8,.7,-1.5,1.5,-1.5c.8,0,1.5,.7,1.5,1.5c0,.8,-.7,1.5,-1.5,1.5c-.8,0,-1.5,-.7,-1.5,-1.5Z" class="g1_37"/>
<path d="M276.5,900.8c0,-.8,.7,-1.5,1.5,-1.5c.8,0,1.5,.7,1.5,1.5c0,.8,-.7,1.5,-1.5,1.5c-.8,0,-1.5,-.7,-1.5,-1.5Z" class="g2_37"/>
<path d="M290.2,901.2c0,-.8,.7,-1.5,1.5,-1.5c.9,0,1.6,.7,1.6,1.5c0,.9,-.7,1.5,-1.6,1.5c-.8,0,-1.5,-.6,-1.5,-1.5Z" class="g1_37"/>
<path d="M290.2,901.2c0,-.8,.7,-1.5,1.5,-1.5c.9,0,1.6,.7,1.6,1.5c0,.9,-.7,1.5,-1.6,1.5c-.8,0,-1.5,-.6,-1.5,-1.5Z" class="g2_37"/>
<path d="M132.5,772.5v6.1m-.4,-6.1v6.1m-.4,-6.1v6.1m-.4,-6.1v6.1m-.4,-6.1v6.1m-.3,-6.1v6.1m-.4,-6.1v6.1m-.4,-6.1v6.1m-.4,-6.1v6.1m-.4,-6.1v6.1m-.3,-6.1v6.1m-.4,-6.1v6.1m-.4,-6.1v6.1m-.4,-6.1v6.1m-.4,-6.1v6.1m5.8,-6.1v6.1m.2,-6.1v6.1m.2,-6.1v6.1m.3,-6.1v6.1m.3,-6.1v6.1m.3,-6.1v6.1m.8,-6.1v6.1m.4,-6.1v6.1m.5,-6.1v6.1m.5,-6.1v6.1m.7,-6.1v6.1m.6,-6.1v6.1m.8,-6.1v6.1m.9,-6.1v6.1m1.1,-6.1v6.1m1.2,-6.1v6.1m1.5,-6.1v6.1m4.2,-6.1v6.1m-2.3,-6.1v6.1m5.2,-6.1v6.1m3.9,-6.1v6.1m5.5,-6.1v6.1m8.3,-6.1v6.1m13.7,-6.1v6.1m27.5,-6.1v6.1m82.5,-6.1v6.1m-165,-6.1v6.1" class="g9_37"/>
<text x="289" y="795" class="sl_37">1</text>
<text x="123" y="795" class="sl_37">0</text>
<text x="286" y="767" dx="0,1.3" class="sm_37">a¡</text>
<text x="203" y="767" dx="0,1.3" class="sm_37">a™</text>
<text x="176" y="767" dx="0,1.3" class="sm_37">a£</text>
<text x="161" y="767" dx="0,.6" class="sm_37">a¢</text>
<text x="199" y="820" class="s8_37">(a)</text>
<text x="198" y="949" dx="0,1.3,0" class="s8_37">(b)</text>
<path d="M108.5,775.5H305.6" class="g5_37"/>
<text x="108" y="972" dx="0,.3,.3,.3,.3,.3,.1" class="si_37">FIGURE </text>
<text x="161" y="972" class="sj_37">10</text>
<text x="121" y="1076" class="sn_37">Copyright 2016 Cengage Learning. All Rights Reserved. May not be copied, scanned, or duplicated, in whole or in part. Due to electronic rights, some third party content may be suppressed from the eBook and/or eChapter(s).</text>
<text x="106" y="1087" class="sn_37">Editorial review has deemed that any suppressed content does not materially affect the overall learning experience. Cengage Learning reserves the right to remove additional content at any time if subsequent rights restrictions require it.</text>

</g>

<!-- Any embedded fonts defined here -->
<style type="text/css" ><![CDATA[

@font-face {
	font-family: MathematicalPiLTStd-1_rr;
	src: url("fonts/MathematicalPiLTStd-1_rr.woff") format("woff");
}

@font-face {
	font-family: MathematicalPiLTStd-3_ry;
	src: url("fonts/MathematicalPiLTStd-3_ry.woff") format("woff");
}

@font-face {
	font-family: MathematicalPiLTStd-5_vb;
	src: url("fonts/MathematicalPiLTStd-5_vb.woff") format("woff");
}

@font-face {
	font-family: MyriadPro-Bold_74;
	src: url("fonts/MyriadPro-Bold_74.woff") format("woff");
}

@font-face {
	font-family: MyriadPro-Semibold_49;
	src: url("fonts/MyriadPro-Semibold_49.woff") format("woff");
}

@font-face {
	font-family: TECHMath-Mix_-x;
	src: url("fonts/TECHMath-Mix_-x.woff") format("woff");
}

@font-face {
	font-family: TECHMath-Mix__v;
	src: url("fonts/TECHMath-Mix__v.woff") format("woff");
}

@font-face {
	font-family: TECHMath-Mix__z;
	src: url("fonts/TECHMath-Mix__z.woff") format("woff");
}

@font-face {
	font-family: Times-Italic_n3;
	src: url("fonts/Times-Italic_n3.woff") format("woff");
}

@font-face {
	font-family: Times-Roman_4n;
	src: url("fonts/Times-Roman_4n.woff") format("woff");
}

@font-face {
	font-family: Times-Roman_n6;
	src: url("fonts/Times-Roman_n6.woff") format("woff");
}

@font-face {
	font-family: TimesLTStd-Italic_o3;
	src: url("fonts/TimesLTStd-Italic_o3.woff") format("woff");
}

@font-face {
	font-family: TimesLTStd-Roman_-s;
	src: url("fonts/TimesLTStd-Roman_-s.woff") format("woff");
}

@font-face {
	font-family: UniversalChemicalPi-T_-_;
	src: url("fonts/UniversalChemicalPi-T_-_.woff") format("woff");
}

]]></style>

</svg>
