<?xml version="1.0" encoding="UTF-8" standalone="no"?>
<!DOCTYPE svg PUBLIC "-//W3C//DTD SVG 1.1//EN"
"http://www.w3.org/Graphics/SVG/1.1/DTD/svg11.dtd">


<!-- Page 39 -->
<svg x="0" y="0" width="931" height="1096" viewBox="0 0 931 1096" version="1.1" xmlns="http://www.w3.org/2000/svg" xmlns:xlink="http://www.w3.org/1999/xlink"
style="display: block;margin-left: auto;margin-right: auto;">
<defs>
<clipPath id="c_39"><path d="M0,0H931V1096H0Z"/></clipPath>
<clipPath id="c0_39"><path d="M476.3,279.8v-34H744.4v34Z"/></clipPath>

<style type="text/css"><![CDATA[
text { white-space: pre; }
path, image { pointer-events: none; }

.s1_39{
font-size: 12.22px;
font-family: MyriadPro-Semibold_49;
fill: #231F20;
}
.s2_39{
font-size: 15.28px;
font-family: MyriadPro-Semibold_49;
fill: #231F20;
}
.s3_39{
font-size: 15.28px;
font-family: TimesLTStd-Roman_-s;
fill: #231F20;
}
.s4_39{
font-size: 15.28px;
font-family: MathematicalPiLTStd-5_vb;
fill: #231F20;
}
.s5_39{
font-size: 15.28px;
font-family: MathematicalPiLTStd-1_rr;
fill: #231F20;
}
.s6_39{
font-size: 15.28px;
font-family: TimesLTStd-Italic_o3;
fill: #231F20;
}
.s7_39{
font-size: 9.17px;
font-family: TimesLTStd-Italic_o3;
fill: #231F20;
}
.s8_39{
font-size: 9.17px;
font-family: TimesLTStd-Roman_-s;
fill: #231F20;
}
.s9_39{
font-size: 10.69px;
font-family: TimesLTStd-Roman_-s;
fill: #231F20;
}
.sa_39{
font-size: 15.28px;
font-family: PearsonMATH13_10u;
fill: #231F20;
}
.sb_39{
font-size: 15.28px;
font-family: MathematicalPiLTStd-3_ry;
fill: #231F20;
}
.sc_39{
font-size: 7.64px;
font-family: Times-Roman_4n;
fill: #000000;
}

.g0_39{
fill: none;
stroke: #231F20;
stroke-width: 0.611;
stroke-linecap: butt;
stroke-linejoin: miter;
}
.g1_39{
fill: none;
stroke: #231F20;
stroke-width: 0.763;
stroke-linecap: butt;
stroke-linejoin: miter;
}
.g2_39{
fill: none;
stroke: #231F20;
stroke-width: 0.534;
stroke-linecap: butt;
stroke-linejoin: miter;
}

]]></style>

</defs>
<g clip-path="url(#c_39)">
<path d="M0,0
L0,1096
L931,1096
L931,0 Z " 
fill="#FFFFFF" stroke="none"/>
<text x="666" y="64" dx="0,.1,.1,.2,.2,.3,.2,.2,.3,.1,.1,.2,.1,.1,.3,.2,-.2,.2,.2,-.2,.2" class="s1_39">A PREVIEW OF CALCULUS</text>
<text x="870" y="64" class="s2_39">7</text>
<text x="342" y="107" dx="0,0,0,0,0,1.1,-.2,0,0,1.1,0,-.3,0,0,0,0,0,1.1,0,0,0,0,1.1,0,0,1.1,0,0,0,0,0,-.3,0,1.1,0,0,-.2,0,1.1,0,0,0,0,0,1.1,0,0,1.1,0,0,0,1.1,0,0,0,0,0,0,0,0,0,1.1,0,0,-.2,0,1.1,0,0,0,0,0,0,0,1.1,0,0,0,0,0,0,0,-.8,0" class="s3_39">Zeno was arguing that it doesn’t make sense to add inInitely many numBers together. </text>
<text x="342" y="126" dx="0,0,0,0,.7,0,0,0,0,0,.7,0,0,0,.7,0,0,0,0,0,.7,0,0,0,0,0,0,0,0,0,0,.7,0,0,.7,0,0,0,0,0,.7,0,0,.7,0,0,0,0,0,0,0,0,0,0,.7,0,0,0,.7,0,0,0,0,0,0,0,.7,0,0,0,0,0,.7,-.2,0,0,.7,0,0,0,0,0,0,0,0,0,.7,0,0" class="s3_39">³ut there are other situations in which we implicitly use inInite sums. For instance, in </text>
<text x="342" y="144" class="s3_39">decimal notation, the symBol 0.3</text>
<path d="M535.2,132h7.6" class="g0_39"/>
<text x="547" y="144" class="s4_39">-</text>
<text x="564" y="144" dx="0,0,0,0,0,0,0,-.8,0,-.8,0,-.8,0,0,0,0,0,0" class="s3_39">0.3333 . . . means</text>
<text x="499" y="175" class="s3_39">3</text>
<path d="M493.7,181h19.9" class="g1_39"/>
<text x="495" y="196" class="s3_39">10</text>
<text x="517" y="185" class="s5_39">1</text>
<text x="545" y="175" class="s3_39">3</text>
<path d="M535.5,181h27.4" class="g1_39"/>
<text x="537" y="196" class="s3_39">100</text>
<text x="567" y="185" class="s5_39">1</text>
<text x="598" y="175" class="s3_39">3</text>
<path d="M584.8,181h35.1" class="g1_39"/>
<text x="586" y="196" class="s3_39">1000</text>
<text x="624" y="185" class="s5_39">1</text>
<text x="660" y="175" class="s3_39">3</text>
<path d="M641.8,181h46.5" class="g1_39"/>
<text x="643" y="196" class="s3_39">10,000</text>
<text x="692" y="185" class="s5_39">1</text>
<text x="709" y="185" dx="0,3.1,3.1" class="s3_39">∙∙∙</text>
<text x="342" y="225" class="s3_39">and so, in some sense, it must Be true that</text>
<text x="482" y="256" class="s3_39">3</text>
<path d="M476.7,261.9h19.8" class="g1_39"/>
<text x="478" y="277" class="s3_39">10</text>
<text x="500" y="266" class="s5_39">1</text>
<text x="527" y="256" class="s3_39">3</text>
<path d="M518.4,261.9h27.5" class="g1_39"/>
<text x="520" y="277" class="s3_39">100</text>
<text x="550" y="266" class="s5_39">1</text>
<text x="581" y="256" class="s3_39">3</text>
<path d="M567.8,261.9h35" class="g1_39"/>
<text x="569" y="277" class="s3_39">1000</text>
<text x="607" y="266" class="s5_39">1</text>
<text x="643" y="256" class="s3_39">3</text>
<path d="M624.7,261.9h46.6" class="g1_39"/>
<text x="626" y="277" class="s3_39">10,000</text>
<text x="675" y="266" class="s5_39">1</text>
<text x="692" y="266" dx="0,3.1,3.1" class="s3_39">∙∙∙</text>
<text x="714" y="266" class="s4_39">-</text>
<text x="734" y="256" class="s3_39">1</text>
<g clip-path="url(#c0_39)">
<path d="M732.6,261.9h12.2" class="g1_39"/>
</g>
<text x="734" y="277" class="s3_39">3</text>
<text x="342" y="306" dx="0,0,0,0,0,-.7,0,0,0,0,0,0,0,0,-1,0,-.7,0,0" class="s3_39">More generally, if </text>
<text x="453" y="306" class="s6_39">d</text>
<text x="461" y="308" class="s7_39">n</text>
<text x="469" y="306" dx="0,0,0,0,0,0,0,0,-.7,0,0,0" class="s3_39">denotes the </text>
<text x="540" y="306" class="s6_39">n</text>
<text x="549" y="306" dx="0,0,0,-.7,0,0,0,0,0,-.7,0,0,-.7,0,0,0,-.7,0,0,0,0,0,0,0,-.7,0,0,0,0,0,0,0,0,0,0,0,0,0,0,-.7,0,0,-.7,0,-.7,0,0,0,0,0,-.6,0,-.7,0,0,0" class="s3_39">th digit in the decimal representation of a numBer, then</text>
<text x="437" y="347" class="s3_39">0.</text>
<text x="448" y="347" class="s6_39">d</text>
<text x="456" y="349" class="s8_39">1</text>
<text x="461" y="347" class="s6_39">d</text>
<text x="469" y="349" class="s8_39">2</text>
<text x="475" y="347" class="s6_39">d</text>
<text x="482" y="349" class="s8_39">3</text>
<text x="489" y="347" class="s6_39">d</text>
<text x="496" y="349" class="s8_39">4</text>
<text x="504" y="347" dx="0,3.1,3.1" class="s3_39">...</text>
<text x="526" y="347" class="s4_39">-</text>
<text x="547" y="337" class="s6_39">d</text>
<text x="555" y="338" class="s8_39">1</text>
<path d="M544.1,342.9h19.8" class="g1_39"/>
<text x="546" y="358" class="s3_39">10</text>
<text x="568" y="347" class="s5_39">1</text>
<text x="591" y="337" class="s6_39">d</text>
<text x="599" y="338" class="s8_39">2</text>
<path d="M585.8,342.9H611" class="g1_39"/>
<text x="587" y="358" class="s3_39">10</text>
<text x="603" y="352" class="s8_39">2</text>
<text x="615" y="347" class="s5_39">1</text>
<text x="638" y="337" class="s6_39">d</text>
<text x="646" y="338" class="s8_39">3</text>
<path d="M632.9,342.9h25.2" class="g1_39"/>
<text x="634" y="358" class="s3_39">10</text>
<text x="650" y="352" class="s8_39">3</text>
<text x="662" y="347" class="s5_39">1</text>
<text x="679" y="347" dx="0,3.1,3.1" class="s3_39">∙∙∙</text>
<text x="701" y="347" class="s5_39">1</text>
<text x="725" y="337" class="s6_39">d</text>
<text x="733" y="338" class="s7_39">n</text>
<path d="M719.4,342.9h25.2" class="g1_39"/>
<text x="721" y="358" class="s3_39">10</text>
<text x="737" y="352" class="s7_39">n</text>
<text x="748" y="347" class="s5_39">1</text>
<text x="766" y="347" dx="0,3.1,3.1" class="s3_39">∙∙∙</text>
<text x="342" y="387" dx="0,0,0,0,0,0,0,0,0,0,.7,0,0,0,0,.7,0,0,0,0,0,0,0,.7,0,0,0,0,0,.7,0,0,.7,0,0,0,0,0,0,0,.7,0,0,0,0,0,0,.7,0,0,.7,0,0,-.2,0,.7,0,0,0,.7,0,0,0,0,0,0,0,.7,0,-.3,-.2,0,.7,0,.7,0,0,0,0,0,0,0,0,.7,0,0,0" class="s3_39">Therefore some inInite sums, or inInite series as they are called, have a meaning. ³ut </text>
<text x="342" y="405" class="s3_39">we must deIne carefully what the sum of an inInite series is.</text>
<text x="360" y="424" dx="0,0,0,0,0,0,0,0,0,0,.4,0,0,.4,0,0,0,.4,0,0,0,0,0,0,.3,0,0,.4,0,0,0,0,0,0,0,0,.4,0,0,.4,0,0,.4,0,0,0,0,0,0,.4,0,0" class="s3_39">Returning to the series in Equation 3, we denote By </text>
<text x="681" y="424" class="s6_39">s</text>
<text x="686" y="425" class="s7_39">n</text>
<text x="695" y="424" dx="0,0,0,0,.4,0,0,0,.4,0,0,.4,0,0,0,.4,0,0,0,0" class="s3_39">the sum of the Irst </text>
<text x="815" y="424" class="s6_39">n</text>
<text x="827" y="424" dx="0,0,0,0,0,0,.4,0,0" class="s3_39">terms of </text>
<text x="342" y="442" dx="0,0,0,0,0,0,0,0,0,0,0,0,-.3,0,0,0" class="s3_39">the series. Thus</text>
<text x="453" y="474" class="s6_39">s</text>
<text x="459" y="476" class="s8_39">1</text>
<text x="468" y="474" class="s4_39">-</text>
<text x="486" y="467" class="s9_39">1</text>
<path d="M486.6,469.6h5.3" class="g2_39"/>
<text x="486" y="478" class="s9_39">2</text>
<text x="496" y="474" class="s4_39">-</text>
<text x="513" y="474" class="s3_39">0.5</text>
<text x="453" y="515" class="s6_39">s</text>
<text x="459" y="517" class="s8_39">2</text>
<text x="468" y="515" class="s4_39">-</text>
<text x="486" y="509" class="s9_39">1</text>
<path d="M486.6,510.8h5.3" class="g2_39"/>
<text x="486" y="519" class="s9_39">2</text>
<text x="496" y="515" class="s5_39">1</text>
<text x="513" y="509" class="s9_39">1</text>
<path d="M514.2,510.8h5.4" class="g2_39"/>
<text x="513" y="519" class="s9_39">4</text>
<text x="524" y="515" class="s4_39">-</text>
<text x="541" y="515" class="s3_39">0.75</text>
<text x="453" y="557" class="s6_39">s</text>
<text x="459" y="558" class="s8_39">3</text>
<text x="468" y="557" class="s4_39">-</text>
<text x="486" y="550" class="s9_39">1</text>
<path d="M486.6,552.1h5.3" class="g2_39"/>
<text x="486" y="561" class="s9_39">2</text>
<text x="496" y="557" class="s5_39">1</text>
<text x="513" y="550" class="s9_39">1</text>
<path d="M514.2,552.1h5.4" class="g2_39"/>
<text x="513" y="561" class="s9_39">4</text>
<text x="524" y="557" class="s5_39">1</text>
<text x="541" y="550" class="s9_39">1</text>
<path d="M541.8,552.1h5.4" class="g2_39"/>
<text x="541" y="561" class="s9_39">8</text>
<text x="551" y="557" class="s4_39">-</text>
<text x="569" y="557" class="s3_39">0.875</text>
<text x="453" y="598" class="s6_39">s</text>
<text x="459" y="600" class="s8_39">4</text>
<text x="468" y="598" class="s4_39">-</text>
<text x="486" y="591" class="s9_39">1</text>
<path d="M486.6,593.3h5.3" class="g2_39"/>
<text x="486" y="602" class="s9_39">2</text>
<text x="496" y="598" class="s5_39">1</text>
<text x="513" y="591" class="s9_39">1</text>
<path d="M514.2,593.3h5.4" class="g2_39"/>
<text x="513" y="602" class="s9_39">4</text>
<text x="524" y="598" class="s5_39">1</text>
<text x="541" y="591" class="s9_39">1</text>
<path d="M541.8,593.3h5.4" class="g2_39"/>
<text x="541" y="602" class="s9_39">8</text>
<text x="551" y="598" class="s5_39">1</text>
<text x="571" y="591" class="s9_39">1</text>
<path d="M569.5,593.3h10.7" class="g2_39"/>
<text x="569" y="602" class="s9_39">16</text>
<text x="584" y="598" class="s4_39">-</text>
<text x="602" y="598" class="s3_39">0.9375</text>
<text x="453" y="639" class="s6_39">s</text>
<text x="459" y="641" class="s8_39">5</text>
<text x="468" y="639" class="s4_39">-</text>
<text x="486" y="632" class="s9_39">1</text>
<path d="M486.6,634.6h5.3" class="g2_39"/>
<text x="486" y="643" class="s9_39">2</text>
<text x="496" y="639" class="s5_39">1</text>
<text x="513" y="632" class="s9_39">1</text>
<path d="M514.2,634.6h5.4" class="g2_39"/>
<text x="513" y="643" class="s9_39">4</text>
<text x="524" y="639" class="s5_39">1</text>
<text x="541" y="632" class="s9_39">1</text>
<path d="M541.8,634.6h5.4" class="g2_39"/>
<text x="541" y="643" class="s9_39">8</text>
<text x="551" y="639" class="s5_39">1</text>
<text x="571" y="632" class="s9_39">1</text>
<path d="M569.5,634.6h10.7" class="g2_39"/>
<text x="569" y="643" class="s9_39">16</text>
<text x="584" y="639" class="s5_39">1</text>
<text x="604" y="632" class="s9_39">1</text>
<path d="M602.5,634.6h10.7" class="g2_39"/>
<text x="602" y="643" class="s9_39">32</text>
<text x="617" y="639" class="s4_39">-</text>
<text x="635" y="639" class="s3_39">0.96875</text>
<text x="453" y="680" class="s6_39">s</text>
<text x="459" y="682" class="s8_39">6</text>
<text x="468" y="680" class="s4_39">-</text>
<text x="486" y="674" class="s9_39">1</text>
<path d="M486.6,675.8h5.3" class="g2_39"/>
<text x="486" y="684" class="s9_39">2</text>
<text x="496" y="680" class="s5_39">1</text>
<text x="513" y="674" class="s9_39">1</text>
<path d="M514.2,675.8h5.4" class="g2_39"/>
<text x="513" y="684" class="s9_39">4</text>
<text x="524" y="680" class="s5_39">1</text>
<text x="541" y="674" class="s9_39">1</text>
<path d="M541.8,675.8h5.4" class="g2_39"/>
<text x="541" y="684" class="s9_39">8</text>
<text x="551" y="680" class="s5_39">1</text>
<text x="571" y="674" class="s9_39">1</text>
<path d="M569.5,675.8h10.7" class="g2_39"/>
<text x="569" y="684" class="s9_39">16</text>
<text x="584" y="680" class="s5_39">1</text>
<text x="604" y="674" class="s9_39">1</text>
<path d="M602.5,675.8h10.7" class="g2_39"/>
<text x="602" y="684" class="s9_39">32</text>
<text x="617" y="680" class="s5_39">1</text>
<text x="637" y="674" class="s9_39">1</text>
<path d="M635.5,675.8h10.8" class="g2_39"/>
<text x="635" y="684" class="s9_39">64</text>
<text x="650" y="680" class="s4_39">-</text>
<text x="668" y="680" class="s3_39">0.984375</text>
<text x="453" y="722" class="s6_39">s</text>
<text x="459" y="723" class="s8_39">7</text>
<text x="468" y="722" class="s4_39">-</text>
<text x="486" y="715" class="s9_39">1</text>
<path d="M486.6,717.1h5.3" class="g2_39"/>
<text x="486" y="726" class="s9_39">2</text>
<text x="496" y="722" class="s5_39">1</text>
<text x="513" y="715" class="s9_39">1</text>
<path d="M514.2,717.1h5.4" class="g2_39"/>
<text x="513" y="726" class="s9_39">4</text>
<text x="524" y="722" class="s5_39">1</text>
<text x="541" y="715" class="s9_39">1</text>
<path d="M541.8,717.1h5.4" class="g2_39"/>
<text x="541" y="726" class="s9_39">8</text>
<text x="551" y="722" class="s5_39">1</text>
<text x="571" y="715" class="s9_39">1</text>
<path d="M569.5,717.1h10.7" class="g2_39"/>
<text x="569" y="726" class="s9_39">16</text>
<text x="584" y="722" class="s5_39">1</text>
<text x="604" y="715" class="s9_39">1</text>
<path d="M602.5,717.1h10.7" class="g2_39"/>
<text x="602" y="726" class="s9_39">32</text>
<text x="617" y="722" class="s5_39">1</text>
<text x="637" y="715" class="s9_39">1</text>
<path d="M635.5,717.1h10.8" class="g2_39"/>
<text x="635" y="726" class="s9_39">64</text>
<text x="650" y="722" class="s5_39">1</text>
<text x="673" y="715" class="s9_39">1</text>
<path d="M668.5,717.1h16.1" class="g2_39"/>
<text x="668" y="726" class="s9_39">128</text>
<text x="689" y="722" class="s4_39">-</text>
<text x="706" y="722" class="s3_39">0.9921875</text>
<text x="470" y="757" class="sa_39">f</text>
<text x="449" y="795" class="s6_39">s</text>
<text x="455" y="797" class="s8_39">10</text>
<text x="468" y="795" class="s4_39">-</text>
<text x="486" y="788" class="s9_39">1</text>
<path d="M486.6,790.4h5.3" class="g2_39"/>
<text x="486" y="799" class="s9_39">2</text>
<text x="496" y="795" class="s5_39">1</text>
<text x="513" y="788" class="s9_39">1</text>
<path d="M514.2,790.4h5.4" class="g2_39"/>
<text x="513" y="799" class="s9_39">4</text>
<text x="524" y="795" class="s5_39">1</text>
<text x="541" y="795" dx="0,3.1,3.1" class="s3_39">∙∙∙</text>
<text x="563" y="795" class="s5_39">1</text>
<text x="589" y="788" class="s9_39">1</text>
<path d="M581.3,790.4h21.5" class="g2_39"/>
<text x="580" y="799" class="s9_39">1024</text>
<text x="607" y="795" class="sb_39">&lt;</text>
<text x="624" y="795" class="s3_39">0.99902344</text>
<text x="470" y="830" class="sa_39">f</text>
<text x="449" y="879" class="s6_39">s</text>
<text x="455" y="881" class="s8_39">16</text>
<text x="468" y="879" class="s4_39">-</text>
<text x="488" y="868" class="s3_39">1</text>
<path d="M486.7,874.6h12.2" class="g1_39"/>
<text x="488" y="890" class="s3_39">2</text>
<text x="503" y="879" class="s5_39">1</text>
<text x="522" y="868" class="s3_39">1</text>
<path d="M520.8,874.6H533" class="g1_39"/>
<text x="522" y="890" class="s3_39">4</text>
<text x="537" y="879" class="s5_39">1</text>
<text x="554" y="879" dx="0,3.1,3.1" class="s3_39">∙∙∙</text>
<text x="576" y="879" class="s5_39">1</text>
<text x="601" y="868" class="s3_39">1</text>
<path d="M594.3,874.6h22.1" class="g1_39"/>
<text x="596" y="890" class="s3_39">2</text>
<text x="604" y="884" class="s8_39">16</text>
<text x="620" y="879" class="sb_39">&lt;</text>
<text x="637" y="879" class="s3_39">0.99998474</text>
<text x="342" y="923" dx="0,0,0,0,0,0,-.2,0,-.1,0,0,0,0,-.1,0,0,-.1,0,0,-.1,0,0,0,-.1,0,0,0,0,-.1,0,0,0,-.1,0,0,0,0,-.1,0,0,0,0,0,0,-.1,0,0,0,-.1,0,0,0,0,0,0,0,-.1,0,0,0,0,-.1,0,0,0,0,0,0,-.1,0,0,0,0,0,0,-.1,0,0,0,-.1,0,0,0,0,0,0" class="s3_39">OBserve that as we add more and more terms, the partial sums Become closer and closer </text>
<text x="342" y="942" dx="0,0,0,-.3,0,0,-.3,0,0,-.3,-.2,0,0,0,0,-.3,0,0,-.3,0,0,0,-.3,0,0,-.3,0,0,-.4,0,0,-.3,0,0,0,0,-.3,0,0,-.3,0,0,0,0,0,0" class="s3_39">to 1. ²n fact, it can Be shown that By taking </text>
<text x="603" y="942" class="s6_39">n</text>
<text x="614" y="942" dx="0,0,0,-.3,0,0,-.3,0,0,0,0,0,0,-.3,0,0,0,0,0,-.3,0,0,0,-.3,0,0,-.3,0,0,0,0,0,0,-.3,0,0,-.4,0,0,0,0,0,0,0,0" class="s3_39">large enough (that is, By adding sufIciently </text>
<text x="342" y="960" dx="0,0,0,-.2,0,-1.1,0,0,0,0,0,-1.1,0,0,-1.1,0,0,0,-1.1,0,0,0,0,0,0,0,0,-1.1,0,0,-1.1,0,0,0,-1.1,0,0,-.2,0,-1.1,0,0,0,-1.1,0,0,0,0,0,0,0,-1.1,0,0,0" class="s3_39">many terms of the series), we can make the partial sum </text>
<text x="670" y="960" class="s6_39">s</text>
<text x="676" y="962" class="s7_39">n</text>
<text x="683" y="960" dx="0,0,0,-1.1,0,0,0,0,0,-1.1,0,0,-1.1,0,0,-1.1,0,0,0,0,0,0,-1.1,0,0,-1.1,0,0,0,-1.1,0,0,0,0" class="s3_39">as close as we please to the num- </text>
<text x="342" y="978" dx="0,0,0,0,.5,0,0,.5,0,0,.5,0,0,0,0,0,0,0,0,0,.5,0,0,0,0,0,.5,0,0,0,0,0,0,0,0,0,0,.5,0,0,.5,0,0,0,.5,0,0,0,0,.5,0,0,0,.5,0,0,0,.5,0,0,.5,0,0,0,.5,0,0,0,0,0,0,0,.5,0,0,0,0,0,0,.5,0,0,.5,0,.5,0,0,0,.5,0,0" class="s3_39">Ber 1. ²t therefore seems reasonaBle to say that the sum of the inInite series is 1 and to </text>
<text x="342" y="997" class="s3_39">write</text>
<text x="498" y="1020" class="s3_39">1</text>
<path d="M496.7,1025.8h12.2" class="g1_39"/>
<text x="498" y="1041" class="s3_39">2</text>
<text x="513" y="1030" class="s5_39">1</text>
<text x="532" y="1020" class="s3_39">1</text>
<path d="M530.7,1025.8h12.2" class="g1_39"/>
<text x="532" y="1041" class="s3_39">4</text>
<text x="547" y="1030" class="s5_39">1</text>
<text x="566" y="1020" class="s3_39">1</text>
<path d="M564.8,1025.8H577" class="g1_39"/>
<text x="566" y="1041" class="s3_39">8</text>
<text x="581" y="1030" class="s5_39">1</text>
<text x="598" y="1030" dx="0,3.1,3.1" class="s3_39">∙∙∙</text>
<text x="620" y="1030" class="s5_39">1</text>
<text x="642" y="1020" class="s3_39">1</text>
<path d="M638.3,1025.8h17.6" class="g1_39"/>
<text x="640" y="1041" class="s3_39">2</text>
<text x="648" y="1035" class="s7_39">n</text>
<text x="660" y="1030" class="s5_39">1</text>
<text x="677" y="1030" dx="0,3.1,3.1" class="s3_39">∙∙∙</text>
<text x="699" y="1030" class="s4_39">-</text>
<text x="716" y="1030" class="s3_39">1</text>
<text x="121" y="1076" class="sc_39">Copyright 2016 Cengage Learning. All Rights Reserved. May not be copied, scanned, or duplicated, in whole or in part. Due to electronic rights, some third party content may be suppressed from the eBook and/or eChapter(s).</text>
<text x="106" y="1087" class="sc_39">Editorial review has deemed that any suppressed content does not materially affect the overall learning experience. Cengage Learning reserves the right to remove additional content at any time if subsequent rights restrictions require it.</text>

</g>

<!-- Any embedded fonts defined here -->
<style type="text/css" ><![CDATA[

@font-face {
	font-family: MathematicalPiLTStd-1_rr;
	src: url("fonts/MathematicalPiLTStd-1_rr.woff") format("woff");
}

@font-face {
	font-family: MathematicalPiLTStd-3_ry;
	src: url("fonts/MathematicalPiLTStd-3_ry.woff") format("woff");
}

@font-face {
	font-family: MathematicalPiLTStd-5_vb;
	src: url("fonts/MathematicalPiLTStd-5_vb.woff") format("woff");
}

@font-face {
	font-family: MyriadPro-Semibold_49;
	src: url("fonts/MyriadPro-Semibold_49.woff") format("woff");
}

@font-face {
	font-family: PearsonMATH13_10u;
	src: url("fonts/PearsonMATH13_10u.woff") format("woff");
}

@font-face {
	font-family: Times-Roman_4n;
	src: url("fonts/Times-Roman_4n.woff") format("woff");
}

@font-face {
	font-family: TimesLTStd-Italic_o3;
	src: url("fonts/TimesLTStd-Italic_o3.woff") format("woff");
}

@font-face {
	font-family: TimesLTStd-Roman_-s;
	src: url("fonts/TimesLTStd-Roman_-s.woff") format("woff");
}

]]></style>

</svg>
