<?xml version="1.0" encoding="UTF-8" standalone="no"?>
<!DOCTYPE svg PUBLIC "-//W3C//DTD SVG 1.1//EN"
"http://www.w3.org/Graphics/SVG/1.1/DTD/svg11.dtd">


<!-- Page 40 -->
<svg x="0" y="0" width="931" height="1096" viewBox="0 0 931 1096" version="1.1" xmlns="http://www.w3.org/2000/svg" xmlns:xlink="http://www.w3.org/1999/xlink"
style="display: block;margin-left: auto;margin-right: auto;">
<defs>
<clipPath id="c_40"><path d="M0,0H931V1096H0Z"/></clipPath>
<clipPath id="c0_40"><path d="M230.4,547.7c-.5,0,-1,-.4,-1.1,-.8c-.1,-.7,.7,-1.4,.3,-2.5c.5,.6,1.6,1.3,1.7,2c.1,.5,-.2,1.2,-.7,1.3q-.1,0,-.2,0Z"/></clipPath>
<clipPath id="c1_40"><path d="M222.5,550.6c-.5,0,-1.1,-.4,-1.2,-1c-.2,-.9,.8,-1.7,.3,-3c.6,.6,1.9,1.5,2.1,2.4c.1,.7,-.3,1.5,-.9,1.6c-.1,0,-.2,0,-.3,0Z"/></clipPath>
<clipPath id="c2_40"><path d="M225.7,552c-.5,0,-1,-.3,-1.1,-.8c-.1,-.7,.7,-1.4,.3,-2.5c.5,.6,1.5,1.3,1.7,2c.1,.6,-.2,1.2,-.7,1.3c-.1,0,-.2,0,-.2,0Z"/></clipPath>
<clipPath id="c3_40"><path d="M226,556.7c-.4,0,-.8,-.3,-.9,-.8c-.2,-.8,.7,-1.1,.5,-2.5c.7,.6,1.4,.7,1.6,1.6c.1,.7,-.1,1.2,-.7,1.5c-.1,.1,-.3,.2,-.5,.2Z"/></clipPath>
<clipPath id="c4_40"><path d="M223.6,554.5c-.5,0,-.9,-.3,-1,-.8c-.2,-.7,.6,-1.4,.2,-2.5c.5,.6,1.6,1.3,1.7,2.1c.1,.5,-.2,1.1,-.7,1.2q-.1,0,-.2,0Z"/></clipPath>
<clipPath id="c5_40"><path d="M219.2,549.9c-.5,0,-1,-.4,-1.1,-.8c-.1,-.7,.7,-1.4,.3,-2.4c.5,.5,1.5,1.2,1.7,1.9c.1,.6,-.2,1.2,-.7,1.3c-.1,0,-.2,0,-.2,0Z"/></clipPath>
<clipPath id="c6_40"><path d="M221.5,556.7c-.4,0,-.9,-.4,-1,-.9c-.1,-.7,.7,-1.4,.2,-2.5c.5,.6,1.6,1.3,1.8,2.1c.1,.5,-.3,1.1,-.8,1.2c0,.1,-.1,.1,-.2,.1Z"/></clipPath>
<clipPath id="c7_40"><path d="M229.5,554.5c-.5,0,-1.1,-.4,-1.2,-1c-.2,-.8,.8,-1.7,.3,-3c.6,.7,1.9,1.5,2.1,2.5c.1,.6,-.3,1.4,-.9,1.5c-.1,0,-.2,0,-.3,0Z"/></clipPath>
<clipPath id="c8_40"><path d="M226.9,548.6c-.4,0,-.9,-.3,-1,-.8c-.2,-.7,.7,-1.4,.2,-2.5c.5,.6,1.6,1.3,1.8,2c.1,.6,-.3,1.2,-.8,1.3q-.1,0,-.2,0Z"/></clipPath>
<clipPath id="c9_40"><path d="M220.1,539.5c-.6,0,-1.2,-.4,-1.3,-1c-.2,-.8,.8,-1.7,.3,-3c.6,.6,1.9,1.5,2.1,2.4c.1,.7,-.3,1.5,-.9,1.6c-.1,0,-.2,0,-.2,0Z"/></clipPath>
<clipPath id="ca_40"><path d="M223.2,540.9c-.5,0,-1,-.3,-1.1,-.8c-.1,-.7,.7,-1.4,.3,-2.5c.5,.6,1.5,1.3,1.7,2c.1,.6,-.2,1.2,-.7,1.3c-.1,0,-.2,0,-.2,0Z"/></clipPath>
<clipPath id="cb_40"><path d="M223.5,545.6c-.4,0,-.8,-.3,-.9,-.8c-.2,-.8,.8,-1.1,.5,-2.5c.7,.6,1.4,.7,1.6,1.6c.1,.7,-.1,1.3,-.7,1.5c-.1,.1,-.3,.2,-.5,.2Z"/></clipPath>
<clipPath id="cc_40"><path d="M221.1,543.4c-.4,0,-.9,-.3,-1,-.8c-.2,-.7,.7,-1.4,.2,-2.5c.5,.6,1.6,1.3,1.7,2.1c.1,.5,-.2,1.1,-.7,1.2q-.1,0,-.2,0Z"/></clipPath>
<clipPath id="cd_40"><path d="M219.1,545.6c-.5,0,-1,-.4,-1.1,-.9c-.1,-.7,.7,-1.3,.2,-2.4c.6,.5,1.6,1.2,1.8,2c.1,.5,-.2,1.1,-.8,1.3c0,0,-.1,0,-.1,0Z"/></clipPath>
<clipPath id="ce_40"><path d="M227.1,543.5c-.6,0,-1.2,-.5,-1.3,-1.1c-.2,-.8,.8,-1.6,.3,-3c.6,.7,1.9,1.6,2.1,2.5c.1,.6,-.3,1.4,-.9,1.5c-.1,0,-.2,.1,-.2,.1Z"/></clipPath>
<clipPath id="cf_40"><path d="M224.5,537.6c-.5,0,-1,-.4,-1.1,-.9c-.1,-.7,.7,-1.4,.2,-2.5c.6,.6,1.6,1.3,1.8,2c.1,.6,-.3,1.2,-.8,1.3c0,0,-.1,.1,-.1,.1Z"/></clipPath>
<clipPath id="cg_40"><path d="M216,545.8c-.6,0,-1.2,-.4,-1.3,-1c-.2,-.8,.8,-1.7,.3,-3c.6,.7,1.9,1.5,2.1,2.5c.1,.6,-.3,1.4,-.9,1.5q-.1,0,-.2,0Z"/></clipPath>
<clipPath id="ch_40"><path d="M214.3,554.4c-.4,0,-.9,-.4,-1,-.8c-.1,-.7,.7,-1.4,.2,-2.5c.6,.5,1.6,1.3,1.8,2c.1,.5,-.3,1.2,-.8,1.3c0,0,-.1,0,-.2,0Z"/></clipPath>
<clipPath id="ci_40"><path d="M218.2,556.9c-.5,0,-1.1,-.4,-1.2,-1c-.2,-.8,.8,-1.7,.2,-3c.7,.6,1.9,1.5,2.1,2.4c.2,.7,-.2,1.5,-.9,1.6c0,0,-.1,0,-.2,0Z"/></clipPath>
<clipPath id="cj_40"><path d="M215.6,551c-.5,0,-.9,-.4,-1,-.8c-.2,-.7,.6,-1.4,.2,-2.5c.5,.5,1.6,1.3,1.7,2c.1,.5,-.2,1.2,-.7,1.3q-.1,0,-.2,0Z"/></clipPath>
<clipPath id="ck_40"><path d="M227.9,536.3c-.5,0,-.9,-.3,-1,-.8c-.2,-.7,.6,-1.3,.2,-2.4c.5,.5,1.5,1.2,1.7,2c.1,.5,-.2,1.1,-.7,1.2q-.1,0,-.2,0Z"/></clipPath>
<clipPath id="cl_40"><path d="M230.3,543.1c-.5,0,-1,-.4,-1.1,-.9c-.1,-.6,.7,-1.3,.3,-2.4c.5,.5,1.5,1.2,1.7,2c.1,.5,-.2,1.2,-.8,1.3c0,0,-.1,0,-.1,0Z"/></clipPath>

<style type="text/css"><![CDATA[
text { white-space: pre; }
path, image { pointer-events: none; }

.s1_40{
font-size: 15.28px;
font-family: MyriadPro-Semibold_49;
fill: #231F20;
}
.s2_40{
font-size: 12.22px;
font-family: MyriadPro-Semibold_49;
fill: #231F20;
}
.s3_40{
font-size: 15.28px;
font-family: TimesLTStd-Roman_-s;
fill: #231F20;
}
.s4_40{
font-size: 9.93px;
font-family: TimesLTStd-Italic_o3;
fill: #231F20;
}
.s5_40{
font-size: 9.93px;
font-family: UniversalChemicalPi-T_-_;
fill: #231F20;
}
.s6_40{
font-size: 9.93px;
font-family: MathematicalPiLTStd-1_rr;
fill: #231F20;
}
.s7_40{
font-size: 15.28px;
font-family: TimesLTStd-Italic_o3;
fill: #231F20;
}
.s8_40{
font-size: 9.17px;
font-family: TimesLTStd-Italic_o3;
fill: #231F20;
}
.s9_40{
font-size: 15.28px;
font-family: MathematicalPiLTStd-5_vb;
fill: #231F20;
}
.sa_40{
font-size: 16.81px;
font-family: MyriadPro-Semibold_49;
fill: #231F20;
}
.sb_40{
font-size: 15.28px;
font-family: MyriadPro-BoldSemiCn_90;
fill: #231F20;
}
.sc_40{
font-size: 15.28px;
font-family: TimesLTStd-Roman_6c;
fill: #231F20;
}
.sd_40{
font-size: 12.99px;
font-family: Times-Roman_n6;
fill: #231F20;
}
.se_40{
font-size: 12.99px;
font-family: TECHMath-Mix_113;
fill: #231F20;
}
.sf_40{
font-size: 14.51px;
font-family: MyriadPro-Bold_74;
fill: #231F20;
}
.sg_40{
font-size: 15.28px;
font-family: MyriadPro-Bold_74;
fill: #231F20;
}
.sh_40{
font-size: 7.64px;
font-family: Times-Roman_4n;
fill: #000000;
}

.g0_40{
fill: #CC017A;
}
.g1_40{
fill: #ABE0F9;
}
.g2_40{
fill: #96DAF8;
}
.g3_40{
fill: #7DD3F6;
}
.g4_40{
fill: #62CDF5;
}
.g5_40{
fill: #42C8F4;
}
.g6_40{
fill: none;
stroke: #231F20;
stroke-width: 0.381;
stroke-linecap: butt;
stroke-linejoin: miter;
stroke-miterlimit: 3;
}
.g7_40{
fill: #231F20;
}
.g8_40{
fill: none;
stroke: #F7C2D9;
stroke-width: 1.145;
stroke-linecap: butt;
stroke-linejoin: miter;
stroke-miterlimit: 3;
}
.g9_40{
fill: none;
stroke: #EC008C;
stroke-width: 0.763;
stroke-linecap: butt;
stroke-linejoin: round;
stroke-miterlimit: 3;
}
.ga_40{
fill: #EC008C;
}
.gb_40{
fill: none;
stroke: #F7931D;
stroke-width: 1.145;
stroke-linecap: butt;
stroke-linejoin: miter;
stroke-miterlimit: 3;
}
.gc_40{
fill: none;
stroke: #ABE0F9;
stroke-width: 1.145;
stroke-linecap: butt;
stroke-linejoin: miter;
stroke-miterlimit: 3;
}
.gd_40{
fill: none;
stroke: #231F20;
stroke-width: 0.763;
stroke-linecap: butt;
stroke-linejoin: miter;
stroke-miterlimit: 3;
stroke-dasharray: 10,4;
}
.ge_40{
fill: none;
stroke: #231F20;
stroke-width: 0.763;
stroke-linecap: butt;
stroke-linejoin: round;
stroke-miterlimit: 3;
}
.gf_40{
fill: none;
stroke: #231F20;
stroke-width: 0.763;
stroke-linecap: butt;
stroke-linejoin: miter;
stroke-miterlimit: 3;
}

]]></style>

</defs>
<g clip-path="url(#c_40)">
<path d="M0,0
L0,1096
L931,1096
L931,0 Z " 
fill="#FFFFFF" stroke="none"/>
<text x="53" y="64" class="s1_40">8</text>
<text x="126" y="64" dx="0,.1,.1,.2,.2,.3,.2,.2,.3,.1,.1,.2,.1,.1,.3,.2,-.2,.2,.2,-.2,.2" class="s2_40">A PREVIEW OF CALCULUS</text>
<text x="287" y="107" dx="0,0,0,0,0,0,0,0,0,0,-.2,0,0,0,0,0,0,0,0,0,0,0,0,0,0,0,0,0,0,0,0,0,0,0,0,0,0,0,0,0,0,0,0,0,0,0,0,0,0,0,0,0,0,0,0,0,0,0,0,0,0" class="s3_40">²n other words, the reason the sum of the series is 1 is that</text>
<text x="522" y="140" dx="0,0,0,-1.5" class="s3_40">lim </text>
<text x="520" y="149" class="s4_40">n</text>
<text x="527" y="149" class="s5_40">l</text>
<text x="538" y="149" class="s6_40">`</text>
<text x="549" y="140" class="s7_40">s</text>
<text x="555" y="141" class="s8_40">n</text>
<text x="565" y="140" class="s9_40">-</text>
<text x="582" y="140" class="s3_40">1</text>
<text x="305" y="167" dx="0,0,0,.3,0,0,0,0,0,0,0,.3,0,0,.3,0,0,.3,0,0,0,0,.3,0,0,0,0,0,0,0,.3,0,0,0,0,0,.3,0,0,0,0,0,.3,0,0,0,0,0,0,-.8,0,-.1,-1.2,0,.3,0,0,0,0,.3,0,0,0,0,.3,0,0,0,.3,0,-.4,0,0,0,0,-.8,0,.3,0,0,0,0,.3,0,0" class="s3_40">²n ±hapter 11 we will discuss these ideas further. We will then use Newton’s idea of </text>
<text x="287" y="185" dx="0,0,0,0,0,0,0,0,0,0,0,0,0,0,0,0,0,0,0,0,0,0,0,0,0,0,0,0,0,0,0,0,0,-.4,0,0,0,0,0,0,0,0,0,0,0,0,0,0,0,0,0,-.2,0,0,0,0,0,0,0,0,0,0,0,0,0" class="s3_40">comBining inInite series with differential and integral calculus.</text>
<path d="M288.8,221.1c0,0,-1.6,0,-1.6,1.5v9.1c0,0,0,1.6,1.6,1.6h9.1c0,0,1.6,0,1.6,-1.6v-9.1c0,0,0,-1.5,-1.6,-1.5Z" class="g0_40"/>
<text x="307" y="233" dx="0,0,0,0,0,0,.4" class="sa_40">Summary</text>
<text x="287" y="256" dx="0,-1.2,0,.4,0,-.3,-.2,0,.4,0,0,0,0,.4,0,0,0,0,.4,0,0,0,.4,0,0,0,0,0,0,0,.4,0,0,.4,0,.4,0,0,0,0,0,.4,0,0,0,0,0,0,.4,0,0,.4,0,0,0,0,0,0,.4,0,0,.4,0,0,0,.4,0,0,0,.4,0,0,0,0,.4,0,0,.4,0,.4,0,-.2,0,0,0,0,0,.4,0,0,0" class="s3_40">We have seen that the concept of a limit arises in trying to Ind the area of a region, the </text>
<text x="287" y="274" dx="0,0,0,0,0,0,1.2,0,0,1.2,0,1.2,0,0,0,0,0,0,0,1.2,0,0,1.2,0,1.2,0,0,0,-.2,0,0,1.2,0,0,0,1.2,-.2,0,0,0,0,0,0,0,1.2,0,0,1.2,0,1.2,0,0,-.6,0,1.2,0,0,1.2,0,0,0,1.2,0,0,0,1.2,0,0,1.2,0,0,1.2,0,0,0,0,0,0,0,1.2,0,0,0,0,0,0,0,1.2,0,0" class="s3_40">slope of a tangent to a curve, the velocity of a car, or the sum of an inInite series. ²n </text>
<text x="287" y="292" dx="0,0,0,0,0,.2,0,0,0,0,.2,0,0,0,.2,0,0,0,0,0,0,.2,0,0,0,0,0,.2,0,0,.2,0,0,0,.2,0,0,0,0,0,0,0,0,0,0,0,.2,0,0,.2,0,.2,0,0,0,0,0,0,0,0,.2,0,0,.2,0,0,0,.2,0,0,0,0,0,.2,0,0,.2,0,0,0,0,-.6,0,.2,0,0,0,0,0,0" class="s3_40">each case the common theme is the calculation of a quantity as the limit of other, easily </text>
<text x="287" y="311" dx="0,0,0,0,0,0,0,0,0,0,0,1.3,0,0,0,0,0,0,0,0,0,0,0,1.3,0,0,1.3,0,0,1.3,0,0,0,0,1.3,0,0,0,0,0,1.3,0,0,0,0,1.3,0,0,1.3,0,1.3,0,0,0,0,0,1.3,0,0,0,0,1.3,0,0,0,0,1.3,0,0,0,0,0,0,0,0,1.3,0,0,0,0,0,1.3,0,0,0,0,1.3,0,0,0,0,0" class="s3_40">calculated quantities. ²t is this Basic idea of a limit that sets calculus apart from other </text>
<text x="287" y="329" dx="0,0,0,0,0,0,.8,0,0,.8,0,0,0,0,0,0,0,0,0,0,0,0,.8,0,0,.8,-.2,0,0,0,0,.8,0,0,.8,0,0,0,0,0,.8,0,0,0,0,0,.8,0,0,0,0,0,0,0,0,.8,0,0,.8,0,0,0,.8,0,0,0,0,.8,0,0,.8,0,0,0,0,0,0,0,0,0,0,0,.8,0,0,0,0" class="s3_40">areas of mathematics. ²n fact, we could deIne calculus as the part of mathematics that </text>
<text x="287" y="347" class="s3_40">deals with limits.</text>
<text x="305" y="366" dx="0,0,0,0,0,0,2,0,0,0,2,0,0,0,0,0,2,0,-.4,0,0,0,0,2,0,-.6,-.2,0,0,0,0,0,2,0,0,0,2,-.2,0,0,0,0,0,0,2,0,0,2,0,0,0,0,0,0,0,0,0,2,0,0,2,0,0,0,0,2,0,0,2,0,0,2,-.2,0,0,0,0,0,0,2,0,0,0" class="s3_40">After Sir ²saac Newton invented his version of calculus, he used it to explain the </text>
<text x="287" y="384" dx="0,0,0,0,0,0,0,.3,0,0,.3,0,0,0,.3,0,0,0,0,0,0,0,.3,0,0,0,0,0,0,.3,0,0,0,.3,0,0,0,0,0,-1.2,0,0,0,0,.3,0,0,0,0,0,0,0,0,.3,0,0,.3,0,0,0,0,.3,0,0,.3,0,0,0,0,0,0,0,0,0,0,0,.3,0,0,0,.3,0,0,0,0,0,0,.3,0,0" class="s3_40">motion of the planets around the sun. Today calculus is used in calculating the orBits of </text>
<text x="287" y="402" dx="0,0,0,0,0,0,0,0,0,0,0,0,0,0,0,0,0,0,0,0,0,0,0,0,0,0,0,0,0,0,0,0,0,0,0,0,0,0,0,0,0,0,0,0,0,0,0,0,0,0,0,0,0,0,0,0,0,0,0,0,0,0,0,0,0,0,0,0,0,0,0,0,0,0,0,-.4,0,0,-.2,0,0,0,0,0,0,0,0,0,0,0,0,0,0" class="s3_40">satellites and spacecraft, in predicting population sizes, in estimating how fast oil prices </text>
<text x="287" y="421" dx="0,0,0,0,0,.7,0,0,.7,-.2,0,0,0,0,.7,0,0,.7,0,0,0,0,0,0,0,0,0,0,0,.7,0,0,0,0,0,0,-.6,0,.7,0,0,.7,0,0,0,0,0,0,0,0,0,.7,0,0,0,.7,0,0,0,0,0,0,0,.7,0,0,0,0,0,0,.7,0,0,.7,0,0,0,.7,0,0,0,0,0,0,.7,0,0,.7,0,0,0" class="s3_40">rise or fall, in forecasting weather, in measuring the cardiac output of the heart, in cal-</text>
<text x="287" y="439" dx="0,0,0,0,0,0,0,0,0,.6,0,0,0,0,.6,0,0,0,0,0,0,0,0,0,.6,0,0,0,0,0,0,0,0,0,.6,0,0,0,.6,0,0,.6,0,.6,0,0,0,0,0,.6,-.4,0,0,0,0,0,0,.6,0,0,.6,0,0,0,0,0,.6,0,0,0,0,0,0,.1,-1.2,0,.6,0,0,0,0,.6,-.2,0,0,0,0,0,0" class="s3_40">culating life insurance premiums, and in a great variety of other areas. We will explore </text>
<text x="287" y="457" class="s3_40">some of these uses of calculus in this Book.</text>
<text x="305" y="476" dx="0,0,0,-.1,0,0,0,0,0,-.1,0,0,-.1,0,0,-.6,-.2,-.2,0,-.1,0,-.1,0,0,0,0,0,-.1,0,0,-.1,0,0,0,-.1,0,-.4,0,0,0,-.1,0,0,-.1,0,0,0,-.1,0,0,0,0,0,0,0,0,-.1,0,0,-.1,0,0,0,-.1,0,0,0,0,-.1,0,0,-.4,0,0,-.4,0,-.1,0,0,0,0,-.1,0,-.1,0,0,0,0" class="s3_40">²n order to convey a sense of the power of the suBject, we end this preview with a list </text>
<text x="287" y="494" class="s3_40">of some of the questions that you will Be aBle to answer using calculus:</text>
<text x="312" y="522" class="sb_40">1.</text>
<text x="331" y="522" dx="0,0,-.4,0,0,0,0,0,0,0,0,0,-.2,0,0,0,0,0,0,0,0,0,0,0,-.2,0,0,0,0,0,0,0,0,0,0,0,0,0,0,0,0,0,0,0,0,0,0,0,0,0,0,0,0,0,0,0,0,0,0,0,0,0,0,0,0,0,0,0,0,0,0,0,0,0,0,0,-.4,-.4,0,0,0,0,0" class="s3_40">How can we explain the fact, illustrated in Figure 12, that the angle of elevation </text>
<text x="331" y="540" dx="0,0,0,0,0,0,0,0,0,0,0,0,0,0,-.2,0,0,0,0,0,0,0,0,0,0,0,0,0,0,0,0,0,0,0,0,0,0,0,0,0,0,0,0,0,0,0,0,0,0,0,0,0,-.4,0,0,0,0,0,0,0,0,0,0,0,0,0,0,0,0,0,0,0,0,0,0,0,0" class="s3_40">from an oBserver up to the highest point in a rainBow is 42°? (See page 285.)</text>
<text x="312" y="567" class="sb_40">2.</text>
<text x="331" y="567" dx="0,0,-.4,0,0,0,0,0,0,0,0,0,-.2,0,0,0,0,0,0,0,0,0,0,0,0,0,0,0,0,0,0,0,0,0,0,0,0,0,0,0,0,0,0,0,0,0,0,0,0,0,-.2,0,0,0,0,0,0,0,-.2,0,0,0,0,0,0,0,0,0,0,0,0,0,0,0,0,0,0" class="s3_40">How can we explain the shapes of cans on supermarket shelves? (See page 343.)</text>
<text x="312" y="595" class="sb_40">3.</text>
<text x="331" y="595" dx="0,0,0,0,0,0,0,0,0,0,0,0,0,0,0,0,0,0,0,0,0,0,0,0,0,0,0,0,0,0,0,0,0,0,0,0,0,0,-.2,0,0,0,0,0,0,0,0,0,0,0,0,0,0,0,0,0,0,0,0,0,0,0,0,0,0,0" class="s3_40">Where is the Best place to sit in a movie theater? (See page 465.)</text>
<text x="312" y="622" class="sb_40">4.</text>
<text x="331" y="622" dx="0,0,-.4,0,0,0,0,0,0,0,0,0,0,0,0,0,0,0,0,0,0,0,0,0,0,0,0,0,0,0,0,0,0,0,0,0,0,0,0,0,0,0,0,0,0,0,0,0,0,0,0,0,0,0,0,0,0,0,0,0,0,0,0,0,0,0,0,0,0" class="s3_40">How can we design a roller coaster for a smooth ride? (See page 182.)</text>
<text x="312" y="650" class="sb_40">5.</text>
<text x="331" y="650" dx="0,0,-.4,0,0,-.2,0,0,0,-.2,-.2,0,0,0,0,0,0,0,0,0,0,0,0,0,0,0,0,0,0,0,0,0,0,0,0,0,0,0,0,0,0,0,0,0,0,0,0,0,0,0,0,0,0,0,0,0,0,0,0,0,0,0,0,0,0,0,0,0,0,0,0,0,0,0" class="s3_40">How far away from an airport should a pilot start descent? (See page 208.)</text>
<text x="312" y="677" class="sb_40">6.</text>
<text x="331" y="677" dx="0,0,-.4,0,0,0,0,0,0,0,0,0,0,0,0,0,0,0,-.2,0,0,0,0,0,0,0,0,0,0,0,0,0,0,0,0,0,0,0,0,0,0,0,0,0,0,0,0,0,0,0,0,0,0,0,0,0,0,0,0,0,0,0,0,0,0,0,0,0,0,0,0,0,0,0,0,0,0,0,0" class="s3_40">How can we It curves together to design shapes to represent letters on a laser </text>
<text x="331" y="696" class="s3_40">printer? (See page 657.)</text>
<text x="312" y="723" class="sb_40">7.</text>
<text x="331" y="723" dx="0,0,-.4,0,0,0,0,0,0,0,0,0,0,0,0,0,0,0,0,0,0,0,0,0,0,0,0,0,0,0,0,0,0,0,0,-.2,0,0,-.2,0,0,0,0,0,0,0,0,0,0,0,0,0,0,0,0,0,0,0,0,0,0,0,0,-.3,0,0,0,0,0,0,0,0,0,0,0,0,0,0" class="s3_40">How can we estimate the numBer of workers that were needed to Build the Great </text>
<text x="331" y="742" class="s3_40">Pyramid of Khufu in ancient Egypt? (See page 460.)</text>
<text x="312" y="769" class="sb_40">8.</text>
<text x="331" y="769" dx="0,0,0,0,0,0,0,0,0,0,0,0,0,0,0,0,0,0,0,0,0,0,0,0,0,0,0,0,0,0,0,0,0,0,0,0,0,0,0,0,0,0,0,0,0,0,0,0,0,0,0,0,0,0,0,0,0,0,0,0,0,0,0,0,0,0,-.4,0,0,0,0,0,0,0,0" class="s3_40">Where should an inIelder position himself to catch a BaseBall thrown By an </text>
<text x="331" y="787" class="s3_40">outIelder and relay it to home plate? (See page 465.)</text>
<text x="312" y="815" class="sb_40">9.</text>
<text x="331" y="815" dx="0,0,0,0,0,0,0,0,0,0,0,0,0,0,0,0,-.4,0,0,0,0,0,-.2,0,0,0,0,0,0,-.2,0,0,0,0,0,0,0,0,0,0,0,0,0,0,0,0,0,0,0,0,0,0,0,0,0,0,0,0,0,0,0,0,0,0,0,0,0,0,0,0,0,0,0,-.2,0,0,0" class="s3_40">Does a Ball thrown upward take longer to reach its maximum height or to fall </text>
<text x="331" y="833" class="s3_40">Back to its original height? (See page 609.)</text>
<text x="304" y="861" class="sb_40">10.</text>
<text x="331" y="861" dx="0,0,-.4,0,0,0,0,0,0,0,0,0,-.2,0,0,0,0,0,0,0,0,0,0,0,-.2,0,0,0,0,0,0,0,0,0,0,0,0,0,0,0,0,0,0,0,0,0,0,0,0,0,0,0,0,0,0,0,0,0,-.2,-.2,0,0,0,0,0,0,0,0,0,0,0,0,0,0,0,0,0,0,0,0,0,0,0" class="s3_40">How can we explain the fact that planets and satellites move in elliptical orBits? </text>
<text x="331" y="879" class="s3_40">(See page 868.)</text>
<text x="304" y="907" class="sb_40">11.</text>
<text x="331" y="907" dx="0,0,-.4,0,0,0,0,0,0,0,0,0,0,0,0,0,0,0,-.3,0,0,0,0" class="s3_40">How can we distriBute w</text>
<text x="483" y="907" dx="0,0,0,0,0,0,0,-.4,0,0,0,0,0,0,0,0,0,0,0,0,0,0,0,0,0,0,0,0,0,0,-.1,0,0,0,0,0,0,0,0,0,0,0,0,0,0,0,0,0,0,0,0,0,0,0" class="sc_40">ater ²ow among turbines at a hydroelectric station so </text>
<text x="331" y="925" dx="0,0,0,0,0,0,0,0,0,0,0,0,0,0,0,0,0,0,0,0,0,0,0,0,0,0,0,0,0,-.3,0,0,0,0,0,0,0,0,0,0,0,0,0,0,0,0,0,0,0,0,0,0,0,0,0,0,0,0,0" class="sc_40">as to maximize the total energy production? (See page 980.)</text>
<text x="304" y="952" class="sb_40">12.</text>
<text x="331" y="952" dx="0,0,0,0,0,0,0,0,0,0,0,0,0,0,0,0,0,0,0,0,0,0,0,0,0,0,0,0,0,0,0,0,0,0,0,0,0,0,0,-.6,0,0,0,0,0,0,0,0,0,0,0,0,0,0,0,0,0,0,0,0,0,0,0,0,-.4,0,0,0,0,0,0,0,0,0,0,0,0,0,0,0,0,0" class="sc_40">If a marble, a squash ball, a steel bar, and a lead pipe roll down a slope, which </text>
<text x="331" y="971" class="sc_40">of them reaches the bottom ±rst? (See page 1052.)</text>
<g clip-path="url(#c0_40)">
<path d="M228.5,546.6l1.4,-2.1l-.7,-.5l-1.4,2.1Z" class="g1_40"/>
<path d="M229.1,547l1.4,-2l-.7,-.5l-1.4,2Z" class="g2_40"/>
<path d="M229.7,547.4l1.4,-2l-.7,-.5l-1.4,2Z" class="g3_40"/>
<path d="M230.3,547.9l1.4,-2.1l-.7,-.5l-1.4,2.1Z" class="g4_40"/>
<path d="M230.9,548.3l1.4,-2.1l-.7,-.5l-1.4,2.1Z" class="g5_40"/>
</g>
<g clip-path="url(#c1_40)">
<path d="M220.2,549.3l1.8,-2.5l-.7,-.4l-1.7,2.4Z" class="g1_40"/>
<path d="M221,549.8l1.7,-2.5l-.6,-.4l-1.8,2.4Z" class="g2_40"/>
<path d="M221.7,550.3l1.7,-2.5l-.6,-.5l-1.8,2.5Z" class="g3_40"/>
<path d="M222.4,550.8l1.7,-2.5l-.6,-.5l-1.8,2.5Z" class="g4_40"/>
<path d="M223.1,551.3l1.7,-2.5l-.6,-.5l-1.8,2.5Z" class="g5_40"/>
</g>
<g clip-path="url(#c2_40)">
<path d="M223.8,550.9l1.4,-2l-.7,-.6l-1.5,2.1Z" class="g1_40"/>
<path d="M224.4,551.3l1.4,-2l-.7,-.5l-1.4,2Z" class="g2_40"/>
<path d="M225,551.8l1.4,-2.1l-.7,-.5l-1.5,2.1Z" class="g3_40"/>
<path d="M225.6,552.2l1.4,-2.1l-.7,-.5l-1.4,2.1Z" class="g4_40"/>
<path d="M226.2,552.6l1.4,-2.1l-.7,-.5l-1.4,2.1Z" class="g5_40"/>
</g>
<g clip-path="url(#c3_40)">
<path d="M224.4,555.7l1.5,-2.2l-.4,-.3l-1.6,2.2Z" class="g1_40"/>
<path d="M224.9,556.1l1.6,-2.2l-.5,-.3l-1.6,2.2Z" class="g2_40"/>
<path d="M225.5,556.5l1.6,-2.2l-.5,-.3l-1.6,2.2Z" class="g3_40"/>
<path d="M226.1,556.9l1.5,-2.2l-.4,-.3l-1.6,2.2Z" class="g4_40"/>
<path d="M226.6,557.3l1.6,-2.2l-.5,-.3l-1.5,2.2Z" class="g5_40"/>
</g>
<g clip-path="url(#c4_40)">
<path d="M221.7,553.4l1.4,-2l-.7,-.5l-1.4,2Z" class="g1_40"/>
<path d="M222.3,553.8l1.4,-2l-.7,-.5l-1.4,2Z" class="g2_40"/>
<path d="M222.9,554.3l1.5,-2.1l-.8,-.5l-1.4,2.1Z" class="g3_40"/>
<path d="M223.5,554.7l1.5,-2.1l-.8,-.5l-1.4,2.1Z" class="g4_40"/>
<path d="M224.1,555.1l1.5,-2.1l-.8,-.4l-1.4,2Z" class="g5_40"/>
</g>
<g clip-path="url(#c5_40)">
<path d="M217.3,548.8l1.4,-2.1l-.7,-.4l-1.4,2Z" class="g1_40"/>
<path d="M217.9,549.2l1.4,-2l-.7,-.5l-1.4,2Z" class="g2_40"/>
<path d="M218.5,549.6l1.4,-2l-.7,-.5l-1.4,2.1Z" class="g3_40"/>
<path d="M219.1,550.1l1.4,-2.1l-.7,-.5l-1.4,2.1Z" class="g4_40"/>
<path d="M219.7,550.5l1.4,-2.1l-.7,-.5L219,550Z" class="g5_40"/>
</g>
<g clip-path="url(#c6_40)">
<path d="M219.6,555.5l1.5,-2l-.7,-.5l-1.5,2Z" class="g1_40"/>
<path d="M220.2,556l1.5,-2.1l-.7,-.5l-1.5,2.1Z" class="g2_40"/>
<path d="M220.8,556.4l1.5,-2.1l-.7,-.5l-1.5,2.1Z" class="g3_40"/>
<path d="M221.4,556.8l1.5,-2l-.7,-.6l-1.5,2.1Z" class="g4_40"/>
<path d="M222,557.2l1.5,-2l-.7,-.5l-1.5,2Z" class="g5_40"/>
</g>
<g clip-path="url(#c7_40)">
<path d="M227.2,553.2l1.8,-2.5l-.6,-.4l-1.8,2.5Z" class="g1_40"/>
<path d="M228,553.7l1.7,-2.5l-.6,-.4l-1.8,2.5Z" class="g2_40"/>
<path d="M228.7,554.2l1.7,-2.5l-.6,-.4l-1.8,2.5Z" class="g3_40"/>
<path d="M229.4,554.7l1.7,-2.5l-.6,-.4l-1.8,2.5Z" class="g4_40"/>
<path d="M230.1,555.2l1.7,-2.5l-.6,-.4l-1.8,2.5Z" class="g5_40"/>
</g>
<g clip-path="url(#c8_40)">
<path d="M225,547.5l1.5,-2.1l-.8,-.4l-1.4,2Z" class="g1_40"/>
<path d="M225.6,547.9l1.5,-2l-.7,-.5l-1.5,2Z" class="g2_40"/>
<path d="M226.2,548.4l1.5,-2.1l-.7,-.5l-1.5,2.1Z" class="g3_40"/>
<path d="M226.8,548.8l1.5,-2.1l-.7,-.5l-1.5,2.1Z" class="g4_40"/>
<path d="M227.4,549.2l1.5,-2.1l-.7,-.4l-1.5,2Z" class="g5_40"/>
</g>
<g clip-path="url(#c9_40)">
<path d="M217.8,538.2l1.7,-2.5l-.6,-.4l-1.8,2.4Z" class="g1_40"/>
<path d="M218.5,538.7l1.7,-2.5l-.6,-.4l-1.8,2.4Z" class="g2_40"/>
<path d="M219.2,539.2l1.7,-2.5l-.6,-.5l-1.8,2.5Z" class="g3_40"/>
<path d="M219.9,539.7l1.7,-2.5l-.6,-.5l-1.7,2.5Z" class="g4_40"/>
<path d="M220.6,540.2l1.7,-2.5l-.6,-.5l-1.7,2.5Z" class="g5_40"/>
</g>
<g clip-path="url(#ca_40)">
<path d="M221.3,539.8l1.4,-2l-.7,-.5l-1.4,2Z" class="g1_40"/>
<path d="M221.9,540.3l1.4,-2.1l-.7,-.5l-1.4,2Z" class="g2_40"/>
<path d="M222.5,540.7l1.4,-2.1l-.7,-.5l-1.4,2.1Z" class="g3_40"/>
<path d="M223.1,541.1l1.4,-2.1l-.7,-.5l-1.4,2.1Z" class="g4_40"/>
<path d="M223.7,541.5l1.4,-2.1l-.7,-.4l-1.4,2Z" class="g5_40"/>
</g>
<g clip-path="url(#cb_40)">
<path d="M221.9,544.6l1.4,-2l-.7,-.5l-1.4,2Z" class="g1_40"/>
<path d="M222.4,545l1.5,-2l-.7,-.5l-1.5,2Z" class="g2_40"/>
<path d="M223,545.4l1.5,-2l-.8,-.6l-1.4,2.1Z" class="g3_40"/>
<path d="M223.6,545.8l1.4,-2l-.7,-.6l-1.4,2.1Z" class="g4_40"/>
<path d="M224.1,546.2l1.5,-2.1l-.7,-.5l-1.5,2.1Z" class="g5_40"/>
</g>
<g clip-path="url(#cc_40)">
<path d="M219.2,542.3l1.5,-2l-.8,-.5l-1.4,2Z" class="g1_40"/>
<path d="M219.8,542.8l1.5,-2.1l-.7,-.5l-1.5,2.1Z" class="g2_40"/>
<path d="M220.4,543.2l1.5,-2.1l-.8,-.5l-1.4,2.1Z" class="g3_40"/>
<path d="M221,543.6l1.5,-2.1l-.7,-.5l-1.5,2.1Z" class="g4_40"/>
<path d="M221.6,544l1.5,-2.1l-.7,-.4l-1.5,2Z" class="g5_40"/>
</g>
<g clip-path="url(#cd_40)">
<path d="M217.1,544.4l1.5,-2l-.7,-.5l-1.5,2Z" class="g1_40"/>
<path d="M217.8,544.9l1.4,-2.1l-.7,-.5l-1.5,2.1Z" class="g2_40"/>
<path d="M218.3,545.3l1.5,-2.1l-.7,-.5l-1.5,2.1Z" class="g3_40"/>
<path d="M219,545.7l1.4,-2.1l-.7,-.5l-1.5,2.1Z" class="g4_40"/>
<path d="M219.6,546.1l1.4,-2l-.7,-.5l-1.5,2Z" class="g5_40"/>
</g>
<g clip-path="url(#ce_40)">
<path d="M224.8,542.1l1.7,-2.5l-.6,-.4l-1.8,2.5Z" class="g1_40"/>
<path d="M225.5,542.6l1.7,-2.5l-.6,-.4l-1.8,2.5Z" class="g2_40"/>
<path d="M226.2,543.1l1.7,-2.5l-.6,-.4l-1.8,2.5Z" class="g3_40"/>
<path d="M226.9,543.6l1.7,-2.5l-.6,-.4l-1.7,2.5Z" class="g4_40"/>
<path d="M227.6,544.1l1.7,-2.5l-.6,-.4l-1.7,2.5Z" class="g5_40"/>
</g>
<g clip-path="url(#cf_40)">
<path d="M222.5,536.4l1.5,-2l-.7,-.5l-1.5,2Z" class="g1_40"/>
<path d="M223.1,536.8l1.5,-2l-.7,-.5l-1.5,2Z" class="g2_40"/>
<path d="M223.7,537.3l1.5,-2.1l-.7,-.5l-1.5,2.1Z" class="g3_40"/>
<path d="M224.3,537.7l1.5,-2.1l-.7,-.5l-1.5,2.1Z" class="g4_40"/>
<path d="M225,538.1l1.4,-2l-.7,-.5l-1.5,2Z" class="g5_40"/>
</g>
<g clip-path="url(#cg_40)">
<path d="M213.7,544.5l1.7,-2.5l-.6,-.4L213,544Z" class="g1_40"/>
<path d="M214.4,545l1.7,-2.5l-.6,-.4l-1.7,2.4Z" class="g2_40"/>
<path d="M215.1,545.5l1.7,-2.5l-.6,-.5l-1.7,2.5Z" class="g3_40"/>
<path d="M215.8,546l1.8,-2.5l-.7,-.5l-1.7,2.5Z" class="g4_40"/>
<path d="M216.5,546.5l1.8,-2.5l-.7,-.5l-1.7,2.5Z" class="g5_40"/>
</g>
<g clip-path="url(#ch_40)">
<path d="M212.4,553.3l1.5,-2.1l-.7,-.5l-1.5,2.1Z" class="g1_40"/>
<path d="M213,553.7l1.5,-2.1l-.7,-.5l-1.5,2.1Z" class="g2_40"/>
<path d="M213.6,554.1l1.5,-2l-.7,-.5l-1.5,2Z" class="g3_40"/>
<path d="M214.2,554.6l1.5,-2.1L215,552l-1.5,2Z" class="g4_40"/>
<path d="M214.9,555l1.4,-2.1l-.7,-.5l-1.5,2.1Z" class="g5_40"/>
</g>
<g clip-path="url(#ci_40)">
<path d="M215.9,555.6l1.8,-2.5l-.7,-.5l-1.7,2.5Z" class="g1_40"/>
<path d="M216.7,556.1l1.7,-2.5l-.6,-.5l-1.8,2.5Z" class="g2_40"/>
<path d="M217.4,556.6l1.7,-2.5l-.6,-.5l-1.8,2.5Z" class="g3_40"/>
<path d="M218.1,557.1l1.7,-2.5l-.6,-.5l-1.8,2.5Z" class="g4_40"/>
<path d="M218.8,557.6l1.7,-2.5l-.6,-.5l-1.8,2.5Z" class="g5_40"/>
</g>
<g clip-path="url(#cj_40)">
<path d="M213.7,549.9l1.5,-2.1l-.8,-.5l-1.4,2.1Z" class="g1_40"/>
<path d="M214.3,550.3l1.5,-2.1l-.8,-.4l-1.4,2Z" class="g2_40"/>
<path d="M214.9,550.7l1.5,-2l-.8,-.5l-1.4,2Z" class="g3_40"/>
<path d="M215.5,551.2l1.5,-2.1l-.7,-.5l-1.5,2.1Z" class="g4_40"/>
<path d="M216.1,551.6l1.5,-2.1l-.7,-.5l-1.5,2.1Z" class="g5_40"/>
</g>
<g clip-path="url(#ck_40)">
<path d="M226,535.2l1.5,-2l-.8,-.5l-1.4,2Z" class="g1_40"/>
<path d="M226.6,535.7l1.5,-2.1l-.8,-.5l-1.4,2Z" class="g2_40"/>
<path d="M227.2,536.1l1.4,-2.1l-.7,-.5l-1.4,2.1Z" class="g3_40"/>
<path d="M227.8,536.5l1.4,-2.1l-.7,-.5l-1.4,2.1Z" class="g4_40"/>
<path d="M228.4,536.9l1.4,-2.1l-.7,-.5l-1.4,2.1Z" class="g5_40"/>
</g>
<g clip-path="url(#cl_40)">
<path d="M228.3,542l1.5,-2.1l-.7,-.5l-1.5,2.1Z" class="g1_40"/>
<path d="M229,542.4l1.4,-2.1l-.7,-.5l-1.5,2.1Z" class="g2_40"/>
<path d="M229.6,542.8l1.4,-2.1l-.7,-.5l-1.5,2.1Z" class="g3_40"/>
<path d="M230.2,543.2l1.4,-2l-.7,-.5l-1.4,2Z" class="g4_40"/>
<path d="M230.8,543.7l1.4,-2.1l-.7,-.5l-1.4,2.1Z" class="g5_40"/>
</g>
<text x="53" y="615" class="sd_40">rays from sun</text>
<text x="65" y="669" class="sd_40">observer</text>
<path d="M91.3,656.8l20.6,-20.7" class="g6_40"/>
<path d="M114.3,633.8l-1.9,4.2l-.5,-1.9l-1.9,-.4Z" class="g7_40"/>
<text x="78" y="524" class="sd_40">rays from sun</text>
<path d="M188.8,671.4c0,0,-.3,-100.2,33.6,-125.3c17.5,-12.9,27.5,53.9,27.5,64.2" class="g8_40"/>
<path d="M76.2,530.1l56.8,6.1" class="g9_40"/>
<path d="M137.2,536.7l-5.8,1.5l1.6,-2L131.9,534Z" class="ga_40"/>
<path d="M53.5,622.2l33.7,4.2M133,536.2l130.7,14.7" class="g9_40"/>
<path d="M91.3,626.9l-5.7,1.4l1.6,-1.9l-1.1,-2.3Z" class="ga_40"/>
<path d="M87.2,626.4l162.3,17.2" class="g9_40"/>
<path d="M193.5,667.6c.3,-14.6,2.6,-95.2,28.9,-116.8c15.1,-12.3,23.6,51.2,23.6,61" class="gb_40"/>
<path d="M191.2,669.5c.1,-11.6,1.8,-98.6,31.2,-121.5c16.3,-12.7,25.6,52.8,25.6,62.9" class="gc_40"/>
<text x="156" y="618" class="se_40">42°</text>
<path d="M118.5,629.7L249.9,610.3M118.5,629.7l72.7,39.8" class="gd_40"/>
<path d="M148.3,610.3c4.4,5.3,7,12,7,19.4" class="g6_40"/>
<path d="M146.1,607.8l4.1,2.3l-1.9,.2l-.6,1.9Z" class="g7_40"/>
<path d="M155.3,633l-1.6,-4.4l1.6,1.1l1.7,-1.1Z" class="g7_40"/>
<path d="M235.4,551.1c0,8.3,-6.8,14.9,-15,14.9c-4.4,0,-8.3,-1.9,-11.1,-4.9" class="g6_40"/>
<path d="M235.4,547.8l1.6,4.4l-1.6,-1.1l-1.7,1.1Z" class="g7_40"/>
<path d="M207.1,558.6l4.1,2.2l-1.9,.3l-.5,1.9Z" class="g7_40"/>
<text x="213" y="578" dx="0,-.3,-.3,-.3" class="se_40">138°</text>
<path d="M118.5,629.7L222.4,546.1" class="ge_40"/>
<path d="M116.8,629.7c0,-.9,.7,-1.7,1.7,-1.7c.9,0,1.7,.8,1.7,1.7c0,1,-.8,1.7,-1.7,1.7c-1,0,-1.7,-.7,-1.7,-1.7Z" class="g7_40"/>
<path d="M116.8,629.7c0,-.9,.7,-1.7,1.7,-1.7c.9,0,1.7,.8,1.7,1.7c0,1,-.8,1.7,-1.7,1.7c-1,0,-1.7,-.7,-1.7,-1.7Z" class="gf_40"/>
<text x="53" y="699" dx="0,.3,.3,.3,.3,.3,.1" class="sf_40">FIGURE </text>
<text x="106" y="699" class="sg_40">12</text>
<text x="121" y="1076" class="sh_40">Copyright 2016 Cengage Learning. All Rights Reserved. May not be copied, scanned, or duplicated, in whole or in part. Due to electronic rights, some third party content may be suppressed from the eBook and/or eChapter(s).</text>
<text x="106" y="1087" class="sh_40">Editorial review has deemed that any suppressed content does not materially affect the overall learning experience. Cengage Learning reserves the right to remove additional content at any time if subsequent rights restrictions require it.</text>

</g>

<!-- Any embedded fonts defined here -->
<style type="text/css" ><![CDATA[

@font-face {
	font-family: MathematicalPiLTStd-1_rr;
	src: url("fonts/MathematicalPiLTStd-1_rr.woff") format("woff");
}

@font-face {
	font-family: MathematicalPiLTStd-5_vb;
	src: url("fonts/MathematicalPiLTStd-5_vb.woff") format("woff");
}

@font-face {
	font-family: MyriadPro-BoldSemiCn_90;
	src: url("fonts/MyriadPro-BoldSemiCn_90.woff") format("woff");
}

@font-face {
	font-family: MyriadPro-Bold_74;
	src: url("fonts/MyriadPro-Bold_74.woff") format("woff");
}

@font-face {
	font-family: MyriadPro-Semibold_49;
	src: url("fonts/MyriadPro-Semibold_49.woff") format("woff");
}

@font-face {
	font-family: TECHMath-Mix_113;
	src: url("fonts/TECHMath-Mix_113.woff") format("woff");
}

@font-face {
	font-family: Times-Roman_4n;
	src: url("fonts/Times-Roman_4n.woff") format("woff");
}

@font-face {
	font-family: Times-Roman_n6;
	src: url("fonts/Times-Roman_n6.woff") format("woff");
}

@font-face {
	font-family: TimesLTStd-Italic_o3;
	src: url("fonts/TimesLTStd-Italic_o3.woff") format("woff");
}

@font-face {
	font-family: TimesLTStd-Roman_-s;
	src: url("fonts/TimesLTStd-Roman_-s.woff") format("woff");
}

@font-face {
	font-family: TimesLTStd-Roman_6c;
	src: url("fonts/TimesLTStd-Roman_6c.woff") format("woff");
}

@font-face {
	font-family: UniversalChemicalPi-T_-_;
	src: url("fonts/UniversalChemicalPi-T_-_.woff") format("woff");
}

]]></style>

</svg>
