<?xml version="1.0" encoding="UTF-8" standalone="no"?>
<!DOCTYPE svg PUBLIC "-//W3C//DTD SVG 1.1//EN"
"http://www.w3.org/Graphics/SVG/1.1/DTD/svg11.dtd">


<!-- Page 42 -->
<svg x="0" y="0" width="931" height="1096" viewBox="0 0 931 1096" version="1.1" xmlns="http://www.w3.org/2000/svg" xmlns:xlink="http://www.w3.org/1999/xlink"
style="display: block;margin-left: auto;margin-right: auto;">
<defs>
<clipPath id="c_42"><path d="M0,0H931V1096H0Z"/></clipPath>
<style type="text/css"><![CDATA[
text { white-space: pre; }
path, image { pointer-events: none; }

.s1_42{
font-size: 15.28px;
font-family: MyriadPro-Semibold_49;
fill: #231F20;
}
.s2_42{
font-size: 12.22px;
font-family: MyriadPro-Semibold_49;
fill: #231F20;
}
.s3_42{
font-size: 13.75px;
font-family: MyriadPro-Semibold_49;
fill: #231F20;
}
.s4_42{
font-size: 12.22px;
font-family: MyriadPro-Regular_4i;
fill: #231F20;
}
.s5_42{
font-size: 15.28px;
font-family: TimesLTStd-Roman_-s;
fill: #231F20;
}
.s6_42{
font-size: 15.28px;
font-family: TimesLTStd-Bold_oh;
fill: #231F20;
}
.s7_42{
font-size: 15.28px;
font-family: TimesLTStd-Italic_o3;
fill: #231F20;
}
.s8_42{
font-size: 15.28px;
font-family: MathematicalPiLTStd-5_vb;
fill: #231F20;
}
.s9_42{
font-size: 15.28px;
font-family: MathematicalPi-One-Italic_x2;
fill: #231F20;
}
.sa_42{
font-size: 9.17px;
font-family: TimesLTStd-Roman_-s;
fill: #231F20;
}
.sb_42{
font-size: 15.28px;
font-family: MathematicalPiLTStd-3_ry;
fill: #231F20;
}
.sc_42{
font-size: 15.28px;
font-family: CenturyOldStyle-Italic__q;
fill: #231F20;
}
.sd_42{
font-size: 12.22px;
font-family: TECHMath-Mix_12n;
fill: #231F20;
}
.se_42{
font-size: 12.22px;
font-family: Times-Roman_n6;
fill: #231F20;
}
.sf_42{
font-size: 9.17px;
font-family: Times-Roman_n6;
fill: #231F20;
}
.sg_42{
font-size: 15.28px;
font-family: TimesLTStd-BoldItalic_12r;
fill: #231F20;
}
.sh_42{
font-size: 13.75px;
font-family: TimesLTStd-Roman_-s;
fill: #231F20;
}
.si_42{
font-size: 14.51px;
font-family: MyriadPro-Bold_74;
fill: #231F20;
}
.sj_42{
font-size: 15.28px;
font-family: MyriadPro-Bold_74;
fill: #231F20;
}
.sk_42{
font-size: 7.64px;
font-family: Times-Roman_4n;
fill: #000000;
}

.g0_42{
fill: none;
stroke: #00AEEF;
stroke-width: 0.763;
stroke-linecap: butt;
stroke-linejoin: round;
stroke-miterlimit: 3;
}
.g1_42{
fill: none;
stroke: #231F20;
stroke-width: 0.611;
stroke-linecap: butt;
stroke-linejoin: miter;
stroke-miterlimit: 3;
}
.g2_42{
fill: #231F20;
}
.g3_42{
fill: none;
stroke: #00AEEF;
stroke-width: 0.763;
stroke-linecap: butt;
stroke-linejoin: miter;
stroke-miterlimit: 4;
}
.g4_42{
fill: #E2F4FC;
}
.g5_42{
fill: none;
stroke: #231F20;
stroke-width: 0.763;
stroke-linecap: butt;
stroke-linejoin: miter;
}

]]></style>

</defs>
<g clip-path="url(#c_42)">
<path d="M0,0
L0,1096
L931,1096
L931,0 Z " 
fill="#FFFFFF" stroke="none"/>
<text x="53" y="64" class="s1_42">10</text>
<text x="126" y="64" dx="0,.2,.2,.2,.2,.2,.2,.1" class="s2_42">CHAPTER </text>
<text x="180" y="64" class="s3_42">1</text>
<text x="200" y="64" dx="0,-.3,.1,.1,.3,.1,.1,.1,.1,.1,.1,.1,.1,.1,.1,.2,.1,.1,.1,.1" class="s4_42">Functions and Models</text>
<image preserveAspectRatio="none" x="53" y="97" width="774" height="33" xlink:href="42/img/1.png"/>
<text x="287" y="151" dx="0,0,0,0,0,0,0,0,0,0,.2,0,0,0,0,0,.2,0,0,0,0,-.4,-.2,0,0,.2,0,0,0,.2,0,0,0,0,0,0,0,0,.2,0,0,0,0,0,0,0,.2,0,0,.2,0,0,0,0,0,0,-.8,0,.2,0,0,0,0,0,0,0,0,.2,0,0,0,.2,0,0,0,0,-.4,0,0,0,0,.2,0,0,0,0" class="s5_42">Functions arise whenever one quantity depends on another. ±onsider the following four </text>
<text x="287" y="170" class="s5_42">situations.</text>
<text x="287" y="193" class="s6_42">A.</text>
<text x="313" y="193" dx="0,0,0,0,.1,0,0,0,0" class="s5_42">The area </text>
<text x="371" y="193" class="s7_42">A</text>
<text x="384" y="193" dx="0,0,0,.1,0,.1,0,0,0,0,0,0,.1,0,0,0,0,0,0,0,.1,0,0,.1,0,0,0,.1,0,0,0,0,0,0" class="s5_42">of a circle depends on the radius </text>
<text x="586" y="193" class="s7_42">r</text>
<text x="596" y="193" dx="0,0,0,.1,0,0,0,.1,0,0,0,0,0,0,0,-.2,0,0,0,.1,0,0,0,0,.1,0,0,0,0,.1,0,0,0,0,0,0,0,0" class="s5_42">of the circle. The rule that connects </text>
<text x="817" y="193" class="s7_42">r</text>
<text x="313" y="211" class="s5_42">and </text>
<text x="339" y="211" class="s7_42">A</text>
<text x="351" y="211" dx="0,0,0,-.6,0,-.4,-.2,0,0,-.6,0,0,-.6,0,0,0,-.6,0,0,0,0,0,0,0,0" class="s5_42">is given By the equation </text>
<text x="498" y="211" class="s7_42">A</text>
<text x="512" y="211" class="s8_42">-</text>
<text x="529" y="211" class="s9_42">°</text>
<text x="540" y="211" class="s7_42">r</text>
<text x="548" y="205" class="sa_42">2</text>
<text x="552" y="211" dx="0,0,-1.1,-.6,0,0,0,-.6,0,0,0,0,-.6,0,0,0,0,0,-.4,-.2,0,-.6,0,0,0,0,0,0" class="s5_42">. With each positive numBer </text>
<text x="724" y="211" class="s7_42">r</text>
<text x="733" y="211" dx="0,0,0,0,0,0,-.6,0,0,-.6,0,0,0,0,0,0" class="s5_42">there is associ-</text>
<text x="313" y="229" dx="0,0,0,0,0,0,0,0,0,0,-.4,0,0,0,0,0,0,0" class="s5_42">ated one value of </text>
<text x="422" y="229" class="s7_42">A</text>
<text x="431" y="229" class="s5_42">, and we say that </text>
<text x="538" y="229" class="s7_42">A</text>
<text x="551" y="229" class="s5_42">is a </text>
<text x="576" y="229" class="s7_42">function</text>
<text x="629" y="229" class="s5_42">of </text>
<text x="646" y="229" class="s7_42">r</text>
<text x="652" y="229" class="s5_42">.</text>
<text x="287" y="252" class="s6_42">B.</text>
<text x="313" y="252" dx="0,0,0,0,1,0,0,0,0,0,1,0,0,0,0,0,0,0,0,0,0,1,0,0,1,0,0,0,1,-.2,0,0,0,0" class="s5_42">The human population of the world </text>
<text x="539" y="252" class="s7_42">P</text>
<text x="554" y="252" dx="0,0,0,0,0,0,0,0,1,0,0,1,0,0,0,1,0,0,0,0" class="s5_42">depends on the time </text>
<text x="684" y="252" class="s7_42">t</text>
<text x="689" y="252" dx="0,0,.7,0,0,0,1,0,0,0,0,0,1,0,-.4,-.2,0,0,1,0,0,0,0" class="s5_42">. The taBle gives esti-</text>
<text x="313" y="271" dx="0,0,0,0,0,0,0,0,0,0,0,0,0,0,-.2,0,0,0,0,0,0,0,0,0,0,0,0,0,0,0" class="s5_42">mates of the world population </text>
<text x="500" y="271" class="s7_42">P</text>
<text x="509" y="271" class="sb_42">s</text>
<text x="514" y="271" class="s7_42">t</text>
<text x="518" y="271" class="sb_42">d</text>
<text x="527" y="271" class="s5_42">at time </text>
<text x="573" y="271" class="s7_42">t</text>
<text x="577" y="271" dx="0,0,0,0,0,0,0,0,0,0,0,0,0,0,0,0,0,0,0,0,0,0,-.2,0,0,0,0,0,0,0,0,0,0,0" class="s5_42">, for certain years. For instance,</text>
<text x="475" y="303" class="s7_42">P</text>
<text x="484" y="303" class="sb_42">s</text>
<text x="490" y="303" class="s5_42">1950</text>
<text x="520" y="303" dx="0,4.6" class="sb_42">d&lt;</text>
<text x="547" y="303" class="s5_42">2,560,000,000</text>
<text x="313" y="336" dx="0,0,0,0,.1,0,0,0,.1,0,0,0,0,.1,-.4,0,0,0,0,.1,0,0,.1,0,0,0,.1,0,0,0,0" class="s5_42">³ut for each value of the time </text>
<text x="499" y="336" class="s7_42">t</text>
<text x="507" y="336" dx="0,0,0,0,0,0,.1,0,0,.1,0,.1,0,0,0,0,0,0,0,0,0,0,0,0,0,.1,-.4,0,0,0,0,.1,0,0" class="s5_42">there is a corresponding value of </text>
<text x="711" y="336" class="s7_42">P</text>
<text x="720" y="336" dx="0,0,.1,0,0,0,.1,0,0,.1,0,0,0,.1,0,0,0,0" class="s5_42">, and we say that </text>
<text x="313" y="355" class="s7_42">P</text>
<text x="326" y="355" class="s5_42">is a function of </text>
<text x="422" y="355" class="s7_42">t</text>
<text x="426" y="355" class="s5_42">.</text>
<text x="287" y="378" class="s6_42">C.</text>
<text x="313" y="378" dx="0,0,0,0,1.1,0,0,0,0" class="s5_42">The cost </text>
<text x="371" y="378" class="s7_42">C</text>
<text x="387" y="378" dx="0,0,0,1.1,0,0,0,0,0,0,0,1.1,0,0,1.1,0,-.6,-.2,0,0,0,0,0,1.1,0,0,0,0,0,0,0,1.1,0,0,1.1,0,0,0,1.1,0,0,0,0,0,0" class="s5_42">of mailing an envelope depends on its weight </text>
<text x="676" y="378" class="sc_42">w</text>
<text x="686" y="378" dx="0,0,.3,0,0,0,0,0,0,0,0,1.1,0,0,0,0,0,1.1,0,0,1.1,0,0" class="s5_42">. Although there is no </text>
<text x="313" y="396" dx="0,0,0,0,0,0,0,.6,0,0,0,0,0,0,0,.6,0,0,0,0,.6,0,0,0,0,0,0,0,0" class="s5_42">simple formula that connects </text>
<text x="496" y="396" class="sc_42">w</text>
<text x="511" y="396" class="s5_42">and </text>
<text x="537" y="396" class="s7_42">C</text>
<text x="548" y="396" dx="0,0,.6,0,0,0,.6,0,0,0,0,.6,0,-.4,0,0,0,.6,0,0,0,.6,0,.6,0,0,0,0,.6,0,0,0,.6,0,0,0,0,0,0,0,0,0,0,0" class="s5_42">, the post ofIce has a rule for determining </text>
<text x="812" y="396" class="s7_42">C</text>
<text x="313" y="414" class="s5_42">when </text>
<text x="350" y="414" class="sc_42">w</text>
<text x="364" y="414" dx="0,0,0,0,0,0,-.4,0,0" class="s5_42">is known.</text>
<text x="287" y="437" dx="0,-.3" class="s6_42">D.</text>
<text x="313" y="437" dx="0,0,0,0,.8,-.2,0,0,0,0,0,0,0,.8,0,0,0,0,0,0,0,0,0,0,0,0" class="s5_42">The vertical acceleration </text>
<text x="470" y="437" class="s7_42">a</text>
<text x="482" y="437" dx="0,0,0,.8,0,0,0,.8,0,0,0,0,0,0,.8,0,0,.8,0,0,0,0,0,0,0,0,.8,0,0,.8,0,.8,0,0,0,0,0,0,0,0,0,0,0,.8,0,0,0,0,0,0,.8,0,0" class="s5_42">of the ground as measured By a seismograph during an </text>
<text x="313" y="455" dx="0,0,0,0,0,0,0,0,0,-.2,0,.3,0,0,.3,0,.3,0,0,0,0,0,0,0,0,.3,0,0,.3,0,0,0,.3,0,0,0,0,0,0,0,.3,0,0,0,0" class="s5_42">earthquake is a function of the elapsed time </text>
<text x="585" y="455" class="s7_42">t</text>
<text x="589" y="455" dx="0,0,.3,0,0,0,0,0,0,.3,0,.3,0,0,-.4,0,0,.3,0,.3,0,0,0,0,0,.3,0,0,0,0,0,0,0,0,0,.3,0,0" class="s5_42">. Figure 1 shows a graph generated By </text>
<text x="313" y="474" dx="0,0,0,0,0,0,0,0,.6,0,0,0,-.4,0,0,0,0,.6,0,0,0,0,0,0,.6,0,0,0,.6,0,0,0,0,0,0,0,0,0,0,.6,0,0,0,0,0,0,0,0,-.2,0,.6,0,0,0,0,.6,0,0,0,0,0,.6,0,0,0,-.2,0,0,0,0,0,0,0,.6,0,0,.6,0,0,0,0,0" class="s5_42">seismic activity during the Northridge earthquake that shook Los Angeles in 1994. </text>
<text x="313" y="492" dx="0,-.2,0,0,0,0,0,0,-.4,-.2,0,0,0,-.4,0,0,0,0,0,0,0" class="s5_42">For a given value of </text>
<text x="438" y="492" class="s7_42">t</text>
<text x="443" y="492" dx="0,0,0,0,0,0,0,0,0,0,0,0,0,0,0,-.2,0,0,0,0,0,0,0,0,0,0,0,0,0,0,0,0,0,0,0,0,0,0,-.4,0,0,0,0,0,0,0" class="s5_42">, the graph provides a corresponding value of </text>
<text x="722" y="492" class="s7_42">a</text>
<text x="730" y="492" class="s5_42">.</text>
<path d="M441.8,654.8v-5.2m-.4,6.5l.4,-1.3m-.4,2.6v-1.3m0,-2.6v3.9m0,-11.7v7.8m0,-13.9v6.1m-.4,-3.1l.4,-3m-.4,6.5v-3.5m0,-.4v3.9m0,-2.2v-1.7m-.4,5.6l.4,-3.9m-.4,10.5v-6.6m0,14.4v-7.8m0,6.1v1.7m0,-7.8v6.1m-.4,-8.7l.4,2.6m-.4,-1.7v-.9m0,3.9v-3m0,5.2v-2.2m0,.4v1.8m-.5,-7l.5,5.2m-.5,-9.1v3.9m0,-6.1V647m0,-3.5v1.3m-.4,-3.9l.4,2.6m-.4,-4.4v1.8m0,.4v-2.2m0,8.3v-6.1m0,11.8v-5.7m-.4,6.1l.4,-.4m-.4,-1.8v2.2m0,-2.6v.4m0,-1.7v1.3m-.4,-2.6l.4,1.3m-.4,-1.8v.5m0,.9v-1.4m0,4v-2.6m0,4.3v-1.7m-.4,.4l.4,1.3m-.4,-2.6v1.3m-.5,-2.2l.5,.9m-.5,-1.3v.4m0,0v-.4m0,0v.4m0,-1.3v.9m-.4,-.9h.4m-.4,1.3v-1.3m0,1.8V650m0,-.4v.9m-.4,0l.4,-.9m-.4,0v.9m0,-1.8v.9m0,-1.3v.4m-.4,.5l.4,-.9m-.4,2.2v-1.3m0,1.7v-.4M436,650l.4,.9m-.4,-.4V650m0,-.4v.9m0,-.5v-.4m-.4,.4h.4m-.4,-.4v.4m0,0v-.4m-.5,0l.5,.4m-.5,.5v-.9m0,1.3v-.4m-.4,.4h.4m-.4,-.9v.9m0,-1.3v.4m0,0v-.4m-.4,0l.4,.4m-.4,0v-.4m0,.9V650m0,0v.5m-.4,-.5h.4m-.4,-.4v.4m0,-.8v.4m0,.4v-.8m-.4,1.3l.4,-.5m-.4,.9v-.4m0,0v.4m0,-.9v.5m-.5,-.9l.5,.4m-.5,.9v-1.3m0,.9v.4m0,-1.3v.9m0,-.5v-.4m-.4,.4h.4m-.8,0h.4m-.4,-.4v.4m0,0v-.4m-.4,0l.4,.4m-.4,0v-.4m0,0v.4m0,0v-.4m-.4,.4h.4m-.4,.5V650m0,0v.5m-.4,-.9l.4,.4m-.4,0v-.4m0,0v.4m0,0v-.4m-.5,.4h.5m-.9,0h.4m-.8,0h.4m-.8,0h.4m-.8,0h.4m-.8,0h.4m-.9,0h.5m-.9,0h.4m-.8,0h.4m-.8,0h.4m-.8,0h.4m-.9,0h.5m-.9,0h.4m-.8,0h.4m-.8,0h.4m-.8,0h.4m-.8,0h.4m-.9,0h.5m-.9,0h.4m-.8,0h.4m-.8,0h.4m-.8,0h.4m-.9,0h.5m-.9,0h.4m-.8,0h.4m-.8,0h.4m-.8,0h.4m-.8,0h.4m-.9,0h.5m-.5,.5V650m0,0v.5m-.4,-.5h.4m-.8,0h.4m-.4,-.4v.4m0,0v-.4m-.4,.4h.4m-.8,0h.4m-.9,0h.5m-.9,0h.4m-.8,0h.4m-.8,0h.4m-.8,0h.4m-.8,0h.4m-.9,0h.5m-.9,0h.4m-.8,0h.4m-.8,0h.4m-.8,0h.4m-.9,0h.5m-.9,0h.4m-.8,0h.4m-.8,0h.4m-.8,0h.4m-.8,0h.4m-.9,0h.5m-.9,0h.4m-.8,0h.4m-.8,0h.4m-.8,0h.4m-.8,0h.4m-.9,0h.5m-.5,-.4v.4m-.4,-.4h.4m-.4,.4v-.4m-.4,.4h.4m-.8,0h.4m-.8,0h.4m-.9,0h.5m-.9,0h.4m-.8,0h.4m-.8,0h.4m-.8,0h.4m-.8,0h.4m-.9,0h.5m-.9,0h.4m-.8,0h.4m-.8,0h.4m-.8,0h.4m-.9,0h.5m-.9,0h.4m-.8,0h.4m-.8,0h.4m-.8,0h.4m-.8,0h.4m-.9,0h.5m-.9,0h.4m-.8,0h.4m-.8,0h.4m-.8,0h.4m-.9,0h.5m-.9,0h.4m-.8,0h.4m-.8,0h.4m-.8,0h.4m-.8,0h.4m-.9,0h.5m-.9,0h.4m-.8,0h.4m67.7,10.9v-2.6m-.4,-1.7l.4,4.3m-.4,-8.2v3.9m0,-8.3v4.4m0,-4.9v.5m-.4,1.3l.4,-1.8m-.4,-2.6v4.4m0,0v-4.4m0,14.9V649.6m0,15.3v-4.8m-.4,-1.8l.4,6.6m-.4,-12.7v6.1m0,3.9v-10m0,13.5v-3.5m-.4,-5.6l.4,9.1M459,650v6.6m0,-16.2V650m0,-15.2v5.6m0,5.7V634.8m-.5,20.9l.5,-9.6m-.5,10.5v-.9m0,3.9v-3m0,-1.8v4.8m-.4,-11.8l.4,7m-.4,-2.6v-4.4m0,8.3v-3.9m0,1.3v2.6m0,-7.8v5.2m-.4,-9.6l.4,4.4m-.4,-3.9v-.5m0,-4.8v5.3m-.4,-11.8l.4,6.5m-.4,3.1v-9.6m0,22.2V642.2m0,9.1v3.5m0,-13.5v10m-.4,-12.6l.4,2.6m-.4,10V638.7m0,17.4v-4.8m0,-3v7.8m-.4,-14.8l.4,7m-.4,-5.3v-1.7m0,14V643m0,11.4v.9m0,-5.7v4.8m-.5,-9.6l.5,4.8M456,635.2v9.6m0,-10v.4m0,14V634.8m0,23.5v-9.1m-.4,-2.7l.4,11.8m-.4,-24v12.2m0,-6.5v-5.7m0,21.8V640m-.4,24.9l.4,-8.8m-.4,6.1v2.7m0,-7v4.3m0,-6.1v1.8m0,-5.7v3.9m-.4,-6.9l.4,3m-.4,-4.4v1.4m0,-6.2v4.8m0,-7.4V643m-.4,4.8l.4,-7.4m-.4,10.5v-3.1m0,-2.6v5.7m0,-4.8v-.9m0,7.9v-7m-.5,10l.5,-3m-.5,7v-4m0,8.3v-4.3m-.4,4.3h.4m-.4,-3.9v3.9m0,-14.8v10.9m0,-12.2v1.3m0,7.8v-9.1m-.4,6.5l.4,2.6m-.4,-15.7v13.1m0,-19.6v6.5m0,1.8v-8.3m-.4,16.6l.4,-8.3m-.4,6.5v1.8m0,0V650m0,.9v.9m0,-7.9v7m-.4,-10.5l.4,3.5m-.4,-3v-.5m0,2.2v-1.7m0,10.9v-9.2m0,14v-4.8m-.4,-3.5l.4,8.3m-.4,-17.9v9.6m0,-7.4v-2.2m0,14V640.9m-.5,15.7l.5,-3.9m-.5,.8v3.1m0,-8.3v5.2m0,-.8v-4.4m0,10.9v-6.5m-.4,.4l.4,6.1m-.4,-5.7v-.4m0,.8v-.4m0,-6.5v6.9M450.6,643l.4,4m-.4,-2.2V643m0,4.4v-2.6m0,-.4v3m-.4,-4.4l.4,1.4m-.4,10.9V643m0,22.3v-10m0,14.4v-4.4m-.4,4.4h.4m-.4,-7v7m0,-12.3v5.3m0,-10.5v5.2m0,-12.6v7.4m-.5,-20.5l.5,13.1m-.5,-20.1v7m0,-1.3v-5.7m0,17.5V630.4m-.4,17.4l.4,-5.6m-.4,3.5v2.1m0,1.8v-3.9m0,7.8v-3.9m0,10v-6.1m-.4,10l.4,-3.9m-.4,.5v3.4m0,-6.9v3.5m0,-9.6v6.1m-.4,-7l.4,.9m-.4,4.8v-5.7m0,5.2v.5m0,-8.8v8.3m0,-7.4v-.9m-.4,7.9l.4,-7m-.4,6.5v.5m0,-2.2v1.7m0,-8.2v6.5m0,-9.6v3.1m-.4,5.2l.4,-8.3m-.4,11.3v-3m0,-6.5v9.5m0,-16.5v7m-.5,-4l.5,-3m-.5,7.4v-4.4m0,10.9v-6.5m0,12.6v-6.1m0,4.4v1.7m-.4,-6.5l.4,4.8m-.4,-3.9v-.9m0,2.6v-1.7m0,-3.5v5.2M446,636.1l.4,12.2M446,627.8v8.3m0,-.5v-7.8m0,25.7V635.6m0,21.4v-3.5m-.4,-6.1l.4,9.6m-.4,-10.5v.9m0,1.3v-2.2m0,2.7v-.5m-.4,3.1l.4,-2.6m-.4,-2.7v5.3m0,-7v1.7m0,6.6v-8.3m0,15.3v-7m-.4,9.6l.4,-2.6m-.4,-10.5v13.1m0,-19.7v6.6m-.5,6.1l.5,-12.7m-.5,13.1v-.4m0,-9.2v9.6m0,-10v.4m0,7.9v-8.3m-.4,12.2l.4,-3.9m-.4,-1.7v5.6m0,-12.6v7m0,-10.5v3.5m0,0v-3.5m-.4,7l.4,-3.5m-.4,-4.8v8.3m0,-9.2v.9m0,7.4V640m-.4,10l.4,-1.7m-.4,2.2V650m0,-1.3v1.8m0,-3.1v1.3m0,2.6v-3.9m-.4,12.2l.4,-8.3m-.4,14v-5.7m0,-.4v6.1m0,-13.5v7.4m-.5,-3.9l.5,-3.5m-.5,9.6v-6.1m0,1.7v4.4m0,-18.8V657m0,-24v9.6m-.4,-6.1l.4,-3.5m-.4,10v-6.5m0,13.1V643M479,641.7v10.1M479,640v1.7m-.4,-.8l.4,-.9m-.4,16.1V640.9m0,25.7V656.1m0,10.9v-.4m0,8.7V667m-.4,7.9l.4,.4m-.4,-19.2v18.8m0,-31.9v13.1m0,-14.4V643m-.4,1.8l.4,-3.1m-.4,14.9V644.8m0,20.1v-8.3m0,3v5.3m0,-9.6v4.3m-.4,-1.3l.4,-3m-.4,5.6v-2.6m0,3.1v-.5m0,0v.5m-.5,-4.4l.5,3.9m-.5,-9.6V657m0,-9.2v3.5m0,-1.7v-1.8m0,3.5v-1.7m-.4,2.6l.4,-.9m-.4,5.3v-4.4m0,3.1v1.3m0,-14.9v13.6m0,-34.1v20.5m-.4,-33.6l.4,13.1m-.4,-.8V608.1m0,40.6V620.4m0,47.1V648.7m-.4,19.7l.4,-.9m-.4,-12.2v13.1m0,-15.7v2.6m0,9.1V652.7m0,11.3v.4m-.4,-11.3l.4,10.9m-.4,-25.3v14.4m0,-15.3v.9m0,18.7V637.8m-.5,34.9l.5,-15.3m-.5,5.3v10m0,-29.2v19.2m0,-24.9v5.7m0,4.3v-10m-.4,20.9l.4,-10.9m-.4,4.4v6.5m0,-20.9v14.4m0,-4.8v-9.6m-.4,25.7l.4,-16.1m-.4,12.7v3.4m0,-10.8v7.4m0,-8.8v1.4m0,1.2v-2.6m-.4,-5.2l.4,7.8m-.4,-11.3v3.5m0,-7.4v3.9m0,-14v10.1m-.4,-4.8l.4,-5.3m-.4,14.4v-9.1m0,12.2V643m0,12.3v-9.2m0,6.6v2.6m-.4,-8.3l.4,5.7m-.4,.8V647m0,0v6.5m0,-2.2V647m0,29.2V651.3m-.5,26.2l.5,-1.3m-.5,-17.9v19.2m0,-33.6v14.4m0,-16.6v2.2m-.4,9.6l.4,-11.8m-.4,14.9v-3.1m0,-17v20.1m0,-41.9v21.8m0,-16.1v-5.7m-.4,30.5l.4,-24.8m-.4,43.6V645.2m0,22.3V664m0,-20.5v24m-.4,-45.8l.4,21.8m-.4,-14v-7.8m0,20.5V629.5m0,26.2V642.2m0,23.1v-9.6m-.4,10l.4,-.4m-.4,1.3v-.9m0,-2.6v3.5m0,-16.1v12.6m-.4,-19.6l.4,7m-.4,-3.5v-3.5m0,1.3V647m0,-4v1.8m0,2.6V643m-.5,-2.1l.5,6.5m-.5,-13.5v7m0,-1.3v-5.7m0,14.4v-8.7m-.4,7.4l.4,1.3m-.4,-5.3v4m0,2.2V643m0,14.4v-8.2m0,6.9v1.3m-.4,-1.3h.4m-.4,-.4v.4m0,-5.6v5.2m0,0v-5.2m-.4,8.2l.4,-3m-.4,-5.2v8.2m0,-15.7v7.5m0,-7V643m0,7v-6.5m-.4,9.2l.4,-2.7m-.4,9.6v-6.9m0,11.3v-4.4m0,-6.1V664m0,-10.9v.4m-.5,6.1l.5,-6.5m-.5,3.5v3m0,-7.8v4.8m0,-13.1v8.3m-.4,-16.2l.4,7.9m-.4,-3.1v-4.8m0,14v-9.2m0,-1.3v10.5m0,-14.4v3.9m-.4,15.3l.4,-19.2m-.4,30.5V654.4m0,14.8v-3.5m0,-4.3v7.8m-.4,-28.3l.4,20.5m-.4,-25.8v5.3m0,3.5v-8.8m0,21.4V644.4m0,24V657m-.4,4.4l.4,7m-.4,-19.2v12.2m0,-10.5v-1.7m0,3.9v-2.2m-.4,-2.2l.4,4.4m-.4,-6.1v1.7m0,.5V647m0,3.9v-1.7m0,8.7v-7m-.5,10.5l.5,-3.5m-.5,-.5v4m0,-5.3v1.3m0,-10v8.7m-.4,-11.7l.4,3m-.4,-3.9v.9m0,-3.1v2.2m0,3v-5.2m0,5.7v-.5m-.4,1.3l.4,-.8m-.4,5.7v-4.9m0,2.7v2.2m0,3.9v-6.1m0,14.8v-8.7m-.4,-.9l.4,9.6M464,650v5.7m0,-7.4V650m0,-6.5v4.8m-.4,-7l.4,2.2m-.4,-.5v-1.7m0,9.6V643m0,3.5v4.4m0,-9.2v4.8m-.5,6.2l.5,-11m-.5,16.6v-5.6m0,.4v5.2m0,-10v4.8m-.4,-6.1l.4,1.3m-.4,-4.4V647m0,-6.6v3.5m0,1.8v-5.3m0,8.3v-3m-.4,-1.8l.4,4.8m-.4,-9.6v4.8m0,4.4v-9.2m-.4,16.6l.4,-7.4m-.4,5.2v2.2m0,-6.1v3.9m0,-3.5v-.4m0,2.6V650m-.4,-2.2l.4,4.4m-.4,-11.3v6.9m0,-3v-3.9m0,13v-9.1m-.4,12.2l.4,-3.1m-.4,1.4V657m0,-7.8v6.1m0,-10.1v4m0,-4.4v.4m-.5,-4.3l.5,3.9m-.5,4.4v-8.3m0,17.4v-9.1M497.4,664v11.8m0,-46.7V664m0,-62.4v27.5m0,-48v20.5M497,580.7l.4,.4m-.4,33.6v-34m0,43.6v-9.6m0,6.5v3.1m0,8.3V621.2m-.4,9.6l.4,1.8m-.4,-5.7v3.9m0,20.5V626.9m0,29.2v-4.8m-.4,7.4l.4,-2.6m-.4,9.6v-7m0,11.4v-4.4m0,.9v3.5m0,-13.5v10m-.5,-20.5l.5,10.5m-.5,-17v6.5m0,-3.9v-2.6m0,6.5v-3.9m-.4,9.1l.4,-5.2m-.4,12.2v-7m0,11.8v-4.8m0,12.2v-7.4m0,26.2V670.5m-.4,40.6l.4,-21.8m-.4,24.4v-2.6m0,-14v16.6m0,-37.1v20.5m-.4,-46.6l.4,26.1m-.4,-47.5v21.4m0,-27.5v6.1m0,-14.4V623m0,-18.8v10.5m-.4,-.9l.4,-9.6m-.4,25.3V613.8m0,22.7v-7m0,2.6v4.4m-.4,-9.6l.4,5.2m-.4,4v-9.2m0,24.9V636.1m0,32.7v-17m0,28.8V668.8m-.5,1.3l.5,10.5m-.5,-28.8v18.3m0,-26.2v7.9m0,-3.5v-4.4m0,7v-2.6m-.4,-5.3l.4,7.9m-.4,-7.4V643m0,15.7V643.5m0,28.8V658.7m-.4,12.7l.4,.9m-.4,-12.2v11.3m0,-21.8v10.5m0,-24.5v14m0,-24v10m-.4,1.8l.4,-11.8m-.4,20.1v-8.3m0,-2.2v10.5m0,-11.4v.9m-.4,10l.4,-10.9m-.4,17v-6.1m0,17.5V651.3m0,21v-9.6m0,-5.7v15.3m-.4,-41.9l.4,26.6m-.4,-40.1v13.5m0,-8.7v-4.8m0,32.3V621.7m-.5,63.7l.5,-36.2m-.5,48.8V685.4m0,5.6v7m0,-10v3m0,-19.6V688m-.4,-48.9l.4,32.3m-.4,-49.7v17.4m0,-13.1v-4.3m0,20V626m-.4,25.8l.4,-10.1m-.4,24.9V651.8m0,24.8v-10m0,-.9v10.9m0,-13.1v2.2m-.4,.9l.4,-3.1m-.4,-5.2v8.3m0,-24.4v16.1m0,-30.1v14m-.4,-10.5l.4,-3.5m-.4,14.4V631.7m0,13.1v-2.2m0,9.2v-7m0,10.5v-3.5m-.5,-13.6l.5,17.1m-.5,-31v13.9m0,-21.3v7.4m0,-17.9v10.5m0,-13.1v2.6m-.4,15.7l.4,-18.3m-.4,52.8V622.1m0,56.7V656.6m0,17.9v4.3m-.4,-15.3l.4,11m-.4,-6.6v-4.4m0,-4.3v8.7m0,-28.8v20.1m-.4,-31l.4,10.9m-.4,-.4V628.2m0,28.4V638.7m0,22.7v-4.8M487,664l.4,-2.6m-.4,8.3V664m0,4.4v1.3m0,-.9v-.4m0,2.1v-1.7m-.4,-3.9l.4,5.6m-.4,-14.4v8.8m0,-14.4v5.6m0,-3.9v-1.7m-.5,11.3l.5,-9.6m-.5,17v-7.4m0,3.5v3.9m0,-15.7v11.8m0,-30.1v18.3m-.4,-33.6l.4,15.3m-.4,-4.4V619.9m0,28.4V630.8m0,24.9v-7.4m-.4,10l.4,-2.6m-.4,-7.4v10m0,-26.2v16.2m0,-30.6v14.4m0,-20v5.6m-.4,2.2l.4,-7.8m-.4,18.7V619.9m0,17v-6.1m0,14v-7.9m0,16.2v-8.3m-.4,15.3l.4,-7m-.4,14.4v-7.4m0,11.7v-4.3m0,-1.8v6.1M484,650.5l.5,15.2M484,636.1v14.4m0,-12.3v-2.1m0,16.1v-14m0,19.7v-5.7m-.4,9.6l.4,-3.9m-.4,3.5v.4m0,-3.5v3.1m0,13.5V658.3m-.4,31.9l.4,-15.3m-.4,4.8v10.5m0,-35.4v24.9m0,-49.7v24.8m0,-28.3V630m-.4,4.3l.4,-7.8m-.4,13.1v-5.3m0,7v-1.7m0,3v-1.3m-.4,5.7l.4,-4.4m-.4,-2.6v7m0,-12.2V640m0,0v-5.2m0,17.4V640m-.4,15.7l.4,-3.5m-.4,-8.3v11.8m0,-13.5v1.7m0,.9v-2.6m-.5,1.3l.5,1.3m-.5,-5.2v3.9m0,-8.3v4.4m0,-3.1v-1.3m0,8.7v-7.4m-.4,20.5l.4,-13.1m-.4,14V657m0,-13.5v14.4m0,-2.2V643.5m-.4,7.8l.4,4.4m-.4,-21.8v17.4m0,-22.2v4.8m0,13.1V629.1m-.4,33.1l.4,-15.2m-.4,18.3v-3.1m0,-2.6v5.7m0,-10.5v4.8m0,-7.4v2.6m-.4,-7.4l.4,4.8m-.4,-4.4v-.4m0,-3v3.4m0,-3.9v.5m-.5,-2.7l.5,2.2m-.5,-11.3v9.1m0,-12.2v3.1m0,10.4V629.5m0,29.2V643m-.4,17.9l.4,-2.2m-.4,-6.9v9.1m37.2,-22.2v7.4m-.4,-15.3l.4,7.9m-.4,-16.2v8.3m0,-7.4v-.9m0,3.5v-2.6m0,-1.7V626m-.4,-14.4l.4,10.1m-.4,-27.9v17.8m0,13.6V593.8m-.4,71.9l.4,-40.5m-.4,71.1V665.7m0,41V696.3m0,-2.6v13m0,-35.3v22.3m-.4,-25.3l.4,3m-.4,0v-3m0,-7.5v10.5m0,-13.1v2.6m-.5,4.8l.5,-7.4m-.5,5.2v2.2m0,1.3v-3.5m0,11.4V667m0,6.2v1.7m-.4,-7.9l.4,6.2m-.4,-13.6V667m0,-10.4v3m0,2.6v-5.6m0,14.8v-9.2m-.4,12.3l.4,-3.1m-.4,-3.9v7m0,-15.8v8.8m0,-17v8.2m-.4,-17.8l.4,9.6M512.9,640v.9m0,-1.8v.9m0,-10.5v9.6m0,-13.1v3.5m-.4,-3.9l.4,.4m-.4,-6.9v6.5m0,-13.5v7m0,-3.1v-3.9m-.4,14.4l.4,-10.5m-.4,16.1v-5.6m0,6.9v-1.3m0,-5.2v6.5m0,-7.4v.9m-.5,11.3l.5,-12.2m-.5,27.9V638.2m0,30.6V653.9m0,21.4v-6.5m-.4,-5.3l.4,11.8m-.4,-27v15.2m0,-27.9v12.7m0,-20.1v7.4m0,-5.2v-2.2m-.4,9.2l.4,-7m-.4,14v-7m0,16.1v-9.1m0,19.1v-10m-.4,18.8l.4,-8.8m-.4,26.7V672.3m0,28.8V690.2m0,4.3v6.6m0,-24v17.4M510,656.6l.4,20.5M510,649.6v7m0,-1.8v-5.2m0,19.6V654.8m-.5,21l.5,-6.6m-.5,-8.7v15.3m0,-32.8v17.5m0,-28.4V643m0,-14.8v3.9m-.4,7l.4,-10.9m-.4,28.4V639.1m0,30.6V656.6m0,21.8v-8.7m0,6.5v2.2m-.4,-8.7l.4,6.5m-.4,-13.1v6.6m0,-14v7.4m0,-4.8v-2.6m-.4,4.8l.4,-2.2m-.4,-10.9v13.1m0,-19.2v6.1m0,3.1v-9.2m0,14.4v-5.2m-.4,7.4l.4,-2.2m-.4,-7v9.2m0,-39.3v30.1m0,-50.6v20.5m-.4,-23.1l.4,2.6m-.4,2.6v-5.2m0,16.1V600.7m0,15.3v-4.4m0,5.7V616m-.5,3.1l.5,-1.8m-.5,7.4v-5.6m0,22.6v-17m0,25.8v-8.8m-.4,3.5l.4,5.3m-.4,-10.1v4.8m0,-2.2v-2.6m0,17V643m0,29.3V657.4m-.4,17.5l.4,-2.6m-.4,-5.3v7.9m0,-17V667m0,-17.4v8.3m-.4,-9.2l.4,.9m-.4,7.4v-8.3m0,22.7V657m0,22.7v-8.3m0,4.4v3.9m-.4,-7.4l.4,3.5m-.4,6.1v-9.6m0,18.7v-9.1m0,-5.7V691m0,-28.8v14m-.5,-15.3l.5,1.3m-.5,4.4v-5.7m0,19.7v-14m0,17v-3m-.4,-25.3l.4,28.3M504.5,616v39.3m0,-53.7V616m0,-7v-7.4m0,13.1V609m-.4,8.7l.4,-3m-.4,7.4v-4.4m0,3.1v1.3m0,10V620.8m-.4,38.4l.4,-27.1m-.4,45V659.2m0,17v.9m0,-13.6v12.7m0,-24.4v11.7m-.4,-23.1l.4,11.4m-.4,-24.9v13.5m0,-20.5v7m0,-15.7v8.7m-.4,-24.8l.4,16.1m-.4,-16.6v.5m0,10V594.6m0,23.6V605.1m0,37.1v-24m-.5,44l.5,-20m-.5,37.1V662.2m0,47.2V679.3m0,50.1v-20m-.4,13.1l.4,6.9M502,703.3v19.2m0,-39.8v20.6m0,-30.6v10m0,-7.4v-2.6m-.4,12.7l.4,-10.1m-.4,21.4V685.4m0,6.1v5.2m0,-39.3v34.1m0,-83.8v49.7M501.2,578l.4,29.7m-.4,-12.2V578m0,50.6V595.5m0,57.6V628.6m-.4,43.7l.4,-19.2m-.4,21.8v-2.6m0,1.3v1.3m0,2.6v-3.9m0,11.3v-7.4m-.5,11.8l.5,-4.4m-.5,-9.1v13.5m0,-34v20.5m0,-35.4v14.9m-.4,-44.1l.4,29.2m-.4,-58v28.8m0,-24v-4.8m0,15.7V587.2m0,12.2v-1.3m-.4,5.2l.4,-3.9m-.4,8.3v-4.4m0,9.2v-4.8m0,8.7v-3.9m-.4,19.2l.4,-15.3m-.4,37.5V631.7m0,31.8v-9.6m0,.5v9.1m0,-21.3v12.2m-.4,-9.2l.4,-3m-.4,11.3v-8.3m0,1.8v6.5m-.4,-8.7l.4,2.2m-.4,10V644.8m0,32.7V657m0,41.9V677.5m0,38V698.9m-.5,14.8l.5,1.8m-.5,-10.9v9.1m0,-20v10.9m0,-18.8v7.9m-.4,-17.9l.4,10M535,657.9v-6.6m0,1.8v4.8M535,643v10.1m-.4,-16.6l.4,6.5m-.4,-3.9v-2.6m0,6.1v-3.5m0,7v-3.5m-.4,6.6l.4,-3.1m-.4,4.4v-1.3m0,4.7v-3.4m0,6.1v-2.7m0,.5v2.2m-.4,-10.9l.4,8.7m-.4,-15.3v6.6m0,-.5v-6.1m0,21.8V645.2m-.4,28.8l.4,-13.1m-.4,20.1v-7m0,11.4V681m0,-.9v5.3m0,-20.1v14.8m-.5,-25.3l.5,10.5m-.5,-12.2v1.7m0,-3.9v2.2m-.4,-4.4l.4,2.2m-.4,-16.1v13.9m0,-30.5v16.6m0,-20.5v3.9m-.4,-5.3l.4,1.4m-.4,.8v-2.2m0,11v-8.8m0,24.9V623.9m-.4,29.2l.4,-13.1m-.4,19.6v-6.5m0,14.4v-7.9m0,7.4v.5m0,-14V667m-.4,-27l.4,13.5m-.4,-22.2V640m0,5.7V631.3m-.4,33.6l.4,-19.2m-.4,26.1v-6.9m0,.4v6.5m0,-18.7v12.2m-.5,-17.9l.5,5.7m-.5,-3.1v-2.6m0,8.7V650m0,18.4V656.1m0,24V668.4m-.4,4.8l.4,6.9m-.4,-17v10.1m0,-5.7v-4.4m0,8.3v-3.9m-.4,-3.1l.4,7m-.4,-11.8v4.8m0,-3.5v-1.3m0,3.5v-2.2m0,-5.6v7.8m-.4,-27.9l.4,20.1m-.4,-31.9v11.8m0,-6.1v-5.7m0,15.7v-10m-.4,11.3l.4,-1.3m-.4,-4.8v6.1m0,-12.2v6.1m0,-7.8v1.7m0,17.9V626.5m-.4,48l.4,-28.4m-.4,28.8v-.4m0,-19.2v19.6m0,-40.6v21m-.5,-33.2l.5,12.2m-.5,-14.4v2.2m0,1.3v-3.5m0,14.4V623.4m0,21.8V634.3m-.4,16.6l.4,-5.7m-.4,12.7v-7m0,15.7v-8.7m0,5.2v3.5m-.4,-8.7l.4,5.2m-.4,3.1v-8.3m0,14.4v-6.1m0,3.9v2.2m0,1.7v-3.9m-.4,15.3l.4,-11.4m-.4,20.5v-9.1m0,16.1v-7m0,5.3v1.7m-.4,-7.4l.4,5.7M526.3,678v16.1m0,-49.7V678m0,-62.9v29.3m0,-41.9v12.6m-.5,-11.8l.5,-.8m-.5,16.6V603.3m0,27.1V619.1m0,4.3v7m0,-7.4v.4m-.4,20.1l.4,-20.5m-.4,50.6V643.5m0,55.4V673.6m0,25.7v-.4M525,677.5l.4,21.8m-.4,-41v19.2m0,-23.1v3.9m0,1.8v-5.7m-.4,-3.9l.4,9.6m-.4,-22.3v12.7m0,-25.8v13.1m0,-23.5v10.4m-.4,-9.1l.4,-1.3m-.4,5.2v-3.9m0,-2.7v6.6m0,-17.5v10.9m0,-9.6V602m-.4,25.8l.4,-24.5m-.4,57.2V627.8m0,56.3V660.5m0,28.8v-5.2m-.5,1.7l.5,3.5m-.5,-1.3v-2.2m0,7.4V688m0,.4v4.8m0,-15.7v10.9m-.4,-24.9l.4,14m-.4,-34v20m0,-37.5v17.5m0,-28.8V626m-.4,-15.2l.4,3.9m-.4,-8.7v4.8m0,-5.3v.5m0,5.6v-6.1m-.4,12.2l.4,-6.1m-.4,11.4v-5.3m0,14V623m0,17.9v-9.2m0,18.3v-9.1m-.4,17l.4,-7.9m-.4,10.1v-2.2m0,-1.3v3.5m0,2.1v-5.6m-.5,10l.5,-4.4m-.5,-5.6v10m0,-31.8v21.8m0,-46.3v24.5m0,-27.1v2.6m-.4,20.5l.4,-23.1m-.4,55V630.8m0,57.2V662.7m0,42.3V688m-.4,27.9l.4,-10.9m-.4,7v3.9m0,-21.4V712m0,-31v13.5m0,-27V681M520,648.7l.4,18.8M520,649.6v-.9m0,14.4V649.6m0,17v-3.5m-.4,1.3l.4,2.2m-.4,-13.5v11.3m0,-24v12.7m0,-18.3v5.6m0,-14.4v8.8m-.4,-11.4l.4,2.6m-.4,4.8v-7.4m0,5.7v1.7m0,-10.4v8.7m-.5,-15.7l.5,7m-.5,-1.3v-5.7m0,29.6V619.1m0,45.3V643m0,24.5v-3.1m-.4,-7.8l.4,10.9m-.4,-17v6.1m0,-1.8v-4.3m0,9.1v-4.8m-.4,13.6l.4,-8.8m-.4,13.6v-4.8m0,3v1.8m0,3.9v-5.7m0,6.1v-.4m-.4,-10.5l.4,10.9m-.4,-19.2v8.3m0,-12.7v4.4m0,-13.9v9.5m0,-17.4v7.9m-.4,-6.2l.4,-1.7m-.4,10.9v-9.2m0,17.9v-8.7m0,2.6v6.1m-.5,-21.3l.5,15.2m-.5,-21.8v6.6m0,0v-6.6m0,13.5v-6.9m0,2.6v4.3m-.4,-5.6l.4,1.3m-.4,7.8v-9.1m0,10v-.9m37.6,-47.5v7.8m0,-18.3v10.5m-.4,-11.8l.4,1.3m-.4,7v-8.3m0,21.4V594.2m0,28.8V607.3m-.4,21.3l.4,-5.6m-.4,1.3v4.3m0,-11.3v7m0,-8.7v1.7m0,1.8v-3.5m-.4,4.3l.4,-.8m-.4,-.9v1.7m0,-2.2v.5m0,-1.8v1.3m-.4,-2.1l.4,.8m-.4,4.4v-5.2m0,19.2v-14m0,33.6V634.8m0,43.6v-24m-.4,48.4l.4,-24.4m-.4,36.2V702.8m0,7.4v4.4m0,-14.4v10m-.5,-20l.5,10m-.5,-6.5v-3.5m0,6.9v-3.4m0,-9.2v12.6m0,-23.9v11.3m-.4,-16.6l.4,5.3m-.4,-6.2v.9m0,-3.9v3m0,.9V664m0,18.7V667.9m-.4,24l.4,-9.2m-.4,9.6v-.4m0,-2.6v3m0,-8.2v5.2M550.1,678l.4,6.1m-.4,-15.3V678m0,-21v11.8m0,-34.5V657m0,-54.1v31.4M549.7,568l.4,34.9m-.4,-59.3V568m0,-37.3v12.9m0,1.7V530.7m-.4,21.2l.4,-6.6m-.4,21.8V551.9m0,30.1V567.1m0,21.8V582m0,15.2v-8.3m-.5,24.5l.5,-16.2m-.5,31V613.4m0,29.2V628.2m0,29.2V642.6m-.4,22.3l.4,-7.5m-.4,11.4v-3.9m0,8.7v-4.8m0,10.5v-5.7m0,9.6v-3.9m-.4,16.1l.4,-12.2M548,712V695.4m0,23.1V712m0,3.9v2.6m-.4,-5.2l.4,2.6m-.4,-6.5v3.9m0,-13.1v9.2m0,-10.1v.9m0,4.8v-5.7m-.4,4l.4,1.7m-.4,-10v8.3m0,-22.7V695m0,-30.1v15.7m-.5,-29.7l.5,14m-.5,-20.1v6.1m0,-20.9v14.8m0,-34.5V630m0,-27.1v7.4m-.4,-4.3l.4,-3.1m-.4,1.3V606m0,-6.1v4.3m0,-6.5v2.2m-.4,19.2l.4,-21.4m-.4,50.6V619.1m0,47.9V648.3m-.4,2.2l.4,16.5m-.4,-35.7v19.2m0,-23.6v4.4m0,5.6v-10m0,22.3V636.9m-.4,21.4l.4,-9.1m-.4,12.6v-3.5m0,-5.6v9.1m0,-27.5v18.4m-.4,-30.6l.4,12.2m-.4,-16.6v4.4m0,-8.3v3.9m0,-3v-.9m0,1.3v-.4m-.5,-4.8l.5,5.2m-.5,3.1v-8.3m0,20.1V618.2m0,20.9V630m-.4,17.4l.4,-8.3m-.4,11.8v-3.5m0,16.6V650.9m0,41.4V664m0,53.2V692.3m-.4,31.9l.4,-7m-.4,-3.5v10.5m0,-24.4v13.9m0,-16.6v2.7m-.4,6.1l.4,-8.8M543,708v-2.1m0,-11.4V708m0,-38.8v25.3m0,-55.4v30.1m-.4,-59.8l.4,29.7m-.4,-15.7v-14m0,13.6v.4m0,17.9V623m-.5,39.7l.5,-21.4m-.5,41.9V662.7m0,32.7V683.2m0,16.1v-3.9m-.4,10l.4,-6.1m-.4,-4.8v10.9m0,-31.4v20.5m0,-45.8V674m0,-48.8v23.5m-.4,-31l.4,7.5m-.4,-2.7v-4.8m0,-1.7v6.5m0,-26.1V616m-.4,-30.1l.4,10.5m-.4,-7.5v-3m0,20.1V588.9m0,48.5V606m0,54.5V637.4m-.4,25.7l.4,-2.6m-.4,.9v1.7m0,-3v1.3m0,-12.2v10.9m-.4,-24.9l.4,14m-.4,-11.8v-2.2m0,10v-7.8m0,11.3v-3.5m0,7.9v-4.4m-.5,2.2l.5,2.2m-.5,-11.4v9.2m0,-4.4v-4.8m0,14.4v-9.6m-.4,-.4l.4,10m-.4,-26.6v16.6m0,-21.4v4.8m0,2.2v-7m0,14.9v-7.9m-.4,-1.3l.4,9.2m-.4,-26.2v17m0,-5.7V613.4m0,48.4V624.7m-.4,71.6l.4,-34.5m-.4,41.9v-7.4m0,-4v11.4m0,-21.4v10m0,-20v10M538,667.9l.4,4.4m-.4,-7.9v3.5m0,-9.2v5.7M538,650v8.7m0,-12.2V650m-.5,6.6l.5,-10.1m-.5,24V656.6m0,19.2v-5.3m0,-3.9v9.2m-.4,-30.1l.4,20.9m-.4,-41.9v21m0,-22.3v1.3m0,11.8V623.4m0,29.7V636.5m-.4,20.5l.4,-3.9M536.7,640v17m0,-26.2V640m0,-5.2v-4m-.4,14.9l.4,-10.9m-.4,25.7V645.7m0,18.3v-3.5m0,.9V664m0,-5.7v3.1m-.4,-5.7l.4,2.6m-.4,-4.4v1.8m0,3.9v-5.7m0,2.7v3m-.4,-25.7l.4,22.7m-.4,-41v18.3m0,-18.8v.5m0,8.3v-8.8m0,21.8v-13m-.5,27.4l.5,-14.4m37.2,14.9V650m-.5,5.3l.5,-3.5m-.5,4.3v-.8m0,-5.7v6.5m0,-19.2v12.7M571.8,626l.4,10.9m-.4,-15.7V626m0,-3v-1.8m0,6.6V623m0,5.6v-.8m-.4,1.3l.4,-.5m-.4,4.8v-4.3m0,10.9v-6.6m0,16.2V640m0,14.8v-5.2m-.4,3.5l.4,1.7m-.4,-5.2v3.5m0,-4.4v.9m0,-2.2v1.3m-.4,-4.8l.4,3.5m-.4,-5.7v2.2m0,-.9v-1.3m0,3.1V643m0,-3.4v5.2m-.4,-16.6l.4,11.4m-.4,-19.2v7.8m0,-10.5v2.7m0,-2.2v-.5m-.5,7.5l.5,-7m-.5,15.2v-8.2m0,12.6v-4.4m0,7v-2.6m0,7.4v-4.8m-.4,11.8l.4,-7m-.4,15.7v-8.7m0,21.8V660.9m0,26.2V674m-.4,16.6l.4,-3.5m-.4,-6.1v9.6m0,-17.4V681m0,-2.6v-5.2m0,13.9v-8.7m-.4,6.5l.4,2.2M568.5,674v10.9m0,-17.9v7m0,-10.5V667m-.4,-10l.4,6.5m-.4,-10.8V657m0,-.4v-3.9m0,8.7v-4.8m0,7.4v-2.6m-.5,4.8l.5,-2.2m-.5,1.3v.9m0,-5.7v4.8m0,-10v5.2m-.4,-9.6l.4,4.4m-.4,-10.5v6.1m0,-7.4v1.3m0,8.3v-9.6m0,17.9v-8.3m-.4,8.7l.4,-.4m-.4,-1.8v2.2m0,-5.2v3m0,-3.5v.5m0,.8v-1.3m-.4,5.3l.4,-4m-.4,8.3v-4.3m0,-.9v5.2m0,-17v11.8M566,640.4l.4,8.3M566,636.1v4.3m0,-5.6v1.3m0,1.7v-3m0,8.2v-5.2m-.4,10.5L566,643m-.4,4.4v.9m0,-11.4v10.5m0,-23.5v13m-.5,-22.6l.5,9.6m-.5,-14v4.4m0,0v-4.4m0,15.3V614.3m0,19.6v-8.7m-.4,9.1l.4,-.4m-.4,1.7v-1.3m0,6.6v-5.3m0,13.6v-8.3m-.4,19.6l.4,-11.3m-.4,24V660.5m0,20.1v-7.4m0,10v-2.6m0,5.6v-3m-.4,1.7l.4,1.3m-.4,-11.7v10.4m0,-22.2v11.8m0,-17.9v6.1m-.4,-10.5l.4,4.4m-.4,-9.6v5.2m0,.5V647m0,6.1v-.4M563,642.6l.5,10.5M563,631.7v10.9m0,-14v3.1m0,-.4v-2.7m0,3.5v-.8m-.4,-.9l.4,1.7m-.4,-.8v-.9m0,4.8v-3.9m0,10.4v-6.5m-.4,13.5l.4,-7m-.4,14v-7m0,10v-3m0,1.7v1.3m-.4,-6.5l.4,5.2m-.4,-13v7.8m0,-14.4v6.6m0,-7.5v.9m-.4,1.3l.4,-2.2m-.4,9.6v-7.4m0,17v-9.6m0,13.1v-3.5m0,1.8v1.7m-.4,-6.5l.4,4.8m-.4,-8.7v3.9M561,643v6.2m0,-12.3V643m-.5,-7.4l.5,1.3m-.5,5.3v-6.6m0,19.2V642.2m0,20.9v-8.3m0,6.1v2.2m-.4,-8.7l.4,6.5m-.4,-16.5v10m0,-20.1v10.1m0,-12.7v2.6m-.4,2.2l.4,-4.8m-.4,7.9v-3.1m0,3.9v-.8m0,-1.4v2.2m-.4,8.8l.4,-11m-.4,28.4V649.2m0,35.3V666.6m0,32.7V684.5m-.4,25.7l.4,-10.9m-.4,13.1v-2.2m0,-1.3v3.5m0,-2.2v-1.3m0,7.4v-6.1m-.5,3.5l.5,2.6m-.5,-14.8v12.2m0,-30.5v18.3m0,-39.7v21.4m0,-41v19.6M558,628.6l.4,13.6M558,620.8v7.8m0,-13.5v5.7m0,-3.1v-2.6m-.4,9.6l.4,-7m-.4,4.8v2.2m0,-16.1v13.9m0,-27v13.1m0,-16.2v3.1m-.4,-4.4l.4,1.3m-.4,-4.3v3m0,.5v-3.5m0,16.5v-13m-.4,22.7l.4,-9.7m-.4,14.5v-4.8m0,12.6v-7.8m0,20.9V626.9m0,29.7V640m-.4,33.6l.4,-17m-.4,26.1v-9.1m0,7.8v1.3m0,-2.6v1.3m-.5,.9l.5,-2.2m-.5,1.8v.4m0,1.8v-2.2m0,10.9v-8.7m0,21.8V692.8m-.4,18.7l.4,-5.6m-.4,-2.2v7.8m0,-15.7v7.9m0,-13.1v5.2m-.4,-10.9l.4,5.7m-.4,0v-5.7m0,10.5v-4.8m0,3.9v.9m-.4,-7.9l.4,7m-.4,-14.4v7.4m0,-13.9v6.5m0,-17v10.5m0,-25.8v15.3m-.4,-32.7l.4,17.4M554.3,609v21.4m0,-34.5V609m0,-10v-3.1m-.5,9.6l.5,-6.5m-.5,9.1v-2.6m0,0v2.6m37.7,55v-5.7m0,7v-1.3m0,-1.3v2.6m-.4,-3.5l.4,.9m-.4,-.4v-.5m0,4v-3.5m0,6.1v-2.6m0,0v2.6m-.5,-5.7l.5,3.1m-.5,-7v3.9m0,-10.5v6.6m0,-16.6v10m-.4,-19.6l.4,9.6m-.4,-14.8v5.2m0,-2.6v-2.6m0,10.9v-8.3m0,18.3v-10m-.4,18.3l.4,-8.3m-.4,14.4v-6.1m0,8.7v-2.6m0,-1.7v4.3m-.4,-10.9l.4,6.6m-.4,-11.4v4.8m0,-7.8v3m0,-4.3v1.3m0,.8v-2.1m-.4,6.1l.4,-4m-.4,4.4v-.4m0,-4.8v5.2m0,-13.1v7.9m-.5,-12.3l.5,4.4m-.5,-3v-1.4m0,4.4v-3m0,5.2v-2.2m0,2.6V640m-.4,2.6l.4,-2.2m-.4,9.2v-7m0,15.7v-8.7m0,12.6v-3.9m-.4,3.9h.4m-.4,-4.3v4.3m0,-13v8.7m0,-17v8.3m0,-11.4v3.1m-.4,-2.2l.4,-.9m-.4,4.4v-3.5m0,9.6v-6.1m0,10.9v-4.8m0,10.4v-5.6m-.4,11.8l.4,-6.2m-.4,9.7v-3.5m0,5.6v-2.1m0,3.9v-1.8m-.4,-.8l.4,2.6m-.4,-7v4.4m0,-8.3v3.9m0,-8.3v4.4m0,-12.7V657M586,638.7l.5,10M586,632.1v6.6m0,-8.7v2.1m0,-.4V630m-.4,5.6l.4,-3.9m-.4,7v-3.1m0,3.5v-.4m0,6.5v-6.1m-.4,10.9l.4,-4.8m-.4,7V650m0,1.8v.4m0,-3.9v3.5m-.4,-9.2l.4,5.7m-.4,-7.4v1.7m0,1.3v-3m0,2.1v.9m0,-3.5V643m-.4,-2.6h.4m-.4,.5v-.5m0,-1.7v2.2m-.5,-6.6l.5,4.4m-.5,-7.9v3.5m0,-3v-.5m0,4.8v-4.3m-.4,-.9l.4,5.2m-.4,-7.4v2.2m0,-1.8v-.4m0,4.4v-4m0,10.5v-6.5m-.4,12.2l.4,-5.7m-.4,6.6v-.9m0,2.2v-1.3m0,10.4V647m-.4,20.9l.4,-11.8m-.4,21.4v-9.6m0,14.4v-4.8m0,5.2v-.4m0,-4.3v4.7m-.4,-10l.4,5.3m-.4,-7v1.7m0,-3V671m0,-5.3v4m-.4,-9.6l.4,5.6m-.4,-6.1v.5m0,2.6v-3.1m0,-.4v3.5m0,-13.1v9.6m-.5,-12.7l.5,3.1m-.5,3.9v-7m0,12.2v-5.2m0,6.6v-1.4m-.4,4.4l.4,-3m-.4,4.3v-1.3m0,-3v4.3m0,-8.3v4m0,-8.3v4.3m-.4,-12.2l.4,7.9m-.4,-15.3v7.4m0,-13.5v6.1m0,-8.7v2.6m-.4,0l.4,-2.6m-.4,6.1v-3.5m0,7.8v-4.3m0,7v-2.7m-.4,1.4l.4,1.3m-.4,-2.2v.9m0,.4v-1.3m0,5.7V640m-.5,10.5l.5,-6.1m-.5,8.3v-2.2m0,.4v1.8m0,-3.1v1.3m-.4,0l.4,-1.3m-.4,2.6v-1.3m0,.9v.4m0,-3.9v3.5m0,-7.9v4.4m-.4,-7.9l.4,3.5m-.4,-3.9v.4m0,2.6v-3m0,5.2V643m-.4,3.5l.4,-1.3m-.4,4.8v-3.5m0,8.3V650m0,11.8v-7m0,13.6v-6.6m-.4,10l.4,-3.4m-.4,8.7v-5.3m0,10.5v-5.2m0,.4v4.8m-.4,-19.2l.4,14.4m-.4,-27.9v13.5m0,-20.1v6.6m0,-11.8V643m0,-4.3v-.9m-.5,9.6l.5,-8.7m-.5,14.4v-5.7m0,8.7v-3m0,7v-4m-.4,7.9l.4,-3.9m-.4,6.5V664m0,4.4v-1.8m0,-.4v2.2m0,-5.3v3.1m-.4,-4.4l.4,1.3m-.4,-.9v-.4m0,1.3v-.9m0,-1.3v2.2m-.4,-7.8l.4,5.6M575.6,650v5.3m0,-10.5V650m0,-13.5v8.3m0,-13.1v4.8m-.4,-7l.4,2.2m-.4,-6.5v4.3m0,-5.2v.9m0,1.3v-2.2m0,.9v1.3m-.4,-5.7l.4,4.4m-.4,-1.3v-3.1m0,14.4V623.9m0,23.1V635.2m-.5,20.5l.5,-8.7m-.5,11.3v-2.6m0,2.2v.4m-.4,2.2l.4,-2.6m-.4,7v-4.4m0,7v-2.6m0,-1.4v4m-.4,-11.4l.4,7.4m-.4,-15.2v7.8m0,-9.6v1.8m0,4.8v-6.6m0,7.4v-.8m-.4,-9.2l.4,10m-.4,-16.5v6.5m0,-1.3v-5.2m0,13.5v-8.3m-.4,12.7l.4,-4.4m-.4,4.8v-.4m0,-2.2v2.6m0,-5.7v3.1m38,.4v-2.6m-.4,2.2l.4,.4m-.4,-2.2v1.8m0,-3.9v2.1m0,-3v.9m-.4,-1.4l.4,.5m-.4,-.9v.4m0,3.5v-3.9m0,10v-6.1m0,9.6v-3.5m-.5,3.1l.5,.4m-.5,-2.6v2.2m0,-3.5v1.3m0,0V657m-.4,4.4l.4,-3.1m-.4,3.9v-.8m0,-3.1v3.9m0,-7.4v3.5m0,-8.7v5.2M608.6,640l.4,9.6m-.4,-17.9V640m0,-12.2v3.9m0,-3.5v-.4m-.4,1.7l.4,-1.3m-.4,4.4v-3.1m0,7.4v-4.3m0,11.8v-7.5m0,16.6v-9.1m-.4,15.7l.4,-6.6m-.4,7v-.4m0,-5.3v5.7m0,-9.6v3.9m0,-3v-.9m-.5,3.5l.5,-2.6m-.5,4.8v-2.2m0,1.3v.9m0,-5.3v4.4m-.4,-6.5l.4,2.1m-.4,1.8v-3.9m0,9.1v-5.2m0,9.6v-4.4m0,5.7v-1.3m-.4,-.9l.4,2.2m-.4,-2.6v.4m0,.4v-.8m0,.4v.4m-.4,-4.3l.4,3.9m-.4,-10.9v7m0,-10.1v3.1m0,-2.2v-.9m0,-2.1v3m-.4,-8.7l.4,5.7m-.4,-9.2V640m0,-5.2v1.7m0,-.4v-1.3m-.4,8.7l.4,-7.4m-.4,14.8v-7.4m0,9.6v-2.2m0,2.6v-.4m0,2.2v-1.8m-.5,3.5l.5,-1.7m-.5,3V657m0,2.2v-.9m0,.4v.5m-.4,0l.4,-.5m-.4,2.7v-2.2m0,.4v1.8m0,-6.1v4.3m0,-6.9v2.6m-.4,-2.6h.4m-.4,3.9v-3.9m0,7.8v-3.9m0,4.3v-.4m0,-2.2v2.6m-.4,-3l.4,.4m-.4,1.8v-2.2m0,4.8v-2.6m0,4.8v-2.2m-.4,1.7l.4,.5m-.4,-4v3.5m0,-6.1v2.6m0,-5.2v2.6m0,-5.6v3m-.5,-2.2l.5,-.8m-.5,5.6v-4.8m0,8.3v-3.5m-.4,1.8l.4,1.7m-.4,-7v5.3m0,-10.1v4.8m0,-.4V650m-.4,8.3l.4,-3.9m-.4,1.7v2.2m0,-7.4v5.2m0,-10.4v5.2m-.4,-9.2l.4,4m-.4,-1.8v-2.2m0,7.9v-5.7m0,8.3v-2.6m0,1.7v.9m-.4,0l.4,-.9m-.4,5.7v-4.8m0,6.1V657m0,-2.6v3.9m-.4,-6.1l.4,2.2m-.4,-.9v-1.3m0,4.8v-3.5m0,5.2V657m-.5,3.5l.5,-1.8m-.5,3.5v-1.7m0,3.9v-2.2m0,4.4v-2.2m-.4,.5l.4,1.7m-.4,-4.8v3.1m0,-4.8v1.7m0,-2.6v.9m0,-2.2v1.3m-.4,-.9l.4,-.4m-.4,3.5v-3.1m0,5.7v-2.6m0,.8V664m0,-6.1v4.3M599,651.3l.4,6.6M599,645.2v6.1m0,-6.9v.8m-.4,0l.4,-.8m-.4,5.6v-4.8m0,9.2V650m0,4.8v-.4m0,-.5v.9m-.4,1.3l.4,-2.2m-.4,.9v1.3m0,-11.3v10m0,-24v14m-.5,-20.1l.5,6.1m-.5,-7.4v1.3m0,-4.3v3m0,-3.5v.5m-.4,0l.4,-.5m-.4,4.8v-4.3m0,8.2v-3.9m0,8.3v-4.4m-.4,12.3l.4,-7.9m-.4,17.5v-9.6m0,20.5V650.5m0,20.9v-10m0,13.9v-3.9m-.4,.9l.4,3m-.4,-10.4v7.4m0,-13.1v5.7m0,-8.3v2.6m-.4,-4.4l.4,1.8m-.4,-3.1v1.3m0,-3v1.7m0,-5.7v4m0,-8.8v4.8m-.4,-5.2l.4,.4m-.4,4.8v-5.2m0,11.3v-6.1m0,10.9v-4.8m0,6.2v-1.4m-.5,.5l.5,.9m-.5,-2.2v1.3m0,-2.6v1.3m0,-3.1v1.8m-.4,-.9l.4,-.9m-.4,-2.1v3m0,-8.7v5.7m0,-9.2V647m-.4,-7.4l.4,3.9m-.4,-9.6v5.7m0,-12.7v7m0,-11.4v4.4m-.4,-2.6l.4,-1.8m-.4,9.6v-7.8m0,16.1v-8.3m0,10.1v-1.8m0,-.8v2.6m-.4,-2.2l.4,-.4m-.4,3V640m0,6.5v-3.9m0,10.1v-6.2m-.5,13.1l.5,-6.9m-.5,5.6v1.3m0,-10.4v9.1m0,-17v7.9m0,-9.2v1.3m-.4,.9l.4,-2.2m-.4,5.7v-3.5m0,8.7v-5.2m0,5.6v-.4m-.4,-2.6l.4,3m-.4,-5.2v2.2m0,-.5v-1.7m0,3.9v-2.2m-.4,.5l.4,1.7m-.4,-2.6v.9m0,1.3v-2.2m0,3.9v-1.7m0,3.1v-1.4m-.4,6.1l.4,-4.7m37.6,-7.9l.4,-1.8m-.4,3.5v-1.7m0,1.3v.4m0,1.3v-1.7m-.4,4.4l.4,-2.7m-.4,5.3v-2.6m0,3.4v-.8m-.4,.4l.4,.4m-.4,.9v-1.3m0,-.8v2.1m0,-3.9v1.8m-.5,-4l.5,2.2m-.5,-1.3v-.9m0,2.2v-1.3m0,3.1v-1.8m-.4,4.8l.4,-3m-.4,5.6v-2.6m0,3.5v-.9m0,-.9v1.8m-.4,-3.9l.4,2.1m-.4,-4.7v2.6m0,-4.4v1.8m0,-2.2v.4m0,-1.3v.9m-.4,-2.2l.4,1.3m-.4,1.7v-3m0,6.1v-3.1m-.4,2.6l.4,.5m-.4,-3.1v2.6m0,-5.6v3m0,-4.3v1.3m0,-.9V647m-.5,-.9l.5,1.3m-.5,-2.6v1.3m0,-2.6v1.3m0,-.9v-.4m-.4,.4h.4m-.4,.5v-.5m0,1.3v-.8m0,3v-2.2m0,4.8v-2.6m-.4,3.9l.4,-1.3m-.4,.5v.8m0,-4.3v3.5m0,-7.9V647m-.4,-7.9l.4,3.5m-.4,-3.9v.4m0,.5v-.9m0,3.5v-2.6m0,4.3v-1.7m-.4,2.2l.4,-.5m-.4,2.2v-1.7m0,4.3v-2.6m0,3.9v-1.3m-.4,.5l.4,.8m-.4,.5v-1.3m0,3.9v-2.6m0,6.5v-3.9m-.4,7.8l.4,-3.9m-.4,4.8v-.9m0,-1.3v2.2m0,-6.1v3.9m0,-8.3v4.4m-.5,-6.5l.5,2.1m-.5,-3.9v1.8m0,-3.1v1.3m-.4,-2.6l.4,1.3m-.4,-2.2v.9m0,-2.2v1.3m0,-.9v-.4m0,-.4v.8m-.4,-.8h.4m-.4,2.2v-2.2m0,3.5v-1.3m0,4.3v-3m-.4,9.1l.4,-6.1m-.4,10.5v-4.4m0,2.6v1.8m0,-5.3v3.5m0,-6.5v3m-.4,-1.7l.4,-1.3m-.4,4.8v-3.5m0,4.8v-1.3m0,.4v.9m-.5,-3.1l.5,2.2m-.5,-4.8v2.6m0,-3v.4m0,2.2v-2.6m0,3.5v-.9m-.4,-2.2l.4,3.1m-.4,-5.2v2.1m0,-1.3v-.8m0,3V650m-.4,3.5l.4,-1.3m-.4,-.9v2.2m0,-4.3v2.1m0,-3v.9m0,.4v-1.3m-.4,4.8l.4,-3.5m-.4,7.4v-3.9m0,7V657m0,.9v2.2m-.4,-6.2l.4,4m-.4,-9.6v5.6m0,-11.7v6.1m0,-9.2v3.1m-.5,-4l.5,.9m-.5,0v-.9m0,3.5v-2.6m0,5.3v-2.7m0,4.4v-1.7m-.4,3.9l.4,-2.2m-.4,3.5v-1.3m0,-1.3v2.6m0,-6.1V647m-.4,-7.9l.4,4.4m-.4,-7.9v3.5m0,-4.8v1.3m0,-2.2v.9m0,-4.3v3.4m-.4,-7.4l.4,4m-.4,-4.8v.8m0,1.3v-2.1m0,6.1v-4m-.4,6.6l.4,-2.6m-.4,3.5v-.9m0,1.7v-.8m0,1.3v-.5m0,0v.5m-.4,.8l.4,-1.3m-.4,5.7v-4.4m0,11.4v-7m0,14.8v-7.8m-.5,13.9l.5,-6.1m-.5,9.2v-3.1m0,4.8v-1.7m0,4.4V667m0,3.5v-.8m-.4,-1.3l.4,2.1m-.4,-6.5v4.4m0,-7V664m0,-3.9v1.3m0,-1.8v.5m-.4,-.5h.4m-.4,1.3v-1.3m0,3.1v-1.8m0,2.6v-.8m-.4,.4l.4,.4m-.4,-3.4v3m0,-4.4v1.4m0,-.9v-.5m0,-1.3v1.8m-.4,-6.1l.4,4.3m-.4,-6.9v2.6m0,-5.3v2.7m0,-4.8v2.1m-.5,-5.2l.5,3.1m-.5,-5.7v2.6m0,-6.1V640m0,-6.1v2.6m0,-2.2v-.4m-.4,3l.4,-2.6m-.4,6.6v-4m0,6.6v-2.6m0,1.7v.9m-.4,-3.5l.4,2.6m-.4,-1.3V640m0,2.2v-.9m0,1.3v-.4m-.4,.4h.4m-.4,-1.7v1.7m0,-2.6v.9m0,0V640m-.4,.9h.4m-.4,-.5v.5m0,3.5v-4m0,9.6v-5.6m0,10.4V650m-.4,7.9l.4,-3.1m-.4,4.8v-1.7m0,.8v.9m0,-2.2v1.3m0,-4.8v3.5m-.5,-9.1l.5,5.6m-.5,-10.4v4.8m0,-8.3v3.5m0,-8.3V640m-.4,-10l.4,5.2m-.4,-9.6V630m0,-3.1v-1.3m0,6.1v-4.8m0,10.5v-5.7m-.4,10l.4,-4.3m-.4,7.4v-3.1m0,4.8v-1.7m0,4.4v-2.7m-.4,6.2l.4,-3.5m-.4,1.7v1.8m0,-3.5v1.7m0,0v-1.7m38.9,5.2l.4,-2.2m-.4,5.2v-3m0,5.2v-2.2m0,4v-1.8m-.5,1.8h.5m-.5,-.9v.9m0,-3.5v2.6m0,-5.2v2.6m0,-6.6v4m-.4,-8.8l.4,4.8m-.4,-6.5v1.7m0,0v-1.7m0,4.4v-2.7m0,6.2v-3.5m-.4,6.5l.4,-3m-.4,6v-3m0,5.7v-2.7m0,3.5v-.8m-.4,-2.7l.4,3.5m-.4,-7.4v3.9m0,-7.8v3.9m0,-7.4v3.5m-.4,-2.6l.4,-.9m-.4,1.3v-.4m0,-1.3v1.7m0,-3V647m-.5,.8l.5,-2.1M647,650v-2.2m0,1.8v.4m0,-2.2v1.8m0,-3.9v2.1m-.4,-4.3l.4,2.2m-.4,-4v1.8m0,-.9v-.9m0,1.8v-.9m-.4,2.2l.4,-1.3m-.4,3.5v-2.2m0,.4V647m0,-1.3v-.5m-.4,4.4l.4,-3.9m-.4,7.8v-3.9m0,4.3v-.4m0,-1.3v1.7m-.4,-2.6l.4,.9m-.4,.5v-1.4m0,2.6v-1.2m0,.8v.4m-.4,-.4h.4m-.4,.4v-.4m0,-.4v.8m0,0v-.8m0,3.9v-3.1m-.5,6.6L645,657m-.5,4.8v-1.3m0,-.4v1.7m-.4,-3.1l.4,1.4m-.4,-1.8v.4m0,-2.1v1.7m0,-3.9v2.2m-.4,-1.8l.4,-.4m-.4,1.7v-1.3m0,3.1v-1.8m0,3.5v-1.7m-.4,2.2l.4,-.5m-.4,-2.2v2.7m0,-6.2v3.5m0,-4.7v1.2m0,-2.1v.9m-.4,-.5l.4,-.4m-.4,1.3v-.9m0,1.3v-.4m0,-.4v.8m-.5,-.8h.5m-.5,-.9v.9m0,-2.7v1.8m0,-4.8v3m0,-4.8V647m-.4,-3.5l.4,1.7m-.4,-4.3v2.6m0,-3.5v.9m-.4,.4L642,640m-.4,2.2v-.9m0,.4v.5m0,.8v-1.3m0,4V643m-.4,4.4l.4,-1.7m-.4,4.3v-2.6m0,5.7V650m0,3.9v-.8m-.4,.4l.4,.4m-.4,-.8v.4m0,2.2v-2.6m0,5.6v-3m0,3.9v-.9m-.4,-.8l.4,1.7m-.4,-4.3v2.6m0,-.5v-2.1m0,5.6v-3.5m-.4,7l.4,-3.5m-.4,4.4v-.9m0,3.5v-2.6m-.5,5.7l.5,-3.1m-.5,2.6v.5m0,-4.8v4.3m0,-9.1v4.8m0,-7.5v2.7m-.4,-3.5l.4,.8m-.4,-1.7v.9m0,-3.1V657m0,-3.1v.9m-.4,-2.1l.4,1.2m-.4,-3v1.8m0,-2.7v.9m0,-2.2V650m0,-3.9v2.6m-.4,-3l.4,.4m-.4,0v-.4m0,-.5v.9m0,-1.7v.8m-.4,-3.9l.4,3.1m-.4,-7v3.9m0,-7v3.1m0,-4.4v1.3m0,-2.2v.9m-.5,-1.3l.5,.4m-.5,-1.3v.9m0,-1.7v.8m-.4,-1.3l.4,.5m-.4,.8v-1.3m0,3.1v-1.8m0,3.5v-1.7m0,4.3v-2.6m-.4,7.9l.4,-5.3m-.4,10.9v-5.6m0,7v-1.4m-.4,2.2l.4,-.8m-.4,2.1V650m0,.5v.8m0,-1.7v.9m-.4,-1.3l.4,.4m-.4,-.9v.5m0,-1.4v.9m0,-3v2.1m-.5,-3.9l.5,1.8m-.5,0v-1.8m0,3.9v-2.1m0,6.1v-4m-.4,7.9l.4,-3.9m-.4,7.4v-3.5m0,5.7v-2.2m0,.4v1.8m-.4,-6.6l.4,4.8m-.4,-8.7v3.9m0,-7.8v3.9m0,-4.4v.5m-.4,-.5h.4m-.4,-.8v.8m0,-1.7v.9m0,-1.8v.9m0,-2.2v1.3m-.4,-.9l.4,-.4m-.4,2.2V643m0,2.7v-.9m-.4,1.3l.4,-.4m-.4,1.7v-1.3m0,3.9v-2.6m0,6.5V650m-.5,6.1l.5,-2.2m-.5,2.7v-.5m0,1.8v-1.3m-.4,2.1l.4,-.8m-.4,.4v.4m0,-1.7v1.3m0,-2.6V657m-.4,-3.1l.4,1.8m-.4,-5.2v3.4m0,-4.7v1.3m0,-.5v-.8m0,2.6V650m-.4,1.3l.4,.5m-.4,1.3v-1.8m0,4v-2.2m-.4,5.2l.4,-3m-.4,4.3v-1.3m0,.4v.9m0,-1.7v.8m0,-1.3v.5m-.4,0l.4,-.5m-.4,.9v-.4m0,.8v-.4m0,-2.6v3m-.5,-8.2l.5,5.2m-.5,-9.2v4m0,-5.7v1.7m0,-.8v-.9m0,2.6v-1.7m-.4,1.3l.4,.4m-.4,-3V647m0,-4.4v1.8m0,-1.4v-.4m38.1,.9v.4m0,.9v-1.3m-.5,3l.5,-1.7m-.5,4.4v-2.7m0,5.3v-2.6m0,3v-.4m-.4,1.3l.4,-.9m-.4,1.7v-.8m0,1.7v-.9m0,1.8v-.9m-.4,1.3l.4,-.4m-.4,-.4v.8m0,-1.3v.5m0,-2.2v1.7m0,-5.6v3.9m-.4,-5.7l.4,1.8m-.4,-2.2v.4m0,-1.3v.9m0,0v-.9m-.4,1.7l.4,-.8m-.4,2.2v-1.4m0,3.1v-1.7m0,2.6v-.9m-.5,-.4l.5,1.3m-.5,-3.1v1.8m0,-3.1v1.3m0,-.9v-.4m0,.9v-.5m-.4,0l.4,.5m-.4,-3.1v2.6m0,-4.8v2.2m0,-3.5V643m-.4,0l.4,-1.3m-.4,4.4V643m0,5.3v-2.2m0,3.9v-1.7m0,3.9V650m-.4,2.7l.4,-.5m-.4,0v.5m0,-1.8v1.3m0,-2.2v.9m-.4,-2.2l.4,1.3m-.4,-2.6v1.3m0,-1.7v.4m0,.9V647m0,3.5v-2.2m-.5,4.4l.5,-2.2m-.5,2.6v-.4m0,-1.8v2.2m0,-4.8v2.6m-.4,-4.8l.4,2.2m-.4,-2.6v.4m0,-1.3v.9m0,-1.3v.4m0,-1.8v1.4m-.4,-1.4h.4m-.4,.9V643m0,1.4v-.5m0,-.4v.9m-.4,-1.4l.4,.5m-.4,-.9v.4m0,.9v-1.3m0,2.6v-1.3m-.4,1.3h.4m-.4,-.4v.4m-.4,-1.3l.4,.9m-.4,-1.8v.9m0,-1.3v.4m0,0v-.4m0,3.1V643m-.5,3.5l.5,-.8m-.5,1.7v-.9m0,-.4v1.3m0,-.4v-.9m-.4,2.2l.4,-1.3m-.4,3v-1.7m0,2.2V650m0,.9v-.4m-.4,1.7l.4,-1.3m-.4,-.4v1.7m0,-3.9v2.2m0,-4.8v2.6m-.4,-3.1l.4,.5m-.4,0v-.5m0,3.1v-2.6m0,5.2v-2.6m-.4,3.5l.4,-.9m-.4,2.2v-1.3m0,2.1v-.8m0,1.3v-.5m0,-.8v1.3m-.4,-3.1l.4,1.8m-.4,-3.5v1.7m0,-3.9v2.2m0,-3.5v1.3m-.5,-.9l.5,-.4m-.5,-.4v.8m0,.9v-1.7m0,2.1v-.4m-.4,1.3l.4,-.9m-.4,1.4v-.5m0,-.4v.9m0,-1.4v.5m-.4,1.3l.4,-1.8m-.4,4v-2.2m0,3.1v-.9m0,1.7v-.8m0,1.2v-.4m-.4,.9l.4,-.5m-.4,2.2v-1.7m0,3.5v-1.8m0,2.6v-.8m0,1.3v-.5m-.4,-.4l.4,.9m-.4,.4v-1.3m0,2.6v-1.3m-.5,-1.7l.5,3m-.5,-8.2v5.2m0,-9.6v4.4m0,-6.6v2.2m-.4,-1.8l.4,-.4m-.4,0v.4m0,-.8v.4m0,-1.3v.9m-.4,-1.8l.4,.9m-.4,-2.6v1.7m0,-2.2v.5m0,0v-.5M655,643l.4,-.8m-.4,2.2V643m0,2.7v-1.3m0,3v-1.7m-.4,3l.4,-1.3m-.4,-.4v1.7m0,-3.5V647m0,-3.5v1.7m-.4,-3.5l.4,1.8m-.4,-1.3v-.5m0,4.4v-3.9m0,7.8v-3.9m-.5,7l.5,-3.1m-.5,6.6v-3.5m0,8.3v-4.8m0,7.8v-3m-.4,1.3l.4,1.7m-.4,-3.9v2.2m0,-4.8v2.6m0,-5.7v3.1m0,-5.7v2.6m-.4,-4.3l.4,1.7m-.4,-3v1.3m0,-1.8v.5m-.4,-.5h.4m-.4,.9v-.9m0,2.2v-1.3m0,0v1.3m-.4,-2.2l.4,.9m-.4,-2.6v1.7m0,-.9V647m-.4,1.7l.4,-.9m-.4,-1.7v2.6m0,-6.5v3.9m0,-7v3.1m0,-4.8v1.7m-.5,-2.2l.5,.5m-.5,.8v-1.3m0,3.1v-1.8m0,2.7V640m-.4,1.7l.4,-.8m-.4,1.3v-.5m0,.9v-.4m0,1.3v-.9m0,3.9v-3m-.4,4.8l.4,-1.8m-.4,.9v.9m0,-2.2v1.3m0,-.9v-.4m-.4,2.2l.4,-1.8M650,650v-1.7m0,3.5V650m0,2.7v-.9m0,.4v.5" class="g0_42"/>
<text x="400" y="523" class="sd_42">{</text>
<text x="403" y="523" class="se_42">cm</text>
<text x="418" y="523" class="sd_42">/</text>
<text x="421" y="523" class="se_42">s</text>
<text x="426" y="523" dx="0,.1" class="sd_42">@}</text>
<text x="698" y="663" class="se_42">(seconds)</text>
<path d="M365.2,650.3H690.6" class="g1_42"/>
<path fill-rule="evenodd" d="M690.6,650.3L689,647.8l6.5,2.5l-6.5,2.4Z" class="g2_42"/>
<path d="M392.7,732.8V521.9" class="g1_42"/>
<path fill-rule="evenodd" d="M392.7,521.9l-2.4,1.7l2.4,-6.6l2.5,6.6Z" class="g2_42"/>
<path d="M389.7,604.4h6.1" class="g1_42"/>
<text x="435" y="665" class="sd_42">5</text>
<path d="M621.9,647.2v6.1m-45.8,-6.1v6.1m-45.9,-6.1v6.1m-45.8,-6.1v6.1m-45.8,-6.1v6.1" class="g1_42"/>
<text x="374" y="608" dx="0,-.3" class="sd_42">50</text>
<text x="478" y="665" dx="0,-.1" class="sd_42">10</text>
<text x="524" y="665" dx="0,-.2" class="sd_42">15</text>
<text x="569" y="665" class="sd_42">20</text>
<text x="615" y="665" dx="0,-.3" class="sd_42">25</text>
<text x="381" y="523" class="sd_42">a</text>
<text x="691" y="662" class="sd_42">t</text>
<path d="M389.7,558.6h6.1" class="g1_42"/>
<text x="369" y="562" dx="0,-.1,-.1" class="sd_42">100</text>
<path d="M667.7,647.2v6.1m-278,42.8h6.1" class="g1_42"/>
<text x="661" y="665" class="sd_42">30</text>
<text x="366" y="701" class="sd_42">_50</text>
<text x="616" y="732" class="sf_42">Calif. Dept. of Mines and Geology</text>
<text x="305" y="765" dx="0,0,0,0,0,2.3,0,0,2.3,0,0,0,0,0,2.3,-.2,0,0,0,0,0,0,0,2.3,0,0,0,0,0,0,0,0,0,2.3,0,2.3,0,0,0,0,2.3,0,0,0,0,0,0,-1,0,2.3,0,-.4,-.2,0,0,2.3,0,2.3,0,0,0,0,0,0,2.3" class="s5_42">Each of these examples descriBes a rule whereBy, given a numBer (</text>
<text x="739" y="765" class="s7_42">r</text>
<text x="746" y="765" class="s5_42">, </text>
<text x="756" y="765" class="s7_42">t</text>
<text x="760" y="765" class="s5_42">, </text>
<text x="770" y="765" class="sc_42">w</text>
<text x="781" y="765" dx="0,0,2.3,0,0" class="s5_42">, or </text>
<text x="810" y="765" class="s7_42">t</text>
<text x="814" y="765" class="s5_42">), </text>
<text x="287" y="783" dx="0,0,0,0,0,0,0,0,.3,0,0,0,0,0,0,.3" class="s5_42">another numBer (</text>
<text x="393" y="783" class="s7_42">A</text>
<text x="403" y="783" class="s5_42">, </text>
<text x="411" y="783" class="s7_42">P</text>
<text x="420" y="783" class="s5_42">, </text>
<text x="428" y="783" class="s7_42">C</text>
<text x="438" y="783" dx="0,0,.3,0,0" class="s5_42">, or </text>
<text x="463" y="783" class="s7_42">a</text>
<text x="471" y="783" dx="0,0,.3,0,0,.3,0,0,0,0,0,0,0,0,0,.3,0,0,.3,0,0,0,0,.3,0,0,0,0,.3,0,0,.3,0,0,0,.3,0,0,0,0,.3,0,0,0,.3,0,0,0,0,0,0,.3,0,0,0,0,0,0" class="s5_42">) is assigned. ²n each case we say that the second numBer </text>
<text x="287" y="802" dx="0,0,0,0,0,0,0,0,0,0,0,0,0,0,0,0,0,0,0,0,0,0,0,0,0,0,0,0,0,0,0,0,-.8" class="s5_42">is a function of the Irst numBer.</text>
<text x="306" y="848" class="s5_42">A </text>
<text x="321" y="848" class="s6_42">function</text>
<text x="382" y="848" class="s7_42">f</text>
<text x="392" y="848" dx="0,0,0,.4,0,.4,0,0,0,0,.4,0,0,0,0,.4,0,0,0,0,0,0,0,.4,0,0,.4,0,0,0,0,.4,0,0,0,0,0,0,0" class="s5_42">is a rule that assigns to each element </text>
<text x="623" y="848" class="s7_42">x</text>
<text x="634" y="848" dx="0,0,0,.4,0,.4,0,0,0" class="s5_42">in a set </text>
<text x="682" y="848" class="s7_42">D</text>
<text x="697" y="848" dx="0,0,0,0,0,0,0,0,.4,0,0,0" class="s5_42">exactly one </text>
<text x="306" y="866" dx="0,0,0,0,0,0,0,0,0,.4,0,0,0,0,0,0" class="s5_42">element, called </text>
<text x="405" y="866" class="s7_42">f</text>
<text x="412" y="866" class="sb_42">s</text>
<text x="417" y="866" class="s7_42">x</text>
<text x="424" y="866" class="sb_42">d</text>
<text x="429" y="866" dx="0,0,.4,0,0,.4,0,.4,0,0,0" class="s5_42">, in a set </text>
<text x="486" y="866" class="s7_42">E</text>
<text x="495" y="866" class="s5_42">.</text>
<path d="M290.7,824c0,0,-3.1,0,-3.1,3v54.3c0,0,0,3,3.1,3H820.8c0,0,3.1,0,3.1,-3V827c0,0,0,-3,-3.1,-3H290.7Z" class="g3_42"/>
<text x="305" y="913" dx="0,0,0,.9,0,0,0,0,0,0,0,.9,0,0,0,0,0,0,0,0,.9,0,0,0,0,0,0,0,0,0,.9,0,0,0,.9,0,0,0,0,0,.9,0,0,0,.9,0,0,0,0" class="s5_42">We usually consider functions for which the sets </text>
<text x="614" y="913" class="s7_42">D</text>
<text x="629" y="913" class="s5_42">and </text>
<text x="656" y="913" class="s7_42">E</text>
<text x="671" y="913" dx="0,0,0,0,.9,0,0,0,0,.9,0,0,.9,0,0,0,0,.9,0,0,0,0,0,0,0,0" class="s5_42">are sets of real numBers. </text>
<text x="287" y="932" dx="0,0,0,0,.4,0,0,0" class="s5_42">The set </text>
<text x="336" y="932" class="s7_42">D</text>
<text x="351" y="932" dx="0,0,0,.4,0,0,0,0,0,0,.4,0,0,0" class="s5_42">is called the </text>
<text x="429" y="932" class="s6_42">domain</text>
<text x="483" y="932" dx="0,0,0,.4,0,0,0,.4,0,0,0,0,0,0,0,0,0,.1,0,0,0,.4,0,0,0,0,0,0" class="s5_42">of the function. The numBer </text>
<text x="663" y="932" class="s7_42">f</text>
<text x="669" y="932" class="sb_42">s</text>
<text x="675" y="932" class="s7_42">x</text>
<text x="682" y="932" class="sb_42">d</text>
<text x="691" y="932" dx="0,0,0,.4,0,0,0" class="s5_42">is the </text>
<text x="728" y="932" dx="0,-.2,0,0,0,0,.4,0,0" class="s6_42">value of </text>
<text x="787" y="932" class="sg_42">f</text>
<text x="798" y="932" class="s6_42">at</text>
<text x="815" y="932" class="sg_42">x</text>
<text x="287" y="950" dx="0,0,0,0,.6,0,0,.6,0,0,0,0,.6" class="s5_42">and is read “</text>
<text x="368" y="950" class="s7_42">f</text>
<text x="378" y="950" class="s5_42">of </text>
<text x="396" y="950" class="s7_42">x</text>
<text x="403" y="950" dx="0,-1.1,0,.3,0,0,0" class="s5_42">.” The </text>
<text x="445" y="950" class="s6_42">range</text>
<text x="486" y="950" class="s5_42">of </text>
<text x="506" y="950" class="s7_42">f</text>
<text x="517" y="950" dx="0,0,0,.6,0,0,0,.6,0,0,0,.6,0,0,.6,0,0,0,.6,0,0,0,0,0,0,0,0,.6,-.4,0,0,0,0,0,.6,0,0" class="s5_42">is the set of all possiBle values of </text>
<text x="730" y="950" class="s7_42">f</text>
<text x="736" y="950" class="sb_42">s</text>
<text x="742" y="950" class="s7_42">x</text>
<text x="749" y="950" class="sb_42">d</text>
<text x="758" y="950" class="s5_42">as </text>
<text x="776" y="950" class="s7_42">x</text>
<text x="787" y="950" dx="0,-.4,0,0,0,0,0" class="s5_42">varies </text>
<text x="287" y="968" dx="0,0,0,0,0,0,0,0,0,0,0,-.2,0,0,0,-.2,0,0,0,0,0,0,0,-1,0,-.2,0,0,0,0,0,0,-.2,0,0,0,0,-.2,0,0,0,0,0,0,0,0,0,0,-.2,0,0,-.2,0,0,0,0,0,0,0,0,0,-.2,0,0,0,0,0,0,-.2,0,0,-.2,0,0,0" class="s5_42">throughout the domain. A symBol that represents an arBitrary numBer in the </text>
<text x="750" y="968" class="s7_42">domain</text>
<text x="800" y="968" dx="0,0,0,-.2,0" class="s5_42">of a </text>
<text x="287" y="987" class="s5_42">function </text>
<text x="344" y="987" class="s7_42">f</text>
<text x="354" y="987" class="s5_42">is called an </text>
<text x="427" y="987" dx="0,0,0,0,0,0,0,0,0,0,0,0,0,-.2,0,0,0,0,0,0" class="s6_42">independent variable</text>
<text x="564" y="987" dx="0,0,-.8,0,0,0,0,0,0,0,0,0,0,0,0,0,0,0,0,0,0,0,0,0,0,0,0,0,0,0,0,0,0,0,0,0,0,0,0,0,0,0,0" class="s5_42">. A symBol that represents a numBer in the </text>
<text x="287" y="1005" dx="0,-.2,0,0,-.2" class="s7_42">range</text>
<text x="326" y="1005" class="s5_42">of </text>
<text x="344" y="1005" class="s7_42">f</text>
<text x="355" y="1005" dx="0,0,0,-.1,0,0,0,0,0,0,-.1" class="s5_42">is called a</text>
<text x="419" y="1005" dx="0,0,0,0,0,0,0,0,0,0,-.1,-.2,0,0,0,0,0,0" class="s6_42">dependent variable</text>
<text x="544" y="1005" dx="0,0,-.1,0,0,-.1,0,0,0,0,0,0,0,-.9,0,0,-.1,0,0,0,-.1,0,0,0,0,0,0,0,0,0" class="s5_42">. ²n Example A, for instance, </text>
<text x="723" y="1005" class="s7_42">r</text>
<text x="733" y="1005" dx="0,0,0,-.1,0,0,0,-.1,0,0,0,0,0,0,0" class="s5_42">is the indepen-</text>
<text x="287" y="1023" dx="0,0,0,0,0,0,-.4,0,0,0,0,0,0,0,0,0,0,0" class="s5_42">dent variaBle and </text>
<text x="396" y="1023" class="s7_42">A</text>
<text x="409" y="1023" dx="0,0,0,0,0,0,0,0,0,0,0,0,0,0,0,0,0,0,-.4,0,0,0,0,0,0,0" class="s5_42">is the dependent variaBle.</text>
<path d="M53.9,243.1h99.3v44.3H53.9Zm99.3,0h99.3v44.3H153.2Z" class="g4_42"/>
<path d="M153.2,306.1V287.8m0,36.6V306.1m0,36.7V324.4m0,36.7V342.8m0,36.6V361.1m0,36.7V379.4m0,36.7V397.8m0,36.6V416.1m0,36.7V434.4m0,36.7V452.8m0,36.6V471.1m0,39.3v-21M53.5,243.1h99.7M53.5,287.4h99.7M53.9,287V243.5m99.3,-.4h99.7m-99.7,44.3h99.7M153.2,287V243.5M252.5,287V243.5M53.9,306.1V287.8m198.6,18.3V287.8M53.9,324.4V306.1m198.6,18.3V306.1M53.9,342.8V324.4m198.6,18.4V324.4M53.9,361.1V342.8m198.6,18.3V342.8M53.9,379.4V361.1m198.6,18.3V361.1M53.9,397.8V379.4m198.6,18.4V379.4M53.9,416.1V397.8m198.6,18.3V397.8M53.9,434.4V416.1m198.6,18.3V416.1M53.9,452.8V434.4m198.6,18.4V434.4M53.9,471.1V452.8m198.6,18.3V452.8M53.9,489.4V471.1m198.6,18.3V471.1M53.9,510.4v-21m198.6,21v-21m-199,21.4h99.7m0,0h99.7" class="g5_42"/>
<text x="90" y="278" dx="0,-1.4,0,0" class="sh_42">Year</text>
<text x="173" y="261" class="sh_42">Population </text>
<text x="175" y="278" class="sh_42">(millions)</text>
<text x="89" y="301" class="sh_42">1900</text>
<text x="189" y="301" class="sh_42">1650</text>
<text x="89" y="319" class="sh_42">1910</text>
<text x="189" y="319" class="sh_42">1750</text>
<text x="89" y="338" class="sh_42">1920</text>
<text x="189" y="338" class="sh_42">1860</text>
<text x="89" y="356" class="sh_42">1930</text>
<text x="189" y="356" class="sh_42">2070</text>
<text x="89" y="374" class="sh_42">1940</text>
<text x="189" y="374" class="sh_42">2300</text>
<text x="89" y="393" class="sh_42">1950</text>
<text x="189" y="393" class="sh_42">2560</text>
<text x="89" y="411" class="sh_42">1960</text>
<text x="189" y="411" class="sh_42">3040</text>
<text x="89" y="429" class="sh_42">1970</text>
<text x="189" y="429" class="sh_42">3710</text>
<text x="89" y="448" class="sh_42">1980</text>
<text x="189" y="448" class="sh_42">4450</text>
<text x="89" y="466" class="sh_42">1990</text>
<text x="189" y="466" class="sh_42">5280</text>
<text x="89" y="484" class="sh_42">2000</text>
<text x="189" y="484" class="sh_42">6080</text>
<text x="89" y="503" class="sh_42">2010</text>
<text x="189" y="503" class="sh_42">6870</text>
<text x="212" y="698" dx="0,.3,.3,.3,.3,.3,.1" class="si_42">FIGURE </text>
<text x="265" y="698" class="sj_42">1</text>
<text x="118" y="715" dx="0,-1.5,0,0,0,0,0,0,0,0,0,0,0,0,0,0,0,0,0,0,0,0,0,0,0,0,0,0,0" class="sh_42">Vertical ground acceleration </text>
<text x="89" y="732" dx="0,0,0,0,0,0,0,0,0,0,0,0,0,0,0,0,0,0,0,0,0,0,0,0,0,0,0,0,0,0,0,-.1" class="sh_42">during the Northridge earthquake</text>
<text x="121" y="1076" class="sk_42">Copyright 2016 Cengage Learning. All Rights Reserved. May not be copied, scanned, or duplicated, in whole or in part. Due to electronic rights, some third party content may be suppressed from the eBook and/or eChapter(s).</text>
<text x="106" y="1087" class="sk_42">Editorial review has deemed that any suppressed content does not materially affect the overall learning experience. Cengage Learning reserves the right to remove additional content at any time if subsequent rights restrictions require it.</text>

</g>

<!-- Any embedded fonts defined here -->
<style type="text/css" ><![CDATA[

@font-face {
	font-family: CenturyOldStyle-Italic__q;
	src: url("fonts/CenturyOldStyle-Italic__q.woff") format("woff");
}

@font-face {
	font-family: MathematicalPi-One-Italic_x2;
	src: url("fonts/MathematicalPi-One-Italic_x2.woff") format("woff");
}

@font-face {
	font-family: MathematicalPiLTStd-3_ry;
	src: url("fonts/MathematicalPiLTStd-3_ry.woff") format("woff");
}

@font-face {
	font-family: MathematicalPiLTStd-5_vb;
	src: url("fonts/MathematicalPiLTStd-5_vb.woff") format("woff");
}

@font-face {
	font-family: MyriadPro-Bold_74;
	src: url("fonts/MyriadPro-Bold_74.woff") format("woff");
}

@font-face {
	font-family: MyriadPro-Regular_4i;
	src: url("fonts/MyriadPro-Regular_4i.woff") format("woff");
}

@font-face {
	font-family: MyriadPro-Semibold_49;
	src: url("fonts/MyriadPro-Semibold_49.woff") format("woff");
}

@font-face {
	font-family: TECHMath-Mix_12n;
	src: url("fonts/TECHMath-Mix_12n.woff") format("woff");
}

@font-face {
	font-family: Times-Roman_4n;
	src: url("fonts/Times-Roman_4n.woff") format("woff");
}

@font-face {
	font-family: Times-Roman_n6;
	src: url("fonts/Times-Roman_n6.woff") format("woff");
}

@font-face {
	font-family: TimesLTStd-BoldItalic_12r;
	src: url("fonts/TimesLTStd-BoldItalic_12r.woff") format("woff");
}

@font-face {
	font-family: TimesLTStd-Bold_oh;
	src: url("fonts/TimesLTStd-Bold_oh.woff") format("woff");
}

@font-face {
	font-family: TimesLTStd-Italic_o3;
	src: url("fonts/TimesLTStd-Italic_o3.woff") format("woff");
}

@font-face {
	font-family: TimesLTStd-Roman_-s;
	src: url("fonts/TimesLTStd-Roman_-s.woff") format("woff");
}

]]></style>

</svg>
