<?xml version="1.0" encoding="UTF-8" standalone="no"?>
<!DOCTYPE svg PUBLIC "-//W3C//DTD SVG 1.1//EN"
"http://www.w3.org/Graphics/SVG/1.1/DTD/svg11.dtd">


<!-- Page 47 -->
<svg x="0" y="0" width="931" height="1096" viewBox="0 0 931 1096" version="1.1" xmlns="http://www.w3.org/2000/svg" xmlns:xlink="http://www.w3.org/1999/xlink"
style="display: block;margin-left: auto;margin-right: auto;">
<defs>
<clipPath id="c_47"><path d="M0,0H931V1096H0Z"/></clipPath>
<clipPath id="c0_47"><path d="M523.6,226.8V192.2H697.1v34.6Z"/></clipPath>
<clipPath id="c1_47"><path d="M740.3,699.7V682.8h99v16.9Z"/></clipPath>
<clipPath id="c2_47"><path d="M459.8,718.1v-17H569.4v17Z"/></clipPath>

<style type="text/css"><![CDATA[
text { white-space: pre; }
path, image { pointer-events: none; }

.s1_47{
font-size: 12.22px;
font-family: MyriadPro-Semibold_49;
fill: #231F20;
}
.s2_47{
font-size: 13.75px;
font-family: MyriadPro-Semibold_49;
fill: #231F20;
}
.s3_47{
font-size: 12.22px;
font-family: MyriadPro-Regular_4i;
fill: #231F20;
}
.s4_47{
font-size: 15.28px;
font-family: MyriadPro-Semibold_49;
fill: #231F20;
}
.s5_47{
font-size: 13.75px;
font-family: MyriadPro-Semibold_49;
fill: #EC008C;
}
.s6_47{
font-size: 15.28px;
font-family: TimesLTStd-Roman_143;
fill: #231F20;
}
.s7_47{
font-size: 15.28px;
font-family: TimesLTStd-Italic_o3;
fill: #231F20;
}
.s8_47{
font-size: 15.28px;
font-family: MathematicalPiLTStd-1_rr;
fill: #231F20;
}
.s9_47{
font-size: 15.28px;
font-family: MathematicalPiLTStd-3_ry;
fill: #231F20;
}
.sa_47{
font-size: 15.28px;
font-family: BeaconDingbatsTypeOne_12w;
fill: #231F20;
}
.sb_47{
font-size: 15.28px;
font-family: MathematicalPiLTStd-5_vb;
fill: #231F20;
}
.sc_47{
font-size: 9.17px;
font-family: TimesLTStd-Roman_143;
fill: #231F20;
}
.sd_47{
font-size: 24.44px;
font-family: MathematicalPiLTStd-3_ry;
fill: #231F20;
}
.se_47{
font-size: 15.28px;
font-family: MathematicalPiLTStd-4_v8;
fill: #231F20;
}
.sf_47{
font-size: 12.99px;
font-family: ZapfDingbatsITC_my;
fill: #EC008C;
}
.sg_47{
font-size: 15.28px;
font-family: MyriadPro-Bold_74;
fill: #00AEEF;
}
.sh_47{
font-size: 12.99px;
font-family: Times-Roman_n6;
fill: #231F20;
}
.si_47{
font-size: 12.99px;
font-family: TECHMath-Mix_14s;
fill: #231F20;
}
.sj_47{
font-size: 12.22px;
font-family: TECHMath-Mix_14s;
fill: #231F20;
}
.sk_47{
font-size: 16.81px;
font-family: MyriadPro-Semibold_49;
fill: #231F20;
}
.sl_47{
font-size: 16.81px;
font-family: MyriadPro-Semibold_14w;
fill: #231F20;
}
.sm_47{
font-size: 15.28px;
font-family: TimesLTStd-Bold_oh;
fill: #231F20;
}
.sn_47{
font-size: 12.22px;
font-family: TECHMath-Mix__z;
fill: #231F20;
}
.so_47{
font-size: 12.99px;
font-family: TECHMath-Mix_14o;
fill: #231F20;
}
.sp_47{
font-size: 12.22px;
font-family: TECHMath-Mix_14o;
fill: #231F20;
}
.sq_47{
font-size: 13.75px;
font-family: TimesLTStd-Roman_143;
fill: #231F20;
}
.sr_47{
font-size: 14.51px;
font-family: MyriadPro-Bold_74;
fill: #231F20;
}
.ss_47{
font-size: 15.28px;
font-family: MyriadPro-Bold_74;
fill: #231F20;
}
.st_47{
font-size: 13.75px;
font-family: MyriadPro-BoldSemiCn_90;
fill: #231F20;
}
.su_47{
font-size: 7.64px;
font-family: Times-Roman_4n;
fill: #000000;
}

.g0_47{
fill: none;
stroke: #231F20;
stroke-width: 0.763;
stroke-linecap: butt;
stroke-linejoin: miter;
}
.g1_47{
fill: none;
stroke: #00AEEF;
stroke-width: 0.763;
stroke-linecap: butt;
stroke-linejoin: miter;
stroke-miterlimit: 4;
}
.g2_47{
fill: #231F20;
}
.g3_47{
fill: none;
stroke: #EC008C;
stroke-width: 0.916;
stroke-linecap: butt;
stroke-linejoin: round;
stroke-miterlimit: 3;
}
.g4_47{
fill: none;
stroke: #231F20;
stroke-width: 0.611;
stroke-linecap: butt;
stroke-linejoin: miter;
stroke-miterlimit: 3;
}
.g5_47{
fill: none;
stroke: #00AEEF;
stroke-width: 0.916;
stroke-linecap: butt;
stroke-linejoin: round;
stroke-miterlimit: 3;
}
.g6_47{
fill: #00AEEF;
}
.g7_47{
fill: none;
stroke: #00AEEF;
stroke-width: 0.763;
stroke-linecap: butt;
stroke-linejoin: miter;
stroke-miterlimit: 3;
}
.g8_47{
fill: none;
stroke: #66C18C;
stroke-width: 0.916;
stroke-linecap: butt;
stroke-linejoin: round;
stroke-miterlimit: 3;
}
.g9_47{
fill: #CC017A;
}
.ga_47{
fill: #EC008C;
}
.gb_47{
fill: none;
stroke: #EC008C;
stroke-width: 0.763;
stroke-linecap: butt;
stroke-linejoin: miter;
stroke-miterlimit: 3;
}

]]></style>

</defs>
<g clip-path="url(#c_47)">
<path d="M0,0
L0,1096
L931,1096
L931,0 Z " 
fill="#FFFFFF" stroke="none"/>
<text x="544" y="64" dx="0,.2,.2,.5,.2,.2,.2" class="s1_47">SECTION</text>
<text x="596" y="64" class="s2_47">1.1</text>
<text x="626" y="64" dx="0,-.3,.1,.1,.1,-.3,-.3,0,0,.1,.1,0,.1,.1,.2,.1,.1,0,.1,.1,.1,.1,.1,.1,.1,.1,-.3,.1,.1,.3,.1,.1,.1,.1" class="s3_47">Four Ways to Represent a Function </text>
<text x="862" y="64" class="s4_47">15</text>
<text x="342" y="107" dx="0,.3,.3,.3,.3,.3,.3,.3" class="s5_47">SOLUTION</text>
<text x="342" y="126" dx="0,0,0,0,3.8,0,0,0,0,0,0,0,0,0,0,0,0,0,0,0,0,0,0,0,0,0,0,0,0,0,0,0,0,0,0,-.2,-.1,0,0,-.4,-.2,0,0,0,0,0,0,0,0,0,0,0,0,0,0,0,0,0,0,0,0,0,0,0,0,0,0,0,0,0,0,0,0,0,0,0,0,0,0,0,0,0,0" class="s6_47">(a) Because the square root of a negative number is not deIned (as a real number), </text>
<text x="342" y="144" class="s6_47">the domain of </text>
<text x="433" y="144" class="s7_47">f</text>
<text x="443" y="144" dx="0,0,0,0,0,0,0,0,0,0,0,0,0,0,0,0,0,-.4,0,0,0,0,0,0,0,0" class="s6_47">consists of all values of </text>
<text x="590" y="144" class="s7_47">x</text>
<text x="601" y="144" class="s6_47">such that </text>
<text x="660" y="144" class="s7_47">x</text>
<text x="671" y="144" class="s8_47">1</text>
<text x="688" y="144" class="s6_47">2</text>
<text x="701" y="144" class="s8_47">&gt;</text>
<text x="718" y="144" dx="0,0,0,-.3,0,0,0,0,0,0,0,0,0,0,0,-.4,-.4,0,0,0,0,0,0,0,0" class="s6_47">0. This is equivalent to </text>
<text x="342" y="162" class="s7_47">x</text>
<text x="353" y="162" dx="0,4.6" class="s8_47">&gt;2</text>
<text x="383" y="162" dx="0,0,0,0,0,0,0,0,0,0,0,0,0,0,0,0,0,0,0,0,0,0,0,0,0,0,0,0,0,0,-.4,0,0" class="s6_47">2, so the domain is the interval </text>
<text x="575" y="162" class="s9_47">f</text>
<text x="580" y="162" class="s8_47">2</text>
<text x="593" y="162" class="s6_47">2,</text>
<text x="607" y="162" class="s8_47">`</text>
<text x="617" y="162" class="s9_47">d</text>
<text x="622" y="162" class="s6_47">.</text>
<text x="342" y="185" dx="0,0,0,0,3.8,0,0,0,0" class="s6_47">(b) Since</text>
<text x="523" y="213" class="sa_47">t</text>
<text x="530" y="213" class="s9_47">s</text>
<text x="536" y="213" class="s7_47">x</text>
<text x="542" y="213" class="s9_47">d</text>
<text x="552" y="213" class="sb_47">-</text>
<text x="589" y="202" class="s6_47">1</text>
<path d="M570.2,208.3h46.1" class="g0_47"/>
<text x="572" y="223" class="s7_47">x</text>
<text x="580" y="217" class="sc_47">2</text>
<text x="589" y="223" class="s8_47">2</text>
<text x="606" y="223" class="s7_47">x</text>
<text x="620" y="213" class="sb_47">-</text>
<text x="663" y="202" class="s6_47">1</text>
<g clip-path="url(#c0_47)">
<path d="M638.2,208.3h59.3" class="g0_47"/>
</g>
<text x="640" y="223" class="s7_47">x</text>
<text x="647" y="223" class="s9_47">s</text>
<text x="653" y="223" class="s7_47">x</text>
<text x="664" y="223" class="s8_47">2</text>
<text x="682" y="223" class="s6_47">1</text>
<text x="689" y="223" class="s9_47">d</text>
<text x="342" y="257" dx="0,0,0,0,0,0,-.4,0,0,0,0,0,0,0,0,0,0,0,0,0,0,0,0,0,0,0,0,0,0,-.4,0,0,0,0,0,0,0,0,0,0,0,0,0,0,0,0" class="s6_47">and division by 0 is not allowed, we see that </text>
<text x="616" y="257" class="sa_47">t</text>
<text x="622" y="257" class="s9_47">s</text>
<text x="628" y="257" class="s7_47">x</text>
<text x="635" y="257" class="s9_47">d</text>
<text x="644" y="257" class="s6_47">is not deIned when </text>
<text x="767" y="257" class="s7_47">x</text>
<text x="778" y="257" class="sb_47">-</text>
<text x="796" y="257" class="s6_47">0 or </text>
<text x="824" y="257" class="s7_47">x</text>
<text x="835" y="257" class="sb_47">-</text>
<text x="853" y="257" class="s6_47">1. </text>
<text x="342" y="275" class="s6_47">Thus the domain of </text>
<text x="465" y="275" class="sa_47">t</text>
<text x="475" y="275" class="s6_47">is</text>
<text x="554" y="304" class="s9_47">h</text>
<text x="559" y="304" class="s7_47">x</text>
<text transform="matrix(0.63,0,0,1,571,308)" class="sd_47">|</text>
<text x="581" y="304" class="s7_47">x</text>
<text x="592" y="304" class="sb_47">±</text>
<text x="610" y="304" class="s6_47">0, </text>
<text x="625" y="304" class="s7_47">x</text>
<text x="636" y="304" class="sb_47">±</text>
<text x="653" y="304" class="s6_47">1</text>
<text x="661" y="304" class="s9_47">j</text>
<text x="342" y="343" dx="0,0,0,0,0,0,0,0,0,0,0,0,0,0,0,0,0,0,0,0,0,0,0,0,0,0,0,0,0,0,0,0,0,0,0,0,0,-.4,0,0,0,0,0,0,0,0,0,0,0,0,0" class="s6_47">which could also be written in interval notation as</text>
<text x="540" y="372" class="s9_47">s</text>
<text x="545" y="372" class="s8_47">2`</text>
<text x="568" y="372" class="s6_47">, 0</text>
<text x="583" y="372" class="s9_47">d</text>
<text x="593" y="372" class="se_47">ø</text>
<text x="610" y="372" class="s9_47">s</text>
<text x="615" y="372" class="s6_47">0, 1</text>
<text x="638" y="372" class="s9_47">d</text>
<text x="648" y="372" class="se_47">ø</text>
<text x="665" y="372" class="s9_47">s</text>
<text x="670" y="372" class="s6_47">1, </text>
<text x="686" y="372" class="s8_47">`</text>
<text x="696" y="372" class="s9_47">d</text>
<text x="868" y="375" class="sf_47">■</text>
<text x="360" y="411" dx="0,0,0,0,1.5,0,0,0,0,0,1.5,0,0,1.5,0,1.5,0,0,0,0,0,0,0,0,1.5,0,0,1.5,0,1.5,0,0,0,-.2,0,1.5,0,0,1.5,0,0,0" class="s6_47">The graph of a function is a curve in the </text>
<text x="623" y="411" dx="0,.7" class="s7_47">xy</text>
<text x="638" y="411" dx="0,0,0,0,0,0,0,0,1.5,0,0,0,1.5,0,0,0,1.5,0,0,0,0,0,0,0,0,1.5,0,0,0,0,0,0,0,1,0,0,0,0,0" class="s6_47">-plane. But the question arises: Which </text>
<text x="342" y="430" dx="0,0,0,0,-.2,0,0,0,0,0,0,0,0,0" class="s6_47">curves in the </text>
<text x="424" y="430" dx="0,.7" class="s7_47">xy</text>
<text x="438" y="430" dx="0,0,0,0,0,0,0,0,0,0,0,0,0,0,0,0,0,0,0,0,0,0,0,0,0,0,0,0,0,0,0,0,-.3,0,0,0,0,0,0,0,0,0,0,0,0,0,0,0,0,0,0,0,0,0,0,0,0,0,0,0,0,-.4,0,0,0,0,0,0,0,0,0" class="s6_47">-plane are graphs of functions? This is answered by the following test.</text>
<text x="356" y="471" dx="0,-.2,0,0,-.6,-.6,0,.3,0,0,.1,0,0,0,0,0,0,0,-.6,-1.2,0,0" class="sg_47">The Vertical Line Test</text>
<text x="505" y="471" dx="0,0,0,0,0,0,-.2,0,0,0,0,0,0,0,0" class="s6_47">A curve in the </text>
<text x="596" y="471" dx="0,.7" class="s7_47">xy</text>
<text x="610" y="471" class="s6_47">-plane is the graph of a function of </text>
<text x="826" y="471" class="s7_47">x</text>
<text x="837" y="471" class="s6_47">if </text>
<text x="356" y="489" dx="0,0,0,0,0,0,0,0,0,0,0,0,0,0,0,0,-.2,0,0,0,0,0,0,0,0,0,0,0,0,0,0,0,0,0,0,0,0,0,0,0,0,0,0,0,0,0,0,0,-.2,0,0,0,0,0,0,0,0,0,0,0,0,0,0,0,0" class="s6_47">and only if no vertical line intersects the curve more than once.</text>
<path d="M345.7,445.9c0,0,-3.1,0,-3.1,3.1v52.7c0,0,0,3,3.1,3H875.8c0,0,3.1,0,3.1,-3V449c0,0,0,-3.1,-3.1,-3.1H345.7Z" class="g1_47"/>
<text x="360" y="531" dx="0,0,0,0,1.3,0,0,0,0,0,0,1.3,0,0,0,1.3,0,0,0,1.3,0,0,0,0,0,1.3,0,0,1.3,0,0,0,.5,-1.7,0,0,0,0,0,0,0,1.3,0,0,0,0,1,-1.1,0,0,0,1.3,0,0,0,1.3,0,0,1.3,0,0,0,0,1.3,0,0,1.3,0,0,0,0,0,0,1.3,0,0,0,1.3,0,0,1.3,0,0,0,0" class="s6_47">The reason for the truth of the Vertical Line Test can be seen in Figure 13. ±f each </text>
<text x="342" y="549" dx="0,-.2,0,0,0,0,0,0,0,-.2,0,0,0,0" class="s6_47">vertical line </text>
<text x="418" y="549" class="s7_47">x</text>
<text x="429" y="549" class="sb_47">-</text>
<text x="446" y="549" class="s7_47">a</text>
<text x="458" y="549" dx="0,0,0,0,0,0,0,0,0,0,0,-.2,0,-.2,0,0,0,-.2,0,-.2,0,0,0,0,-.2,0,0,0,0,0,-.2,0,0" class="s6_47">intersects a curve only once, at </text>
<text x="648" y="549" class="s9_47">s</text>
<text x="653" y="549" class="s7_47">a</text>
<text x="661" y="549" class="s6_47">,</text>
<text x="668" y="549" class="s7_47">b</text>
<text x="675" y="549" class="s9_47">d</text>
<text x="680" y="549" dx="0,0,-.2,0,0,0,0,-.2,-.2,0,0,0,0,0,0,-.2,0,0,0,-.2,0,0,0,0,0,0,0,0,-.2,-.4,0,0,0,0" class="s6_47">, then exactly one function value </text>
<text x="342" y="567" class="s6_47">is deIned by </text>
<text x="426" y="567" class="s7_47">f</text>
<text x="432" y="567" class="s9_47">s</text>
<text x="437" y="567" class="s7_47">a</text>
<text x="445" y="567" class="s9_47">d</text>
<text x="455" y="567" class="sb_47">-</text>
<text x="472" y="567" class="s7_47">b</text>
<text x="480" y="567" class="s6_47">. But if a line </text>
<text x="564" y="567" class="s7_47">x</text>
<text x="575" y="567" class="sb_47">-</text>
<text x="592" y="567" class="s7_47">a</text>
<text x="604" y="567" dx="0,0,0,0,0,0,0,0,0,0,0,0,0,0,0,0,0,0,0,-.2,0,0,0,0,0,0,0,0,0,0,0" class="s6_47">intersects the curve twice, at </text>
<text x="781" y="567" class="s9_47">s</text>
<text x="786" y="567" class="s7_47">a</text>
<text x="794" y="567" class="s6_47">,</text>
<text x="800" y="567" class="s7_47">b</text>
<text x="808" y="567" class="s9_47">d</text>
<text x="817" y="567" class="s6_47">and </text>
<text x="843" y="567" class="s9_47">s</text>
<text x="848" y="567" class="s7_47">a</text>
<text x="855" y="567" class="s6_47">,</text>
<text x="862" y="567" class="s7_47">c</text>
<text x="869" y="567" class="s9_47">d</text>
<text x="874" y="567" class="s6_47">, </text>
<text x="342" y="586" dx="0,0,0,0,0,1.1,0,0,0,1.1,0,0,0,-.2,0,1.1,0,0,0,-.3,0,1.1,0,0,0,0,0,0,0,0,0,1.1,0,1.1,0,0,0,0,0,0,0,0,1.1,0,0,0,0,0,0,0,1.1,0,1.1,0,0,0,0,0,0,0,0,1.1,0,0,0,-.3,0,1.1,0,0,0,0,0,0,1.1,0,-.2,0,1.1,0,0,-.4,0,0,0,0,0,0" class="s6_47">then the curve can’t represent a function because a function can’t assign two different </text>
<text x="342" y="604" dx="0,-.4,0,0,0,0,0,0,0,0" class="s6_47">values to </text>
<text x="400" y="604" class="s7_47">a</text>
<text x="408" y="604" class="s6_47">.</text>
<text x="360" y="622" dx="0,-.2,0,0,1.4,-.2,0,0,0,0,0,0,0,1.4,0,0,0,1.4,0,0,0,0,0,0,0,0" class="s6_47">For example, the parabola </text>
<text x="529" y="622" class="s7_47">x</text>
<text x="540" y="622" class="sb_47">-</text>
<text x="557" y="622" class="s7_47">y</text>
<text x="566" y="616" class="sc_47">2</text>
<text x="575" y="622" class="s8_47">2</text>
<text x="592" y="622" dx="0,0,1.4,0,0,-.4,0,0,1.4,0,0,1.4,0,0,0,0,0,0,1.4,0,0,0,0,0,1.4,0,0,1.4,0,0,0,1.4,0,0,0,1.4,0,0,0,0,0,1.4,0,0,1.4,0" class="s6_47">2 shown in Figure 14(a) is not the graph of a </text>
<text x="342" y="641" dx="0,0,0,0,0,0,0,0,0,.4,0,0" class="s6_47">function of </text>
<text x="414" y="641" class="s7_47">x</text>
<text x="425" y="641" dx="0,0,0,0,0,0,0,0,0,.4,0,0,.4,0,0,0,.4,0,0,0,.4,0,0,0,0,.4,0,0,0,0,0,.4,0,0,0,.4,-.2,0,0,0,0,0,0,0,.4,0,0,0,0,0,.4,0,0,0,0,.4,0,0,0,0,0,0,0,0,0,.4,0,0,0,.4,0,0,0,0,0,0,0,0" class="s6_47">because, as you can see, there are vertical lines that intersect the parabola </text>
<text x="342" y="659" dx="0,0,0,0,0,0,0,1.8,0,0,0,2,0,0,0,0,0,0,0,0,0,2,0,-.4,0,-.4,-.2,0,-.6,0,2,0,0,0,0,2,0,0,0,0,0,0,0,2,0,0,0,2,0,0,0,0,0,0,2,0,0" class="s6_47">twice. The parabola, however, does contain the graphs of </text>
<text x="711" y="659" class="s7_47">two</text>
<text x="739" y="659" dx="0,0,0,0,0,0,0,0,0,0,2,0,0" class="s6_47">functions of </text>
<text x="821" y="659" class="s7_47">x</text>
<text x="828" y="659" dx="0,0,2,0,0,0,0,0,0" class="s6_47">. Notice </text>
<text x="342" y="677" dx="0,0,0,0,0,1.8,0,0,0,1.8,0,0,0,0,0,0,0,0" class="s6_47">that the equation </text>
<text x="453" y="677" class="s7_47">x</text>
<text x="464" y="677" class="sb_47">-</text>
<text x="482" y="677" class="s7_47">y</text>
<text x="490" y="671" class="sc_47">2</text>
<text x="499" y="677" class="s8_47">2</text>
<text x="516" y="677" dx="0,0,1.8,0,0,0,0,0,0,0" class="s6_47">2 implies </text>
<text x="581" y="677" class="s7_47">y</text>
<text x="589" y="671" class="sc_47">2</text>
<text x="598" y="677" class="sb_47">-</text>
<text x="616" y="677" class="s7_47">x</text>
<text x="627" y="677" class="s8_47">1</text>
<text x="644" y="677" dx="0,0,0,1.8,0,0" class="s6_47">2, so </text>
<text x="681" y="677" class="s7_47">y</text>
<text x="692" y="677" class="sb_47">-</text>
<text x="709" y="677" class="s8_47">6</text>
<text x="723" y="678" class="sa_47">s</text>
<text x="734" y="677" class="s7_47">x</text>
<text x="746" y="677" class="s8_47">1</text>
<text x="763" y="677" class="s6_47">2</text>
<path d="M735.1,664.1h38.7" class="g0_47"/>
<text x="774" y="676" dx="0,0,1.5,0,0,0,0,1.8,0,0,0,1.8,0,0,0,0,0" class="s6_47">. Thus the upper </text>
<text x="342" y="696" dx="0,0,0,0,.6,0,-.4,0,0,0,.5,0,0,0,-.2,0,0,.5,0,0,.5,0,0,0,.5,0,0,0,0,0,0,0,0,.5,0,0,0,.5,0,0,0,.5,0,0,0,0,0,0,.5,0,0,.5,0,0,0,.5,0,0,0,0,0,0,0,0,0" class="s6_47">and lower halves of the parabola are the graphs of the functions </text>
<text x="742" y="696" class="s7_47">f</text>
<text x="749" y="696" class="s9_47">s</text>
<text x="754" y="696" class="s7_47">x</text>
<text x="761" y="696" class="s9_47">d</text>
<text x="771" y="696" class="sb_47">-</text>
<text x="788" y="697" class="sa_47">s</text>
<text x="800" y="696" class="s7_47">x</text>
<text x="812" y="696" class="s8_47">1</text>
<text x="829" y="696" class="s6_47">2</text>
<g clip-path="url(#c1_47)">
<path d="M800.3,683.2h39.4" class="g0_47"/>
</g>
<text x="843" y="696" class="s6_47">[from </text>
<text x="342" y="714" class="s6_47">Example 6(a)] and </text>
<text x="459" y="714" class="sa_47">t</text>
<text x="466" y="714" class="s9_47">s</text>
<text x="472" y="714" class="s7_47">x</text>
<text x="479" y="714" class="s9_47">d</text>
<text x="488" y="714" class="sb_47">-</text>
<text x="505" y="714" class="s8_47">2</text>
<text x="518" y="715" class="sa_47">s</text>
<text x="530" y="714" class="s7_47">x</text>
<text x="542" y="714" class="s8_47">1</text>
<text x="559" y="714" class="s6_47">2</text>
<g clip-path="url(#c2_47)">
<path d="M530.3,701.5h39.5" class="g0_47"/>
</g>
<text x="569" y="714" class="s6_47">. [See Figures 14(b) and (c).] </text>
<text x="360" y="732" dx="0,-1.2,0,-1.2,0,0,0,0,0,-.2,0,-1.2,0,0,0,0,-1.2,0,0,-1.2,0,0,-1.2,0,-.4,-.2,0,0,0,0,-1.2,0,0,0,-1.2,0,0,0,0,0,-1.2,0,0" class="s6_47">We observe that if we reverse the roles of </text>
<text x="606" y="732" class="s7_47">x</text>
<text x="615" y="732" class="s6_47">and </text>
<text x="640" y="732" class="s7_47">y</text>
<text x="647" y="732" dx="0,0,-1.2,0,0,0,0,-1.2,0,0,0,-1.2,0,0,0,0,0,0,0,0" class="s6_47">, then the equation </text>
<text x="759" y="732" class="s7_47">x</text>
<text x="770" y="732" class="sb_47">-</text>
<text x="788" y="732" class="s7_47">h</text>
<text x="795" y="732" class="s9_47">s</text>
<text x="802" y="732" class="s7_47">y</text>
<text x="809" y="732" class="s9_47">d</text>
<text x="818" y="732" class="sb_47">-</text>
<text x="836" y="732" class="s7_47">y</text>
<text x="844" y="726" class="sc_47">2</text>
<text x="853" y="732" class="s8_47">2</text>
<text x="870" y="732" class="s6_47">2 </text>
<text x="342" y="751" class="s7_47">does</text>
<text x="374" y="751" class="s6_47">deIne </text>
<text x="416" y="751" class="s7_47">x</text>
<text x="427" y="751" dx="0,0,0,.5,0,.5,0,0,0,0,0,0,0,0,.5,0,0" class="s6_47">as a function of </text>
<text x="528" y="751" class="s7_47">y</text>
<text x="539" y="751" class="s6_47">(with </text>
<text x="576" y="751" class="s7_47">y</text>
<text x="587" y="751" dx="0,0,0,.5,0,0,0,.5,0,0,0,0,0,0,0,0,0,0,0,.5,-.4,0,0,0,0,0,0,0,.5,0,0,0" class="s6_47">as the independent variable and </text>
<text x="785" y="751" class="s7_47">x</text>
<text x="796" y="751" dx="0,0,0,.5,0,0,0,.5,0,0,0,0,0" class="s6_47">as the depen-</text>
<text x="342" y="769" dx="0,0,0,0,0,0,-.4,0,0,0,0,0,0,0,0,0,0,0,0,0,0,0,0,0,0,0,0,0,0,0,0,0,0,0,-.4,0,0,0,0,0,0,0,0,0,0,0,0,0,0,0,0,0,0,0,0,0,0,0,0,0,0,0,0,0,0,0,0,0,0,0,0,0,0" class="s6_47">dent variable) and the parabola now appears as the graph of the function </text>
<text x="786" y="769" class="s7_47">h</text>
<text x="794" y="769" class="s6_47">.</text>
<text x="572" y="930" class="sh_47">(b) </text>
<text x="590" y="930" class="si_47">y=œ</text>
<text transform="matrix(1.07,0,0,1,620,930)" class="si_47">„„„„</text>
<text x="620" y="930" class="si_47">x+2</text>
<text x="567" y="865" dx="0,.2" class="sj_47">_2</text>
<text x="594" y="862" class="sj_47">0</text>
<text x="666" y="862" class="sj_47">x</text>
<text x="592" y="798" class="sj_47">y</text>
<path fill-rule="evenodd" d="M669.1,850.5L667.5,848l6.5,2.5l-6.5,2.4Z" class="g2_47"/>
<path fill-rule="evenodd" d="M603.1,796.8l-2.4,1.6l2.4,-6.5l2.5,6.5Z" class="g2_47"/>
<path d="M669.2,812.3c-49.5,9.2,-92.9,22.4,-93.6,38" class="g3_47"/>
<path d="M552.6,850.5H670.1m-67,55.1V795.7m-27.4,51.7v6.1" class="g4_47"/>
<text x="349" y="865" dx="0,0,.2,0,0,0,0" class="sj_47">(_2, 0)</text>
<text x="374" y="930" class="sh_47">(a) </text>
<text x="392" y="930" class="si_47">x=¥-2</text>
<text x="399" y="861" class="sj_47">0</text>
<text x="470" y="861" class="sj_47">x</text>
<text x="396" y="798" class="sj_47">y</text>
<path fill-rule="evenodd" d="M473.7,849.7l-1.6,-2.4l6.5,2.4l-6.5,2.5Z" class="g2_47"/>
<path fill-rule="evenodd" d="M407.5,796.6l-2.5,1.6l2.5,-6.5l2.4,6.5Z" class="g2_47"/>
<path d="M473.6,811.6c-49.5,9.2,-92.9,22.7,-93.7,38.4c.8,15.9,44.2,29.4,93.7,38.6" class="g5_47"/>
<path d="M357,849.7H474.4" class="g4_47"/>
<path fill-rule="evenodd" d="M474.4,849.7l-1.3,-1.9l5.2,1.9l-5.2,2Z" class="g2_47"/>
<path d="M407.4,904.8V795" class="g4_47"/>
<path d="M378.5,849.6c0,-.9,.8,-1.7,1.7,-1.7c1,0,1.8,.8,1.8,1.7c0,1,-.8,1.8,-1.8,1.8c-.9,0,-1.7,-.8,-1.7,-1.8Z" class="g6_47"/>
<path d="M378.5,849.6c0,-.9,.8,-1.7,1.7,-1.7c1,0,1.8,.8,1.8,1.7c0,1,-.8,1.8,-1.8,1.8c-.9,0,-1.7,-.8,-1.7,-1.8Z" class="g7_47"/>
<text x="766" y="930" class="sh_47">(c) </text>
<text x="784" y="930" dx="0,0,0,1.3" class="si_47">y=_œ</text>
<text transform="matrix(1.08,0,0,1,823,930)" class="si_47">„„„„</text>
<text x="823" y="930" class="si_47">x+2</text>
<text x="763" y="844" dx="0,.2" class="sj_47">_2</text>
<text x="790" y="862" class="sj_47">0</text>
<text x="787" y="798" class="sj_47">y</text>
<path fill-rule="evenodd" d="M864.6,850.5L863,848l6.5,2.5l-6.5,2.4Z" class="g2_47"/>
<path fill-rule="evenodd" d="M798.5,796.7l-2.4,1.7l2.4,-6.6l2.5,6.6Z" class="g2_47"/>
<text x="861" y="862" class="sj_47">x</text>
<path d="M770.9,850.7c.8,15.9,44.2,29.5,93.7,38.7" class="g8_47"/>
<path d="M748,850.5H865.4m-67,55.1V795.7m-27.3,51.7v6.1" class="g4_47"/>
<path d="M343.8,969.5c0,0,-1.6,0,-1.6,1.6v9.1c0,0,0,1.6,1.6,1.6h9.1c0,0,1.6,0,1.6,-1.6v-9.1c0,0,0,-1.6,-1.6,-1.6Z" class="g9_47"/>
<text x="362" y="981" dx="0,-.2,0,0,-.2" class="sk_47">Piece</text>
<text x="400" y="981" dx="0,0,0,0,0,0,0,0,0,0,0,0,0,-.5,0,0,.3,0,0,0,0" class="sl_47">wise Deﬁned Functions</text>
<text x="342" y="1004" dx="0,0,0,0,1.1,0,0,0,0,0,0,0,0,0,1.1,0,0,1.1,0,0,0,1.1,0,0,0,0,-.4,0,0,0,0,1.1,0,0,0,0,1.1,-.2,0,0,0,0,0,0,0,1.1,0,0,0,1.1,0,0,0,0,0,0,1.1,0,0,1.1,0,0,-.4,0,0,0,0,0,0,1.1,0,0,0,0,0,0,0,0,1.1,0,0,1.1,0,0,0" class="s6_47">The functions in the following four examples are deIned by different formulas in dif-</text>
<text x="342" y="1023" class="s6_47">ferent parts of their domains. Such functions are called </text>
<text x="680" y="1023" class="sm_47">piecewise deIned functions</text>
<text x="857" y="1023" class="s6_47">.</text>
<path d="M277.6,702.8V578.4" class="g3_47"/>
<path d="M275.8,606c0,-1,.7,-1.7,1.7,-1.7c.9,0,1.7,.7,1.7,1.7c0,.9,-.8,1.7,-1.7,1.7c-1,0,-1.7,-.8,-1.7,-1.7Z" class="ga_47"/>
<path d="M275.8,606c0,-1,.7,-1.7,1.7,-1.7c.9,0,1.7,.7,1.7,1.7c0,.9,-.8,1.7,-1.7,1.7c-1,0,-1.7,-.8,-1.7,-1.7Z" class="gb_47"/>
<path d="M275.8,637.6c0,-.9,.7,-1.7,1.7,-1.7c.9,0,1.7,.8,1.7,1.7c0,.9,-.8,1.7,-1.7,1.7c-1,0,-1.7,-.8,-1.7,-1.7Z" class="ga_47"/>
<path d="M275.8,637.6c0,-.9,.7,-1.7,1.7,-1.7c.9,0,1.7,.8,1.7,1.7c0,.9,-.8,1.7,-1.7,1.7c-1,0,-1.7,-.8,-1.7,-1.7Z" class="gb_47"/>
<path d="M248.6,525.5V401.4" class="g3_47"/>
<path d="M246.9,448.1c0,-1,.8,-1.8,1.7,-1.8c1,0,1.8,.8,1.8,1.8c0,.9,-.8,1.7,-1.8,1.7c-.9,0,-1.7,-.8,-1.7,-1.7Z" class="ga_47"/>
<path d="M246.9,448.1c0,-1,.8,-1.8,1.7,-1.8c1,0,1.8,.8,1.8,1.8c0,.9,-.8,1.7,-1.8,1.7c-.9,0,-1.7,-.8,-1.7,-1.7Z" class="gb_47"/>
<path d="M109.7,483.2c9.5,-10.6,18.3,-25.8,29.7,-35.3c20.2,-16.6,39.6,-45.5,57.6,-5c17.8,39.4,45,10.9,54.2,2.5c36.8,-33.8,47.4,-12.6,58,3.6" class="g5_47"/>
<text x="251" y="512" class="sn_47">a</text>
<text x="254" y="412" class="so_47">x=a</text>
<text x="253" y="455" class="sp_47">(a, b)</text>
<text x="126" y="513" class="sp_47">0</text>
<text x="280" y="690" class="sp_47">a</text>
<path d="M109.3,651.9c17.8,35.3,51.6,1.2,65.5,-18.3c32.7,-45.5,41.5,-20.5,42.9,-17.6c11.8,24.1,31.7,5,41.2,-1.6c15,-10.8,34.3,-13.9,42.9,-5.9c7.3,6.7,8,18.8,-3.8,26.2c-11.2,7.2,-24.7,3.7,-34.3,-4.2" class="g5_47"/>
<text x="250" y="599" class="sp_47">(a, c)</text>
<text x="249" y="649" class="sp_47">(a, b)</text>
<text x="282" y="588" class="so_47">x=a</text>
<text x="126" y="691" class="sp_47">0</text>
<text x="308" y="689" class="sp_47">x</text>
<text x="123" y="579" class="sp_47">y</text>
<path d="M134.6,702.8V578.4" class="g4_47"/>
<path fill-rule="evenodd" d="M134.6,578.4l-2.4,1.6l2.4,-6.5l2.5,6.5Z" class="g2_47"/>
<path d="M109.3,677.8H309.7" class="g4_47"/>
<path fill-rule="evenodd" d="M309.7,677.8L308,675.3l6.5,2.5l-6.5,2.4Z" class="g2_47"/>
<text x="308" y="512" class="sp_47">x</text>
<path d="M109.2,500.4H309.5" class="g4_47"/>
<path fill-rule="evenodd" d="M309.5,500.4L307.9,498l6.5,2.4l-6.5,2.5Z" class="g2_47"/>
<text x="123" y="402" class="sp_47">y</text>
<path d="M134.4,525.5V401.1" class="g4_47"/>
<path fill-rule="evenodd" d="M134.4,401.1l-2.4,1.6l2.4,-6.5l2.5,6.5Z" class="g2_47"/>
<text x="108" y="547" dx="0,0,0,0,-.2,0,0,0,0,0,0,0,0,-.2,0,0,0,0,0,0,0,0,0,0,0,0,0,0,0,0,0,0,0,0,0,0,0" class="sq_47">(a) This curve represents a function.</text>
<text x="108" y="726" dx="0,0,0,0,-.2,0,0,0,0,0,0,0,0,-.2,0,0,0,0,0,0,0,-.2,0,0,0,0,0,0,0,0,0,0" class="sq_47">(b) This curve doesn’t represent</text>
<text x="127" y="743" class="sq_47">a function.</text>
<text x="108" y="769" dx="0,.3,.3,.3,.3,.3,.1" class="sr_47">FIGURE </text>
<text x="161" y="769" class="ss_47">13</text>
<text x="259" y="931" dx="0,.3,.3,.3,.3,.3,.1" class="sr_47">FIGURE </text>
<text x="311" y="931" class="ss_47">14</text>
<text x="108" y="107" dx="0,0,0,0,0,0,0,0,-.2,0,-.2,-.2,0,-.1,0,0,0" class="st_47">Domain Convention</text>
<text x="108" y="124" dx="0,0,0,0,0,0,0,0,0,0,0,0,0,0,0,0,0,0,0,-.3,-.2,0,0,0,0,0,0,0,0,0,0,0,0,0,0,0" class="sq_47">±f a function is given by a formula </text>
<text x="108" y="141" dx="0,0,0,0,0,0,0,0,0,0,0,0,0,0,0,0,0,0,0,0,0,0,0,0,0,0,0,0,0,0,-.2,0,0,0,0,0" class="sq_47">and the domain is not stated explic-</text>
<text x="108" y="158" dx="0,0,0,0,-.9,0,0,0,0,0,0,0,0,-.5,-.2,0,0,0,0,0,0,0,0,0,0,0,0,0,0,0,0,0,0,0,0,0,0,0,0,0" class="sq_47">itly, the convention is that the domain </text>
<text x="108" y="175" class="sq_47">is the set of all numbers for which </text>
<text x="108" y="191" dx="0,0,0,0,0,0,0,0,0,0,0,0,0,0,0,-.1,0,0,0,0,0,0,0,0,0,0,0,0,0,0,0,0,0,0,0" class="sq_47">the formula makes sense and deInes </text>
<text x="108" y="208" dx="0,0,0,0,0,0,0,0,0,0,0,0,0,-.8" class="sq_47">a real number.</text>
<text x="121" y="1076" class="su_47">Copyright 2016 Cengage Learning. All Rights Reserved. May not be copied, scanned, or duplicated, in whole or in part. Due to electronic rights, some third party content may be suppressed from the eBook and/or eChapter(s).</text>
<text x="106" y="1087" class="su_47">Editorial review has deemed that any suppressed content does not materially affect the overall learning experience. Cengage Learning reserves the right to remove additional content at any time if subsequent rights restrictions require it.</text>

</g>

<!-- Any embedded fonts defined here -->
<style type="text/css" ><![CDATA[

@font-face {
	font-family: BeaconDingbatsTypeOne_12w;
	src: url("fonts/BeaconDingbatsTypeOne_12w.woff") format("woff");
}

@font-face {
	font-family: MathematicalPiLTStd-1_rr;
	src: url("fonts/MathematicalPiLTStd-1_rr.woff") format("woff");
}

@font-face {
	font-family: MathematicalPiLTStd-3_ry;
	src: url("fonts/MathematicalPiLTStd-3_ry.woff") format("woff");
}

@font-face {
	font-family: MathematicalPiLTStd-4_v8;
	src: url("fonts/MathematicalPiLTStd-4_v8.woff") format("woff");
}

@font-face {
	font-family: MathematicalPiLTStd-5_vb;
	src: url("fonts/MathematicalPiLTStd-5_vb.woff") format("woff");
}

@font-face {
	font-family: MyriadPro-BoldSemiCn_90;
	src: url("fonts/MyriadPro-BoldSemiCn_90.woff") format("woff");
}

@font-face {
	font-family: MyriadPro-Bold_74;
	src: url("fonts/MyriadPro-Bold_74.woff") format("woff");
}

@font-face {
	font-family: MyriadPro-Regular_4i;
	src: url("fonts/MyriadPro-Regular_4i.woff") format("woff");
}

@font-face {
	font-family: MyriadPro-Semibold_14w;
	src: url("fonts/MyriadPro-Semibold_14w.woff") format("woff");
}

@font-face {
	font-family: MyriadPro-Semibold_49;
	src: url("fonts/MyriadPro-Semibold_49.woff") format("woff");
}

@font-face {
	font-family: TECHMath-Mix_14o;
	src: url("fonts/TECHMath-Mix_14o.woff") format("woff");
}

@font-face {
	font-family: TECHMath-Mix_14s;
	src: url("fonts/TECHMath-Mix_14s.woff") format("woff");
}

@font-face {
	font-family: TECHMath-Mix__z;
	src: url("fonts/TECHMath-Mix__z.woff") format("woff");
}

@font-face {
	font-family: Times-Roman_4n;
	src: url("fonts/Times-Roman_4n.woff") format("woff");
}

@font-face {
	font-family: Times-Roman_n6;
	src: url("fonts/Times-Roman_n6.woff") format("woff");
}

@font-face {
	font-family: TimesLTStd-Bold_oh;
	src: url("fonts/TimesLTStd-Bold_oh.woff") format("woff");
}

@font-face {
	font-family: TimesLTStd-Italic_o3;
	src: url("fonts/TimesLTStd-Italic_o3.woff") format("woff");
}

@font-face {
	font-family: TimesLTStd-Roman_143;
	src: url("fonts/TimesLTStd-Roman_143.woff") format("woff");
}

@font-face {
	font-family: ZapfDingbatsITC_my;
	src: url("fonts/ZapfDingbatsITC_my.woff") format("woff");
}

]]></style>

</svg>
