<?xml version="1.0" encoding="UTF-8" standalone="no"?>
<!DOCTYPE svg PUBLIC "-//W3C//DTD SVG 1.1//EN"
"http://www.w3.org/Graphics/SVG/1.1/DTD/svg11.dtd">


<!-- Page 48 -->
<svg x="0" y="0" width="931" height="1096" viewBox="0 0 931 1096" version="1.1" xmlns="http://www.w3.org/2000/svg" xmlns:xlink="http://www.w3.org/1999/xlink"
style="display: block;margin-left: auto;margin-right: auto;">
<defs>
<clipPath id="c_48"><path d="M0,0H931V1096H0Z"/></clipPath>
<clipPath id="c0_48"><path d="M53.5,479V337.4H205.3V479Z"/></clipPath>

<style type="text/css"><![CDATA[
text { white-space: pre; }
path, image { pointer-events: none; }

.s1_48{
font-size: 15.28px;
font-family: MyriadPro-Semibold_49;
fill: #231F20;
}
.s2_48{
font-size: 12.22px;
font-family: MyriadPro-Semibold_49;
fill: #231F20;
}
.s3_48{
font-size: 13.75px;
font-family: MyriadPro-Semibold_49;
fill: #231F20;
}
.s4_48{
font-size: 12.22px;
font-family: MyriadPro-Regular_4i;
fill: #231F20;
}
.s5_48{
font-size: 16.81px;
font-family: MyriadPro-BoldSemiCn_90;
fill: #EC008C;
}
.s6_48{
font-size: 17.57px;
font-family: MyriadPro-BoldSemiCn_90;
fill: #EC008C;
}
.s7_48{
font-size: 15.28px;
font-family: TimesLTStd-Roman_143;
fill: #231F20;
}
.s8_48{
font-size: 15.28px;
font-family: TimesLTStd-Italic_o3;
fill: #231F20;
}
.s9_48{
font-size: 15.28px;
font-family: MathematicalPiLTStd-3_ry;
fill: #231F20;
}
.sa_48{
font-size: 15.28px;
font-family: MathematicalPiLTStd-5_vb;
fill: #231F20;
}
.sb_48{
font-size: 47.36px;
font-family: MathematicalPiLTStd-3_ry;
fill: #231F20;
}
.sc_48{
font-size: 15.28px;
font-family: MathematicalPiLTStd-1_rr;
fill: #231F20;
}
.sd_48{
font-size: 9.17px;
font-family: TimesLTStd-Roman_143;
fill: #231F20;
}
.se_48{
font-size: 13.75px;
font-family: MyriadPro-Semibold_49;
fill: #EC008C;
}
.sf_48{
font-size: 12.99px;
font-family: ZapfDingbatsITC_my;
fill: #EC008C;
}
.sg_48{
font-size: 15.28px;
font-family: TimesLTStd-Bold_oh;
fill: #231F20;
}
.sh_48{
font-size: 24.44px;
font-family: MathematicalPiLTStd-3_ry;
fill: #231F20;
}
.si_48{
font-size: 15.28px;
font-family: BeaconDingbatsTypeOne_12w;
fill: #231F20;
}
.sj_48{
font-size: 15.28px;
font-family: MathematicalPi-One-Italic_x2;
fill: #231F20;
}
.sk_48{
font-size: 12.22px;
font-family: TECHMath-Mix__v;
fill: #231F20;
}
.sl_48{
font-size: 12.22px;
font-family: TECHMath-Mix_14o;
fill: #231F20;
}
.sm_48{
font-size: 12.22px;
font-family: TECHMath-Mix_151;
fill: #231F20;
}
.sn_48{
font-size: 10.69px;
font-family: TECHMath-Mix_151;
fill: #231F20;
}
.so_48{
font-size: 14.51px;
font-family: MyriadPro-Bold_74;
fill: #231F20;
}
.sp_48{
font-size: 15.28px;
font-family: MyriadPro-Bold_74;
fill: #231F20;
}
.sq_48{
font-size: 13.75px;
font-family: TimesLTStd-Roman_143;
fill: #231F20;
}
.sr_48{
font-size: 12.22px;
font-family: TECHMath-Mix_139;
fill: #231F20;
}
.ss_48{
font-size: 12.99px;
font-family: TECHMath-Mix_13r;
fill: #231F20;
}
.st_48{
font-size: 12.99px;
font-family: TECHMath-Mix_139;
fill: #231F20;
}
.su_48{
font-size: 7.64px;
font-family: Times-Roman_4n;
fill: #000000;
}

.g0_48{
fill: none;
stroke: #231F20;
stroke-width: 0.763;
stroke-linecap: butt;
stroke-linejoin: miter;
}
.g1_48{
fill: none;
stroke: #00AEEF;
stroke-width: 0.763;
stroke-linecap: butt;
stroke-linejoin: miter;
stroke-miterlimit: 4;
}
.g2_48{
fill: none;
stroke: #00AEEF;
stroke-width: 0.916;
stroke-linecap: butt;
stroke-linejoin: round;
stroke-miterlimit: 3;
}
.g3_48{
fill: #FFFFFF;
}
.g4_48{
fill: #00AEEF;
}
.g5_48{
fill: none;
stroke: #00AEEF;
stroke-width: 0.763;
stroke-linecap: butt;
stroke-linejoin: miter;
stroke-miterlimit: 3;
}
.g6_48{
fill: none;
stroke: #231F20;
stroke-width: 0.611;
stroke-linecap: butt;
stroke-linejoin: miter;
stroke-miterlimit: 3;
}
.g7_48{
fill: #231F20;
}

]]></style>

</defs>
<g clip-path="url(#c_48)">
<path d="M0,0
L0,1096
L931,1096
L931,0 Z " 
fill="#FFFFFF" stroke="none"/>
<text x="53" y="64" class="s1_48">16</text>
<text x="126" y="64" dx="0,.2,.2,.2,.2,.2,.2,.1" class="s2_48">CHAPTER </text>
<text x="180" y="64" class="s3_48">1</text>
<text x="200" y="64" dx="0,-.3,.1,.1,.3,.1,.1,.1,.1,.1,.1,.1,.1,.1,.1,.2,.1,.1,.1,.1" class="s4_48">Functions and Models</text>
<text x="287" y="110" dx="0,.3,.3,.3,.3,.3,.3,.2" class="s5_48">EXAMPLE </text>
<text x="358" y="110" class="s6_48">7 </text>
<text x="376" y="110" class="s7_48">A function </text>
<text x="448" y="110" class="s8_48">f</text>
<text x="458" y="110" class="s7_48">is deIned by</text>
<text x="469" y="155" class="s8_48">f</text>
<text x="475" y="155" class="s9_48">s</text>
<text x="481" y="155" class="s8_48">x</text>
<text x="488" y="155" class="s9_48">d</text>
<text x="498" y="155" class="sa_48">-</text>
<text x="515" y="157" class="sb_48">H</text>
<text x="526" y="144" class="s7_48">1</text>
<text x="538" y="144" class="sc_48">2</text>
<text x="555" y="144" class="s8_48">x</text>
<text x="526" y="165" class="s8_48">x</text>
<text x="534" y="159" class="sd_48">2</text>
<text x="577" y="144" class="s7_48">if </text>
<text x="594" y="144" class="s8_48">x</text>
<text x="605" y="144" dx="0,4.6" class="sc_48">&lt;2</text>
<text x="635" y="144" class="s7_48">1</text>
<text x="577" y="165" class="s7_48">if </text>
<text x="594" y="165" class="s8_48">x</text>
<text x="605" y="165" dx="0,4.6" class="sc_48">.2</text>
<text x="635" y="165" class="s7_48">1</text>
<text x="287" y="199" dx="0,0,-.4,0,0,0,0,0,0" class="s7_48">Evaluate </text>
<text x="346" y="199" class="s8_48">f</text>
<text x="352" y="199" class="s9_48">s</text>
<text x="357" y="199" class="sc_48">2</text>
<text x="370" y="199" class="s7_48">2</text>
<text x="378" y="199" class="s9_48">d</text>
<text x="383" y="199" class="s7_48">, </text>
<text x="393" y="199" class="s8_48">f</text>
<text x="399" y="199" class="s9_48">s</text>
<text x="404" y="199" class="sc_48">2</text>
<text x="417" y="199" class="s7_48">1</text>
<text x="425" y="199" class="s9_48">d</text>
<text x="430" y="199" class="s7_48">, and </text>
<text x="466" y="199" class="s8_48">f</text>
<text x="472" y="199" class="s9_48">s</text>
<text x="477" y="199" class="s7_48">0</text>
<text x="485" y="199" class="s9_48">d</text>
<text x="494" y="199" dx="0,0,0,0,0,0,-.2,0,0,0,0,0,0,0,0,0,0,0,0,0,0" class="s7_48">and sketch the graph.</text>
<text x="287" y="226" dx="0,.3,.3,.3,.3,.3,.3,.3,.1" class="se_48">SOLUTION </text>
<text x="358" y="226" dx="0,0,0,0,0,0,0,0,0,0,0,0,0,0,0,0,0,0,0,0,0,0,0,0,0,0,0,0,0,0,0,0,0,0,0,0,0,-.2,0,0,0,0,0,0,0,0,0,0,0,0,0,0,0,0,0,0,0,0,0,0,0,0,0,0,0,0,0,0,0,0,0,0,0,0,0,0,0" class="s7_48">Remember that a function is a rule. For this particular function the rule is </text>
<text x="287" y="245" dx="0,0,0,0,0,0,0,0,0,-.4,0,0,0,0,0,0,0,0,0,0,0,0,0,0,0,0,0,0,0,0,0,0,0,0,-.4,0,0,0,0,0,0,0,0,0,0,0,0,0,0,0,0,0" class="s7_48">the following: First look at the value of the input </text>
<text x="588" y="245" class="s8_48">x</text>
<text x="595" y="245" class="s7_48">. ±f it happens that </text>
<text x="709" y="245" class="s8_48">x</text>
<text x="721" y="245" dx="0,4.6" class="sc_48">&lt;2</text>
<text x="751" y="245" class="s7_48">1, then the </text>
<text x="287" y="263" dx="0,-.4,0,0,0,0,0,0,0" class="s7_48">value of </text>
<text x="342" y="263" class="s8_48">f</text>
<text x="349" y="263" class="s9_48">s</text>
<text x="354" y="263" class="s8_48">x</text>
<text x="361" y="263" class="s9_48">d</text>
<text x="370" y="263" class="s7_48">is 1</text>
<text x="396" y="263" class="sc_48">2</text>
<text x="414" y="263" class="s8_48">x</text>
<text x="420" y="263" class="s7_48">. On the other hand, if </text>
<text x="559" y="263" class="s8_48">x</text>
<text x="570" y="263" dx="0,4.6" class="sc_48">.2</text>
<text x="600" y="263" dx="0,0,0,0,0,0,0,0,0,0,0,0,0,-.4,0,0,0,0,0,0,0" class="s7_48">1, then the value of </text>
<text x="724" y="263" class="s8_48">f</text>
<text x="730" y="263" class="s9_48">s</text>
<text x="736" y="263" class="s8_48">x</text>
<text x="743" y="263" class="s9_48">d</text>
<text x="752" y="263" class="s7_48">is </text>
<text x="766" y="263" class="s8_48">x</text>
<text x="774" y="257" class="sd_48">2</text>
<text x="779" y="263" class="s7_48">.</text>
<text x="397" y="295" class="s7_48">Since </text>
<text x="435" y="295" class="sc_48">2</text>
<text x="448" y="295" class="s7_48">2</text>
<text x="460" y="295" dx="0,4.6" class="sc_48">&lt;2</text>
<text x="490" y="295" dx="0,0,0,0,0,0,0,0,0,0,1.2" class="s7_48">1, we have </text>
<text x="561" y="295" class="s8_48">f</text>
<text x="567" y="295" class="s9_48">s</text>
<text x="572" y="295" class="sc_48">2</text>
<text x="585" y="295" class="s7_48">2</text>
<text x="592" y="295" class="s9_48">d</text>
<text x="602" y="295" class="sa_48">-</text>
<text x="619" y="295" class="s7_48">1</text>
<text x="631" y="295" class="sc_48">2</text>
<text x="649" y="295" class="s9_48">s</text>
<text x="654" y="295" class="sc_48">2</text>
<text x="666" y="295" class="s7_48">2</text>
<text x="674" y="295" class="s9_48">d</text>
<text x="684" y="295" class="sa_48">-</text>
<text x="701" y="295" class="s7_48">3.</text>
<text x="397" y="330" class="s7_48">Since </text>
<text x="435" y="330" class="sc_48">2</text>
<text x="448" y="330" class="s7_48">1</text>
<text x="460" y="330" dx="0,4.6" class="sc_48">&lt;2</text>
<text x="490" y="330" dx="0,0,0,0,0,0,0,0,0,0,1.2" class="s7_48">1, we have </text>
<text x="561" y="330" class="s8_48">f</text>
<text x="567" y="330" class="s9_48">s</text>
<text x="572" y="330" class="sc_48">2</text>
<text x="585" y="330" class="s7_48">1</text>
<text x="592" y="330" class="s9_48">d</text>
<text x="602" y="330" class="sa_48">-</text>
<text x="619" y="330" class="s7_48">1</text>
<text x="631" y="330" class="sc_48">2</text>
<text x="649" y="330" class="s9_48">s</text>
<text x="654" y="330" class="sc_48">2</text>
<text x="666" y="330" class="s7_48">1</text>
<text x="674" y="330" class="s9_48">d</text>
<text x="684" y="330" class="sa_48">-</text>
<text x="701" y="330" class="s7_48">2.</text>
<text x="397" y="365" class="s7_48">Since 0</text>
<text x="447" y="365" dx="0,4.6" class="sc_48">.2</text>
<text x="477" y="365" dx="0,0,0,0,0,0,0,0,0,0,1.2" class="s7_48">1, we have </text>
<text x="548" y="365" class="s8_48">f</text>
<text x="554" y="365" class="s9_48">s</text>
<text x="559" y="365" class="s7_48">0</text>
<text x="567" y="365" class="s9_48">d</text>
<text x="576" y="365" class="sa_48">-</text>
<text x="594" y="365" class="s7_48">0</text>
<text x="602" y="359" class="sd_48">2</text>
<text x="611" y="365" class="sa_48">-</text>
<text x="628" y="365" class="s7_48">0.</text>
<text x="305" y="396" dx="0,0,-.4,0,0,0,0,0,0,0,0,0,0,-.2,0,0,0,0,0,0,0,0,0,0,0,0,0,0" class="s7_48">How do we draw the graph of </text>
<text x="493" y="396" class="s8_48">f</text>
<text x="499" y="396" dx="0,0,-.5,-1.2,0,0,0,0,0,0,0,-.2,0,0,0,0,0,0,0,0,0" class="s7_48">? We observe that if </text>
<text x="625" y="396" class="s8_48">x</text>
<text x="636" y="396" dx="0,4.6" class="sc_48">&lt;2</text>
<text x="666" y="396" class="s7_48">1, then </text>
<text x="714" y="396" class="s8_48">f</text>
<text x="720" y="396" class="s9_48">s</text>
<text x="726" y="396" class="s8_48">x</text>
<text x="733" y="396" class="s9_48">d</text>
<text x="742" y="396" class="sa_48">-</text>
<text x="760" y="396" class="s7_48">1</text>
<text x="772" y="396" class="sc_48">2</text>
<text x="789" y="396" class="s8_48">x</text>
<text x="796" y="396" class="s7_48">, </text>
<text x="287" y="414" class="s7_48">so the part of the graph of </text>
<text x="451" y="414" class="s8_48">f</text>
<text x="461" y="414" dx="0,0,0,0,0,0,0,0,0,0,0,0,0,0,0,0,0,0,0,0,0,0,0,0,0,0,0,0,0,0,-.2,0,0,0,0,0,0,0,0,0,0,0,0" class="s7_48">that lies to the left of the vertical line </text>
<text x="691" y="414" class="s8_48">x</text>
<text x="702" y="414" class="sa_48">-</text>
<text x="719" y="414" class="sc_48">2</text>
<text x="732" y="414" class="s7_48">1 must coin-</text>
<text x="287" y="433" class="s7_48">cide with the line </text>
<text x="397" y="433" class="s8_48">y</text>
<text x="408" y="433" class="sa_48">-</text>
<text x="425" y="433" class="s7_48">1</text>
<text x="438" y="433" class="sc_48">2</text>
<text x="455" y="433" class="s8_48">x</text>
<text x="462" y="433" class="s7_48">, which has slope </text>
<text x="571" y="433" class="sc_48">2</text>
<text x="583" y="433" class="s7_48">1 and </text>
<text x="621" y="433" class="s8_48">y</text>
<text x="628" y="433" class="s7_48">-intercept 1. ±f </text>
<text x="720" y="433" class="s8_48">x</text>
<text x="731" y="433" dx="0,4.6" class="sc_48">.2</text>
<text x="761" y="433" class="s7_48">1, </text>
<text x="287" y="451" class="s7_48">then </text>
<text x="319" y="451" class="s8_48">f</text>
<text x="326" y="451" class="s9_48">s</text>
<text x="331" y="451" class="s8_48">x</text>
<text x="338" y="451" class="s9_48">d</text>
<text x="348" y="451" class="sa_48">-</text>
<text x="365" y="451" class="s8_48">x</text>
<text x="373" y="445" class="sd_48">2</text>
<text x="378" y="451" class="s7_48">, so the part of the graph of </text>
<text x="550" y="451" class="s8_48">f</text>
<text x="560" y="451" class="s7_48">that lies to the right of the line </text>
<text x="749" y="451" class="s8_48">x</text>
<text x="760" y="451" class="sa_48">-</text>
<text x="777" y="451" class="sc_48">2</text>
<text x="790" y="451" class="s7_48">1 </text>
<text x="287" y="469" class="s7_48">must coincide with the graph of </text>
<text x="485" y="469" class="s8_48">y</text>
<text x="496" y="469" class="sa_48">-</text>
<text x="514" y="469" class="s8_48">x</text>
<text x="522" y="463" class="sd_48">2</text>
<text x="526" y="469" dx="0,0,0,0,0,0,0,0,0,0,0,0,0,0,0,0,0,0,0,0,0,0,0,-.3,0,0,0,0,0,0,0,0,0,0,0,0,0,0,0,0,0,0,0,0,-.2,0,0,0,0" class="s7_48">, which is a parabola. This enables us to sketch </text>
<text x="287" y="488" dx="0,0,0,0,0,0,0,0,0,0,0,0,0,0,0,0,0,0,0,0,0,0,0,0,-.3,0,0,0,0,0,0,0,0,0,0,0,0,0,0,0,0,0,0,0,0,0,0,0,0,0,0,0,0,0,0,0,0,0,0,0,0,0,0" class="s7_48">the graph in Figure 15. The solid dot indicates that the point </text>
<text x="657" y="488" class="s9_48">s</text>
<text x="662" y="488" class="sc_48">2</text>
<text x="675" y="488" class="s7_48">1, 2</text>
<text x="698" y="488" class="s9_48">d</text>
<text x="707" y="488" class="s7_48">is included on the </text>
<text x="287" y="506" class="s7_48">graph; the open dot indicates that the point </text>
<text x="552" y="506" class="s9_48">s</text>
<text x="557" y="506" class="sc_48">2</text>
<text x="569" y="506" dx="0,0,0,-.8" class="s7_48">1, 1</text>
<text x="591" y="506" class="s9_48">d</text>
<text x="600" y="506" dx="0,0,0,0,-.2,0,0,0,0,0,0,0,0,0,0,0,0,0,0,0,0,0,0,0,0,0,0,0" class="s7_48">is excluded from the graph. </text>
<text x="813" y="506" class="sf_48">■</text>
<text x="305" y="543" dx="0,0,0,0,2.4,0,-.2,0,0,2.4,-.2,0,0,0,0,0,0,2.4,0,0,2.4,0,2.4,0,0,0,0,-.4,0,0,0,0,2.4,0,0,0,0,0,0,2.4,0,0,0,0,0,0,0,0,2.4,0,0,2.4,0,0,0,2.4,0,0,0,0,0,0,0,0,2.4,-.4,0,0,0,0,2.4,0,0,0,0,0,0,0,0,0" class="s7_48">The next example of a piecewise deIned function is the absolute value function. </text>
<text x="287" y="561" dx="0,0,0,0,0,0,0,-.2,0,0,0,0,-.2,0,0,0" class="s7_48">Recall that the </text>
<text x="378" y="561" dx="0,0,0,0,0,0,0,0,0,-.2,-.2,0,0,0,0" class="sg_48">absolute value </text>
<text x="474" y="561" dx="0,0,0,-.2,0,-.2,0,0,0,0,0,0" class="s7_48">of a number </text>
<text x="551" y="561" class="s8_48">a</text>
<text x="559" y="561" dx="0,0,-.2,0,0,0,0,0,0,0,-.2,0,0" class="s7_48">, denoted by </text>
<text transform="matrix(0.63,0,0,1,637,565)" class="sh_48">|</text>
<text x="644" y="561" class="s8_48">a</text>
<text transform="matrix(0.63,0,0,1,654,565)" class="sh_48">|</text>
<text x="658" y="561" dx="0,0,-.2,0,0,-.2,0,0,0,-.2,0,0,0,0,0,0,0,0,-.2,0,0,0,0" class="s7_48">, is the distance from </text>
<text x="789" y="561" class="s8_48">a</text>
<text x="800" y="561" dx="0,0,0,-.2,0" class="s7_48">to 0 </text>
<text x="287" y="579" dx="0,0,0,0,0,0,0,0,0,0,0,0,0,0,0,0,0,0,0,0,0,0,0,0,0,0,0,0,0,0,0,0,0,0,0,0,0,0,0,0,0,-.2,-.2,0,0,0,0,0,0,0,0,0,-.4,-.2,0,0,0,0,0,0,0,0,0,0,0,0,0,0,0,-.3,-.2" class="s7_48">on the real number line. Distances are always positive or 0, so we have</text>
<text transform="matrix(0.63,0,0,1,456,620)" class="sh_48">|</text>
<text x="463" y="616" class="s8_48">a</text>
<text transform="matrix(0.63,0,0,1,472,620)" class="sh_48">|</text>
<text x="481" y="616" class="sc_48">&gt;</text>
<text x="499" y="616" class="s7_48">0 </text>
<text x="537" y="616" dx="0,0,0,0,0,-.4,-.2,0,0,0,0,0,0,0,0,0,0" class="s7_48">for every number </text>
<text x="646" y="616" class="s8_48">a</text>
<text x="287" y="646" dx="0,-.2,0,0,0,-.2,0,0,0,0,0,0" class="s7_48">For example,</text>
<text transform="matrix(0.63,0,0,1,302,681)" class="sh_48">|</text>
<text x="309" y="677" class="s7_48">3</text>
<text transform="matrix(0.63,0,0,1,319,681)" class="sh_48">|</text>
<text x="327" y="677" class="sa_48">-</text>
<text x="345" y="677" class="s7_48">3 </text>
<text transform="matrix(0.63,0,0,1,375,681)" class="sh_48">|</text>
<text x="382" y="677" class="sc_48">2</text>
<text x="394" y="677" class="s7_48">3</text>
<text transform="matrix(0.63,0,0,1,404,681)" class="sh_48">|</text>
<text x="413" y="677" class="sa_48">-</text>
<text x="430" y="677" class="s7_48">3 </text>
<text transform="matrix(0.63,0,0,1,461,681)" class="sh_48">|</text>
<text x="467" y="677" class="s7_48">0</text>
<text transform="matrix(0.63,0,0,1,477,681)" class="sh_48">|</text>
<text x="486" y="677" class="sa_48">-</text>
<text x="503" y="677" class="s7_48">0 </text>
<text transform="matrix(0.63,0,0,1,534,681)" class="sh_48">|</text>
<text x="540" y="678" class="si_48">s</text>
<text x="552" y="677" class="s7_48">2</text>
<path d="M552.6,663.9h10.1" class="g0_48"/>
<text x="566" y="677" class="sc_48">2</text>
<text x="584" y="677" class="s7_48">1</text>
<text transform="matrix(0.63,0,0,1,594,681)" class="sh_48">|</text>
<text x="602" y="677" class="sa_48">-</text>
<text x="620" y="678" class="si_48">s</text>
<text x="631" y="677" class="s7_48">2</text>
<path d="M631.8,663.9h10" class="g0_48"/>
<text x="646" y="677" class="sc_48">2</text>
<text x="663" y="677" class="s7_48">1 </text>
<text transform="matrix(0.63,0,0,1,693,681)" class="sh_48">|</text>
<text x="700" y="677" class="s7_48">3</text>
<text x="712" y="677" class="sc_48">2</text>
<text x="729" y="677" class="sj_48">°</text>
<text transform="matrix(0.63,0,0,1,742,681)" class="sh_48">|</text>
<text x="751" y="677" class="sa_48">-</text>
<text x="768" y="677" class="sj_48">°</text>
<text x="783" y="677" class="sc_48">2</text>
<text x="800" y="677" class="s7_48">3</text>
<text x="287" y="711" dx="0,0,0,0,0,0,0,0,0,0,0,0,0,0,0,0,0,-.3,-.2" class="s7_48">±n general, we have</text>
<text transform="matrix(0.63,0,0,1,488,753)" class="sh_48">|</text>
<text x="494" y="749" class="s8_48">a</text>
<text transform="matrix(0.63,0,0,1,504,753)" class="sh_48">|</text>
<text x="513" y="749" class="sa_48">-</text>
<text x="530" y="749" class="s8_48">a</text>
<text x="566" y="749" class="s7_48">if </text>
<text x="583" y="749" class="s8_48">a</text>
<text x="595" y="749" class="sc_48">&gt;</text>
<text x="612" y="749" class="s7_48">0</text>
<text transform="matrix(0.63,0,0,1,488,780)" class="sh_48">|</text>
<text x="494" y="776" class="s8_48">a</text>
<text transform="matrix(0.63,0,0,1,504,780)" class="sh_48">|</text>
<text x="513" y="776" class="sa_48">-</text>
<text x="530" y="776" class="sc_48">2</text>
<text x="543" y="776" class="s8_48">a</text>
<text x="566" y="776" class="s7_48">if </text>
<text x="583" y="776" class="s8_48">a</text>
<text x="595" y="776" class="sc_48">,</text>
<text x="612" y="776" class="s7_48">0</text>
<path d="M448,726.8c0,0,-3,0,-3,3.1v57.3c0,0,0,3,3,3H662.7c0,0,3,0,3,-3V729.9c0,0,0,-3.1,-3,-3.1H448Z" class="g1_48"/>
<text x="287" y="824" class="s7_48">(Remember that if </text>
<text x="403" y="824" class="s8_48">a</text>
<text x="414" y="824" dx="0,0,0,0,0,-.2,-.1,0,0,-.4,-.2,0,0,0,0,0,0,0" class="s7_48">is negative, then </text>
<text x="517" y="824" class="sc_48">2</text>
<text x="529" y="824" class="s8_48">a</text>
<text x="541" y="824" dx="0,0,0,0,0,0,0,0,0,-.4,-.2,0,0" class="s7_48">is positive.)</text>
<text x="287" y="861" dx="0,.3,.3,.3,.3,.3,.3,.2,0" class="s5_48">EXAMPLE 8</text>
<text x="376" y="861" dx="0,0,-.2,0,0,0,0,0,0,0,0,0,0,0,0,0,0,0,0,0,0,0,0,0,0,0,0,0,0,0,0,0,0,0,-.4,0,0,0,0,0,0,0,0,0,0,0,0,0" class="s7_48">Sketch the graph of the absolute value function </text>
<text x="669" y="861" class="s8_48">f</text>
<text x="676" y="861" class="s9_48">s</text>
<text x="682" y="861" class="s8_48">x</text>
<text x="688" y="861" class="s9_48">d</text>
<text x="698" y="861" class="sa_48">-</text>
<text transform="matrix(0.63,0,0,1,715,865)" class="sh_48">|</text>
<text x="722" y="861" class="s8_48">x</text>
<text transform="matrix(0.63,0,0,1,731,865)" class="sh_48">|</text>
<text x="735" y="861" class="s7_48">.</text>
<text x="287" y="888" dx="0,.3,.3,.3,.3,.3,.3,.3,.1" class="se_48">SOLUTION </text>
<text x="358" y="888" dx="0,0,0,0,0,0,0,0,0,0,0,0,0,0,0,0,0,0,0,0,0,0,0,0,0,0,0,0,0,0,0,0,0,0,0,0,-.4,0,0,0,0,0" class="s7_48">From the preceding discussion we know that</text>
<text transform="matrix(0.63,0,0,1,485,936)" class="sh_48">|</text>
<text x="491" y="933" class="s8_48">x</text>
<text transform="matrix(0.63,0,0,1,500,936)" class="sh_48">|</text>
<text x="509" y="933" class="sa_48">-</text>
<text x="526" y="935" class="sb_48">H</text>
<text x="537" y="922" class="s8_48">x</text>
<text x="537" y="943" class="sc_48">2</text>
<text x="550" y="943" class="s8_48">x</text>
<text x="572" y="922" class="s7_48">if </text>
<text x="589" y="922" class="s8_48">x</text>
<text x="600" y="922" class="sc_48">&gt;</text>
<text x="617" y="922" class="s7_48">0</text>
<text x="572" y="943" class="s7_48">if </text>
<text x="589" y="943" class="s8_48">x</text>
<text x="600" y="943" class="sc_48">,</text>
<text x="617" y="943" class="s7_48">0</text>
<text x="287" y="978" class="s7_48">Using the same method as in Example 7, we see that the graph of </text>
<text x="692" y="978" class="s8_48">f</text>
<text x="702" y="978" class="s7_48">coincides with the </text>
<text x="287" y="997" class="s7_48">line </text>
<text x="314" y="997" class="s8_48">y</text>
<text x="325" y="997" class="sa_48">-</text>
<text x="343" y="997" class="s8_48">x</text>
<text x="353" y="997" class="s7_48">to the right of the </text>
<text x="464" y="997" class="s8_48">y</text>
<text x="470" y="997" class="s7_48">-axis and coincides with the line </text>
<text x="672" y="997" class="s8_48">y</text>
<text x="683" y="997" class="sa_48">-</text>
<text x="701" y="997" class="sc_48">2</text>
<text x="713" y="997" class="s8_48">x</text>
<text x="724" y="997" class="s7_48">to the left of the </text>
<text x="287" y="1015" class="s8_48">y</text>
<text x="294" y="1015" class="s7_48">-axis (see Figure 16). </text>
<text x="813" y="1015" class="sf_48">■</text>
<text x="116" y="422" class="sk_48">1</text>
<path d="M90.5,382.8L53.8,349.2" class="g2_48"/>
<path d="M162.1,419.5c0,-1,.7,-1.7,1.7,-1.7c.9,0,1.7,.7,1.7,1.7c0,.9,-.8,1.7,-1.7,1.7c-1,0,-1.7,-.8,-1.7,-1.7Z" class="g3_48"/>
<path d="M88.7,382.8c0,-.9,.8,-1.7,1.8,-1.7c.9,0,1.7,.8,1.7,1.7c0,1,-.8,1.7,-1.7,1.7c-1,0,-1.8,-.7,-1.8,-1.7Z" class="g4_48"/>
<path d="M88.7,382.8c0,-.9,.8,-1.7,1.8,-1.7c.9,0,1.7,.8,1.7,1.7c0,1,-.8,1.7,-1.7,1.7c-1,0,-1.8,-.7,-1.8,-1.7Z" class="g5_48"/>
<path d="M53.8,456.1H200.5" class="g6_48"/>
<path fill-rule="evenodd" d="M200.5,456.1l-1.7,-2.4l6.5,2.4l-6.5,2.5Z" class="g7_48"/>
<path d="M127.1,479V346.1" class="g6_48"/>
<path fill-rule="evenodd" d="M127.1,346.1l-2.4,1.7l2.4,-6.5l2.5,6.5Z" class="g7_48"/>
<text x="199" y="468" class="sl_48">x</text>
<text x="115" y="347" class="sm_48">y</text>
<text x="162" y="472" class="sm_48">1</text>
<text x="84" y="472" class="sm_48">_1</text>
<path d="M163.8,453.1v6.1M90.5,453.1v6.1m33.6,-39.7h6.1" class="g6_48"/>
<text x="119" y="466" class="sn_48">0</text>
<g clip-path="url(#c0_48)">
<path d="M90.6,419.3c32.2,65.7,67.3,42.7,97.6,-69.6" class="g2_48"/>
</g>
<path d="M88.7,419.5c0,-1,.8,-1.7,1.8,-1.7c.9,0,1.7,.7,1.7,1.7c0,.9,-.8,1.7,-1.7,1.7c-1,0,-1.8,-.8,-1.8,-1.7Z" class="g3_48"/>
<path d="M88.7,419.5c0,-1,.8,-1.7,1.8,-1.7c.9,0,1.7,.7,1.7,1.7c0,.9,-.8,1.7,-1.7,1.7c-1,0,-1.8,-.8,-1.8,-1.7Z" class="g5_48"/>
<text x="53" y="506" dx="0,.3,.3,.3,.3,.3,.1" class="so_48">FIGURE </text>
<text x="106" y="506" class="sp_48">15</text>
<text x="53" y="607" dx="0,-.2,0,0,0,0,0,0,0,0,0,0,-.2,0,0,0,0,0,-.3,-.2,0,0,0,-.3,0,0,-.3,0,0,0,0" class="sq_48">For a more extensive review of </text>
<text x="53" y="623" dx="0,0,0,0,0,0,0,0,0,0,-.3,0,0,0,0,0,0,0,0,0,0,-.8,0,0,0,0,0,0,0,0,-.8,0" class="sq_48">absolute values, see Appendix A.</text>
<path d="M128.6,965.8l73.3,-73.4m-73.3,73.4L55.3,892.5" class="g2_48"/>
<text x="200" y="978" class="sr_48">x</text>
<text x="150" y="896" class="ss_48">y=</text>
<text x="171" y="896" dx="0,1.9,1.9" class="st_48">|x|</text>
<text x="118" y="978" class="sr_48">0</text>
<text x="117" y="875" class="sm_48">y</text>
<path d="M55.2,965.7H201.9" class="g6_48"/>
<path fill-rule="evenodd" d="M201.9,965.7l-1.6,-2.4l6.5,2.4l-6.5,2.5Z" class="g7_48"/>
<path d="M128.6,988.3V874.1" class="g6_48"/>
<path fill-rule="evenodd" d="M128.6,874.1l-2.5,1.6l2.5,-6.5l2.4,6.5Z" class="g7_48"/>
<text x="54" y="1015" dx="0,.3,.3,.3,.3,.3,.1" class="so_48">FIGURE </text>
<text x="106" y="1015" class="sp_48">16</text>
<text x="121" y="1076" class="su_48">Copyright 2016 Cengage Learning. All Rights Reserved. May not be copied, scanned, or duplicated, in whole or in part. Due to electronic rights, some third party content may be suppressed from the eBook and/or eChapter(s).</text>
<text x="106" y="1087" class="su_48">Editorial review has deemed that any suppressed content does not materially affect the overall learning experience. Cengage Learning reserves the right to remove additional content at any time if subsequent rights restrictions require it.</text>

</g>

<!-- Any embedded fonts defined here -->
<style type="text/css" ><![CDATA[

@font-face {
	font-family: BeaconDingbatsTypeOne_12w;
	src: url("fonts/BeaconDingbatsTypeOne_12w.woff") format("woff");
}

@font-face {
	font-family: MathematicalPi-One-Italic_x2;
	src: url("fonts/MathematicalPi-One-Italic_x2.woff") format("woff");
}

@font-face {
	font-family: MathematicalPiLTStd-1_rr;
	src: url("fonts/MathematicalPiLTStd-1_rr.woff") format("woff");
}

@font-face {
	font-family: MathematicalPiLTStd-3_ry;
	src: url("fonts/MathematicalPiLTStd-3_ry.woff") format("woff");
}

@font-face {
	font-family: MathematicalPiLTStd-5_vb;
	src: url("fonts/MathematicalPiLTStd-5_vb.woff") format("woff");
}

@font-face {
	font-family: MyriadPro-BoldSemiCn_90;
	src: url("fonts/MyriadPro-BoldSemiCn_90.woff") format("woff");
}

@font-face {
	font-family: MyriadPro-Bold_74;
	src: url("fonts/MyriadPro-Bold_74.woff") format("woff");
}

@font-face {
	font-family: MyriadPro-Regular_4i;
	src: url("fonts/MyriadPro-Regular_4i.woff") format("woff");
}

@font-face {
	font-family: MyriadPro-Semibold_49;
	src: url("fonts/MyriadPro-Semibold_49.woff") format("woff");
}

@font-face {
	font-family: TECHMath-Mix_139;
	src: url("fonts/TECHMath-Mix_139.woff") format("woff");
}

@font-face {
	font-family: TECHMath-Mix_13r;
	src: url("fonts/TECHMath-Mix_13r.woff") format("woff");
}

@font-face {
	font-family: TECHMath-Mix_14o;
	src: url("fonts/TECHMath-Mix_14o.woff") format("woff");
}

@font-face {
	font-family: TECHMath-Mix_151;
	src: url("fonts/TECHMath-Mix_151.woff") format("woff");
}

@font-face {
	font-family: TECHMath-Mix__v;
	src: url("fonts/TECHMath-Mix__v.woff") format("woff");
}

@font-face {
	font-family: Times-Roman_4n;
	src: url("fonts/Times-Roman_4n.woff") format("woff");
}

@font-face {
	font-family: TimesLTStd-Bold_oh;
	src: url("fonts/TimesLTStd-Bold_oh.woff") format("woff");
}

@font-face {
	font-family: TimesLTStd-Italic_o3;
	src: url("fonts/TimesLTStd-Italic_o3.woff") format("woff");
}

@font-face {
	font-family: TimesLTStd-Roman_143;
	src: url("fonts/TimesLTStd-Roman_143.woff") format("woff");
}

@font-face {
	font-family: ZapfDingbatsITC_my;
	src: url("fonts/ZapfDingbatsITC_my.woff") format("woff");
}

]]></style>

</svg>
