<?xml version="1.0" encoding="UTF-8" standalone="no"?>
<!DOCTYPE svg PUBLIC "-//W3C//DTD SVG 1.1//EN"
"http://www.w3.org/Graphics/SVG/1.1/DTD/svg11.dtd">


<!-- Page 49 -->
<svg x="0" y="0" width="931" height="1096" viewBox="0 0 931 1096" version="1.1" xmlns="http://www.w3.org/2000/svg" xmlns:xlink="http://www.w3.org/1999/xlink"
style="display: block;margin-left: auto;margin-right: auto;">
<defs>
<clipPath id="c_49"><path d="M0,0H931V1096H0Z"/></clipPath>
<clipPath id="c0_49"><path d="M567.6,678.4V564.7h6.3V678.4Z"/></clipPath>

<style type="text/css"><![CDATA[
text { white-space: pre; }
path, image { pointer-events: none; }

.s1_49{
font-size: 12.22px;
font-family: MyriadPro-Semibold_49;
fill: #231F20;
}
.s2_49{
font-size: 13.75px;
font-family: MyriadPro-Semibold_49;
fill: #231F20;
}
.s3_49{
font-size: 12.22px;
font-family: MyriadPro-Regular_4i;
fill: #231F20;
}
.s4_49{
font-size: 15.28px;
font-family: MyriadPro-Semibold_49;
fill: #231F20;
}
.s5_49{
font-size: 13.75px;
font-family: TimesLTStd-Roman_143;
fill: #231F20;
}
.s6_49{
font-size: 13.75px;
font-family: TimesLTStd-Italic_o3;
fill: #231F20;
}
.s7_49{
font-size: 13.75px;
font-family: MathematicalPiLTStd-1_rr;
fill: #231F20;
}
.s8_49{
font-size: 8.25px;
font-family: TimesLTStd-Roman_143;
fill: #231F20;
}
.s9_49{
font-size: 13.75px;
font-family: MathematicalPiLTStd-5_vb;
fill: #231F20;
}
.sa_49{
font-size: 13.75px;
font-family: MathematicalPiLTStd-3_ry;
fill: #231F20;
}
.sb_49{
font-size: 16.81px;
font-family: MyriadPro-BoldSemiCn_90;
fill: #EC008C;
}
.sc_49{
font-size: 17.57px;
font-family: MyriadPro-BoldSemiCn_90;
fill: #EC008C;
}
.sd_49{
font-size: 15.28px;
font-family: TimesLTStd-Roman_143;
fill: #231F20;
}
.se_49{
font-size: 15.28px;
font-family: TimesLTStd-Italic_o3;
fill: #231F20;
}
.sf_49{
font-size: 13.75px;
font-family: MyriadPro-Semibold_49;
fill: #EC008C;
}
.sg_49{
font-size: 15.28px;
font-family: MathematicalPiLTStd-3_ry;
fill: #231F20;
}
.sh_49{
font-size: 15.28px;
font-family: MathematicalPiLTStd-5_vb;
fill: #231F20;
}
.si_49{
font-size: 15.28px;
font-family: MathematicalPiLTStd-1_rr;
fill: #231F20;
}
.sj_49{
font-size: 73.33px;
font-family: MathematicalPiLTStd-3_ry;
fill: #231F20;
}
.sk_49{
font-size: 12.99px;
font-family: ZapfDingbatsITC_my;
fill: #EC008C;
}
.sl_49{
font-size: 13.75px;
font-family: CenturyOldStyle-Italic__q;
fill: #231F20;
}
.sm_49{
font-size: 15.28px;
font-family: TimesLTStd-Bold_oh;
fill: #231F20;
}
.sn_49{
font-size: 16.81px;
font-family: MyriadPro-Semibold_49;
fill: #231F20;
}
.so_49{
font-size: 9.17px;
font-family: TimesLTStd-Roman_143;
fill: #231F20;
}
.sp_49{
font-size: 12.22px;
font-family: TECHMath-Mix_139;
fill: #231F20;
}
.sq_49{
font-size: 12.22px;
font-family: TECHMath-Mix_151;
fill: #231F20;
}
.sr_49{
font-size: 12.22px;
font-family: TECHMath-Mix_13x;
fill: #231F20;
}
.ss_49{
font-size: 12.22px;
font-family: TECHMath-Mix_x7;
fill: #231F20;
}
.st_49{
font-size: 14.51px;
font-family: MyriadPro-Bold_74;
fill: #231F20;
}
.su_49{
font-size: 15.28px;
font-family: MyriadPro-Bold_74;
fill: #231F20;
}
.sv_49{
font-size: 12.22px;
font-family: TECHMath-Mix_12-;
fill: #231F20;
}
.sw_49{
font-size: 12.22px;
font-family: TECHMath-Mix_14o;
fill: #231F20;
}
.sx_49{
font-size: 12.22px;
font-family: TECHMath-Mix_15e;
fill: #231F20;
}
.sy_49{
font-size: 12.99px;
font-family: TECHMath-Mix_15e;
fill: #231F20;
}
.sz_49{
font-size: 12.22px;
font-family: TECHMath-Mix_157;
fill: #231F20;
}
.s10_49{
font-size: 12.22px;
font-family: MATH_13_;
fill: #231F20;
}
.s11_49{
font-size: 7.64px;
font-family: Times-Roman_4n;
fill: #000000;
}

.g0_49{
fill: #231F20;
}
.g1_49{
fill: #CC017A;
}
.g2_49{
fill: #FFFFFF;
}
.g3_49{
fill: none;
stroke: #8A8C8E;
stroke-width: 0.534;
stroke-linecap: butt;
stroke-linejoin: miter;
stroke-miterlimit: 3;
}
.g4_49{
fill: none;
stroke: #EC008C;
stroke-width: 0.916;
stroke-linecap: butt;
stroke-linejoin: round;
stroke-miterlimit: 3;
}
.g5_49{
fill: none;
stroke: #231F20;
stroke-width: 0.611;
stroke-linecap: butt;
stroke-linejoin: miter;
stroke-miterlimit: 3;
}
.g6_49{
fill: none;
stroke: #FFFFFF;
stroke-width: 1.527;
stroke-linecap: butt;
stroke-linejoin: miter;
stroke-miterlimit: 4;
}
.g7_49{
fill: none;
stroke: #00AEEF;
stroke-width: 0.916;
stroke-linecap: butt;
stroke-linejoin: round;
stroke-miterlimit: 3;
}
.g8_49{
fill: none;
stroke: #EC008C;
stroke-width: 0.534;
stroke-linecap: butt;
stroke-linejoin: miter;
stroke-miterlimit: 3;
}
.g9_49{
fill: none;
stroke: #EC008C;
stroke-width: 0.763;
stroke-linecap: butt;
stroke-linejoin: round;
stroke-miterlimit: 3;
}
.ga_49{
fill: #00AEEF;
}
.gb_49{
fill: none;
stroke: #00AEEF;
stroke-width: 0.763;
stroke-linecap: butt;
stroke-linejoin: miter;
stroke-miterlimit: 3;
}
.gc_49{
fill: none;
stroke: #231F20;
stroke-width: 0.534;
stroke-linecap: butt;
stroke-linejoin: miter;
stroke-miterlimit: 3;
}
.gd_49{
fill: none;
stroke: #00AEEF;
stroke-width: 1.069;
stroke-linecap: butt;
stroke-linejoin: round;
stroke-miterlimit: 3;
}

]]></style>

</defs>
<g clip-path="url(#c_49)">
<path d="M0,0
L0,1096
L931,1096
L931,0 Z " 
fill="#FFFFFF" stroke="none"/>
<text x="544" y="64" dx="0,.2,.2,.5,.2,.2,.2" class="s1_49">SECTION</text>
<text x="596" y="64" class="s2_49">1.1</text>
<text x="626" y="64" dx="0,-.3,.1,.1,.1,-.3,-.3,0,0,.1,.1,0,.1,.1,.2,.1,.1,0,.1,.1,.1,.1,.1,.1,.1,.1,-.3,.1,.1,.3,.1,.1,.1,.1" class="s3_49">Four Ways to Represent a Function </text>
<text x="862" y="64" class="s4_49">17</text>
<text x="108" y="271" class="s5_49">Point-slope form of the equation of </text>
<text x="108" y="288" class="s5_49">a line:</text>
<text x="161" y="306" class="s6_49">y</text>
<text x="171" y="306" class="s7_49">2</text>
<text x="187" y="306" class="s6_49">y</text>
<text x="193" y="307" class="s8_49">1</text>
<text x="201" y="306" class="s9_49">-</text>
<text x="217" y="306" class="s6_49">m</text>
<text x="227" y="306" class="sa_49">s</text>
<text x="232" y="306" class="s6_49">x</text>
<text x="242" y="306" class="s7_49">2</text>
<text x="258" y="306" class="s6_49">x</text>
<text x="265" y="307" class="s8_49">1</text>
<text x="271" y="306" class="sa_49">d</text>
<text x="108" y="329" dx="0,0,0,0,-.8,0,0,0,0,0,0,0,0,0,0" class="s5_49">See Appendix B.</text>
<text x="342" y="110" dx="0,.3,.3,.3,.3,.3,.3,.2" class="sb_49">EXAMPLE </text>
<text x="413" y="110" class="sc_49">9</text>
<text x="430" y="110" class="sd_49">Find a formula for the function </text>
<text x="626" y="110" class="se_49">f</text>
<text x="636" y="110" class="sd_49">graphed in Figure 17.</text>
<text x="342" y="138" dx="0,.4,.4,.4,.4,.4,.4,.4,.3" class="sf_49">SOLUTION </text>
<text x="415" y="138" dx="0,.2,.2,.2,.2,.2,.2,.2,.2,.2,.2,.2,.2,.2,.2,.2,.2" class="sd_49">The line through </text>
<text x="523" y="138" class="sg_49">s</text>
<text x="528" y="138" dx="0,0,0,-.8" class="sd_49">0, 0</text>
<text x="550" y="138" class="sg_49">d</text>
<text x="559" y="138" dx="0,.2,.2,.2" class="sd_49">and </text>
<text x="586" y="138" class="sg_49">s</text>
<text x="591" y="138" dx="0,0,0,-.8" class="sd_49">1, 1</text>
<text x="613" y="138" class="sg_49">d</text>
<text x="622" y="138" dx="0,.2,.2,.2,.2,.2,.2,.2,.2,.2" class="sd_49">has slope </text>
<text x="684" y="138" class="se_49">m</text>
<text x="700" y="138" class="sh_49">-</text>
<text x="717" y="138" dx="0,.1,.2,.2,.2,.2" class="sd_49">1 and </text>
<text x="756" y="138" class="se_49">y</text>
<text x="763" y="138" dx="0,.2,.2,.2,.2,.2,.2,.2,.2,.2,.2" class="sd_49">-intercept </text>
<text x="827" y="138" class="se_49">b</text>
<text x="839" y="138" class="sh_49">-</text>
<text x="856" y="138" dx="0,.1,0" class="sd_49">0, </text>
<text x="342" y="156" dx="0,.2,.2,.2,.2,.2,.2,.2,.2,.2,.2,.2,.2,.2,.2,.2,.2,.2,.2" class="sd_49">so its equation is </text>
<text x="451" y="156" class="se_49">y</text>
<text x="463" y="156" class="sh_49">-</text>
<text x="480" y="156" class="se_49">x</text>
<text x="487" y="156" dx="0,.2,-.1,.2,.2,.2,.2,.2,.2,.2,.2,.2,.2,.2,.2,.2,.2,.2,.2,.2,.2,.2,.2,.2,.2,.2,.2,.2,.2,.2,.2,.2,.2,.2,.2,.2,.2" class="sd_49">. Thus, for the part of the graph of </text>
<text x="706" y="156" class="se_49">f</text>
<text x="717" y="156" dx="0,.2,.2,.2,.2,.2,.2,.2,.2,.2,.2" class="sd_49">that joins </text>
<text x="779" y="156" class="sg_49">s</text>
<text x="784" y="156" dx="0,0,0,-.8" class="sd_49">0, 0</text>
<text x="806" y="156" class="sg_49">d</text>
<text x="815" y="156" dx="0,.2,.2" class="sd_49">to </text>
<text x="831" y="156" class="sg_49">s</text>
<text x="836" y="156" dx="0,0,0,-.8" class="sd_49">1, 1</text>
<text x="859" y="156" class="sg_49">d</text>
<text x="864" y="156" class="sd_49">, </text>
<text x="342" y="174" dx="0,.2,.2,.2,.2,-.2,-.1" class="sd_49">we have</text>
<text x="528" y="205" class="se_49">f</text>
<text x="534" y="205" class="sg_49">s</text>
<text x="540" y="205" class="se_49">x</text>
<text x="547" y="205" class="sg_49">d</text>
<text x="556" y="205" class="sh_49">-</text>
<text x="574" y="205" class="se_49">x</text>
<text x="611" y="205" class="sd_49">if </text>
<text x="628" y="205" class="sd_49">0</text>
<text x="640" y="205" class="si_49">&lt;</text>
<text x="658" y="205" class="se_49">x</text>
<text x="670" y="205" class="si_49">&lt;</text>
<text x="687" y="205" class="sd_49">1</text>
<text x="342" y="245" class="sd_49">The line through </text>
<text x="447" y="245" class="sg_49">s</text>
<text x="452" y="245" dx="0,0,0,-.8" class="sd_49">1, 1</text>
<text x="475" y="245" class="sg_49">d</text>
<text x="484" y="245" class="sd_49">and </text>
<text x="509" y="245" class="sg_49">s</text>
<text x="514" y="245" dx="0,0,0,-.8" class="sd_49">2, 0</text>
<text x="537" y="245" class="sg_49">d</text>
<text x="545" y="245" class="sd_49">has slope </text>
<text x="606" y="245" class="se_49">m</text>
<text x="621" y="245" class="sh_49">-</text>
<text x="639" y="245" class="si_49">2</text>
<text x="651" y="245" class="sd_49">1, so its point-slope form is</text>
<text x="473" y="281" class="se_49">y</text>
<text x="484" y="281" class="si_49">2</text>
<text x="502" y="281" class="sd_49">0</text>
<text x="514" y="281" class="sh_49">-</text>
<text x="531" y="281" class="sg_49">s</text>
<text x="536" y="281" class="si_49">2</text>
<text x="549" y="281" class="sd_49">1</text>
<text x="556" y="281" class="sg_49">ds</text>
<text x="567" y="281" class="se_49">x</text>
<text x="578" y="281" class="si_49">2</text>
<text x="595" y="281" class="sd_49">2</text>
<text x="603" y="281" class="sg_49">d</text>
<text x="639" y="281" class="sd_49">or </text>
<text x="682" y="281" class="se_49">y</text>
<text x="694" y="281" class="sh_49">-</text>
<text x="711" y="281" class="sd_49">2</text>
<text x="723" y="281" class="si_49">2</text>
<text x="740" y="281" class="se_49">x</text>
<text x="342" y="327" dx="0,0,0,0,0,0,0,0,-.3,-.2,0" class="sd_49">So we have </text>
<text x="513" y="327" class="se_49">f</text>
<text x="520" y="327" class="sg_49">s</text>
<text x="526" y="327" class="se_49">x</text>
<text x="532" y="327" class="sg_49">d</text>
<text x="542" y="327" class="sh_49">-</text>
<text x="559" y="327" class="sd_49">2</text>
<text x="571" y="327" class="si_49">2</text>
<text x="589" y="327" class="se_49">x</text>
<text x="626" y="327" class="sd_49">if </text>
<text x="643" y="327" class="sd_49">1</text>
<text x="655" y="327" class="si_49">,</text>
<text x="673" y="327" class="se_49">x</text>
<text x="684" y="327" class="si_49">&lt;</text>
<text x="701" y="327" class="sd_49">2</text>
<text x="342" y="364" dx="0,-1.2,0,0,0,0,0,0,0,0,0,0,0,0,0,0,0,0,0,0,0,0,0,0,0,0,0,0,0,0" class="sd_49">We also see that the graph of </text>
<text x="524" y="364" class="se_49">f</text>
<text x="534" y="364" class="sd_49">coincides with the </text>
<text x="650" y="364" class="se_49">x</text>
<text x="656" y="364" class="sd_49">-axis for </text>
<text x="712" y="364" class="se_49">x</text>
<text x="723" y="364" class="si_49">.</text>
<text x="741" y="364" dx="0,0,0,0,0,0,0,0,0,0,0,0,0,0,0,0,0,0,0,0,0,-.3" class="sd_49">2. Putting this infor-</text>
<text x="342" y="382" dx="0,0,0,0,0,0,0,0,0,0,0,0,0,0,0,-.6,0,0,0,0,0,0,-.3,-.2,0,0,0,0,0,0,0,0,0,0,-.4,0,0,0,0,0,0,0,0,0,0,0,0,0,0,0,0,0,0,0,0,0,0,0,0,0,0,0,0" class="sd_49">mation together, we have the following three-piece formula for </text>
<text x="732" y="382" class="se_49">f</text>
<text x="738" y="382" class="sd_49">:</text>
<text x="516" y="442" class="se_49">f</text>
<text x="523" y="442" class="sg_49">s</text>
<text x="528" y="442" class="se_49">x</text>
<text x="535" y="442" class="sg_49">d</text>
<text x="544" y="442" class="sh_49">-</text>
<text transform="matrix(0.65,0,0,1,562,449)" class="sj_49">H</text>
<text x="572" y="420" class="se_49">x</text>
<text x="572" y="442" class="sd_49">2</text>
<text x="584" y="442" class="si_49">2</text>
<text x="602" y="442" class="se_49">x</text>
<text x="572" y="463" class="sd_49">0</text>
<text x="624" y="420" class="sd_49">if </text>
<text x="641" y="420" class="sd_49">0</text>
<text x="653" y="420" class="si_49">&lt;</text>
<text x="670" y="420" class="se_49">x</text>
<text x="681" y="420" class="si_49">&lt;</text>
<text x="699" y="420" class="sd_49">1</text>
<text x="624" y="442" class="sd_49">if </text>
<text x="641" y="442" class="sd_49">1</text>
<text x="653" y="442" class="si_49">,</text>
<text x="670" y="442" class="se_49">x</text>
<text x="681" y="442" class="si_49">&lt;</text>
<text x="699" y="442" class="sd_49">2</text>
<text x="624" y="463" class="sd_49">if </text>
<text x="641" y="463" class="se_49">x</text>
<text x="652" y="463" class="si_49">.</text>
<text x="669" y="463" class="sd_49">2</text>
<text x="868" y="463" class="sk_49">■</text>
<text x="342" y="509" dx="0,.3,.3,.3,.3,.3,.3,.2" class="sb_49">EXAMPLE </text>
<text x="413" y="509" class="sc_49">10</text>
<text x="439" y="509" dx="0,0,0,0,0,0,0,0,0,0,0,0,0,0,0,0,0,0,0,0,0,0,-.2,0,0,0,0,0,0,0,0,0,0,0,0,0,0,0,0,0,0,0,0,0,0,0,0,0,0,0,0,0,0,0,0,0,0,0,0,0,0,0,0,0,0,0,0,0,0" class="sd_49">±n Example C at the beginning of this section we considered the cost </text>
<text x="342" y="527" class="se_49">C</text>
<text x="352" y="527" class="sg_49">s</text>
<text x="357" y="527" class="sl_49">w</text>
<text x="366" y="527" class="sg_49">d</text>
<text x="375" y="527" dx="0,0,0,0,0,0,0,0,0,0,0,0,0,0,0,0,-.3,0,0,0,0,-.6,-.2,0,0,0,0,0,0,0,0,0,0,0,0,0,0,0,0,0" class="sd_49">of mailing a large envelope with weight </text>
<text x="622" y="527" class="sl_49">w</text>
<text x="631" y="527" dx="0,0,0,0,0,0,0,-.4,0,0,0,0,0,0,0,0,0,0,0,0,0,0,0,0,0,0,0,0,-.4,0,0,0,0,0,0,0,0,0,0,0" class="sd_49">. ±n effect, this is a piecewise deIned </text>
<text x="342" y="546" dx="0,0,0,0,0,0,0,0,0,0,0,0,0,0,0,0,0,0,0,0,0,0,0,0,0,0,0,0,0,0,0,0,0,0,0,0,0,-.4,0,0,0,0,0,0,0,0,0,0,0,0,0,0,0,0,0,0,0,0,0,0,-.3,-.2" class="sd_49">function because, from the table of values on page 13, we have</text>
<text x="512" y="625" class="se_49">C</text>
<text x="522" y="625" class="sg_49">s</text>
<text x="527" y="625" class="sl_49">w</text>
<text x="537" y="625" class="sg_49">d</text>
<text x="546" y="625" class="sh_49">-</text>
<g clip-path="url(#c0_49)">
<path d="M569,622.3v-.2c1.4,-.5,2,-3,2,-4.3V570c0,-2,1.5,-4.7,3,-4.8v-.5c-2.9,.3,-4.1,3.2,-4.1,6.2v47c0,1.2,-.6,3.4,-2.3,3.8v1.2c1.7,.3,2.3,2.6,2.3,3.8v43.9c0,3,1.2,7.5,4.1,7.8v-.5c-1.5,-.1,-3,-4.4,-3,-6.4V626.8c0,-1.4,-.6,-3.8,-2,-4.3Z" class="g0_49"/>
</g>
<text x="580" y="581" class="sd_49">0.98</text>
<text x="580" y="602" class="sd_49">1.19</text>
<text x="580" y="624" class="sd_49">1.40</text>
<text x="580" y="645" class="sd_49">1.61</text>
<text x="622" y="581" class="sd_49">if </text>
<text x="639" y="581" class="sd_49">0</text>
<text x="651" y="581" class="si_49">,</text>
<text x="669" y="581" class="sl_49">w</text>
<text x="683" y="581" class="si_49">&lt;</text>
<text x="700" y="581" class="sd_49">1</text>
<text x="622" y="602" class="sd_49">if </text>
<text x="639" y="602" class="sd_49">1</text>
<text x="651" y="602" class="si_49">,</text>
<text x="669" y="602" class="sl_49">w</text>
<text x="683" y="602" class="si_49">&lt;</text>
<text x="700" y="602" class="sd_49">2</text>
<text x="622" y="624" class="sd_49">if </text>
<text x="639" y="624" class="sd_49">2</text>
<text x="651" y="624" class="si_49">,</text>
<text x="669" y="624" class="sl_49">w</text>
<text x="683" y="624" class="si_49">&lt;</text>
<text x="700" y="624" class="sd_49">3</text>
<text x="622" y="645" class="sd_49">if </text>
<text x="639" y="645" class="sd_49">3</text>
<text x="651" y="645" class="si_49">,</text>
<text x="669" y="645" class="sl_49">w</text>
<text x="683" y="645" class="si_49">&lt;</text>
<text x="700" y="645" class="sd_49">4</text>
<text x="588" y="659" class="sd_49">∙</text>
<text x="588" y="668" class="sd_49">∙</text>
<text x="588" y="677" class="sd_49">∙</text>
<text x="342" y="708" dx="0,0,0,0,0,0,0,0,0,0,0,0,0,0,0,0,-.4,0,0,0,0,0,0,0,0,0,0,0,0,0,0,0,0,-1.4,-1.7,0,0,0,0,0,0,0,0,0,0,0,0,-.1,0,0,0,0,0,0,0,0,0,0,0,0,0,0,0,0,0,0,0,0,0,0,0,0,0,0,0,0,0,0,0,0,0,0,0" class="sd_49">The graph is shown in Figure 18. You can see why functions similar to this one are </text>
<text x="342" y="726" class="sd_49">called </text>
<text x="382" y="726" class="sm_49">step functions</text>
<text x="472" y="726" dx="0,0,0,0,-.2,0,0,0,0,0,0,0,0,0,0,0,0,0,0,0,0,-.4,0,0,0,0,0,0,0,0,0,0,0,0,0,-.2,0,0,0,0,0,0,0,0,0,0,0,0,0,0,0,0,0,0,0,0,0,0,0,0,0,0" class="sd_49">—they jump from one value to the next. Such functions will be </text>
<text x="342" y="744" class="sd_49">studied in Chapter 2. </text>
<text x="868" y="737" class="sk_49">■</text>
<path d="M343.8,778.4c0,0,-1.6,0,-1.6,1.5v9.2c0,0,0,1.5,1.6,1.5h9.1c0,0,1.6,0,1.6,-1.5v-9.2c0,0,0,-1.5,-1.6,-1.5Z" class="g1_49"/>
<text x="362" y="790" dx="0,-.2,0,0,0,0,0,.4" class="sn_49">Symmetry</text>
<text x="342" y="813" dx="0,0,0,.2,0,.2,0,0,0,0,0,0,0,0" class="sd_49">±f a function </text>
<text x="424" y="813" class="se_49">f</text>
<text x="434" y="813" class="sd_49">satisIes </text>
<text x="489" y="813" class="se_49">f</text>
<text x="495" y="813" class="sg_49">s</text>
<text x="501" y="813" class="si_49">2</text>
<text x="513" y="813" class="se_49">x</text>
<text x="520" y="813" class="sg_49">d</text>
<text x="530" y="813" class="sh_49">-</text>
<text x="547" y="813" class="se_49">f</text>
<text x="554" y="813" class="sg_49">s</text>
<text x="559" y="813" class="se_49">x</text>
<text x="566" y="813" class="sg_49">d</text>
<text x="575" y="813" dx="0,0,0,0,.2,-.4,-.2,0,0,0,.2,0,0,0,0,0,0" class="sd_49">for every number </text>
<text x="685" y="813" class="se_49">x</text>
<text x="696" y="813" dx="0,0,0,.2,0,0,0,.2,0,0,0,0,0,0,0,.2,0,0,0,0" class="sd_49">in its domain, then </text>
<text x="817" y="813" class="se_49">f</text>
<text x="827" y="813" dx="0,0,0,.2,0,0,0,0,0,0" class="sd_49">is called </text>
<text x="342" y="831" class="sd_49">an </text>
<text x="360" y="831" dx="0,-.2,-.2,0,0,0,0,0,0,0,0,0,0" class="sm_49">even function</text>
<text x="447" y="831" dx="0,0,0,-.2,0,0,0,0,0,0,0,0,0,0,0,0,0,0,0,0,0,0,0,0,0,0,0,0,0" class="sd_49">. For instance, the function </text>
<text x="617" y="831" class="se_49">f</text>
<text x="624" y="831" class="sg_49">s</text>
<text x="629" y="831" class="se_49">x</text>
<text x="636" y="831" class="sg_49">d</text>
<text x="646" y="831" class="sh_49">-</text>
<text x="663" y="831" class="se_49">x</text>
<text x="671" y="825" class="so_49">2</text>
<text x="680" y="831" dx="0,0,0,0,-.4,-.2,0,0,0,0,0,0,0,0,0" class="sd_49">is even because</text>
<text x="524" y="867" class="se_49">f</text>
<text x="531" y="867" class="sg_49">s</text>
<text x="536" y="867" class="si_49">2</text>
<text x="549" y="867" class="se_49">x</text>
<text x="556" y="867" class="sg_49">d</text>
<text x="565" y="867" class="sh_49">-</text>
<text x="582" y="867" class="sg_49">s</text>
<text x="588" y="867" class="si_49">2</text>
<text x="600" y="867" class="se_49">x</text>
<text x="607" y="867" class="sg_49">d</text>
<text x="612" y="860" class="so_49">2</text>
<text x="621" y="867" class="sh_49">-</text>
<text x="639" y="867" class="se_49">x</text>
<text x="647" y="860" class="so_49">2</text>
<text x="656" y="867" class="sh_49">-</text>
<text x="673" y="867" class="se_49">f</text>
<text x="680" y="867" class="sg_49">s</text>
<text x="686" y="867" class="se_49">x</text>
<text x="692" y="867" class="sg_49">d</text>
<text x="341" y="905" dx="0,0,0,0,-.6,0,0,0,0,0,0,0,0,0,-.6,0,0,0,0,0,0,0,0,0,0,0,-.6,0,0,-.6,0,0,-.6,-.4,-.2,0,0,-.6,0,0,0,0,0,0,0,0,-.6,0,0,-.6,0,0,0,0,-.6,0,0,0,-.6,0,0,0,0,0,-.6,0,0,-.6,0,0,0,0,0,0,0,0,0,-.6,0,0,0,0,-.6,0,0,0,0,0,0,0" class="sd_49">The geometric signiIcance of an even function is that its graph is symmetric with respect </text>
<text x="342" y="923" dx="0,0,0,-.5,0,0,0" class="sd_49">to the </text>
<text x="379" y="923" class="se_49">y</text>
<text x="386" y="923" dx="0,0,0,0,0,0,-.5,0,0,0,0,-.5,0,0,0,0,0,0,-.5,0,0,0,0,-.7,0,0,0,0,-.5,0,0,0,0,0,-.5,0,0,0,0,-.5,0,0,-.5,0,0,-.5,0,-.3,-.2,0,-.5,0,0,0,0,0,0,0,-.5,0,0,0,-.5,0,0,0,0,0,-.5,0,0" class="sd_49">-axis (see Figure 19). This means that if we have plotted the graph of </text>
<text x="807" y="923" class="se_49">f</text>
<text x="816" y="923" class="sd_49">for </text>
<text x="838" y="923" class="se_49">x</text>
<text x="849" y="923" class="si_49">&gt;</text>
<text x="867" y="923" class="sd_49">0, </text>
<text x="342" y="941" class="sd_49">we obtain the entire graph simply by re²ecting this portion about the </text>
<text x="766" y="941" class="se_49">y</text>
<text x="772" y="941" class="sd_49">-axis.</text>
<text x="360" y="960" class="sd_49">±f </text>
<text x="376" y="960" class="se_49">f</text>
<text x="385" y="960" class="sd_49">satisIes </text>
<text x="439" y="960" class="se_49">f</text>
<text x="446" y="960" class="sg_49">s</text>
<text x="451" y="960" class="si_49">2</text>
<text x="464" y="960" class="se_49">x</text>
<text x="470" y="960" class="sg_49">d</text>
<text x="480" y="960" class="sh_49">-</text>
<text x="497" y="960" class="si_49">2</text>
<text x="510" y="960" class="se_49">f</text>
<text x="516" y="960" class="sg_49">s</text>
<text x="522" y="960" class="se_49">x</text>
<text x="529" y="960" class="sg_49">d</text>
<text x="537" y="960" dx="0,0,0,0,-.6,-.4,-.2,0,0,0,-.6,0,0,0,0,0,0" class="sd_49">for every number </text>
<text x="645" y="960" class="se_49">x</text>
<text x="655" y="960" dx="0,0,0,-.6,0,0,0,-.6,0,0,0,0,0,0,0,-.6,0,0,0,0" class="sd_49">in its domain, then </text>
<text x="773" y="960" class="se_49">f</text>
<text x="783" y="960" dx="0,0,0,-.6,0,0,0,0,0,0,-.6,0,0" class="sd_49">is called an </text>
<text x="853" y="960" class="sm_49">odd </text>
<text x="342" y="978" class="sm_49">function</text>
<text x="396" y="978" dx="0,0,0,-.2,0,0,0,-.2,0,0,0,0,0,0,0,0,0,0,0,0,0,0,0,0,0,0,0,0" class="sd_49">. For example, the function </text>
<text x="567" y="978" class="se_49">f</text>
<text x="574" y="978" class="sg_49">s</text>
<text x="580" y="978" class="se_49">x</text>
<text x="586" y="978" class="sg_49">d</text>
<text x="596" y="978" class="sh_49">-</text>
<text x="613" y="978" class="se_49">x</text>
<text x="621" y="972" class="so_49">3</text>
<text x="630" y="978" class="sd_49">is odd because</text>
<text x="512" y="1013" class="se_49">f</text>
<text x="518" y="1013" class="sg_49">s</text>
<text x="523" y="1013" class="si_49">2</text>
<text x="536" y="1013" class="se_49">x</text>
<text x="543" y="1013" class="sg_49">d</text>
<text x="552" y="1013" class="sh_49">-</text>
<text x="570" y="1013" class="sg_49">s</text>
<text x="575" y="1013" class="si_49">2</text>
<text x="588" y="1013" class="se_49">x</text>
<text x="594" y="1013" class="sg_49">d</text>
<text x="599" y="1007" class="so_49">3</text>
<text x="609" y="1013" class="sh_49">-</text>
<text x="626" y="1013" class="si_49">2</text>
<text x="639" y="1013" class="se_49">x</text>
<text x="647" y="1007" class="so_49">3</text>
<text x="656" y="1013" class="sh_49">-</text>
<text x="673" y="1013" class="si_49">2</text>
<text x="686" y="1013" class="se_49">f</text>
<text x="693" y="1013" class="sg_49">s</text>
<text x="698" y="1013" class="se_49">x</text>
<text x="705" y="1013" class="sg_49">d</text>
<path d="M108.5,208.6h220V93h-220V208.6Z" class="g2_49"/>
<path d="M108.8,98.4H273.7v110H108.8Zm0,27.5H273.7m-82.5,82.5V98.3m55,110.1V98.3M218.7,208.4V98.3m-55,110.1V98.3m-54.9,55.1H273.7" class="g3_49"/>
<text x="267" y="193" class="sp_49">x</text>
<text x="125" y="105" class="sq_49">y</text>
<text x="127" y="192" class="sr_49">0</text>
<path d="M136.3,180.9l27.4,-27.5l27.5,27.5h82.5" class="g4_49"/>
<path d="M269,180.9h.2" class="g5_49"/>
<path fill-rule="evenodd" d="M269.2,180.9l-1.7,-2.5l6.6,2.5l-6.6,2.4Z" class="g0_49"/>
<path d="M108.8,180.9h82.3m-54.8,27.5V103.9" class="g5_49"/>
<path fill-rule="evenodd" d="M136.3,103.9l-2.5,1.6L136.3,99l2.4,6.5Z" class="g0_49"/>
<path d="M157.5,196.9h13.7V183.1H157.5v13.8Z" class="g2_49"/>
<text x="161" y="194" class="ss_49">1</text>
<path d="M124.8,160.6H134V146.9h-9.2v13.7Z" class="g2_49"/>
<text x="127" y="157" class="ss_49">1</text>
<path d="M278.5,97.5V207" class="g6_49"/>
<text x="108" y="236" dx="0,.3,.3,.3,.3,.3,.1" class="st_49">FIGURE </text>
<text x="161" y="236" class="su_49">17</text>
<text x="108" y="998" dx="0,.3,.3,.3,.3,.3,.1" class="st_49">FIGURE </text>
<text x="161" y="998" class="su_49">19</text>
<text x="108" y="1014" dx="0,0,0,0,-.3,-.2,0,0,0,0,0,0,0,0,0,0" class="s5_49">An even function</text>
<text x="194" y="905" class="sv_49">0</text>
<text x="245" y="904" class="sw_49">x</text>
<text x="149" y="902" class="sx_49">_x</text>
<path d="M145.8,850.8c25.5,0,34.1,111,58,111c24,0,32.6,-111,58.1,-111" class="g7_49"/>
<path d="M223.4,856.8v8.1m-39.7,-8.1v8.1" class="g8_49"/>
<path d="M248.6,860.9H158.5" class="g9_49"/>
<path d="M154.6,878.5h8.1M154.6,876h8.1m82,2.5h8.1M244.7,876h8.1" class="g8_49"/>
<path d="M248.6,892.2V860.9m-90.1,31.3V860.9" class="g9_49"/>
<path d="M156.7,860.9c0,-1,.8,-1.8,1.8,-1.8c.9,0,1.7,.8,1.7,1.8c0,.9,-.8,1.7,-1.7,1.7c-1,0,-1.8,-.8,-1.8,-1.7Z" class="ga_49"/>
<path d="M156.7,860.9c0,-1,.8,-1.8,1.8,-1.8c.9,0,1.7,.8,1.7,1.8c0,.9,-.8,1.7,-1.7,1.7c-1,0,-1.8,-.8,-1.8,-1.7Z" class="gb_49"/>
<path d="M246.9,861.5c0,-1,.8,-1.8,1.7,-1.8c1,0,1.7,.8,1.7,1.8c0,.9,-.7,1.7,-1.7,1.7c-.9,0,-1.7,-.8,-1.7,-1.7Z" class="ga_49"/>
<path d="M246.9,861.5c0,-1,.8,-1.8,1.7,-1.8c1,0,1.7,.8,1.7,1.8c0,.9,-.7,1.7,-1.7,1.7c-.9,0,-1.7,-.8,-1.7,-1.7Z" class="gb_49"/>
<path d="M152.7,861.4c-1.2,0,-1.7,1.1,-1.7,2.4v9.3c-.1,1.4,0,2.5,-1.2,2.5c1.2,0,1.1,1.1,1.2,2.5v9.7c0,1.4,.5,2.6,1.8,2.6m102.3,-29c1.3,0,1.7,1.1,1.8,2.4v9.3c0,1.4,-.1,2.5,1.2,2.5c-1.3,0,-1.2,1.1,-1.2,2.5v9.7c-.1,1.4,-.6,2.6,-1.8,2.6" class="gc_49"/>
<text x="115" y="880" dx="0,1,.6,0,0" class="sy_49">f(_x)</text>
<text x="261" y="880" class="sy_49">ƒ</text>
<text x="289" y="904" class="sx_49">x</text>
<path d="M111.9,892H292.1" class="g5_49"/>
<path fill-rule="evenodd" d="M292.1,892l-1.6,-2.4L297,892l-6.5,2.5Z" class="g0_49"/>
<path d="M203.8,970.1V831.2" class="g5_49"/>
<text x="192" y="832" class="sx_49">y</text>
<path fill-rule="evenodd" d="M203.9,831.3l-2.5,1.7l2.5,-6.5l2.4,6.5Z" class="g0_49"/>
<path d="M108.5,690.6h209" class="g5_49"/>
<path fill-rule="evenodd" d="M317.5,690.6l-1.6,-2.4l6.5,2.4l-6.5,2.5Z" class="g0_49"/>
<path d="M144.4,600.8h28.8" class="gd_49"/>
<text x="129" y="518" class="sx_49">C</text>
<path fill-rule="evenodd" d="M142.7,515.3l-2.5,1.6l2.5,-6.5l2.4,6.5Z" class="g0_49"/>
<text x="111" y="648" class="sz_49">0.50</text>
<text x="112" y="602" class="sz_49">1.00</text>
<text x="112" y="557" class="sz_49">1.50</text>
<text x="133" y="702" class="sz_49">0</text>
<path d="M139.6,530.2h6.1m-6.1,137.5h6.1m-6.1,-22.9h6.1m-6.1,-22.9h6.1M139.6,599h6.1m-6.1,-22.9h6.1m-6.1,-23h6.1" class="g5_49"/>
<text x="170" y="705" dx="0,25.3,24.9" class="sz_49">123</text>
<text x="292" y="706" class="sz_49">5</text>
<text x="262" y="706" class="sz_49">4</text>
<path d="M295.4,687.7v6.2m-30.5,-6.2v6.2m-61.1,-6.2v6.2m30.5,-6.2v6.2m-61.1,-6.2v6.2" class="g5_49"/>
<path d="M140.9,600.8c0,-.9,.8,-1.7,1.8,-1.7c.9,0,1.7,.8,1.7,1.7c0,1,-.8,1.7,-1.7,1.7c-1,0,-1.8,-.7,-1.8,-1.7Z" class="gb_49"/>
<path d="M171.5,600.8c0,-.9,.8,-1.7,1.7,-1.7c1,0,1.7,.8,1.7,1.7c0,1,-.7,1.7,-1.7,1.7c-.9,0,-1.7,-.7,-1.7,-1.7Z" class="ga_49"/>
<path d="M171.5,600.8c0,-.9,.8,-1.7,1.7,-1.7c1,0,1.7,.8,1.7,1.7c0,1,-.7,1.7,-1.7,1.7c-.9,0,-1.7,-.7,-1.7,-1.7Z" class="gb_49"/>
<text x="314" y="702" class="s10_49">w</text>
<path d="M204,581.6H172.8" class="gd_49"/>
<path d="M171.5,581.6c0,-1,.8,-1.7,1.7,-1.7c1,0,1.7,.7,1.7,1.7c0,.9,-.7,1.7,-1.7,1.7c-.9,0,-1.7,-.8,-1.7,-1.7Z" class="g2_49"/>
<path d="M171.5,581.6c0,-1,.8,-1.7,1.7,-1.7c1,0,1.7,.7,1.7,1.7c0,.9,-.7,1.7,-1.7,1.7c-.9,0,-1.7,-.8,-1.7,-1.7Z" class="gb_49"/>
<path d="M202.1,581.6c0,-1,.7,-1.7,1.7,-1.7c.9,0,1.7,.7,1.7,1.7c0,.9,-.8,1.7,-1.7,1.7c-1,0,-1.7,-.8,-1.7,-1.7Z" class="ga_49"/>
<path d="M202.1,581.6c0,-1,.7,-1.7,1.7,-1.7c.9,0,1.7,.7,1.7,1.7c0,.9,-.8,1.7,-1.7,1.7c-1,0,-1.7,-.8,-1.7,-1.7Z" class="gb_49"/>
<path d="M203.8,562.3h30.5" class="gd_49"/>
<path d="M202.1,562.3c0,-.9,.7,-1.7,1.7,-1.7c.9,0,1.7,.8,1.7,1.7c0,1,-.8,1.7,-1.7,1.7c-1,0,-1.7,-.7,-1.7,-1.7Z" class="g2_49"/>
<path d="M202.1,562.3c0,-.9,.7,-1.7,1.7,-1.7c.9,0,1.7,.8,1.7,1.7c0,1,-.8,1.7,-1.7,1.7c-1,0,-1.7,-.7,-1.7,-1.7Z" class="gb_49"/>
<path d="M232.6,562.3c0,-.9,.8,-1.7,1.7,-1.7c1,0,1.8,.8,1.8,1.7c0,1,-.8,1.7,-1.8,1.7c-.9,0,-1.7,-.7,-1.7,-1.7Z" class="ga_49"/>
<path d="M232.6,562.3c0,-.9,.8,-1.7,1.7,-1.7c1,0,1.8,.8,1.8,1.7c0,1,-.8,1.7,-1.8,1.7c-.9,0,-1.7,-.7,-1.7,-1.7Z" class="gb_49"/>
<path d="M234.3,543.1h30.6" class="gd_49"/>
<path d="M232.6,543.1c0,-1,.8,-1.7,1.7,-1.7c1,0,1.8,.7,1.8,1.7c0,.9,-.8,1.7,-1.8,1.7c-.9,0,-1.7,-.8,-1.7,-1.7Z" class="g2_49"/>
<path d="M232.6,543.1c0,-1,.8,-1.7,1.7,-1.7c1,0,1.8,.7,1.8,1.7c0,.9,-.8,1.7,-1.8,1.7c-.9,0,-1.7,-.8,-1.7,-1.7Z" class="gb_49"/>
<path d="M263.2,543.1c0,-1,.7,-1.7,1.7,-1.7c.9,0,1.7,.7,1.7,1.7c0,.9,-.8,1.7,-1.7,1.7c-1,0,-1.7,-.8,-1.7,-1.7Z" class="ga_49"/>
<path d="M263.2,543.1c0,-1,.7,-1.7,1.7,-1.7c.9,0,1.7,.7,1.7,1.7c0,.9,-.8,1.7,-1.7,1.7c-1,0,-1.7,-.8,-1.7,-1.7Z" class="gb_49"/>
<path d="M142.7,598.8V515.3m0,198.7V602.9" class="g5_49"/>
<text x="108" y="744" dx="0,.3,.3,.3,.3,.3,.1" class="st_49">FIGURE </text>
<text x="161" y="744" class="su_49">18</text>
<text x="121" y="1076" class="s11_49">Copyright 2016 Cengage Learning. All Rights Reserved. May not be copied, scanned, or duplicated, in whole or in part. Due to electronic rights, some third party content may be suppressed from the eBook and/or eChapter(s).</text>
<text x="106" y="1087" class="s11_49">Editorial review has deemed that any suppressed content does not materially affect the overall learning experience. Cengage Learning reserves the right to remove additional content at any time if subsequent rights restrictions require it.</text>

</g>

<!-- Any embedded fonts defined here -->
<style type="text/css" ><![CDATA[

@font-face {
	font-family: CenturyOldStyle-Italic__q;
	src: url("fonts/CenturyOldStyle-Italic__q.woff") format("woff");
}

@font-face {
	font-family: MATH_13_;
	src: url("fonts/MATH_13_.woff") format("woff");
}

@font-face {
	font-family: MathematicalPiLTStd-1_rr;
	src: url("fonts/MathematicalPiLTStd-1_rr.woff") format("woff");
}

@font-face {
	font-family: MathematicalPiLTStd-3_ry;
	src: url("fonts/MathematicalPiLTStd-3_ry.woff") format("woff");
}

@font-face {
	font-family: MathematicalPiLTStd-5_vb;
	src: url("fonts/MathematicalPiLTStd-5_vb.woff") format("woff");
}

@font-face {
	font-family: MyriadPro-BoldSemiCn_90;
	src: url("fonts/MyriadPro-BoldSemiCn_90.woff") format("woff");
}

@font-face {
	font-family: MyriadPro-Bold_74;
	src: url("fonts/MyriadPro-Bold_74.woff") format("woff");
}

@font-face {
	font-family: MyriadPro-Regular_4i;
	src: url("fonts/MyriadPro-Regular_4i.woff") format("woff");
}

@font-face {
	font-family: MyriadPro-Semibold_49;
	src: url("fonts/MyriadPro-Semibold_49.woff") format("woff");
}

@font-face {
	font-family: TECHMath-Mix_12-;
	src: url("fonts/TECHMath-Mix_12-.woff") format("woff");
}

@font-face {
	font-family: TECHMath-Mix_139;
	src: url("fonts/TECHMath-Mix_139.woff") format("woff");
}

@font-face {
	font-family: TECHMath-Mix_13x;
	src: url("fonts/TECHMath-Mix_13x.woff") format("woff");
}

@font-face {
	font-family: TECHMath-Mix_14o;
	src: url("fonts/TECHMath-Mix_14o.woff") format("woff");
}

@font-face {
	font-family: TECHMath-Mix_151;
	src: url("fonts/TECHMath-Mix_151.woff") format("woff");
}

@font-face {
	font-family: TECHMath-Mix_157;
	src: url("fonts/TECHMath-Mix_157.woff") format("woff");
}

@font-face {
	font-family: TECHMath-Mix_15e;
	src: url("fonts/TECHMath-Mix_15e.woff") format("woff");
}

@font-face {
	font-family: TECHMath-Mix_x7;
	src: url("fonts/TECHMath-Mix_x7.woff") format("woff");
}

@font-face {
	font-family: Times-Roman_4n;
	src: url("fonts/Times-Roman_4n.woff") format("woff");
}

@font-face {
	font-family: TimesLTStd-Bold_oh;
	src: url("fonts/TimesLTStd-Bold_oh.woff") format("woff");
}

@font-face {
	font-family: TimesLTStd-Italic_o3;
	src: url("fonts/TimesLTStd-Italic_o3.woff") format("woff");
}

@font-face {
	font-family: TimesLTStd-Roman_143;
	src: url("fonts/TimesLTStd-Roman_143.woff") format("woff");
}

@font-face {
	font-family: ZapfDingbatsITC_my;
	src: url("fonts/ZapfDingbatsITC_my.woff") format("woff");
}

]]></style>

</svg>
