<?xml version="1.0" encoding="UTF-8" standalone="no"?>
<!DOCTYPE svg PUBLIC "-//W3C//DTD SVG 1.1//EN"
"http://www.w3.org/Graphics/SVG/1.1/DTD/svg11.dtd">


<!-- Page 50 -->
<svg x="0" y="0" width="931" height="1096" viewBox="0 0 931 1096" version="1.1" xmlns="http://www.w3.org/2000/svg" xmlns:xlink="http://www.w3.org/1999/xlink"
style="display: block;margin-left: auto;margin-right: auto;">
<defs>
<clipPath id="c_50"><path d="M0,0H931V1096H0Z"/></clipPath>
<style type="text/css"><![CDATA[
text { white-space: pre; }
path, image { pointer-events: none; }

.s1_50{
font-size: 15.28px;
font-family: MyriadPro-Semibold_49;
fill: #231F20;
}
.s2_50{
font-size: 12.22px;
font-family: MyriadPro-Semibold_49;
fill: #231F20;
}
.s3_50{
font-size: 13.75px;
font-family: MyriadPro-Semibold_49;
fill: #231F20;
}
.s4_50{
font-size: 12.22px;
font-family: MyriadPro-Regular_4i;
fill: #231F20;
}
.s5_50{
font-size: 15.28px;
font-family: TimesLTStd-Roman_143;
fill: #231F20;
}
.s6_50{
font-size: 15.28px;
font-family: TimesLTStd-Italic_o3;
fill: #231F20;
}
.s7_50{
font-size: 15.28px;
font-family: MathematicalPiLTStd-1_rr;
fill: #231F20;
}
.s8_50{
font-size: 12.22px;
font-family: MathematicalPiLTStd-1_rr;
fill: #231F20;
}
.s9_50{
font-size: 16.81px;
font-family: MyriadPro-BoldSemiCn_90;
fill: #EC008C;
}
.sa_50{
font-size: 17.57px;
font-family: MyriadPro-BoldSemiCn_90;
fill: #EC008C;
}
.sb_50{
font-size: 15.28px;
font-family: MathematicalPiLTStd-3_ry;
fill: #231F20;
}
.sc_50{
font-size: 15.28px;
font-family: MathematicalPiLTStd-5_vb;
fill: #231F20;
}
.sd_50{
font-size: 9.17px;
font-family: TimesLTStd-Roman_143;
fill: #231F20;
}
.se_50{
font-size: 15.28px;
font-family: BeaconDingbatsTypeOne_12w;
fill: #231F20;
}
.sf_50{
font-size: 13.75px;
font-family: MyriadPro-Semibold_49;
fill: #EC008C;
}
.sg_50{
font-size: 12.99px;
font-family: ZapfDingbatsITC_my;
fill: #EC008C;
}
.sh_50{
font-size: 12.22px;
font-family: TECHMath-Mix_157;
fill: #231F20;
}
.si_50{
font-size: 12.22px;
font-family: TECHMath-Mix_14o;
fill: #231F20;
}
.sj_50{
font-size: 12.22px;
font-family: TECHMath-Mix_151;
fill: #231F20;
}
.sk_50{
font-size: 12.98px;
font-family: TECHMath-Mix_14f;
fill: #231F20;
}
.sl_50{
font-size: 12.22px;
font-family: TECHMath-Mix_14f;
fill: #231F20;
}
.sm_50{
font-size: 12.98px;
font-family: TECHMath-Mix_x7;
fill: #231F20;
}
.sn_50{
font-size: 12.22px;
font-family: TECHMath-Mix_10x;
fill: #231F20;
}
.so_50{
font-size: 12.98px;
font-family: TECHMath-Mix_10x;
fill: #231F20;
}
.sp_50{
font-size: 12.98px;
font-family: Times-Roman_n6;
fill: #231F20;
}
.sq_50{
font-size: 16.81px;
font-family: MyriadPro-Semibold_49;
fill: #231F20;
}
.sr_50{
font-size: 12.99px;
font-family: TECHMath-Mix_-o;
fill: #231F20;
}
.ss_50{
font-size: 12.99px;
font-family: TECHMath-Mix_15k;
fill: #231F20;
}
.st_50{
font-size: 12.99px;
font-family: TECHMath-Mix_15k;
fill: #EC008C;
}
.su_50{
font-size: 12.22px;
font-family: TECHMath-Mix_15k;
fill: #231F20;
}
.sv_50{
font-size: 12.22px;
font-family: Times-Italic_n3;
fill: #231F20;
}
.sw_50{
font-size: 14.51px;
font-family: MyriadPro-Bold_74;
fill: #231F20;
}
.sx_50{
font-size: 15.28px;
font-family: MyriadPro-Bold_74;
fill: #231F20;
}
.sy_50{
font-size: 13.75px;
font-family: TimesLTStd-Roman_143;
fill: #231F20;
}
.sz_50{
font-size: 12.22px;
font-family: TECHMath-Mix_15e;
fill: #231F20;
}
.s10_50{
font-size: 12.99px;
font-family: TECHMath-Mix_13d;
fill: #231F20;
}
.s11_50{
font-size: 7.64px;
font-family: Times-Roman_4n;
fill: #000000;
}

.g0_50{
fill: none;
stroke: #00AEEF;
stroke-width: 0.916;
stroke-linecap: butt;
stroke-linejoin: round;
stroke-miterlimit: 3;
}
.g1_50{
fill: none;
stroke: #231F20;
stroke-width: 0.611;
stroke-linecap: butt;
stroke-linejoin: miter;
stroke-miterlimit: 3;
}
.g2_50{
fill: #231F20;
}
.g3_50{
fill: #CC017A;
}
.g4_50{
fill: #00AEEF;
}
.g5_50{
fill: none;
stroke: #00AEEF;
stroke-width: 0.763;
stroke-linecap: butt;
stroke-linejoin: miter;
stroke-miterlimit: 3;
}
.g6_50{
fill: none;
stroke: #EC008C;
stroke-width: 0.534;
stroke-linecap: butt;
stroke-linejoin: miter;
stroke-miterlimit: 3;
}
.g7_50{
fill: none;
stroke: #949698;
stroke-width: 0.763;
stroke-linecap: butt;
stroke-linejoin: miter;
stroke-miterlimit: 3;
}
.g8_50{
fill: #FFFFFF;
}
.g9_50{
fill: none;
stroke: #EC008C;
stroke-width: 0.763;
stroke-linecap: butt;
stroke-linejoin: miter;
stroke-miterlimit: 3;
}
.ga_50{
fill: none;
stroke: #EC008C;
stroke-width: 0.763;
stroke-linecap: butt;
stroke-linejoin: round;
stroke-miterlimit: 3;
}
.gb_50{
fill: none;
stroke: #231F20;
stroke-width: 0.534;
stroke-linecap: butt;
stroke-linejoin: miter;
stroke-miterlimit: 3;
}

]]></style>

</defs>
<g clip-path="url(#c_50)">
<path d="M0,0
L0,1096
L931,1096
L931,0 Z " 
fill="#FFFFFF" stroke="none"/>
<text x="53" y="64" class="s1_50">18</text>
<text x="126" y="64" dx="0,.2,.2,.2,.2,.2,.2,.1" class="s2_50">CHAPTER </text>
<text x="180" y="64" class="s3_50">1</text>
<text x="200" y="64" dx="0,-.3,.1,.1,.3,.1,.1,.1,.1,.1,.1,.1,.1,.1,.1,.2,.1,.1,.1,.1" class="s4_50">Functions and Models</text>
<text x="286" y="107" dx="0,0,0,0,-.6,0,0,0,0,0,-.6,0,0,-.6,0,0,-.6,0,0,0,-.6,0,0,0,0,0,0,0,0,-.6,0,0,-.6,0,0,0,0,0,0,0,0,0,-.6,0,0,0,0,0,-.6,0,0,0,-.6,0,0,0,0,0,0,-.6,0,0,0,0,-.6,0,0,0,0,0,0,-.6,0,0,0,0,-.6,0,0,-.6,0,0,-.6,0,0,0,0,0,0,0" class="s5_50">The graph of an odd function is symmetric about the origin (see Figure 20). ±f we already </text>
<text x="287" y="126" dx="0,0,-.3,-.2,0,1.2,0,0,0,1.2,0,0,0,0,0,1.2,0,0" class="s5_50">have the graph of </text>
<text x="404" y="126" class="s6_50">f</text>
<text x="415" y="126" class="s5_50">for </text>
<text x="438" y="126" class="s6_50">x</text>
<text x="450" y="126" class="s7_50">&gt;</text>
<text x="467" y="126" dx="0,0,0,1.2,0,0,1.2,0,0,0,1.2,0,0,0,0,0,0,1.2,0,0,0,1.2,0,0,0,0,0,0,1.2,0,0,0,0,0,1.2,0,0,1.2,0,0,0,0,0,0,0,0,1.2,0,0,0,0,1.2,0,0,0,0,0,0,0" class="s5_50">0, we can obtain the entire graph by rotating this portion </text>
<text x="287" y="144" class="s5_50">through 180</text>
<text x="361" y="142" class="s8_50">8</text>
<text x="369" y="144" class="s5_50">about the origin.</text>
<text x="287" y="181" dx="0,.3,.3,.3,.3,.3,.3,.2" class="s9_50">EXAMPLE </text>
<text x="358" y="181" class="sa_50">11</text>
<text x="384" y="181" dx="0,0,0,0,0,0,0,0,0,0,0,0,0,0,0,0,0,0,0,0,0,0,0,0,0,0,0,0,0,0,0,0,0,0,0,-.4,0,0,0,0,0,0,0,0,0,0,0,0,0,0,0,0,0,0,-.4,-.2,0,0,0,0,0,0,0,0,0,0,0" class="s5_50">Determine whether each of the following functions is even, odd, or </text>
<text x="287" y="199" dx="0,0,0,0,0,0,0,0,0,-.4,-.2,0,0,0,0,0,0,0,0,0,0" class="s5_50">neither even nor odd.</text>
<text x="287" y="217" class="s5_50">(a) </text>
<text x="314" y="217" class="s6_50">f</text>
<text x="320" y="217" class="sb_50">s</text>
<text x="326" y="217" class="s6_50">x</text>
<text x="333" y="217" class="sb_50">d</text>
<text x="342" y="217" class="sc_50">-</text>
<text x="360" y="217" class="s6_50">x</text>
<text x="368" y="211" class="sd_50">5</text>
<text x="377" y="217" class="s7_50">1</text>
<text x="394" y="217" class="s6_50">x</text>
<text x="447" y="217" class="s5_50">(b) </text>
<text x="473" y="217" class="se_50">t</text>
<text x="479" y="217" class="sb_50">s</text>
<text x="485" y="217" class="s6_50">x</text>
<text x="492" y="217" class="sb_50">d</text>
<text x="501" y="217" class="sc_50">-</text>
<text x="519" y="217" class="s5_50">1</text>
<text x="531" y="217" class="s7_50">2</text>
<text x="548" y="217" class="s6_50">x</text>
<text x="556" y="211" class="sd_50">4</text>
<text x="607" y="217" class="s5_50">(c) </text>
<text x="632" y="217" class="s6_50">h</text>
<text x="639" y="217" class="sb_50">s</text>
<text x="645" y="217" class="s6_50">x</text>
<text x="652" y="217" class="sb_50">d</text>
<text x="661" y="217" class="sc_50">-</text>
<text x="679" y="217" class="s5_50">2</text>
<text x="687" y="217" class="s6_50">x</text>
<text x="698" y="217" class="s7_50">2</text>
<text x="716" y="217" class="s6_50">x</text>
<text x="724" y="211" class="sd_50">2</text>
<text x="287" y="250" dx="0,.3,.3,.3,.3,.3,.3,.3" class="sf_50">SOLUTION</text>
<text x="287" y="268" class="s5_50">(a) </text>
<text x="423" y="268" class="s6_50">f</text>
<text x="430" y="268" class="sb_50">s</text>
<text x="435" y="268" class="s7_50">2</text>
<text x="448" y="268" class="s6_50">x</text>
<text x="454" y="268" class="sb_50">d</text>
<text x="464" y="268" class="sc_50">-</text>
<text x="481" y="268" class="sb_50">s</text>
<text x="487" y="268" class="s7_50">2</text>
<text x="499" y="268" class="s6_50">x</text>
<text x="506" y="268" class="sb_50">d</text>
<text x="511" y="262" class="sd_50">5</text>
<text x="520" y="268" class="s7_50">1</text>
<text x="538" y="268" class="sb_50">s</text>
<text x="543" y="268" class="s7_50">2</text>
<text x="555" y="268" class="s6_50">x</text>
<text x="562" y="268" class="sb_50">d</text>
<text x="572" y="268" class="sc_50">-</text>
<text x="589" y="268" class="sb_50">s</text>
<text x="594" y="268" class="s7_50">2</text>
<text x="607" y="268" class="s5_50">1</text>
<text x="614" y="268" class="sb_50">d</text>
<text x="620" y="262" class="sd_50">5</text>
<text x="624" y="268" class="s6_50">x</text>
<text x="632" y="262" class="sd_50">5</text>
<text x="642" y="268" class="s7_50">1</text>
<text x="659" y="268" class="sb_50">s</text>
<text x="664" y="268" class="s7_50">2</text>
<text x="677" y="268" class="s6_50">x</text>
<text x="683" y="268" class="sb_50">d</text>
<text x="464" y="300" class="sc_50">-</text>
<text x="481" y="300" class="s7_50">2</text>
<text x="494" y="300" class="s6_50">x</text>
<text x="502" y="294" class="sd_50">5</text>
<text x="512" y="300" class="s7_50">2</text>
<text x="529" y="300" class="s6_50">x</text>
<text x="540" y="300" class="sc_50">-</text>
<text x="558" y="300" class="s7_50">2</text>
<text x="570" y="300" class="sb_50">s</text>
<text x="576" y="300" class="s6_50">x</text>
<text x="584" y="294" class="sd_50">5</text>
<text x="594" y="300" class="s7_50">1</text>
<text x="611" y="300" class="s6_50">x</text>
<text x="618" y="300" class="sb_50">d</text>
<text x="464" y="332" class="sc_50">-</text>
<text x="481" y="332" class="s7_50">2</text>
<text x="494" y="332" class="s6_50">f</text>
<text x="501" y="332" class="sb_50">s</text>
<text x="506" y="332" class="s6_50">x</text>
<text x="513" y="332" class="sb_50">d</text>
<text x="287" y="361" class="s5_50">Therefore </text>
<text x="353" y="361" class="s6_50">f</text>
<text x="363" y="361" class="s5_50">is an odd function.</text>
<text x="287" y="389" class="s5_50">(b) </text>
<text x="421" y="389" class="se_50">t</text>
<text x="428" y="389" class="sb_50">s</text>
<text x="433" y="389" class="s7_50">2</text>
<text x="446" y="389" class="s6_50">x</text>
<text x="452" y="389" class="sb_50">d</text>
<text x="462" y="389" class="sc_50">-</text>
<text x="479" y="389" class="s5_50">1</text>
<text x="492" y="389" class="s7_50">2</text>
<text x="509" y="389" class="sb_50">s</text>
<text x="514" y="389" class="s7_50">2</text>
<text x="527" y="389" class="s6_50">x</text>
<text x="533" y="389" class="sb_50">d</text>
<text x="538" y="382" class="sd_50">4</text>
<text x="548" y="389" class="sc_50">-</text>
<text x="565" y="389" class="s5_50">1</text>
<text x="577" y="389" class="s7_50">2</text>
<text x="594" y="389" class="s6_50">x</text>
<text x="603" y="382" class="sd_50">4</text>
<text x="612" y="389" class="sc_50">-</text>
<text x="629" y="389" class="se_50">t</text>
<text x="636" y="389" class="sb_50">s</text>
<text x="642" y="389" class="s6_50">x</text>
<text x="648" y="389" class="sb_50">d</text>
<text x="287" y="412" class="s5_50">So </text>
<text x="307" y="412" class="se_50">t</text>
<text x="317" y="412" dx="0,0,0,0,-.4,-.2,0,0" class="s5_50">is even.</text>
<text x="287" y="439" class="s5_50">(c) </text>
<text x="421" y="439" class="s6_50">h</text>
<text x="429" y="439" class="sb_50">s</text>
<text x="434" y="439" class="s7_50">2</text>
<text x="447" y="439" class="s6_50">x</text>
<text x="453" y="439" class="sb_50">d</text>
<text x="463" y="439" class="sc_50">-</text>
<text x="480" y="439" class="s5_50">2</text>
<text x="488" y="439" class="sb_50">s</text>
<text x="493" y="439" class="s7_50">2</text>
<text x="506" y="439" class="s6_50">x</text>
<text x="512" y="439" class="sb_50">d</text>
<text x="522" y="439" class="s7_50">2</text>
<text x="539" y="439" class="sb_50">s</text>
<text x="545" y="439" class="s7_50">2</text>
<text x="557" y="439" class="s6_50">x</text>
<text x="564" y="439" class="sb_50">d</text>
<text x="569" y="433" class="sd_50">2</text>
<text x="578" y="439" class="sc_50">-</text>
<text x="596" y="439" class="s7_50">2</text>
<text x="608" y="439" class="s5_50">2</text>
<text x="617" y="439" class="s6_50">x</text>
<text x="628" y="439" class="s7_50">2</text>
<text x="645" y="439" class="s6_50">x</text>
<text x="654" y="433" class="sd_50">2</text>
<text x="287" y="467" dx="0,-.1,-.1,-.1,-.1,-.1" class="s5_50">Since </text>
<text x="324" y="467" class="s6_50">h</text>
<text x="332" y="467" class="sb_50">s</text>
<text x="337" y="467" class="s7_50">2</text>
<text x="349" y="467" class="s6_50">x</text>
<text x="356" y="467" class="sb_50">d</text>
<text x="366" y="467" class="sc_50">±</text>
<text x="383" y="467" class="s6_50">h</text>
<text x="391" y="467" class="sb_50">s</text>
<text x="397" y="467" class="s6_50">x</text>
<text x="403" y="467" class="sb_50">d</text>
<text x="412" y="467" dx="0,-.1,-.1,-.1" class="s5_50">and </text>
<text x="438" y="467" class="s6_50">h</text>
<text x="445" y="467" class="sb_50">s</text>
<text x="450" y="467" class="s7_50">2</text>
<text x="463" y="467" class="s6_50">x</text>
<text x="470" y="467" class="sb_50">d</text>
<text x="480" y="467" class="sc_50">±</text>
<text x="497" y="467" class="s7_50">2</text>
<text x="510" y="467" class="s6_50">h</text>
<text x="517" y="467" class="sb_50">s</text>
<text x="523" y="467" class="s6_50">x</text>
<text x="530" y="467" class="sb_50">d</text>
<text x="535" y="467" dx="0,-.1,-.1,-.1,-.1,-.1,-.1,-.1,-.1,-.1,-.1,-.1,-.1,-.1,-.1,-.1,-.1,-.1,-.1" class="s5_50">, we conclude that </text>
<text x="648" y="467" class="s6_50">h</text>
<text x="660" y="467" dx="0,-.1,-.1,-.1,-.1,-.1,-.1,-.1,-.1,-.1,-.1,-.1,-.5,-.3,-.1,-.1,-.1,-.1,-.1,-.1,-.1,-.1,-.1,-.1,-.1" class="s5_50">is neither even nor odd. </text>
<text x="813" y="467" class="sg_50">■</text>
<text x="305" y="503" dx="0,0,0,0,1,0,0,0,0,0,0,1,0,0,1,0,0,0,1,0,0,0,0,0,0,0,0,0,1,0,0,1,0,0,0,0,0,0,0,1,0,0,1,0,0,0,1,0,0,-.4,0,0,1,0,0,1,0,0,0,0,0,0,1,0,0,0,1,0,0,0,0,0,0,1,0,0,0,0,1,0,0,0" class="s5_50">The graphs of the functions in Example 11 are shown in Figure 21. Notice that the </text>
<text x="287" y="522" class="s5_50">graph of </text>
<text x="342" y="522" class="s6_50">h</text>
<text x="353" y="522" class="s5_50">is symmetric neither about the </text>
<text x="543" y="522" class="s6_50">y</text>
<text x="549" y="522" class="s5_50">-axis nor about the origin.</text>
<path d="M600.6,675.4C597.9,657.1,593.9,634.8,589,611.9c-7.5,-24.8,-9.1,-42,-42.1,-42c-32.9,0,-34.1,18.6,-42,42c-5,22.9,-8.9,45.3,-11.6,63.6" class="g0_50"/>
<path d="M732.1,614.8v-6.1" class="g1_50"/>
<text x="680" y="573" class="sh_50">1</text>
<path d="M686.9,569.7h6.2" class="g1_50"/>
<text x="730" y="627" class="sh_50">1</text>
<text x="798" y="623" class="si_50">x</text>
<text x="679" y="547" class="sj_50">y</text>
<text x="756" y="572" class="sk_50">h</text>
<path fill-rule="evenodd" d="M690.1,546.2l-2.4,1.6l2.4,-6.5l2.4,6.5Z" class="g2_50"/>
<path fill-rule="evenodd" d="M801.3,611.7l-1.6,-2.4l6.5,2.4l-6.5,2.5Z" class="g2_50"/>
<text x="538" y="567" class="sl_50">1</text>
<text x="592" y="607" class="sl_50">1</text>
<text x="535" y="547" class="sj_50">y</text>
<text x="611" y="623" class="si_50">x</text>
<text x="582" y="573" class="sm_50">g</text>
<path fill-rule="evenodd" d="M613.6,611.6L612,609.2l6.5,2.4l-6.5,2.5Z" class="g2_50"/>
<path fill-rule="evenodd" d="M546.9,546.1l-2.4,1.6l2.4,-6.5l2.5,6.5Z" class="g2_50"/>
<path d="M544,569.6h6.1M402.5,614.7v-6.1m-84.1,6.1v-6.1m39,45.2h6.1" class="g1_50"/>
<text x="349" y="573" class="sh_50">1</text>
<path d="M357.4,569.7h6.1" class="g1_50"/>
<text x="340" y="657" dx="0,.3" class="sn_50">_1</text>
<text x="399" y="627" class="sn_50">1</text>
<text x="349" y="548" class="sj_50">y</text>
<text x="427" y="623" class="si_50">x</text>
<text x="399" y="570" class="so_50">f</text>
<text x="311" y="627" dx="0,.3" class="sn_50">_1</text>
<path fill-rule="evenodd" d="M360.4,547.1l-2.4,1.6l2.4,-6.5l2.5,6.5Z" class="g2_50"/>
<path fill-rule="evenodd" d="M430,611.7l-1.6,-2.4l6.5,2.4l-6.5,2.5Z" class="g2_50"/>
<text x="353" y="702" class="sp_50">(a)</text>
<text x="539" y="702" dx="0,1.3,0" class="sp_50">(b)</text>
<text x="732" y="702" class="sp_50">(c)</text>
<path d="M799.3,675.4c-42,-141,-92.2,-141.2,-134.2,.2M399.5,547.9c-10.6,42.7,-29.5,54.5,-39.1,63.8c-9.5,9.4,-30.4,21.8,-39.9,64.1" class="g0_50"/>
<path d="M690,677.7V545.8m-25.7,66H801.8m-322.3,-.2H614.2m-67.3,66V545.7m-186.5,132V546.6m-70.1,65.1H430.5" class="g1_50"/>
<path d="M288.8,729.8c0,0,-1.6,0,-1.6,1.5v9.2c0,0,0,1.5,1.6,1.5h9.1c0,0,1.6,0,1.6,-1.5v-9.2c0,0,0,-1.5,-1.6,-1.5Z" class="g3_50"/>
<text x="307" y="742" dx="0,.1,0,0,-.2,0,0,0,0,0,0,0,0,0,0,0,0,0,0,-.2,0,0,0,0,0,0,0,-.5,0,0,.3,0,0,0,0" class="sq_50">Increasing and Decreasing Functions</text>
<text x="287" y="764" dx="0,-.1,-.1,-.1,-.4,-.1,-.1,-.1,-.1,-.1,-.4,-.1,-.1,-.5,-.1,-.1,-.4,-.1,-.1,-.4,-.1,-.1,-.1,-.1,-.1,-.1,-.4,-.1,-.1,-.4,-.1,-.1,-.1,-.1,-.1,-.4,-.1,-.1,-.1,-.1" class="s5_50">The graph shown in Figure 22 rises from </text>
<text x="535" y="764" class="s6_50">A</text>
<text x="548" y="764" dx="0,-.1,-.1" class="s5_50">to </text>
<text x="563" y="764" class="s6_50">B</text>
<text x="572" y="764" dx="0,-.1,-.4,-.2,-.1,-.1,-.1,-.1,-.4,-.1,-.1,-.1,-.1" class="s5_50">, falls from </text>
<text x="642" y="764" class="s6_50">B</text>
<text x="654" y="764" dx="0,-.1,-.1" class="s5_50">to </text>
<text x="670" y="764" class="s6_50">C</text>
<text x="680" y="764" dx="0,-.1,-.4,-.1,-.1,-.1,-.4,-.1,-.1,-.1,-.1,-.1,-.4,-.1,-.2,-.1,-.1,-.1,-.4,-.1,-.1,-.1,-.1" class="s5_50">, and rises again from </text>
<text x="812" y="764" class="s6_50">C</text>
<text x="287" y="783" class="s5_50">to </text>
<text x="303" y="783" class="s6_50">D</text>
<text x="314" y="783" dx="0,0,.2,0,0,0,.5,0,0,0,0,0,0,0,0" class="s5_50">. The function </text>
<text x="407" y="783" class="s6_50">f</text>
<text x="418" y="783" dx="0,0,0,.5,0,0,0,0,.5,0,0,.5,0,0,.5,0,0,0,0,0,0,0,0,0,0,.5,0,0,.5,0,0,0,.5,0,0,0,0,0,-.4,0,0" class="s5_50">is said to be increasing on the interval </text>
<text x="657" y="783" class="sb_50">f</text>
<text x="662" y="783" class="s6_50">a</text>
<text x="669" y="783" class="s5_50">, </text>
<text x="677" y="783" class="s6_50">b</text>
<text x="685" y="783" class="sb_50">g</text>
<text x="690" y="783" dx="0,0,.5,0,0,0,0,0,0,0,0,0,0,.5,0,0" class="s5_50">, decreasing on </text>
<text x="787" y="783" class="sb_50">f</text>
<text x="792" y="783" class="s6_50">b</text>
<text x="800" y="783" class="s5_50">, </text>
<text x="807" y="783" class="s6_50">c</text>
<text x="814" y="783" class="sb_50">g</text>
<text x="819" y="783" class="s5_50">, </text>
<text x="287" y="801" dx="0,0,0,0,1.4,0,0,0,0,0,0,0,0,0,0,1.4,0,-.1,0,0,0,1.4,0,0" class="s5_50">and increasing again on </text>
<text x="441" y="801" class="sb_50">f</text>
<text x="446" y="801" class="s6_50">c</text>
<text x="453" y="801" class="s5_50">, </text>
<text x="460" y="801" class="s6_50">d</text>
<text x="469" y="801" class="sb_50">g</text>
<text x="475" y="801" dx="0,0,1.4,0,0,0,0,0,0,1.4,0,0,0,0,1.4,0,0" class="s5_50">. Notice that if </text>
<text x="573" y="801" class="s6_50">x</text>
<text x="580" y="803" class="sd_50">1</text>
<text x="590" y="801" class="s5_50">and </text>
<text x="618" y="801" class="s6_50">x</text>
<text x="625" y="803" class="sd_50">2</text>
<text x="635" y="801" dx="0,0,0,0,1.4,0,-.2,0,1.4,0,-.2,0,1.4,0,0,0,0,0,0,0,1.4,0,0,0,0,0,0,0" class="s5_50">are any two numbers between </text>
<text x="287" y="819" class="s6_50">a</text>
<text x="300" y="819" class="s5_50">and </text>
<text x="327" y="819" class="s6_50">b</text>
<text x="341" y="819" class="s5_50">with </text>
<text x="374" y="819" class="s6_50">x</text>
<text x="381" y="821" class="sd_50">1</text>
<text x="390" y="819" class="s7_50">,</text>
<text x="408" y="819" class="s6_50">x</text>
<text x="415" y="821" class="sd_50">2</text>
<text x="420" y="819" dx="0,0,1.7,0,0,0,0" class="s5_50">, then </text>
<text x="463" y="819" class="s6_50">f</text>
<text x="470" y="819" class="sb_50">s</text>
<text x="476" y="819" class="s6_50">x</text>
<text x="483" y="821" class="sd_50">1</text>
<text x="489" y="819" class="sb_50">d</text>
<text x="499" y="819" class="s7_50">,</text>
<text x="516" y="819" class="s6_50">f</text>
<text x="523" y="819" class="sb_50">s</text>
<text x="528" y="819" class="s6_50">x</text>
<text x="536" y="821" class="sd_50">2</text>
<text x="542" y="819" class="sb_50">d</text>
<text x="547" y="819" dx="0,0,1.2,-1.2,0,1.7,0,0,0,1.7,0,0,0,0,1.7,0,0,1.7,0,0,0,1.7,0,0,0,0,0,0,0,1.7,0,0,0,0,0,0,0,0,1.7,0,0,1.7,0,0" class="s5_50">. We use this as the deIning property of an </text>
<text x="287" y="838" class="s5_50">increasing function.</text>
<text x="468" y="967" class="sr_50">A</text>
<text x="564" y="861" class="ss_50">B</text>
<text x="596" y="933" class="ss_50">C</text>
<text x="630" y="872" class="ss_50">D</text>
<text x="472" y="895" class="ss_50">y=ƒ</text>
<text x="501" y="967" class="st_50">f(x¡)</text>
<path d="M466.8,1027.1V854" class="g1_50"/>
<path fill-rule="evenodd" d="M467,854l-2.5,1.7l2.5,-6.5l2.4,6.5Z" class="g2_50"/>
<path d="M445.4,999.6H657.2" class="g1_50"/>
<path fill-rule="evenodd" d="M657.2,999.6l-1.6,-2.4l6.5,2.4l-6.5,2.5Z" class="g2_50"/>
<text x="474" y="1013" class="su_50">a</text>
<text x="456" y="855" class="sv_50">y</text>
<text x="457" y="1012" class="su_50">0</text>
<text x="655" y="1012" class="su_50">x</text>
<text x="490" y="1013" dx="0,1.2,0,15.8,1,0,12.7,0,15.9,0,15.6" class="su_50">x¡ x™ b c d</text>
<path d="M477.2,971.7c14.5,-58,48.6,-102.4,90.5,-102.4c13,0,13.5,72.2,33.8,72.2c13,0,30.3,-37.8,33.4,-60.7" class="g0_50"/>
<path d="M633.2,880.8c0,-1,.8,-1.7,1.7,-1.7c1,0,1.8,.7,1.8,1.7c0,.9,-.8,1.7,-1.8,1.7c-.9,0,-1.7,-.8,-1.7,-1.7Z" class="g4_50"/>
<path d="M633.2,880.8c0,-1,.8,-1.7,1.7,-1.7c1,0,1.8,.7,1.8,1.7c0,.9,-.8,1.7,-1.8,1.7c-.9,0,-1.7,-.8,-1.7,-1.7Z" class="g5_50"/>
<path d="M475.4,971.7c0,-1,.8,-1.7,1.8,-1.7c.9,0,1.7,.7,1.7,1.7c0,.9,-.8,1.7,-1.7,1.7c-1,0,-1.8,-.8,-1.8,-1.7Z" class="g4_50"/>
<path d="M475.4,971.7c0,-1,.8,-1.7,1.8,-1.7c.9,0,1.7,.7,1.7,1.7c0,.9,-.8,1.7,-1.7,1.7c-1,0,-1.8,-.8,-1.8,-1.7Z" class="g5_50"/>
<path d="M565.9,869.3c0,-.9,.8,-1.7,1.7,-1.7c1,0,1.7,.8,1.7,1.7c0,1,-.7,1.7,-1.7,1.7c-.9,0,-1.7,-.7,-1.7,-1.7Z" class="g4_50"/>
<path d="M565.9,869.3c0,-.9,.8,-1.7,1.7,-1.7c1,0,1.7,.8,1.7,1.7c0,1,-.7,1.7,-1.7,1.7c-.9,0,-1.7,-.7,-1.7,-1.7Z" class="g5_50"/>
<path d="M599.6,941.5c0,-.9,.8,-1.7,1.7,-1.7c1,0,1.7,.8,1.7,1.7c0,1,-.7,1.7,-1.7,1.7c-.9,0,-1.7,-.7,-1.7,-1.7Z" class="g4_50"/>
<path d="M599.6,941.5c0,-.9,.8,-1.7,1.7,-1.7c1,0,1.7,.8,1.7,1.7c0,1,-.7,1.7,-1.7,1.7c-.9,0,-1.7,-.7,-1.7,-1.7Z" class="g5_50"/>
<path d="M529.5,883.3c2.7,.1,3,2.4,3.1,5.3v50.7c.1,3,-.4,5.3,2.2,5.4c-2.6,.1,-2.1,2.4,-2.2,5.3v43c-.1,2.9,-.5,5.6,-3.1,5.7M494.3,926.6c2.7,.1,3,2.5,3.1,5.4v25.1c.2,3,-.4,5.3,2.2,5.4c-2.6,.1,-2,2.4,-2.2,5.3V993c-.1,2.9,-.5,5.6,-3.1,5.7" class="g6_50"/>
<path d="M477.2,971.7v27.9M634.9,880.8V999.6M567.6,869.3V999.6m33.7,-58.1v58.1M528.4,883.3V999.6m-34.6,-73v73" class="g7_50"/>
<path d="M552,954.6h9V938.2h-9v16.4Z" class="g8_50"/>
<text x="536" y="949" class="st_50">f(x™)</text>
<text x="53" y="278" dx="0,.3,.3,.3,.3,.3,.1" class="sw_50">FIGURE </text>
<text x="106" y="278" class="sx_50">20 </text>
<text x="53" y="295" class="sy_50">An odd function</text>
<path d="M101,191.8l4.6,6.6M174.9,141l4.7,6.6M73.9,191.2h8m-8,-2.5h8M200.1,148.2h8.1m-8.1,-2.4h8.1" class="g9_50"/>
<path d="M77.8,169.7v42.6M204,126.6v42.6M77.8,212.3l125.7,-86" class="ga_50"/>
<text x="130" y="167" class="su_50">0</text>
<text x="201" y="182" class="si_50">x</text>
<text x="67" y="163" class="sz_50">_x</text>
<text x="216" y="161" class="s10_50">ƒ</text>
<path d="M227.2,149.2c-4.6,2.6,-11.2,-6.3,-14.5,-12.1c-20.2,-35.6,-57.5,8.3,-72.4,32.6c-15,24.3,-50.5,67.8,-70.6,32.2c-3.5,-5.8,-10,-14.7,-14.5,-12.1" class="g0_50"/>
<path d="M201.9,126.7c0,-.9,.8,-1.7,1.8,-1.7c.9,0,1.7,.8,1.7,1.7c0,1,-.8,1.8,-1.7,1.8c-1,0,-1.8,-.8,-1.8,-1.8Z" class="g4_50"/>
<path d="M201.9,126.7c0,-.9,.8,-1.7,1.8,-1.7c.9,0,1.7,.8,1.7,1.7c0,1,-.8,1.8,-1.7,1.8c-1,0,-1.8,-.8,-1.8,-1.8Z" class="g5_50"/>
<path d="M76.2,212.3c0,-.9,.8,-1.7,1.7,-1.7c1,0,1.7,.8,1.7,1.7c0,.9,-.7,1.7,-1.7,1.7c-.9,0,-1.7,-.8,-1.7,-1.7Z" class="g4_50"/>
<path d="M76.2,212.3c0,-.9,.8,-1.7,1.7,-1.7c1,0,1.7,.8,1.7,1.7c0,.9,-.7,1.7,-1.7,1.7c-.9,0,-1.7,-.8,-1.7,-1.7Z" class="g5_50"/>
<path d="M210.1,126.9c1.6,.1,2.1,1.6,2.2,3.4v23.5c.1,1.9,-.2,3.4,1.5,3.5c-1.7,0,-1.4,1.5,-1.5,3.4v2.9c-.1,1.9,-.6,3.6,-2.3,3.6" class="gb_50"/>
<text x="244" y="181" class="si_50">x</text>
<text x="129" y="110" class="su_50">y</text>
<path d="M54.7,169.7H246.9" class="g1_50"/>
<path fill-rule="evenodd" d="M246.9,169.7l-1.6,-2.5l6.5,2.5l-6.5,2.4Z" class="g2_50"/>
<path d="M140.3,247.7V108.9" class="g1_50"/>
<path fill-rule="evenodd" d="M140.3,108.9l-2.5,1.6l2.5,-6.5l2.4,6.5Z" class="g2_50"/>
<text x="204" y="706" dx="0,.3,.3,.3,.3,.3,.1" class="sw_50">FIGURE </text>
<text x="256" y="706" class="sx_50">21</text>
<text x="204" y="1024" dx="0,.3,.3,.3,.3,.3,.1" class="sw_50">FIGURE </text>
<text x="256" y="1024" class="sx_50">22</text>
<text x="121" y="1076" class="s11_50">Copyright 2016 Cengage Learning. All Rights Reserved. May not be copied, scanned, or duplicated, in whole or in part. Due to electronic rights, some third party content may be suppressed from the eBook and/or eChapter(s).</text>
<text x="106" y="1087" class="s11_50">Editorial review has deemed that any suppressed content does not materially affect the overall learning experience. Cengage Learning reserves the right to remove additional content at any time if subsequent rights restrictions require it.</text>

</g>

<!-- Any embedded fonts defined here -->
<style type="text/css" ><![CDATA[

@font-face {
	font-family: BeaconDingbatsTypeOne_12w;
	src: url("fonts/BeaconDingbatsTypeOne_12w.woff") format("woff");
}

@font-face {
	font-family: MathematicalPiLTStd-1_rr;
	src: url("fonts/MathematicalPiLTStd-1_rr.woff") format("woff");
}

@font-face {
	font-family: MathematicalPiLTStd-3_ry;
	src: url("fonts/MathematicalPiLTStd-3_ry.woff") format("woff");
}

@font-face {
	font-family: MathematicalPiLTStd-5_vb;
	src: url("fonts/MathematicalPiLTStd-5_vb.woff") format("woff");
}

@font-face {
	font-family: MyriadPro-BoldSemiCn_90;
	src: url("fonts/MyriadPro-BoldSemiCn_90.woff") format("woff");
}

@font-face {
	font-family: MyriadPro-Bold_74;
	src: url("fonts/MyriadPro-Bold_74.woff") format("woff");
}

@font-face {
	font-family: MyriadPro-Regular_4i;
	src: url("fonts/MyriadPro-Regular_4i.woff") format("woff");
}

@font-face {
	font-family: MyriadPro-Semibold_49;
	src: url("fonts/MyriadPro-Semibold_49.woff") format("woff");
}

@font-face {
	font-family: TECHMath-Mix_-o;
	src: url("fonts/TECHMath-Mix_-o.woff") format("woff");
}

@font-face {
	font-family: TECHMath-Mix_10x;
	src: url("fonts/TECHMath-Mix_10x.woff") format("woff");
}

@font-face {
	font-family: TECHMath-Mix_13d;
	src: url("fonts/TECHMath-Mix_13d.woff") format("woff");
}

@font-face {
	font-family: TECHMath-Mix_14f;
	src: url("fonts/TECHMath-Mix_14f.woff") format("woff");
}

@font-face {
	font-family: TECHMath-Mix_14o;
	src: url("fonts/TECHMath-Mix_14o.woff") format("woff");
}

@font-face {
	font-family: TECHMath-Mix_151;
	src: url("fonts/TECHMath-Mix_151.woff") format("woff");
}

@font-face {
	font-family: TECHMath-Mix_157;
	src: url("fonts/TECHMath-Mix_157.woff") format("woff");
}

@font-face {
	font-family: TECHMath-Mix_15e;
	src: url("fonts/TECHMath-Mix_15e.woff") format("woff");
}

@font-face {
	font-family: TECHMath-Mix_15k;
	src: url("fonts/TECHMath-Mix_15k.woff") format("woff");
}

@font-face {
	font-family: TECHMath-Mix_x7;
	src: url("fonts/TECHMath-Mix_x7.woff") format("woff");
}

@font-face {
	font-family: Times-Italic_n3;
	src: url("fonts/Times-Italic_n3.woff") format("woff");
}

@font-face {
	font-family: Times-Roman_4n;
	src: url("fonts/Times-Roman_4n.woff") format("woff");
}

@font-face {
	font-family: Times-Roman_n6;
	src: url("fonts/Times-Roman_n6.woff") format("woff");
}

@font-face {
	font-family: TimesLTStd-Italic_o3;
	src: url("fonts/TimesLTStd-Italic_o3.woff") format("woff");
}

@font-face {
	font-family: TimesLTStd-Roman_143;
	src: url("fonts/TimesLTStd-Roman_143.woff") format("woff");
}

@font-face {
	font-family: ZapfDingbatsITC_my;
	src: url("fonts/ZapfDingbatsITC_my.woff") format("woff");
}

]]></style>

</svg>
