<?xml version="1.0" encoding="UTF-8" standalone="no"?>
<!DOCTYPE svg PUBLIC "-//W3C//DTD SVG 1.1//EN"
"http://www.w3.org/Graphics/SVG/1.1/DTD/svg11.dtd">


<!-- Page 52 -->
<svg x="0" y="0" width="931" height="1096" viewBox="0 0 931 1096" version="1.1" xmlns="http://www.w3.org/2000/svg" xmlns:xlink="http://www.w3.org/1999/xlink"
style="display: block;margin-left: auto;margin-right: auto;">
<defs>
<clipPath id="c_52"><path d="M0,0H931V1096H0Z"/></clipPath>
<clipPath id="c0_52"><path d="M499.6,244.2V97.6h277V244.2Z"/></clipPath>

<style type="text/css"><![CDATA[
text { white-space: pre; }
path, image { pointer-events: none; }

.s1_52{
font-size: 15.28px;
font-family: MyriadPro-Semibold_49;
fill: #231F20;
}
.s2_52{
font-size: 12.22px;
font-family: MyriadPro-Semibold_49;
fill: #231F20;
}
.s3_52{
font-size: 13.75px;
font-family: MyriadPro-Semibold_49;
fill: #231F20;
}
.s4_52{
font-size: 12.22px;
font-family: MyriadPro-Regular_4i;
fill: #231F20;
}
.s5_52{
font-size: 13.75px;
font-family: MyriadPro-BoldSemiCn_90;
fill: #231F20;
}
.s6_52{
font-size: 13.75px;
font-family: TimesLTStd-Roman_143;
fill: #231F20;
}
.s7_52{
font-size: 13.75px;
font-family: TimesLTStd-Italic_o3;
fill: #231F20;
}
.s8_52{
font-size: 12.22px;
font-family: TECHMath-Mix__m;
fill: #231F20;
}
.s9_52{
font-size: 12.22px;
font-family: TECHMath-Mix_16i;
fill: #231F20;
}
.sa_52{
font-size: 12.22px;
font-family: Times-Roman_n6;
fill: #231F20;
}
.sb_52{
font-size: 10.69px;
font-family: TimesLTStd-Italic_o3;
fill: #231F20;
}
.sc_52{
font-size: 10.69px;
font-family: TimesLTStd-Roman_143;
fill: #231F20;
}
.sd_52{
font-size: 13.75px;
font-family: TimesLTStd-Roman_6c;
fill: #231F20;
}
.se_52{
font-size: 12.22px;
font-family: TimesLTStd-Roman_143;
fill: #231F20;
}
.sf_52{
font-size: 12.22px;
font-family: TECHMath-Mix_16r;
fill: #231F20;
}
.sg_52{
font-size: 10.69px;
font-family: TimesLTStd-Roman_6c;
fill: #231F20;
}
.sh_52{
font-size: 13.75px;
font-family: MyriadPro-BoldSemiCn_90;
fill: #EC008C;
}
.si_52{
font-size: 12.22px;
font-family: TECHMath-Mix_15k;
fill: #231F20;
}
.sj_52{
font-size: 12.22px;
font-family: TECHMath-Mix_123;
fill: #231F20;
}
.sk_52{
font-size: 12.22px;
font-family: TECHMath-Mix_16e;
fill: #231F20;
}
.sl_52{
font-size: 12.99px;
font-family: TimesNewRomanPS-ItalicMT_132;
fill: #231F20;
}
.sm_52{
font-size: 12.22px;
font-family: TimesLTStd-Italic_o3;
fill: #231F20;
}
.sn_52{
font-size: 13.75px;
font-family: TimesLTStd-Roman_16m;
fill: #231F20;
}
.so_52{
font-size: 12.22px;
font-family: TECHMath-Mix_16a;
fill: #231F20;
}
.sp_52{
font-size: 9.17px;
font-family: Times-Roman_n6;
fill: #231F20;
}
.sq_52{
font-size: 13.75px;
font-family: MathematicalPiLTStd-3_ry;
fill: #231F20;
}
.sr_52{
font-size: 7.64px;
font-family: Times-Roman_4n;
fill: #000000;
}

.g0_52{
fill: #231F20;
}
.g1_52{
fill: none;
stroke: #231F20;
stroke-width: 0.611;
stroke-linecap: butt;
stroke-linejoin: miter;
stroke-miterlimit: 3;
}
.g2_52{
fill: none;
stroke: #00AEEF;
stroke-width: 0.916;
stroke-linecap: butt;
stroke-linejoin: miter;
stroke-miterlimit: 4;
}
.g3_52{
fill: none;
stroke: #231F20;
stroke-width: 0.611;
stroke-linecap: square;
stroke-linejoin: miter;
stroke-miterlimit: 3;
}
.g4_52{
fill: none;
stroke: #00AEEF;
stroke-width: 0.916;
stroke-linecap: round;
stroke-linejoin: round;
stroke-miterlimit: 4;
}
.g5_52{
fill: none;
stroke: #231F20;
stroke-width: 0.763;
stroke-linecap: butt;
stroke-linejoin: miter;
stroke-miterlimit: 4;
}
.g6_52{
fill: none;
stroke: #66C18C;
stroke-width: 0.916;
stroke-linecap: butt;
stroke-linejoin: miter;
stroke-miterlimit: 3;
}
.g7_52{
fill: none;
stroke: #00AEEF;
stroke-width: 0.916;
stroke-linecap: butt;
stroke-linejoin: miter;
stroke-miterlimit: 3;
}
.g8_52{
fill: none;
stroke: #EC008C;
stroke-width: 0.916;
stroke-linecap: butt;
stroke-linejoin: miter;
stroke-miterlimit: 3;
}
.g9_52{
fill: #00AEEF;
}
.ga_52{
fill: none;
stroke: #00AEEF;
stroke-width: 0.381;
stroke-linecap: butt;
stroke-linejoin: miter;
stroke-miterlimit: 3;
}
.gb_52{
fill: #EC008C;
}
.gc_52{
fill: none;
stroke: #EC008C;
stroke-width: 0.381;
stroke-linecap: butt;
stroke-linejoin: miter;
stroke-miterlimit: 3;
}
.gd_52{
fill: #66C18C;
}
.ge_52{
fill: none;
stroke: #66C18C;
stroke-width: 0.381;
stroke-linecap: butt;
stroke-linejoin: miter;
stroke-miterlimit: 3;
}
.gf_52{
fill: none;
stroke: #EC008C;
stroke-width: 0.916;
stroke-linecap: butt;
stroke-linejoin: round;
stroke-miterlimit: 3;
}
.gg_52{
fill: none;
stroke: #8A8C8E;
stroke-width: 0.534;
stroke-linecap: butt;
stroke-linejoin: miter;
stroke-miterlimit: 3;
}

]]></style>

</defs>
<g clip-path="url(#c_52)">
<path d="M0,0
L0,1096
L931,1096
L931,0 Z " 
fill="#FFFFFF" stroke="none"/>
<text x="53" y="64" class="s1_52">20</text>
<text x="126" y="64" dx="0,.2,.2,.2,.2,.2,.2,.1" class="s2_52">CHAPTER </text>
<text x="180" y="64" class="s3_52">1</text>
<text x="200" y="64" dx="0,-.3,.1,.1,.3,.1,.1,.1,.1,.1,.1,.1,.1,.1,.1,.2,.1,.1,.1,.1" class="s4_52">Functions and Models</text>
<text x="54" y="107" class="s5_52">11. </text>
<text x="78" y="107" dx="0,0,0,-.3,0,0,0,0,0,0,0,0,0,0,0,0,0,0,0,0,0,0,0,0,0,0,0,0,0,0,0,0,-.3,-.2,0,0,0,0,0,0,0,0,0,0,0,0,0,0,0,0,0" class="s6_52">Shown is a graph of the global average temperature </text>
<text x="364" y="107" class="s7_52">T</text>
<text x="376" y="107" class="s6_52">during </text>
<text x="78" y="124" dx="0,0,0,0,0,0,.8,.8,0,0,0,0,0,0,0,0,-.9,0,0,0,0,0,0,0,0,0,0,0,0,0,0,0,0,0,0,0,-.3,0,0,0,0" class="s6_52">the 20th century. Estimate the following.</text>
<text x="78" y="141" dx="0,0,0,0,4.2,0,0,0,0,0,0,0,0,0,0,0,-.3,-.2,0,0,0,0,0,0,0,0,0,0,0,0,0,0,0,0,0,0,0,0,0,0,0,0" class="s6_52">(a) The global average temperature in 1950</text>
<text x="78" y="158" dx="0,0,0,0,3.5,0,0,0,0,0,0,0,0,0,0,0,0,0,0,0,0,0,0,-.3,-.2,0,0,0,0,0,0,0,0,0,0,0,0,0,0,0,0,0,0,-.1,0,0,0,0,0,0,0,0" class="s6_52">(b) The year when the average temperature was 14.2°C</text>
<text x="78" y="175" dx="0,0,0,0,4.2,0,0,0,0,0,0,0,0,0,0,0,0,0,0,0,0,0,0,0,0,0,0,0,0,0,0,0,0,0,0,-.1,0,0,0,0,0,0,0,0,0,0,0,0,0,0,0,-.2,0,0,0,0" class="s6_52">(c) The year when the temperature was smallest? Largest?</text>
<text x="78" y="191" dx="0,0,0,0,3.5,0,0,0,0,0,0,0,0,0,0,0,0" class="s6_52">(d) The range of </text>
<text x="175" y="191" class="s7_52">T</text>
<path fill-rule="evenodd" d="M350.4,387.7l-1.7,-2.4l6.6,2.4l-6.6,2.5Z" class="g0_52"/>
<path d="M135.9,222.2V387.7H350.4" class="g1_52"/>
<path fill-rule="evenodd" d="M135.9,222.6l-2.4,1.6l2.4,-6.5l2.5,6.5Z" class="g0_52"/>
<text x="350" y="399" class="s8_52">t</text>
<text x="124" y="225" dx="0,12.1" class="s9_52">T(</text>
<text x="146" y="223" class="s9_52">•</text>
<text x="150" y="225" class="sa_52">C</text>
<text x="159" y="225" class="s9_52">)</text>
<text x="122" y="404" class="s9_52">1900</text>
<text x="219" y="404" class="s9_52">1950</text>
<text x="314" y="404" class="s9_52">2000</text>
<path d="M231.5,384.5v6.1M326,384.5v6.1M132.9,285.1H139M132.9,268H139m-6.1,-17.2H139m-6.1,-17.1H139m-6.1,68.5H139m-6.1,17.1H139m-6.1,17.1H139m-6.1,34.2H139m-6.1,0H139m-6.1,-17.1H139" class="g1_52"/>
<text x="118" y="374" class="s9_52">13</text>
<text x="118" y="288" class="s9_52">14</text>
<path d="M135.9,305.9c1.6,1.4,2.9,3.4,3.5,4.3c.9,1.5,3.1,4.6,4.7,5.7c1.7,1.2,3.1,2,5.1,4c2,2,3.4,5.8,6,5.8c3.3,0,7.1,-9,8.8,-9c4.1,0,1.8,-.4,7.1,-1.8c5,-1.2,4.3,-3.3,8.2,-4.6c3.8,-1.2,7.1,-5.3,9.8,-6.2c2.6,-.9,8.5,-3.1,11,-4.3c2.6,-1.3,8.1,-16.8,14,-16.8c6,0,10.2,17.4,14.7,17.4c4.4,0,2.7,-.4,4.3,-1.3c1.7,-.9,1.7,-1.4,2.8,-1.2c1.2,.1,2.1,1,3.4,.9c4.2,-.4,8.1,-7.9,11.1,-7.9c3.1,0,6.3,5.6,8.9,5.6c4.9,0,6.4,-6.4,10,-6.4c3.5,0,3.8,1,6.8,1c5.1,0,9.8,-11.7,12.8,-13.5c1.6,-1,4.4,.8,7.9,-.2c3.4,-1.1,5.1,-5.6,8,-7.2c2.9,-1.5,4.2,.3,6.7,-1.1c2.6,-1.4,14.7,-23.8,25.5,-23.8" class="g2_52"/>
<text x="89" y="440" dx="0,0,0,0,-.4,0,0,0" class="sb_52">Source: </text>
<text x="124" y="440" class="sc_52">Adapted from </text>
<text x="187" y="440" class="sb_52">Globe and Mail </text>
<text x="257" y="440" dx="0,0,-.9,0,0,0,0,0,0,0,0,0,0,0,0,0,0,0,0,0,0,0,0,0,0,0,0,0,0,0" class="sc_52">[Toronto], 5 Dec. 2009. Print.</text>
<text x="54" y="471" dx="0,-.1,-.1,-.1" class="s5_52">12. </text>
<text x="78" y="471" dx="0,-.6,-.1,-.1,-.1,-.1,-.1,-.1,-.1,-.5,-.1,-.1,-.3,-.1,-.1,-.1,-.1,-.1,-.1,-.1,-.1,-.1,-.1,-.1,-.1,-.1,-.1,-.1,-.1,-.1,-.1,-.1,-.1,-.1,-.1,-.1,-.1,-.1,-.1,-.1,-.1,-.1,-.1,-.3,-.1,-.1,-.1,-.1,-.1,-.1,-.1,-.1,-.1,-.1,-.1,-.1,0" class="s6_52">Trees grow faster and form wider rings in warm years and </text>
<text x="78" y="487" dx="0,-.1,-.1,-.5,-.1,-.1,-.1,-.1,-.1,-.1,-.1,-.1,-.1,-.5,-.1,-.1,-.1,-.1,-.1,-.1,-.1,-.1,-.1,-.1,-.1,-.1,-.1,-.1,-.1,-.1,-.1,-.5,-.1,-.1,-.1,-.1,-.1,-.1,-.1,-.1,-.1,-.1,-.1,-.1,-.1,-.1,-.1,-.1,-.1,-.1,-.1,-.1,-.1,-.1,-.1,-.1,-.1,-.1,-.4,-.1,-.1,0" class="s6_52">grow more slowly and form narrower rings in cooler years. The </text>
<text x="78" y="504" dx="0,-.1,-.1,-.1,-.1,-.1,-.1,-.1,-.1,-.5,-.1,-.1,-.1,-.1,-.1,-.1,-.1,-.1,-.1,-.1,-.1,-.1,-.1,-.1,-.1,-.1,-.1,-.1,-.1,-.1,-.1,-.1,-.1,-.1,-.1,-.1,-.1,-.1,-.1,-.1,-.1,-.1,-.1,-.1,-.1,-.1,-.1,-.1,-.1,-.1,-.1,-.1,-.1,-.1,-.1,-.1,-.1,-.1,-.1,-.1,-.1" class="s6_52">Igure shows ring widths of a Siberian pine from 1500 to 2000.</text>
<text x="78" y="524" dx="0,0,0,0,4.2,0,0,0,0,0,0,0,0,0,0,0,0,0,0,0,0,0,0,0,0,0,0,0,0,0,0,0,0,0,0,0,0,0,0,0,0,0,0,0,0,0,0,0,0" class="s6_52">(a) What is the range of the ring width function?</text>
<text x="78" y="541" class="s6_52">(b) </text>
<text x="101" y="541" class="s6_52">What does the graph tend to say about the temperature </text>
<text x="101" y="558" dx="0,0,0,0,0,0,0,0,0,0,0,0,0,0,0,0,0,0,0,0,0,0,0,0,0,0,0,0,0,0,0,0,0,0,0,0,0,0,0,0,0,-.3,0,0,0,0,0,0,0,0,0,0,0,0" class="sd_52">of the earth? Does the graph re²ect the volcanic erup-</text>
<text x="101" y="574" class="sd_52">tions of the mid-19th century?</text>
<path d="M268.6,757.4v6.1m37.8,-6.1v6.1m-75.6,-6.1v6.1M193,757.4v6.1m-37.8,-6.1v6.1" class="g1_52"/>
<text transform="matrix(0,-1,1,0,98,733)" class="se_52">Ring width (mm)</text>
<text x="117" y="630" class="sf_52">1.6</text>
<text x="117" y="646" class="sf_52">1.4</text>
<text x="117" y="663" class="sf_52">1.2</text>
<text x="127" y="680" class="sf_52">1</text>
<text x="115" y="697" dx="0,-.8,0" class="sf_52">0.8</text>
<text x="115" y="714" dx="0,-.8,0" class="sf_52">0.6</text>
<text x="115" y="730" dx="0,-.8,0" class="sf_52">0.4</text>
<text x="115" y="747" dx="0,-.8,0" class="sf_52">0.2</text>
<text x="127" y="764" class="sf_52">0</text>
<text x="143" y="776" dx="0,-.2,-.3,.3,0,2.1,-.3,0,.3,0,1.9,-.3,-.1,.3,0,1.9,-.3,-.2,.3,0,2,-.3,0,.3" class="sf_52">1500 1600 1700 1800 1900</text>
<text x="237" y="800" dx="0,-1.2,0,0" class="se_52">Year</text>
<text x="331" y="776" dx="0,0,.3,.3" class="sf_52">2000</text>
<text x="363" y="772" class="sf_52">t</text>
<text x="125" y="611" class="sf_52">R</text>
<path d="M344.2,757.4v6.1" class="g1_52"/>
<path d="M138.4,760.5V607.7" class="g3_52"/>
<path fill-rule="evenodd" d="M138.4,607.7l-2.5,1.7l2.5,-6.5l2.4,6.5Z" class="g0_52"/>
<path d="M138.4,760.5H361.9" class="g1_52"/>
<path fill-rule="evenodd" d="M361.9,760.5L360.3,758l6.5,2.5l-6.5,2.4Z" class="g0_52"/>
<path d="M135.3,659.6h6.1m-6.1,-16.8h6.1M135.3,626h6.1m-6.1,84h6.1m-6.1,16.8h6.1m-6.1,16.8h6.1m-6.1,-50.4h6.1m-6.1,-16.8h6.1" class="g1_52"/>
<path d="M154.9,716.8l.2,-4.5l.7,8.5l.8,-7l.5,2.8l1.7,-8.7v9.5l1.6,-2.4l-.5,13l1.8,-11l.2,10.4l1.1,-7.6l.3,7.3l1.1,-15l.2,20.1l1.3,-36l.8,14.8c0,0,1.1,-13.4,1.1,-12.8c0,.6,.3,21.3,.3,20.9c0,-.5,.8,-23.8,.8,-23.8l.7,19.6L171,702.1l-.7,14.8c0,0,1.2,-3.9,1.2,-3.1c0,.8,-.7,14.2,-.7,14.2l1.6,-8.9v10l.7,-16.5c0,0,.5,8.5,.5,8c0,-.5,1.6,-10.5,1.6,-10.5l.4,12c0,0,1.2,-8.1,1.2,-7.7c0,.5,.6,6.2,.6,6.2c0,0,.5,-11.9,.3,-11.4c-.1,.4,1.2,8.9,1.2,8.9l.6,-16.2l.3,15.9l1.9,-16.7l.7,23.2l.9,-8.5l-.3,9.8l1.8,-24l.1,11.9l1,-2.9l-.3,16.8c0,0,1.4,-5.7,1.4,-5.3c0,.5,.5,6.1,.7,5.6c.1,-.4,.6,-4.8,.6,-4.8l.8,8.4L190.2,701l.2,20.7L192,710.9l-.2,21.1l1.3,-2.1l.3,5.4l.8,-4.5l.7,14.8c0,0,1.3,-11.9,1.3,-11.2c0,.6,.6,2.6,.6,2.6l-.3,-7.3c0,0,.8,4.5,1.1,4c.3,-.4,-.5,-14.3,-.5,-13.7c0,.6,1.8,6.3,1.8,6.3l.9,-13.6l1,16.7l.8,-7.1V730l1.6,-19.3l-.1,19.3l1.7,-4.1l.2,13.3l1.3,-10.9c0,0,1.1,3,1.2,2.5c.2,-.5,.2,-3.7,.2,-3.7l1.4,9.9l.4,-13.9l1.2,11.6l1,-15l1,6.2l.8,-2.2c0,0,0,9.7,-.2,8.8c-.1,-.9,1.5,-5.7,1.5,-5.7l1.1,4l.9,-7.4V735c0,0,1.3,-1.6,1.3,-.9c0,.6,.3,4,.3,4l1.3,1.1v7.5l1.5,-1.1l-.2,6.1l1,.9l-.2,1.8l1.1,-2l-.3,5.5l1.6,-2.8v3.5l1.5,-7.7l.3,4c0,0,1.1,-6.8,1.4,-6.3c.3,.4,.7,3.2,.7,3.2l1.2,-4.3l.2,2.3l1.1,-10.5c0,0,1.3,11.3,1.3,10.8c0,-.4,1.1,-2.6,1.1,-2.6l.7,6.3l.8,-3.4l.4,6.8l1,-6.8l.8,1l.3,-3.6l1.2,.6v-7.6l1.6,5.2l.9,-15.5c0,0,.8,12.8,.8,12.4c0,-.5,.7,-13.2,.7,-13.2l.9,12.2l.5,-2.3l.3,5.6l1.3,-6.2l.6,-8.7l1,3.4l.8,-7.8l.5,8.2l.8,-3.6l-.3,10.7l1.6,-5.3v6.8l1.6,-5.5l1.1,4.7l.6,-9.9l1.3,1.1V717.5l1.8,1.7L256.1,705l1.8,2.8l.3,-30.6l1.3,12.3l.5,-9.8l.6,22.1l.8,-10.9l.8,14.4l.6,-23.5l.7,23.7l1.1,-12.7l-.6,14.5l1.4,-1.2l.2,25.3l.9,-1.8l.3,5.5l1.6,-9.8l.2,8.3l1.3,-9.7l.8,10c0,0,1.1,-17.6,1.1,-17.2c0,.5,.5,6.8,.5,6.8l1.1,-16l.3,15.6l1.2,-7.1l-.7,16.4c0,0,1.6,-9.9,1.5,-8.5c-.2,1.4,.4,10.3,.4,10.3c0,0,1.5,-22.6,1.3,-21.9c-.1,.6,.7,12.3,.7,12.3c0,0,.9,-10.2,.8,-9.7c-.2,.5,.3,11.7,.3,11.7c0,0,1.7,-30.3,1.6,-29.3c-.2,.9,.1,16,.1,15.6c0,-.5,1.2,-15,1.2,-14.4v25.4l1.6,-2.8l.1,13l1.5,-5l.3,9.6l1.1,-8.8l-.5,-14.4c0,0,1.2,7.9,1.5,7.3c.3,-.7,.5,-13.6,.3,-13.2c-.2,.5,1,13.3,1,13.3l.6,18.4c0,0,.8,-18.5,.8,-18.1c0,.5,1,10.9,1,10.9l-.2,-12.7l1.4,.1c0,0,.5,-10,.4,-9.4c-.2,.6,.8,9.3,.8,9.3c0,0,.8,-5.9,.6,-5.3c-.1,.6,-.1,15.6,-.1,15.6l1.4,-1.7l-.2,14.4c0,0,2,-7.9,1.8,-7.1c-.2,.8,-.2,14.1,-.2,13.4c0,-.6,1.2,-10,1.2,-10l.6,4.8l.3,-11.4l1.5,3.1l-.2,-12.4l1.6,3.8v-8.8l2.1,9c0,0,-.2,-18.4,-.2,-17.9c0,.4,1.8,11.4,1.8,11.4c0,0,.5,-22.5,.5,-21.8c0,.8,.9,15.8,.9,15.8l1.2,-7.6l1.1,10.5c0,0,.5,-23,.5,-22.5c0,.4,.9,13.5,.9,13.5c0,0,.8,-24.8,.8,-24.2c0,.6,.3,29.7,.3,29.7l1.2,-8.1l.9,9.3c0,0,-.1,-21.3,-.1,-20.9c0,.5,2.1,7.9,2.1,7.9l-.4,-11.3l1.8,3.4l-.2,-10l1.8,3.4l-.3,-16.2l1.1,16.8l.2,21.8c0,0,1.6,-20.6,1.6,-18.4c0,2.2,.1,21.8,.1,21.8c0,0,1.5,-22.9,1.5,-22.4c0,.5,.9,5.2,.9,5.2l1.2,-18.8l-1.2,25c0,0,2,-21,2.1,-20.2c.2,.8,.2,11.6,.2,11.6l1.6,-3.4V705l1.4,-27.7l1.6,16.4l-.2,-17.6l.5,24.1l1.5,-48.8l.9,22.8l.8,-10.8l1.2,2.8l.3,-21.5l1.1,39.4l1.1,-27.3l.7,16.7l1.3,-44.2l.7,39.1l.9,-37l1.4,38.2" class="g4_52"/>
<path d="M344.2,755.5v4.6" class="g5_52"/>
<text x="80" y="831" dx="0,0,0,0,-.4,0,0,0" class="sb_52">Source: </text>
<text x="116" y="831" dx="0,0,0,0,0,0,0,0,0,0,0,0,0,0,0,0,0,0,0,0,0,0,0,0,0,0,0,0,0,0,0,0,0,0,0,0,0,0,0,0,0,0,-.2,-.4,0,0,0,0,0,0,0,0,0,0,0,0,0,0,0,0,0,0" class="sg_52">Adapted from G. Jacoby et al., “Mongolian Tree Rings and 20th-</text>
<text x="80" y="844" dx="0,0,0,0,0,0,0,0,-.3,-.9,0,0,0,0,0,0,-.7,0" class="sg_52">Century Warming,” </text>
<text x="166" y="844" class="sb_52">Science</text>
<text x="202" y="844" class="sg_52">273 (1996): 771–73.</text>
<text x="54" y="872" dx="0,-.1,-.1,-.1" class="sh_52">13. </text>
<text x="78" y="872" dx="0,-1.7,-.1,-.1,-.1,-.1,-.1,-.1,-.1,-.1,-.1,-.1,-.1,-.1,-.1,-.1,-.1,-.1,-.1,-.1,-.1,-.1,-.1,-.1,-.1,-.1,-.1,-.1,-.1,-.1,-.1,-.1,-.1,-.1,-.1,-.1,-.1,-.1,-.1,-.1,-.1,-.1,-.1,-.1,-.1,-.1,-.1,-.1,-.1,-.1,-.1,-.1,-.1,-.1,-.1,-.1,-.1,-.1,-.1,-.1,-.3,-.1,-.1,-.1,-.7,0" class="sd_52">You put some ice cubes in a glass, ±ll the glass with cold water, </text>
<text x="78" y="889" dx="0,-.1,-.1,-.1,-.1,-.1,-.1,-.1,-.1,-.1,-.1,-.1,-.1,-.1,-.1,-.1,-.1,-.1,-.1,-.1,-.1,-.1,-.1,-.1,-.1,-.1,-.1,-.1,-.1,-.1,-.1,-.1,-.1,-.1,-.1,-.1,-.1,-.1,-.1,-.1,-.1,-.1,-.1,-.1,-.1,-.1,-.1,-.1,-.1,-.1,-.5,-.1,-.1,-.1,-.1,-.1,-.1,-.1,-.1,-.1,-.1,-.1,-.1,-.1" class="sd_52">and then let the glass sit on a table. Describe how the tempera-</text>
<text x="78" y="905" dx="0,-.1,-.1,-.1,-.1,-.1,-.1,-.1,-.1,-.1,-.1,-.1,-.1,-.3,-.1,-.1,-.1,-.1,-.1,-.1,-.1,-.1,-.1,-.1,-.1,-.1,-.1,-.1,-.1,-.1,-.1,-.1,-.1,-.1,-.1,-.1,-.1,-.1,-.1,-.1,-.1,-.1,-.4,-.1,-.1,-.1,-.1,-.1,-.1,-.3,-.1,-.1,-.1,-.1,-.1,-.1,-.1,-.1,-.1,-.1,-.1,0" class="sd_52">ture of the water changes as time passes. Then sketch a rough </text>
<text x="78" y="922" dx="0,-.1,-.1,-.1,-.1,-.1,-.1,-.1,-.1,-.1,-.1,-.1,-.1,-.1,-.1,-.1,-.1,-.1,-.1,-.1,-.1,-.1,-.1,-.1,-.1,-.1,-.1,-.1,-.1,-.1,-.1,-.1,-.1,-.3,-.1,-.1,-.1,-.1,-.1,-.1,-.1,-.1,-.1,-.1,-.1,-.1,-.1,-.1,-.1,-.1,-.1,-.1,-.1,-.1,-.1,-.1,-.1,-.1,0" class="sd_52">graph of the temperature of the water as a function of the </text>
<text x="78" y="939" dx="0,-.1,-.1,-.1,-.1,-.1,-.1,-.1,-.1,-.1,-.1,-.1,-.1" class="sd_52">elapsed time.</text>
<text x="54" y="967" class="s5_52">14. </text>
<text x="78" y="967" dx="0,0,0,0,0,0,0,0,0,0,0,0,0,0,0,0,0,0,0,0,0,0,0,0,0,0,0,0,0,0,0,0,0,0,0,0,0,0,0,0,0,0,0,-.2,0,0,0,0,0,0,0,0,0" class="sd_52">Three runners compete in a 100-meter race. The graph </text>
<text x="78" y="983" dx="0,0,0,0,0,0,0,0,0,0,0,0,0,0,0,0,0,0,0,0,0,0,0,0,0,0,0,0,0,0,0,0,0,0,0,0,0,0,0,0,0,0,0,0,0,0,0,0,0,0,0,0,0,0,0,0,0,0,0,0,0,0,-.8,0" class="sd_52">depicts the distance run as a function of time for each runner. </text>
<text x="78" y="1000" dx="0,0,0,0,0,0,0,0,0,0,0,0,0,-.1,0,0,0,0,0,0,0,0,0,0,0,0,0,0,0,0,0,0,0,0,0,0,0,0,0,0,0,0,0,0,0,0,0,0,0,0,0,0,0,0,0,0,0,0,0,0" class="sd_52">Describe in words what the graph tells you about this race. </text>
<text x="78" y="1017" dx="0,0,0,0,0,-.1,0,0,0,0,0,0,0,0,0,0,0,0,0,0,0,0,0,0,0,0,0,0,0,0,0,0,0,0,0,0,0,0,0,0,0,0,0,0,0,0,0,0,0" class="sd_52">Who won the race? Did each runner ±nish the race?</text>
<path d="M532.5,219.2c25.4,-9,48.7,-37.6,87,-57.9c36.9,-19.4,74.2,-25.3,82.6,-33.8" class="g6_52"/>
<path d="M532.5,219.2c33.6,-2.9,47.7,-9.4,61.1,-22.7c15.8,-15.8,21.9,-59.6,48.9,-69" class="g7_52"/>
<path d="M532.5,219.2c17.8,-9.5,21.9,-21.7,29,-28.8c12.2,-12.2,59.1,1.5,71.8,-11.2c13.7,-13.8,23.4,-37.7,35.2,-51.7" class="g8_52"/>
<text x="523" y="231" class="si_52">0</text>
<path d="M529.4,127.5h6.1m143.7,88.6v6.1M505,219.2H725.6" class="g1_52"/>
<path fill-rule="evenodd" d="M725.6,219.2L724,216.8l6.5,2.4l-6.5,2.4Z" class="g0_52"/>
<g clip-path="url(#c0_52)">
<path d="M532.5,246.7V105.8" class="g1_52"/>
</g>
<path fill-rule="evenodd" d="M532.5,105.8l-2.5,1.7l2.5,-6.5l2.4,6.5Z" class="g0_52"/>
<text x="509" y="133" class="sj_52">100</text>
<text x="672" y="235" class="sk_52">20</text>
<path d="M643.6,127.5c0,.7,-.5,1.2,-1.1,1.2c-.6,0,-1.2,-.5,-1.2,-1.2c0,-.6,.6,-1.1,1.2,-1.1c.6,0,1.1,.5,1.1,1.1Z" class="g9_52"/>
<path d="M643.6,127.5c0,.7,-.5,1.2,-1.1,1.2c-.6,0,-1.2,-.5,-1.2,-1.2c0,-.6,.6,-1.1,1.2,-1.1c.6,0,1.1,.5,1.1,1.1Z" class="ga_52"/>
<path d="M669.6,127.5c0,.7,-.5,1.2,-1.1,1.2c-.7,0,-1.2,-.5,-1.2,-1.2c0,-.6,.5,-1.1,1.2,-1.1c.6,0,1.1,.5,1.1,1.1Z" class="gb_52"/>
<path d="M669.6,127.5c0,.7,-.5,1.2,-1.1,1.2c-.7,0,-1.2,-.5,-1.2,-1.2c0,-.6,.5,-1.1,1.2,-1.1c.6,0,1.1,.5,1.1,1.1Z" class="gc_52"/>
<path d="M703.2,127.5c0,.7,-.5,1.2,-1.1,1.2c-.7,0,-1.2,-.5,-1.2,-1.2c0,-.6,.5,-1.1,1.2,-1.1c.6,0,1.1,.5,1.1,1.1Z" class="gd_52"/>
<path d="M703.2,127.5c0,.7,-.5,1.2,-1.1,1.2c-.7,0,-1.2,-.5,-1.2,-1.2c0,-.6,.5,-1.1,1.2,-1.1c.6,0,1.1,.5,1.1,1.1Z" class="ge_52"/>
<text x="638" y="121" class="sl_52">A</text>
<text x="666" y="121" class="sl_52">B</text>
<text x="700" y="121" class="sl_52">C</text>
<path d="M542.3,98.7c-.9,.8,-2,1.7,-2,4.8c0,1.3,0,3.9,2,5.3l-.1,.2c-.7,-.4,-1.5,-1.3,-2,-1.9c-.6,-.9,-1,-1.8,-1,-3.5c0,-2.1,1.1,-3.9,3,-5.1Z" class="g0_52"/>
<path d="M543.8,102.7c0,-.8,-.3,-.8,-.5,-.8c-.1,0,-.3,0,-.4,0v-.2c.6,-.1,1.2,-.3,1.7,-.5h.1v.9c.7,-.5,1.3,-.9,1.9,-.9c.8,0,1.2,.5,1.3,1c.3,-.3,1,-1,2,-1c1.3,0,1.4,1.3,1.4,2.2v2.5c0,.2,0,.6,.5,.7h.4v.2h-2.7v-.2c.6,-.1,.8,-.1,.8,-.9v-2.5c0,-.7,0,-1.4,-.9,-1.4c-.7,0,-1.1,.3,-1.4,.8v3c0,1,.4,1,.9,1v.2h-2.7v-.2c.5,0,.8,-.1,.8,-.8v-2.7c0,-.8,-.2,-1.3,-.8,-1.3c-.9,0,-1.4,.7,-1.4,.7V106c0,.6,.4,.6,.8,.6v.2h-2.7v-.2c.5,0,.9,0,.9,-.8Z" class="g0_52"/>
<path d="M555.9,103c-.1,-.6,-.2,-1.4,-1.2,-1.4c-.6,0,-1.1,.3,-1.3,1.4Zm1.5,1.9c-.1,.4,-.8,2,-2.6,2c-1.3,0,-2.3,-1,-2.3,-2.7c0,-2.3,1.5,-3,2.5,-3c1.2,0,2,.6,2.2,2.2h-3.8c.1,2.2,1.1,2.7,1.9,2.7c1.1,0,1.6,-.9,1.9,-1.3Z" class="g0_52"/>
<path d="M560.8,101.7h-1.3v3.5c0,.4,0,1.1,.6,1.1c.4,0,.7,-.3,.8,-.4l.1,.1c-.2,.5,-.8,.9,-1.4,.9c-.6,0,-1.1,-.3,-1.1,-1.5v-3.7h-.6c-.1,0,-.1,-.1,-.1,-.1c0,-.1,.3,-.2,.5,-.5c.5,-.5,.7,-.7,1.1,-1.4c.1,0,.1,.1,.1,.2v1.4h1.3Z" class="g0_52"/>
<path d="M564.7,103c0,-.6,-.2,-1.4,-1.1,-1.4c-.7,0,-1.2,.3,-1.4,1.4Zm1.5,1.9c-.1,.4,-.8,2,-2.6,2c-1.3,0,-2.3,-1,-2.3,-2.7c0,-2.3,1.5,-3,2.5,-3c1.2,0,2,.6,2.2,2.2h-3.8c.1,2.2,1.1,2.7,1.9,2.7c1.1,0,1.6,-.9,1.9,-1.3Z" class="g0_52"/>
<path d="M567.4,102.7c0,-.7,-.2,-.7,-.4,-.7c-.2,0,-.3,0,-.5,0v-.2c.6,-.2,1.3,-.4,1.8,-.6h.1v1.1c.6,-.9,1,-1.1,1.5,-1.1c.4,0,.6,.2,.6,.6c0,.3,-.1,.6,-.4,.6c-.4,0,-.6,-.5,-.8,-.5c-.3,0,-.9,.7,-.9,1.1v2.7c0,.8,.4,.9,1,.9v.2h-2.9v-.2c.7,-.1,.9,-.1,.9,-.8Z" class="g0_52"/>
<path d="M574.2,103c-.3,-1.3,-.8,-1.5,-1.4,-1.5c-.6,0,-.9,.4,-.9,.8c0,.2,.1,.5,.5,.8l1.4,.8c.6,.4,1,.7,1,1.4c0,1.1,-1,1.6,-1.8,1.6c-.5,0,-1.1,-.2,-1.4,-.2c-.1,0,-.2,0,-.3,.2h-.1v-2h.2c.1,.7,.3,1.8,1.5,1.8c.5,0,1,-.2,1,-.9c0,-.4,-.2,-.7,-.6,-.9l-.7,-.4c-.8,-.5,-1.4,-.9,-1.4,-1.8c0,-.7,.5,-1.5,1.7,-1.5c.5,0,.9,.2,1.1,.2c.1,0,.2,-.1,.2,-.1h.1l.1,1.7Z" class="g0_52"/>
<path d="M575.6,108.8c1,-.8,2.1,-1.7,2.1,-4.8c0,-1.3,0,-3.9,-2.1,-5.3l.2,-.2c.7,.4,1.5,1.3,2,2c.6,.8,1,1.7,1,3.4c0,2.1,-1.2,3.9,-3,5.1Z" class="g0_52"/>
<path d="M727.5,230.6h-1l-1.2,4q0,.1,0,.1c0,.1,0,.2,.2,.2c.2,0,.7,-.6,1,-.9h.1c-.6,1,-1.1,1.5,-1.7,1.5c-.3,0,-.6,-.1,-.6,-.5c0,-.2,.2,-.9,.3,-1.1l1,-3.3h-.9q0,-.1,0,-.1q0,-.1,0,-.1c.1,-.1,.4,-.2,.7,-.3c.4,-.3,1,-.8,1.3,-1.2c.1,-.1,.1,-.2,.2,-.2h.1c0,0,0,.1,0,.1q0,.1,0,.1l-.4,1.3h1Z" class="g0_52"/>
<path d="M734.1,227.3c-.9,.8,-2.1,1.7,-2.1,4.8c0,1.3,0,3.9,2.1,5.3l-.1,.2c-.8,-.4,-1.6,-1.3,-2,-2c-.6,-.8,-1,-1.7,-1,-3.4c0,-2.1,1.1,-4,3,-5.1Z" class="g0_52"/>
<path d="M738.1,231.5c-.2,-1.2,-.8,-1.4,-1.3,-1.4c-.7,0,-1,.4,-1,.7c0,.3,.1,.6,.6,.9l1.3,.8c.6,.4,1,.7,1,1.4c0,1.1,-1,1.6,-1.8,1.6c-.5,0,-1,-.2,-1.4,-.2c-.1,0,-.2,0,-.3,.1h-.1v-1.9h.2c.1,.7,.4,1.7,1.6,1.7c.4,0,1,-.2,1,-.9c0,-.3,-.3,-.6,-.7,-.9l-.7,-.4c-.8,-.4,-1.4,-.8,-1.4,-1.7c0,-.7,.5,-1.5,1.7,-1.5c.5,0,.9,.2,1.1,.2c.1,0,.2,-.1,.2,-.1h.2v1.6Z" class="g0_52"/>
<path d="M742.9,231.6c-.1,-.6,-.2,-1.4,-1.2,-1.4c-.6,0,-1.1,.3,-1.3,1.4Zm1.5,1.9c-.1,.4,-.8,2,-2.6,2c-1.4,0,-2.3,-1,-2.3,-2.7c0,-2.3,1.5,-3,2.5,-3c1.2,0,2,.6,2.2,2.2h-3.8c.1,2.2,1.1,2.7,1.9,2.7c1.1,0,1.6,-.9,1.9,-1.3Z" class="g0_52"/>
<path d="M749.7,233.6c-.7,1.4,-1.5,1.9,-2.5,1.9c-1,0,-2.3,-.8,-2.3,-2.7c0,-2,1.5,-3,2.8,-3c.4,0,1,.2,1.3,.3c.3,.3,.5,.7,.5,.9c0,.3,-.2,.5,-.6,.5c-.3,.1,-.5,-.3,-.6,-.5v-.3c-.1,-.4,-.2,-.6,-.9,-.6c-.4,0,-1.5,.4,-1.5,2.2c0,1.4,.8,2.3,1.9,2.3c.8,0,1.3,-.5,1.7,-1.1Z" class="g0_52"/>
<path d="M754.7,233c0,-1.6,-.6,-2.9,-1.7,-2.9c-.8,0,-1.5,.7,-1.5,1.9c0,.9,.3,3.2,1.8,3.2c.6,0,1.4,-.5,1.4,-2.2m1.1,-.4c0,1.2,-.8,2.9,-2.7,2.9c-1.6,0,-2.7,-1.2,-2.7,-2.9c0,-1.5,1,-2.8,2.7,-2.8c1.6,0,2.7,1,2.7,2.8Z" class="g0_52"/>
<path d="M757.2,231.3c0,-.8,-.3,-.8,-.5,-.8c-.1,0,-.3,0,-.3,0v-.2c.5,-.1,1.1,-.3,1.7,-.5v1c.6,-.6,1.1,-1,1.8,-1c.6,0,1.5,.3,1.5,1.8v2.8c0,.6,.1,.8,.7,.8v.2h-2.5v-.2c.4,0,.7,-.1,.7,-1v-2.6c0,-.7,-.2,-1.2,-.9,-1.2c-.4,0,-.8,.3,-1.2,.7v3.5c0,.4,.1,.6,.8,.6v.2h-2.6v-.2c.6,0,.8,-.2,.8,-.9Z" class="g0_52"/>
<path d="M766.4,231.3c-.1,-.8,-.6,-1.2,-1.2,-1.2c-.7,0,-1.5,.6,-1.5,2.3c0,1.8,.8,2.5,1.7,2.5c.5,0,.9,-.3,1,-.8Zm1.9,3.6c-.6,.2,-1.2,.4,-1.8,.6h-.1v-.8c-.2,.4,-.7,.8,-1.6,.8c-.4,0,-2.2,-.2,-2.2,-2.7c0,-1.6,1.2,-3,2.5,-3c.6,0,.9,.1,1.3,.5v-1.9c0,-.4,0,-.6,-.5,-.6c-.1,0,-.2,0,-.3,0v-.2c.6,-.2,1.2,-.3,1.8,-.6l.1,.1V234c0,.5,0,.7,.8,.7Z" class="g0_52"/>
<path d="M772.1,231.5c-.3,-1.2,-.9,-1.4,-1.4,-1.4c-.7,0,-.9,.4,-.9,.7c0,.3,0,.6,.5,.9l1.3,.8c.6,.4,1,.7,1,1.4c0,1.1,-.9,1.6,-1.7,1.6c-.6,0,-1.1,-.2,-1.5,-.2q-.1,0,-.2,.1H769v-1.9h.2c.2,.7,.4,1.7,1.6,1.7c.4,0,1,-.2,1,-.9c0,-.3,-.3,-.6,-.6,-.9l-.8,-.4c-.7,-.4,-1.4,-.8,-1.4,-1.7c0,-.7,.5,-1.5,1.7,-1.5c.6,0,.9,.2,1.1,.2c.2,0,.2,-.1,.3,-.1h.1v1.6Z" class="g0_52"/>
<path d="M773.5,237.4c.9,-.8,2.1,-1.7,2.1,-4.8c0,-1.3,0,-3.9,-2.1,-5.3l.2,-.2c.7,.4,1.5,1.3,1.9,1.9c.6,.9,1,1.8,1,3.5c0,2.1,-1.1,3.9,-3,5.1Z" class="g0_52"/>
<text x="520" y="106" class="sm_52">y</text>
<text x="457" y="274" class="s5_52">15. </text>
<text x="482" y="274" dx="0,0,0,0,0,0,0,0,0,0,0,0,0,-.3,0,0,0,0,0,0,0,0,-.3,0,0,0,0,0,0,0,0,0,0,0,0,0,0,0,0,0,0,0,0,0,0,0,0,0,0,0,0,0,0,0,0,0,0,0" class="sd_52">The graph shows the power consumption for a day in Septem-</text>
<text x="482" y="290" class="sd_52">ber in San Francisco. (</text>
<text x="606" y="290" class="s7_52">P</text>
<text x="618" y="290" dx="0,0,0,0,0,0,0,0,0,0,0,0,0,0,0,0,0,-.2,-.1,-.2,-.1,0,0,0,0,0" class="sd_52">is measured in megawatts; </text>
<text x="766" y="290" class="s7_52">t</text>
<text x="773" y="290" class="sd_52">is mea-</text>
<text x="482" y="307" class="sd_52">sured in hours starting at midnight.)</text>
<text x="482" y="324" dx="0,0,0,0,4.2,0,0,0,0,0,-.1,0,0,0,0,0,0,0,0" class="sd_52">(a) What was the po</text>
<text x="596" y="324" dx="0,0,0,0,0,0,0,0,0,0,0,0,0,0,0,0,0,0,0,0,0,0,0,0,0,-.8,0,0,0,0,0,0,0" class="sn_52">wer consumption at 6 AM? ±t 6 PM?</text>
<text x="482" y="341" class="sn_52">(b) </text>
<text x="504" y="341" dx="0,0,0,0,0,0,-.1,0,0,0,0,0,0,0,0,-.3,0,0,0,0,0,0,0,0,0,0,0,0,0,0,0,0,0,0,0,0,0,-.3,0,0,0,0,0,-.4,0,0,0,0,0,-.1,0,0" class="sn_52">When was the power consumption the lowest? When was </text>
<text x="504" y="358" class="sn_52">it the highest? Do these times seem reasonable?</text>
<path d="M535.6,448.5c.5,.5,.6,1.1,1.6,1.1c.4,0,.6,-.2,1,-.3c.1,.4,.1,.7,0,1.1c.6,.2,1.1,.2,1.7,.1c0,1.6,1.8,2.2,3.1,3.6c.4,-.1,.7,-.2,1.2,-.3c.6,1.6,2,1,3.2,1.6c.3,.1,.4,.4,.8,.5c.6,.2,1.4,-.1,1.8,.3c.2,.2,-.2,.5,0,.7c.6,.7,2,.4,3,.9c.8,.2,1,.9,1.9,.9c1,0,1.6,.2,2.6,.3c2.5,.5,4.9,.4,7.2,1.3l5.1,-.3l.5,.3c.4,-.2,.7,-.4,1.1,-.6c.5,.2,.4,.8,1.1,.8c.4,0,1.2,.2,1.9,-.1c.6,-.2,1.1,-.8,1.4,-.8c.3,0,.1,.3,.3,.4c.4,-.5,.6,-1,1.4,-1c.3,0,.1,.4,.4,.4c1,0,1.6,-.2,2.2,-.6c.3,-.3,.7,-.6,1.1,-.8c1,-.4,1.7,0,3,0c0,-1.5,.4,-2.4,.6,-3.9c.4,.5,.6,.9,.8,1.5c.6,-.7,.3,-1.4,1.2,-1.9c.8,-.4,1.8,-.3,2.3,-.9c.7,-.7,-.2,-1.5,.8,-2.2c.3,-.2,.8,-.1,1.2,-.3c1.1,-.6,.3,-1.4,1.1,-2.2c1.2,-1.3,2.1,-1.1,3.5,-3.2c1.4,-2.2,1.1,-3.3,2,-5.5c0,-1.1,.6,-2.3,2.4,-2.3c0,-3.5,2,-5.4,2.4,-9c.2,.3,.4,.5,.5,.8c3,-1.2,1.3,-3.4,3.2,-5.2c.5,-.5,1.5,-.4,2.1,-.8c.7,-.4,.4,-1,.7,-1.6c.3,-.9,.5,-1.4,.9,-2.2h1.2c.5,-1.1,.6,-1.8,.6,-3c.3,0,.5,-.1,.8,-.1c.5,0,.6,-.4,1,-.3c.1,-.5,.3,-.2,.5,-.6c.3,-.7,.4,-1.2,.8,-1.9l.3,.7l.6,.1c.5,-1.2,.5,-2,.7,-3.3c1.7,0,2.3,-1.1,2.6,-2.1c.5,-1.3,.7,-2.1,1.6,-3.3c0,.3,.1,.5,.3,.8c.8,-.6,.7,-1.2,.7,-2c0,-.7,.5,-1.3,1.6,-1.7c.2,.3,.4,.4,.6,.7c.7,-.4,1.6,-.5,2.7,-.5c0,-1.7,1.2,-2.5,1.9,-4.2c0,.9,.5,1.3,.9,2.2c1.4,-.5,2.8,-.8,3.2,-1.8c.4,.1,.2,.6,.6,.8l1.8,-.9c.3,0,-.1,.4,0,.4c1,-.5,1.1,-1.2,2.2,-1.5c.9,-.3,1.8,-.2,2.4,-.6c1.5,-1,1.6,-2,2.6,-3.1c.1,.3,.7,.8,.8,1.1l.3,1.3c.4,-.7,.6,-3.2,.6,-3.2l.9,-.1c0,0,0,2.3,.8,1.9c.4,.3,.8,-.8,1.5,-.7c.5,0,.8,0,1.3,0c.8,0,1,-.5,1.3,-1c.5,-.8,1,-1.3,1.6,-2.1c.5,.6,.4,.8,.8,1.4c.5,.6,1,.8,1,1.5c.1,0,.2,.4,.4,.5c.3,-.4,.2,-.9,.9,-.9c.3,0,.6,0,.9,0c.1,-.4,.4,-.6,.6,-1.1c.5,.9,-.2,1.8,1.1,2.2c.5,-.5,.5,-1.2,1.5,-1.2c.5,0,.7,.4,1.3,.4c.8,0,1.5,-.4,1.5,-.9c.6,.4,.9,.7,1.1,1.2c.1,.3,.1,.8,.7,.8c.5,0,.7,-.2,1.2,-.3c.1,.3,.2,.4,.4,.7c1.5,-.5,1.3,-1.4,1.6,-2.4c.4,.8,.2,1.6,1.5,2l1.6,-.3l.5,.1c0,.3,.3,.7,.9,.7c1.5,0,1.8,-1,2.3,-1c.5,0,.9,.2,1.1,.4c.4,.5,0,.9,.6,1.3h.6c0,-.7,.7,-.9,1,-1.5c.4,0,.8,-.1,1.1,.1c.5,.3,-.2,.8,.3,1.1c.3,.2,.7,.3,.7,.6c.9,-.3,.8,-.8,1.5,-1.2c.5,.5,.5,.9,.6,1.4l.3,.1c.4,-.6,.3,-.9,1.2,-1.4c.4,-.2,.9,-.3,1.4,-.5c.5,-.2,.5,-.6,1.1,-.6c.3,0,.5,.8,.5,1.1c0,.2,-.1,.4,.1,.5c.4,.2,.8,.1,1.2,.1c.1,-.7,.4,-1.1,.7,-1.8l.5,2c.2,-.6,.4,-1.1,1.1,-1.5c.6,.6,.6,1.1,.6,1.8c.2,-.1,.3,-.2,.3,-.3l.3,.1c.6,-.3,.4,-.7,.6,-1.2c.1,-.3,.3,-.5,.4,-.9l1,2.5c.5,.1,.7,.1,1.2,0l.3,.4c.4,-.4,.3,-.7,.4,-1.2l.3,.3v2.1c.1,0,.2,.1,.3,.1c.1,0,.2,-.1,.4,-.1c.1,.2,.2,.3,.3,.4c1.7,-.3,1.8,-1.3,1.9,-2.3v-.2v2.1c.2,.5,.3,.8,.3,1.3c.1,0,.2,0,.4,0c.6,0,.5,-.5,.7,-.8c.6,.3,.5,.6,.6,1c.3,.6,.5,.9,.7,1.6c.1,0,.2,0,.3,0c.3,0,.3,-.3,.3,-.5c.2,-.5,.2,-.8,.7,-1.3c.7,.4,.2,.2,.6,.7v.9c.2,.2,.4,1.1,.5,1.4c.5,-.6,.4,-1.1,1.2,-1.5c0,.6,.3,.9,.3,1.5c0,.4,-.3,.6,-.3,1c0,.2,.2,.3,.3,.4c.4,-.2,.6,-.4,1,-.6c.2,.7,.5,1.1,.5,1.9c.3,-.4,.5,-.6,.7,-1c.4,.5,.4,.9,.4,1.5c0,.4,.7,.5,.9,.8c.3,.4,-.1,1.1,.7,1.1c.4,0,.5,-.2,.7,-.4c.3,.3,.6,.4,.6,.8c0,.2,-.1,.4,-.1,.7c0,.5,1.3,.5,1.3,1.1c0,.1,-.2,.2,-.2,.4c0,.2,.4,.2,.5,.4c.1,.2,-.1,.4,.1,.6c.1,.2,.5,.5,.8,.6c.3,.1,.2,.3,.2,.5c0,.2,.5,.2,.7,.3c.6,.3,.5,.4,.5,.9c.1,0,.2,0,.4,0c.9,0,1.5,-.3,2,-.7l.6,3.1c1,-.5,1.5,-.9,1.7,-1.7c.9,.2,.7,.8,.8,1.4c.3,.6,.9,.9,1,1.6c.3,-.2,.3,-.4,.7,-.4c.5,0,.8,.5,1.1,.7c.4,.2,.6,-.1,1.1,-.1c.2,-.5,.5,-1,1.3,-1c.6,0,1.4,.3,1.3,.4c0,-.5,.4,-.8,.8,-1.3c.3,-.3,.3,-.6,.8,-.8c.3,-.2,.7,-.1,1,-.3c.5,-.5,.4,-.9,.6,-1.4c.6,.4,.5,.7,.7,1.2c.3,-.3,.5,-.5,.8,-.8l.1,-.2c.4,1.4,1.3,2.1,2.1,3.4c.2,-.3,.4,-.6,.9,-.8c.2,.4,.1,.7,.4,1.1c.1,.4,.8,.4,1.4,.6c.7,.1,.6,.6,1.1,1c1.1,.7,1.5,1.7,3.1,1.7c.3,0,.4,-.3,.8,-.3c.8,0,1,.5,1.5,.9c1,.8,1.4,1.5,1.4,2.5l.1,.2c.5,-.3,.8,-.7,1.5,-.7c.1,0,.1,.1,.2,.1c.1,.3,0,.5,0,.7c0,.4,.3,.6,.4,1c.9,0,1.5,.1,2.1,.6v1h1.5v1.2c.5,.2,.7,.5,1.2,.8c.5,.3,1.3,.5,1.6,.9v.6c.6,.8,.8,1.4,1.9,2c.5,.3,.9,.4,1.3,.7c.1,.2,0,.3,.1,.4c.6,.5,1.3,.5,1.7,1c.8,.8,.9,1.4,1.8,2.3c.8,.7,1.5,1,2.2,1.8c1.4,.6,1.2,1.5,1.8,2.4c.4,.6,2.4,1.5,2.8,2.1c.9,1.6,3.2,1,3.2,2.7c0,.8,.1,.9,.1,1.7c0,.6,1.2,1.6,2.2,1.6" class="gf_52"/>
<path d="M535.3,504.1H770M535.3,489.5H770m-234.7,-88H770M535.3,474.8H770m-19.6,-88v132m9.8,-132v132m-39.1,-132v132m-176,-132v132m29.3,-132v132m29.4,-132v132m29.3,-132v132m29.3,-132v132m29.4,-132v132m39.1,-132v132m-176,-132v132m29.3,-132v132m29.3,-132v132m29.4,-132v132m29.3,-132v132m29.3,-132v132m39.2,-132v132m-205.4,-88H770M535.3,445.5H770M535.3,460.1H770M564.7,386.8v132M594,386.8v132m29.3,-132v132m29.4,-132v132M682,386.8v132m29.3,-132v132M535.3,416.1H770M535.3,386.8H770v132H535.3Z" class="gg_52"/>
<text x="521" y="389" class="s9_52">P</text>
<path d="M535.3,537.1V386.8m-30.5,132H770" class="g1_52"/>
<text x="527" y="531" class="sk_52">0</text>
<text x="706" y="532" dx="0,-.3" class="so_52">18</text>
<text x="677" y="532" dx="0,-.2" class="so_52">15</text>
<text x="648" y="532" class="so_52">12</text>
<text x="620" y="532" class="so_52">9</text>
<text x="591" y="532" class="so_52">6</text>
<text x="562" y="532" class="so_52">3</text>
<text x="769" y="531" class="so_52">t</text>
<text x="736" y="532" class="so_52">21</text>
<text x="511" y="463" class="so_52">400</text>
<text x="511" y="434" class="so_52">600</text>
<text x="511" y="404" dx="0,-.2,-.2" class="so_52">800</text>
<text x="511" y="492" class="so_52">200</text>
<text x="692" y="548" class="sp_52">Pacific Gas &amp; Electric</text>
<path fill-rule="evenodd" d="M535.4,386.8l-2.5,1.6l2.5,-6.5l2.4,6.5Z" class="g0_52"/>
<path fill-rule="evenodd" d="M770,518.8l-1.6,-2.4l6.5,2.4l-6.5,2.5Z" class="g0_52"/>
<text x="457" y="583" class="s5_52">16. </text>
<text x="482" y="583" dx="0,0,-.1,0,0,0,0,0,0,0,0,0,0,0,0,0,0,0,0,0,0,0,0,0,0,0,0,0,0,0,0,0,0,0,0,0,0,0,0,0,0,0,0,0,0,0,0,0,0,0,0,0,0,0,0,0,0,0,0,0,0" class="sn_52">Sketch a rough graph of the number of hours of daylight as a </text>
<text x="482" y="600" dx="0,0,0,0,0,0,0,0,0,0,0,0,0,0,0,0,0,0,0,0,0,0,0,0,0,0,0,0,-.8" class="sn_52">function of the time of year.</text>
<text x="457" y="625" class="sh_52">17. </text>
<text x="482" y="625" dx="0,0,-.1,0,0,0,0,0,0,0,0,0,0,0,0,0,0,0,0,0,0,0,0,0,0,0,0,0,0,0,0,0,0,0,0,0,0,0,0,0,0,0,0,0,0,0,0,0,0,0,0,0,0,0,0,0,0,0,0,0,0,0" class="sn_52">Sketch a rough graph of the outdoor temperature as a function </text>
<text x="482" y="642" dx="0,0,0,0,0,0,0,0,0,0,0,0,0,0,0,0,0,0,0,0,0,0,0,0,0,0,0,0,0,0,0,0,0,0,0,-.9" class="sn_52">of time during a typical spring day.</text>
<text x="457" y="667" class="s5_52">18. </text>
<text x="482" y="667" dx="0,0,-.1,0,0,0,0,0,0,0,0,0,0,0,0,0,0,0,0,0,0,0,0,0,0,0,0,0,0,0,0,0,-.1,0,0,0,-.3,0,0,0,0,0,0,0,0,0,0,0,-.3,0,0,0,0,0,0,0,0,0,0" class="sn_52">Sketch a rough graph of the market value of a new car as a </text>
<text x="482" y="684" dx="0,0,0,0,0,0,0,0,0,0,0,0,0,0,0,0,0,0,0,0,0,0,0,0,0,0,0,0,0,0,0,0,0,0,0,0,0,0,0,0,0,0,0,-.8,0,0,0,0,0,0,0,0,0,0,0,0,0,0,0,0,0" class="sn_52">function of time for a period of 20 years. ±ssume the car is </text>
<text x="482" y="701" class="sn_52">well maintained.</text>
<text x="457" y="726" class="s5_52">19. </text>
<text x="482" y="726" dx="0,0,-.1,0,0,0,0,0,0,0,0,0,0,0,0,0,0,0,0,0,0,0,0,0,0,0,0,0,0,0,0,0,0,0,0,0,0,0,0,0,0,0,0,0,0,0,0,0,0,0,0,0,0,0,0,0,0,0,0,-.3,0,0,0" class="sn_52">Sketch the graph of the amount of a particular brand of coffee </text>
<text x="482" y="743" dx="0,0,0,0,0,0,0,0,0,0,0,0,0,0,0,0,0,0,0,0,0,0,0,0,0,0,0,0,0,0,0,0,0,0,0,0,0,0,0,0,0,0,0,0,0,0,0,0,0,0,0,0,0,-.3,0,0,0" class="sn_52">sold by a store as a function of the price of the coffee.</text>
<text x="457" y="768" class="s5_52">20. </text>
<text x="482" y="768" dx="0,-1.5,0,0,0,0,0,0,0,0,0,0,0,0,0,0,0,0,0,0,0,0,0,0,0,0,0,0,0,0,-.2,-.2,0,0,0,0,0,0,0,0,0,-.1,0,0,0,0,0,0,0,0,0,0,0,0,0,0,0,-.8,0" class="sn_52">You place a frozen pie in an oven and bake it for an hour. </text>
<text x="482" y="785" dx="0,0,0,0,0,0,0,0,0,0,0,0,-.1,0,0,0,0,0,0,0,0,0,0,0,0,0,0,0,0,0,0,0,0,0,0,0,0,0,0,0,0,0,0,0,0,0,0,0,0,0,0,0,0,0,0,0,0,0,0,0,0,0,0,0" class="sn_52">Then you take it out and let it cool before eating it. Describe </text>
<text x="482" y="801" dx="0,0,-.3,0,0,0,0,0,0,0,0,0,0,0,0,0,0,0,0,0,0,0,0,0,0,0,0,0,0,0,0,0,0,0,0,0,0,0,0,0,0,0,0,0,0,0,0,0,0,0,0,0,0,0,0" class="sn_52">how the temperature of the pie changes as time passes. </text>
<text x="482" y="818" dx="0,0,0,0,0,0,0,-.1,0,0,0,0,0,0,0,0,0,0,0,0,0,0,0,0,0,0,0,0,0,0,0,0,0,0,0,0,0,0,0,0,0,0,0,0,0,0,0,0,0,0,0,0,0,0,0,0,0,0,0,0,0" class="sn_52">Then sketch a rough graph of the temperature of the pie as a </text>
<text x="482" y="835" class="sn_52">function of time.</text>
<text x="457" y="860" class="s5_52">21. </text>
<text x="482" y="860" dx="0,0,0,0,0,0,0,-.3,0,0,0,0,0,0,-.3,0,0,0,0,0,0,0,0,-.2,0,0,0,-.3,-.2,0,0,0,-.4,-1.1,0,0,0,0,0,0,0,0,0,0,0,0,0,0,0,0,0,0,0" class="sn_52">± homeowner mows the lawn every Wednesday afternoon. </text>
<text x="482" y="877" dx="0,0,-.1,0,0,0,0,0,0,0,0,0,0,0,0,0,0,0,0,0,0,0,0,0,0,0,0,0,0,0,0,0,0,0,0,0,0,0,0,0,0,0,0,0,0,0,0,0,0,0,0,0,0,0,0,0,0,0,0,0,0,0" class="sn_52">Sketch a rough graph of the height of the grass as a function </text>
<text x="482" y="894" dx="0,0,0,0,0,0,0,0,0,-.2,-.2,0,0,0,0,0,0,0,0,0,0,0,0,0,0,0,0,0,0,0,0,0,0,-.3,0,0,0,0,0,0,0,0,0,0,0,0" class="sn_52">of time over the course of a four-week period.</text>
<text x="457" y="918" dx="0,-.1,-.1,-.1" class="s5_52">22. </text>
<text x="482" y="918" dx="0,0,0,0,0,0,0,0,0,0,0,0,0,0,0,-.1,0,0,0,0,-.3,0,0,0,0,0,0,0,0,0,0,0,0,0,0,0,0,0,0,0,0,0,0,0,0,0,0,0,0,0,0,0,0,0,0,0,0,0,0,0,0,0" class="sn_52">±n airplane takes off from an airport and lands an hour later </text>
<text x="482" y="935" dx="0,0,0,0,0,0,0,0,0,0,0,0,0,0,0,0,0,0,0,0,0,0,0,0,0,0,0,0,0,0,0,-.2,-.1,0,-.9,0,0,0,0" class="sn_52">at another airport, 400 miles away. If </text>
<text x="688" y="935" class="s7_52">t</text>
<text x="695" y="935" class="sn_52">represents the time in </text>
<text x="482" y="952" dx="0,0,0,0,0,0,0,0,0,0,0,0,0,0,0,0,0,0,0,0,0,0,0,0,0,0,0,0,0,0,0,0,0,0,0,0,0,0,0,0,0,0,0,0,0,0,0,-.3,0,0,0,0,0,0,0,0,0,0,0,0" class="sn_52">minutes since the plane has left the terminal building, let </text>
<text x="797" y="952" class="s7_52">x</text>
<text x="804" y="952" class="sq_52">s</text>
<text x="808" y="952" class="s7_52">t</text>
<text x="812" y="952" class="sq_52">d</text>
<text x="482" y="969" dx="0,0,0,0,0,0,0,0,0,0,0,0,0,0,0,0,0,0,0,0,0,0,0,0,0,0,0,0,0,0,-.3,-.2,0,0,0,0,0,0,0,0" class="sn_52">be the horizontal distance traveled and </text>
<text x="697" y="969" class="s7_52">y</text>
<text x="704" y="969" class="sq_52">s</text>
<text x="708" y="969" class="s7_52">t</text>
<text x="712" y="969" class="sq_52">d</text>
<text x="720" y="969" class="sn_52">be the altitude of </text>
<text x="482" y="986" class="sn_52">the plane.</text>
<text x="482" y="1002" dx="0,0,0,0,4.2,0,-.1,0,0,0,0,0,0,0,0,0,0,0,0,0,0,0,0,0,0,0,0,0,0,0,0" class="sn_52">(a) Sketch a possible graph of </text>
<text x="653" y="1002" class="s7_52">x</text>
<text x="660" y="1002" class="sq_52">s</text>
<text x="665" y="1002" class="s7_52">t</text>
<text x="668" y="1002" class="sq_52">d</text>
<text x="673" y="1002" class="sn_52">.</text>
<text x="482" y="1019" dx="0,0,0,0,3.5,0,-.1,0,0,0,0,0,0,0,0,0,0,0,0,0,0,0,0,0,0,0,0,0,0,0,0" class="sn_52">(b) Sketch a possible graph of </text>
<text x="653" y="1019" class="s7_52">y</text>
<text x="660" y="1019" class="sq_52">s</text>
<text x="665" y="1019" class="s7_52">t</text>
<text x="668" y="1019" class="sq_52">d</text>
<text x="673" y="1019" class="sn_52">.</text>
<text x="121" y="1076" class="sr_52">Copyright 2016 Cengage Learning. All Rights Reserved. May not be copied, scanned, or duplicated, in whole or in part. Due to electronic rights, some third party content may be suppressed from the eBook and/or eChapter(s).</text>
<text x="106" y="1087" class="sr_52">Editorial review has deemed that any suppressed content does not materially affect the overall learning experience. Cengage Learning reserves the right to remove additional content at any time if subsequent rights restrictions require it.</text>

</g>

<!-- Any embedded fonts defined here -->
<style type="text/css" ><![CDATA[

@font-face {
	font-family: MathematicalPiLTStd-3_ry;
	src: url("fonts/MathematicalPiLTStd-3_ry.woff") format("woff");
}

@font-face {
	font-family: MyriadPro-BoldSemiCn_90;
	src: url("fonts/MyriadPro-BoldSemiCn_90.woff") format("woff");
}

@font-face {
	font-family: MyriadPro-Regular_4i;
	src: url("fonts/MyriadPro-Regular_4i.woff") format("woff");
}

@font-face {
	font-family: MyriadPro-Semibold_49;
	src: url("fonts/MyriadPro-Semibold_49.woff") format("woff");
}

@font-face {
	font-family: TECHMath-Mix_123;
	src: url("fonts/TECHMath-Mix_123.woff") format("woff");
}

@font-face {
	font-family: TECHMath-Mix_15k;
	src: url("fonts/TECHMath-Mix_15k.woff") format("woff");
}

@font-face {
	font-family: TECHMath-Mix_16a;
	src: url("fonts/TECHMath-Mix_16a.woff") format("woff");
}

@font-face {
	font-family: TECHMath-Mix_16e;
	src: url("fonts/TECHMath-Mix_16e.woff") format("woff");
}

@font-face {
	font-family: TECHMath-Mix_16i;
	src: url("fonts/TECHMath-Mix_16i.woff") format("woff");
}

@font-face {
	font-family: TECHMath-Mix_16r;
	src: url("fonts/TECHMath-Mix_16r.woff") format("woff");
}

@font-face {
	font-family: TECHMath-Mix__m;
	src: url("fonts/TECHMath-Mix__m.woff") format("woff");
}

@font-face {
	font-family: Times-Roman_4n;
	src: url("fonts/Times-Roman_4n.woff") format("woff");
}

@font-face {
	font-family: Times-Roman_n6;
	src: url("fonts/Times-Roman_n6.woff") format("woff");
}

@font-face {
	font-family: TimesLTStd-Italic_o3;
	src: url("fonts/TimesLTStd-Italic_o3.woff") format("woff");
}

@font-face {
	font-family: TimesLTStd-Roman_143;
	src: url("fonts/TimesLTStd-Roman_143.woff") format("woff");
}

@font-face {
	font-family: TimesLTStd-Roman_16m;
	src: url("fonts/TimesLTStd-Roman_16m.woff") format("woff");
}

@font-face {
	font-family: TimesLTStd-Roman_6c;
	src: url("fonts/TimesLTStd-Roman_6c.woff") format("woff");
}

@font-face {
	font-family: TimesNewRomanPS-ItalicMT_132;
	src: url("fonts/TimesNewRomanPS-ItalicMT_132.woff") format("woff");
}

]]></style>

</svg>
