<?xml version="1.0" encoding="UTF-8" standalone="no"?>
<!DOCTYPE svg PUBLIC "-//W3C//DTD SVG 1.1//EN"
"http://www.w3.org/Graphics/SVG/1.1/DTD/svg11.dtd">


<!-- Page 54 -->
<svg x="0" y="0" width="931" height="1096" viewBox="0 0 931 1096" version="1.1" xmlns="http://www.w3.org/2000/svg" xmlns:xlink="http://www.w3.org/1999/xlink"
style="display: block;margin-left: auto;margin-right: auto;">
<defs>
<clipPath id="c_54"><path d="M0,0H931V1096H0Z"/></clipPath>
<style type="text/css"><![CDATA[
text { white-space: pre; }
path, image { pointer-events: none; }

.s1_54{
font-size: 15.28px;
font-family: MyriadPro-Semibold_49;
fill: #231F20;
}
.s2_54{
font-size: 12.22px;
font-family: MyriadPro-Semibold_49;
fill: #231F20;
}
.s3_54{
font-size: 13.75px;
font-family: MyriadPro-Semibold_49;
fill: #231F20;
}
.s4_54{
font-size: 12.22px;
font-family: MyriadPro-Regular_4i;
fill: #231F20;
}
.s5_54{
font-size: 13.75px;
font-family: MyriadPro-BoldSemiCn_90;
fill: #231F20;
}
.s6_54{
font-size: 12.28px;
font-family: TimesNewRomanPS-ItalicMT_18e;
fill: #231F20;
}
.s7_54{
font-size: 12.28px;
font-family: TECHMath-Mix_187;
fill: #231F20;
}
.s8_54{
font-size: 12.23px;
font-family: TimesNewRomanPS-ItalicMT_18b;
fill: #231F20;
}
.s9_54{
font-size: 12.23px;
font-family: TECHMath-Mix_187;
fill: #231F20;
}
.sa_54{
font-size: 13.75px;
font-family: MyriadPro-BoldSemiCn_90;
fill: #00AEEF;
}
.sb_54{
font-size: 13.75px;
font-family: TimesLTStd-Roman_143;
fill: #231F20;
}
.sc_54{
font-size: 8.25px;
font-family: TimesLTStd-Roman_143;
fill: #231F20;
}
.sd_54{
font-size: 13.75px;
font-family: MyriadPro-BoldSemiCn_90;
fill: #EC008C;
}
.se_54{
font-size: 13.75px;
font-family: TimesLTStd-Italic_o3;
fill: #231F20;
}
.sf_54{
font-size: 12.22px;
font-family: TECHMath-Mix_16a;
fill: #231F20;
}
.sg_54{
font-size: 12.34px;
font-family: Times-Roman_n6;
fill: #231F20;
}
.sh_54{
font-size: 12.34px;
font-family: Times-Italic_n3;
fill: #231F20;
}
.si_54{
font-size: 13.75px;
font-family: MathematicalPiLTStd-1_rr;
fill: #231F20;
}
.sj_54{
font-size: 13.75px;
font-family: MathematicalPiLTStd-3_ry;
fill: #231F20;
}
.sk_54{
font-size: 13.75px;
font-family: BeaconDingbatsTypeOne_12w;
fill: #231F20;
}
.sl_54{
font-size: 12.42px;
font-family: TECHMath-Mix_160;
fill: #231F20;
}
.sm_54{
font-size: 12.42px;
font-family: TECHMath-Mix_187;
fill: #231F20;
}
.sn_54{
font-size: 12.42px;
font-family: TECHMath-Mix_16e;
fill: #231F20;
}
.so_54{
font-size: 7.64px;
font-family: Times-Roman_4n;
fill: #000000;
}

.g0_54{
fill: none;
stroke: #00AEEF;
stroke-width: 0.763;
stroke-linecap: butt;
stroke-linejoin: miter;
}
.g1_54{
fill: none;
stroke: #8A8C8E;
stroke-width: 0.537;
stroke-linecap: butt;
stroke-linejoin: miter;
stroke-miterlimit: 3;
}
.g2_54{
fill: none;
stroke: #231F20;
stroke-width: 0.614;
stroke-linecap: butt;
stroke-linejoin: miter;
stroke-miterlimit: 3;
}
.g3_54{
fill: #231F20;
}
.g4_54{
fill: #FFFFFF;
}
.g5_54{
fill: none;
stroke: #EC008C;
stroke-width: 0.921;
stroke-linecap: butt;
stroke-linejoin: round;
stroke-miterlimit: 3;
}
.g6_54{
fill: none;
stroke: #EC008C;
stroke-width: 0.916;
stroke-linecap: butt;
stroke-linejoin: round;
stroke-miterlimit: 3;
}
.g7_54{
fill: none;
stroke: #8A8C8E;
stroke-width: 0.534;
stroke-linecap: butt;
stroke-linejoin: miter;
stroke-miterlimit: 3;
}
.g8_54{
fill: none;
stroke: #231F20;
stroke-width: 0.611;
stroke-linecap: butt;
stroke-linejoin: miter;
stroke-miterlimit: 3;
}
.g9_54{
fill: #F3F5CC;
}
.ga_54{
fill: none;
stroke: #231F20;
stroke-width: 0.534;
stroke-linecap: round;
stroke-linejoin: round;
stroke-miterlimit: 3;
}
.gb_54{
fill: none;
stroke: #231F20;
stroke-width: 0.381;
stroke-linecap: round;
stroke-linejoin: round;
stroke-miterlimit: 3;
}
.gc_54{
fill: #CEE6C1;
}
.gd_54{
fill: none;
stroke: #66C18C;
stroke-width: 0.771;
stroke-linecap: butt;
stroke-linejoin: round;
stroke-miterlimit: 3;
}
.ge_54{
fill: none;
stroke: #66C18C;
stroke-width: 0.771;
stroke-linecap: butt;
stroke-linejoin: miter;
stroke-miterlimit: 3;
stroke-dasharray: 10,4;
}
.gf_54{
fill: none;
stroke: #66C18C;
stroke-width: 0.925;
stroke-linecap: butt;
stroke-linejoin: round;
stroke-miterlimit: 3;
}
.gg_54{
fill: none;
stroke: #231F20;
stroke-width: 0.54;
stroke-linecap: butt;
stroke-linejoin: miter;
stroke-miterlimit: 3;
}
.gh_54{
fill: none;
stroke: #231F20;
stroke-width: 0.386;
stroke-linecap: butt;
stroke-linejoin: miter;
stroke-miterlimit: 3;
}
.gi_54{
fill: #C4DF9B;
}
.gj_54{
fill: #D0E5AF;
}
.gk_54{
fill: none;
stroke: #66C18C;
stroke-width: 1.08;
stroke-linecap: butt;
stroke-linejoin: miter;
stroke-miterlimit: 3;
}
.gl_54{
fill: none;
stroke: #EC008C;
stroke-width: 0.931;
stroke-linecap: butt;
stroke-linejoin: round;
stroke-miterlimit: 3;
}
.gm_54{
fill: none;
stroke: #00AEEF;
stroke-width: 0.931;
stroke-linecap: butt;
stroke-linejoin: round;
stroke-miterlimit: 3;
}
.gn_54{
fill: none;
stroke: #231F20;
stroke-width: 0.62;
stroke-linecap: butt;
stroke-linejoin: miter;
stroke-miterlimit: 3;
}

]]></style>

</defs>
<g clip-path="url(#c_54)">
<path d="M0,0
L0,1096
L931,1096
L931,0 Z " 
fill="#FFFFFF" stroke="none"/>
<text x="53" y="64" class="s1_54">22</text>
<text x="126" y="64" dx="0,.2,.2,.2,.2,.2,.2,.1" class="s2_54">CHAPTER </text>
<text x="180" y="64" class="s3_54">1</text>
<text x="200" y="64" dx="0,-.3,.1,.1,.3,.1,.1,.1,.1,.1,.1,.1,.1,.1,.1,.2,.1,.1,.1,.1" class="s4_54">Functions and Models</text>
<path d="M53.5,227.8H429.3M53.5,510.5H429.3" class="g0_54"/>
<text x="53" y="109" class="s5_54">55. </text>
<path d="M85.1,119.7h129m-129,18.4h129m-129,18.5h129m-18.4,55.3V101.3M177.3,211.9V101.3M158.8,211.9V101.3M140.4,211.9V101.3M122,211.9V101.3M85.1,175h129M85.2,211.9V101.3m128.9,0V211.9" class="g1_54"/>
<path d="M103.5,211.8V106.2" class="g2_54"/>
<path fill-rule="evenodd" d="M103.5,106.2l-2.4,1.6l2.4,-6.5l2.5,6.5Z" class="g3_54"/>
<path d="M85.1,193.4H209.7" class="g2_54"/>
<path fill-rule="evenodd" d="M209.7,193.4l-1.6,-2.5l6.6,2.5l-6.6,2.4Z" class="g3_54"/>
<text x="94" y="108" class="s6_54">y</text>
<text x="95" y="205" class="s7_54">0</text>
<text x="207" y="205" class="s7_54">x</text>
<path d="M214.1,211.9H85.1m.2,-110.6H214.1m-129,0h.5" class="g1_54"/>
<path d="M93.7,181.5h6.9V169H93.7v12.5Z" class="g4_54"/>
<text x="95" y="179" class="s7_54">1</text>
<path d="M118,210.1h7.7V197H118v13.1Z" class="g4_54"/>
<text x="119" y="207" class="s7_54">1</text>
<path d="M103.5,138.1l55.3,55.3l36.9,-73.7" class="g5_54"/>
<text x="228" y="109" class="s5_54">56. </text>
<path d="M260.2,138.1L297,193.2c0,-20.3,16.4,-36.7,36.7,-36.7c20.2,0,36.6,16.4,36.6,36.7l36.8,-55.1" class="g6_54"/>
<path d="M407.1,211.6V101.4M260.2,119.8H407.1M260.2,138.1H407.1M260.2,156.5H407.1m-18.4,55.1V101.4M370.4,211.6V101.4M352,211.6V101.4M278.6,211.6V101.4m36.7,110.2V101.4m-55.1,73.4H407.1M297,211.6V101.4" class="g7_54"/>
<path d="M333.6,211.5V106.3" class="g8_54"/>
<path fill-rule="evenodd" d="M333.6,106.3l-2.4,1.6l2.4,-6.5l2.5,6.5Z" class="g3_54"/>
<path d="M260.2,193.2H402.7" class="g8_54"/>
<path fill-rule="evenodd" d="M402.7,193.2l-1.6,-2.5l6.5,2.5l-6.5,2.4Z" class="g3_54"/>
<text x="324" y="108" class="s8_54">y</text>
<text x="325" y="204" class="s9_54">0</text>
<text x="400" y="204" class="s9_54">x</text>
<path d="M407.1,211.6H260.2M278.8,101.4H407M260.2,211.6V101.4m0,0H279" class="g7_54"/>
<path d="M323.8,181.3h6.9V168.9h-6.9v12.4Z" class="g4_54"/>
<text x="325" y="179" class="s9_54">1</text>
<path d="M348.1,209.7h7.6V196.8h-7.6v12.9Z" class="g4_54"/>
<text x="349" y="207" class="s9_54">1</text>
<text x="53" y="252" class="sa_54">57–61 </text>
<text x="95" y="252" class="sb_54">Find a formula for the described function and state its </text>
<text x="53" y="269" class="sb_54">domain.</text>
<text x="54" y="293" class="s5_54">57. </text>
<text x="78" y="293" class="sb_54">A rectangle has perimeter 20 m. Express the area of the </text>
<text x="78" y="310" class="sb_54">rectangle as a function of the length of one of its sides.</text>
<text x="54" y="335" class="s5_54">58. </text>
<text x="78" y="335" class="sb_54">A rectangle has area 16 m</text>
<text x="221" y="329" class="sc_54">2</text>
<text x="225" y="335" class="sb_54">. Express the perimeter of the rect-</text>
<text x="78" y="351" class="sb_54">angle as a function of the length of one of its sides.</text>
<text x="54" y="376" class="s5_54">59. </text>
<text x="78" y="376" class="sb_54">Express the area of an equilateral triangle as a function of the </text>
<text x="78" y="393" class="sb_54">length of a side.</text>
<text x="54" y="417" class="s5_54">60. </text>
<text x="78" y="417" dx="0,0,0,0,0,0,0,0,0,0,0,0,0,0,0,0,0,0,0,0,0,0,0,0,0,0,0,0,0,0,0,-.3,0,0,0,0,0,0,0,0,0" class="sb_54">A closed rectangular box with volume 8 ft</text>
<text x="310" y="412" class="sc_54">3</text>
<text x="318" y="417" class="sb_54">has length twice the </text>
<text x="78" y="434" class="sb_54">width. Express the height of the box as a function of the width.</text>
<text x="54" y="458" class="sd_54">61. </text>
<text x="78" y="458" dx="0,0,0,0,0,0,0,0,0,0,0,0,0,0,0,0,0,0,0,0,0,0,0,0,0,0,0,0,0,0,-.3,0,0,0,0,0,0,0,0" class="sb_54">An open rectangular box with volume 2 m</text>
<text x="311" y="453" class="sc_54">3</text>
<text x="319" y="458" class="sb_54">has a square base. </text>
<text x="78" y="475" dx="0,0,0,0,0,0,0,0,0,0,0,0,0,0,0,0,-.1,0,0,0,0,0,0,0,0,0,0,0,0,0,0,0,0,0,0,0,0,0,0,0,0,0,0,0,0,0,0,0,0,0,0,0,0,0,0,0,0,0,0,0,0,0,0,0" class="sb_54">Express the surface area of the box as a function of the length </text>
<text x="78" y="492" class="sb_54">of a side of the base.</text>
<text x="54" y="535" class="s5_54">62. </text>
<text x="78" y="535" dx="0,0,0,0,0,0,0,0,0,0,0,0,0,0,-.3,0,0,0,0,0,0,0,0,0,0,0,0,0,0,0,0,0,0,0,0,0,0,0,0,0,0,0,0,0,0,0,0,0,0,0,0,0,0,0,0,0" class="sb_54">A Norman window has the shape of a rectangle surmounted </text>
<text x="78" y="552" dx="0,0,0,0,0,0,0,0,0,0,0,0,0,0,0,0,0,0,0,0,0,0,0,0,0,0,0,0,0,0,0,0,0,0,0,0,0,0,0,0,0,0,0,0,0,0,-.3,0,0,0,0,0,0,0,0,0,0,0" class="sb_54">by a semicircle. ±f the perimeter of the window is 30 ft, </text>
<text x="78" y="568" dx="0,-.2,0,0,0,0,0,0,0,0,0,0,0,0,0,0,0" class="sb_54">express the area </text>
<text x="170" y="568" class="se_54">A</text>
<text x="182" y="568" dx="0,0,0,0,0,0,0,0,0,0,0,0,-.3,0,0,0,0,0,0,0,0,0,0,0,0,0,0,0,0,0,0,0,0,0,0,0,0,0,0,0,0" class="sb_54">of the window as a function of the width </text>
<text x="79" y="585" class="se_54">x</text>
<text x="88" y="585" dx="0,0,0,0,0,0,0,0,0,0,0,0,-.3,-.9" class="sb_54">of the window.</text>
<image x="175" y="599" width="112" height="166" xlink:href="54/shade/1.png"/>
<image x="180" y="604" width="102" height="158" xlink:href="54/shade/2.png"/>
<image x="182" y="605" width="98" height="155" xlink:href="54/shade/3.png"/>
<path fill-rule="evenodd" d="M246.1,641.4v-.8l-12.4,12.2l1.7,-.8Z" class="g9_54"/>
<path d="M231.9,651.1l.9,-2.1V634.6l-.9,-.9Z" class="g9_54"/>
<path fill-rule="evenodd" d="M215.7,641.4v-.8l12.4,12.2l-1.7,-.8Z" class="g9_54"/>
<path d="M228.9,634.6V649l1,2.1V633.7Z" class="g9_54"/>
<image x="185" y="609" width="92" height="148" xlink:href="54/shade/4.png"/>
<image x="185" y="609" width="92" height="148" xlink:href="54/shade/5.png"/>
<path d="M276.7,763.1v15.2M185.1,763.1v15.2" class="ga_54"/>
<path d="M236.8,770.7h36.1" class="gb_54"/>
<text x="228" y="773" class="sf_54">x</text>
<path d="M188.9,770.7h36.5" class="gb_54"/>
<image x="187" y="611" width="88" height="145" xlink:href="54/shade/6.png"/>
<image x="187" y="705" width="88" height="8" xlink:href="54/shade/7.png"/>
<path d="M185.3,770.7l4.4,-1.7l-1.1,1.7l1.1,1.7Z" class="g3_54"/>
<path d="M276.3,770.8l-4.3,1.6l1,-1.6l-1,-1.7Z" class="g3_54"/>
<text x="54" y="807" class="s5_54">63. </text>
<text x="78" y="807" class="sb_54">A box with an open top is to be constructed from a rectan-</text>
<text x="78" y="823" class="sb_54">gular piece of cardboard with dimensions 12 in. by 20 in. </text>
<text x="78" y="840" class="sb_54">by cutting out equal squares of side </text>
<text x="277" y="840" class="se_54">x</text>
<text x="286" y="840" class="sb_54">at each corner and </text>
<text x="78" y="857" dx="0,0,0,0,0,0,0,0,0,0,0,0,0,0,0,0,0,0,0,0,0,0,0,0,0,0,0,0,0,0,0,0,0,0,0,0,0,0,0,0,0,0,0,0,0,0,0,0,0,0,0,0,0,0,0,0,-.3,0,0" class="sb_54">then folding up the sides as in the Igure. Express the vol-</text>
<text x="78" y="874" class="sb_54">ume </text>
<text x="105" y="874" class="se_54">V</text>
<text x="118" y="874" class="sb_54">of the box as a function of </text>
<text x="266" y="874" class="se_54">x</text>
<text x="272" y="874" class="sb_54">.</text>
<path d="M104,1011.8H258.3V919.3H104v92.5Z" class="gc_54"/>
<path d="M230.6,946.9h27.7V919.3H230.6v27.6Z" class="g4_54"/>
<path d="M230.6,942.2v4.7h4.7" class="gd_54"/>
<path d="M238.3,946.9h19.8m-27.5,-7.7V919.4" class="ge_54"/>
<path d="M104,946.9h27.6V919.3H104v27.6Z" class="g4_54"/>
<path d="M131.6,942.2v4.7h-4.7" class="gd_54"/>
<path d="M123.9,946.9H104.1m27.5,-7.7V919.4" class="ge_54"/>
<path d="M230.6,1011.8h27.7V984.2H230.6v27.6Z" class="g4_54"/>
<path d="M230.6,988.8v-4.6h4.7" class="gd_54"/>
<path d="M238.3,984.2h19.8m-27.5,7.7v19.8" class="ge_54"/>
<path d="M104,1011.8h27.6V984.2H104v27.6Z" class="g4_54"/>
<path d="M131.6,988.8v-4.6h-4.7" class="gd_54"/>
<path d="M123.9,984.2H104.1m27.5,7.7v19.8" class="ge_54"/>
<path d="M104,1011.8H258.3V919.3H104v92.5Z" class="gf_54"/>
<path d="M258.4,900.3v10.8" class="gg_54"/>
<path d="M170.3,905.5H108" class="gh_54"/>
<path d="M104.6,905.5l4.4,-1.7l-1,1.7l1,1.7Z" class="g3_54"/>
<text x="174" y="909" class="sg_54">20</text>
<path d="M192.1,905.5h61.5" class="gh_54"/>
<path d="M257,905.5l-4.4,1.7l1,-1.7l-1,-1.7Z" class="g3_54"/>
<path d="M81.3,919.2h9.2m-9.2,92.6h9.2M104.1,900.3v10.8" class="gg_54"/>
<path d="M85.9,956.3V923.1" class="gh_54"/>
<path d="M85.9,919.8l1.7,4.4l-1.7,-1.1l-1.7,1.1Z" class="g3_54"/>
<text x="79" y="969" class="sg_54">12</text>
<path d="M85.9,974.8v33.3" class="gh_54"/>
<path d="M85.9,1011.5l-1.7,-4.4l1.7,1l1.7,-1Z" class="g3_54"/>
<text x="117" y="956" class="sh_54">x</text>
<text x="117" y="981" class="sh_54">x</text>
<text x="239" y="956" class="sh_54">x</text>
<text x="239" y="981" class="sh_54">x</text>
<path d="M334,919.2v21.5l61.6,46V965.5Z" class="gi_54"/>
<path d="M334,919.2L296.8,947v21.2L334,940.7Z" class="gj_54"/>
<path d="M334,940.7l-37.2,27.5l61.8,46.1l37,-27.6Z" class="gc_54"/>
<path d="M358.6,992.9L296.8,947v21.2l61.8,46.1Z" class="gi_54"/>
<path d="M358.6,992.9v21.4l37,-27.6V965.5Z" class="gj_54"/>
<path d="M358.6,993.2v21.1" class="gk_54"/>
<path d="M334,919.2v21.5" class="gd_54"/>
<path d="M296.8,947l61.8,46.2l37,-27.7" class="gf_54"/>
<path d="M381.5,976.2L334,940.7l-22.8,17" class="gd_54"/>
<path d="M334,919.2L296.8,947v21.2l61.8,46.1l37,-27.6V965.5L334,919.2Z" class="gf_54"/>
<text x="136" y="1001" class="sh_54">x</text>
<text x="221" y="1001" class="sh_54">x</text>
<text x="136" y="939" class="sh_54">x</text>
<text x="220" y="939" class="sh_54">x</text>
<path d="M458.3,860.7H823.5" class="g0_54"/>
<text x="459" y="107" class="s5_54">64. </text>
<text x="483" y="107" dx="0,0,0,0,0,0,0,0,0,0,0,0,0,0,0,0,0,0,0,0,0,0,0,0,0,0,0,0,0,0,0,0,0,0,-.2,0,0,0,0,0,0,0,0,0,0,0,0,0,0,0,0,0,0,-.2,0,0,0" class="sb_54">A cell phone plan has a basic charge of $35 a month. The </text>
<text x="483" y="124" dx="0,0,0,0,0,0,0,0,0,0,0,0,0,0,0,0,0,0,0,0,0,0,0,0,0,0,0,0,0,0,0,0,0,0,0,0,0,0,0,-.2,0,0,0,0,0,0,0,0,0,0,0,0,0,0,0,0,0,0,0,0,0" class="sb_54">plan includes 400 free minutes and charges 10 cents for each </text>
<text x="483" y="141" dx="0,0,0,0,0,0,0,0,0,0,0,0,0,0,0,0,0,0,0,0,0,0,0,0,0,0,0,0,-.4,0,0,0,0,0,0,0,0,0,0,0,0,0,0,0,0,0,0,0,0,0,0" class="sb_54">additional minute of usage. Write the monthly cost </text>
<text x="766" y="141" class="se_54">C</text>
<text x="778" y="141" class="sb_54">as a </text>
<text x="483" y="158" class="sb_54">function of the number </text>
<text x="613" y="158" class="se_54">x</text>
<text x="623" y="158" class="sb_54">of minutes used and graph </text>
<text x="771" y="158" class="se_54">C</text>
<text x="784" y="158" class="sb_54">as a </text>
<text x="483" y="175" class="sb_54">function of </text>
<text x="548" y="175" class="se_54">x</text>
<text x="557" y="175" class="sb_54">for 0</text>
<text x="588" y="175" class="si_54">&lt;</text>
<text x="603" y="175" class="se_54">x</text>
<text x="613" y="175" class="si_54">&lt;</text>
<text x="629" y="175" class="sb_54">600.</text>
<text x="459" y="201" class="s5_54">65. </text>
<text x="483" y="201" dx="0,0,0,0,0,0,0,0,0,0,0,0,0,0,0,0,0,0,0,0,0,0,0,0,0,0,0,0,0,0,0,0,0,0,0,0,0,0,0,0,0,0,0,0,0,0,0,0,0,0,0,0,0,0,-.3,-.1,0,0,0" class="sb_54">±n a certain state the maximum speed permitted on freeways </text>
<text x="483" y="217" class="sb_54">is 65 mi</text>
<text x="527" y="217" class="sj_54">y</text>
<text x="534" y="217" class="sb_54">h and the minimum speed is 40 mi</text>
<text x="723" y="217" class="sj_54">y</text>
<text x="731" y="217" dx="0,0,0,-.2,0,0,0,0,0,0,0,0,0,0,0" class="sb_54">h. The Ine for </text>
<text x="483" y="234" dx="0,0,0,0,0,0,0,0,0,0,0,0,0,0,0,0,0,0,0,0,0,0,0,0,0,0,0,0,0,0,0,0,0,0,0,-.3,-.2,0,0,0,0,0,0,0,0,0,0,0,0,0,0,0,0,0,0,0,0,-.2,-.2,0,0,0,0,0" class="sb_54">violating these limits is $15 for every mile per hour above the </text>
<text x="483" y="251" dx="0,0,0,0,0,0,0,0,0,0,0,0,0,0,0,0,0,0,0,0,0,-.3,0,0,0,0,0,0,0,0,0,0,0,0,0,0,0,0,0,0,0,0,0,0,0,0,0,0,0,0,0,0,0,0" class="sb_54">maximum speed or below the minimum speed. Express the </text>
<text x="483" y="268" class="sb_54">amount of the Ine </text>
<text x="587" y="268" class="se_54">F</text>
<text x="599" y="268" dx="0,0,0,0,0,0,0,0,0,0,0,0,0,0,0,0,0,0,0,0,0,0,0,0,-.3,0,0,0,0,0,0,0,0,0,0" class="sb_54">as a function of the driving speed </text>
<text x="786" y="268" class="se_54">x</text>
<text x="795" y="268" class="sb_54">and </text>
<text x="483" y="285" class="sb_54">graph </text>
<text x="518" y="285" class="se_54">F</text>
<text x="527" y="285" class="sj_54">s</text>
<text x="532" y="285" class="se_54">x</text>
<text x="538" y="285" class="sj_54">d</text>
<text x="546" y="285" class="sb_54">for 0</text>
<text x="577" y="285" class="si_54">&lt;</text>
<text x="592" y="285" class="se_54">x</text>
<text x="603" y="285" class="si_54">&lt;</text>
<text x="618" y="285" class="sb_54">100.</text>
<text x="459" y="311" class="s5_54">66. </text>
<text x="483" y="311" dx="0,0,0,0,0,0,0,0,0,0,0,0,0,0,0,0,0,0,0,0,0,-.2,0,0,0,0,0,-.2,0,0,0,0,0,0,0,0,0,0,0,0,0,0,0,0,0,0,0,0,0,0,0,0,0,0,0,0,0" class="sb_54">An electricity company charges its customers a base rate </text>
<text x="483" y="327" dx="0,0,0,0,0,0,0,0,0,0,0,0,0,0,0,0,0,0,0,0,0,0,0,0,0,0,0,0,0,0,0,0,0,0,0,0,0,-.3,-.1,0,0,0,0,0,0,0,0,0,0,0,0,0,0,0,0,0,0" class="sb_54">of $10 a month, plus 6 cents per kilowatt-hour (kWh) for </text>
<text x="483" y="344" dx="0,0,0,0,0,0,0,0,0,0,0,0,0,0,0,0,0,0,0,0,0,0,0,0,0,0,0,0,0,0,0,0,0,0,0,0,0,0,0,0,0,0,0,0,0,0,0,0,0,0,0,0,0,-.2,-.2,0,0" class="sb_54">the Irst 1200 kWh and 7 cents per kWh for all usage over </text>
<text x="483" y="361" class="sb_54">1200 kWh. Express the monthly cost </text>
<text x="690" y="361" class="se_54">E</text>
<text x="702" y="361" class="sb_54">as a function of the </text>
<text x="483" y="378" class="sb_54">amount </text>
<text x="528" y="378" class="se_54">x</text>
<text x="538" y="378" dx="0,0,0,0,0,0,0,0,0,0,0,0,0,0,0,0,0,0,0,0,0,-.2,0,0,0,0,0,0,0,0,0,0,0,0,0,0,0,0,0,0,0,0,0,0,0" class="sb_54">of electricity used. Then graph the function </text>
<text x="779" y="378" class="se_54">E</text>
<text x="791" y="378" class="sb_54">for </text>
<text x="483" y="395" class="sb_54">0</text>
<text x="494" y="395" class="si_54">&lt;</text>
<text x="510" y="395" class="se_54">x</text>
<text x="520" y="395" class="si_54">&lt;</text>
<text x="535" y="395" dx="0,0,0,0,-.1" class="sb_54">2000.</text>
<text x="459" y="421" class="sd_54">67. </text>
<text x="483" y="421" dx="0,0,0,0,0,0,0,0,0,0,0,0,0,0,0,0,0,0,0,0,-.9,0,0,0,0,0,0,0,0,0,0,0,0,0,0,0,0,0,0,0,0,0,0,0,0,0,0,0,0,0,0,0,0,-.3,0,0,0,-.2,0,0,0,0,0" class="sb_54">±n a certain country, income tax is assessed as follows. There </text>
<text x="483" y="437" dx="0,0,0,0,0,0,0,0,0,0,0,0,0,0,0,0,0,0,0,0,0,0,0,0,0,0,0,0,0,0,0,0,0,0,0,-.8,0,-.2,0,0,0,0,0,0,0,0,0,-.2,-.2,0,0,0,0,0,0,0,0,0,0" class="sb_54">is no tax on income up to $10,000. Any income over $10,000 </text>
<text x="483" y="454" dx="0,0,0,0,0,0,-.2,0,0,0,0,0,0,0,0,0,0,0,0,0,0,0,0,0,0,0,0,0,0,0,0,0,0,0,0,0,0,0,0,0,0,0,0,0,0,0,0,0,0,0,0,0,0,0,0,-.8,0,-.2,0" class="sb_54">is taxed at a rate of 10%, up to an income of $20,000. Any </text>
<text x="483" y="471" dx="0,0,0,0,0,0,0,0,-.2,-.2,0,0,0,0,0,0,0,0,0,0,0,0,0,0,0,0,-.2,0,0,0,0,0,0,0,0,0" class="sb_54">income over $20,000 is taxed at 15%.</text>
<text x="483" y="488" class="sb_54">(a) </text>
<text x="506" y="488" dx="0,0,-.1,0,0,0,0,0,0,0,0,0,0,0,0,0,0,0,0,0,0,0,0,0,0,0,0,0,0,0,0,0,0" class="sb_54">Sketch the graph of the tax rate </text>
<text x="681" y="488" class="se_54">R</text>
<text x="693" y="488" class="sb_54">as a function of the </text>
<text x="506" y="505" class="sb_54">income </text>
<text x="550" y="505" class="se_54">I</text>
<text x="555" y="505" class="sb_54">.</text>
<text x="483" y="521" class="sb_54">(b) </text>
<text x="506" y="521" dx="0,0,-.3,0,0,0,0,0,0,0,0,0,0,0,0,0,0,0,0,0,0,0,0,0,0,0,0,0,0,0,0,0,0,0,0,0,0,0,0,0,0,0,0,0,0,0,0,0,0,0" class="sb_54">How much tax is assessed on an income of $14,000? </text>
<text x="506" y="538" class="sb_54">On $26,000?</text>
<text x="483" y="555" class="sb_54">(c) </text>
<text x="506" y="555" dx="0,0,-.1,0,0,0,0,0,0,0,0,0,0,0,0,0,0,0,0,0,0,0,0,0,0,0,0,0,0,0,0,0,0,0,0,0,0,0,0,0,0,0,0" class="sb_54">Sketch the graph of the total assessed tax </text>
<text x="735" y="555" class="se_54">T</text>
<text x="747" y="555" class="sb_54">as a function </text>
<text x="506" y="572" class="sb_54">of the income </text>
<text x="585" y="572" class="se_54">I</text>
<text x="590" y="572" class="sb_54">.</text>
<text x="459" y="598" class="s5_54">68. </text>
<text x="483" y="598" dx="0,0,0,0,0,0,0,0,0,0,0,0,0,0,0,0,0,0,0,0,0,0,0,0,0,0,0,0,0,0,0,0,0,0,-.2,0,0,0,0,0,0,0,0,0,0,0,0,0,0,0,0,0,0,0,0" class="sb_54">The functions in Example 10 and Exercise 67 are called </text>
<text x="794" y="598" class="se_54">step </text>
<text x="483" y="615" class="se_54">functions</text>
<text x="537" y="615" dx="0,0,0,0,0,0,0,0,0,0,0,0,0,0,0,0,0,0,0,0,0,0,0,0,0,0,0,0,0,-.1,0,0,0,0,0,0,0,0,0,0,0,-.3,-.2,0,0,0,-.1,0,0,0,0,0,0,0" class="sb_54">because their graphs look like stairs. Give two other </text>
<text x="483" y="631" dx="0,-.2,0,0,0,0,0,0,0,0,0,0,0,0,0,0,0,0,0,0,0,0,0,0,0,0,0,0,0,0,0,0,0,0,0,0,0,0,0,0,0,0,-.3,-.2,0,0,0,0,0,0,0,0,0,0,0" class="sb_54">examples of step functions that arise in everyday life.</text>
<text x="458" y="662" class="sa_54">69–70 </text>
<text x="500" y="662" class="sb_54">Graphs of </text>
<text x="560" y="662" class="se_54">f</text>
<text x="569" y="662" class="sb_54">and </text>
<text x="592" y="662" class="sk_54">t</text>
<text x="602" y="662" dx="0,0,0,0,0,0,0,-.3,0,0,0,0,0,0,0,0,0,0,0,0,0,0,0,0,0,0,0,0,0,0,0,0,0,0,0,0" class="sb_54">are shown. Decide whether each func-</text>
<text x="458" y="679" dx="0,0,0,0,0,0,0,0,0,-.3,-.2,0,0,0,0,0,0,0,0,0,0,0,0,0,0,0,0,0,0,-.8,0,0,0,0,0,0,0,0,0,0,0,0,0,0,0,0,0,0,0,0,0,0,0,0" class="sb_54">tion is even, odd, or neither. Explain your reasoning.</text>
<text x="459" y="709" class="s5_54">69. </text>
<path d="M521.5,709.1c4.6,21,8.2,32.5,13.7,32.5c9.3,0,15.6,-10.7,24.5,-10.7c8.8,0,15.1,10.7,24.5,10.7c5.4,0,9.1,-11.5,13.7,-32.5" class="gl_54"/>
<path d="M512.9,709.1c5.9,39.2,13.9,81.9,27.7,81.9c7.1,0,15,-11.2,19.1,-16.6c4,-5.4,11.9,-16.6,19,-16.6c13.9,0,21.8,42.7,27.8,81.9" class="gm_54"/>
<text x="549" y="710" class="sl_54">y</text>
<text x="623" y="786" class="sm_54">x</text>
<path d="M559.7,839.6V709.2" class="gn_54"/>
<path fill-rule="evenodd" d="M559.7,709.2l-2.5,1.7l2.5,-6.7l2.4,6.7Z" class="g3_54"/>
<path d="M494.5,774.4H624.9" class="gn_54"/>
<path fill-rule="evenodd" d="M624.9,774.4l-1.7,-2.5l6.6,2.5l-6.6,2.5Z" class="g3_54"/>
<text x="508" y="747" class="sl_54">f</text>
<text x="585" y="723" class="sn_54">g</text>
<text x="646" y="709" class="s5_54">70. </text>
<text x="739" y="710" class="sl_54">y</text>
<text x="812" y="786" class="sm_54">x</text>
<path d="M683.3,759.1c8.4,-17,19.1,-29.8,33.7,-29.8c11.8,0,25,8.4,31.7,12.4c6.8,4.1,19.9,12.5,31.8,12.5c14.6,0,25.4,-13,33.8,-29.9" class="gl_54"/>
<path d="M683.7,811.8c2.5,1.7,5.1,2.9,8.1,2.9c10.7,0,17.5,-16.2,27.9,-16.2c12.5,0,17.3,16.4,29,16.4c11.8,0,16.6,-16.4,29.1,-16.4c10.4,0,17.2,16.2,27.9,16.2c3.3,0,6.1,-1.4,8.8,-3.5" class="gm_54"/>
<path d="M748.7,839.5V709.1" class="gn_54"/>
<path fill-rule="evenodd" d="M748.7,709.1l-2.4,1.7l2.4,-6.6l2.5,6.6Z" class="g3_54"/>
<path d="M683.5,774.3H813.9" class="gn_54"/>
<path fill-rule="evenodd" d="M813.9,774.3l-1.6,-2.5l6.6,2.5l-6.6,2.5Z" class="g3_54"/>
<text x="760" y="740" class="sl_54">f</text>
<text x="758" y="800" class="sn_54">g</text>
<text x="459" y="885" class="s5_54">71. </text>
<text x="483" y="885" class="sb_54">(a) </text>
<text x="506" y="885" class="sb_54">±f the point </text>
<text x="571" y="885" class="sj_54">s</text>
<text x="575" y="885" dx="0,0,0,-.4" class="sb_54">5, 3</text>
<text x="595" y="885" class="sj_54">d</text>
<text x="603" y="885" dx="0,0,0,0,0,0,0,0,0,0,0,0,0,0,0,0,0,0,0,0,0,0,0,-.3,-.2,0,0,0,0,0,0,0,0,0,0,0,0" class="sb_54">is on the graph of an even function, </text>
<text x="506" y="902" class="sb_54">what other point must also be on the graph?</text>
<text x="483" y="919" class="sb_54">(b) </text>
<text x="506" y="919" class="sb_54">±f the point </text>
<text x="571" y="919" class="sj_54">s</text>
<text x="575" y="919" dx="0,0,0,-.4" class="sb_54">5, 3</text>
<text x="595" y="919" class="sj_54">d</text>
<text x="603" y="919" class="sb_54">is on the graph of an odd function, what </text>
<text x="506" y="935" class="sb_54">other point must also be on the graph?</text>
<text x="459" y="961" class="s5_54">72. </text>
<text x="483" y="961" class="sb_54">A function </text>
<text x="548" y="961" class="se_54">f</text>
<text x="557" y="961" class="sb_54">has domain </text>
<text x="623" y="961" class="sj_54">f</text>
<text x="628" y="961" class="si_54">2</text>
<text x="639" y="961" dx="0,0,0,-.4" class="sb_54">5, 5</text>
<text x="659" y="961" class="sj_54">g</text>
<text x="667" y="961" class="sb_54">and a portion of its graph </text>
<text x="483" y="978" dx="0,0,0,0,0,0,-.3,0,0" class="sb_54">is shown.</text>
<text x="483" y="995" dx="0,0,0,0,4.2,0,0,0,0,0,0,0,0,0,0,0,0,0,0,0,0,0,0,0,0,0" class="sb_54">(a) Complete the graph of </text>
<text x="635" y="995" class="se_54">f</text>
<text x="644" y="995" dx="0,0,0,0,0,0,0,0,0,0,0,0,-.3,0,0,0,0,0,0,0" class="sb_54">if it is known that </text>
<text x="746" y="995" class="se_54">f</text>
<text x="755" y="995" dx="0,0,0,0,-.3,-.2,0,0" class="sb_54">is even.</text>
<text x="483" y="1012" dx="0,0,0,0,3.5,0,0,0,0,0,0,0,0,0,0,0,0,0,0,0,0,0,0,0,0,0" class="sb_54">(b) Complete the graph of </text>
<text x="635" y="1012" class="se_54">f</text>
<text x="644" y="1012" dx="0,0,0,0,0,0,0,0,0,0,0,0,-.3,0,0,0,0,0,0,0" class="sb_54">if it is known that </text>
<text x="746" y="1012" class="se_54">f</text>
<text x="755" y="1012" class="sb_54">is odd.</text>
<text x="121" y="1076" class="so_54">Copyright 2016 Cengage Learning. All Rights Reserved. May not be copied, scanned, or duplicated, in whole or in part. Due to electronic rights, some third party content may be suppressed from the eBook and/or eChapter(s).</text>
<text x="106" y="1087" class="so_54">Editorial review has deemed that any suppressed content does not materially affect the overall learning experience. Cengage Learning reserves the right to remove additional content at any time if subsequent rights restrictions require it.</text>

</g>

<!-- Any embedded fonts defined here -->
<style type="text/css" ><![CDATA[

@font-face {
	font-family: BeaconDingbatsTypeOne_12w;
	src: url("fonts/BeaconDingbatsTypeOne_12w.woff") format("woff");
}

@font-face {
	font-family: MathematicalPiLTStd-1_rr;
	src: url("fonts/MathematicalPiLTStd-1_rr.woff") format("woff");
}

@font-face {
	font-family: MathematicalPiLTStd-3_ry;
	src: url("fonts/MathematicalPiLTStd-3_ry.woff") format("woff");
}

@font-face {
	font-family: MyriadPro-BoldSemiCn_90;
	src: url("fonts/MyriadPro-BoldSemiCn_90.woff") format("woff");
}

@font-face {
	font-family: MyriadPro-Regular_4i;
	src: url("fonts/MyriadPro-Regular_4i.woff") format("woff");
}

@font-face {
	font-family: MyriadPro-Semibold_49;
	src: url("fonts/MyriadPro-Semibold_49.woff") format("woff");
}

@font-face {
	font-family: TECHMath-Mix_160;
	src: url("fonts/TECHMath-Mix_160.woff") format("woff");
}

@font-face {
	font-family: TECHMath-Mix_16a;
	src: url("fonts/TECHMath-Mix_16a.woff") format("woff");
}

@font-face {
	font-family: TECHMath-Mix_16e;
	src: url("fonts/TECHMath-Mix_16e.woff") format("woff");
}

@font-face {
	font-family: TECHMath-Mix_187;
	src: url("fonts/TECHMath-Mix_187.woff") format("woff");
}

@font-face {
	font-family: Times-Italic_n3;
	src: url("fonts/Times-Italic_n3.woff") format("woff");
}

@font-face {
	font-family: Times-Roman_4n;
	src: url("fonts/Times-Roman_4n.woff") format("woff");
}

@font-face {
	font-family: Times-Roman_n6;
	src: url("fonts/Times-Roman_n6.woff") format("woff");
}

@font-face {
	font-family: TimesLTStd-Italic_o3;
	src: url("fonts/TimesLTStd-Italic_o3.woff") format("woff");
}

@font-face {
	font-family: TimesLTStd-Roman_143;
	src: url("fonts/TimesLTStd-Roman_143.woff") format("woff");
}

@font-face {
	font-family: TimesNewRomanPS-ItalicMT_18b;
	src: url("fonts/TimesNewRomanPS-ItalicMT_18b.woff") format("woff");
}

@font-face {
	font-family: TimesNewRomanPS-ItalicMT_18e;
	src: url("fonts/TimesNewRomanPS-ItalicMT_18e.woff") format("woff");
}

]]></style>

</svg>
