<?xml version="1.0" encoding="UTF-8" standalone="no"?>
<!DOCTYPE svg PUBLIC "-//W3C//DTD SVG 1.1//EN"
"http://www.w3.org/Graphics/SVG/1.1/DTD/svg11.dtd">


<!-- Page 58 -->
<svg x="0" y="0" width="931" height="1096" viewBox="0 0 931 1096" version="1.1" xmlns="http://www.w3.org/2000/svg" xmlns:xlink="http://www.w3.org/1999/xlink"
style="display: block;margin-left: auto;margin-right: auto;">
<defs>
<clipPath id="c_58"><path d="M0,0H931V1096H0Z"/></clipPath>
<style type="text/css"><![CDATA[
text { white-space: pre; }
path, image { pointer-events: none; }

.s1_58{
font-size: 15.28px;
font-family: MyriadPro-Semibold_49;
fill: #231F20;
}
.s2_58{
font-size: 12.22px;
font-family: MyriadPro-Semibold_49;
fill: #231F20;
}
.s3_58{
font-size: 13.75px;
font-family: MyriadPro-Semibold_49;
fill: #231F20;
}
.s4_58{
font-size: 12.22px;
font-family: MyriadPro-Regular_4i;
fill: #231F20;
}
.s5_58{
font-size: 15.28px;
font-family: TimesLTStd-Roman_143;
fill: #231F20;
}
.s6_58{
font-size: 12.10px;
font-family: TECHMath-Mix_195;
fill: #231F20;
}
.s7_58{
font-size: 12.10px;
font-family: TimesLTStd-Roman_143;
fill: #231F20;
}
.s8_58{
font-size: 9.17px;
font-family: TimesLTStd-Roman_143;
fill: #231F20;
}
.s9_58{
font-size: 15.28px;
font-family: TimesLTStd-Italic_o3;
fill: #231F20;
}
.sa_58{
font-size: 15.28px;
font-family: MathematicalPiLTStd-5_vb;
fill: #231F20;
}
.sb_58{
font-size: 15.28px;
font-family: MathematicalPiLTStd-1_rr;
fill: #231F20;
}
.sc_58{
font-size: 15.28px;
font-family: MyriadPro-Bold_74;
fill: #00AEEF;
}
.sd_58{
font-size: 12.22px;
font-family: TECHMath-Mix_195;
fill: #231F20;
}
.se_58{
font-size: 12.22px;
font-family: TimesLTStd-Roman_143;
fill: #231F20;
}
.sf_58{
font-size: 12.99px;
font-family: ZapfDingbatsITC_my;
fill: #EC008C;
}
.sg_58{
font-size: 14.51px;
font-family: MyriadPro-Bold_74;
fill: #231F20;
}
.sh_58{
font-size: 15.28px;
font-family: MyriadPro-Bold_74;
fill: #231F20;
}
.si_58{
font-size: 13.75px;
font-family: TimesLTStd-Roman_143;
fill: #231F20;
}
.sj_58{
font-size: 13.75px;
font-family: TimesLTStd-Bold_oh;
fill: #231F20;
}
.sk_58{
font-size: 7.64px;
font-family: Times-Roman_4n;
fill: #000000;
}

.g0_58{
fill: none;
stroke: #231F20;
stroke-width: 0.605;
stroke-linecap: butt;
stroke-linejoin: miter;
stroke-miterlimit: 3;
}
.g1_58{
fill: #231F20;
}
.g2_58{
fill: none;
stroke: #231F20;
stroke-width: 0.605;
stroke-linecap: butt;
stroke-linejoin: miter;
stroke-miterlimit: 4;
}
.g3_58{
fill: #00AEEF;
}
.g4_58{
fill: none;
stroke: #00AEEF;
stroke-width: 0.756;
stroke-linecap: butt;
stroke-linejoin: miter;
stroke-miterlimit: 3;
}
.g5_58{
fill: none;
stroke: #EC008C;
stroke-width: 0.907;
stroke-linecap: butt;
stroke-linejoin: miter;
stroke-miterlimit: 3;
}
.g6_58{
fill: none;
stroke: #00AEEF;
stroke-width: 0.763;
stroke-linecap: butt;
stroke-linejoin: miter;
stroke-miterlimit: 4;
}
.g7_58{
fill: none;
stroke: #231F20;
stroke-width: 0.611;
stroke-linecap: butt;
stroke-linejoin: miter;
stroke-miterlimit: 3;
}
.g8_58{
fill: none;
stroke: #231F20;
stroke-width: 0.611;
stroke-linecap: butt;
stroke-linejoin: miter;
stroke-miterlimit: 4;
}
.g9_58{
fill: none;
stroke: #00AEEF;
stroke-width: 0.763;
stroke-linecap: butt;
stroke-linejoin: miter;
stroke-miterlimit: 3;
}
.ga_58{
fill: none;
stroke: #EC008C;
stroke-width: 0.916;
stroke-linecap: butt;
stroke-linejoin: miter;
stroke-miterlimit: 3;
}

]]></style>

</defs>
<g clip-path="url(#c_58)">
<path d="M0,0
L0,1096
L931,1096
L931,0 Z " 
fill="#FFFFFF" stroke="none"/>
<text x="53" y="64" class="s1_58">26</text>
<text x="126" y="64" dx="0,.2,.2,.2,.2,.2,.2,.1" class="s2_58">CHAPTER </text>
<text x="180" y="64" class="s3_58">1</text>
<text x="200" y="64" dx="0,-.3,.1,.1,.3,.1,.1,.1,.1,.1,.1,.1,.1,.1,.1,.2,.1,.1,.1,.1" class="s4_58">Functions and Models</text>
<text x="305" y="107" dx="0,0,0,0,0,0,0,0,0,0,0,0,0,-.4,-.2,0,0,0,0,0,0,0,0,0,0,0,0,0,0,0,0,0,0,0,0,0,0,0,0,0,0,0,0,0,0,0,0,0,0,0,0,0,0,0,0,0,0,0,0,0,0,0,0,0,0,0,0,0,-.4,-.2,0,0,0,0,0,0,0,0,0,0,0,0,0,0,0,0,0" class="s5_58">Equation 1 gives one possible linear model for the carbon dioxide level; it is graphed </text>
<text x="287" y="126" class="s5_58">in Figure 5.</text>
<path d="M376.7,395.3V152.2" class="g0_58"/>
<path fill-rule="evenodd" d="M376.7,152.2l-2.4,1.6l2.4,-6.4l2.4,6.4Z" class="g1_58"/>
<path d="M373.7,385.1h6m-6,-36.3h6m-6,-36.3h6" class="g0_58"/>
<text x="364" y="154" class="s6_58">C</text>
<text x="382" y="154" class="s7_58">(ppm)</text>
<path d="M373.7,276.2h6m-6,-36.3h6m-3,157.8v10.1h10" class="g0_58"/>
<path d="M373.5,400.9l6.4,-6.4m-6.4,4l6.4,-6.5m10,12.6l-6.4,6.4m8.8,-6.4l-6.4,6.4" class="g2_58"/>
<text x="351" y="389" class="s6_58">340</text>
<text x="352" y="353" dx="0,-.6,-.6" class="s6_58">350</text>
<text x="352" y="316" dx="0,-.3,-.3" class="s6_58">360</text>
<text x="352" y="280" dx="0,-.6,-.6" class="s6_58">370</text>
<text x="352" y="244" dx="0,-.6,-.6" class="s6_58">380</text>
<path d="M373.7,203.6h6" class="g0_58"/>
<text x="352" y="207" dx="0,-.6,-.6" class="s6_58">390</text>
<path d="M373.7,167.3h6" class="g0_58"/>
<text x="353" y="171" dx="0,-.6,-.6" class="s6_58">400</text>
<path d="M401.9,389.9c0,.5,-.5,.9,-1,.9c-.5,0,-.9,-.4,-.9,-.9c0,-.6,.4,-1,.9,-1c.5,0,1,.4,1,1Z" class="g3_58"/>
<path d="M401.9,389.9c0,.5,-.5,.9,-1,.9c-.5,0,-.9,-.4,-.9,-.9c0,-.6,.4,-1,.9,-1c.5,0,1,.4,1,1Z" class="g4_58"/>
<path d="M423,380.8c0,.5,-.4,.9,-.9,.9c-.5,0,-1,-.4,-1,-.9c0,-.5,.5,-1,1,-1c.5,0,.9,.5,.9,1Z" class="g3_58"/>
<path d="M423,380.8c0,.5,-.4,.9,-.9,.9c-.5,0,-1,-.4,-1,-.9c0,-.5,.5,-1,1,-1c.5,0,.9,.5,.9,1Z" class="g4_58"/>
<path d="M444.2,369.2c0,.5,-.4,.9,-.9,.9c-.5,0,-1,-.4,-1,-.9c0,-.6,.5,-1,1,-1c.5,0,.9,.4,.9,1Z" class="g3_58"/>
<path d="M444.2,369.2c0,.5,-.4,.9,-.9,.9c-.5,0,-1,-.4,-1,-.9c0,-.6,.5,-1,1,-1c.5,0,.9,.4,.9,1Z" class="g4_58"/>
<path d="M465.4,359c0,.5,-.4,.9,-1,.9c-.5,0,-.9,-.4,-.9,-.9c0,-.5,.4,-1,.9,-1c.6,0,1,.5,1,1Z" class="g3_58"/>
<path d="M465.4,359c0,.5,-.4,.9,-1,.9c-.5,0,-.9,-.4,-.9,-.9c0,-.5,.4,-1,.9,-1c.6,0,1,.5,1,1Z" class="g4_58"/>
<path d="M486.6,343.4c0,.5,-.5,.9,-1,.9c-.5,0,-.9,-.4,-.9,-.9c0,-.5,.4,-.9,.9,-.9c.5,0,1,.4,1,.9Z" class="g3_58"/>
<path d="M486.6,343.4c0,.5,-.5,.9,-1,.9c-.5,0,-.9,-.4,-.9,-.9c0,-.5,.4,-.9,.9,-.9c.5,0,1,.4,1,.9Z" class="g4_58"/>
<path d="M507.7,333.6c0,.5,-.4,.9,-.9,.9c-.5,0,-.9,-.4,-.9,-.9c0,-.5,.4,-1,.9,-1c.5,0,.9,.5,.9,1Z" class="g3_58"/>
<path d="M507.7,333.6c0,.5,-.4,.9,-.9,.9c-.5,0,-.9,-.4,-.9,-.9c0,-.5,.4,-1,.9,-1c.5,0,.9,.5,.9,1Z" class="g4_58"/>
<path d="M528.9,326c0,.5,-.4,.9,-.9,.9c-.6,0,-1,-.4,-1,-.9c0,-.6,.4,-1,1,-1c.5,0,.9,.4,.9,1Z" class="g3_58"/>
<path d="M528.9,326c0,.5,-.4,.9,-.9,.9c-.6,0,-1,-.4,-1,-.9c0,-.6,.4,-1,1,-1c.5,0,.9,.4,.9,1Z" class="g4_58"/>
<path d="M550.1,317.6c0,.5,-.4,1,-1,1c-.5,0,-.9,-.5,-.9,-1c0,-.5,.4,-.9,.9,-.9c.6,0,1,.4,1,.9Z" class="g3_58"/>
<path d="M550.1,317.6c0,.5,-.4,1,-1,1c-.5,0,-.9,-.5,-.9,-1c0,-.5,.4,-.9,.9,-.9c.6,0,1,.4,1,.9Z" class="g4_58"/>
<path d="M571.3,303.8c0,.5,-.5,1,-1,1c-.5,0,-.9,-.5,-.9,-1c0,-.5,.4,-.9,.9,-.9c.5,0,1,.4,1,.9Z" class="g3_58"/>
<path d="M571.3,303.8c0,.5,-.5,1,-1,1c-.5,0,-.9,-.5,-.9,-1c0,-.5,.4,-.9,.9,-.9c.5,0,1,.4,1,.9Z" class="g4_58"/>
<path d="M592.4,288.9c0,.6,-.4,1,-.9,1c-.5,0,-1,-.4,-1,-1c0,-.5,.5,-.9,1,-.9c.5,0,.9,.4,.9,.9Z" class="g3_58"/>
<path d="M592.4,288.9c0,.6,-.4,1,-.9,1c-.5,0,-1,-.4,-1,-1c0,-.5,.5,-.9,1,-.9c.5,0,.9,.4,.9,.9Z" class="g4_58"/>
<path d="M613.6,278.4c0,.5,-.4,1,-.9,1c-.5,0,-1,-.5,-1,-1c0,-.5,.5,-.9,1,-.9c.5,0,.9,.4,.9,.9Z" class="g3_58"/>
<path d="M613.6,278.4c0,.5,-.4,1,-.9,1c-.5,0,-1,-.5,-1,-1c0,-.5,.5,-.9,1,-.9c.5,0,.9,.4,.9,.9Z" class="g4_58"/>
<path d="M634.8,264.6c0,.5,-.4,1,-1,1c-.5,0,-.9,-.5,-.9,-1c0,-.5,.4,-.9,.9,-.9c.6,0,1,.4,1,.9Z" class="g3_58"/>
<path d="M634.8,264.6c0,.5,-.4,1,-1,1c-.5,0,-.9,-.5,-.9,-1c0,-.5,.4,-.9,.9,-.9c.6,0,1,.4,1,.9Z" class="g4_58"/>
<path d="M656,249c0,.5,-.5,1,-1,1c-.5,0,-.9,-.5,-.9,-1c0,-.5,.4,-.9,.9,-.9c.5,0,1,.4,1,.9Z" class="g3_58"/>
<path d="M656,249c0,.5,-.5,1,-1,1c-.5,0,-.9,-.5,-.9,-1c0,-.5,.4,-.9,.9,-.9c.5,0,1,.4,1,.9Z" class="g4_58"/>
<path d="M677.1,233c0,.6,-.4,1,-.9,1c-.5,0,-.9,-.4,-.9,-1c0,-.5,.4,-.9,.9,-.9c.5,0,.9,.4,.9,.9Z" class="g3_58"/>
<path d="M677.1,233c0,.6,-.4,1,-.9,1c-.5,0,-.9,-.4,-.9,-1c0,-.5,.4,-.9,.9,-.9c.5,0,.9,.4,.9,.9Z" class="g4_58"/>
<path d="M698.3,219.6c0,.5,-.4,.9,-.9,.9c-.5,0,-1,-.4,-1,-.9c0,-.5,.5,-.9,1,-.9c.5,0,.9,.4,.9,.9Z" class="g3_58"/>
<path d="M698.3,219.6c0,.5,-.4,.9,-.9,.9c-.5,0,-1,-.4,-1,-.9c0,-.5,.5,-.9,1,-.9c.5,0,.9,.4,.9,.9Z" class="g4_58"/>
<path d="M719.5,204.4c0,.5,-.4,.9,-1,.9c-.5,0,-.9,-.4,-.9,-.9c0,-.6,.4,-1,.9,-1c.6,0,1,.4,1,1Z" class="g3_58"/>
<path d="M719.5,204.4c0,.5,-.4,.9,-1,.9c-.5,0,-.9,-.4,-.9,-.9c0,-.6,.4,-1,.9,-1c.6,0,1,.4,1,1Z" class="g4_58"/>
<path d="M740.7,189.8c0,.6,-.4,1,-.9,1c-.5,0,-1,-.4,-1,-1c0,-.5,.5,-.9,1,-.9c.5,0,.9,.4,.9,.9Z" class="g3_58"/>
<path d="M740.7,189.8c0,.6,-.4,1,-.9,1c-.5,0,-1,-.4,-1,-1c0,-.5,.5,-.9,1,-.9c.5,0,.9,.4,.9,.9Z" class="g4_58"/>
<path d="M389.1,407.8H751.8" class="g0_58"/>
<path fill-rule="evenodd" d="M750.3,407.8l-1.6,-2.4l6.5,2.4l-6.5,2.4Z" class="g1_58"/>
<path d="M400.9,404.8v6m53.1,-6v6" class="g0_58"/>
<text x="389" y="423" dx="0,-.3,-.3,-.3,0,18,-.3,-.3,-.3" class="s6_58">1980 1985</text>
<text x="750" y="419" class="s6_58">t</text>
<path d="M507,404.8v6" class="g0_58"/>
<text x="495" y="423" dx="0,-.3,-.3,-.3" class="s6_58">1990</text>
<path d="M559.7,404.8v6" class="g0_58"/>
<text x="547" y="423" class="s6_58">1995</text>
<path d="M612.7,404.8v6" class="g0_58"/>
<text x="600" y="423" class="s6_58">2000</text>
<path d="M665.6,404.8v6m52.9,-6v6" class="g0_58"/>
<text x="653" y="423" dx="0,0,0,0,0,16.6,0,0,0" class="s6_58">2005 2010</text>
<path d="M394.1,393.8l355,-209.3" class="g5_58"/>
<text x="305" y="463" dx="0,0,0,0,0,0,0,0,0,0,0,0,0,0,0,0,0,0,0,0,0,0,0,0,-.4,-.2,0,0,0,-.4,0,0,0,0,0,0,0,0,0,0,0,0,0,0,0,0,0,0,0,0,0,0,0,0,0,0,0,0,0,0,0,0,0,0,0,0,0,0" class="s5_58">Notice that our model gives values higher than most of the actual CO</text>
<text x="728" y="465" class="s8_58">2</text>
<text x="736" y="463" dx="0,0,-.4,-.2,0,0,0,0,-.8,0" class="s5_58">levels. A </text>
<text x="287" y="482" class="s5_58">better linear model is obtained by a procedure from statistics called </text>
<text x="701" y="482" dx="0,0,0,0,0,0,0,0,-.6,-.6,0,-.6,0,0,0,0,0" class="s9_58">linear regression</text>
<text x="804" y="482" class="s5_58">. </text>
<text x="287" y="500" dx="0,0,0,0,0,0,0,0,0,0,0,0,0,0,0,0,0,0,0,0,0,0,0,0,0,0,0,0,0,0,0,-.6,0,0,0,0,0,0,0,0,0,0,0,0,0,0,0,0,0,0,0,0,0,0,0,0,-.3,-1.2,0,0,0,0,0,0,0,0,0,0,0,0,0,0,0,0,0,0,0,0,0,0,0,0,0,0,0,0,0,0,0" class="s5_58">±f we use a graphing calculator, we enter the data from Table 1 into the data editor and </text>
<text x="287" y="518" dx="0,0,0,0,0,0,0,0,0,0,0,0,0,0,0,0,0,0,0,0,-.2,0,0,0,0,0,0,0,0,0,0,0,0,0,0,0,0,0,0,0,-.6,0,0,0,0,0,0,0,0,0,0,0,0,0,0,0,0,0,0,0,0,0,0,0,0,0,0,0,0,0,0,0,0,0,0,0,0,0,0,0,0" class="s5_58">choose the linear regression command. (With Maple we use the It[leastsquare] com-</text>
<text x="287" y="537" dx="0,0,0,0,0,0,0,0,0,0,0,0,0,0,0,0,0,0,0,0,0,0,0,0,0,0,0,0,0,0,0,0,0,0,0,0,0,0,0,0,0,0,0,0,0,0,0,0,0,0,0,0,0,0,0,0,0,0,0,0,0,0,0,0,0,0,0,0,0,-.3,0,0,0,0,0,0,0,0,0,0,0" class="s5_58">mand in the stats package; with Mathematica we use the Fit command.) The machine </text>
<text x="287" y="555" dx="0,0,-.4,-.2,0,0,0,0,0,0,0,0,0,0,0,0,0,0,0,0" class="s5_58">gives the slope and </text>
<text x="407" y="555" class="s9_58">y</text>
<text x="414" y="555" dx="0,0,0,0,0,0,0,0,0,0,0,0,0,0,0,0,0,0,0,0,-.2,0,0,0,0,0,0,0,0,0,0,0,0,0,0,0" class="s5_58">-intercept of the regression line as</text>
<text x="445" y="587" class="s9_58">m</text>
<text x="460" y="587" class="sa_58">-</text>
<text x="478" y="587" class="s5_58">1.71262 </text>
<text x="573" y="587" class="s9_58">b</text>
<text x="585" y="587" class="sa_58">-</text>
<text x="603" y="587" class="sb_58">2</text>
<text x="615" y="587" class="s5_58">3054.14</text>
<text x="305" y="622" class="s5_58">So our least squares model for the CO</text>
<text x="538" y="624" class="s8_58">2</text>
<text x="546" y="622" dx="0,0,-.4,-.2,0,0,0,0" class="s5_58">level is</text>
<text x="311" y="659" class="sc_58">2</text>
<path d="M309,645.8c0,0,-1.5,0,-1.5,1.5v14.1c0,0,0,1.6,1.5,1.6h14.1c0,0,1.6,0,1.6,-1.6V647.3c0,0,0,-1.5,-1.6,-1.5H309Z" class="g6_58"/>
<text x="475" y="659" class="s9_58">C</text>
<text x="490" y="659" class="sa_58">-</text>
<text x="508" y="659" class="s5_58">1.71262</text>
<text x="557" y="659" class="s9_58">t</text>
<text x="566" y="659" class="sb_58">2</text>
<text x="583" y="659" class="s5_58">3054.14</text>
<text x="305" y="697" dx="0,0,0,0,0,0,0,0,0,0,0,0,0,0,0,0,0,0,0,0,0,0,0,0,0,0,0,-.2,0,0,0,0,0,0,0,0,0,0,0,0,0,0,0,0,0,0,0,0,0,0,0,0,0,0,0,0,0,0,0,0,0,0,0,0,0,0,0,0,0,0,0,0,0,0,0,0,0,0,0,0,0,0,0,0" class="s5_58">±n Figure 6 we graph the regression line as well as the data points. Comparing with </text>
<text x="287" y="716" dx="0,0,0,0,0,0,0,0,0,0,0,0,0,0,0,0,0,0,0,0,0,0,0,0,0,0,0,-.4,-.2,0,0,0,0,0,0,0,0,0,0,0,0,0,0,0,0,0,0,0,0,0,0,0,0,0,0,-.4,0,0,0,0,0,0,0,0,0,0,0,0,0,0,0,0,0,0" class="s5_58">Figure 5, we see that it gives a better It than our previous linear model.</text>
<path d="M377.7,989.5V744" class="g7_58"/>
<path fill-rule="evenodd" d="M377.7,744l-2.4,1.7l2.4,-6.6l2.5,6.6Z" class="g1_58"/>
<path d="M374.7,979.3h6.1m-6.1,-36.7h6.1M374.7,906h6.1" class="g7_58"/>
<text x="364" y="746" class="sd_58">C</text>
<text x="383" y="746" class="se_58">(ppm)</text>
<path d="M374.7,869.3h6.1m-6.1,-36.7h6.1M377.7,992v10.2h10.1" class="g7_58"/>
<path d="M374.5,995.2l6.5,-6.5m-6.5,4.1l6.5,-6.5M391,999l-6.5,6.5m9,-6.5l-6.5,6.5" class="g8_58"/>
<text x="352" y="983" class="sd_58">340</text>
<text x="353" y="946" dx="0,-.6,-.6" class="sd_58">350</text>
<text x="352" y="910" dx="0,-.3,-.3" class="sd_58">360</text>
<text x="353" y="873" dx="0,-.6,-.6" class="sd_58">370</text>
<text x="353" y="836" dx="0,-.6,-.6" class="sd_58">380</text>
<path d="M374.7,796h6.1" class="g7_58"/>
<text x="353" y="800" dx="0,-.6,-.6" class="sd_58">390</text>
<path d="M374.7,759.3h6.1" class="g7_58"/>
<text x="353" y="763" dx="0,-.6,-.6" class="sd_58">400</text>
<path d="M403.1,984.1c0,.5,-.4,.9,-.9,.9c-.5,0,-1,-.4,-1,-.9c0,-.6,.5,-1,1,-1c.5,0,.9,.4,.9,1Z" class="g3_58"/>
<path d="M403.1,984.1c0,.5,-.4,.9,-.9,.9c-.5,0,-1,-.4,-1,-.9c0,-.6,.5,-1,1,-1c.5,0,.9,.4,.9,1Z" class="g9_58"/>
<path d="M424.5,974.9c0,.5,-.4,1,-.9,1c-.6,0,-1,-.5,-1,-1c0,-.5,.4,-.9,1,-.9c.5,0,.9,.4,.9,.9Z" class="g3_58"/>
<path d="M424.5,974.9c0,.5,-.4,1,-.9,1c-.6,0,-1,-.5,-1,-1c0,-.5,.4,-.9,1,-.9c.5,0,.9,.4,.9,.9Z" class="g9_58"/>
<path d="M445.9,963.2c0,.5,-.4,.9,-.9,.9c-.6,0,-1,-.4,-1,-.9c0,-.5,.4,-1,1,-1c.5,0,.9,.5,.9,1Z" class="g3_58"/>
<path d="M445.9,963.2c0,.5,-.4,.9,-.9,.9c-.6,0,-1,-.4,-1,-.9c0,-.5,.4,-1,1,-1c.5,0,.9,.5,.9,1Z" class="g9_58"/>
<path d="M467.3,952.9c0,.5,-.4,1,-.9,1c-.6,0,-1,-.5,-1,-1c0,-.5,.4,-.9,1,-.9c.5,0,.9,.4,.9,.9Z" class="g3_58"/>
<path d="M467.3,952.9c0,.5,-.4,1,-.9,1c-.6,0,-1,-.5,-1,-1c0,-.5,.4,-.9,1,-.9c.5,0,.9,.4,.9,.9Z" class="g9_58"/>
<path d="M488.7,937.1c0,.6,-.4,1,-1,1c-.5,0,-.9,-.4,-.9,-1c0,-.5,.4,-.9,.9,-.9c.6,0,1,.4,1,.9Z" class="g3_58"/>
<path d="M488.7,937.1c0,.6,-.4,1,-1,1c-.5,0,-.9,-.4,-.9,-1c0,-.5,.4,-.9,.9,-.9c.6,0,1,.4,1,.9Z" class="g9_58"/>
<path d="M510.1,927.2c0,.6,-.4,1,-1,1c-.5,0,-.9,-.4,-.9,-1c0,-.5,.4,-.9,.9,-.9c.6,0,1,.4,1,.9Z" class="g3_58"/>
<path d="M510.1,927.2c0,.6,-.4,1,-1,1c-.5,0,-.9,-.4,-.9,-1c0,-.5,.4,-.9,.9,-.9c.6,0,1,.4,1,.9Z" class="g9_58"/>
<path d="M531.5,919.5c0,.6,-.5,1,-1,1c-.5,0,-.9,-.4,-.9,-1c0,-.5,.4,-.9,.9,-.9c.5,0,1,.4,1,.9Z" class="g3_58"/>
<path d="M531.5,919.5c0,.6,-.5,1,-1,1c-.5,0,-.9,-.4,-.9,-1c0,-.5,.4,-.9,.9,-.9c.5,0,1,.4,1,.9Z" class="g9_58"/>
<path d="M552.9,911.1c0,.5,-.5,1,-1,1c-.5,0,-1,-.5,-1,-1c0,-.5,.5,-.9,1,-.9c.5,0,1,.4,1,.9Z" class="g3_58"/>
<path d="M552.9,911.1c0,.5,-.5,1,-1,1c-.5,0,-1,-.5,-1,-1c0,-.5,.5,-.9,1,-.9c.5,0,1,.4,1,.9Z" class="g9_58"/>
<path d="M574.3,897.2c0,.5,-.5,.9,-1,.9c-.5,0,-1,-.4,-1,-.9c0,-.5,.5,-1,1,-1c.5,0,1,.5,1,1Z" class="g3_58"/>
<path d="M574.3,897.2c0,.5,-.5,.9,-1,.9c-.5,0,-1,-.4,-1,-.9c0,-.5,.5,-1,1,-1c.5,0,1,.5,1,1Z" class="g9_58"/>
<path d="M595.7,882.1c0,.6,-.5,1,-1,1c-.5,0,-1,-.4,-1,-1c0,-.5,.5,-.9,1,-.9c.5,0,1,.4,1,.9Z" class="g3_58"/>
<path d="M595.7,882.1c0,.6,-.5,1,-1,1c-.5,0,-1,-.4,-1,-1c0,-.5,.5,-.9,1,-.9c.5,0,1,.4,1,.9Z" class="g9_58"/>
<path d="M617,871.5c0,.5,-.4,1,-.9,1c-.5,0,-1,-.5,-1,-1c0,-.5,.5,-.9,1,-.9c.5,0,.9,.4,.9,.9Z" class="g3_58"/>
<path d="M617,871.5c0,.5,-.4,1,-.9,1c-.5,0,-1,-.5,-1,-1c0,-.5,.5,-.9,1,-.9c.5,0,.9,.4,.9,.9Z" class="g9_58"/>
<path d="M638.4,857.6c0,.5,-.4,.9,-.9,.9c-.6,0,-1,-.4,-1,-.9c0,-.5,.4,-1,1,-1c.5,0,.9,.5,.9,1Z" class="g3_58"/>
<path d="M638.4,857.6c0,.5,-.4,.9,-.9,.9c-.6,0,-1,-.4,-1,-.9c0,-.5,.4,-1,1,-1c.5,0,.9,.5,.9,1Z" class="g9_58"/>
<path d="M659.8,841.8c0,.5,-.4,1,-.9,1c-.6,0,-1,-.5,-1,-1c0,-.5,.4,-.9,1,-.9c.5,0,.9,.4,.9,.9Z" class="g3_58"/>
<path d="M659.8,841.8c0,.5,-.4,1,-.9,1c-.6,0,-1,-.5,-1,-1c0,-.5,.4,-.9,1,-.9c.5,0,.9,.4,.9,.9Z" class="g9_58"/>
<path d="M681.2,825.7c0,.5,-.4,.9,-1,.9c-.5,0,-.9,-.4,-.9,-.9c0,-.5,.4,-1,.9,-1c.6,0,1,.5,1,1Z" class="g3_58"/>
<path d="M681.2,825.7c0,.5,-.4,.9,-1,.9c-.5,0,-.9,-.4,-.9,-.9c0,-.5,.4,-1,.9,-1c.6,0,1,.5,1,1Z" class="g9_58"/>
<path d="M702.6,812.1c0,.5,-.4,1,-1,1c-.5,0,-.9,-.5,-.9,-1c0,-.5,.4,-.9,.9,-.9c.6,0,1,.4,1,.9Z" class="g3_58"/>
<path d="M702.6,812.1c0,.5,-.4,1,-1,1c-.5,0,-.9,-.5,-.9,-1c0,-.5,.4,-.9,.9,-.9c.6,0,1,.4,1,.9Z" class="g9_58"/>
<path d="M724,796.7c0,.5,-.5,1,-1,1c-.5,0,-.9,-.5,-.9,-1c0,-.5,.4,-.9,.9,-.9c.5,0,1,.4,1,.9Z" class="g3_58"/>
<path d="M724,796.7c0,.5,-.5,1,-1,1c-.5,0,-.9,-.5,-.9,-1c0,-.5,.4,-.9,.9,-.9c.5,0,1,.4,1,.9Z" class="g9_58"/>
<path d="M745.4,782c0,.6,-.4,1,-.9,1c-.5,0,-1,-.4,-1,-1c0,-.5,.5,-.9,1,-.9c.5,0,.9,.4,.9,.9Z" class="g3_58"/>
<path d="M745.4,782c0,.6,-.4,1,-.9,1c-.5,0,-1,-.4,-1,-1c0,-.5,.5,-.9,1,-.9c.5,0,.9,.4,.9,.9Z" class="g9_58"/>
<path d="M390.2,1002.2H756.6" class="g7_58"/>
<path fill-rule="evenodd" d="M755.1,1002.2l-1.6,-2.4l6.5,2.4l-6.5,2.5Z" class="g1_58"/>
<path d="M402.2,999.2v6.1m53.6,-6.1v6.1" class="g7_58"/>
<text x="390" y="1017" dx="0,-.3,-.3,-.3,0,18.2,-.3,-.3,-.3" class="sd_58">1980 1985</text>
<text x="755" y="1014" class="sd_58">t</text>
<path d="M509.3,999.2v6.1" class="g7_58"/>
<text x="497" y="1017" dx="0,-.3,-.3,-.3" class="sd_58">1990</text>
<path d="M562.6,999.2v6.1" class="g7_58"/>
<text x="550" y="1017" class="sd_58">1995</text>
<path d="M616.1,999.2v6.1" class="g7_58"/>
<text x="603" y="1017" class="sd_58">2000</text>
<path d="M669.5,999.2v6.1M723,999.2v6.1" class="g7_58"/>
<text x="656" y="1017" dx="0,0,0,0,0,16.8,0,0,0" class="sd_58">2005 2010</text>
<path d="M402.2,990.9L757.8,782.1" class="ga_58"/>
<text x="813" y="1018" class="sf_58">■</text>
<text x="212" y="386" dx="0,.3,.3,.3,.3,.3,.1" class="sg_58">FIGURE </text>
<text x="265" y="386" class="sh_58">5</text>
<text x="128" y="403" class="si_58">Linear model through Irst </text>
<text x="167" y="420" class="si_58">and last data points</text>
<text x="53" y="463" dx="0,-.1,-.1,-.1,-.1,-.1,-.1,-.1,-.1,-.1,-.1,-.1,-.1,-.1,-.1,-.1,-.1,-.1,-.1,-.1,-.1,-.1,-.1,-.1,-.1,-.1,-.1,-.1,-.1,-.1,-.1,-.1,-.1,0" class="si_58">A computer or graphing calculator </text>
<text x="53" y="480" dx="0,-.1,-.1,-.1,-.1,-.1,-.1,-.1,-.1,-.1,-.1,-.3,-.1,-.1,-.1,-.1,-.1,-.1,-.1,-.1,-.1,-.1,-.1,-.1,-.1,-.1,-.1,-.1,-.1,-.1,-.1,-.1,-.1,-.1,-.1,-.1,-.1,-.1,0" class="si_58">Inds the regression line by the method </text>
<text x="53" y="497" dx="0,-.1,-.1" class="si_58">of </text>
<text x="68" y="497" dx="0,-.1,-.1,-.1,-.1,-.1,-.1,-.1,-.1,-.1,-.1,-.3,-.1" class="sj_58">least squares</text>
<text x="142" y="497" dx="0,-.1,-.1,-.1,-.1,-.1,-.1,-.1,-.1,-.1,-.1,-.1,-.1,-.1,-.1,-.1,-.1,-.1,-.1,-.1,-.1,-.1,0" class="si_58">, which is to minimize </text>
<text x="53" y="514" dx="0,-.1,-.1,-.1,-.1,-.1,-.1,-.1,-.1,-.1,-.1,-.1,-.1,-.1,-.1,-.1,-.1,-.1,-.1,-.1,-.1,-.1,-.1,-.1,-.1,-.1,-.1,-.1,-.1,-.1,-.1,-.3,-.1,-.1,-.1,-.1,-.1,-.1,0" class="si_58">the sum of the squares of the vertical </text>
<text x="53" y="531" dx="0,-.1,-.1,-.1,-.1,-.1,-.1,-.1,-.1,-.1,-.1,-.1,-.1,-.1,-.1,-.1,-.1,-.1,-.1,-.1,-.1,-.1,-.1,-.1,-.1,-.1,-.1,-.1,-.1,-.1,-.1,-.1,-.1,-.1,-.1,-.1,-.1,0" class="si_58">distances between the data points and </text>
<text x="53" y="547" dx="0,-.1,-.1,-.1,-.1,-.1,-.1,-.1,-.1,-.1,-.3,-.1,-.1,-.1,-.1,-.1,-.1,-.1,-.1,-.1,-.1,-.1,-.1,-.1,-.1,-.1,-.1,-.3,-.1,-.1,-.1,-.1,-.1,-.1,-.1,-.1,-.1,-.1,0" class="si_58">the line. The details are explained in </text>
<text x="53" y="564" dx="0,-.1,-.1,-.1,-.1,-.1,-.1,-.1,-.1,-.1,-.1,-.1,-.1" class="si_58">Section 14.7.</text>
<text x="212" y="1001" dx="0,.3,.3,.3,.3,.3,.1" class="sg_58">FIGURE </text>
<text x="265" y="1001" class="sh_58">6</text>
<text x="168" y="1018" dx="0,0,0,0,0,0,-.2,0,0,0,0,0,0,0,0,0,0,0,0" class="si_58">The regression line</text>
<text x="121" y="1076" class="sk_58">Copyright 2016 Cengage Learning. All Rights Reserved. May not be copied, scanned, or duplicated, in whole or in part. Due to electronic rights, some third party content may be suppressed from the eBook and/or eChapter(s).</text>
<text x="106" y="1087" class="sk_58">Editorial review has deemed that any suppressed content does not materially affect the overall learning experience. Cengage Learning reserves the right to remove additional content at any time if subsequent rights restrictions require it.</text>

</g>

<!-- Any embedded fonts defined here -->
<style type="text/css" ><![CDATA[

@font-face {
	font-family: MathematicalPiLTStd-1_rr;
	src: url("fonts/MathematicalPiLTStd-1_rr.woff") format("woff");
}

@font-face {
	font-family: MathematicalPiLTStd-5_vb;
	src: url("fonts/MathematicalPiLTStd-5_vb.woff") format("woff");
}

@font-face {
	font-family: MyriadPro-Bold_74;
	src: url("fonts/MyriadPro-Bold_74.woff") format("woff");
}

@font-face {
	font-family: MyriadPro-Regular_4i;
	src: url("fonts/MyriadPro-Regular_4i.woff") format("woff");
}

@font-face {
	font-family: MyriadPro-Semibold_49;
	src: url("fonts/MyriadPro-Semibold_49.woff") format("woff");
}

@font-face {
	font-family: TECHMath-Mix_195;
	src: url("fonts/TECHMath-Mix_195.woff") format("woff");
}

@font-face {
	font-family: Times-Roman_4n;
	src: url("fonts/Times-Roman_4n.woff") format("woff");
}

@font-face {
	font-family: TimesLTStd-Bold_oh;
	src: url("fonts/TimesLTStd-Bold_oh.woff") format("woff");
}

@font-face {
	font-family: TimesLTStd-Italic_o3;
	src: url("fonts/TimesLTStd-Italic_o3.woff") format("woff");
}

@font-face {
	font-family: TimesLTStd-Roman_143;
	src: url("fonts/TimesLTStd-Roman_143.woff") format("woff");
}

@font-face {
	font-family: ZapfDingbatsITC_my;
	src: url("fonts/ZapfDingbatsITC_my.woff") format("woff");
}

]]></style>

</svg>
