<?xml version="1.0" encoding="UTF-8" standalone="no"?>
<!DOCTYPE svg PUBLIC "-//W3C//DTD SVG 1.1//EN"
"http://www.w3.org/Graphics/SVG/1.1/DTD/svg11.dtd">


<!-- Page 59 -->
<svg x="0" y="0" width="931" height="1096" viewBox="0 0 931 1096" version="1.1" xmlns="http://www.w3.org/2000/svg" xmlns:xlink="http://www.w3.org/1999/xlink"
style="display: block;margin-left: auto;margin-right: auto;">
<defs>
<clipPath id="c_59"><path d="M0,0H931V1096H0Z"/></clipPath>
<clipPath id="c0_59"><path d="M514.9,848.3V830H705.8v18.3Z"/></clipPath>
<clipPath id="c1_59"><path d="M108.5,956.8V597.2H249.3V956.8Z"/></clipPath>

<style type="text/css"><![CDATA[
text { white-space: pre; }
path, image { pointer-events: none; }

.s1_59{
font-size: 12.22px;
font-family: MyriadPro-Semibold_49;
fill: #231F20;
}
.s2_59{
font-size: 13.75px;
font-family: MyriadPro-Semibold_49;
fill: #231F20;
}
.s3_59{
font-size: 12.22px;
font-family: MyriadPro-Regular_4i;
fill: #231F20;
}
.s4_59{
font-size: 15.28px;
font-family: MyriadPro-Semibold_49;
fill: #231F20;
}
.s5_59{
font-size: 16.81px;
font-family: MyriadPro-BoldSemiCn_90;
fill: #EC008C;
}
.s6_59{
font-size: 17.57px;
font-family: MyriadPro-BoldSemiCn_90;
fill: #EC008C;
}
.s7_59{
font-size: 15.28px;
font-family: TimesLTStd-Roman_143;
fill: #231F20;
}
.s8_59{
font-size: 9.17px;
font-family: TimesLTStd-Roman_143;
fill: #231F20;
}
.s9_59{
font-size: 13.75px;
font-family: MyriadPro-Semibold_49;
fill: #EC008C;
}
.sa_59{
font-size: 15.28px;
font-family: TimesLTStd-Italic_o3;
fill: #231F20;
}
.sb_59{
font-size: 15.28px;
font-family: MathematicalPiLTStd-5_vb;
fill: #231F20;
}
.sc_59{
font-size: 15.28px;
font-family: MathematicalPiLTStd-3_ry;
fill: #231F20;
}
.sd_59{
font-size: 15.28px;
font-family: MathematicalPiLTStd-1_rr;
fill: #231F20;
}
.se_59{
font-size: 12.99px;
font-family: ZapfDingbatsITC_my;
fill: #EC008C;
}
.sf_59{
font-size: 16.81px;
font-family: MyriadPro-Semibold_49;
fill: #231F20;
}
.sg_59{
font-size: 15.28px;
font-family: TimesLTStd-Bold_oh;
fill: #231F20;
}
.sh_59{
font-size: 9.17px;
font-family: TimesLTStd-Italic_o3;
fill: #231F20;
}
.si_59{
font-size: 9.17px;
font-family: MathematicalPiLTStd-1_rr;
fill: #231F20;
}
.sj_59{
font-size: 15.28px;
font-family: MathematicalPiLTStd-6_13j;
fill: #231F20;
}
.sk_59{
font-size: 10.69px;
font-family: TimesLTStd-Roman_143;
fill: #231F20;
}
.sl_59{
font-size: 15.28px;
font-family: BeaconDingbatsTypeOne_12w;
fill: #231F20;
}
.sm_59{
font-size: 14.51px;
font-family: MyriadPro-Bold_74;
fill: #231F20;
}
.sn_59{
font-size: 15.28px;
font-family: MyriadPro-Bold_74;
fill: #231F20;
}
.so_59{
font-size: 13.75px;
font-family: TimesLTStd-Roman_143;
fill: #231F20;
}
.sp_59{
font-size: 12.22px;
font-family: TECHMath-Mix_16e;
fill: #231F20;
}
.sq_59{
font-size: 12.22px;
font-family: TECHMath-Mix_160;
fill: #231F20;
}
.sr_59{
font-size: 12.22px;
font-family: TECHMath-Mix_-x;
fill: #231F20;
}
.ss_59{
font-size: 12.99px;
font-family: Times-Roman_n6;
fill: #231F20;
}
.st_59{
font-size: 12.99px;
font-family: TECHMath-Mix_19d;
fill: #231F20;
}
.su_59{
font-size: 12.22px;
font-family: TECHMath-Mix_19d;
fill: #231F20;
}
.sv_59{
font-size: 7.64px;
font-family: Times-Roman_4n;
fill: #000000;
}

.g0_59{
fill: none;
stroke: #231F20;
stroke-width: 0.763;
stroke-linecap: butt;
stroke-linejoin: miter;
}
.g1_59{
fill: #CC017A;
}
.g2_59{
fill: none;
stroke: #231F20;
stroke-width: 0.534;
stroke-linecap: butt;
stroke-linejoin: miter;
}
.g3_59{
fill: #231F20;
}
.g4_59{
fill: none;
stroke: #231F20;
stroke-width: 0.611;
stroke-linecap: butt;
stroke-linejoin: miter;
stroke-miterlimit: 3;
}
.g5_59{
fill: none;
stroke: #00AEEF;
stroke-width: 0.916;
stroke-linecap: butt;
stroke-linejoin: round;
stroke-miterlimit: 3;
}

]]></style>

</defs>
<g clip-path="url(#c_59)">
<path d="M0,0
L0,1096
L931,1096
L931,0 Z " 
fill="#FFFFFF" stroke="none"/>
<text x="440" y="64" dx="0,.2,.2,.5,.2,.2,.2" class="s1_59">SECTION</text>
<text x="492" y="64" class="s2_59">1.2</text>
<text x="522" y="64" dx="0,.2,.1,.1,.1,.1,.1,.1,.1,.1,.1,.1,.1,.1,.2,.1,.1,.1,.1,.1,.1,.1,.1,.1,0,.1,.1,.1,.1,.1,.1,.1,.1,.1,.1,.1,.1,.1,.1,.1,.1,.1,.1,.1,.1,-.3,.1,.1,.3,.1,.1,.1,.1,.1" class="s3_59">Mathematical Models: A Catalog of Essential Functions </text>
<text x="862" y="64" class="s4_59">27</text>
<text x="342" y="110" dx="0,.3,.3,.3,.3,.3,.3,.2" class="s5_59">EXAMPLE </text>
<text x="413" y="110" class="s6_59">3</text>
<text x="430" y="110" dx="0,0,0,0,0,0,0,0,0,0,0,0,0,0,0,0,0,0,0,0,0,0,0,-.4,-.2,0,0,0,0,0,0,0,0,0,0,0,0,0,0,0,0,0,0,0,0,0,0,0,0,0,0,0,0,0,0,0,0,0,-.3,-.2,0,0,0,0,0,0,0" class="s7_59">Use the linear model given by Equation 2 to estimate the average CO</text>
<text x="852" y="112" class="s8_59">2</text>
<text x="342" y="129" dx="0,0,-.4,-.2,0,0,0,0,0,0,0,0,0,0,0,0,0,0,0,0,0,0,0,0,0,0,0,0,0,0,0,0,0,0,0,0,-.4,-.2,0,0,0,0,0,0,0,0,0,0,0,0,0,0,0,0,0,0,0,0,0,-.8,0,0,0,0,0,0,0,0,0,0,0,0,0,0,0,0,0,0,0,0,0,0,0,0,0,0,0,0,0" class="s7_59">level for 1987 and to predict the level for the year 2020. According to this model, when </text>
<text x="342" y="147" class="s7_59">will the CO</text>
<text x="413" y="149" class="s8_59">2</text>
<text x="421" y="147" dx="0,0,-.4,-.2,0,0,0,-.2,0,0,0,0,0,0,0,0,0,0,0,0,0,0,0,0,0,0,0,0,0,0,0,0,0,0,0" class="s7_59">level exceed 420 parts per million?</text>
<text x="342" y="174" dx="0,.3,.3,.3,.3,.3,.3,.3,.1" class="s9_59">SOLUTION </text>
<text x="413" y="174" class="s7_59">Using Equation 2 with </text>
<text x="555" y="174" class="sa_59">t</text>
<text x="564" y="174" class="sb_59">-</text>
<text x="581" y="174" dx="0,0,0,0,0,0,0,0,0,0,0,0,0,0,0,0,0,0,0,0,0,0,0,0,0,0,0,0,-.3,-.2,0,0,0,0,0,0,0" class="s7_59">1987, we estimate that the average CO</text>
<text x="817" y="176" class="s8_59">2</text>
<text x="825" y="174" dx="0,0,-.4,-.2,0,0,0,0,0" class="s7_59">level in </text>
<text x="342" y="193" dx="0,0,0,0,0,0,-.2,0" class="s7_59">1987 was</text>
<text x="456" y="214" class="sa_59">C</text>
<text x="466" y="214" class="sc_59">s</text>
<text x="471" y="214" class="s7_59">1987</text>
<text x="501" y="214" class="sc_59">d</text>
<text x="511" y="214" class="sb_59">-</text>
<text x="528" y="214" class="sc_59">s</text>
<text x="533" y="214" class="s7_59">1.71262</text>
<text x="583" y="214" class="sc_59">ds</text>
<text x="593" y="214" class="s7_59">1987</text>
<text x="624" y="214" class="sc_59">d</text>
<text x="633" y="214" class="sd_59">2</text>
<text x="651" y="214" class="s7_59">3054.14</text>
<text x="705" y="214" class="sc_59">&lt;</text>
<text x="722" y="214" class="s7_59">348.84</text>
<text x="342" y="249" dx="0,0,0,0,0,0,0,0,0,0,0,0,-.2,0,0,0,0,0,0,0,0,0" class="s7_59">This is an example of </text>
<text x="477" y="249" class="sa_59">interpolation</text>
<text x="560" y="249" dx="0,0,0,0,0,0,0,0,0,0,0,0,0,-.3,-.2,0,0,0,0,0,0,0,0,0,0,0,0,0,0,-.4,0,0,0,0" class="s7_59">because we have estimated a value </text>
<text x="776" y="249" class="sa_59">between</text>
<text x="342" y="268" dx="0,0,0,0,0,0,-.2,0,0,0,-.4,0,0,0,0,0,0,0,0,0,0,0,-.2,0,0,0,0,0,0,0,0,0,0,0,0,0,0,0,0,0,0,0,0,0,0,0,0,-.4,0,0,0,0,0,0,0,0,0,0,0,0,0,0,0,0,0,0,0,0,0,0,0,0,-.3,-.2,0,0,0,0,0,0,0" class="s7_59">observed values. (±n fact, the Mauna Loa Observatory reported that the average CO</text>
<text x="850" y="269" class="s8_59">2</text>
<text x="342" y="286" dx="0,0,-.4,-.2,0,0,0,0,0,0,0,0,0,0,0,-.2,0,0,0,0,0,0,0,0,0,0,0,0,0,0,0,0,0,0,0,0,0,0,0,0,0,0,0,0,0,0,0,0,0,0,0,0,0,0,0,0,0,0,0,0,0,0,0,0,0" class="s7_59">level in 1987 was 348.93 ppm, so our estimate is quite accurate.)</text>
<text x="360" y="304" dx="0,-.6,0,0,0" class="s7_59">With </text>
<text x="394" y="304" class="sa_59">t</text>
<text x="403" y="304" class="sb_59">-</text>
<text x="420" y="304" class="s7_59">2020, we get</text>
<text x="456" y="339" class="sa_59">C</text>
<text x="466" y="339" class="sc_59">s</text>
<text x="471" y="339" class="s7_59">2020</text>
<text x="501" y="339" class="sc_59">d</text>
<text x="511" y="339" class="sb_59">-</text>
<text x="528" y="339" class="sc_59">s</text>
<text x="533" y="339" class="s7_59">1.71262</text>
<text x="583" y="339" class="sc_59">ds</text>
<text x="593" y="339" class="s7_59">2020</text>
<text x="624" y="339" class="sc_59">d</text>
<text x="633" y="339" class="sd_59">2</text>
<text x="651" y="339" class="s7_59">3054.14</text>
<text x="705" y="339" class="sc_59">&lt;</text>
<text x="722" y="339" class="s7_59">405.35</text>
<text x="342" y="375" dx="0,-.2,-.2,-.2,-.2,-.2,-.2,-.2,-.2,-.2,-.2,-.2,-.2,-.2,-.2,-.2,-.2,-.2,-.2,-.2,-.2,-.2,-.2,-.2,-.5,-.4,-.2,-.2,-.2,-.2,-.2,-.2,0" class="s7_59">So we predict that the average CO</text>
<text x="546" y="376" class="s8_59">2</text>
<text x="554" y="375" dx="0,-.2,-.5,-.4,-.2,-.2,-.2,-.2,-.2,-.2,-.2,-.2,-.2,-.2,-.2,-.2,-.2,-.2,-.2,-.2,-.2,-.2,-.2,-.2,-.2,-.2,-.2,-.2,-.2,-.2,-.2,-.2,-.2,-.2,-.2,-.2,-.2,-.2,-.2,-.2,-.2,-.2,-.4,-.2,-.2,-.2,-.2,-.2,-.2,-.2,-.2,-.2,0" class="s7_59">level in the year 2020 will be 405.4 ppm. This is an </text>
<text x="342" y="393" dx="0,-.4,-.2,-.2,-.2,-.2,-.2,-.2,-.2,-.2,-.2" class="s7_59">example of </text>
<text x="412" y="393" dx="0,-.5,-.2,-.2,-.4,-.2,-.2,-.2,-.2,-.2,-.2,-.2,-.2" class="sa_59">extrapolation</text>
<text x="495" y="393" dx="0,-.2,-.2,-.2,-.2,-.2,-.2,-.2,-.2,-.2,-.2,-.2,-.2,-.5,-.4,-.2,-.2,-.2,-.2,-.2,-.2,-.2,-.2,-.2,-.2,-.2,-.2,-.2,-.2,-.5,-.2,-.2,-.2,-.2" class="s7_59">because we have predicted a value </text>
<text x="704" y="393" class="sa_59">outside</text>
<text x="752" y="393" class="s7_59">the time frame of </text>
<text x="342" y="411" dx="0,0,0,0,0,0,-.4,0,0,0,0,0,0,0,0,0,0,0,0,0,0,0,0,0,0,0,-1,0,0,0,0,0,0,0,0,0,-.2,0,0,0,0,0,0,0,0,0,0,0,0,0,0,0,0,0,0,0,0,0,0,0,0,0,0,0,0,0,0,0,0,-.2,0,0,0,0,0,0,0,0,0,0,0,0,0,0,0,0,0,0,0" class="s7_59">observations. Consequently, we are far less certain about the accuracy of our prediction.</text>
<text x="360" y="430" class="s7_59">Using Equation 2, we see that the CO</text>
<text x="590" y="431" class="s8_59">2</text>
<text x="598" y="430" dx="0,0,-.4,-.2,0,0,0,-.2,0,0,0,0,0,0,0,0,0,0,0,0,0,0,0,0,0,0" class="s7_59">level exceeds 420 ppm when</text>
<text x="524" y="466" class="s7_59">1.71262</text>
<text x="575" y="466" class="sa_59">t</text>
<text x="584" y="466" class="sd_59">2</text>
<text x="601" y="466" class="s7_59">3054.14</text>
<text x="655" y="466" class="sd_59">.</text>
<text x="672" y="466" class="s7_59">420</text>
<text x="342" y="500" dx="0,0,0,0,0,0,0,0,0,0,0,0,0,0,0,0,0,0,0,0,0,0,0,-1,0,0,0,0,0,0,0" class="s7_59">Solving this inequality, we get</text>
<text x="534" y="538" class="sa_59">t</text>
<text x="543" y="538" class="sd_59">.</text>
<text x="562" y="527" class="s7_59">3474.14</text>
<path d="M561,533.6h54.1" class="g0_59"/>
<text x="562" y="549" class="s7_59">1.71262</text>
<text x="619" y="538" class="sc_59">&lt;</text>
<text x="636" y="538" class="s7_59">2028.55</text>
<text x="342" y="581" dx="0,-1.2,0,0,0,0,0,0,0,0,0,0,0,0,0,0,0,0,0,0,0,0,0,0,0,0,0,0,0,0,0,0" class="s7_59">We therefore predict that the CO</text>
<text x="541" y="582" class="s8_59">2</text>
<text x="550" y="581" dx="0,0,-.4,-.2,0,0,0,0,0,0,0,0,-.2,0,0,0,0,0,0,0,0,0,0,0,0,0,0,0,0,0,0,0,0,0,0,0,0,0,0,0,0,0,0,0,-.3,0,0,0,0" class="s7_59">level will exceed 420 ppm by the year 2029. This </text>
<text x="342" y="599" dx="0,0,0,0,0,0,0,0,0,0,0,0,0,0,0,0,0,0,-.2,0,0,0,0,0,0,0,0,0,0,0,0,0,0,-.6,-.3,0,0,-.2,0,0,0,0,0,0,0,0,0,0,0,0,0,0,0,0,0,0,0,0,0,0,0,0,0,0,0,0,0,0,0,0,0,0,0,0,0,-.4,0,0,0,0,0,0,0,0,0,0" class="s7_59">prediction is risky because it involves a time quite remote from our observations. ±n </text>
<text x="342" y="617" dx="0,-.2,0,0,0,0,0,0,0,0,0,0,0,0,0,0,0,0,0,0,0,0,0,0,0,0,0,0,0,0,0,0,0,0,0,0,0,0,0,0,0,0,0,0,0,0,0,0,0,0,0,0,0,0,0,0,0" class="s7_59">fact, we see from Figure 6 that the trend has been for CO</text>
<text x="690" y="619" class="s8_59">2</text>
<text x="698" y="617" dx="0,0,-.4,-.2,0,0,0,0,0,0,0,0,0,0,0,0,0,0,0,0,0,0,0,0,0,0,0,0,0,0,0" class="s7_59">levels to increase rather more </text>
<text x="342" y="636" dx="0,0,0,0,0,0,0,0,0,0,0,0,0,0,0,0,0,0,0,0,0,0,0,0,0,0,0,0,0,0,0,0,0,0,-.4,-.2,0,0,0,0,0,0,0,0,0,-.2,0,0,0,0,0,0,0,0,0,0,0,0,0,0,0,0,0,0,0,0,0,0,0,0,0,0,0,0,0,0,0" class="s7_59">rapidly in recent years, so the level might exceed 420 ppm well before 2029. </text>
<text x="868" y="636" class="se_59">■</text>
<path d="M343.8,666.9c0,0,-1.6,0,-1.6,1.5v9.2c0,0,0,1.5,1.6,1.5h9.1c0,0,1.6,0,1.6,-1.5v-9.2c0,0,0,-1.5,-1.6,-1.5Z" class="g1_59"/>
<text x="362" y="679" dx="0,-.4,0,0,0,0,0,0,0,0,0" class="sf_59">Polynomials</text>
<text x="342" y="701" class="s7_59">A function </text>
<text x="411" y="701" class="sa_59">P</text>
<text x="425" y="701" class="s7_59">is called a </text>
<text x="489" y="701" class="sg_59">polynomial</text>
<text x="566" y="701" class="s7_59">if</text>
<text x="452" y="734" class="sa_59">P</text>
<text x="461" y="734" class="sc_59">s</text>
<text x="467" y="734" class="sa_59">x</text>
<text x="473" y="734" class="sc_59">d</text>
<text x="483" y="734" class="sb_59">-</text>
<text x="500" y="734" class="sa_59">a</text>
<text x="509" y="735" class="sh_59">n</text>
<text x="515" y="734" class="sa_59">x</text>
<text x="523" y="727" class="sh_59">n</text>
<text x="532" y="734" class="sd_59">1</text>
<text x="550" y="734" class="sa_59">a</text>
<text x="558" y="735" class="sh_59">n</text>
<text x="563" y="735" class="si_59">2</text>
<text x="570" y="735" class="s8_59">1</text>
<text x="576" y="734" class="sa_59">x</text>
<text x="585" y="727" class="sh_59">n</text>
<text x="589" y="727" class="si_59">2</text>
<text x="597" y="727" class="s8_59">1</text>
<text x="606" y="734" class="sd_59">1</text>
<text x="623" y="734" dx="0,3.1,3.1" class="s7_59">∙∙∙</text>
<text x="646" y="734" class="sd_59">1</text>
<text x="663" y="734" class="sa_59">a</text>
<text x="671" y="735" class="s8_59">2</text>
<text x="677" y="734" class="sa_59">x</text>
<text x="686" y="727" class="s8_59">2</text>
<text x="695" y="734" class="sd_59">1</text>
<text x="712" y="734" class="sa_59">a</text>
<text x="720" y="735" class="s8_59">1</text>
<text x="727" y="734" class="sa_59">x</text>
<text x="738" y="734" class="sd_59">1</text>
<text x="755" y="734" class="sa_59">a</text>
<text x="764" y="735" class="s8_59">0</text>
<text x="342" y="769" dx="0,.2,.2,.2,.2,.2" class="s7_59">where </text>
<text x="383" y="769" class="sa_59">n</text>
<text x="394" y="769" dx="0,.2,.2,-.5,.2,-.5,.2,.2,.2,.2,-.1,.1,.2,.2,-.2,-.1,.2,-.5,.2,.2,.2,-.1,.2,.2,.2,-.5,.2,.2,.2,-.5,.2,.2,.2,-.5,.2,.2,.2,.2,.2,.2,.2" class="s7_59">is a nonnegative integer and the numbers </text>
<text x="649" y="769" class="sa_59">a</text>
<text x="657" y="770" class="s8_59">0</text>
<text x="663" y="769" class="s7_59">, </text>
<text x="670" y="769" class="sa_59">a</text>
<text x="679" y="770" class="s8_59">1</text>
<text x="683" y="769" class="s7_59">, </text>
<text x="691" y="769" class="sa_59">a</text>
<text x="699" y="770" class="s8_59">2</text>
<text x="704" y="769" dx="0,0,0,0,-.8,0,-.8,0,-.8,0" class="s7_59">, . . . , </text>
<text x="740" y="769" class="sa_59">a</text>
<text x="749" y="770" class="sh_59">n</text>
<text x="757" y="769" dx="0,.2,.2,.2,-.5,.2,.2,.2,.2,.2,.2,.2,.2,.2,-.5,.2,.2,.2,.2,.2,0" class="s7_59">are constants called </text>
<text x="342" y="787" dx="0,.2,.2,.2" class="s7_59">the </text>
<text x="366" y="787" dx="0,.2,.2,.2,.2,.2,.2,.2,.2,.2,.2" class="sg_59">coefIcients</text>
<text x="446" y="787" dx="0,.2,.2,1.7,.2,.2,.2,1.7,.2,.2,.2,.2,.2,.2,.2,.2,.2,.2,.2,1.4,.2,.2,.2,1.7,.2,.2,.2,.2,.2,.2,1.7,.2,.2,1.7,.2,-.1,.2,1.7,.2,.2,.2,.2,.2,.2,.2,.2,.2,.2,1.7,.2,.2" class="s7_59">of the polynomial. The domain of any polynomial is </text>
<text x="790" y="787" class="sj_59">R</text>
<text x="806" y="787" class="sb_59">-</text>
<text x="823" y="787" class="sc_59">s</text>
<text x="828" y="787" class="sd_59">2`</text>
<text x="851" y="787" class="s7_59">, </text>
<text x="859" y="787" class="sd_59">`</text>
<text x="869" y="787" class="sc_59">d</text>
<text x="874" y="787" class="s7_59">. </text>
<text x="342" y="805" dx="0,.2,.2,.1,.2,.2,.2,.1,.2,.2,.2,.2,.2,.2,.2,.1,.2,.2,.2,-.2,.2,.2,.2,.2,.2,.2" class="s7_59">±f the leading coefIcient </text>
<text x="499" y="805" class="sa_59">a</text>
<text x="507" y="807" class="sh_59">n</text>
<text x="516" y="805" class="sb_59">±</text>
<text x="534" y="805" dx="0,.1,.2,.1,.2,.2,.2,.2,.1,.2,.2,.2" class="s7_59">0, then the </text>
<text x="603" y="805" dx="0,.2,.2,.2,-.1,.2" class="sg_59">degree</text>
<text x="651" y="805" dx="0,.2,.2,.1,.2,.2,.2,.1,.2,.2,.2,.2,.2,.2,.2,.2,.2,.2,.1,.2,.2" class="s7_59">of the polynomial is </text>
<text x="781" y="805" class="sa_59">n</text>
<text x="788" y="805" dx="0,.2,.1,-.1,.2,.2,.1,-.1,.2,.2,.2,.2,.2,.2,0" class="s7_59">. For example, </text>
<text x="342" y="824" dx="0,.2,.2,.2,.2,.2,.2,.2,.2,.2,.2,.2" class="s7_59">the function</text>
<text x="514" y="844" class="sa_59">P</text>
<text x="524" y="844" class="sc_59">s</text>
<text x="530" y="844" class="sa_59">x</text>
<text x="536" y="844" class="sc_59">d</text>
<text x="546" y="844" class="sb_59">-</text>
<text x="563" y="844" class="s7_59">2</text>
<text x="572" y="844" class="sa_59">x</text>
<text x="580" y="837" class="s8_59">6</text>
<text x="589" y="844" class="sd_59">2</text>
<text x="606" y="844" class="sa_59">x</text>
<text x="615" y="837" class="s8_59">4</text>
<text x="624" y="844" class="sd_59">1</text>
<text x="641" y="837" class="sk_59">2</text>
<path d="M642,839h5.4" class="g2_59"/>
<text x="641" y="848" class="sk_59">5</text>
<text x="649" y="844" class="sa_59">x</text>
<text x="658" y="837" class="s8_59">3</text>
<text x="667" y="844" class="sd_59">1</text>
<text x="684" y="844" class="sl_59">s</text>
<text x="695" y="844" class="s7_59">2</text>
<g clip-path="url(#c0_59)">
<path d="M696.2,830.4h10" class="g0_59"/>
</g>
<text x="342" y="877" dx="0,0,0,0,0,0,0,0,0,0,0,0,0,0,0,0,0,0,0,0,0,-.2,0,0,0,0,0,0" class="s7_59">is a polynomial of degree 6.</text>
<text x="360" y="896" dx="0,0,-.2,0,0,0,0,0,0,0,0,0,0,-.2,0,0,-.2,0,-.2,0,0,0,0,-.2,0,-.2,0,0,-.2,0,0,-.2,0,0,0,-.2,0,0,0,0" class="s7_59">A polynomial of degree 1 is of the form </text>
<text x="605" y="896" class="sa_59">P</text>
<text x="615" y="896" class="sc_59">s</text>
<text x="620" y="896" class="sa_59">x</text>
<text x="627" y="896" class="sc_59">d</text>
<text x="637" y="896" class="sb_59">-</text>
<text x="654" y="896" dx="0,.8" class="sa_59">mx</text>
<text x="677" y="896" class="sd_59">1</text>
<text x="695" y="896" class="sa_59">b</text>
<text x="706" y="896" dx="0,0,0,0,-.2,0,0,-.2,0,0,-.2,0,0,-.2,0,-.2,0,0,0,0,0,0,-.2,0,0,0,0,0,0,0,0,0" class="s7_59">and so it is a linear function. </text>
<text x="342" y="914" dx="0,0,-.4,0,0,0,0,0,0,0,0,0,0,-.4,0,0,-.4,0,-.2,0,0,0,0,-.4,0,-.4,0,0,-.4,0,0,-.4,0,0,0,-.4,0,0,0,0" class="s7_59">A polynomial of degree 2 is of the form </text>
<text x="586" y="914" class="sa_59">P</text>
<text x="595" y="914" class="sc_59">s</text>
<text x="601" y="914" class="sa_59">x</text>
<text x="608" y="914" class="sc_59">d</text>
<text x="617" y="914" class="sb_59">-</text>
<text x="635" y="914" dx="0,.7" class="sa_59">ax</text>
<text x="651" y="908" class="s8_59">2</text>
<text x="660" y="914" class="sd_59">1</text>
<text x="678" y="914" dx="0,.7" class="sa_59">bx</text>
<text x="697" y="914" class="sd_59">1</text>
<text x="715" y="914" class="sa_59">c</text>
<text x="725" y="914" dx="0,0,0,0,-.4,0,0,-.4,0,0,0,0,0,0,-.4,0" class="s7_59">and is called a </text>
<text x="814" y="914" class="sg_59">quadratic </text>
<text x="342" y="932" class="sg_59">function</text>
<text x="396" y="932" dx="0,0,-.5,0,0,0,-.5,0,0,0,0,0,-.5,0,0,-.5,0,-.2,-.2,0,0,0,-.5,0,-.5,0,0,0,0,0,0,0,0,-.5,0,0,0,0,0,0,0,0,-.5,0,0,-.5,0,0,0,0,0,0,0,0,-.5,0,0,0,-.5,0,0,0,0,0,0,0,0" class="s7_59">. ±ts graph is always a parabola obtained by shifting the parabola </text>
<text x="787" y="932" class="sa_59">y</text>
<text x="799" y="932" class="sb_59">-</text>
<text x="816" y="932" dx="0,.7" class="sa_59">ax</text>
<text x="832" y="926" class="s8_59">2</text>
<text x="837" y="932" dx="0,0,-.5,0,0,-.5,0,0" class="s7_59">, as we </text>
<text x="342" y="951" dx="0,0,0,0,0,-.6,0,0,0,-.5,0,0,-.5,0,0,0,-.5,0,-.2,0,0,-.5,0,0,0,0,0,0,0,0,-.8,0,0,0,-.5,0,0,0,0,0,0,0,0,-.5,0,0,0,0,0,-.5,0,0,-.2,0,0,0,-.5,0,0" class="s7_59">will see in the next section. The parabola opens upward if </text>
<text x="691" y="951" class="sa_59">a</text>
<text x="704" y="951" class="sd_59">.</text>
<text x="721" y="951" dx="0,0,-.5,0,0,0,-.5,0,-.4,0,0,-.2,0,0,0,-.5,0,0" class="s7_59">0 and downward if </text>
<text x="837" y="951" class="sa_59">a</text>
<text x="849" y="951" class="sd_59">,</text>
<text x="867" y="951" class="s7_59">0. </text>
<text x="342" y="969" class="s7_59">(See Figure 7.)</text>
<text x="360" y="987" dx="0,0,0,0,0,0,0,0,0,0,0,0,0,0,0,0,0,0,-.2,0,0,0,0,0,0,0,0,0,0,0,0,0,0,0,0,0,0,0,0" class="s7_59">A polynomial of degree 3 is of the form</text>
<text x="486" y="1018" class="sa_59">P</text>
<text x="496" y="1018" class="sc_59">s</text>
<text x="502" y="1018" class="sa_59">x</text>
<text x="508" y="1018" class="sc_59">d</text>
<text x="518" y="1018" class="sb_59">-</text>
<text x="535" y="1018" dx="0,.7" class="sa_59">ax</text>
<text x="552" y="1012" class="s8_59">3</text>
<text x="561" y="1018" class="sd_59">1</text>
<text x="578" y="1018" dx="0,.7" class="sa_59">bx</text>
<text x="595" y="1012" class="s8_59">2</text>
<text x="604" y="1018" class="sd_59">1</text>
<text x="622" y="1018" dx="0,.7" class="sa_59">cx</text>
<text x="640" y="1018" class="sd_59">1</text>
<text x="658" y="1018" class="sa_59">d</text>
<text x="696" y="1018" class="sa_59">a</text>
<text x="709" y="1018" class="sb_59">±</text>
<text x="726" y="1018" class="s7_59">0</text>
<text x="108" y="982" dx="0,.3,.3,.3,.3,.3,.1" class="sm_59">FIGURE </text>
<text x="161" y="982" class="sn_59">7</text>
<text x="108" y="999" class="so_59">The graphs of quadratic functions </text>
<text x="108" y="1015" class="so_59">are parabolas.</text>
<path fill-rule="evenodd" d="M176.7,605.6l-2.5,1.6l2.5,-6.5l2.4,6.5Z" class="g3_59"/>
<path fill-rule="evenodd" d="M242.4,704l-1.7,-2.5l6.6,2.5l-6.6,2.4Z" class="g3_59"/>
<path d="M173.7,637.9h6.1m29.9,62.8v6.1" class="g4_59"/>
<text x="167" y="716" class="sp_59">0</text>
<text x="165" y="607" class="sq_59">y</text>
<text x="163" y="643" class="sp_59">2</text>
<text x="240" y="716" class="sr_59">x</text>
<text x="207" y="720" class="sp_59">1</text>
<text x="126" y="756" class="ss_59">(a) </text>
<text x="144" y="756" class="st_59">y=≈+x+1</text>
<path d="M110.7,604.9c9.5,29.4,27,74.3,49.5,74.3c22.5,0,39.5,-44.9,49.1,-74.3" class="g5_59"/>
<path d="M110.7,703.9h132m-66,25.8V605.4" class="g4_59"/>
<path fill-rule="evenodd" d="M162.3,792.5l-2.5,1.7l2.5,-6.6l2.4,6.6Z" class="g3_59"/>
<path fill-rule="evenodd" d="M244.4,881.8l-1.6,-2.4l6.5,2.4l-6.5,2.5Z" class="g3_59"/>
<path d="M159.3,815.8h6.1m29.9,63.1V885" class="g4_59"/>
<text x="151" y="794" class="su_59">y</text>
<text x="149" y="821" class="su_59">2</text>
<text x="242" y="894" class="su_59">x</text>
<text x="192" y="898" class="su_59">1</text>
<text x="126" y="950" class="ss_59">(b) </text>
<text x="144" y="950" class="st_59">y=_2≈+3x+1</text>
<path d="M143.4,923.9c10.4,-52.7,24.9,-112.1,43,-112.1c18,0,32.5,59.3,42.9,112.1" class="g5_59"/>
<g clip-path="url(#c1_59)">
<path d="M162.3,923.9V792.1m-66,89.7H244.8" class="g4_59"/>
</g>
<text x="121" y="1076" class="sv_59">Copyright 2016 Cengage Learning. All Rights Reserved. May not be copied, scanned, or duplicated, in whole or in part. Due to electronic rights, some third party content may be suppressed from the eBook and/or eChapter(s).</text>
<text x="106" y="1087" class="sv_59">Editorial review has deemed that any suppressed content does not materially affect the overall learning experience. Cengage Learning reserves the right to remove additional content at any time if subsequent rights restrictions require it.</text>

</g>

<!-- Any embedded fonts defined here -->
<style type="text/css" ><![CDATA[

@font-face {
	font-family: BeaconDingbatsTypeOne_12w;
	src: url("fonts/BeaconDingbatsTypeOne_12w.woff") format("woff");
}

@font-face {
	font-family: MathematicalPiLTStd-1_rr;
	src: url("fonts/MathematicalPiLTStd-1_rr.woff") format("woff");
}

@font-face {
	font-family: MathematicalPiLTStd-3_ry;
	src: url("fonts/MathematicalPiLTStd-3_ry.woff") format("woff");
}

@font-face {
	font-family: MathematicalPiLTStd-5_vb;
	src: url("fonts/MathematicalPiLTStd-5_vb.woff") format("woff");
}

@font-face {
	font-family: MathematicalPiLTStd-6_13j;
	src: url("fonts/MathematicalPiLTStd-6_13j.woff") format("woff");
}

@font-face {
	font-family: MyriadPro-BoldSemiCn_90;
	src: url("fonts/MyriadPro-BoldSemiCn_90.woff") format("woff");
}

@font-face {
	font-family: MyriadPro-Bold_74;
	src: url("fonts/MyriadPro-Bold_74.woff") format("woff");
}

@font-face {
	font-family: MyriadPro-Regular_4i;
	src: url("fonts/MyriadPro-Regular_4i.woff") format("woff");
}

@font-face {
	font-family: MyriadPro-Semibold_49;
	src: url("fonts/MyriadPro-Semibold_49.woff") format("woff");
}

@font-face {
	font-family: TECHMath-Mix_-x;
	src: url("fonts/TECHMath-Mix_-x.woff") format("woff");
}

@font-face {
	font-family: TECHMath-Mix_160;
	src: url("fonts/TECHMath-Mix_160.woff") format("woff");
}

@font-face {
	font-family: TECHMath-Mix_16e;
	src: url("fonts/TECHMath-Mix_16e.woff") format("woff");
}

@font-face {
	font-family: TECHMath-Mix_19d;
	src: url("fonts/TECHMath-Mix_19d.woff") format("woff");
}

@font-face {
	font-family: Times-Roman_4n;
	src: url("fonts/Times-Roman_4n.woff") format("woff");
}

@font-face {
	font-family: Times-Roman_n6;
	src: url("fonts/Times-Roman_n6.woff") format("woff");
}

@font-face {
	font-family: TimesLTStd-Bold_oh;
	src: url("fonts/TimesLTStd-Bold_oh.woff") format("woff");
}

@font-face {
	font-family: TimesLTStd-Italic_o3;
	src: url("fonts/TimesLTStd-Italic_o3.woff") format("woff");
}

@font-face {
	font-family: TimesLTStd-Roman_143;
	src: url("fonts/TimesLTStd-Roman_143.woff") format("woff");
}

@font-face {
	font-family: ZapfDingbatsITC_my;
	src: url("fonts/ZapfDingbatsITC_my.woff") format("woff");
}

]]></style>

</svg>
