<?xml version="1.0" encoding="UTF-8" standalone="no"?>
<!DOCTYPE svg PUBLIC "-//W3C//DTD SVG 1.1//EN"
"http://www.w3.org/Graphics/SVG/1.1/DTD/svg11.dtd">


<!-- Page 6 -->
<svg x="0" y="0" width="931" height="1096" viewBox="0 0 931 1096" version="1.1" xmlns="http://www.w3.org/2000/svg" xmlns:xlink="http://www.w3.org/1999/xlink"
style="display: block;margin-left: auto;margin-right: auto;">
<defs>
<clipPath id="c_6"><path d="M0,0H931V1096H0Z"/></clipPath>
<clipPath id="c0_6"><path d="M53.6,286.1V148.6H227.8V286.1Z"/></clipPath>

<style type="text/css"><![CDATA[
text { white-space: pre; }
path, image { pointer-events: none; }

.s1_6{
font-size: 16.74px;
font-family: MyriadPro-BoldSemiCn_90;
fill: #231F20;
}
.s2_6{
font-size: 16.04px;
font-family: MyriadPro-SemiCn_95;
fill: #231F20;
}
.s3_6{
font-size: 15.28px;
font-family: MyriadPro-SemiCn_8y;
fill: #00A54F;
}
.s4_6{
font-size: 15.28px;
font-family: MyriadPro-SemiCn_95;
fill: #231F20;
}
.s5_6{
font-size: 16.81px;
font-family: MyriadPro-SemiboldSemiCn_4e;
fill: #5B2E91;
}
.s6_6{
font-size: 16.04px;
font-family: MyriadPro-SemiCnIt_g2;
fill: #231F20;
}
.s7_6{
font-size: 15.28px;
font-family: MyriadPro-Semibold_49;
fill: #231F20;
}
.s8_6{
font-size: 12.22px;
font-family: MyriadPro-Regular_4i;
fill: #231F20;
}
.s9_6{
font-size: 7.64px;
font-family: Times-Roman_4n;
fill: #000000;
}

.g0_6{
fill: #040503;
}
.g1_6{
fill: #F58021;
}
.g2_6{
fill: #FFFFFF;
}
.g3_6{
fill: #FCFBE6;
}
.g4_6{
fill: #FCFADB;
}
.g5_6{
fill: #FDFAD6;
}
.g6_6{
fill: #FDF9CF;
}
.g7_6{
fill: #FCF9CD;
}
.g8_6{
fill: #FCF8C9;
}
.g9_6{
fill: #FCF8C7;
}
.ga_6{
fill: #FCF7C4;
}
.gb_6{
fill: #E9B21E;
}
.gc_6{
fill: #723816;
}
.gd_6{
fill: #1C1714;
}
.ge_6{
fill: #895020;
}
.gf_6{
fill: #C5A891;
}
.gg_6{
fill: #FEEACA;
}
.gh_6{
fill: #F9D8A4;
}
.gi_6{
fill: #ECC168;
}
.gj_6{
fill: #818281;
}
.gk_6{
fill: #E3D4C7;
}
.gl_6{
fill: #FEE6C2;
}
.gm_6{
fill: #FEF2CD;
}
.gn_6{
fill: #F4D88B;
}
.go_6{
fill: #FEE2BB;
}
.gp_6{
fill: #FAEEC7;
}

]]></style>

</defs>
<g clip-path="url(#c_6)">
<path d="M0,0
L0,1096
L931,1096
L931,0 Z " 
fill="#FFFFFF" stroke="none"/>
<image preserveAspectRatio="none" x="169" y="94" width="677" height="39" xlink:href="6/img/1.png"/>
<text x="247" y="160" class="s1_6">3.1</text>
<text x="292" y="160" dx="0,.1,0,0,0,-.1,-.1,0,0,-.2,0,0,.3,0,0,.3,-.4,0,0,0,0,0,0,0,0,0,0,.3,0,0,0,.3,0,0,0,0,0,0,-.1,0,0,0,0,.3,-.5,0,0,.2,0,0,0,0,0,4.8,0,0" class="s2_6">Derivatives of Polynomials and Exponential Functions 172</text>
<text x="308" y="183" dx="0,0,0,0,0,0,0,0,.3,-.2,-.2,0,0,0,.2,0,4.6" class="s3_6">Applied Project •</text>
<text x="417" y="183" dx="0,0,0,0,0,0,0,0,0,.3,0,.3,.1,0,0,-.1,0,0,.3,0,0,0,0,0,0,.3,-.2,0,0,0,-.1,0,0,4.6,0,0" class="s4_6">Building a Better Roller Coaster 182</text>
<text x="247" y="206" class="s1_6">3.2</text>
<text x="292" y="206" dx="0,-.1,0,0,.3,-.2,-.2,0,0,0,.2,0,.3,0,0,0,.3,.1,0,0,0,0,0,-.1,0,.3,0,0,0,0,0,4.9,0,0" class="s2_6">The Product and Quotient Rules 183</text>
<text x="247" y="228" class="s1_6">3.3</text>
<text x="292" y="228" dx="0,.1,0,0,0,-.1,-.1,0,0,-.2,0,0,.3,0,0,-.3,-.8,0,0,0,0,0,0,0,0,0,0,0,0,.3,-.5,0,0,.2,0,0,0,0,0,4.9,0,0" class="s2_6">Derivatives of Trigonometric Functions 190</text>
<text x="247" y="251" class="s1_6">3.4</text>
<text x="292" y="251" dx="0,-.1,0,0,.3,0,0,0,0,0,.3,0,0,0,0,4.9,0,0" class="s2_6">The Chain Rule 197</text>
<text x="308" y="274" dx="0,0,0,0,0,0,0,0,.3,-.2,-.2,0,0,0,.2,0,4.6" class="s3_6">Applied Project •</text>
<text x="417" y="274" dx="0,-.1,0,0,-.2,0,.3,0,0,0,0,0,0,.3,0,.3,-.2,0,0,0,0,.3,-.1,0,0,.4,0,.3,.1,0,0,-.1,0,-.1,0,0,4.6,0,0" class="s4_6">Where Should a Pilot Start Descent? 208</text>
<text x="247" y="297" class="s1_6">3.5</text>
<text x="292" y="297" dx="0,.1,0,0,0,0,0,0,0,.3,0,0,-.2,0,-.2,0,-.1,0,0,-.1,0,0,0,0,4.9,0,0" class="s2_6">Implicit Diﬀerentiation 208</text>
<text x="308" y="320" dx="0,0,0,0,0,-.1,-.1,-.1,0,.4,0,.3,-.2,-.2,0,0,0,.2,0,4.6" class="s3_6">Laboratory Project •</text>
<text x="436" y="320" dx="0,-.7,0,0,0,0,0,0,0,.3,0,0,.3,.1,0,0,0,0,0,0,0,.3,-.2,0,.4,-.2,0,0,4.6,0,0" class="s4_6">Families of Implicit Curves 217</text>
<text x="247" y="343" class="s1_6">3.6</text>
<text x="292" y="343" dx="0,.1,0,0,0,-.1,-.1,0,0,-.2,0,0,.3,0,0,.3,-.2,0,0,0,0,0,0,0,0,0,0,.3,-.5,0,0,.2,0,0,0,0,0,4.9,0,0" class="s2_6">Derivatives of Logarithmic Functions 218</text>
<text x="247" y="366" class="s1_6">3.7</text>
<text x="292" y="366" dx="0,.2,-.1,-.1,0,0,.3,0,0,.3,0,0,0,0,0,0,.3,0,0,.3,0,0,0,.3,0,-.1,0,0,-.1,0,0,.3,0,0,0,.3,.1,0,0,0,0,0,.3,.1,0,0,0,0,-.1,0,0,4.8,0,0" class="s2_6">Rates of Change in the Natural and Social Sciences 224</text>
<text x="247" y="389" class="s1_6">3.8</text>
<text x="292" y="389" dx="0,0,0,0,0,0,0,-.1,0,0,0,0,.3,0,-.2,-.1,0,0,0,.3,0,0,0,.3,.1,0,0,-.1,0,4.9,0,0" class="s2_6">Exponential Growth and Decay 237</text>
<text x="308" y="412" dx="0,0,0,0,0,0,0,0,.3,-.2,-.2,0,0,0,.2,0,4.6" class="s3_6">Applied Project •</text>
<text x="417" y="412" dx="0,-.2,0,-.1,0,-.2,0,0,0,0,0,0,.3,0,0,0,.3,0,0,0,0,0,.3,-.2,0,0,0,.3,-.2,0,0,0,.3,.1,0,0,0,0,0,.3,0,0,-.2,0,0,.4,0,4.6,0,0" class="s4_6">Controlling Red Blood Cell Loss During Surgery 244</text>
<text x="247" y="435" class="s1_6">3.9</text>
<text x="292" y="435" dx="0,0,0,0,-.1,-.1,0,0,.3,.2,-.1,-.1,0,0,4.9,0,0" class="s2_6">Related Rates 245</text>
<text x="246" y="458" class="s1_6">3.10</text>
<text x="292" y="458" dx="0,0,0,0,0,0,0,.3,0,0,0,-.2,-.2,0,0,0,-.1,0,0,0,0,0,.3,0,0,0,.3,0,0,-.2,0,-.2,0,-.1,0,0,0,0,0,4.9,0,0" class="s2_6">Linear Approximations and Diﬀerentials 251</text>
<text x="308" y="481" dx="0,0,0,0,0,-.1,-.1,-.1,0,.4,0,.3,-.2,-.2,0,0,0,.2,0,4.6" class="s3_6">Laboratory Project •</text>
<text x="435" y="481" dx="0,-.9,-.1,0,0,0,0,.3,-.4,0,0,0,0,0,0,0,0,0,0,4.6,0,0" class="s4_6">Taylor Polynomials 258</text>
<text x="246" y="503" class="s1_6">3.11</text>
<text x="292" y="503" dx="0,.1,0,0,0,0,0,0,0,0,0,.3,-.5,0,0,.2,0,0,0,0,0,4.9,0,0" class="s2_6">Hyperbolic Functions 259</text>
<text x="292" y="529" dx="0,0,0,0,0,0,0,4.9,0,0" class="s2_6">Review 266</text>
<text x="246" y="555" dx="0,-.2,-.2,0,0,0,0,0,0,.3,0,0,0,0,5.2,0,0" class="s5_6">Problems Plus 270</text>
<image preserveAspectRatio="none" x="169" y="618" width="677" height="39" xlink:href="6/img/2.png"/>
<text x="247" y="684" class="s1_6">4.1</text>
<text x="292" y="684" dx="0,.1,0,0,0,0,0,0,.3,0,0,0,.3,.2,0,0,0,0,0,0,-.3,-.6,0,0,0,0,0,4.9,0,0" class="s2_6">Maximum and Minimum Values 276</text>
<text x="308" y="707" dx="0,0,0,0,0,0,0,0,.3,-.2,-.2,0,0,0,.2,0,4.6" class="s3_6">Applied Project •</text>
<text x="417" y="707" dx="0,-.1,0,0,.3,-.1,0,0,0,0,0,0,0,.3,0,0,.3,.2,0,0,0,0,-.1,-.1,0,4.6,0,0" class="s4_6">The Calculus of Rainbows 285</text>
<text x="247" y="730" class="s1_6">4.2</text>
<text x="292" y="730" dx="0,-.1,0,0,.3,.1,0,0,0,-.3,-.6,0,0,0,0,-.3,-.1,0,0,0,-.2,0,0,4.9,0,0" class="s2_6">The Mean Value Theorem 287</text>
<text x="247" y="753" class="s1_6">4.3</text>
<text x="292" y="753" dx="0,0,-.1,0,.3,.1,0,0,0,-.1,-.1,0,0,-.2,0,0,.3,-.1,-.2,0,.2,0,.3,0,0,0,.3,0,0,0,0,0,.3,0,0,.3,0,.3,0,-.1,0,0,0,4.8,0,0" class="s2_6">How Derivatives Aﬀect the Shape of a Graph 293</text>
<text x="247" y="776" class="s1_6">4.4</text>
<text x="292" y="776" dx="0,.1,0,0,0,-.1,0,0,0,0,0,-.1,-.1,0,.3,-.4,0,0,0,0,.3,0,0,0,.3,.1,0,0,0,0,0,0,0,0,.1,-1.2,0,.3,0,0,0,0,4.8,0,0" class="s2_6">Indeterminate Forms and l’Hospital’s Rule 304</text>
<text x="308" y="798" dx="0,-.3,0,0,0,0,0,0,.3,-.2,-.2,0,0,0,.2,0,4.6" class="s3_6">Writing Project •</text>
<text x="414" y="798" dx="0,-.1,0,0,.3,0,0,0,-.1,0,0,0,.3,0,0,.3,.1,0,0,0,0,0,0,0,0,.1,-1.1,0,.3,0,0,0,0,4.6,0,0" class="s4_6">The Origins of l’Hospital’s Rule 314</text>
<text x="247" y="821" class="s1_6">4.5</text>
<text x="292" y="821" dx="0,0,0,0,0,0,.4,0,.3,0,0,.3,-.2,0,.4,-.2,0,.3,0,-.1,0,-.1,0,0,0,0,0,4.9,0,0" class="s2_6">Summary of Curve Sketching 315</text>
<text x="247" y="844" class="s1_6">4.6</text>
<text x="292" y="844" dx="0,0,-.1,0,0,0,0,0,0,.3,0,0,0,0,.3,-.1,0,0,0,0,0,0,0" class="s2_6">Graphing with Calculus </text>
<text x="438" y="844" class="s6_6">and</text>
<text x="465" y="844" dx="0,-.1,0,0,0,0,0,-.1,-.1,0,0,0,4.9,0,0" class="s2_6">Calculators 323</text>
<text x="247" y="867" class="s1_6">4.7</text>
<text x="292" y="867" dx="0,0,0,0,0,0,0,0,-.1,0,0,0,0,.3,-.2,-.2,0,0,0,0,0,0,4.9,0,0" class="s2_6">Optimization Problems 330</text>
<text x="308" y="890" dx="0,0,0,0,0,0,0,0,.3,-.2,-.2,0,0,0,.2,0,4.6" class="s3_6">Applied Project •</text>
<text x="417" y="890" dx="0,-.1,0,0,.3,0,0,0,0,0,.3,0,0,.3,0,.3,-.1,0,0,4.6,0,0" class="s4_6">The Shape of a Can 343</text>
<text x="308" y="913" dx="0,0,0,0,0,0,0,0,.3,-.2,-.2,0,0,0,.2,0,4.6" class="s3_6">Applied Project •</text>
<text x="417" y="913" dx="0,-.1,0,0,0,0,0,.3,0,0,0,.3,0,0,-.2,0,0,0,.3,.2,0,0,0,0,0,0,0,0,0,.3,0,0,0,-.2,0,0" class="s4_6">Planes and Birds: Minimizing Energy </text>
<text x="641" y="913" class="s4_6">344</text>
<text x="247" y="936" class="s1_6">4.8</text>
<text x="292" y="936" dx="0,0,0,0,-.1,0,-.5,-1.2,0,.3,.1,0,0,0,0,0,4.9,0,0" class="s2_6">Newton’s Method 345</text>
<text x="247" y="959" class="s1_6">4.9</text>
<text x="292" y="959" dx="0,0,-.1,0,0,0,0,0,0,-.1,-.1,0,0,-.2,0,0,4.9,0,0" class="s2_6">Antiderivatives 350</text>
<text x="292" y="985" dx="0,0,0,0,0,0,0,4.9,0,0" class="s2_6">Review 358</text>
<text x="246" y="1011" dx="0,-.2,-.2,0,0,0,0,0,0,.3,0,0,0,0,5.2,0,0" class="s5_6">Problems Plus 363</text>
<path d="M53.6,286.1H227.8V148.6H53.6V286.1Z" class="g0_6"/>
<image x="52" y="147" width="177" height="121" xlink:href="6/shade/1.png"/>
<image x="52" y="238" width="177" height="31" xlink:href="6/shade/2.png"/>
<image x="52" y="247" width="177" height="23" xlink:href="6/shade/3.png"/>
<image x="52" y="267" width="177" height="21" xlink:href="6/shade/4.png"/>
<path fill-rule="evenodd" d="M85,267.8c.1,0,.2,-.1,.2,-.3c0,-.1,-.1,-.2,-.2,-.2c-.1,0,-.3,.1,-.3,.2c0,.2,.2,.3,.3,.3Z" class="g1_6"/>
<path fill-rule="evenodd" d="M91.1,267.3c.1,0,.2,.1,.2,.2c0,.2,-.1,.3,-.2,.3c-.2,0,-.3,-.1,-.3,-.3c0,-.1,.1,-.2,.3,-.2Z" class="g1_6"/>
<path fill-rule="evenodd" d="M97.1,267.3c.2,0,.2,.1,.2,.2c0,.2,0,.3,-.2,.3c-.1,0,-.2,-.1,-.2,-.3c0,-.1,.1,-.2,.2,-.2Z" class="g1_6"/>
<path fill-rule="evenodd" d="M103.2,267.3c.1,0,.2,.1,.2,.2c0,.2,-.1,.3,-.2,.3c-.1,0,-.3,-.1,-.3,-.3c0,-.1,.2,-.2,.3,-.2Z" class="g1_6"/>
<path fill-rule="evenodd" d="M109.3,267.3c.1,0,.2,.1,.2,.2c0,.2,-.1,.3,-.2,.3c-.2,0,-.3,-.1,-.3,-.3c0,-.1,.1,-.2,.3,-.2Z" class="g1_6"/>
<path fill-rule="evenodd" d="M115.3,267.3c.2,0,.3,.1,.3,.2c0,.2,-.1,.3,-.3,.3c-.1,0,-.2,-.1,-.2,-.3c0,-.1,.1,-.2,.2,-.2Z" class="g1_6"/>
<path fill-rule="evenodd" d="M121.4,267.3c.2,0,.2,.1,.2,.2c0,.2,0,.3,-.2,.3c-.2,0,-.2,-.1,-.2,-.3c0,-.1,0,-.2,.2,-.2Z" class="g1_6"/>
<path fill-rule="evenodd" d="M127.5,267.3c.1,0,.2,.1,.2,.2c0,.2,-.1,.3,-.2,.3c-.2,0,-.3,-.1,-.3,-.3c0,-.1,.1,-.2,.3,-.2Z" class="g1_6"/>
<path fill-rule="evenodd" d="M133.6,267.3c.1,0,.2,.1,.2,.2c0,.2,-.1,.3,-.2,.3c-.2,0,-.3,-.1,-.3,-.3c0,-.1,.1,-.2,.3,-.2Z" class="g1_6"/>
<path fill-rule="evenodd" d="M139.6,267.3c.2,0,.3,.1,.3,.2c0,.2,-.1,.3,-.3,.3c-.1,0,-.2,-.1,-.2,-.3c0,-.1,.1,-.2,.2,-.2Z" class="g1_6"/>
<path fill-rule="evenodd" d="M145.7,267.3c.1,0,.2,.1,.2,.2c0,.2,-.1,.3,-.2,.3c-.2,0,-.3,-.1,-.3,-.3c0,-.1,.1,-.2,.3,-.2Z" class="g1_6"/>
<path fill-rule="evenodd" d="M151.7,267.3c.2,0,.3,.1,.3,.2c0,.2,-.1,.3,-.3,.3c-.1,0,-.2,-.1,-.2,-.3c0,-.1,.1,-.2,.2,-.2Z" class="g1_6"/>
<path fill-rule="evenodd" d="M157.8,267.3c.1,0,.2,.1,.2,.2c0,.2,-.1,.3,-.2,.3c-.2,0,-.2,-.1,-.2,-.3c0,-.1,0,-.2,.2,-.2Z" class="g1_6"/>
<path fill-rule="evenodd" d="M163.9,267.3c.1,0,.2,.1,.2,.2c0,.2,-.1,.3,-.2,.3c-.2,0,-.3,-.1,-.3,-.3c0,-.1,.1,-.2,.3,-.2Z" class="g1_6"/>
<path fill-rule="evenodd" d="M169.9,267.3c.2,0,.3,.1,.3,.2c0,.2,-.1,.3,-.3,.3c-.1,0,-.2,-.1,-.2,-.3c0,-.1,.1,-.2,.2,-.2Z" class="g1_6"/>
<path fill-rule="evenodd" d="M176,267.3c.2,0,.3,.1,.3,.2c0,.2,-.1,.3,-.3,.3c-.1,0,-.2,-.1,-.2,-.3c0,-.1,.1,-.2,.2,-.2Z" class="g1_6"/>
<path fill-rule="evenodd" d="M182.1,267.3c.1,0,.2,.1,.2,.2c0,.2,-.1,.3,-.2,.3c-.2,0,-.2,-.1,-.2,-.3c0,-.1,0,-.2,.2,-.2Z" class="g1_6"/>
<path fill-rule="evenodd" d="M188.1,267.3c.2,0,.3,.1,.3,.2c0,.2,-.1,.3,-.3,.3c-.1,0,-.2,-.1,-.2,-.3c0,-.1,.1,-.2,.2,-.2Z" class="g1_6"/>
<path fill-rule="evenodd" d="M194.2,267.3c.2,0,.3,.1,.3,.2c0,.2,-.1,.3,-.3,.3c-.1,0,-.2,-.1,-.2,-.3c0,-.1,.1,-.2,.2,-.2Z" class="g1_6"/>
<path fill-rule="evenodd" d="M200.3,267.3c.2,0,.3,.1,.3,.2c0,.2,-.1,.3,-.3,.3c-.1,0,-.2,-.1,-.2,-.3c0,-.1,.1,-.2,.2,-.2Z" class="g1_6"/>
<path fill-rule="evenodd" d="M206.4,267.3c.1,0,.2,.1,.2,.2c0,.2,-.1,.3,-.2,.3c-.2,0,-.3,-.1,-.3,-.3c0,-.1,.1,-.2,.3,-.2Z" class="g1_6"/>
<path fill-rule="evenodd" d="M212.4,267.8c.2,0,.3,-.1,.3,-.3c0,-.1,-.1,-.2,-.3,-.2c-.1,0,-.2,.1,-.2,.2c0,.2,.1,.3,.2,.3Z" class="g1_6"/>
<path fill-rule="evenodd" d="M61.2,268.2c.1,0,.2,.1,.2,.3c0,.1,-.1,.2,-.2,.2c-.1,0,-.3,-.1,-.3,-.2c0,-.2,.2,-.3,.3,-.3Z" class="g1_6"/>
<path fill-rule="evenodd" d="M70.4,268.2c.2,0,.3,.1,.3,.3c0,.1,-.1,.2,-.3,.2c-.1,0,-.2,-.1,-.2,-.2c0,-.2,.1,-.3,.2,-.3Z" class="g1_6"/>
<path fill-rule="evenodd" d="M79.6,268.2c.2,0,.3,.1,.3,.3c0,.1,-.1,.2,-.3,.2c-.1,0,-.2,-.1,-.2,-.2c0,-.2,.1,-.3,.2,-.3Z" class="g1_6"/>
<path fill-rule="evenodd" d="M88.9,268.2c.1,0,.2,.1,.2,.3c0,.1,-.1,.2,-.2,.2c-.1,0,-.2,-.1,-.2,-.2c0,-.2,.1,-.3,.2,-.3Z" class="g1_6"/>
<path fill-rule="evenodd" d="M98.1,268.2c.2,0,.3,.1,.3,.3c0,.1,-.1,.2,-.3,.2c-.1,0,-.2,-.1,-.2,-.2c0,-.2,.1,-.3,.2,-.3Z" class="g1_6"/>
<path fill-rule="evenodd" d="M107.4,268.2c.1,0,.2,.1,.2,.3c0,.1,-.1,.2,-.2,.2c-.2,0,-.3,-.1,-.3,-.2c0,-.2,.1,-.3,.3,-.3Z" class="g1_6"/>
<path fill-rule="evenodd" d="M116.6,268.2c.1,0,.2,.1,.2,.3c0,.1,-.1,.2,-.2,.2c-.1,0,-.3,-.1,-.3,-.2c0,-.2,.2,-.3,.3,-.3Z" class="g1_6"/>
<path fill-rule="evenodd" d="M125.8,268.2c.2,0,.3,.1,.3,.3c0,.1,-.1,.2,-.3,.2c-.1,0,-.2,-.1,-.2,-.2c0,-.2,.1,-.3,.2,-.3Z" class="g1_6"/>
<path fill-rule="evenodd" d="M135,268.2c.2,0,.3,.1,.3,.3c0,.1,-.1,.2,-.3,.2c-.1,0,-.2,-.1,-.2,-.2c0,-.2,.1,-.3,.2,-.3Z" class="g1_6"/>
<path fill-rule="evenodd" d="M144.2,268.2c.2,0,.3,.1,.3,.3c0,.1,-.1,.2,-.3,.2c-.1,0,-.2,-.1,-.2,-.2c0,-.2,.1,-.3,.2,-.3Z" class="g1_6"/>
<path fill-rule="evenodd" d="M153.5,268.2c.1,0,.2,.1,.2,.3c0,.1,-.1,.2,-.2,.2c-.2,0,-.3,-.1,-.3,-.2c0,-.2,.1,-.3,.3,-.3Z" class="g1_6"/>
<path fill-rule="evenodd" d="M162.7,268.2c.1,0,.3,.1,.3,.3c0,.1,-.2,.2,-.3,.2c-.1,0,-.2,-.1,-.2,-.2c0,-.2,.1,-.3,.2,-.3Z" class="g1_6"/>
<path fill-rule="evenodd" d="M172,268.2c.1,0,.2,.1,.2,.3c0,.1,-.1,.2,-.2,.2c-.2,0,-.3,-.1,-.3,-.2c0,-.2,.1,-.3,.3,-.3Z" class="g1_6"/>
<path fill-rule="evenodd" d="M181.2,268.2c.1,0,.2,.1,.2,.3c0,.1,-.1,.2,-.2,.2c-.2,0,-.3,-.1,-.3,-.2c0,-.2,.1,-.3,.3,-.3Z" class="g1_6"/>
<path fill-rule="evenodd" d="M190.4,268.2c.2,0,.3,.1,.3,.3c0,.1,-.1,.2,-.3,.2c-.1,0,-.2,-.1,-.2,-.2c0,-.2,.1,-.3,.2,-.3Z" class="g1_6"/>
<path fill-rule="evenodd" d="M199.6,268.2c.2,0,.3,.1,.3,.3c0,.1,-.1,.2,-.3,.2c-.1,0,-.2,-.1,-.2,-.2c0,-.2,.1,-.3,.2,-.3Z" class="g1_6"/>
<path fill-rule="evenodd" d="M208.9,268.2c.1,0,.2,.1,.2,.3c0,.1,-.1,.2,-.2,.2c-.2,0,-.3,-.1,-.3,-.2c0,-.2,.1,-.3,.3,-.3Z" class="g1_6"/>
<path fill-rule="evenodd" d="M218.1,268.2c.1,0,.3,.1,.3,.3c0,.1,-.2,.2,-.3,.2c-.1,0,-.2,-.1,-.2,-.2c0,-.2,.1,-.3,.2,-.3Z" class="g1_6"/>
<path fill-rule="evenodd" d="M227.3,268.2c.2,0,.3,.1,.3,.3c0,.1,-.1,.2,-.3,.2c-.1,0,-.2,-.1,-.2,-.2c0,-.2,.1,-.3,.2,-.3Z" class="g1_6"/>
<path fill-rule="evenodd" d="M57,268.9c.1,0,.2,.1,.2,.3c0,.1,-.1,.2,-.2,.2c-.2,0,-.3,-.1,-.3,-.2c0,-.2,.1,-.3,.3,-.3Z" class="g2_6"/>
<path fill-rule="evenodd" d="M66.2,268.9c.1,0,.2,.1,.2,.3c0,.1,-.1,.2,-.2,.2c-.2,0,-.3,-.1,-.3,-.2c0,-.2,.1,-.3,.3,-.3Z" class="g2_6"/>
<path fill-rule="evenodd" d="M75.4,268.9c.1,0,.3,.1,.3,.3c0,.1,-.2,.2,-.3,.2c-.1,0,-.2,-.1,-.2,-.2c0,-.2,.1,-.3,.2,-.3Z" class="g2_6"/>
<path fill-rule="evenodd" d="M84.6,268.9c.2,0,.3,.1,.3,.3c0,.1,-.1,.2,-.3,.2c-.1,0,-.2,-.1,-.2,-.2c0,-.2,.1,-.3,.2,-.3Z" class="g2_6"/>
<path fill-rule="evenodd" d="M93.9,268.9c.1,0,.2,.1,.2,.3c0,.1,-.1,.2,-.2,.2c-.2,0,-.3,-.1,-.3,-.2c0,-.2,.1,-.3,.3,-.3Z" class="g2_6"/>
<path fill-rule="evenodd" d="M103.1,268.9c.1,0,.3,.1,.3,.3c0,.1,-.2,.2,-.3,.2c-.1,0,-.2,-.1,-.2,-.2c0,-.2,.1,-.3,.2,-.3Z" class="g2_6"/>
<path fill-rule="evenodd" d="M112.4,268.9c.1,0,.2,.1,.2,.3c0,.1,-.1,.2,-.2,.2c-.2,0,-.3,-.1,-.3,-.2c0,-.2,.1,-.3,.3,-.3Z" class="g2_6"/>
<path fill-rule="evenodd" d="M121.5,268.9c.2,0,.3,.1,.3,.3c0,.1,-.1,.2,-.3,.2c-.1,0,-.2,-.1,-.2,-.2c0,-.2,.1,-.3,.2,-.3Z" class="g2_6"/>
<path fill-rule="evenodd" d="M130.8,268.9c.1,0,.3,.1,.3,.3c0,.1,-.2,.2,-.3,.2c-.1,0,-.2,-.1,-.2,-.2c0,-.2,.1,-.3,.2,-.3Z" class="g2_6"/>
<path fill-rule="evenodd" d="M140,268.9c.2,0,.3,.1,.3,.3c0,.1,-.1,.2,-.3,.2c-.1,0,-.2,-.1,-.2,-.2c0,-.2,.1,-.3,.2,-.3Z" class="g2_6"/>
<path fill-rule="evenodd" d="M149.2,268.9c.2,0,.3,.1,.3,.3c0,.1,-.1,.2,-.3,.2c-.1,0,-.2,-.1,-.2,-.2c0,-.2,.1,-.3,.2,-.3Z" class="g2_6"/>
<path fill-rule="evenodd" d="M158.5,268.9c.1,0,.2,.1,.2,.3c0,.1,-.1,.2,-.2,.2c-.2,0,-.3,-.1,-.3,-.2c0,-.2,.1,-.3,.3,-.3Z" class="g2_6"/>
<path fill-rule="evenodd" d="M167.7,268.9c.1,0,.2,.1,.2,.3c0,.1,-.1,.2,-.2,.2c-.2,0,-.3,-.1,-.3,-.2c0,-.2,.1,-.3,.3,-.3Z" class="g2_6"/>
<path fill-rule="evenodd" d="M176.9,268.9c.2,0,.3,.1,.3,.3c0,.1,-.1,.2,-.3,.2c-.1,0,-.2,-.1,-.2,-.2c0,-.2,.1,-.3,.2,-.3Z" class="g2_6"/>
<path fill-rule="evenodd" d="M186.1,268.9c.2,0,.3,.1,.3,.3c0,.1,-.1,.2,-.3,.2c-.1,0,-.2,-.1,-.2,-.2c0,-.2,.1,-.3,.2,-.3Z" class="g2_6"/>
<path fill-rule="evenodd" d="M195.4,268.9c.1,0,.2,.1,.2,.3c0,.1,-.1,.2,-.2,.2c-.1,0,-.3,-.1,-.3,-.2c0,-.2,.2,-.3,.3,-.3Z" class="g2_6"/>
<path fill-rule="evenodd" d="M204.6,268.9c.2,0,.3,.1,.3,.3c0,.1,-.1,.2,-.3,.2c-.1,0,-.2,-.1,-.2,-.2c0,-.2,.1,-.3,.2,-.3Z" class="g2_6"/>
<path fill-rule="evenodd" d="M213.9,268.9c.1,0,.2,.1,.2,.3c0,.1,-.1,.2,-.2,.2c-.2,0,-.3,-.1,-.3,-.2c0,-.2,.1,-.3,.3,-.3Z" class="g2_6"/>
<path fill-rule="evenodd" d="M223.1,268.9c.1,0,.2,.1,.2,.3c0,.1,-.1,.2,-.2,.2c-.2,0,-.3,-.1,-.3,-.2c0,-.2,.1,-.3,.3,-.3Z" class="g2_6"/>
<path fill-rule="evenodd" d="M164.3,269h.2v-1.9h-.2V269Z" class="g0_6"/>
<path fill-rule="evenodd" d="M164.4,267.1c.2,0,.4,-.1,.4,-.3c0,-.2,-.2,-.4,-.4,-.4c-.2,0,-.4,.2,-.4,.4c0,.2,.2,.3,.4,.3Z" class="g2_6"/>
<path fill-rule="evenodd" d="M164.1,266.5h.6c.1,.1,.1,.2,.1,.3c0,0,0,.1,-.1,.2h-.6c-.1,-.1,-.1,-.2,-.1,-.2c0,-.1,0,-.2,.1,-.3Z" class="g2_6"/>
<path fill-rule="evenodd" d="M164.4,266.9c.1,0,.1,-.1,.1,-.1c0,-.1,0,-.2,-.1,-.2c-.1,0,-.1,.1,-.1,.2c0,0,0,.1,.1,.1Z" class="g2_6"/>
<path fill-rule="evenodd" d="M164.4,266.6c-.1,0,-.2,0,-.2,0c0,0,.1,0,.2,0c.2,0,.3,0,.3,0c0,0,-.1,0,-.3,0Z" class="g2_6"/>
<path fill-rule="evenodd" d="M164.4,266.6c-.1,0,-.2,0,-.2,0c0,0,.1,0,.2,0c.2,0,.3,0,.3,0c0,0,-.1,0,-.3,0Z" class="g2_6"/>
<path fill-rule="evenodd" d="M164.4,266.7c-.1,0,-.2,0,-.2,0c0,0,.1,0,.2,0c.2,0,.3,0,.3,0c0,0,-.1,0,-.3,0Z" class="g2_6"/>
<path fill-rule="evenodd" d="M164.4,266.7c-.1,0,-.2,0,-.2,0c0,0,.1,0,.2,0c.2,0,.3,0,.3,0c0,0,-.1,0,-.3,0Z" class="g2_6"/>
<path fill-rule="evenodd" d="M164.4,266.8c-.1,0,-.2,0,-.2,0c0,0,.1,0,.2,0c.2,0,.3,0,.3,0c0,0,-.1,0,-.3,0Z" class="g2_6"/>
<path fill-rule="evenodd" d="M164.4,266.8c-.1,0,-.2,0,-.2,0c0,0,.1,0,.2,0c.2,0,.3,0,.3,0c0,0,-.1,0,-.3,0Z" class="g2_6"/>
<path fill-rule="evenodd" d="M164.4,266.9c-.1,0,-.2,0,-.2,0c0,0,.1,0,.2,0c.2,0,.3,0,.3,0c0,0,-.1,0,-.3,0Z" class="g2_6"/>
<path fill-rule="evenodd" d="M164.4,266.9c-.1,0,-.2,0,-.2,0c0,0,.1,0,.2,0c.2,0,.3,0,.3,0c0,0,-.1,0,-.3,0Z" class="g2_6"/>
<path fill-rule="evenodd" d="M167.3,269.9h.2V267h-.2v2.9Z" class="g0_6"/>
<image x="166" y="265" width="4" height="4" xlink:href="6/shade/5.png"/>
<image x="166" y="265" width="4" height="3" xlink:href="6/shade/6.png"/>
<path fill-rule="evenodd" d="M167.4,266.6c.1,0,.2,-.1,.2,-.2c0,-.1,-.1,-.2,-.2,-.2c-.1,0,-.2,.1,-.2,.2c0,.1,.1,.2,.2,.2Z" class="g3_6"/>
<path fill-rule="evenodd" d="M167.4,266.1c-.2,0,-.4,0,-.4,0c0,0,.2,0,.4,0c.2,0,.4,0,.4,0c0,0,-.2,0,-.4,0Z" class="g2_6"/>
<path fill-rule="evenodd" d="M167.4,266.2c-.2,0,-.4,0,-.4,0c0,0,.2,0,.4,0c.2,0,.4,0,.4,0c0,0,-.2,0,-.4,0Z" class="g2_6"/>
<path fill-rule="evenodd" d="M167.4,266.2c-.2,0,-.4,.1,-.4,.1c0,0,.2,0,.4,0c.2,0,.4,0,.4,0c0,0,-.2,-.1,-.4,-.1Z" class="g2_6"/>
<path fill-rule="evenodd" d="M167.4,266.3c-.2,0,-.4,0,-.4,.1c0,0,.2,0,.4,0c.2,0,.4,0,.4,0c0,-.1,-.2,-.1,-.4,-.1Z" class="g2_6"/>
<path fill-rule="evenodd" d="M167.4,266.4c-.2,0,-.4,0,-.4,0c0,0,.2,0,.4,0c.2,0,.4,0,.4,0c0,0,-.2,0,-.4,0Z" class="g2_6"/>
<path fill-rule="evenodd" d="M167.4,266.5c-.2,0,-.4,0,-.4,0c0,0,.2,0,.4,0c.2,0,.4,0,.4,0c0,0,-.2,0,-.4,0Z" class="g2_6"/>
<path fill-rule="evenodd" d="M167.4,266.6c-.2,0,-.4,0,-.4,0c0,0,.2,0,.4,0c.2,0,.4,0,.4,0c0,0,-.2,0,-.4,0Z" class="g2_6"/>
<path fill-rule="evenodd" d="M167.4,266.7c-.2,0,-.4,0,-.4,0c0,0,.2,0,.4,0c.2,0,.4,0,.4,0c0,0,-.2,0,-.4,0Z" class="g2_6"/>
<path fill-rule="evenodd" d="M170.7,271h.2v-4.2h-.2V271Z" class="g0_6"/>
<image x="169" y="264" width="5" height="4" xlink:href="6/shade/7.png"/>
<image x="169" y="264" width="5" height="4" xlink:href="6/shade/8.png"/>
<path fill-rule="evenodd" d="M170.8,266.2c.1,0,.3,-.1,.3,-.2c0,-.2,-.2,-.3,-.3,-.3c-.1,0,-.3,.1,-.3,.3c0,.1,.2,.2,.3,.2Z" class="g4_6"/>
<path fill-rule="evenodd" d="M170.9,265.5c-.3,0,-.6,.1,-.6,.1c0,0,.3,0,.6,0c.3,0,.5,0,.5,0c0,0,-.2,-.1,-.5,-.1Z" class="g2_6"/>
<path fill-rule="evenodd" d="M170.9,265.7c-.3,0,-.6,0,-.6,0c0,0,.3,0,.6,0c.3,0,.5,0,.5,0c0,0,-.2,0,-.5,0Z" class="g2_6"/>
<path fill-rule="evenodd" d="M170.9,265.8c-.3,0,-.6,0,-.6,0c0,0,.3,0,.6,0c.3,0,.5,0,.5,0c0,0,-.2,0,-.5,0Z" class="g2_6"/>
<path fill-rule="evenodd" d="M170.9,265.9c-.3,0,-.6,0,-.6,0c0,0,.3,0,.6,0c.3,0,.5,0,.5,0c0,0,-.2,0,-.5,0Z" class="g2_6"/>
<path fill-rule="evenodd" d="M170.9,266c-.3,0,-.6,0,-.6,0c0,0,.3,0,.6,0c.3,0,.5,0,.5,0c0,0,-.2,0,-.5,0Z" class="g2_6"/>
<path fill-rule="evenodd" d="M170.9,266.1c-.3,0,-.6,0,-.6,0c0,.1,.3,.1,.6,.1c.3,0,.5,0,.5,-.1c0,0,-.2,0,-.5,0Z" class="g2_6"/>
<path fill-rule="evenodd" d="M170.9,266.2c-.3,0,-.6,0,-.6,.1c0,0,.3,0,.6,0c.3,0,.5,0,.5,0c0,-.1,-.2,-.1,-.5,-.1Z" class="g2_6"/>
<path fill-rule="evenodd" d="M170.9,266.4c-.3,0,-.6,0,-.6,0c0,0,.3,0,.6,0c.3,0,.5,0,.5,0c0,0,-.2,0,-.5,0Z" class="g2_6"/>
<path fill-rule="evenodd" d="M174.7,272.2h.3v-5.7h-.3v5.7Z" class="g0_6"/>
<image x="172" y="263" width="5" height="4" xlink:href="6/shade/9.png"/>
<image x="172" y="264" width="5" height="4" xlink:href="6/shade/10.png"/>
<path fill-rule="evenodd" d="M174.8,265.8c.2,0,.4,-.1,.4,-.3c0,-.2,-.2,-.4,-.4,-.4c-.2,0,-.3,.2,-.3,.4c0,.2,.1,.3,.3,.3Z" class="g5_6"/>
<path fill-rule="evenodd" d="M174.9,264.9c-.4,0,-.7,0,-.7,0c0,0,.3,0,.7,0c.4,0,.7,0,.7,0c0,0,-.3,0,-.7,0Z" class="g2_6"/>
<path fill-rule="evenodd" d="M174.9,265.1c-.4,0,-.7,0,-.7,0c0,0,.3,0,.7,0c.4,0,.7,0,.7,0c0,0,-.3,0,-.7,0Z" class="g2_6"/>
<path fill-rule="evenodd" d="M174.9,265.2c-.4,0,-.7,0,-.7,0c0,.1,.3,.1,.7,.1c.4,0,.7,0,.7,-.1c0,0,-.3,0,-.7,0Z" class="g2_6"/>
<path fill-rule="evenodd" d="M174.9,265.4c-.4,0,-.7,0,-.7,0c0,0,.3,0,.7,0c.4,0,.7,0,.7,0c0,0,-.3,0,-.7,0Z" class="g2_6"/>
<path fill-rule="evenodd" d="M174.9,265.5c-.4,0,-.7,0,-.7,.1c0,0,.3,0,.7,0c.4,0,.7,0,.7,0c0,-.1,-.3,-.1,-.7,-.1Z" class="g2_6"/>
<path fill-rule="evenodd" d="M174.9,265.7c-.4,0,-.7,0,-.7,0c0,0,.3,0,.7,0c.4,0,.7,0,.7,0c0,0,-.3,0,-.7,0Z" class="g2_6"/>
<path fill-rule="evenodd" d="M174.9,265.8c-.4,0,-.7,0,-.7,.1c0,0,.3,0,.7,0c.4,0,.7,0,.7,0c0,-.1,-.3,-.1,-.7,-.1Z" class="g2_6"/>
<path fill-rule="evenodd" d="M174.9,266c-.4,0,-.7,0,-.7,0c0,0,.3,0,.7,0c.4,0,.7,0,.7,0c0,0,-.3,0,-.7,0Z" class="g2_6"/>
<path fill-rule="evenodd" d="M179.5,273.6h.4v-7.3h-.4v7.3Z" class="g0_6"/>
<image x="177" y="262" width="5" height="6" xlink:href="6/shade/11.png"/>
<image x="177" y="263" width="5" height="4" xlink:href="6/shade/12.png"/>
<path fill-rule="evenodd" d="M179.7,265.3c.3,0,.5,-.2,.5,-.4c0,-.3,-.2,-.5,-.5,-.5c-.2,0,-.4,.2,-.4,.5c0,.2,.2,.4,.4,.4Z" class="g6_6"/>
<path fill-rule="evenodd" d="M179.8,264.1c-.5,0,-.9,0,-.9,.1c0,0,.4,0,.9,0c.6,0,1,0,1,0c0,-.1,-.4,-.1,-1,-.1Z" class="g2_6"/>
<path fill-rule="evenodd" d="M179.8,264.3c-.5,0,-.9,0,-.9,.1c0,0,.4,0,.9,0c.6,0,1,0,1,0c0,-.1,-.4,-.1,-1,-.1Z" class="g2_6"/>
<path fill-rule="evenodd" d="M179.8,264.5c-.5,0,-.9,0,-.9,.1c0,0,.4,0,.9,0c.6,0,1,0,1,0c0,-.1,-.4,-.1,-1,-.1Z" class="g2_6"/>
<path fill-rule="evenodd" d="M179.8,264.7c-.5,0,-.9,0,-.9,.1c0,0,.4,0,.9,0c.6,0,1,0,1,0c0,-.1,-.4,-.1,-1,-.1Z" class="g2_6"/>
<path fill-rule="evenodd" d="M179.8,264.9c-.5,0,-.9,.1,-.9,.1c0,0,.4,0,.9,0c.6,0,1,0,1,0c0,0,-.4,-.1,-1,-.1Z" class="g2_6"/>
<path fill-rule="evenodd" d="M179.8,265.1c-.5,0,-.9,.1,-.9,.1c0,0,.4,0,.9,0c.6,0,1,0,1,0c0,0,-.4,-.1,-1,-.1Z" class="g2_6"/>
<path fill-rule="evenodd" d="M179.8,265.4c-.5,0,-.9,0,-.9,0c0,0,.4,0,.9,0c.6,0,1,0,1,0c0,0,-.4,0,-1,0Z" class="g2_6"/>
<path fill-rule="evenodd" d="M179.8,265.6c-.5,0,-.9,0,-.9,0c0,0,.4,0,.9,0c.6,0,1,0,1,0c0,0,-.4,0,-1,0Z" class="g2_6"/>
<path fill-rule="evenodd" d="M185.6,275.5h.6v-9.6h-.6v9.6Z" class="g0_6"/>
<image x="183" y="261" width="7" height="7" xlink:href="6/shade/13.png"/>
<image x="183" y="262" width="7" height="4" xlink:href="6/shade/14.png"/>
<path fill-rule="evenodd" d="M185.9,264.7c.4,0,.6,-.2,.6,-.6c0,-.3,-.2,-.6,-.6,-.6c-.3,0,-.6,.3,-.6,.6c0,.4,.3,.6,.6,.6Z" class="g7_6"/>
<path fill-rule="evenodd" d="M186.1,263.1c-.7,0,-1.2,0,-1.2,.1c0,0,.5,0,1.2,0c.7,0,1.2,0,1.2,0c0,-.1,-.5,-.1,-1.2,-.1Z" class="g2_6"/>
<path fill-rule="evenodd" d="M186.1,263.4c-.7,0,-1.2,0,-1.2,0c0,.1,.5,.1,1.2,.1c.7,0,1.2,0,1.2,-.1c0,0,-.5,0,-1.2,0Z" class="g2_6"/>
<path fill-rule="evenodd" d="M186.1,263.7c-.7,0,-1.2,0,-1.2,0c0,0,.5,.1,1.2,.1c.7,0,1.2,-.1,1.2,-.1c0,0,-.5,0,-1.2,0Z" class="g2_6"/>
<path fill-rule="evenodd" d="M186.1,263.9c-.7,0,-1.2,.1,-1.2,.1c0,0,.5,0,1.2,0c.7,0,1.2,0,1.2,0c0,0,-.5,-.1,-1.2,-.1Z" class="g2_6"/>
<path fill-rule="evenodd" d="M186.1,264.2c-.7,0,-1.2,0,-1.2,0c0,.1,.5,.1,1.2,.1c.7,0,1.2,0,1.2,-.1c0,0,-.5,0,-1.2,0Z" class="g2_6"/>
<path fill-rule="evenodd" d="M186.1,264.5c-.7,0,-1.2,0,-1.2,0c0,0,.5,0,1.2,0c.7,0,1.2,0,1.2,0c0,0,-.5,0,-1.2,0Z" class="g2_6"/>
<path fill-rule="evenodd" d="M186.1,264.7c-.7,0,-1.2,0,-1.2,.1c0,0,.5,0,1.2,0c.7,0,1.2,0,1.2,0c0,-.1,-.5,-.1,-1.2,-.1Z" class="g2_6"/>
<path fill-rule="evenodd" d="M186.1,265c-.7,0,-1.2,0,-1.2,0c0,.1,.5,.1,1.2,.1c.7,0,1.2,0,1.2,-.1c0,0,-.5,0,-1.2,0Z" class="g2_6"/>
<path fill-rule="evenodd" d="M194.1,278h.8V265.4h-.8V278Z" class="g0_6"/>
<image x="191" y="259" width="7" height="8" xlink:href="6/shade/15.png"/>
<image x="191" y="260" width="7" height="6" xlink:href="6/shade/16.png"/>
<path fill-rule="evenodd" d="M194.5,263.9c.4,0,.8,-.4,.8,-.8c0,-.4,-.4,-.8,-.8,-.8c-.4,0,-.8,.4,-.8,.8c0,.4,.4,.8,.8,.8Z" class="g8_6"/>
<path fill-rule="evenodd" d="M194.7,261.8c-.9,0,-1.6,0,-1.6,0c0,0,.7,.1,1.6,.1c.9,0,1.6,-.1,1.6,-.1c0,0,-.7,0,-1.6,0Z" class="g2_6"/>
<path fill-rule="evenodd" d="M194.7,262.1c-.9,0,-1.6,0,-1.6,.1c0,0,.7,0,1.6,0c.9,0,1.6,0,1.6,0c0,-.1,-.7,-.1,-1.6,-.1Z" class="g2_6"/>
<path fill-rule="evenodd" d="M194.7,262.5c-.9,0,-1.6,0,-1.6,0c0,0,.7,.1,1.6,.1c.9,0,1.6,-.1,1.6,-.1c0,0,-.7,0,-1.6,0Z" class="g2_6"/>
<path fill-rule="evenodd" d="M194.7,262.8c-.9,0,-1.6,0,-1.6,.1c0,0,.7,0,1.6,0c.9,0,1.6,0,1.6,0c0,-.1,-.7,-.1,-1.6,-.1Z" class="g2_6"/>
<path fill-rule="evenodd" d="M194.7,263.2c-.9,0,-1.6,0,-1.6,0c0,.1,.7,.1,1.6,.1c.9,0,1.6,0,1.6,-.1c0,0,-.7,0,-1.6,0Z" class="g2_6"/>
<path fill-rule="evenodd" d="M194.7,263.5c-.9,0,-1.6,.1,-1.6,.1c0,0,.7,0,1.6,0c.9,0,1.6,0,1.6,0c0,0,-.7,-.1,-1.6,-.1Z" class="g2_6"/>
<path fill-rule="evenodd" d="M194.7,263.9c-.9,0,-1.6,0,-1.6,0c0,.1,.7,.1,1.6,.1c.9,0,1.6,0,1.6,-.1c0,0,-.7,0,-1.6,0Z" class="g2_6"/>
<path fill-rule="evenodd" d="M194.7,264.2c-.9,0,-1.6,.1,-1.6,.1c0,0,.7,0,1.6,0c.9,0,1.6,0,1.6,0c0,0,-.7,-.1,-1.6,-.1Z" class="g2_6"/>
<path fill-rule="evenodd" d="M207.8,282.1h1V264.7h-1v17.4Z" class="g0_6"/>
<image x="204" y="257" width="10" height="10" xlink:href="6/shade/17.png"/>
<image x="204" y="258" width="10" height="7" xlink:href="6/shade/18.png"/>
<path fill-rule="evenodd" d="M208.3,262.5c.6,0,1.1,-.5,1.1,-1.1c0,-.6,-.5,-1.1,-1.1,-1.1c-.6,0,-1.1,.5,-1.1,1.1c0,.6,.5,1.1,1.1,1.1Z" class="g9_6"/>
<path fill-rule="evenodd" d="M208.6,259.6c-1.2,0,-2.2,0,-2.2,0c0,.1,1,.1,2.2,.1c1.3,0,2.3,0,2.3,-.1c0,0,-1,0,-2.3,0Z" class="g2_6"/>
<path fill-rule="evenodd" d="M208.6,260.1c-1.2,0,-2.2,0,-2.2,0c0,.1,1,.1,2.2,.1c1.3,0,2.3,0,2.3,-.1c0,0,-1,0,-2.3,0Z" class="g2_6"/>
<path fill-rule="evenodd" d="M208.6,260.5c-1.2,0,-2.2,.1,-2.2,.1c0,.1,1,.1,2.2,.1c1.3,0,2.3,0,2.3,-.1c0,0,-1,-.1,-2.3,-.1Z" class="g2_6"/>
<path fill-rule="evenodd" d="M208.6,261c-1.2,0,-2.2,.1,-2.2,.1c0,0,1,.1,2.2,.1c1.3,0,2.3,-.1,2.3,-.1c0,0,-1,-.1,-2.3,-.1Z" class="g2_6"/>
<path fill-rule="evenodd" d="M208.6,261.5c-1.2,0,-2.2,.1,-2.2,.1c0,0,1,.1,2.2,.1c1.3,0,2.3,-.1,2.3,-.1c0,0,-1,-.1,-2.3,-.1Z" class="g2_6"/>
<path fill-rule="evenodd" d="M208.6,262c-1.2,0,-2.2,0,-2.2,.1c0,0,1,.1,2.2,.1c1.3,0,2.3,-.1,2.3,-.1c0,-.1,-1,-.1,-2.3,-.1Z" class="g2_6"/>
<path fill-rule="evenodd" d="M208.6,262.5c-1.2,0,-2.2,0,-2.2,.1c0,0,1,.1,2.2,.1c1.3,0,2.3,-.1,2.3,-.1c0,-.1,-1,-.1,-2.3,-.1Z" class="g2_6"/>
<path fill-rule="evenodd" d="M208.6,263c-1.2,0,-2.2,0,-2.2,.1c0,0,1,0,2.2,0c1.3,0,2.3,0,2.3,0c0,-.1,-1,-.1,-2.3,-.1Z" class="g2_6"/>
<path fill-rule="evenodd" d="M146.3,269h.1v-1.9h-.1V269Z" class="g0_6"/>
<path fill-rule="evenodd" d="M146.4,267.1c.2,0,.3,-.1,.3,-.3c0,-.2,-.1,-.4,-.3,-.4c-.2,0,-.4,.2,-.4,.4c0,.2,.2,.3,.4,.3Z" class="g2_6"/>
<path fill-rule="evenodd" d="M146.1,266.5h.6c0,.1,0,.2,0,.3c0,0,0,.1,0,.2H146c0,-.1,0,-.2,0,-.2c0,-.1,0,-.2,.1,-.3Z" class="g2_6"/>
<path fill-rule="evenodd" d="M146.4,266.9c0,0,.1,-.1,.1,-.1c0,-.1,-.1,-.2,-.1,-.2c-.1,0,-.2,.1,-.2,.2c0,0,.1,.1,.2,.1Z" class="g2_6"/>
<path fill-rule="evenodd" d="M146.4,266.6c-.1,0,-.2,0,-.2,0c0,0,.1,0,.2,0c.1,0,.2,0,.2,0c0,0,-.1,0,-.2,0Z" class="g2_6"/>
<path fill-rule="evenodd" d="M146.4,266.6c-.1,0,-.2,0,-.2,0c0,0,.1,0,.2,0c.1,0,.2,0,.2,0c0,0,-.1,0,-.2,0Z" class="g2_6"/>
<path fill-rule="evenodd" d="M146.4,266.7c-.1,0,-.2,0,-.2,0c0,0,.1,0,.2,0c.1,0,.2,0,.2,0c0,0,-.1,0,-.2,0Z" class="g2_6"/>
<path fill-rule="evenodd" d="M146.4,266.7c-.1,0,-.2,0,-.2,0c0,0,.1,0,.2,0c.1,0,.2,0,.2,0c0,0,-.1,0,-.2,0Z" class="g2_6"/>
<path fill-rule="evenodd" d="M146.4,266.8c-.1,0,-.2,0,-.2,0c0,0,.1,0,.2,0c.1,0,.2,0,.2,0c0,0,-.1,0,-.2,0Z" class="g2_6"/>
<path fill-rule="evenodd" d="M146.4,266.8c-.1,0,-.2,0,-.2,0c0,0,.1,0,.2,0c.1,0,.2,0,.2,0c0,0,-.1,0,-.2,0Z" class="g2_6"/>
<path fill-rule="evenodd" d="M146.4,266.9c-.1,0,-.2,0,-.2,0c0,0,.1,0,.2,0c.1,0,.2,0,.2,0c0,0,-.1,0,-.2,0Z" class="g2_6"/>
<path fill-rule="evenodd" d="M146.4,266.9c-.1,0,-.2,0,-.2,0c0,0,.1,0,.2,0c.1,0,.2,0,.2,0c0,0,-.1,0,-.2,0Z" class="g2_6"/>
<path fill-rule="evenodd" d="M147.7,269.9h.2V267h-.2v2.9Z" class="g0_6"/>
<image x="146" y="265" width="5" height="4" xlink:href="6/shade/19.png"/>
<image x="146" y="265" width="5" height="3" xlink:href="6/shade/20.png"/>
<path fill-rule="evenodd" d="M147.8,266.6c.1,0,.2,-.1,.2,-.2c0,-.1,-.1,-.2,-.2,-.2c-.1,0,-.2,.1,-.2,.2c0,.1,.1,.2,.2,.2Z" class="g3_6"/>
<path fill-rule="evenodd" d="M147.9,266.1c-.2,0,-.4,0,-.4,0c0,0,.2,0,.4,0c.2,0,.3,0,.3,0c0,0,-.1,0,-.3,0Z" class="g2_6"/>
<path fill-rule="evenodd" d="M147.9,266.2c-.2,0,-.4,0,-.4,0c0,0,.2,0,.4,0c.2,0,.3,0,.3,0c0,0,-.1,0,-.3,0Z" class="g2_6"/>
<path fill-rule="evenodd" d="M147.9,266.2c-.2,0,-.4,.1,-.4,.1c0,0,.2,0,.4,0c.2,0,.3,0,.3,0c0,0,-.1,-.1,-.3,-.1Z" class="g2_6"/>
<path fill-rule="evenodd" d="M147.9,266.3c-.2,0,-.4,0,-.4,.1c0,0,.2,0,.4,0c.2,0,.3,0,.3,0c0,-.1,-.1,-.1,-.3,-.1Z" class="g2_6"/>
<path fill-rule="evenodd" d="M147.9,266.4c-.2,0,-.4,0,-.4,0c0,0,.2,0,.4,0c.2,0,.3,0,.3,0c0,0,-.1,0,-.3,0Z" class="g2_6"/>
<path fill-rule="evenodd" d="M147.9,266.5c-.2,0,-.4,0,-.4,0c0,0,.2,0,.4,0c.2,0,.3,0,.3,0c0,0,-.1,0,-.3,0Z" class="g2_6"/>
<path fill-rule="evenodd" d="M147.9,266.6c-.2,0,-.4,0,-.4,0c0,0,.2,0,.4,0c.2,0,.3,0,.3,0c0,0,-.1,0,-.3,0Z" class="g2_6"/>
<path fill-rule="evenodd" d="M147.9,266.7c-.2,0,-.4,0,-.4,0c0,0,.2,0,.4,0c.2,0,.3,0,.3,0c0,0,-.1,0,-.3,0Z" class="g2_6"/>
<path fill-rule="evenodd" d="M149.3,271h.3v-4.2h-.3V271Z" class="g0_6"/>
<image x="147" y="264" width="5" height="4" xlink:href="6/shade/21.png"/>
<image x="147" y="264" width="5" height="4" xlink:href="6/shade/22.png"/>
<path fill-rule="evenodd" d="M149.5,266.2c.1,0,.2,-.1,.2,-.2c0,-.2,-.1,-.3,-.2,-.3c-.2,0,-.3,.1,-.3,.3c0,.1,.1,.2,.3,.2Z" class="g4_6"/>
<path fill-rule="evenodd" d="M149.5,265.5c-.3,0,-.5,.1,-.5,.1c0,0,.2,0,.5,0c.3,0,.6,0,.6,0c0,0,-.3,-.1,-.6,-.1Z" class="g2_6"/>
<path fill-rule="evenodd" d="M149.5,265.7c-.3,0,-.5,0,-.5,0c0,0,.2,0,.5,0c.3,0,.6,0,.6,0c0,0,-.3,0,-.6,0Z" class="g2_6"/>
<path fill-rule="evenodd" d="M149.5,265.8c-.3,0,-.5,0,-.5,0c0,0,.2,0,.5,0c.3,0,.6,0,.6,0c0,0,-.3,0,-.6,0Z" class="g2_6"/>
<path fill-rule="evenodd" d="M149.5,265.9c-.3,0,-.5,0,-.5,0c0,0,.2,0,.5,0c.3,0,.6,0,.6,0c0,0,-.3,0,-.6,0Z" class="g2_6"/>
<path fill-rule="evenodd" d="M149.5,266c-.3,0,-.5,0,-.5,0c0,0,.2,0,.5,0c.3,0,.6,0,.6,0c0,0,-.3,0,-.6,0Z" class="g2_6"/>
<path fill-rule="evenodd" d="M149.5,266.1c-.3,0,-.5,0,-.5,0c0,.1,.2,.1,.5,.1c.3,0,.6,0,.6,-.1c0,0,-.3,0,-.6,0Z" class="g2_6"/>
<path fill-rule="evenodd" d="M149.5,266.2c-.3,0,-.5,0,-.5,.1c0,0,.2,0,.5,0c.3,0,.6,0,.6,0c0,-.1,-.3,-.1,-.6,-.1Z" class="g2_6"/>
<path fill-rule="evenodd" d="M149.5,266.4c-.3,0,-.5,0,-.5,0c0,0,.2,0,.5,0c.3,0,.6,0,.6,0c0,0,-.3,0,-.6,0Z" class="g2_6"/>
<path fill-rule="evenodd" d="M151.2,272.2h.4v-5.7h-.4v5.7Z" class="g0_6"/>
<image x="149" y="263" width="6" height="4" xlink:href="6/shade/23.png"/>
<image x="149" y="264" width="6" height="4" xlink:href="6/shade/24.png"/>
<path fill-rule="evenodd" d="M151.4,265.8c.2,0,.4,-.1,.4,-.3c0,-.2,-.2,-.4,-.4,-.4c-.2,0,-.3,.2,-.3,.4c0,.2,.1,.3,.3,.3Z" class="g5_6"/>
<path fill-rule="evenodd" d="M151.5,264.9c-.4,0,-.7,0,-.7,0c0,0,.3,0,.7,0c.4,0,.7,0,.7,0c0,0,-.3,0,-.7,0Z" class="g2_6"/>
<path fill-rule="evenodd" d="M151.5,265.1c-.4,0,-.7,0,-.7,0c0,0,.3,0,.7,0c.4,0,.7,0,.7,0c0,0,-.3,0,-.7,0Z" class="g2_6"/>
<path fill-rule="evenodd" d="M151.5,265.2c-.4,0,-.7,0,-.7,0c0,.1,.3,.1,.7,.1c.4,0,.7,0,.7,-.1c0,0,-.3,0,-.7,0Z" class="g2_6"/>
<path fill-rule="evenodd" d="M151.5,265.4c-.4,0,-.7,0,-.7,0c0,0,.3,0,.7,0c.4,0,.7,0,.7,0c0,0,-.3,0,-.7,0Z" class="g2_6"/>
<path fill-rule="evenodd" d="M151.5,265.5c-.4,0,-.7,0,-.7,.1c0,0,.3,0,.7,0c.4,0,.7,0,.7,0c0,-.1,-.3,-.1,-.7,-.1Z" class="g2_6"/>
<path fill-rule="evenodd" d="M151.5,265.7c-.4,0,-.7,0,-.7,0c0,0,.3,0,.7,0c.4,0,.7,0,.7,0c0,0,-.3,0,-.7,0Z" class="g2_6"/>
<path fill-rule="evenodd" d="M151.5,265.8c-.4,0,-.7,0,-.7,.1c0,0,.3,0,.7,0c.4,0,.7,0,.7,0c0,-.1,-.3,-.1,-.7,-.1Z" class="g2_6"/>
<path fill-rule="evenodd" d="M151.5,266c-.4,0,-.7,0,-.7,0c0,0,.3,0,.7,0c.4,0,.7,0,.7,0c0,0,-.3,0,-.7,0Z" class="g2_6"/>
<path fill-rule="evenodd" d="M153.6,273.6h.4v-7.3h-.4v7.3Z" class="g0_6"/>
<image x="151" y="262" width="5" height="6" xlink:href="6/shade/25.png"/>
<image x="151" y="263" width="5" height="4" xlink:href="6/shade/26.png"/>
<path fill-rule="evenodd" d="M153.8,265.3c.2,0,.4,-.2,.4,-.4c0,-.3,-.2,-.5,-.4,-.5c-.3,0,-.5,.2,-.5,.5c0,.2,.2,.4,.5,.4Z" class="g6_6"/>
<path fill-rule="evenodd" d="M153.9,264.1c-.5,0,-.9,0,-.9,.1c0,0,.4,0,.9,0c.5,0,1,0,1,0c0,-.1,-.5,-.1,-1,-.1Z" class="g2_6"/>
<path fill-rule="evenodd" d="M153.9,264.3c-.5,0,-.9,0,-.9,.1c0,0,.4,0,.9,0c.5,0,1,0,1,0c0,-.1,-.5,-.1,-1,-.1Z" class="g2_6"/>
<path fill-rule="evenodd" d="M153.9,264.5c-.5,0,-.9,0,-.9,.1c0,0,.4,0,.9,0c.5,0,1,0,1,0c0,-.1,-.5,-.1,-1,-.1Z" class="g2_6"/>
<path fill-rule="evenodd" d="M153.9,264.7c-.5,0,-.9,0,-.9,.1c0,0,.4,0,.9,0c.5,0,1,0,1,0c0,-.1,-.5,-.1,-1,-.1Z" class="g2_6"/>
<path fill-rule="evenodd" d="M153.9,264.9c-.5,0,-.9,.1,-.9,.1c0,0,.4,0,.9,0c.5,0,1,0,1,0c0,0,-.5,-.1,-1,-.1Z" class="g2_6"/>
<path fill-rule="evenodd" d="M153.9,265.1c-.5,0,-.9,.1,-.9,.1c0,0,.4,0,.9,0c.5,0,1,0,1,0c0,0,-.5,-.1,-1,-.1Z" class="g2_6"/>
<path fill-rule="evenodd" d="M153.9,265.4c-.5,0,-.9,0,-.9,0c0,0,.4,0,.9,0c.5,0,1,0,1,0c0,0,-.5,0,-1,0Z" class="g2_6"/>
<path fill-rule="evenodd" d="M153.9,265.6c-.5,0,-.9,0,-.9,0c0,0,.4,0,.9,0c.5,0,1,0,1,0c0,0,-.5,0,-1,0Z" class="g2_6"/>
<path fill-rule="evenodd" d="M156.5,275.5h.6v-9.6h-.6v9.6Z" class="g0_6"/>
<image x="154" y="261" width="7" height="7" xlink:href="6/shade/27.png"/>
<image x="154" y="262" width="7" height="4" xlink:href="6/shade/28.png"/>
<path fill-rule="evenodd" d="M156.8,264.7c.3,0,.6,-.2,.6,-.6c0,-.3,-.3,-.6,-.6,-.6c-.3,0,-.6,.3,-.6,.6c0,.4,.3,.6,.6,.6Z" class="g7_6"/>
<path fill-rule="evenodd" d="M157,263.1c-.7,0,-1.2,0,-1.2,.1c0,0,.5,0,1.2,0c.7,0,1.2,0,1.2,0c0,-.1,-.5,-.1,-1.2,-.1Z" class="g2_6"/>
<path fill-rule="evenodd" d="M157,263.4c-.7,0,-1.2,0,-1.2,0c0,.1,.5,.1,1.2,.1c.7,0,1.2,0,1.2,-.1c0,0,-.5,0,-1.2,0Z" class="g2_6"/>
<path fill-rule="evenodd" d="M157,263.7c-.7,0,-1.2,0,-1.2,0c0,0,.5,.1,1.2,.1c.7,0,1.2,-.1,1.2,-.1c0,0,-.5,0,-1.2,0Z" class="g2_6"/>
<path fill-rule="evenodd" d="M157,263.9c-.7,0,-1.2,.1,-1.2,.1c0,0,.5,0,1.2,0c.7,0,1.2,0,1.2,0c0,0,-.5,-.1,-1.2,-.1Z" class="g2_6"/>
<path fill-rule="evenodd" d="M157,264.2c-.7,0,-1.2,0,-1.2,0c0,.1,.5,.1,1.2,.1c.7,0,1.2,0,1.2,-.1c0,0,-.5,0,-1.2,0Z" class="g2_6"/>
<path fill-rule="evenodd" d="M157,264.5c-.7,0,-1.2,0,-1.2,0c0,0,.5,0,1.2,0c.7,0,1.2,0,1.2,0c0,0,-.5,0,-1.2,0Z" class="g2_6"/>
<path fill-rule="evenodd" d="M157,264.7c-.7,0,-1.2,0,-1.2,.1c0,0,.5,0,1.2,0c.7,0,1.2,0,1.2,0c0,-.1,-.5,-.1,-1.2,-.1Z" class="g2_6"/>
<path fill-rule="evenodd" d="M157,265c-.7,0,-1.2,0,-1.2,0c0,.1,.5,.1,1.2,.1c.7,0,1.2,0,1.2,-.1c0,0,-.5,0,-1.2,0Z" class="g2_6"/>
<path fill-rule="evenodd" d="M160.6,278h.7V265.4h-.7V278Z" class="g0_6"/>
<image x="157" y="259" width="7" height="8" xlink:href="6/shade/29.png"/>
<image x="157" y="260" width="7" height="6" xlink:href="6/shade/30.png"/>
<path fill-rule="evenodd" d="M160.9,263.9c.5,0,.8,-.4,.8,-.8c0,-.4,-.3,-.8,-.8,-.8c-.4,0,-.7,.4,-.7,.8c0,.4,.3,.8,.7,.8Z" class="g8_6"/>
<path fill-rule="evenodd" d="M161.2,261.8c-.9,0,-1.6,0,-1.6,0c0,0,.7,.1,1.6,.1c.9,0,1.6,-.1,1.6,-.1c0,0,-.7,0,-1.6,0Z" class="g2_6"/>
<path fill-rule="evenodd" d="M161.2,262.1c-.9,0,-1.6,0,-1.6,.1c0,0,.7,0,1.6,0c.9,0,1.6,0,1.6,0c0,-.1,-.7,-.1,-1.6,-.1Z" class="g2_6"/>
<path fill-rule="evenodd" d="M161.2,262.5c-.9,0,-1.6,0,-1.6,0c0,0,.7,.1,1.6,.1c.9,0,1.6,-.1,1.6,-.1c0,0,-.7,0,-1.6,0Z" class="g2_6"/>
<path fill-rule="evenodd" d="M161.2,262.8c-.9,0,-1.6,0,-1.6,.1c0,0,.7,0,1.6,0c.9,0,1.6,0,1.6,0c0,-.1,-.7,-.1,-1.6,-.1Z" class="g2_6"/>
<path fill-rule="evenodd" d="M161.2,263.2c-.9,0,-1.6,0,-1.6,0c0,.1,.7,.1,1.6,.1c.9,0,1.6,0,1.6,-.1c0,0,-.7,0,-1.6,0Z" class="g2_6"/>
<path fill-rule="evenodd" d="M161.2,263.5c-.9,0,-1.6,.1,-1.6,.1c0,0,.7,0,1.6,0c.9,0,1.6,0,1.6,0c0,0,-.7,-.1,-1.6,-.1Z" class="g2_6"/>
<path fill-rule="evenodd" d="M161.2,263.9c-.9,0,-1.6,0,-1.6,0c0,.1,.7,.1,1.6,.1c.9,0,1.6,0,1.6,-.1c0,0,-.7,0,-1.6,0Z" class="g2_6"/>
<path fill-rule="evenodd" d="M161.2,264.2c-.9,0,-1.6,.1,-1.6,.1c0,0,.7,0,1.6,0c.9,0,1.6,0,1.6,0c0,0,-.7,-.1,-1.6,-.1Z" class="g2_6"/>
<path fill-rule="evenodd" d="M167.1,282.1h1.1V264.7h-1.1v17.4Z" class="g0_6"/>
<image x="163" y="257" width="10" height="10" xlink:href="6/shade/31.png"/>
<image x="163" y="258" width="10" height="7" xlink:href="6/shade/32.png"/>
<path fill-rule="evenodd" d="M167.6,262.5c.6,0,1.1,-.5,1.1,-1.1c0,-.6,-.5,-1.1,-1.1,-1.1c-.6,0,-1,.5,-1,1.1c0,.6,.4,1.1,1,1.1Z" class="g9_6"/>
<path fill-rule="evenodd" d="M168,259.6c-1.3,0,-2.3,0,-2.3,0c0,.1,1,.1,2.3,.1c1.2,0,2.2,0,2.2,-.1c0,0,-1,0,-2.2,0Z" class="g2_6"/>
<path fill-rule="evenodd" d="M168,260.1c-1.3,0,-2.3,0,-2.3,0c0,.1,1,.1,2.3,.1c1.2,0,2.2,0,2.2,-.1c0,0,-1,0,-2.2,0Z" class="g2_6"/>
<path fill-rule="evenodd" d="M168,260.5c-1.3,0,-2.3,.1,-2.3,.1c0,.1,1,.1,2.3,.1c1.2,0,2.2,0,2.2,-.1c0,0,-1,-.1,-2.2,-.1Z" class="g2_6"/>
<path fill-rule="evenodd" d="M168,261c-1.3,0,-2.3,.1,-2.3,.1c0,0,1,.1,2.3,.1c1.2,0,2.2,-.1,2.2,-.1c0,0,-1,-.1,-2.2,-.1Z" class="g2_6"/>
<path fill-rule="evenodd" d="M168,261.5c-1.3,0,-2.3,.1,-2.3,.1c0,0,1,.1,2.3,.1c1.2,0,2.2,-.1,2.2,-.1c0,0,-1,-.1,-2.2,-.1Z" class="g2_6"/>
<path fill-rule="evenodd" d="M168,262c-1.3,0,-2.3,0,-2.3,.1c0,0,1,.1,2.3,.1c1.2,0,2.2,-.1,2.2,-.1c0,-.1,-1,-.1,-2.2,-.1Z" class="g2_6"/>
<path fill-rule="evenodd" d="M168,262.5c-1.3,0,-2.3,0,-2.3,.1c0,0,1,.1,2.3,.1c1.2,0,2.2,-.1,2.2,-.1c0,-.1,-1,-.1,-2.2,-.1Z" class="g2_6"/>
<path fill-rule="evenodd" d="M168,263c-1.3,0,-2.3,0,-2.3,.1c0,0,1,0,2.3,0c1.2,0,2.2,0,2.2,0c0,-.1,-1,-.1,-2.2,-.1Z" class="g2_6"/>
<g clip-path="url(#c0_6)">
<path fill-rule="evenodd" d="M186.2,294.1h1.9V262.4h-1.9v31.7Z" class="g0_6"/>
</g>
<image x="180" y="249" width="16" height="15" xlink:href="6/shade/33.png"/>
<image x="180" y="252" width="16" height="10" xlink:href="6/shade/34.png"/>
<path fill-rule="evenodd" d="M187.1,258.4c1.1,0,2,-.9,2,-1.9c0,-1.1,-.9,-2,-2,-2c-1,0,-1.9,.9,-1.9,2c0,1,.9,1.9,1.9,1.9Z" class="ga_6"/>
<path fill-rule="evenodd" d="M187.7,253.1c-2.2,0,-4,.1,-4,.2c0,.1,1.8,.1,4,.1c2.3,0,4.1,0,4.1,-.1c0,-.1,-1.8,-.2,-4.1,-.2Z" class="g2_6"/>
<path fill-rule="evenodd" d="M187.7,254c-2.2,0,-4,.1,-4,.2c0,.1,1.8,.1,4,.1c2.3,0,4.1,0,4.1,-.1c0,-.1,-1.8,-.2,-4.1,-.2Z" class="g2_6"/>
<path fill-rule="evenodd" d="M187.7,254.9c-2.2,0,-4,.1,-4,.2c0,0,1.8,.1,4,.1c2.3,0,4.1,-.1,4.1,-.1c0,-.1,-1.8,-.2,-4.1,-.2Z" class="g2_6"/>
<path fill-rule="evenodd" d="M187.7,255.8c-2.2,0,-4,.1,-4,.1c0,.1,1.8,.2,4,.2c2.3,0,4.1,-.1,4.1,-.2c0,0,-1.8,-.1,-4.1,-.1Z" class="g2_6"/>
<path fill-rule="evenodd" d="M187.7,256.7c-2.2,0,-4,.1,-4,.1c0,.1,1.8,.2,4,.2c2.3,0,4.1,-.1,4.1,-.2c0,0,-1.8,-.1,-4.1,-.1Z" class="g2_6"/>
<path fill-rule="evenodd" d="M187.7,257.6c-2.2,0,-4,0,-4,.1c0,.1,1.8,.2,4,.2c2.3,0,4.1,-.1,4.1,-.2c0,-.1,-1.8,-.1,-4.1,-.1Z" class="g2_6"/>
<path fill-rule="evenodd" d="M187.7,258.5c-2.2,0,-4,0,-4,.1c0,.1,1.8,.1,4,.1c2.3,0,4.1,0,4.1,-.1c0,-.1,-1.8,-.1,-4.1,-.1Z" class="g2_6"/>
<path fill-rule="evenodd" d="M187.7,259.4c-2.2,0,-4,0,-4,.1c0,.1,1.8,.1,4,.1c2.3,0,4.1,0,4.1,-.1c0,-.1,-1.8,-.1,-4.1,-.1Z" class="g2_6"/>
<path fill-rule="evenodd" d="M117.3,269.2h.1v-1.9h-.1v1.9Z" class="g0_6"/>
<path fill-rule="evenodd" d="M117.3,267.3c-.2,0,-.4,-.2,-.4,-.4c0,-.2,.2,-.4,.4,-.4c.2,0,.4,.2,.4,.4c0,.2,-.2,.4,-.4,.4Z" class="g2_6"/>
<path fill-rule="evenodd" d="M117.6,266.7H117c0,.1,-.1,.1,-.1,.2c0,.1,.1,.2,.1,.2h.6c.1,0,.1,-.1,.1,-.2q0,-.1,-.1,-.2Z" class="g2_6"/>
<path fill-rule="evenodd" d="M117.3,267c0,0,-.1,0,-.1,-.1c0,0,.1,-.1,.1,-.1c.1,0,.1,.1,.1,.1q0,.1,-.1,.1Z" class="g2_6"/>
<path fill-rule="evenodd" d="M117.3,266.7c.1,0,.2,0,.2,0c0,0,-.1,0,-.2,0c-.2,0,-.3,0,-.3,0c0,0,.1,0,.3,0Z" class="g2_6"/>
<path fill-rule="evenodd" d="M117.3,266.8c.1,0,.2,0,.2,0c0,0,-.1,0,-.2,0c-.2,0,-.3,0,-.3,0c0,0,.1,0,.3,0Z" class="g2_6"/>
<path fill-rule="evenodd" d="M117.3,266.8c.1,0,.2,0,.2,0c0,0,-.1,0,-.2,0c-.2,0,-.3,0,-.3,0c0,0,.1,0,.3,0Z" class="g2_6"/>
<path fill-rule="evenodd" d="M117.3,266.9c.1,0,.2,0,.2,0c0,0,-.1,0,-.2,0c-.2,0,-.3,0,-.3,0c0,0,.1,0,.3,0Z" class="g2_6"/>
<path fill-rule="evenodd" d="M117.3,266.9c.1,0,.2,0,.2,0c0,0,-.1,0,-.2,0c-.2,0,-.3,0,-.3,0c0,0,.1,0,.3,0Z" class="g2_6"/>
<path fill-rule="evenodd" d="M117.3,267c.1,0,.2,0,.2,0c0,0,-.1,0,-.2,0c-.2,0,-.3,0,-.3,0c0,0,.1,0,.3,0Z" class="g2_6"/>
<path fill-rule="evenodd" d="M117.3,267c.1,0,.2,0,.2,.1c0,0,-.1,0,-.2,0c-.2,0,-.3,0,-.3,0c0,-.1,.1,-.1,.3,-.1Z" class="g2_6"/>
<path fill-rule="evenodd" d="M117.3,267.1c.1,0,.2,0,.2,0c0,0,-.1,0,-.2,0c-.2,0,-.3,0,-.3,0c0,0,.1,0,.3,0Z" class="g2_6"/>
<path fill-rule="evenodd" d="M114.2,270.1h.2v-3h-.2v3Z" class="g0_6"/>
<image x="112" y="265" width="5" height="4" xlink:href="6/shade/35.png"/>
<image x="112" y="265" width="5" height="3" xlink:href="6/shade/36.png"/>
<path fill-rule="evenodd" d="M114.3,266.7q-.1,0,-.1,-.1c0,-.1,0,-.2,.1,-.2c.1,0,.2,.1,.2,.2c0,.1,-.1,.1,-.2,.1Z" class="g3_6"/>
<path fill-rule="evenodd" d="M114.3,266.2c.2,0,.4,.1,.4,.1c0,0,-.2,0,-.4,0c-.2,0,-.4,0,-.4,0c0,0,.2,-.1,.4,-.1Z" class="g2_6"/>
<path fill-rule="evenodd" d="M114.3,266.3c.2,0,.4,0,.4,.1c0,0,-.2,0,-.4,0c-.2,0,-.4,0,-.4,0c0,-.1,.2,-.1,.4,-.1Z" class="g2_6"/>
<path fill-rule="evenodd" d="M114.3,266.4c.2,0,.4,0,.4,0c0,0,-.2,0,-.4,0c-.2,0,-.4,0,-.4,0c0,0,.2,0,.4,0Z" class="g2_6"/>
<path fill-rule="evenodd" d="M114.3,266.5c.2,0,.4,0,.4,0c0,0,-.2,0,-.4,0c-.2,0,-.4,0,-.4,0c0,0,.2,0,.4,0Z" class="g2_6"/>
<path fill-rule="evenodd" d="M114.3,266.6c.2,0,.4,0,.4,0c0,0,-.2,0,-.4,0c-.2,0,-.4,0,-.4,0c0,0,.2,0,.4,0Z" class="g2_6"/>
<path fill-rule="evenodd" d="M114.3,266.7c.2,0,.4,0,.4,0c0,0,-.2,0,-.4,0c-.2,0,-.4,0,-.4,0c0,0,.2,0,.4,0Z" class="g2_6"/>
<path fill-rule="evenodd" d="M114.3,266.7c.2,0,.4,0,.4,.1c0,0,-.2,0,-.4,0c-.2,0,-.4,0,-.4,0c0,-.1,.2,-.1,.4,-.1Z" class="g2_6"/>
<path fill-rule="evenodd" d="M114.3,266.8c.2,0,.4,0,.4,0c0,.1,-.2,.1,-.4,.1c-.2,0,-.4,0,-.4,-.1c0,0,.2,0,.4,0Z" class="g2_6"/>
<path fill-rule="evenodd" d="M110.8,271.1h.2v-4.2h-.2v4.2Z" class="g0_6"/>
<image x="109" y="264" width="5" height="4" xlink:href="6/shade/37.png"/>
<image x="109" y="264" width="5" height="3" xlink:href="6/shade/38.png"/>
<path fill-rule="evenodd" d="M110.9,266.4c-.1,0,-.2,-.1,-.2,-.3c0,-.1,.1,-.2,.2,-.2c.2,0,.3,.1,.3,.2c0,.2,-.1,.3,-.3,.3Z" class="g4_6"/>
<path fill-rule="evenodd" d="M110.8,265.7c.3,0,.6,0,.6,0c0,0,-.3,0,-.6,0c-.3,0,-.5,0,-.5,0c0,0,.2,0,.5,0Z" class="g2_6"/>
<path fill-rule="evenodd" d="M110.8,265.8c.3,0,.6,0,.6,0c0,0,-.3,.1,-.6,.1c-.3,0,-.5,-.1,-.5,-.1c0,0,.2,0,.5,0Z" class="g2_6"/>
<path fill-rule="evenodd" d="M110.8,265.9c.3,0,.6,0,.6,.1c0,0,-.3,0,-.6,0c-.3,0,-.5,0,-.5,0c0,-.1,.2,-.1,.5,-.1Z" class="g2_6"/>
<path fill-rule="evenodd" d="M110.8,266c.3,0,.6,.1,.6,.1c0,0,-.3,0,-.6,0c-.3,0,-.5,0,-.5,0c0,0,.2,-.1,.5,-.1Z" class="g2_6"/>
<path fill-rule="evenodd" d="M110.8,266.2c.3,0,.6,0,.6,0c0,0,-.3,0,-.6,0c-.3,0,-.5,0,-.5,0c0,0,.2,0,.5,0Z" class="g2_6"/>
<path fill-rule="evenodd" d="M110.8,266.3c.3,0,.6,0,.6,0c0,0,-.3,0,-.6,0c-.3,0,-.5,0,-.5,0c0,0,.2,0,.5,0Z" class="g2_6"/>
<path fill-rule="evenodd" d="M110.8,266.4c.3,0,.6,0,.6,0c0,0,-.3,0,-.6,0c-.3,0,-.5,0,-.5,0c0,0,.2,0,.5,0Z" class="g2_6"/>
<path fill-rule="evenodd" d="M110.8,266.5c.3,0,.6,0,.6,0c0,.1,-.3,.1,-.6,.1c-.3,0,-.5,0,-.5,-.1c0,0,.2,0,.5,0Z" class="g2_6"/>
<path fill-rule="evenodd" d="M106.7,272.3h.4v-5.6h-.4v5.6Z" class="g0_6"/>
<image x="105" y="263" width="5" height="4" xlink:href="6/shade/39.png"/>
<image x="105" y="264" width="5" height="4" xlink:href="6/shade/40.png"/>
<path fill-rule="evenodd" d="M106.9,266c-.2,0,-.4,-.2,-.4,-.4c0,-.1,.2,-.3,.4,-.3c.2,0,.3,.2,.3,.3c0,.2,-.1,.4,-.3,.4Z" class="g5_6"/>
<path fill-rule="evenodd" d="M106.8,265.1c.4,0,.7,0,.7,0c0,0,-.3,0,-.7,0c-.4,0,-.7,0,-.7,0c0,0,.3,0,.7,0Z" class="g2_6"/>
<path fill-rule="evenodd" d="M106.8,265.2c.4,0,.7,0,.7,0c0,.1,-.3,.1,-.7,.1c-.4,0,-.7,0,-.7,-.1c0,0,.3,0,.7,0Z" class="g2_6"/>
<path fill-rule="evenodd" d="M106.8,265.4c.4,0,.7,0,.7,0c0,0,-.3,0,-.7,0c-.4,0,-.7,0,-.7,0c0,0,.3,0,.7,0Z" class="g2_6"/>
<path fill-rule="evenodd" d="M106.8,265.5c.4,0,.7,0,.7,.1c0,0,-.3,0,-.7,0c-.4,0,-.7,0,-.7,0c0,-.1,.3,-.1,.7,-.1Z" class="g2_6"/>
<path fill-rule="evenodd" d="M106.8,265.7c.4,0,.7,0,.7,0c0,0,-.3,0,-.7,0c-.4,0,-.7,0,-.7,0c0,0,.3,0,.7,0Z" class="g2_6"/>
<path fill-rule="evenodd" d="M106.8,265.8c.4,0,.7,.1,.7,.1c0,0,-.3,0,-.7,0c-.4,0,-.7,0,-.7,0c0,0,.3,-.1,.7,-.1Z" class="g2_6"/>
<path fill-rule="evenodd" d="M106.8,266c.4,0,.7,0,.7,0c0,0,-.3,0,-.7,0c-.4,0,-.7,0,-.7,0c0,0,.3,0,.7,0Z" class="g2_6"/>
<path fill-rule="evenodd" d="M106.8,266.2c.4,0,.7,0,.7,0c0,0,-.3,0,-.7,0c-.4,0,-.7,0,-.7,0c0,0,.3,0,.7,0Z" class="g2_6"/>
<path fill-rule="evenodd" d="M101.8,273.8h.4v-7.4h-.4v7.4Z" class="g0_6"/>
<image x="99" y="262" width="5" height="6" xlink:href="6/shade/41.png"/>
<image x="99" y="263" width="5" height="4" xlink:href="6/shade/42.png"/>
<path fill-rule="evenodd" d="M102,265.5c-.2,0,-.4,-.2,-.4,-.4c0,-.3,.2,-.5,.4,-.5c.3,0,.5,.2,.5,.5c0,.2,-.2,.4,-.5,.4Z" class="g6_6"/>
<path fill-rule="evenodd" d="M101.9,264.3c.5,0,.9,0,.9,0c0,0,-.4,.1,-.9,.1c-.6,0,-1,-.1,-1,-.1c0,0,.4,0,1,0Z" class="g2_6"/>
<path fill-rule="evenodd" d="M101.9,264.5c.5,0,.9,0,.9,0c0,0,-.4,0,-.9,0c-.6,0,-1,0,-1,0c0,0,.4,0,1,0Z" class="g2_6"/>
<path fill-rule="evenodd" d="M101.9,264.7c.5,0,.9,0,.9,0c0,0,-.4,.1,-.9,.1c-.6,0,-1,-.1,-1,-.1c0,0,.4,0,1,0Z" class="g2_6"/>
<path fill-rule="evenodd" d="M101.9,264.9c.5,0,.9,0,.9,0c0,0,-.4,.1,-.9,.1c-.6,0,-1,-.1,-1,-.1c0,0,.4,0,1,0Z" class="g2_6"/>
<path fill-rule="evenodd" d="M101.9,265.1c.5,0,.9,0,.9,0c0,.1,-.4,.1,-.9,.1c-.6,0,-1,0,-1,-.1c0,0,.4,0,1,0Z" class="g2_6"/>
<path fill-rule="evenodd" d="M101.9,265.3c.5,0,.9,0,.9,0c0,.1,-.4,.1,-.9,.1c-.6,0,-1,0,-1,-.1c0,0,.4,0,1,0Z" class="g2_6"/>
<path fill-rule="evenodd" d="M101.9,265.5c.5,0,.9,0,.9,0c0,.1,-.4,.1,-.9,.1c-.6,0,-1,0,-1,-.1c0,0,.4,0,1,0Z" class="g2_6"/>
<path fill-rule="evenodd" d="M101.9,265.7c.5,0,.9,0,.9,.1c0,0,-.4,0,-.9,0c-.6,0,-1,0,-1,0c0,-.1,.4,-.1,1,-.1Z" class="g2_6"/>
<path fill-rule="evenodd" d="M95.5,275.6h.6v-9.5h-.6v9.5Z" class="g0_6"/>
<image x="93" y="261" width="7" height="7" xlink:href="6/shade/43.png"/>
<image x="93" y="262" width="7" height="4" xlink:href="6/shade/44.png"/>
<path fill-rule="evenodd" d="M95.8,264.9c-.3,0,-.6,-.3,-.6,-.6c0,-.3,.3,-.6,.6,-.6c.3,0,.6,.3,.6,.6c0,.3,-.3,.6,-.6,.6Z" class="g7_6"/>
<path fill-rule="evenodd" d="M95.6,263.3c.7,0,1.2,0,1.2,0c0,.1,-.5,.1,-1.2,.1c-.7,0,-1.2,0,-1.2,-.1c0,0,.5,0,1.2,0Z" class="g2_6"/>
<path fill-rule="evenodd" d="M95.6,263.6c.7,0,1.2,0,1.2,0c0,0,-.5,0,-1.2,0c-.7,0,-1.2,0,-1.2,0c0,0,.5,0,1.2,0Z" class="g2_6"/>
<path fill-rule="evenodd" d="M95.6,263.8c.7,0,1.2,0,1.2,.1c0,0,-.5,0,-1.2,0c-.7,0,-1.2,0,-1.2,0c0,-.1,.5,-.1,1.2,-.1Z" class="g2_6"/>
<path fill-rule="evenodd" d="M95.6,264.1c.7,0,1.2,0,1.2,0c0,.1,-.5,.1,-1.2,.1c-.7,0,-1.2,0,-1.2,-.1c0,0,.5,0,1.2,0Z" class="g2_6"/>
<path fill-rule="evenodd" d="M95.6,264.4c.7,0,1.2,0,1.2,0c0,0,-.5,0,-1.2,0c-.7,0,-1.2,0,-1.2,0c0,0,.5,0,1.2,0Z" class="g2_6"/>
<path fill-rule="evenodd" d="M95.6,264.6c.7,0,1.2,0,1.2,.1c0,0,-.5,0,-1.2,0c-.7,0,-1.2,0,-1.2,0c0,-.1,.5,-.1,1.2,-.1Z" class="g2_6"/>
<path fill-rule="evenodd" d="M95.6,264.9c.7,0,1.2,0,1.2,0c0,.1,-.5,.1,-1.2,.1c-.7,0,-1.2,0,-1.2,-.1c0,0,.5,0,1.2,0Z" class="g2_6"/>
<path fill-rule="evenodd" d="M95.6,265.2c.7,0,1.2,0,1.2,0c0,0,-.5,0,-1.2,0c-.7,0,-1.2,0,-1.2,0c0,0,.5,0,1.2,0Z" class="g2_6"/>
<path fill-rule="evenodd" d="M86.9,278.2h.7V265.6h-.7v12.6Z" class="g0_6"/>
<image x="83" y="259" width="8" height="8" xlink:href="6/shade/45.png"/>
<image x="83" y="261" width="8" height="6" xlink:href="6/shade/46.png"/>
<path fill-rule="evenodd" d="M87.2,264c-.4,0,-.7,-.3,-.7,-.7c0,-.5,.3,-.8,.7,-.8c.5,0,.8,.3,.8,.8c0,.4,-.3,.7,-.8,.7Z" class="g8_6"/>
<path fill-rule="evenodd" d="M87,261.9c.9,0,1.6,.1,1.6,.1c0,0,-.7,0,-1.6,0c-.9,0,-1.6,0,-1.6,0c0,0,.7,-.1,1.6,-.1Z" class="g2_6"/>
<path fill-rule="evenodd" d="M87,262.3c.9,0,1.6,0,1.6,0c0,.1,-.7,.1,-1.6,.1c-.9,0,-1.6,0,-1.6,-.1c0,0,.7,0,1.6,0Z" class="g2_6"/>
<path fill-rule="evenodd" d="M87,262.6c.9,0,1.6,.1,1.6,.1c0,0,-.7,0,-1.6,0c-.9,0,-1.6,0,-1.6,0c0,0,.7,-.1,1.6,-.1Z" class="g2_6"/>
<path fill-rule="evenodd" d="M87,263c.9,0,1.6,0,1.6,0c0,.1,-.7,.1,-1.6,.1c-.9,0,-1.6,0,-1.6,-.1c0,0,.7,0,1.6,0Z" class="g2_6"/>
<path fill-rule="evenodd" d="M87,263.3c.9,0,1.6,.1,1.6,.1c0,0,-.7,.1,-1.6,.1c-.9,0,-1.6,-.1,-1.6,-.1c0,0,.7,-.1,1.6,-.1Z" class="g2_6"/>
<path fill-rule="evenodd" d="M87,263.7c.9,0,1.6,0,1.6,0c0,.1,-.7,.1,-1.6,.1c-.9,0,-1.6,0,-1.6,-.1c0,0,.7,0,1.6,0Z" class="g2_6"/>
<path fill-rule="evenodd" d="M87,264c.9,0,1.6,.1,1.6,.1c0,0,-.7,.1,-1.6,.1c-.9,0,-1.6,-.1,-1.6,-.1c0,0,.7,-.1,1.6,-.1Z" class="g2_6"/>
<path fill-rule="evenodd" d="M87,264.4c.9,0,1.6,0,1.6,0c0,.1,-.7,.1,-1.6,.1c-.9,0,-1.6,0,-1.6,-.1c0,0,.7,0,1.6,0Z" class="g2_6"/>
<path fill-rule="evenodd" d="M72.9,282.3h1V264.8h-1v17.5Z" class="g0_6"/>
<image x="69" y="257" width="9" height="10" xlink:href="6/shade/47.png"/>
<image x="69" y="258" width="9" height="7" xlink:href="6/shade/48.png"/>
<path fill-rule="evenodd" d="M73.4,262.6c-.6,0,-1.1,-.4,-1.1,-1c0,-.6,.5,-1.1,1.1,-1.1c.6,0,1.1,.5,1.1,1.1c0,.6,-.5,1,-1.1,1Z" class="g9_6"/>
<path fill-rule="evenodd" d="M73.1,259.7c1.2,0,2.2,.1,2.2,.1c0,0,-1,.1,-2.2,.1c-1.3,0,-2.3,-.1,-2.3,-.1c0,0,1,-.1,2.3,-.1Z" class="g2_6"/>
<path fill-rule="evenodd" d="M73.1,260.2c1.2,0,2.2,0,2.2,.1c0,0,-1,.1,-2.2,.1c-1.3,0,-2.3,-.1,-2.3,-.1c0,-.1,1,-.1,2.3,-.1Z" class="g2_6"/>
<path fill-rule="evenodd" d="M73.1,260.7c1.2,0,2.2,0,2.2,.1c0,0,-1,.1,-2.2,.1c-1.3,0,-2.3,-.1,-2.3,-.1c0,-.1,1,-.1,2.3,-.1Z" class="g2_6"/>
<path fill-rule="evenodd" d="M73.1,261.2c1.2,0,2.2,0,2.2,.1c0,0,-1,0,-2.2,0c-1.3,0,-2.3,0,-2.3,0c0,-.1,1,-.1,2.3,-.1Z" class="g2_6"/>
<path fill-rule="evenodd" d="M73.1,261.7c1.2,0,2.2,0,2.2,.1c0,0,-1,0,-2.2,0c-1.3,0,-2.3,0,-2.3,0c0,-.1,1,-.1,2.3,-.1Z" class="g2_6"/>
<path fill-rule="evenodd" d="M73.1,262.2c1.2,0,2.2,0,2.2,0c0,.1,-1,.1,-2.2,.1c-1.3,0,-2.3,0,-2.3,-.1c0,0,1,0,2.3,0Z" class="g2_6"/>
<path fill-rule="evenodd" d="M73.1,262.7c1.2,0,2.2,0,2.2,0c0,.1,-1,.1,-2.2,.1c-1.3,0,-2.3,0,-2.3,-.1c0,0,1,0,2.3,0Z" class="g2_6"/>
<path fill-rule="evenodd" d="M73.1,263.1c1.2,0,2.2,.1,2.2,.1c0,.1,-1,.1,-2.2,.1c-1.3,0,-2.3,0,-2.3,-.1c0,0,1,-.1,2.3,-.1Z" class="g2_6"/>
<path fill-rule="evenodd" d="M135.3,269.2h.1v-1.9h-.1v1.9Z" class="g0_6"/>
<path fill-rule="evenodd" d="M135.3,267.3c-.2,0,-.3,-.2,-.3,-.4c0,-.2,.1,-.4,.3,-.4c.3,0,.4,.2,.4,.4c0,.2,-.1,.4,-.4,.4Z" class="g2_6"/>
<path fill-rule="evenodd" d="M135.7,266.7H135q0,.1,0,.2c0,.1,0,.2,0,.2h.7c0,0,0,-.1,0,-.2q0,-.1,0,-.2Z" class="g2_6"/>
<path fill-rule="evenodd" d="M135.3,267c0,0,-.1,0,-.1,-.1c0,0,.1,-.1,.1,-.1c.1,0,.2,.1,.2,.1c0,.1,-.1,.1,-.2,.1Z" class="g2_6"/>
<path fill-rule="evenodd" d="M135.3,266.7c.1,0,.3,0,.3,0c0,0,-.2,0,-.3,0c-.1,0,-.2,0,-.2,0c0,0,.1,0,.2,0Z" class="g2_6"/>
<path fill-rule="evenodd" d="M135.3,266.8c.1,0,.3,0,.3,0c0,0,-.2,0,-.3,0c-.1,0,-.2,0,-.2,0c0,0,.1,0,.2,0Z" class="g2_6"/>
<path fill-rule="evenodd" d="M135.3,266.8c.1,0,.3,0,.3,0c0,0,-.2,0,-.3,0c-.1,0,-.2,0,-.2,0c0,0,.1,0,.2,0Z" class="g2_6"/>
<path fill-rule="evenodd" d="M135.3,266.9c.1,0,.3,0,.3,0c0,0,-.2,0,-.3,0c-.1,0,-.2,0,-.2,0c0,0,.1,0,.2,0Z" class="g2_6"/>
<path fill-rule="evenodd" d="M135.3,266.9c.1,0,.3,0,.3,0c0,0,-.2,0,-.3,0c-.1,0,-.2,0,-.2,0c0,0,.1,0,.2,0Z" class="g2_6"/>
<path fill-rule="evenodd" d="M135.3,267c.1,0,.3,0,.3,0c0,0,-.2,0,-.3,0c-.1,0,-.2,0,-.2,0c0,0,.1,0,.2,0Z" class="g2_6"/>
<path fill-rule="evenodd" d="M135.3,267c.1,0,.3,0,.3,.1c0,0,-.2,0,-.3,0c-.1,0,-.2,0,-.2,0c0,-.1,.1,-.1,.2,-.1Z" class="g2_6"/>
<path fill-rule="evenodd" d="M135.3,267.1c.1,0,.3,0,.3,0c0,0,-.2,0,-.3,0c-.1,0,-.2,0,-.2,0c0,0,.1,0,.2,0Z" class="g2_6"/>
<path fill-rule="evenodd" d="M133.8,270.1h.2v-3h-.2v3Z" class="g0_6"/>
<image x="132" y="265" width="4" height="4" xlink:href="6/shade/49.png"/>
<image x="132" y="265" width="4" height="3" xlink:href="6/shade/50.png"/>
<path fill-rule="evenodd" d="M133.9,266.7c-.1,0,-.2,0,-.2,-.1c0,-.1,.1,-.2,.2,-.2c.1,0,.2,.1,.2,.2c0,.1,-.1,.1,-.2,.1Z" class="g3_6"/>
<path fill-rule="evenodd" d="M133.8,266.2c.3,0,.4,.1,.4,.1c0,0,-.1,0,-.4,0c-.2,0,-.3,0,-.3,0c0,0,.1,-.1,.3,-.1Z" class="g2_6"/>
<path fill-rule="evenodd" d="M133.8,266.3c.3,0,.4,0,.4,.1c0,0,-.1,0,-.4,0c-.2,0,-.3,0,-.3,0c0,-.1,.1,-.1,.3,-.1Z" class="g2_6"/>
<path fill-rule="evenodd" d="M133.8,266.4c.3,0,.4,0,.4,0c0,0,-.1,0,-.4,0c-.2,0,-.3,0,-.3,0c0,0,.1,0,.3,0Z" class="g2_6"/>
<path fill-rule="evenodd" d="M133.8,266.5c.3,0,.4,0,.4,0c0,0,-.1,0,-.4,0c-.2,0,-.3,0,-.3,0c0,0,.1,0,.3,0Z" class="g2_6"/>
<path fill-rule="evenodd" d="M133.8,266.6c.3,0,.4,0,.4,0c0,0,-.1,0,-.4,0c-.2,0,-.3,0,-.3,0c0,0,.1,0,.3,0Z" class="g2_6"/>
<path fill-rule="evenodd" d="M133.8,266.7c.3,0,.4,0,.4,0c0,0,-.1,0,-.4,0c-.2,0,-.3,0,-.3,0c0,0,.1,0,.3,0Z" class="g2_6"/>
<path fill-rule="evenodd" d="M133.8,266.7c.3,0,.4,0,.4,.1c0,0,-.1,0,-.4,0c-.2,0,-.3,0,-.3,0c0,-.1,.1,-.1,.3,-.1Z" class="g2_6"/>
<path fill-rule="evenodd" d="M133.8,266.8c.3,0,.4,0,.4,0c0,.1,-.1,.1,-.4,.1c-.2,0,-.3,0,-.3,-.1c0,0,.1,0,.3,0Z" class="g2_6"/>
<path fill-rule="evenodd" d="M132.1,271.1h.3v-4.2h-.3v4.2Z" class="g0_6"/>
<image x="130" y="264" width="4" height="4" xlink:href="6/shade/51.png"/>
<image x="130" y="264" width="4" height="3" xlink:href="6/shade/52.png"/>
<path fill-rule="evenodd" d="M132.2,266.4c-.1,0,-.2,-.1,-.2,-.3c0,-.1,.1,-.2,.2,-.2c.2,0,.3,.1,.3,.2c0,.2,-.1,.3,-.3,.3Z" class="g4_6"/>
<path fill-rule="evenodd" d="M132.2,265.7c.3,0,.5,0,.5,0c0,0,-.2,0,-.5,0c-.3,0,-.6,0,-.6,0c0,0,.3,0,.6,0Z" class="g2_6"/>
<path fill-rule="evenodd" d="M132.2,265.8c.3,0,.5,0,.5,0c0,0,-.2,.1,-.5,.1c-.3,0,-.6,-.1,-.6,-.1c0,0,.3,0,.6,0Z" class="g2_6"/>
<path fill-rule="evenodd" d="M132.2,265.9c.3,0,.5,0,.5,.1c0,0,-.2,0,-.5,0c-.3,0,-.6,0,-.6,0c0,-.1,.3,-.1,.6,-.1Z" class="g2_6"/>
<path fill-rule="evenodd" d="M132.2,266c.3,0,.5,.1,.5,.1c0,0,-.2,0,-.5,0c-.3,0,-.6,0,-.6,0c0,0,.3,-.1,.6,-.1Z" class="g2_6"/>
<path fill-rule="evenodd" d="M132.2,266.2c.3,0,.5,0,.5,0c0,0,-.2,0,-.5,0c-.3,0,-.6,0,-.6,0c0,0,.3,0,.6,0Z" class="g2_6"/>
<path fill-rule="evenodd" d="M132.2,266.3c.3,0,.5,0,.5,0c0,0,-.2,0,-.5,0c-.3,0,-.6,0,-.6,0c0,0,.3,0,.6,0Z" class="g2_6"/>
<path fill-rule="evenodd" d="M132.2,266.4c.3,0,.5,0,.5,0c0,0,-.2,0,-.5,0c-.3,0,-.6,0,-.6,0c0,0,.3,0,.6,0Z" class="g2_6"/>
<path fill-rule="evenodd" d="M132.2,266.5c.3,0,.5,0,.5,0c0,.1,-.2,.1,-.5,.1c-.3,0,-.6,0,-.6,-.1c0,0,.3,0,.6,0Z" class="g2_6"/>
<path fill-rule="evenodd" d="M130.1,272.3h.4v-5.6h-.4v5.6Z" class="g0_6"/>
<image x="128" y="263" width="4" height="4" xlink:href="6/shade/53.png"/>
<image x="128" y="264" width="4" height="4" xlink:href="6/shade/54.png"/>
<path fill-rule="evenodd" d="M130.3,266c-.2,0,-.3,-.2,-.3,-.4c0,-.1,.1,-.3,.3,-.3c.2,0,.3,.2,.3,.3c0,.2,-.1,.4,-.3,.4Z" class="g5_6"/>
<path fill-rule="evenodd" d="M130.2,265.1c.4,0,.7,0,.7,0c0,0,-.3,0,-.7,0c-.4,0,-.7,0,-.7,0c0,0,.3,0,.7,0Z" class="g2_6"/>
<path fill-rule="evenodd" d="M130.2,265.2c.4,0,.7,0,.7,0c0,.1,-.3,.1,-.7,.1c-.4,0,-.7,0,-.7,-.1c0,0,.3,0,.7,0Z" class="g2_6"/>
<path fill-rule="evenodd" d="M130.2,265.4c.4,0,.7,0,.7,0c0,0,-.3,0,-.7,0c-.4,0,-.7,0,-.7,0c0,0,.3,0,.7,0Z" class="g2_6"/>
<path fill-rule="evenodd" d="M130.2,265.5c.4,0,.7,0,.7,.1c0,0,-.3,0,-.7,0c-.4,0,-.7,0,-.7,0c0,-.1,.3,-.1,.7,-.1Z" class="g2_6"/>
<path fill-rule="evenodd" d="M130.2,265.7c.4,0,.7,0,.7,0c0,0,-.3,0,-.7,0c-.4,0,-.7,0,-.7,0c0,0,.3,0,.7,0Z" class="g2_6"/>
<path fill-rule="evenodd" d="M130.2,265.8c.4,0,.7,.1,.7,.1c0,0,-.3,0,-.7,0c-.4,0,-.7,0,-.7,0c0,0,.3,-.1,.7,-.1Z" class="g2_6"/>
<path fill-rule="evenodd" d="M130.2,266c.4,0,.7,0,.7,0c0,0,-.3,0,-.7,0c-.4,0,-.7,0,-.7,0c0,0,.3,0,.7,0Z" class="g2_6"/>
<path fill-rule="evenodd" d="M130.2,266.2c.4,0,.7,0,.7,0c0,0,-.3,0,-.7,0c-.4,0,-.7,0,-.7,0c0,0,.3,0,.7,0Z" class="g2_6"/>
<path fill-rule="evenodd" d="M127.7,273.8h.5v-7.4h-.5v7.4Z" class="g0_6"/>
<image x="125" y="262" width="5" height="6" xlink:href="6/shade/55.png"/>
<image x="125" y="263" width="5" height="4" xlink:href="6/shade/56.png"/>
<path fill-rule="evenodd" d="M127.9,265.5c-.2,0,-.4,-.2,-.4,-.4c0,-.3,.2,-.5,.4,-.5c.3,0,.5,.2,.5,.5c0,.2,-.2,.4,-.5,.4Z" class="g6_6"/>
<path fill-rule="evenodd" d="M127.8,264.3c.5,0,.9,0,.9,0c0,0,-.4,.1,-.9,.1c-.5,0,-1,-.1,-1,-.1c0,0,.5,0,1,0Z" class="g2_6"/>
<path fill-rule="evenodd" d="M127.8,264.5c.5,0,.9,0,.9,0c0,0,-.4,0,-.9,0c-.5,0,-1,0,-1,0c0,0,.5,0,1,0Z" class="g2_6"/>
<path fill-rule="evenodd" d="M127.8,264.7c.5,0,.9,0,.9,0c0,0,-.4,.1,-.9,.1c-.5,0,-1,-.1,-1,-.1c0,0,.5,0,1,0Z" class="g2_6"/>
<path fill-rule="evenodd" d="M127.8,264.9c.5,0,.9,0,.9,0c0,0,-.4,.1,-.9,.1c-.5,0,-1,-.1,-1,-.1c0,0,.5,0,1,0Z" class="g2_6"/>
<path fill-rule="evenodd" d="M127.8,265.1c.5,0,.9,0,.9,0c0,.1,-.4,.1,-.9,.1c-.5,0,-1,0,-1,-.1c0,0,.5,0,1,0Z" class="g2_6"/>
<path fill-rule="evenodd" d="M127.8,265.3c.5,0,.9,0,.9,0c0,.1,-.4,.1,-.9,.1c-.5,0,-1,0,-1,-.1c0,0,.5,0,1,0Z" class="g2_6"/>
<path fill-rule="evenodd" d="M127.8,265.5c.5,0,.9,0,.9,0c0,.1,-.4,.1,-.9,.1c-.5,0,-1,0,-1,-.1c0,0,.5,0,1,0Z" class="g2_6"/>
<path fill-rule="evenodd" d="M127.8,265.7c.5,0,.9,0,.9,.1c0,0,-.4,0,-.9,0c-.5,0,-1,0,-1,0c0,-.1,.5,-.1,1,-.1Z" class="g2_6"/>
<path fill-rule="evenodd" d="M124.6,275.6h.6v-9.5h-.6v9.5Z" class="g0_6"/>
<image x="122" y="261" width="6" height="7" xlink:href="6/shade/57.png"/>
<image x="122" y="262" width="6" height="4" xlink:href="6/shade/58.png"/>
<path fill-rule="evenodd" d="M124.9,264.9c-.3,0,-.6,-.3,-.6,-.6c0,-.3,.3,-.6,.6,-.6c.3,0,.6,.3,.6,.6c0,.3,-.3,.6,-.6,.6Z" class="g7_6"/>
<path fill-rule="evenodd" d="M124.7,263.3c.7,0,1.3,0,1.3,0c0,.1,-.6,.1,-1.3,.1c-.6,0,-1.2,0,-1.2,-.1c0,0,.6,0,1.2,0Z" class="g2_6"/>
<path fill-rule="evenodd" d="M124.7,263.6c.7,0,1.3,0,1.3,0c0,0,-.6,0,-1.3,0c-.6,0,-1.2,0,-1.2,0c0,0,.6,0,1.2,0Z" class="g2_6"/>
<path fill-rule="evenodd" d="M124.7,263.8c.7,0,1.3,0,1.3,.1c0,0,-.6,0,-1.3,0c-.6,0,-1.2,0,-1.2,0c0,-.1,.6,-.1,1.2,-.1Z" class="g2_6"/>
<path fill-rule="evenodd" d="M124.7,264.1c.7,0,1.3,0,1.3,0c0,.1,-.6,.1,-1.3,.1c-.6,0,-1.2,0,-1.2,-.1c0,0,.6,0,1.2,0Z" class="g2_6"/>
<path fill-rule="evenodd" d="M124.7,264.4c.7,0,1.3,0,1.3,0c0,0,-.6,0,-1.3,0c-.6,0,-1.2,0,-1.2,0c0,0,.6,0,1.2,0Z" class="g2_6"/>
<path fill-rule="evenodd" d="M124.7,264.6c.7,0,1.3,0,1.3,.1c0,0,-.6,0,-1.3,0c-.6,0,-1.2,0,-1.2,0c0,-.1,.6,-.1,1.2,-.1Z" class="g2_6"/>
<path fill-rule="evenodd" d="M124.7,264.9c.7,0,1.3,0,1.3,0c0,.1,-.6,.1,-1.3,.1c-.6,0,-1.2,0,-1.2,-.1c0,0,.6,0,1.2,0Z" class="g2_6"/>
<path fill-rule="evenodd" d="M124.7,265.2c.7,0,1.3,0,1.3,0c0,0,-.6,0,-1.3,0c-.6,0,-1.2,0,-1.2,0c0,0,.6,0,1.2,0Z" class="g2_6"/>
<path fill-rule="evenodd" d="M120.4,278.2h.8V265.6h-.8v12.6Z" class="g0_6"/>
<image x="117" y="259" width="8" height="8" xlink:href="6/shade/59.png"/>
<image x="117" y="261" width="8" height="6" xlink:href="6/shade/60.png"/>
<path fill-rule="evenodd" d="M120.8,264c-.5,0,-.8,-.3,-.8,-.7c0,-.5,.3,-.8,.8,-.8c.4,0,.7,.3,.7,.8c0,.4,-.3,.7,-.7,.7Z" class="g8_6"/>
<path fill-rule="evenodd" d="M120.5,261.9c.9,0,1.6,.1,1.6,.1c0,0,-.7,0,-1.6,0c-.9,0,-1.6,0,-1.6,0c0,0,.7,-.1,1.6,-.1Z" class="g2_6"/>
<path fill-rule="evenodd" d="M120.5,262.3c.9,0,1.6,0,1.6,0c0,.1,-.7,.1,-1.6,.1c-.9,0,-1.6,0,-1.6,-.1c0,0,.7,0,1.6,0Z" class="g2_6"/>
<path fill-rule="evenodd" d="M120.5,262.6c.9,0,1.6,.1,1.6,.1c0,0,-.7,0,-1.6,0c-.9,0,-1.6,0,-1.6,0c0,0,.7,-.1,1.6,-.1Z" class="g2_6"/>
<path fill-rule="evenodd" d="M120.5,263c.9,0,1.6,0,1.6,0c0,.1,-.7,.1,-1.6,.1c-.9,0,-1.6,0,-1.6,-.1c0,0,.7,0,1.6,0Z" class="g2_6"/>
<path fill-rule="evenodd" d="M120.5,263.3c.9,0,1.6,.1,1.6,.1c0,0,-.7,.1,-1.6,.1c-.9,0,-1.6,-.1,-1.6,-.1c0,0,.7,-.1,1.6,-.1Z" class="g2_6"/>
<path fill-rule="evenodd" d="M120.5,263.7c.9,0,1.6,0,1.6,0c0,.1,-.7,.1,-1.6,.1c-.9,0,-1.6,0,-1.6,-.1c0,0,.7,0,1.6,0Z" class="g2_6"/>
<path fill-rule="evenodd" d="M120.5,264c.9,0,1.6,.1,1.6,.1c0,0,-.7,.1,-1.6,.1c-.9,0,-1.6,-.1,-1.6,-.1c0,0,.7,-.1,1.6,-.1Z" class="g2_6"/>
<path fill-rule="evenodd" d="M120.5,264.4c.9,0,1.6,0,1.6,0c0,.1,-.7,.1,-1.6,.1c-.9,0,-1.6,0,-1.6,-.1c0,0,.7,0,1.6,0Z" class="g2_6"/>
<path fill-rule="evenodd" d="M113.6,282.3h1V264.8h-1v17.5Z" class="g0_6"/>
<image x="109" y="257" width="10" height="10" xlink:href="6/shade/61.png"/>
<image x="109" y="258" width="10" height="7" xlink:href="6/shade/62.png"/>
<path fill-rule="evenodd" d="M114.1,262.6c-.6,0,-1.1,-.4,-1.1,-1c0,-.6,.5,-1.1,1.1,-1.1c.6,0,1.1,.5,1.1,1.1c0,.6,-.5,1,-1.1,1Z" class="g9_6"/>
<path fill-rule="evenodd" d="M113.7,259.7c1.3,0,2.3,.1,2.3,.1c0,0,-1,.1,-2.3,.1c-1.2,0,-2.2,-.1,-2.2,-.1c0,0,1,-.1,2.2,-.1Z" class="g2_6"/>
<path fill-rule="evenodd" d="M113.7,260.2c1.3,0,2.3,0,2.3,.1c0,0,-1,.1,-2.3,.1c-1.2,0,-2.2,-.1,-2.2,-.1c0,-.1,1,-.1,2.2,-.1Z" class="g2_6"/>
<path fill-rule="evenodd" d="M113.7,260.7c1.3,0,2.3,0,2.3,.1c0,0,-1,.1,-2.3,.1c-1.2,0,-2.2,-.1,-2.2,-.1c0,-.1,1,-.1,2.2,-.1Z" class="g2_6"/>
<path fill-rule="evenodd" d="M113.7,261.2c1.3,0,2.3,0,2.3,.1c0,0,-1,0,-2.3,0c-1.2,0,-2.2,0,-2.2,0c0,-.1,1,-.1,2.2,-.1Z" class="g2_6"/>
<path fill-rule="evenodd" d="M113.7,261.7c1.3,0,2.3,0,2.3,.1c0,0,-1,0,-2.3,0c-1.2,0,-2.2,0,-2.2,0c0,-.1,1,-.1,2.2,-.1Z" class="g2_6"/>
<path fill-rule="evenodd" d="M113.7,262.2c1.3,0,2.3,0,2.3,0c0,.1,-1,.1,-2.3,.1c-1.2,0,-2.2,0,-2.2,-.1c0,0,1,0,2.2,0Z" class="g2_6"/>
<path fill-rule="evenodd" d="M113.7,262.7c1.3,0,2.3,0,2.3,0c0,.1,-1,.1,-2.3,.1c-1.2,0,-2.2,0,-2.2,-.1c0,0,1,0,2.2,0Z" class="g2_6"/>
<path fill-rule="evenodd" d="M113.7,263.1c1.3,0,2.3,.1,2.3,.1c0,.1,-1,.1,-2.3,.1c-1.2,0,-2.2,0,-2.2,-.1c0,0,1,-.1,2.2,-.1Z" class="g2_6"/>
<g clip-path="url(#c0_6)">
<path fill-rule="evenodd" d="M93.6,294.3h1.9V262.6H93.6v31.7Z" class="g0_6"/>
</g>
<image x="87" y="249" width="15" height="16" xlink:href="6/shade/63.png"/>
<image x="87" y="252" width="15" height="10" xlink:href="6/shade/64.png"/>
<path fill-rule="evenodd" d="M94.6,258.6c-1.1,0,-2,-.9,-2,-2c0,-1,.9,-1.9,2,-1.9c1,0,1.9,.9,1.9,1.9c0,1.1,-.9,2,-1.9,2Z" class="ga_6"/>
<path fill-rule="evenodd" d="M94,253.3c2.2,0,4,.1,4,.1c0,.1,-1.8,.2,-4,.2c-2.3,0,-4.1,-.1,-4.1,-.2c0,0,1.8,-.1,4.1,-.1Z" class="g2_6"/>
<path fill-rule="evenodd" d="M94,254.2c2.2,0,4,.1,4,.1c0,.1,-1.8,.2,-4,.2c-2.3,0,-4.1,-.1,-4.1,-.2c0,0,1.8,-.1,4.1,-.1Z" class="g2_6"/>
<path fill-rule="evenodd" d="M94,255.1c2.2,0,4,0,4,.1c0,.1,-1.8,.2,-4,.2c-2.3,0,-4.1,-.1,-4.1,-.2c0,-.1,1.8,-.1,4.1,-.1Z" class="g2_6"/>
<path fill-rule="evenodd" d="M94,256c2.2,0,4,0,4,.1c0,.1,-1.8,.2,-4,.2c-2.3,0,-4.1,-.1,-4.1,-.2c0,-.1,1.8,-.1,4.1,-.1Z" class="g2_6"/>
<path fill-rule="evenodd" d="M94,256.8c2.2,0,4,.1,4,.2c0,.1,-1.8,.1,-4,.1c-2.3,0,-4.1,0,-4.1,-.1c0,-.1,1.8,-.2,4.1,-.2Z" class="g2_6"/>
<path fill-rule="evenodd" d="M94,257.8c2.2,0,4,0,4,.1c0,.1,-1.8,.1,-4,.1c-2.3,0,-4.1,0,-4.1,-.1c0,-.1,1.8,-.1,4.1,-.1Z" class="g2_6"/>
<path fill-rule="evenodd" d="M94,258.6c2.2,0,4,.1,4,.2c0,.1,-1.8,.1,-4,.1c-2.3,0,-4.1,0,-4.1,-.1c0,-.1,1.8,-.2,4.1,-.2Z" class="g2_6"/>
<path fill-rule="evenodd" d="M94,259.5c2.2,0,4,.1,4,.2c0,0,-1.8,.1,-4,.1c-2.3,0,-4.1,-.1,-4.1,-.1c0,-.1,1.8,-.2,4.1,-.2Z" class="g2_6"/>
<path d="M172.8,203.9c1.6,0,2.1,-1,3.4,-1.2c-.2,4.4,2.1,4.7,2.3,-.3l6.3,-.7c-.3,3.9,1.8,3.8,2.2,-.2l4.2,-.3c2.3,5,8.3,1.7,8.4,-2.8l19.9,-.1c.2,4.2,.5,1.6,1.1,-.3c.2,0,0,-.8,-.2,-.9c0,-.1,-1.2,-2.8,-1,-.8c.1,.9,-.9,.2,-1.6,.1c0,0,-18.3,-1.3,-19.8,-1.4c-1.4,-1.2,-3.4,-1.2,-5,-.3c-12.7,-.6,-25.5,-.7,-38.3,0c-6.6,.4,-6.1,-.2,-5.7,-4.5c.5,-5.6,-1.1,-12.4,-7.5,-13.7c0,-.9,-.4,-5.9,-1.3,-2.3c0,.8,0,1.5,-.1,2.3c-7.6,1.5,-8.1,10.8,-7,17c-1.5,1.9,-3.6,1.3,-6.2,1.2c-12.7,-.7,-25.5,-.6,-38.2,0c-1.2,-.7,-2.6,-.9,-3.9,-.4c0,0,-.9,.4,-1.2,.7c-1.4,.1,-19.8,1.4,-19.8,1.4c0,0,-.8,.1,-1.5,.3c.1,-2.7,-1.5,.6,-1.2,1.4c0,.1,1.1,4.9,1,1.7c0,-.5,0,-1,.1,-1.5l19.9,.1c.1,4.9,6.2,7.5,8.4,2.8c1.9,.1,4.1,.1,4.1,.4c.3,3.1,2.6,4.6,2.3,.1l6.3,.7c0,1.1,.1,3.6,1.4,3.7c1.8,0,-.2,-4.6,1.7,-3.1c.5,.4,1.8,.9,1.7,.8c3.6,.3,3.2,-.4,3.2,-.4c0,1.1,0,4,1.4,4.1c1.1,0,.9,-3,.9,-3.7l6.2,1.6c.1,2.4,2,4.1,2.2,.5l2.8,.4h-.4c-1.4,0,-.6,3.7,-.1,4.7c1.2,.6,1.5,-1.1,1.9,-1.1c0,1.2,1.1,-1,1.1,.6c2.2,2.2,2.4,-2.8,1.6,-3.7c2.4,.4,2.2,.1,2.2,2.2c0,2,-.6,3.2,1.2,3.2c.4,0,.7,-.3,.7,-.6c0,-.5,1.4,-.8,1.4,0c.7,.6,.1,.6,1.2,.6c1.1,0,.6,-4.5,.6,-5.3c3.1,.1,4.5,1.7,7.5,0c.7,0,1.3,0,1.9,0c0,1.4,-.7,6.1,1.4,5.3c.4,-.2,.9,-2.2,.9,-.9c.6,0,1,-.8,1,.3c0,.7,.8,.7,1.3,.6c1.1,-.2,.5,-4.2,.5,-5.1c.7,0,3.2,-1,2.1,.6c-1.4,3.4,1.8,4.3,1.8,2.8c0,-1.6,1,.6,1,-.6c.2,0,1.1,2,2.1,1c0,-1.4,1.7,-4.6,-.6,-4.6l2.8,-.4c.2,3.3,2,2.4,2.2,-.5l6.2,-1.6c-.1,5.4,2.2,4.3,2.3,-.4c.6,-.1,1.6,.5,2.3,.5Z" class="gb_6"/>
<image x="140" y="172" width="4" height="7" xlink:href="6/shade/65.png"/>
<image x="60" y="194" width="4" height="8" xlink:href="6/shade/66.png"/>
<path fill-rule="evenodd" d="M126.1,208.7h-.6v-.1h.6Zm1,0H127v-.1h.1Zm7.4,-.1v.1v-.1Zm-1.6,.1h-.2v-.1h.2q0,.1,0,.1m1.6,-1.2v-.1v.3q0,-.1,0,-.2Zm-1.2,2.3h-.6v-.2h.6Zm1.2,0h-.4v-.2h.4Zm12.7,-1.2v.1v-.1Zm1.6,.1h.2v-.1h-.2q0,.1,0,.1m-1.6,-1.2v-.1v.3q0,-.1,0,-.2Zm1.2,2.3h.6v-.2h-.6Zm-1.2,0h.4v-.2h-.4Zm8.4,-1.1h.6v-.1h-.6Zm-1.1,0h.2v-.1h-.2Zm-.4,-2.4c.2,0,.4,.2,.4,.5v.2v-.4L154,206l-.1,.1l-2.4,-2.4l.4,-.4l2.4,2.4h-.1l.3,.3v-.7l-.3,-.3l-.1,.1l-2.4,-2.4l.4,-.4l2.4,2.3v.2V203h.3v-1h1.1v4h.1c.1,0,.2,.1,.2,.2v.3c0,.1,-.1,.2,-.2,.2h-.2v.3c.1,0,.2,.1,.2,.2v.3q0,.1,-.1,.2h.3v-.2h.1c0,-.1,.1,-.1,.1,-.1v-.8h.1v-.1l.1,-.1c.1,-.1,.2,-.1,.3,-.1h.4c.3,0,.6,.2,.6,.5v2.5c0,.1,-.1,.2,-.2,.3q0,.1,0,.1h-.1v.6c0,.2,0,.3,-.1,.4c0,0,-.1,0,-.1,0v.1h-.8c-.2,0,-.4,-.2,-.4,-.5v-.7h-.8v.3h-.3v-.3h-.6c-.1,0,-.1,.1,-.2,.1v.6c0,.2,-.1,.4,-.2,.5h-.8c-.2,0,-.4,-.2,-.4,-.5v-2.5c0,0,0,-.1,0,-.1v-.1q.1,-.1,.2,-.2v-.6c0,0,0,-.1,0,-.1v-.1h.1v-.1c.1,-.1,.2,-.2,.4,-.2Zm-7,.2c0,.1,.1,.2,.1,.3v.1l.1,.1h.1v-.3c-.1,0,-.2,-.1,-.2,-.2Zm-12.6,0v0c0,.1,-.1,.2,-.2,.2v.3c0,0,.1,0,.1,0l.1,-.1v-.1c0,-.1,0,-.2,.1,-.3ZM61.3,197.1c0,0,-.2,.4,-.1,.8c.1,.3,.3,.6,.3,1c0,.5,-.1,1.2,.2,1.5c.2,.1,.2,0,.2,-.2c-.1,-.3,-.1,-.9,-.1,-1.3c0,-.4,-.1,-.7,-.2,-1c-.1,-.1,-.1,-.3,-.1,-.3c.2,.2,.4,.4,.4,.4l24.9,.2l11.1,.1l19.2,.7l13.6,2.3c-.1,.8,-.1,1.5,-.1,1.7c0,1.1,1.1,2.5,2.3,3.1v.4c0,.1,0,.2,.2,.2v.3H133c-.1,0,-.1,.1,-.1,.2v.3q0,.1,0,.2h-.2v-1.1h-.1v-.1q-.1,0,-.1,-.1h-.1c0,-.1,-.1,-.1,-.2,-.1h-.5c-.3,0,-.5,.2,-.5,.5v4.6c0,.2,.1,.3,.1,.4q.1,0,.1,0l.1,.1h.7c.3,0,.5,-.2,.5,-.5v-.7h.8v.3h.2v-.3h.8v.7c0,.2,.1,.4,.3,.5h.7c.2,0,.5,-.2,.5,-.5v-4.6c0,0,0,-.1,0,-.1h-.1v-.1c.7,0,1.5,0,2.2,0c1.1,.7,2.7,.9,2.7,.9c0,0,1.6,-.2,2.8,-.9c.7,0,1.4,0,2.2,0h-.1v.1c0,0,0,.1,0,.1v4.6c0,.3,.2,.5,.5,.5h.5c0,0,.1,0,.1,0h.1c.2,-.1,.3,-.3,.3,-.5v-.7h.8v.3h.2v-.3h.8v.7c0,.3,.2,.5,.5,.5h.5c0,0,.1,0,.1,0h.1v-.1h.1c.1,-.1,.2,-.2,.2,-.4v-4.6c0,-.3,-.3,-.5,-.5,-.5h-.5c-.1,0,-.2,0,-.3,.1c0,.1,-.1,.1,-.1,.1v.1H149v1.1h-.2q0,-.1,0,-.2v-.3c0,-.1,-.1,-.2,-.1,-.2h-.2v-.3h.1c.1,0,.2,-.1,.2,-.2v-.3q0,-.1,0,-.1c1.2,-.6,2.2,-2,2.3,-3.1c0,-.2,-.1,-.9,-.1,-1.7L164.6,199l19.2,-.7l11.1,-.1l24.8,-.2c0,.4,0,.9,0,1.2c0,.8,-.1,1.4,.3,1.2c.3,-.3,.2,-1,.2,-1.5c0,-.4,.2,-.7,.3,-1c.1,-.4,-.2,-.8,-.2,-.8c0,0,-.1,-.1,-.2,-.6c-.2,-.5,-.3,-1,-.5,-.8c-.1,.2,0,.3,0,.8v.3c-.7,-.2,-1.8,-.3,-1.8,-.3L196,194.9l-9.6,-.5l-20.5,-.1c0,0,-9.2,.3,-11.2,.4c-1.9,.2,-4.3,-.1,-4.3,-.1c0,0,-.7,-.3,-1.3,-.2c-.1,-.1,-.1,-.2,-.2,-.2c-.2,-.3,-.3,-.6,-.5,-.8c.1,-.6,.2,-1.1,.2,-1.6c.3,-3.9,.9,-5.6,-1.1,-10.3c-1.9,-4.7,-6.7,-5,-6.7,-5c0,0,-4.7,.3,-6.7,5c-2,4.7,-1.3,6.4,-1.1,10.3c.1,.5,.1,1,.2,1.6c-.1,.2,-.3,.5,-.5,.8c0,0,-.1,.1,-.1,.2c-.7,-.1,-1.4,.2,-1.4,.2c0,0,-2.3,.3,-4.3,.1c-1.9,-.1,-11.1,-.4,-11.1,-.4l-20.5,.1l-9.7,.5l-21.7,1.6c0,0,-1.4,.1,-2.1,.4c.1,-.1,.1,-.3,.2,-.4c0,-.2,.1,-.4,.1,-.5c0,-.1,0,-.2,-.1,-.3c-.1,-.2,-.2,.3,-.4,.8c-.1,.5,-.3,.6,-.3,.6m66.3,9.2c-.3,0,-.5,.2,-.5,.5v.2v-.4l.6,-.6l.1,.1l2.4,-2.4l-.4,-.4l-2.4,2.4h.1l-.4,.3v-.7l.4,-.3l.1,.1l2.4,-2.4l-.4,-.4l-2.5,2.3l.1,.1l-.1,.1V203h-.2v-1h-1.1v4h-.2c-.1,0,-.1,.1,-.1,.2v.3c0,.1,.1,.2,.2,.2h.2v.3c-.1,0,-.2,.1,-.2,.2v.3q0,.1,0,.2h-.2v-.1h-.1v-.1q-.1,-.1,-.1,-.1v-.8h-.1v-.1c0,0,-.1,0,-.1,-.1c-.1,-.1,-.2,-.1,-.3,-.1h-.5c-.2,0,-.5,.2,-.5,.5v2.5c0,.1,.1,.2,.2,.3q0,.1,0,.1h.1v.6c0,.2,0,.3,.1,.4h.1v.1c0,0,.1,0,.1,0h.6c.3,0,.5,-.2,.5,-.5v-.7h.8v.3h.3v-.3h.6c0,0,.1,.1,.2,.1v.6c0,.2,.1,.4,.2,.5h.7c.3,0,.5,-.2,.5,-.5v-2.5c0,0,0,-.1,0,-.1v-.1h-.1c0,-.1,-.1,-.1,-.1,-.2v-.6c0,0,0,-.1,0,-.1v-.1h-.1v-.1c-.1,-.1,-.2,-.2,-.4,-.2Z" class="g0_6"/>
<image x="141" y="177" width="10" height="18" xlink:href="6/shade/67.png"/>
<path fill-rule="evenodd" d="M144.9,182.1L144,181l-.3,-.1l.6,1Z" class="gc_6"/>
<path fill-rule="evenodd" d="M144,181.8l-.6,-1l-.4,-.1l.1,.3l.4,.6Z" class="gc_6"/>
<image x="140" y="179" width="5" height="3" xlink:href="6/shade/68.png"/>
<path fill-rule="evenodd" d="M168.8,199.6c0,2.2,1.8,4,4,4c2.7,0,4.4,-2.7,4.4,-5.2c0,-2.2,-1.8,-4,-4,-4c-1.6,0,-3,.8,-3.6,2c-.5,.8,-.8,2.3,-.8,3.2Z" class="gd_6"/>
<path fill-rule="evenodd" d="M191,199.4c0,2.2,1.8,4,4,4c2.7,0,4.4,-2.8,4.4,-5.3c0,-2.2,-1.8,-4,-4,-4c-1.6,0,-3,.8,-3.6,2.1c-.5,.8,-.8,2.3,-.8,3.2Z" class="gd_6"/>
<path fill-rule="evenodd" d="M169.4,196.6c-.5,0,-.9,.4,-.9,.9l-.2,6.7c0,1.9,.2,3,.8,3c.4,-.1,1.1,-1,1.2,-3l.1,-6.7c0,-.5,-.6,-.9,-1,-.9m9.2,1h-2l-.2,5.3c-.1,1.9,.1,3,.6,2.9c.5,0,1.2,-.9,1.3,-2.9Zm8.6,-.5h-2l-.2,4.3c-.2,1.9,0,2.9,.5,2.9c.5,0,1.2,-.9,1.4,-2.9Zm-74.9,-.5c.5,0,.9,.4,.9,.9l.1,6.7c.1,1.9,-.2,3,-.7,3c-.4,-.1,-1.2,-1,-1.2,-3l-.1,-6.7c0,-.5,.6,-.9,1,-.9m-9.2,1h2l.2,5.3c.1,1.9,-.1,3,-.7,2.9c-.4,0,-1.1,-.9,-1.2,-2.9Zm-8.6,-.5h1.9l.3,4.3c.2,1.9,0,2.9,-.5,2.9c-.5,0,-1.3,-.9,-1.4,-2.9Zm26.4,.1c.5,0,.9,.4,.9,.8v6.8c0,1.9,-.3,3,-.8,2.9c-.5,0,-1.2,-.9,-1.2,-2.9V198c0,-.4,.6,-.8,1.1,-.8m39.9,0c-.5,0,-.9,.4,-.9,.8v6.8c0,1.9,.3,3,.8,2.9c.4,0,1.2,-.9,1.2,-2.9V198c0,-.4,-.7,-.8,-1.1,-.8Z" class="gd_6"/>
<image x="159" y="198" width="28" height="11" xlink:href="6/shade/69.png"/>
<image x="141" y="188" width="4" height="5" xlink:href="6/shade/70.png"/>
<path fill-rule="evenodd" d="M140.8,172.9V177h-.5l.1,-2.9l.2,-.9Z" class="gd_6"/>
<path d="M147.4,185.5c.1,.8,0,1.6,-.1,2.4c0,.1,.1,.2,.2,.3c.1,.1,.1,.2,.2,.2c0,0,.1,0,.1,-.1c.1,-.7,.1,-1.5,.1,-2.2c-.1,-.8,-.2,-1.7,-.4,-2.6c-.1,-.2,-.3,-.5,-.5,-.6c0,-.1,-.1,-.1,-.1,-.1q-.1,0,-.1,0c-.1,.1,0,.2,0,.3c.3,.8,.5,1.7,.6,2.4m-.5,-2.4v0c-.1,-.1,-.1,-.2,-.1,-.2q.1,0,.2,0c.1,.2,.3,.5,.4,.6c.2,.9,.3,1.8,.4,2.6c0,.7,0,1.5,-.1,2.2c0,0,-.1,-.1,-.1,-.1c-.1,-.1,-.2,-.2,-.2,-.3c.1,-.8,.1,-1.6,.1,-2.4c-.1,-.8,-.3,-1.6,-.6,-2.4Z" class="gd_6"/>
<path fill-rule="evenodd" d="M148.3,185.8c0,0,0,.3,0,.8c0,.4,0,.7,0,.7c.1,0,.1,-.3,.1,-.7c0,-.5,0,-.8,-.1,-.8m.2,.7c-.1,0,-.1,.3,-.1,.7c0,.3,0,.6,.1,.6c0,0,0,-.3,0,-.6c0,-.4,0,-.7,0,-.7m0,.6c0,0,0,.3,0,.6c0,.4,0,.7,0,.7c.1,0,.1,-.3,.1,-.7c0,-.3,0,-.6,-.1,-.6m.1,.7c0,0,0,.2,0,.5c0,.3,0,.6,0,.6c0,0,.1,-.3,.1,-.6c0,-.3,-.1,-.5,-.1,-.5m.1,.6c0,0,0,.2,0,.4c0,.2,0,.4,0,.4c0,0,0,-.2,0,-.4c0,-.2,0,-.4,0,-.4m-.5,-3.3c0,0,-.1,.4,-.1,.9c0,.4,.1,.8,.1,.8c0,0,0,-.4,0,-.8c0,-.5,0,-.9,0,-.9Z" class="gd_6"/>
<image x="60" y="196" width="36" height="3" xlink:href="6/shade/71.png"/>
<path fill-rule="evenodd" d="M136.8,182.1l.9,-1.1l.2,-.1l-.6,1Z" class="gc_6"/>
<path fill-rule="evenodd" d="M137.6,181.8l.7,-1l.4,-.1l-.1,.3l-.5,.6Z" class="gc_6"/>
<path fill-rule="evenodd" d="M138.7,181.4l.3,-.8l1.6,-.1v.8Z" class="gc_6"/>
<image x="94" y="198" width="30" height="11" xlink:href="6/shade/72.png"/>
<path fill-rule="evenodd" d="M112.9,199.6c0,2.2,-1.8,4,-4,4c-2.7,0,-4.4,-2.7,-4.4,-5.2c0,-2.2,1.8,-4,4,-4c1.5,0,2.9,.8,3.6,2c.5,.8,.8,2.3,.8,3.2Z" class="gd_6"/>
<path fill-rule="evenodd" d="M90.7,199.4c0,2.2,-1.8,4,-4,4c-2.8,0,-4.4,-2.8,-4.4,-5.3c0,-2.2,1.8,-4,4,-4c1.5,0,2.9,.8,3.6,2.1c.5,.8,.8,2.3,.8,3.2Z" class="gd_6"/>
<path fill-rule="evenodd" d="M130.9,201.3l.2,5.6l-10.2,-1.5l-3.9,-1v-1h-.2v1l-4.1,-1.1l-8.3,-1l-4,-.5v-.7h-.2v.7L96,201.3l-9.4,-.6v-2.1l9.4,-.2l8.3,.3l8.5,.4l4.8,.4l3.9,.7Z" class="gd_6"/>
<path d="M134.3,185.5c-.1,.8,-.1,1.6,0,2.4c.1,.1,0,.2,-.1,.3c-.1,.1,-.2,.2,-.2,.2c0,0,-.1,0,-.1,-.1c-.1,-.7,-.1,-1.5,-.1,-2.2c0,-.8,.2,-1.7,.4,-2.6c.1,-.2,.3,-.5,.5,-.6c0,-.1,.1,-.1,.1,-.1q.1,0,.1,0c0,.1,0,.2,0,.3c-.4,.8,-.5,1.7,-.6,2.4m.5,-2.4v0c0,-.1,.1,-.2,0,-.2h-.1c-.1,.2,-.4,.5,-.4,.6c-.2,.9,-.4,1.8,-.4,2.6c-.1,.7,0,1.5,.1,2.2c0,0,.1,-.1,.1,-.1c.1,-.1,.2,-.2,.2,-.3c-.1,-.8,-.2,-1.6,-.1,-2.4c.1,-.8,.3,-1.6,.6,-2.4Z" class="gc_6"/>
<image x="132" y="184" width="3" height="7" xlink:href="6/shade/73.png"/>
<image x="108" y="197" width="7" height="9" xlink:href="6/shade/74.png"/>
<image x="86" y="197" width="6" height="8" xlink:href="6/shade/75.png"/>
<path fill-rule="evenodd" d="M140.3,192.4c0,.3,.2,.5,.5,.5c.3,0,.5,-.2,.5,-.5c0,-.3,-.2,-.5,-.5,-.5c-.3,0,-.5,.2,-.5,.5Z" class="ge_6"/>
<image x="139" y="191" width="3" height="4" xlink:href="6/shade/76.png"/>
<path fill-rule="evenodd" d="M140.6,192.5c0,.1,.1,.2,.2,.2c.1,0,.2,-.1,.2,-.2c0,-.1,-.1,-.2,-.2,-.2c-.1,0,-.2,.1,-.2,.2Z" class="g2_6"/>
<image x="139" y="188" width="4" height="4" xlink:href="6/shade/77.png"/>
<path fill-rule="evenodd" d="M140.8,189.3c-.2,0,-.4,-.1,-.4,-.2c0,-.1,.2,-.3,.4,-.3c.2,0,.4,.2,.4,.3c0,.1,-.2,.2,-.4,.2Z" class="gd_6"/>
<image x="139" y="188" width="3" height="3" xlink:href="6/shade/78.png"/>
<path fill-rule="evenodd" d="M140.8,189.1q-.1,0,-.1,-.1q0,-.1,.1,-.1c.1,0,.2,0,.2,.1c0,.1,-.1,.1,-.2,.1Z" class="g2_6"/>
<path fill-rule="evenodd" d="M151.8,195.1h-.3c-.1,0,-.2,.1,-.2,.2v1.1c0,.1,.1,.2,.2,.2h.3c.1,0,.2,-.1,.2,-.2v-1.1c0,-.1,-.1,-.2,-.2,-.2Z" class="ge_6"/>
<image x="150" y="194" width="4" height="4" xlink:href="6/shade/79.png"/>
<path fill-rule="evenodd" d="M151.8,195.4h-.3q-.1,0,-.1,0v.2h.4q.1,0,.1,0v-.2h-.1Z" class="g2_6"/>
<path fill-rule="evenodd" d="M151.8,196.3h-.3q-.1,0,-.1,0v.1q0,.1,.1,.1h.3q.1,0,.1,-.1v-.1h-.1Z" class="g2_6"/>
<path fill-rule="evenodd" d="M151.8,196h-.3q-.1,0,-.1,0v.2h.4q.1,0,.1,0V196h-.1Z" class="g2_6"/>
<path fill-rule="evenodd" d="M151.8,195.7h-.3q-.1,0,-.1,0v.2h.4q.1,0,.1,0v-.2h-.1Z" class="g2_6"/>
<path fill-rule="evenodd" d="M130.6,195.1h-.3c-.1,0,-.2,.1,-.2,.2v1.1c0,.1,.1,.2,.2,.2h.3c.1,0,.2,-.1,.2,-.2v-1.1c0,-.1,-.1,-.2,-.2,-.2Z" class="ge_6"/>
<image x="129" y="194" width="4" height="4" xlink:href="6/shade/80.png"/>
<path fill-rule="evenodd" d="M130.6,195.4h-.3q-.1,0,-.1,0v.2h.4c0,0,.1,0,.1,0v-.2c0,0,-.1,0,-.1,0Z" class="g2_6"/>
<path fill-rule="evenodd" d="M130.6,196.3h-.3q-.1,0,-.1,0v.1q0,.1,.1,.1h.3c0,0,.1,0,.1,-.1v-.1c0,0,-.1,0,-.1,0Z" class="g2_6"/>
<path fill-rule="evenodd" d="M130.6,196h-.3q-.1,0,-.1,0v.2h.4c0,0,.1,0,.1,0V196c0,0,-.1,0,-.1,0Z" class="g2_6"/>
<path fill-rule="evenodd" d="M130.6,195.7h-.3q-.1,0,-.1,0v.2h.4c0,0,.1,0,.1,0v-.2c0,0,-.1,0,-.1,0Z" class="g2_6"/>
<image x="81" y="193" width="9" height="10" xlink:href="6/shade/81.png"/>
<image x="103" y="193" width="10" height="9" xlink:href="6/shade/82.png"/>
<path fill-rule="evenodd" d="M150.7,201.3l-.1,5.6l10.2,-1.5l3.8,-1v-1h.3v1l4.1,-1.1l8.3,-1l3.9,-.5v-.7h.3v.7l4.2,-.5l9.4,-.6l-.1,-2.1l-9.3,-.2l-8.3,.3l-8.5,.4l-4.8,.4l-3.9,.7Z" class="gd_6"/>
<image x="172" y="198" width="7" height="8" xlink:href="6/shade/83.png"/>
<image x="194" y="197" width="7" height="8" xlink:href="6/shade/84.png"/>
<image x="191" y="193" width="10" height="10" xlink:href="6/shade/85.png"/>
<image x="169" y="193" width="9" height="9" xlink:href="6/shade/86.png"/>
<path fill-rule="evenodd" d="M147.3,183.9c.1,0,.1,.2,.2,.5c.1,.3,.1,.6,.1,.6c-.1,0,-.1,-.3,-.2,-.6c-.1,-.3,-.1,-.5,-.1,-.5Z" class="gd_6"/>
<path d="M130.7,196.5q-.1,.1,-.1,.1h-.3c0,0,-.1,0,-.1,-.1v.1c0,0,.1,0,.1,0h.3c0,0,.1,0,.1,0v-.1Z" class="gf_6"/>
<image x="129" y="195" width="4" height="2" xlink:href="6/shade/87.png"/>
<path d="M130.4,196.3l-.2,.2h.4Z" class="g2_6"/>
<path d="M127.4,200.8l-.1,.1h.1v-.1Z" class="gg_6"/>
<path d="M133.1,192.5l-.2,.1c.1,.3,.1,.6,.2,.9c-.4,.4,-.7,.7,-1.1,.9l.5,-.3l.7,-.8c0,-.3,-.1,-.6,-.1,-.8m-.8,1.9c0,0,.1,0,.2,0c0,0,.1,0,.1,0c0,-.1,.1,-.2,.1,-.2c.1,-.1,.1,-.2,.2,-.2l-.4,.1Zm.7,-3.1c0,-.1,0,-.2,0,-.3l-.2,.4c0,0,0,.2,0,.2Z" class="gh_6"/>
<path d="M128.4,194.2l1.1,.5q.1,0,.2,0l-.5,-.9l-7.4,-6.9Zm4.5,-1.6l-1.2,1.2l-.4,.8c.1,-.1,.3,-.1,.7,-.2c.4,-.2,.7,-.5,1.1,-.9c-.1,-.3,-.1,-.6,-.2,-.9m-4.2,2.2c.1,-.1,.2,-.1,.2,-.1l-.5,-.5l-3.8,-2Zm4.1,-3.4l-2.1,3.2l-.3,-5.8l-.2,5.8l-3.1,-4.9l2.1,4.1l1,.9c.2,0,.4,0,.5,-.1l1,-.8l1.1,-2.2c0,0,0,-.2,0,-.2Z" class="gi_6"/>
<path d="M125.3,200.4l-.2,.2l.6,.1l.2,-.2Z" class="gg_6"/>
<path d="M121.8,204.3l3.9,-3.6l-.6,-.1Zm6.9,-7.5l-3.4,3.6l.6,.1l3.2,-2.9l.7,-1.4Zm3.5,0l-1.1,-.6l.7,1.4l7.3,6.7Zm-.8,-1.5v0l.2,-.1Zm-2.1,-.1l.2,.1Zm.4,-.5q-.1,0,-.2,0l.3,.2Zm3.5,-1.4l5.9,-6.4l-6,5.6c0,.2,.1,.5,.1,.8m-1.2,1.1c-.4,.1,-.6,.1,-.7,.2l-.2,.3l.9,-.5m1.8,7l-2,-3.8l-1,-.9Zm-6.7,0l.3,-.5h-.1Zm.3,-.6v0l2.7,-4.1l-1,.9Zm4,-5l5.8,-.3l-5.8,-.2l-.3,.3l1.1,1.2l4.1,2.1Zm-1.9,-.5l-5.8,.2l5.8,.3l-4.9,3.1l4.1,-2.1l1,-1.2Zm.8,1.3c0,0,-.1,0,-.1,0l.2,4.6v1.1l.1,-1.1l.2,-4.6c0,0,-.1,0,-.1,0Zm-1.6,-1.8l.6,.4l-.3,-.5c-.1,0,-.2,0,-.3,.1m4.2,-.8c-.1,0,-.1,.1,-.2,.2c0,0,-.1,.1,-.1,.2c0,0,-.1,0,-.1,0c-.1,0,-.2,0,-.2,0l-.7,.8l4.7,-3Zm.9,-4.3L133,191c0,.1,0,.2,0,.3Zm-3.4,5.2l.3,-.3c-.1,.1,-.3,.1,-.5,.1Z" class="gj_6"/>
<path d="M130.7,196.5c0,0,0,.1,0,.1l.1,.1Z" class="gj_6"/>
<path d="M130.7,196.5v.1c0,0,0,-.1,0,-.1Z" class="gf_6"/>
<image x="129" y="195" width="2" height="2" xlink:href="6/shade/88.png"/>
<path d="M130.1,196.6v.1l.1,-.1q-.1,0,-.1,0Z" class="gj_6"/>
<path d="M130.2,196.5l-.1,.1h.1v-.1Z" class="gf_6"/>
<image x="129" y="195" width="3" height="2" xlink:href="6/shade/89.png"/>
<path d="M130.2,196.4v.1Z" class="g2_6"/>
<path d="M132.3,194.4l.2,-.3l-.5,.3l-.9,.5l.2,-.3l.4,-.8l-1,.8l-.3,.3l-.2,-.2l-1,-.9l.5,.9l.1,.2l-.3,-.2l-1.1,-.6l.6,.6l.3,.5l.2,.1l.2,.3l-1,1.2l1.1,-.6l-.7,1.4l1,-.9v-.1q0,-.1,0,-.2v-1.1c0,-.1,.1,-.2,.2,-.2h.3c.1,0,.2,.1,.2,.2v1.1q0,.1,-.1,.1l.1,.2l1,.9l-.7,-1.4l1.1,.6l-1.1,-1.2l.3,-.3l.2,-.1Z" class="g2_6"/>
<path d="M130.6,195.1h-.3c-.1,0,-.2,.1,-.2,.2v1.1q0,.1,0,.2l.1,-.1q-.1,0,-.1,-.1v-1c0,-.1,.1,-.2,.2,-.2h.3c.1,0,.1,.1,.1,.2v1c0,0,0,.1,0,.1q.1,0,.1,-.1v-1.1c0,-.1,-.1,-.2,-.2,-.2m.1,1.4v0Z" class="gk_6"/>
<image x="129" y="194" width="4" height="4" xlink:href="6/shade/90.png"/>
<path d="M130.6,195.4h-.4v.2h.5v-.2Z" class="g2_6"/>
<path d="M130.6,196.3h-.4v.2v-.1v.1l.2,-.2l.2,.2l.1,-.1v-.1Z" class="g2_6"/>
<path d="M130.6,196h-.4v.2h.5V196Z" class="g2_6"/>
<path d="M130.6,195.7h-.4v.2h.5v-.2Z" class="g2_6"/>
<path d="M148.7,190.7c0,0,0,.1,0,.1l.2,.3q0,-.1,0,-.2Z" class="gl_6"/>
<path d="M148.3,189.9l.4,.9c0,0,0,-.1,0,-.1Z" class="gm_6"/>
<path d="M153.8,194.7c-.2,0,-.3,0,-.5,0v.1c.2,0,.3,0,.4,0Z" class="gn_6"/>
<path d="M148.8,194c0,0,.1,.1,.1,.2c.1,0,.1,.1,.2,.2c0,0,.1,0,.1,0c.1,0,.2,0,.3,0c-.1,-.1,-.2,-.2,-.3,-.3Z" class="gl_6"/>
<path d="M154.5,200.7v.2l.1,-.1Z" class="go_6"/>
<path d="M148.8,193.6l.8,.8c.5,.1,.8,.2,.8,.2c0,0,.1,0,.3,0l-.3,-.6l-1.6,-1.5c-.1,.4,0,.8,0,1.1m4.1,.4l-.4,.7c.1,0,.3,0,.4,.1l.8,-.4l6.6,-7.2Zm-3.4,.4c0,0,.1,0,.1,0l-.4,-.3c.1,.1,.2,.2,.3,.3m3.8,.3c.2,0,.3,0,.5,0l3.7,-2.3l-3.8,2Zm-1.3,0h.1l.8,-.7l2.1,-4.1Zm-.6,0c.1,0,.3,0,.5,0l-.3,-5.7Zm-2.5,-3.6l1.5,2.9l.7,.7q.1,0,.2,0l-2.4,-3.8q0,.1,0,.2Z" class="gi_6"/>
<path d="M148.6,192.3c0,.3,-.1,.6,-.1,.9l.3,.4c0,-.3,-.1,-.7,0,-1.1Z" class="gl_6"/>
<path d="M148.3,192.1c.1,.3,.2,.6,.2,.8c0,-.2,.1,-.4,.1,-.6Z" class="gm_6"/>
<path d="M156.5,200.4l-.6,.1l.2,.2l.6,-.1Z" class="go_6"/>
<path d="M156.7,200.6l-.6,.1l4.2,3.8Zm-4.8,-3.9l.1,.2l-.1,-.2Zm-.6,.2l.1,-.2Zm-1.5,.1l-6.9,7.5l7.3,-6.7l.8,-1.4Zm3.6,0l-1.1,-.6l.7,1.4l3,2.7l.5,-.1Zm-2.9,-1.6l.1,.1h.1Zm2,.1h.1l.1,-.1Zm-4,-2.7c0,0,0,.1,0,.1c0,0,0,-.1,0,-.1m.1,-.5c0,.2,-.1,.4,-.1,.5c0,-.1,.1,-.3,.1,-.5Zm2.1,2.3c-.2,0,-.3,0,-.3,0c0,0,-.3,-.1,-.8,-.2l1.4,.7Zm-2.2,-1.7c0,-.2,-.1,-.5,-.2,-.8l-5.4,-4.9l5.6,6c0,-.1,0,-.2,0,-.3m4,1.8l-.2,.4l.6,-.4c-.1,0,-.3,0,-.4,0m2,6.2l.5,.7l-.4,-.8Zm0,-.2v0L153,197.8l-1,-.9Zm-6.2,.9l3,-4.7l-1.1,.9Zm2.3,-6.1l-5.7,.3l5.8,.2l-4.9,3.1l4,-2.1l1.1,-1.2Zm1.9,.5l5.9,-.2l-5.8,-.3l-.3,.3l1.1,1.2l4.1,2.1Zm-3,-1.6c-.1,0,-.2,0,-.3,0c0,0,-.1,0,-.1,0c-.1,-.1,-.1,-.2,-.2,-.2c0,-.1,0,-.2,-.1,-.2l-3,-1.6l4.7,3l-.9,-1c0,0,-.1,0,-.1,0m2.1,2.2l-.2,.1l.2,4.5v1.3l.1,-1.3l.2,-4.5l-.2,-.1Zm1.7,-1.8l-.6,.6l1,-.6c-.1,0,-.2,0,-.4,0m-1.2,-.1q-.1,0,-.1,0l-.1,.2v-.2c-.2,0,-.4,0,-.5,0v.2l-.1,-.2q-.1,0,-.2,0l.5,.4Z" class="gj_6"/>
<path d="M153.3,194.7c0,.1,-.1,.1,-.2,.1c.1,0,.2,0,.2,0Z" class="gp_6"/>
<path d="M152.3,195.8l.3,-.3h-.1l.2,-.1l.6,-.6c0,0,-.1,0,-.2,0c.1,0,.2,-.1,.2,-.1l.4,-.3l-.8,.4l-.6,.3l.2,-.4l.4,-.7l-.8,.7l-.5,.4l-.5,-.4l-.7,-.7l.3,.6l.3,.5l-1.4,-.7l.9,1l.2,.1h-.1l.3,.3l-1.1,1.2l1.2,-.6l-.8,1.4l1.1,-.9l.1,-.2v.1l.2,-.2h-.1c-.1,0,-.2,-.1,-.2,-.2v-1.1c0,-.1,.1,-.2,.2,-.2h.3c.1,0,.2,.1,.2,.2v1.1c0,.1,-.1,.2,-.2,.2h-.1l.2,.2v-.1l.1,.2l1,.9l-.7,-1.4l1.1,.6Z" class="g2_6"/>
<path d="M151.7,196.6h-.1h.1Z" class="gf_6"/>
<image x="150" y="195" width="3" height="2" xlink:href="6/shade/91.png"/>
<path d="M151.8,195.1h-.3c-.1,0,-.2,.1,-.2,.2v1.1c0,.1,.1,.2,.2,.2h.1h-.1c-.1,0,-.1,-.1,-.1,-.2v-1c0,-.1,0,-.2,.1,-.2h.3c.1,0,.2,.1,.2,.2v1c0,.1,-.1,.2,-.2,.2h-.1h.1c.1,0,.2,-.1,.2,-.2v-1.1c0,-.1,-.1,-.2,-.2,-.2Z" class="gk_6"/>
<image x="150" y="194" width="4" height="4" xlink:href="6/shade/92.png"/>
<path d="M151.8,195.4h-.4v.2h.5v-.2Z" class="g2_6"/>
<path d="M151.8,196.3h-.4v.1l.1,.1h.3l.1,-.1v-.1Z" class="g2_6"/>
<path d="M151.8,196h-.4v.2h.5V196Z" class="g2_6"/>
<path d="M151.8,195.7h-.4v.2h.5v-.2Z" class="g2_6"/>
<path fill-rule="evenodd" d="M140.8,190.7v1.8l-1,-1.5l.8,1.5l-1.5,-.8l1.5,.9l-1.7,.1l1.7,.1l-1.5,.9l1.5,-.8l-.8,1.5l1,-1.4v1.7l.1,-1.7l.9,1.4l-.8,-1.5l1.6,.8l-1.5,-.9l1.7,-.1l-1.7,-.1l1.5,-.9l-1.6,.8l.8,-1.5l-.9,1.5Z" class="g2_6"/>
<path fill-rule="evenodd" d="M143.4,190.2l-2.6,2.3l-2.5,-2.3l2.3,2.5l-2.3,2.6l2.5,-2.4l2.6,2.4L141,192.7Z" class="g2_6"/>
<image preserveAspectRatio="none" x="52" y="671" width="177" height="141" xlink:href="6/img/3.png"/>
<text x="53" y="64" class="s7_6">iv</text>
<text x="127" y="64" dx="0,0,.1,.1,0,.1,.1,.1" class="s8_6">Contents</text>
<text x="121" y="1076" class="s9_6">Copyright 2016 Cengage Learning. All Rights Reserved. May not be copied, scanned, or duplicated, in whole or in part. Due to electronic rights, some third party content may be suppressed from the eBook and/or eChapter(s).</text>
<text x="106" y="1087" class="s9_6">Editorial review has deemed that any suppressed content does not materially affect the overall learning experience. Cengage Learning reserves the right to remove additional content at any time if subsequent rights restrictions require it.</text>

</g>

<!-- Any embedded fonts defined here -->
<style type="text/css" ><![CDATA[

@font-face {
	font-family: MyriadPro-BoldSemiCn_90;
	src: url("fonts/MyriadPro-BoldSemiCn_90.woff") format("woff");
}

@font-face {
	font-family: MyriadPro-Regular_4i;
	src: url("fonts/MyriadPro-Regular_4i.woff") format("woff");
}

@font-face {
	font-family: MyriadPro-SemiCnIt_g2;
	src: url("fonts/MyriadPro-SemiCnIt_g2.woff") format("woff");
}

@font-face {
	font-family: MyriadPro-SemiCn_8y;
	src: url("fonts/MyriadPro-SemiCn_8y.woff") format("woff");
}

@font-face {
	font-family: MyriadPro-SemiCn_95;
	src: url("fonts/MyriadPro-SemiCn_95.woff") format("woff");
}

@font-face {
	font-family: MyriadPro-SemiboldSemiCn_4e;
	src: url("fonts/MyriadPro-SemiboldSemiCn_4e.woff") format("woff");
}

@font-face {
	font-family: MyriadPro-Semibold_49;
	src: url("fonts/MyriadPro-Semibold_49.woff") format("woff");
}

@font-face {
	font-family: Times-Roman_4n;
	src: url("fonts/Times-Roman_4n.woff") format("woff");
}

]]></style>

</svg>
