<?xml version="1.0" encoding="UTF-8" standalone="no"?>
<!DOCTYPE svg PUBLIC "-//W3C//DTD SVG 1.1//EN"
"http://www.w3.org/Graphics/SVG/1.1/DTD/svg11.dtd">


<!-- Page 60 -->
<svg x="0" y="0" width="931" height="1096" viewBox="0 0 931 1096" version="1.1" xmlns="http://www.w3.org/2000/svg" xmlns:xlink="http://www.w3.org/1999/xlink"
style="display: block;margin-left: auto;margin-right: auto;">
<defs>
<clipPath id="c_60"><path d="M0,0H931V1096H0Z"/></clipPath>
<clipPath id="c0_60"><path d="M287.2,853.4V666.1H784.6V853.4Z"/></clipPath>

<style type="text/css"><![CDATA[
text { white-space: pre; }
path, image { pointer-events: none; }

.s1_60{
font-size: 15.28px;
font-family: MyriadPro-Semibold_49;
fill: #231F20;
}
.s2_60{
font-size: 12.22px;
font-family: MyriadPro-Semibold_49;
fill: #231F20;
}
.s3_60{
font-size: 13.75px;
font-family: MyriadPro-Semibold_49;
fill: #231F20;
}
.s4_60{
font-size: 12.22px;
font-family: MyriadPro-Regular_4i;
fill: #231F20;
}
.s5_60{
font-size: 15.28px;
font-family: TimesLTStd-Roman_143;
fill: #231F20;
}
.s6_60{
font-size: 15.28px;
font-family: TimesLTStd-Bold_oh;
fill: #231F20;
}
.s7_60{
font-size: 12.99px;
font-family: Times-Roman_n6;
fill: #231F20;
}
.s8_60{
font-size: 12.99px;
font-family: TECHMath-Mix_19n;
fill: #231F20;
}
.s9_60{
font-size: 12.22px;
font-family: TECHMath-Mix_19n;
fill: #231F20;
}
.sa_60{
font-size: 15.28px;
font-family: TimesLTStd-Italic_o3;
fill: #231F20;
}
.sb_60{
font-size: 15.28px;
font-family: MathematicalPiLTStd-3_ry;
fill: #231F20;
}
.sc_60{
font-size: 16.81px;
font-family: MyriadPro-BoldSemiCn_90;
fill: #EC008C;
}
.sd_60{
font-size: 17.57px;
font-family: MyriadPro-BoldSemiCn_90;
fill: #EC008C;
}
.se_60{
font-size: 13.75px;
font-family: MyriadPro-Semibold_49;
fill: #EC008C;
}
.sf_60{
font-size: 15.28px;
font-family: MyriadPro-Bold_74;
fill: #00AEEF;
}
.sg_60{
font-size: 15.28px;
font-family: MathematicalPiLTStd-5_vb;
fill: #231F20;
}
.sh_60{
font-size: 15.28px;
font-family: MathematicalPiLTStd-1_rr;
fill: #231F20;
}
.si_60{
font-size: 9.17px;
font-family: TimesLTStd-Roman_143;
fill: #231F20;
}
.sj_60{
font-size: 12.34px;
font-family: TECHMath-Mix_19d;
fill: #231F20;
}
.sk_60{
font-size: 12.34px;
font-family: TECHMath-Mix_19j;
fill: #231F20;
}
.sl_60{
font-size: 12.34px;
font-family: Times-Roman_n6;
fill: #231F20;
}
.sm_60{
font-size: 14.51px;
font-family: MyriadPro-Bold_74;
fill: #231F20;
}
.sn_60{
font-size: 15.28px;
font-family: MyriadPro-Bold_74;
fill: #231F20;
}
.so_60{
font-size: 13.75px;
font-family: TimesLTStd-Roman_143;
fill: #231F20;
}
.sp_60{
font-size: 7.64px;
font-family: Times-Roman_4n;
fill: #000000;
}

.g0_60{
fill: #231F20;
}
.g1_60{
fill: none;
stroke: #231F20;
stroke-width: 0.611;
stroke-linecap: butt;
stroke-linejoin: miter;
stroke-miterlimit: 3;
}
.g2_60{
fill: none;
stroke: #00AEEF;
stroke-width: 0.916;
stroke-linecap: butt;
stroke-linejoin: round;
stroke-miterlimit: 3;
}
.g3_60{
fill: none;
stroke: #00AEEF;
stroke-width: 0.763;
stroke-linecap: butt;
stroke-linejoin: miter;
stroke-miterlimit: 4;
}
.g4_60{
fill: none;
stroke: #EC008C;
stroke-width: 0.771;
stroke-linecap: butt;
stroke-linejoin: round;
stroke-miterlimit: 3;
}
.g5_60{
fill: none;
stroke: #231F20;
stroke-width: 0.617;
stroke-linecap: butt;
stroke-linejoin: miter;
stroke-miterlimit: 3;
}
.g6_60{
fill: #00AEEF;
}
.g7_60{
fill: none;
stroke: #00AEEF;
stroke-width: 0.771;
stroke-linecap: butt;
stroke-linejoin: miter;
stroke-miterlimit: 3;
}
.g8_60{
fill: #E2F4FC;
}
.g9_60{
fill: none;
stroke: #231F20;
stroke-width: 0.763;
stroke-linecap: butt;
stroke-linejoin: miter;
}

]]></style>

</defs>
<g clip-path="url(#c_60)">
<path d="M0,0
L0,1096
L931,1096
L931,0 Z " 
fill="#FFFFFF" stroke="none"/>
<text x="53" y="64" class="s1_60">28</text>
<text x="126" y="64" dx="0,.2,.2,.2,.2,.2,.2,.1" class="s2_60">CHAPTER </text>
<text x="180" y="64" class="s3_60">1</text>
<text x="200" y="64" dx="0,-.3,.1,.1,.3,.1,.1,.1,.1,.1,.1,.1,.1,.1,.1,.2,.1,.1,.1,.1" class="s4_60">Functions and Models</text>
<text x="287" y="107" dx="0,0,0,0,.5,0,0,.5,0,0,0,0,0,0,.5,0" class="s5_60">and is called a </text>
<text x="379" y="107" dx="0,0,0,0,0,0,.5,0,0,0,0,0,0,0" class="s6_60">cubic function</text>
<text x="473" y="107" dx="0,0,.5,0,0,0,0,0,0,.5,0,.5,0,0,-.4,0,0,.5,0,0,0,.5,0,0,0,0,0,.5,0,0,.5,0,.5,0,0,0,0,0,.5,0,0,0,0,0,0,0,0,.5,0,0,.5,0,0,0,0,.5,0,0,0" class="s5_60">. Figure 8 shows the graph of a cubic function in part (a) </text>
<text x="287" y="126" dx="0,0,0,0,.1,0,0,0,0,0,0,.1,0,0,.1,0,0,0,0,0,0,0,0,0,0,0,.1,0,0,.1,0,-.2,0,0,0,0,0,.1,0,.1,0,0,0,.1,0,.1,0,0,.1,0,0,0,0,0,.1,0,0,0,.1,0,0,0,.1,0,0,0,0,-.4,-1.2,0,.1,0,0,0,0,.1,0,0,0,.1,0,0,0,0,0,.1,0,-.1,0" class="s5_60">and graphs of polynomials of degrees 4 and 5 in parts (b) and (c). We will see later why </text>
<text x="287" y="144" dx="0,0,0,0,0,0,0,0,0,0,0,0,0,-.3,-.2,0,0,0,0,0,0,0,0,0,0,0,0,0,0" class="s5_60">the graphs have these shapes.</text>
<text x="325" y="324" class="s7_60">(a) </text>
<text x="343" y="324" class="s8_60">y=˛-x+1</text>
<path fill-rule="evenodd" d="M436.7,236.9l-1.6,-2.5l6.5,2.5l-6.5,2.4Z" class="g0_60"/>
<text x="435" y="249" class="s9_60">x</text>
<path fill-rule="evenodd" d="M365.5,177.9l-2.4,1.7l2.4,-6.5l2.5,6.5Z" class="g0_60"/>
<text x="355" y="221" class="s9_60">1</text>
<text x="355" y="179" class="s9_60">y</text>
<path d="M413.3,240.1V234" class="g1_60"/>
<text x="410" y="252" class="s9_60">1</text>
<text x="356" y="249" class="s9_60">0</text>
<path d="M293.7,260.9c15.2,-52.8,40.5,-70.1,71.7,-47.8c28.8,20.5,52.5,7.4,68,-36.2" class="g2_60"/>
<path d="M293.7,237H437.3m-71.8,59.8V177.1" class="g1_60"/>
<text x="514" y="324" class="s7_60">(b) </text>
<text x="532" y="324" dx="0,0,0,.6,0,0,0,0,0" class="s8_60">y=x$-3≈+x</text>
<path fill-rule="evenodd" d="M620,236.9l-1.7,-2.5l6.6,2.5l-6.6,2.4Z" class="g0_60"/>
<text x="618" y="249" class="s9_60">x</text>
<path fill-rule="evenodd" d="M560.6,177.6l-2.4,1.6l2.4,-6.5l2.4,6.5Z" class="g0_60"/>
<path d="M557.4,212.9h6.2" class="g1_60"/>
<text x="548" y="216" class="s9_60">2</text>
<text x="550" y="179" class="s9_60">y</text>
<path d="M584.5,240v-6.1" class="g1_60"/>
<text x="582" y="229" class="s9_60">1</text>
<path d="M607.5,177.1c-4,27.9,-8,72.6,-19.3,72.6c-8.6,0,-12.6,-14.2,-23.2,-14.2M509.8,177.1c4.3,40.8,8,101.6,20.6,101.6c12.6,.4,15.3,-43.2,34.6,-43.2" class="g2_60"/>
<path d="M500.8,236.8H620.4m-59.8,59.8V177" class="g1_60"/>
<text x="684" y="324" class="s7_60">(c) </text>
<text x="702" y="324" dx="0,0,0,0,1,0,0,0,0,0,0,0,0" class="s8_60">y=3x%-25˛+60x</text>
<path fill-rule="evenodd" d="M809.1,236.7l-1.7,-2.4l6.5,2.4l-6.5,2.5Z" class="g0_60"/>
<text x="807" y="249" class="s9_60">x</text>
<path fill-rule="evenodd" d="M743.9,177.5l-2.5,1.6l2.5,-6.5l2.4,6.5Z" class="g0_60"/>
<path d="M740.7,212.8h6.2" class="g1_60"/>
<text x="725" y="216" class="s9_60">20</text>
<text x="733" y="179" class="s9_60">y</text>
<path d="M767.8,240v-6.1" class="g1_60"/>
<text x="765" y="252" class="s9_60">1</text>
<path d="M802.7,176.9c-1.7,15.6,-2.6,40.4,-10.6,40.4c-10,0,-11.3,-26.2,-24.3,-26.2c-12.2,0,-16.1,23.5,-23.5,45.7m-58.5,59.8c1.7,-15.6,2.6,-40.4,10.6,-40.4c10,0,11.3,26.2,24.3,26.2c12.3,0,16.1,-23.5,23.6,-45.6" class="g2_60"/>
<path d="M684.1,236.7H808.9m-65,59.8V176.9" class="g1_60"/>
<text x="305" y="366" dx="0,0,0,0,0,0,0,0,0,0,0,0,0,0,0,0,0,0,0,0,0,0,0,0,0,0,0,0,0,0,0,0,0,0,0,0,0,0,0,0,-.4,0,0,0,0,0,0,0,0,0,0,0,0,0,0,0,0,0,0,0,0,0,0,0,0,0,0,0,0,0,0,0,0,0,0,0,0,0,0,0,0,0,0,0" class="s5_60">Polynomials are commonly used to model various quantities that occur in the natural </text>
<text x="287" y="385" dx="0,0,0,0,-1,0,0,0,0,0,0,-1,0,0,0,0,0,0,0,0,0,-1,-.2,0,0,-1,0,0,0,0,0,0,0,0,0,-1,0,0,-1,0,0,0,0,0,0,0,-1,0,0,0,-1,0,0,-1,0,0,0,0,-1,-.2,0,0,0,0,0,0,-1,0,-.1,0,-1,0,0,0,0,0,0,0,0,0,0,-1,0,0,0,0,0,-1,0,0,0" class="s5_60">and social sciences. For instance, in Section 3.7 we will explain why economists often use </text>
<text x="287" y="403" dx="0,0,.2,0,0,0,0,0,0,0,0,0,0" class="s5_60">a polynomial </text>
<text x="371" y="403" class="sa_60">P</text>
<text x="381" y="403" class="sb_60">s</text>
<text x="386" y="403" class="sa_60">x</text>
<text x="393" y="403" class="sb_60">d</text>
<text x="402" y="403" dx="0,0,0,.2,0,0,0,0,0,0,0,0,0,.2,0,0,0,.2,0,0,0,0,.2,0,0,.2,0,0,0,0,0,0,0,0,0" class="s5_60">to represent the cost of producing </text>
<text x="613" y="403" class="sa_60">x</text>
<text x="624" y="403" dx="0,0,0,0,0,0,.2,0,0,.2,0,.2,0,0,0,0,0,0,0,0,-1,0,.2,0,0,.2,0,0,0,.2,0,0,0" class="s5_60">units of a commodity. ±n the fol-</text>
<text x="287" y="421" dx="0,0,-.4,0,0,0,0,0,-.2,0,0,0,0,0,0,0,0,0,0,0,0,0,0,0,0,0,0,0,0,0,0,0,0,0,0,0,0,0,0,0,0,0,0,0,0,0,0,0,0,0,0,0,0,0,0,0,0,-.2,0,0,0,0,0,0,0,0,0,0,0,0,0" class="s5_60">lowing example we use a quadratic function to model the fall of a ball.</text>
<text x="287" y="461" dx="0,.3,.3,.3,.3,.3,.3,.2" class="sc_60">EXAMPLE </text>
<text x="358" y="461" class="sd_60">4</text>
<text x="374" y="461" dx="0,-.2,-.2,-.2,-.2,-.2,-.2,-.2,-.2,-.2,-.2,-.2,-.2,-.2,-.2,-.2,-.2,-.2,-.2,-.2,-.2,-.2,-.2,-.2,-.2,-.2,-.2,-.2,-.2,-.2,-.2,-.2,-.2,-.2,-.2,-.2,-.2,-.2,-.2,-.5,-.2,-.2,-.2,-.2,-.2,-.2,-.2,-.2,-.2,-.2,-.2,-.2,-.2,-.2,-.2,-.2,-.2,-.2,-.2,-.2,-.4,-1.4,-.5,-.2,-.2,-.8,-.2,-.2,-.2,-.2,-.2,-.2,0" class="s5_60">A ball is dropped from the upper observation deck of the CN Tower, 450 m </text>
<text x="287" y="480" dx="0,0,0,-.2,-.2,0,0,0,0,0,0,0,0,0,0,0,0,0,0,0,0,0,0,0,0,0,0,0,0,0,0,0,0" class="s5_60">above the ground, and its height </text>
<text x="486" y="480" class="sa_60">h</text>
<text x="498" y="480" dx="0,0,0,-.2,-.2,0,0,0,0,0,0,0,0,0,0,0,0,0,0,0,0,0,0,0,0,0,0,0,0,0,0,0,0,0,0,0,0,0,0,0,0,0,0,0,0,0,0,-.4,0,0,0,0,0,0" class="s5_60">above the ground is recorded at 1-second intervals in </text>
<text x="287" y="498" dx="0,-1.2,0,0,0,0,0,0,0,0,0,0,0,0,0,0,0,0,0,0,0,0,0,0,0,0,0,0,0,0,0,0,0,0,0,0,0,0,0,0,0,0,0,0,0,0,0,0,0,0,0,0,0,0,0,0,0,0,0,0,0,0,0,0,0,0,0,0,0,0,0,0,0,0,0,0,0,0,0,0,0,0,0,0,0,0,0,0" class="s5_60">Table 2. Find a model to It the data and use the model to predict the time at which the </text>
<text x="287" y="516" class="s5_60">ball hits the ground.</text>
<text x="287" y="544" dx="0,.3,.3,.3,.3,.3,.3,.3,.1" class="se_60">SOLUTION </text>
<text x="358" y="544" dx="0,-1.2,0,0,0,0,-.2,0,0,0,0,0,0,0,0,0,0,0,0,0,0,0,0,0,0,0,0,0,0,0,0,0,0,0,0,0,0,0,0,0,0,0,0,0,0,0,0,0,0,0,0,0,0,0,0,0,0,-.2,0,0,0,0,0,0,0,0,0,0,0,0,0,0,0" class="s5_60">We draw a scatter plot of the data in Figure 9 and observe that a linear </text>
<text x="287" y="562" class="s5_60">model is inappropriate. But it looks as if the data points might lie on a parabola, so we </text>
<text x="287" y="580" class="s5_60">try a quadratic model instead. Using a graphing calculator or computer algebra system </text>
<text x="287" y="599" dx="0,0,0,0,0,0,0,0,0,0,0,0,0,0,0,0,0,0,0,0,0,0,0,0,0,0,0,0,0,0,0,0,0,0,0,0,0,0,0,0,0,0,0,0,0,0,0,0,0,0,0,0,0,0,0,0,0,0,-.4,0,0,0,0,0,0,0,0,0,0,0,0,0,0,0,0,0,0,0,0" class="s5_60">(which uses the least squares method), we obtain the following quadratic model:</text>
<text x="312" y="635" class="sf_60">3</text>
<path d="M310.5,622.1c0,0,-1.5,0,-1.5,1.5v14.2c0,0,0,1.5,1.5,1.5h14.2c0,0,1.5,0,1.5,-1.5V623.6c0,0,0,-1.5,-1.5,-1.5H310.5Z" class="g3_60"/>
<text x="463" y="635" class="sa_60">h</text>
<text x="476" y="635" class="sg_60">-</text>
<text x="493" y="635" class="s5_60">449.36</text>
<text x="539" y="635" class="sh_60">1</text>
<text x="557" y="635" class="s5_60">0.96</text>
<text x="584" y="635" class="sa_60">t</text>
<text x="593" y="635" class="sh_60">2</text>
<text x="610" y="635" class="s5_60">4.90</text>
<text x="638" y="635" class="sa_60">t</text>
<text x="643" y="629" class="si_60">2</text>
<path d="M594.5,701.4c73.8,0,133.2,60.2,179.4,124.7" class="g4_60"/>
<path d="M566.7,826.1h213" class="g5_60"/>
<path fill-rule="evenodd" d="M779.7,826.1L778,823.7l6.6,2.4l-6.6,2.5Z" class="g0_60"/>
<path d="M591.4,715h6.2m-6.2,55.6h6.2" class="g5_60"/>
<text x="628" y="841" class="sj_60">2</text>
<path d="M742.6,823v6.2m-37,-6.2v6.2m-37,-6.2v6.2M631.5,823v6.2" class="g5_60"/>
<text x="568" y="774" class="sk_60">200</text>
<text x="569" y="719" class="sk_60">400</text>
<text x="665" y="841" dx="0,30.8,30.3" class="sk_60">468</text>
<text x="779" y="838" class="sk_60">t</text>
<path d="M593.5,701.1c0,-.5,.5,-.9,1,-.9c.5,0,1,.4,1,.9c0,.6,-.5,1,-1,1c-.5,0,-1,-.4,-1,-1Z" class="g6_60"/>
<path d="M593.5,701.1c0,-.5,.5,-.9,1,-.9c.5,0,1,.4,1,.9c0,.6,-.5,1,-1,1c-.5,0,-1,-.4,-1,-1Z" class="g7_60"/>
<path d="M612.1,702.5c0,-.5,.4,-.9,.9,-.9c.6,0,1,.4,1,.9c0,.6,-.4,1,-1,1c-.5,0,-.9,-.4,-.9,-1Z" class="g6_60"/>
<path d="M612.1,702.5c0,-.5,.4,-.9,.9,-.9c.6,0,1,.4,1,.9c0,.6,-.4,1,-1,1c-.5,0,-.9,-.4,-.9,-1Z" class="g7_60"/>
<path d="M630.6,706.4c0,-.5,.4,-.9,.9,-.9c.6,0,1,.4,1,.9c0,.6,-.4,1,-1,1c-.5,0,-.9,-.4,-.9,-1Z" class="g6_60"/>
<path d="M630.6,706.4c0,-.5,.4,-.9,.9,-.9c.6,0,1,.4,1,.9c0,.6,-.4,1,-1,1c-.5,0,-.9,-.4,-.9,-1Z" class="g7_60"/>
<path d="M649.1,712.8c0,-.5,.4,-.9,1,-.9c.5,0,.9,.4,.9,.9c0,.5,-.4,1,-.9,1c-.6,0,-1,-.5,-1,-1Z" class="g6_60"/>
<path d="M649.1,712.8c0,-.5,.4,-.9,1,-.9c.5,0,.9,.4,.9,.9c0,.5,-.4,1,-.9,1c-.6,0,-1,-.5,-1,-1Z" class="g7_60"/>
<path d="M667.6,722c0,-.6,.4,-1,1,-1c.5,0,.9,.4,.9,1c0,.5,-.4,.9,-.9,.9c-.6,0,-1,-.4,-1,-.9Z" class="g6_60"/>
<path d="M667.6,722c0,-.6,.4,-1,1,-1c.5,0,.9,.4,.9,1c0,.5,-.4,.9,-.9,.9c-.6,0,-1,-.4,-1,-.9Z" class="g7_60"/>
<path d="M686.1,733.9c0,-.5,.5,-.9,1,-.9c.5,0,1,.4,1,.9c0,.6,-.5,1,-1,1c-.5,0,-1,-.4,-1,-1Z" class="g6_60"/>
<path d="M686.1,733.9c0,-.5,.5,-.9,1,-.9c.5,0,1,.4,1,.9c0,.6,-.5,1,-1,1c-.5,0,-1,-.4,-1,-1Z" class="g7_60"/>
<path d="M704.6,748.6c0,-.5,.5,-.9,1,-.9c.5,0,1,.4,1,.9c0,.6,-.5,1,-1,1c-.5,0,-1,-.4,-1,-1Z" class="g6_60"/>
<path d="M704.6,748.6c0,-.5,.5,-.9,1,-.9c.5,0,1,.4,1,.9c0,.6,-.5,1,-1,1c-.5,0,-1,-.4,-1,-1Z" class="g7_60"/>
<path d="M723.2,766.1c0,-.5,.4,-.9,.9,-.9c.6,0,1,.4,1,.9c0,.6,-.4,1,-1,1c-.5,0,-.9,-.4,-.9,-1Z" class="g6_60"/>
<path d="M723.2,766.1c0,-.5,.4,-.9,.9,-.9c.6,0,1,.4,1,.9c0,.6,-.4,1,-1,1c-.5,0,-.9,-.4,-.9,-1Z" class="g7_60"/>
<path d="M741.7,786.4c0,-.5,.4,-1,.9,-1c.6,0,1,.5,1,1c0,.6,-.4,1,-1,1c-.5,0,-.9,-.4,-.9,-1Z" class="g6_60"/>
<path d="M741.7,786.4c0,-.5,.4,-1,.9,-1c.6,0,1,.5,1,1c0,.6,-.4,1,-1,1c-.5,0,-.9,-.4,-.9,-1Z" class="g7_60"/>
<path d="M760.2,809.2c0,-.5,.4,-1,1,-1c.5,0,.9,.5,.9,1c0,.5,-.4,.9,-.9,.9c-.6,0,-1,-.4,-1,-.9Z" class="g6_60"/>
<path d="M760.2,809.2c0,-.5,.4,-1,1,-1c.5,0,.9,.5,.9,1c0,.5,-.4,.9,-.9,.9c-.6,0,-1,-.4,-1,-.9Z" class="g7_60"/>
<text x="585" y="838" class="sk_60">0</text>
<g clip-path="url(#c0_60)">
<path d="M267.4,826.1H498.8" class="g5_60"/>
</g>
<path fill-rule="evenodd" d="M498.8,826.1l-1.6,-2.4l6.6,2.4l-6.6,2.5Z" class="g0_60"/>
<path d="M310.6,715h6.2m-6.2,55.6h6.2" class="g5_60"/>
<text x="288" y="774" class="sk_60">200</text>
<text x="288" y="719" class="sk_60">400</text>
<text x="499" y="838" class="sk_60">t</text>
<text x="477" y="850" class="sl_60">(seconds)</text>
<path d="M312.7,701.1c0,-.5,.4,-.9,1,-.9c.5,0,.9,.4,.9,.9c0,.6,-.4,1,-.9,1c-.6,0,-1,-.4,-1,-1Z" class="g6_60"/>
<path d="M312.7,701.1c0,-.5,.4,-.9,1,-.9c.5,0,.9,.4,.9,.9c0,.6,-.4,1,-.9,1c-.6,0,-1,-.4,-1,-1Z" class="g7_60"/>
<text x="304" y="838" class="sk_60">0</text>
<text x="347" y="841" class="sk_60">2</text>
<path d="M461.8,823v6.2m-37,-6.2v6.2M387.7,823v6.2m-37,-6.2v6.2" class="g5_60"/>
<text x="384" y="841" dx="0,30.8,30.3" class="sk_60">468</text>
<path d="M331.2,702.5c0,-.5,.5,-.9,1,-.9c.5,0,.9,.4,.9,.9c0,.6,-.4,1,-.9,1c-.5,0,-1,-.4,-1,-1Z" class="g6_60"/>
<path d="M331.2,702.5c0,-.5,.5,-.9,1,-.9c.5,0,.9,.4,.9,.9c0,.6,-.4,1,-.9,1c-.5,0,-1,-.4,-1,-1Z" class="g7_60"/>
<path d="M349.7,706.4c0,-.5,.5,-.9,1,-.9c.5,0,1,.4,1,.9c0,.6,-.5,1,-1,1c-.5,0,-1,-.4,-1,-1Z" class="g6_60"/>
<path d="M349.7,706.4c0,-.5,.5,-.9,1,-.9c.5,0,1,.4,1,.9c0,.6,-.5,1,-1,1c-.5,0,-1,-.4,-1,-1Z" class="g7_60"/>
<path d="M368.3,712.8c0,-.5,.4,-.9,.9,-.9c.6,0,1,.4,1,.9c0,.5,-.4,1,-1,1c-.5,0,-.9,-.5,-.9,-1Z" class="g6_60"/>
<path d="M368.3,712.8c0,-.5,.4,-.9,.9,-.9c.6,0,1,.4,1,.9c0,.5,-.4,1,-1,1c-.5,0,-.9,-.5,-.9,-1Z" class="g7_60"/>
<path d="M386.8,722c0,-.6,.4,-1,.9,-1c.6,0,1,.4,1,1c0,.5,-.4,.9,-1,.9c-.5,0,-.9,-.4,-.9,-.9Z" class="g6_60"/>
<path d="M386.8,722c0,-.6,.4,-1,.9,-1c.6,0,1,.4,1,1c0,.5,-.4,.9,-1,.9c-.5,0,-.9,-.4,-.9,-.9Z" class="g7_60"/>
<path d="M405.3,733.9c0,-.5,.4,-.9,1,-.9c.5,0,.9,.4,.9,.9c0,.6,-.4,1,-.9,1c-.6,0,-1,-.4,-1,-1Z" class="g6_60"/>
<path d="M405.3,733.9c0,-.5,.4,-.9,1,-.9c.5,0,.9,.4,.9,.9c0,.6,-.4,1,-.9,1c-.6,0,-1,-.4,-1,-1Z" class="g7_60"/>
<path d="M423.8,748.6c0,-.5,.4,-.9,1,-.9c.5,0,.9,.4,.9,.9c0,.6,-.4,1,-.9,1c-.6,0,-1,-.4,-1,-1Z" class="g6_60"/>
<path d="M423.8,748.6c0,-.5,.4,-.9,1,-.9c.5,0,.9,.4,.9,.9c0,.6,-.4,1,-.9,1c-.6,0,-1,-.4,-1,-1Z" class="g7_60"/>
<path d="M442.3,766.1c0,-.5,.5,-.9,1,-.9c.5,0,.9,.4,.9,.9c0,.6,-.4,1,-.9,1c-.5,0,-1,-.4,-1,-1Z" class="g6_60"/>
<path d="M442.3,766.1c0,-.5,.5,-.9,1,-.9c.5,0,.9,.4,.9,.9c0,.6,-.4,1,-.9,1c-.5,0,-1,-.4,-1,-1Z" class="g7_60"/>
<path d="M460.8,786.4c0,-.5,.5,-1,1,-1c.5,0,1,.5,1,1c0,.6,-.5,1,-1,1c-.5,0,-1,-.4,-1,-1Z" class="g6_60"/>
<path d="M460.8,786.4c0,-.5,.5,-1,1,-1c.5,0,1,.5,1,1c0,.6,-.5,1,-1,1c-.5,0,-1,-.4,-1,-1Z" class="g7_60"/>
<path d="M479.4,809.2c0,-.5,.4,-1,.9,-1c.6,0,1,.5,1,1c0,.5,-.4,.9,-1,.9c-.5,0,-.9,-.4,-.9,-.9Z" class="g6_60"/>
<path d="M479.4,809.2c0,-.5,.4,-1,.9,-1c.6,0,1,.5,1,1c0,.5,-.4,.9,-1,.9c-.5,0,-.9,-.4,-.9,-.9Z" class="g7_60"/>
<path d="M594.5,848.5V673.4" class="g5_60"/>
<path fill-rule="evenodd" d="M594.5,673.4L592,675l2.5,-6.6L597,675Z" class="g0_60"/>
<text x="582" y="675" class="sk_60">h</text>
<path d="M313.7,848.5V673.4" class="g5_60"/>
<path fill-rule="evenodd" d="M313.7,673.4l-2.5,1.6l2.5,-6.6l2.4,6.6Z" class="g0_60"/>
<text x="302" y="675" class="sk_60">h</text>
<text x="320" y="676" class="sl_60">(meters)</text>
<text x="305" y="942" class="s5_60">±n Figure 10 we plot the graph of Equation 3 together with the data points and see </text>
<text x="287" y="961" dx="0,0,0,0,0,0,0,0,0,0,0,0,0,0,0,0,0,0,0,0,0,0,0,0,0,0,0,-.4,-.2,0,0,0,0,0,-.2,0,0,0,0,0,0,0,0,0,0,0" class="s5_60">that the quadratic model gives a very good It.</text>
<text x="305" y="979" class="s5_60">The ball hits the ground when </text>
<text x="492" y="979" class="sa_60">h</text>
<text x="504" y="979" class="sg_60">-</text>
<text x="521" y="979" dx="0,0,0,0,0,0,0,0,0,0,0,0,0,-.2,0,0,0,0,0,0,0,0,0,0,0,0,0,0,0,0,0,0,0,0,0,0,0" class="s5_60">0, so we solve the quadratic equation</text>
<text x="456" y="1016" class="sh_60">2</text>
<text x="469" y="1016" class="s5_60">4.90</text>
<text x="496" y="1016" class="sa_60">t</text>
<text x="502" y="1010" class="si_60">2</text>
<text x="511" y="1016" class="sh_60">1</text>
<text x="529" y="1016" class="s5_60">0.96</text>
<text x="556" y="1016" class="sa_60">t</text>
<text x="565" y="1016" class="sh_60">1</text>
<text x="582" y="1016" class="s5_60">449.36</text>
<text x="629" y="1016" class="sg_60">-</text>
<text x="646" y="1016" class="s5_60">0</text>
<text x="212" y="317" dx="0,.3,.3,.3,.3,.3,.1" class="sm_60">FIGURE </text>
<text x="265" y="317" class="sn_60">8</text>
<path d="M53.9,467.7h82.5V512H53.9Zm82.5,0h82.5V512H136.4Z" class="g8_60"/>
<path d="M136.4,511.6V468m0,62.7V512.4m0,36.6V530.7m0,36.7V549m0,36.7V567.4m0,36.6V585.7m0,36.7V604m0,36.7V622.4m0,36.6V640.7m0,36.7V659m0,39.4v-21M53.9,530.7V512.4m165,18.3V512.4M53.9,549V530.7m165,18.3V530.7m-165,36.7V549m165,18.4V549m-165,36.7V567.4m165,18.3V567.4M53.9,604V585.7m165,18.3V585.7m-165,36.7V604m165,18.4V604m-165,36.7V622.4m165,18.3V622.4M53.9,659V640.7m165,18.3V640.7m-165,36.7V659m165,18.4V659m-165,39.4v-21m165,21v-21M53.5,698.7h82.9m0,0h82.9M53.5,467.7h82.9M53.9,511.6V468m82.5,-.3h82.9m-.4,43.9V468M53.5,512h82.9m0,0h82.9" class="g9_60"/>
<text x="80" y="486" dx="0,-.5,0,0,0" class="so_60">Time </text>
<text x="68" y="502" class="so_60">(seconds)</text>
<text x="158" y="486" class="so_60">Height </text>
<text x="154" y="502" class="so_60">(meters)</text>
<text x="91" y="526" class="so_60">0</text>
<text x="167" y="526" class="so_60">450</text>
<text x="91" y="544" class="so_60">1</text>
<text x="167" y="544" class="so_60">445</text>
<text x="91" y="562" class="so_60">2</text>
<text x="167" y="562" class="so_60">431</text>
<text x="91" y="581" class="so_60">3</text>
<text x="167" y="581" class="so_60">408</text>
<text x="91" y="599" class="so_60">4</text>
<text x="167" y="599" class="so_60">375</text>
<text x="91" y="617" class="so_60">5</text>
<text x="167" y="617" class="so_60">332</text>
<text x="91" y="636" class="so_60">6</text>
<text x="167" y="636" class="so_60">279</text>
<text x="91" y="654" class="so_60">7</text>
<text x="167" y="654" class="so_60">216</text>
<text x="91" y="672" class="so_60">8</text>
<text x="167" y="672" class="so_60">143</text>
<text x="91" y="691" class="so_60">9</text>
<text x="175" y="691" class="so_60">61</text>
<text x="112" y="460" dx="0,-1,0,0,0,0" class="sm_60">Table </text>
<text x="150" y="460" class="sn_60">2</text>
<text x="287" y="879" dx="0,.1,.1,.1,.1,.1,0" class="sm_60">FIGURE </text>
<text x="338" y="879" class="sn_60">9 </text>
<text x="287" y="895" dx="0,-.1,-.1,-.1,-.1,-.1,-.1,-.1,-.1,-.1,-.1,-.1,-.1,-.1,-.1,-.1,-.1,-.1,-.1,-.1,-.3,-.1,-.1,-.1,-.1,-.1,-.1,-.1,-.1,-.1,-.1" class="so_60">Scatter plot for a falling ball</text>
<text x="565" y="879" dx="0,.1,.1,.1,.1,.1,0" class="sm_60">FIGURE </text>
<text x="616" y="879" dx="0,-1.2,0" class="sn_60">10 </text>
<text x="565" y="895" dx="0,-.1,-.1,-.1,-.1,-.1,-.1,-.1,-.1,-.1,-.1,-.1,-.1,-.1,-.1,-.1,-.1,-.1,-.1,-.1,-.1,-.1,-.1,-.3,-.1,-.1,-.1,-.1,-.1,-.1,-.1,-.1,-.1,-.1" class="so_60">Quadratic model for a falling ball</text>
<text x="121" y="1076" class="sp_60">Copyright 2016 Cengage Learning. All Rights Reserved. May not be copied, scanned, or duplicated, in whole or in part. Due to electronic rights, some third party content may be suppressed from the eBook and/or eChapter(s).</text>
<text x="106" y="1087" class="sp_60">Editorial review has deemed that any suppressed content does not materially affect the overall learning experience. Cengage Learning reserves the right to remove additional content at any time if subsequent rights restrictions require it.</text>

</g>

<!-- Any embedded fonts defined here -->
<style type="text/css" ><![CDATA[

@font-face {
	font-family: MathematicalPiLTStd-1_rr;
	src: url("fonts/MathematicalPiLTStd-1_rr.woff") format("woff");
}

@font-face {
	font-family: MathematicalPiLTStd-3_ry;
	src: url("fonts/MathematicalPiLTStd-3_ry.woff") format("woff");
}

@font-face {
	font-family: MathematicalPiLTStd-5_vb;
	src: url("fonts/MathematicalPiLTStd-5_vb.woff") format("woff");
}

@font-face {
	font-family: MyriadPro-BoldSemiCn_90;
	src: url("fonts/MyriadPro-BoldSemiCn_90.woff") format("woff");
}

@font-face {
	font-family: MyriadPro-Bold_74;
	src: url("fonts/MyriadPro-Bold_74.woff") format("woff");
}

@font-face {
	font-family: MyriadPro-Regular_4i;
	src: url("fonts/MyriadPro-Regular_4i.woff") format("woff");
}

@font-face {
	font-family: MyriadPro-Semibold_49;
	src: url("fonts/MyriadPro-Semibold_49.woff") format("woff");
}

@font-face {
	font-family: TECHMath-Mix_19d;
	src: url("fonts/TECHMath-Mix_19d.woff") format("woff");
}

@font-face {
	font-family: TECHMath-Mix_19j;
	src: url("fonts/TECHMath-Mix_19j.woff") format("woff");
}

@font-face {
	font-family: TECHMath-Mix_19n;
	src: url("fonts/TECHMath-Mix_19n.woff") format("woff");
}

@font-face {
	font-family: Times-Roman_4n;
	src: url("fonts/Times-Roman_4n.woff") format("woff");
}

@font-face {
	font-family: Times-Roman_n6;
	src: url("fonts/Times-Roman_n6.woff") format("woff");
}

@font-face {
	font-family: TimesLTStd-Bold_oh;
	src: url("fonts/TimesLTStd-Bold_oh.woff") format("woff");
}

@font-face {
	font-family: TimesLTStd-Italic_o3;
	src: url("fonts/TimesLTStd-Italic_o3.woff") format("woff");
}

@font-face {
	font-family: TimesLTStd-Roman_143;
	src: url("fonts/TimesLTStd-Roman_143.woff") format("woff");
}

]]></style>

</svg>
