<?xml version="1.0" encoding="UTF-8" standalone="no"?>
<!DOCTYPE svg PUBLIC "-//W3C//DTD SVG 1.1//EN"
"http://www.w3.org/Graphics/SVG/1.1/DTD/svg11.dtd">


<!-- Page 62 -->
<svg x="0" y="0" width="931" height="1096" viewBox="0 0 931 1096" version="1.1" xmlns="http://www.w3.org/2000/svg" xmlns:xlink="http://www.w3.org/1999/xlink"
style="display: block;margin-left: auto;margin-right: auto;">
<defs>
<clipPath id="c_62"><path d="M0,0H931V1096H0Z"/></clipPath>
<clipPath id="c0_62"><path d="M756.8,114.8V97.6h49.5v17.2Z"/></clipPath>
<clipPath id="c1_62"><path d="M392.5,134.4v-17H442v17Z"/></clipPath>
<clipPath id="c2_62"><path d="M707.5,133.1V115.9h69.4v17.2Z"/></clipPath>
<clipPath id="c3_62"><path d="M469.8,169.8V152.6h49.5v17.2Z"/></clipPath>
<clipPath id="c4_62"><path d="M532.4,496.6V465.1h45.9v31.5Z"/></clipPath>
<clipPath id="c5_62"><path d="M514.6,710.3V674.4h81.6v35.9Z"/></clipPath>
<clipPath id="c6_62"><path d="M486.2,825.3V791.4H624.6v33.9Z"/></clipPath>
<clipPath id="c7_62"><path d="M363.6,1014.6V997.4H466.5v17.2Z"/></clipPath>
<clipPath id="c8_62"><path d="M512.3,1025.8V988.5H747.1v37.3Z"/></clipPath>

<style type="text/css"><![CDATA[
text { white-space: pre; }
path, image { pointer-events: none; }

.s1_62{
font-size: 15.28px;
font-family: MyriadPro-Semibold_49;
fill: #231F20;
}
.s2_62{
font-size: 12.22px;
font-family: MyriadPro-Semibold_49;
fill: #231F20;
}
.s3_62{
font-size: 13.75px;
font-family: MyriadPro-Semibold_49;
fill: #231F20;
}
.s4_62{
font-size: 12.22px;
font-family: MyriadPro-Regular_4i;
fill: #231F20;
}
.s5_62{
font-size: 15.28px;
font-family: TimesLTStd-Roman_143;
fill: #231F20;
}
.s6_62{
font-size: 15.28px;
font-family: TimesLTStd-Italic_o3;
fill: #231F20;
}
.s7_62{
font-size: 15.28px;
font-family: MathematicalPiLTStd-5_vb;
fill: #231F20;
}
.s8_62{
font-size: 9.17px;
font-family: TimesLTStd-Roman_143;
fill: #231F20;
}
.s9_62{
font-size: 15.28px;
font-family: BeaconDingbatsTypeOne_12w;
fill: #231F20;
}
.sa_62{
font-size: 7.33px;
font-family: TimesLTStd-Italic_o3;
fill: #231F20;
}
.sb_62{
font-size: 15.28px;
font-family: MathematicalPiLTStd-3_ry;
fill: #231F20;
}
.sc_62{
font-size: 7.33px;
font-family: TimesLTStd-Roman_143;
fill: #231F20;
}
.sd_62{
font-size: 15.28px;
font-family: MathematicalPiLTStd-6_13j;
fill: #231F20;
}
.se_62{
font-size: 15.28px;
font-family: MathematicalPiLTStd-1_rr;
fill: #231F20;
}
.sf_62{
font-size: 13.12px;
font-family: Times-Roman_n6;
fill: #231F20;
}
.sg_62{
font-size: 13.12px;
font-family: TECHMath-Mix_1a1;
fill: #231F20;
}
.sh_62{
font-size: 12.34px;
font-family: TECHMath-Mix_1a1;
fill: #231F20;
}
.si_62{
font-size: 15.28px;
font-family: MyriadPro-Bold_74;
fill: #CC017A;
}
.sj_62{
font-size: 15.28px;
font-family: TimesLTStd-BoldItalic_12r;
fill: #231F20;
}
.sk_62{
font-size: 15.28px;
font-family: TimesLTStd-Bold_oh;
fill: #231F20;
}
.sl_62{
font-size: 9.17px;
font-family: MathematicalPiLTStd-1_rr;
fill: #231F20;
}
.sm_62{
font-size: 16.81px;
font-family: MyriadPro-Semibold_49;
fill: #231F20;
}
.sn_62{
font-size: 24.44px;
font-family: MathematicalPiLTStd-3_ry;
fill: #231F20;
}
.so_62{
font-size: 14.51px;
font-family: MyriadPro-Bold_74;
fill: #231F20;
}
.sp_62{
font-size: 15.28px;
font-family: MyriadPro-Bold_74;
fill: #231F20;
}
.sq_62{
font-size: 13.75px;
font-family: TimesLTStd-Roman_143;
fill: #231F20;
}
.sr_62{
font-size: 12.34px;
font-family: TECHMath-Mix_16a;
fill: #231F20;
}
.ss_62{
font-size: 12.34px;
font-family: TECHMath-Mix_13x;
fill: #231F20;
}
.st_62{
font-size: 12.34px;
font-family: TECHMath-Mix_19t;
fill: #231F20;
}
.su_62{
font-size: 13.12px;
font-family: TECHMath-Mix_1a5;
fill: #231F20;
}
.sv_62{
font-size: 12.22px;
font-family: TECHMath-Mix_16i;
fill: #231F20;
}
.sw_62{
font-size: 12.22px;
font-family: TECHMath-Mix_1a5;
fill: #231F20;
}
.sx_62{
font-size: 12.22px;
font-family: TECHMath-Mix_13x;
fill: #231F20;
}
.sy_62{
font-size: 13.75px;
font-family: TECHMath-Mix_1a1;
fill: #231F20;
}
.sz_62{
font-size: 13.75px;
font-family: TECHMath-Mix_19d;
fill: #231F20;
}
.s10_62{
font-size: 13.75px;
font-family: TECHMath-Mix_wh;
fill: #231F20;
}
.s11_62{
font-size: 12.22px;
font-family: TECHMath-Mix_-x;
fill: #231F20;
}
.s12_62{
font-size: 12.22px;
font-family: TECHMath-Mix_16e;
fill: #231F20;
}
.s13_62{
font-size: 7.64px;
font-family: Times-Roman_4n;
fill: #000000;
}

.g0_62{
fill: none;
stroke: #231F20;
stroke-width: 0.763;
stroke-linecap: butt;
stroke-linejoin: miter;
}
.g1_62{
fill: none;
stroke: #00AEEF;
stroke-width: 0.925;
stroke-linecap: butt;
stroke-linejoin: round;
stroke-miterlimit: 3;
}
.g2_62{
fill: #00AEEF;
}
.g3_62{
fill: none;
stroke: #00AEEF;
stroke-width: 0.771;
stroke-linecap: butt;
stroke-linejoin: miter;
stroke-miterlimit: 3;
}
.g4_62{
fill: none;
stroke: #231F20;
stroke-width: 0.617;
stroke-linecap: butt;
stroke-linejoin: miter;
stroke-miterlimit: 3;
}
.g5_62{
fill: #231F20;
}
.g6_62{
fill: #CC017A;
}
.g7_62{
fill: none;
stroke: #00AEEF;
stroke-width: 0.916;
stroke-linecap: butt;
stroke-linejoin: round;
stroke-miterlimit: 3;
}
.g8_62{
fill: none;
stroke: #231F20;
stroke-width: 0.611;
stroke-linecap: butt;
stroke-linejoin: miter;
stroke-miterlimit: 3;
}
.g9_62{
fill: none;
stroke: #231F20;
stroke-width: 0.534;
stroke-linecap: butt;
stroke-linejoin: miter;
stroke-miterlimit: 3;
}
.ga_62{
fill: none;
stroke: #231F20;
stroke-width: 0.611;
stroke-linecap: butt;
stroke-linejoin: miter;
stroke-miterlimit: 3;
stroke-dasharray: 8,4;
}
.gb_62{
fill: none;
stroke: #231F20;
stroke-width: 0.611;
stroke-linecap: butt;
stroke-linejoin: miter;
stroke-miterlimit: 3;
stroke-dasharray: 7,4;
}

]]></style>

</defs>
<g clip-path="url(#c_62)">
<path d="M0,0
L0,1096
L931,1096
L931,0 Z " 
fill="#FFFFFF" stroke="none"/>
<text x="53" y="64" class="s1_62">30</text>
<text x="126" y="64" dx="0,.2,.2,.2,.2,.2,.2,.1" class="s2_62">CHAPTER </text>
<text x="180" y="64" class="s3_62">1</text>
<text x="200" y="64" dx="0,-.3,.1,.1,.3,.1,.1,.1,.1,.1,.1,.1,.1,.1,.1,.2,.1,.1,.1,.1" class="s4_62">Functions and Models</text>
<text x="287" y="111" class="s5_62">parabola </text>
<text x="344" y="111" class="s6_62">x</text>
<text x="355" y="111" class="s7_62">-</text>
<text x="372" y="111" class="s6_62">y</text>
<text x="380" y="105" class="s8_62">2</text>
<text x="385" y="111" dx="0,0,0,0,0,0,0,0,0,0,0,0,0,0,0,0,0,0,0,0,0,0,0,-.2,0,0,0,0,0,0,0,0,0,-.4,-.2,0,0,0,-.4,0,0,0,0,0,0,0,0" class="s5_62">. [See Figure 13(a).] For other even values of </text>
<text x="663" y="111" class="s6_62">n</text>
<text x="671" y="111" class="s5_62">, the graph of </text>
<text x="757" y="111" class="s6_62">y</text>
<text x="768" y="111" class="s7_62">-</text>
<text x="785" y="112" class="s9_62">s</text>
<text x="788" y="105" class="sa_62">n</text>
<text x="797" y="111" class="s6_62">x</text>
<g clip-path="url(#c0_62)">
<path d="M797.6,97.9h9.1" class="g0_62"/>
</g>
<text x="810" y="111" class="s5_62">is </text>
<text x="287" y="129" class="s5_62">similar to that of </text>
<text x="392" y="129" class="s6_62">y</text>
<text x="404" y="129" class="s7_62">-</text>
<text x="421" y="131" class="s9_62">s</text>
<text x="433" y="129" class="s6_62">x</text>
<g clip-path="url(#c1_62)">
<path d="M433.3,117.8h9.1" class="g0_62"/>
</g>
<text x="442" y="129" dx="0,0,0,-.2,0,0" class="s5_62">. For </text>
<text x="474" y="129" class="s6_62">n</text>
<text x="486" y="129" class="s7_62">-</text>
<text x="503" y="129" dx="0,0,0,0,0,0,0,-.3,-.2,0,0,0,0,0,0,0,0,0,0,0,0,0,0,0,0,0,0,0,0,0,0,0,0" class="s5_62">3 we have the cube root function </text>
<text x="709" y="129" class="s6_62">f</text>
<text x="717" y="129" class="sb_62">s</text>
<text x="722" y="129" class="s6_62">x</text>
<text x="729" y="129" class="sb_62">d</text>
<text x="739" y="129" class="s7_62">-</text>
<text x="756" y="130" class="s9_62">s</text>
<text x="759" y="123" class="sc_62">3</text>
<text x="767" y="129" class="s6_62">x</text>
<g clip-path="url(#c2_62)">
<path d="M768.3,116.3h9" class="g0_62"/>
</g>
<text x="780" y="129" class="s5_62">whose </text>
<text x="287" y="148" class="s5_62">domain is </text>
<text x="350" y="148" class="sd_62">R</text>
<text x="365" y="148" dx="0,0,0,0,0,0,0,0,0,0,0,0,0,0,-.4,-.2,0,0,0,0,0,0,0,0,0,0,0,0,0,0,0,0,0,0,0,0,0,0,0,0,0,0,0,0,0,0,0,0,0,0,0,0,0,0,0,0,0,0,0,0,0,0,0,0,0,0,0,0,0,0,-.4,0,0" class="s5_62">(recall that every real number has a cube root) and whose graph is shown </text>
<text x="287" y="166" dx="0,0,0,0,0,0,0,0,0,0,0,0,0,0,0,0,0,-.3,0,0,0,0,0,0,0,0,0,0,0,0" class="s5_62">in Figure 13(b). The graph of </text>
<text x="470" y="166" class="s6_62">y</text>
<text x="481" y="166" class="s7_62">-</text>
<text x="498" y="167" class="s9_62">s</text>
<text x="501" y="160" class="sa_62">n</text>
<text x="510" y="166" class="s6_62">x</text>
<g clip-path="url(#c3_62)">
<path d="M510.6,152.9h9.1" class="g0_62"/>
</g>
<text x="523" y="166" class="s5_62">for </text>
<text x="544" y="166" class="s6_62">n</text>
<text x="556" y="166" class="s5_62">odd </text>
<text x="582" y="166" class="sb_62">s</text>
<text x="587" y="166" class="s6_62">n</text>
<text x="600" y="166" class="se_62">.</text>
<text x="617" y="166" class="s5_62">3</text>
<text x="625" y="166" class="sb_62">d</text>
<text x="634" y="166" class="s5_62">is similar to that of </text>
<text x="753" y="166" class="s6_62">y</text>
<text x="765" y="166" class="s7_62">-</text>
<text x="782" y="167" class="s9_62">s</text>
<text x="785" y="160" class="sc_62">3</text>
<text x="793" y="166" class="s6_62">x</text>
<path d="M794.1,152.9h9" class="g0_62"/>
<text x="803" y="166" class="s5_62">.</text>
<text x="643" y="322" class="sf_62">(b) </text>
<text x="662" y="322" class="sg_62">ƒ=Œ„</text>
<path d="M583.4,283.2C633.5,274,676,272.3,676,246c0,-26.2,42.4,-27.9,92.5,-37.1" class="g1_62"/>
<path d="M697.4,222.9c0,-1,.7,-1.7,1.7,-1.7c1,0,1.7,.7,1.7,1.7c0,1,-.7,1.7,-1.7,1.7c-1,0,-1.7,-.7,-1.7,-1.7Z" class="g2_62"/>
<path d="M697.4,222.9c0,-1,.7,-1.7,1.7,-1.7c1,0,1.7,.7,1.7,1.7c0,1,-.7,1.7,-1.7,1.7c-1,0,-1.7,-.7,-1.7,-1.7Z" class="g3_62"/>
<path d="M429.8,246c0,-23.5,64.9,-38.7,92.5,-46.2" class="g1_62"/>
<path d="M451.2,222.9c0,-1,.7,-1.7,1.7,-1.7c1,0,1.7,.7,1.7,1.7c0,1,-.7,1.7,-1.7,1.7c-1,0,-1.7,-.7,-1.7,-1.7Z" class="g2_62"/>
<path d="M451.2,222.9c0,-1,.7,-1.7,1.7,-1.7c1,0,1.7,.7,1.7,1.7c0,1,-.7,1.7,-1.7,1.7c-1,0,-1.7,-.7,-1.7,-1.7Z" class="g3_62"/>
<text x="705" y="321" class="sg_62">x</text>
<path d="M583.4,246H768.5" class="g4_62"/>
<path fill-rule="evenodd" d="M768.5,246l-1.6,-2.5l6.6,2.5l-6.6,2.5Z" class="g5_62"/>
<text x="767" y="258" class="sh_62">x</text>
<path d="M676,297V190.5" class="g4_62"/>
<path fill-rule="evenodd" d="M676,190.5l-2.5,1.6l2.5,-6.6l2.4,6.6Z" class="g5_62"/>
<text x="665" y="192" class="sh_62">y</text>
<text x="679" y="258" class="sh_62">0</text>
<text x="693" y="237" dx="0,0,0,0,0,-.8" class="sh_62">(1, 1)</text>
<text x="397" y="322" class="sf_62">(a) </text>
<text x="415" y="322" class="sg_62">ƒ=œ„</text>
<text x="458" y="321" class="sg_62">x</text>
<path d="M337.2,246H522.4" class="g4_62"/>
<path fill-rule="evenodd" d="M522.4,246l-1.6,-2.5l6.6,2.5l-6.6,2.5Z" class="g5_62"/>
<text x="521" y="258" class="sh_62">x</text>
<path d="M429.8,297V190.5" class="g4_62"/>
<path fill-rule="evenodd" d="M429.8,190.5l-2.4,1.6l2.4,-6.6l2.5,6.6Z" class="g5_62"/>
<text x="419" y="192" class="sh_62">y</text>
<text x="433" y="258" class="sh_62">0</text>
<text x="449" y="236" class="sh_62">(1, 1)</text>
<text x="287" y="357" class="si_62">(iii)</text>
<text x="317" y="357" class="sj_62">a</text>
<text x="329" y="357" class="s7_62">-</text>
<text x="346" y="357" class="se_62">2</text>
<text x="359" y="357" class="sk_62">1</text>
<text x="286" y="375" class="s5_62">The graph of the</text>
<text x="392" y="375" dx="0,-.3,0,0,0,0,-.3,0,0,0,0,0,0,0,0,0,0,0,0" class="sk_62">reciprocal function</text>
<text x="522" y="375" class="s6_62">f</text>
<text x="528" y="375" class="sb_62">s</text>
<text x="534" y="375" class="s6_62">x</text>
<text x="541" y="375" class="sb_62">d</text>
<text x="550" y="375" class="s7_62">-</text>
<text x="568" y="375" class="s6_62">x</text>
<text x="576" y="369" class="sl_62">2</text>
<text x="583" y="369" class="s8_62">1</text>
<text x="593" y="375" class="s7_62">-</text>
<text x="610" y="375" class="s5_62">1</text>
<text x="616" y="375" class="sb_62">y</text>
<text x="624" y="375" class="s6_62">x</text>
<text x="634" y="375" dx="0,0,0,0,0,0,-.4,0,0,0,0,0,0,0,0,0,0,0,0,0,0,0,0,0,0,0,0" class="s5_62">is shown in Figure 14. ±ts </text>
<text x="287" y="394" class="s5_62">graph has the equation </text>
<text x="429" y="394" class="s6_62">y</text>
<text x="440" y="394" class="s7_62">-</text>
<text x="458" y="394" class="s5_62">1</text>
<text x="464" y="394" class="sb_62">y</text>
<text x="471" y="394" class="s6_62">x</text>
<text x="478" y="394" class="s5_62">, or </text>
<text x="503" y="394" dx="0,.7" class="s6_62">xy</text>
<text x="521" y="394" class="s7_62">-</text>
<text x="539" y="394" dx="0,0,0,0,0,0,0,0,0,0,0,0,0,-.1,0,0,0,0,0,0,0,0,0,0,0,0,0,0,0,0,0,0,0,0,0,0,0,0,0,0,0,0,0,0,-.2,0,0" class="s5_62">1, and is a hyperbola with the coordinate axes </text>
<text x="287" y="412" dx="0,0,0,0,0,0,0,0,0,0,0,0,0,0,0,0,0,0,0,-.3,0,0,0,0,0,0,0,0,0,0,0,0,0,0,0,0,0,0,0,0,0,0,0,0,0,-.1,0,0,0,0,0,0,0,0,0,0,0,0,0,0,0,0,0,0,0,0,0,0,0,0,0,0,0,0,0,0,0,0,0,0,0,0,0,0" class="s5_62">as its asymptotes. This function arises in physics and chemistry in connection with </text>
<text x="287" y="430" dx="0,0,-.2,0,0,0,-.8,0,0,0,-.2,-1,0,0,0,0,0,0,0,0,0,0,0,0,0,0,0,0,0,0,0,0,0,0,0,0,0,0,0,0,0,0,0,0,0,0,0,0,0,0,0,0,0,0,0,0,0,0,0,0,0,0,0,0,0,0,0,0,0,-.3,0,0,0,0,0" class="s5_62">Boyle’s Law, which says that, when the temperature is constant, the volume </text>
<text x="753" y="430" class="s6_62">V</text>
<text x="767" y="430" dx="0,0,0,0,0,0,-.1,0,0" class="s5_62">of a gas </text>
<text x="287" y="449" dx="0,0,0,0,0,-.6,-.2,0,0,0,0,0,0,0,0,0,0,0,0,0,0,0,0,0,0,0,0,0,0,0,0,0,0,0,0,0,0,0,0,0,0,0" class="s5_62">is inversely proportional to the pressure </text>
<text x="532" y="449" class="s6_62">P</text>
<text x="541" y="449" class="s5_62">:</text>
<text x="532" y="485" class="s6_62">V</text>
<text x="546" y="485" class="s7_62">-</text>
<text x="565" y="475" class="s6_62">C</text>
<g clip-path="url(#c4_62)">
<path d="M563.9,481h14.8" class="g0_62"/>
</g>
<text x="566" y="496" class="s6_62">P</text>
<text x="287" y="522" class="s5_62">where </text>
<text x="328" y="522" class="s6_62">C</text>
<text x="342" y="522" dx="0,0,0,0,0,0,0,0,0,0,0,0,0,0,0,-.3,0,0,0,0,0,0,0,0,0,0,0,0,0,0,0,0,0" class="s5_62">is a constant. Thus the graph of </text>
<text x="537" y="522" class="s6_62">V</text>
<text x="552" y="522" class="s5_62">as a function of </text>
<text x="650" y="522" class="s6_62">P</text>
<text x="663" y="522" class="s5_62">(see Figure 15) has the </text>
<text x="287" y="540" class="s5_62">same general shape as the right half of Figure 14.</text>
<text x="305" y="559" dx="0,0,-.4,0,0,0,0,0,0,0,0,0,0,0,0,0,0,0,0,0,0,0,0,0,0,0,0,0,0,0,0,0,0,0,0,0,0,0,0,0,0,0,0,0,0,0,0,0,0,0,0,0,0,0,0,0,0,0,0,0,0,0,0,0,0,0,0,0,0,-.2,0,0,0,0,0,0,0,0,0,.9,.3,-1.2,-1.1,0,0" class="s5_62">Power functions are also used to model species-area relationships (Exercises 30–31), </text>
<text x="287" y="577" dx="0,0,0,0,0,0,0,0,0,0,0,0,0,0,0,0,0,0,0,0,0,0,0,0,0,0,0,0,0,0,0,0,0,0,0,0,0,0,0,0,0,0,0,0,0,0,0,0,0,0,0,0,0,0,0,0,0,0,0,0,0,0,-.2,0,0,0,0,0,0,0,0,0,0,0,0,0,0,0,0,0,0,0,0,0,0,0,0,0,0" class="s5_62">illumination as a function of distance from a light source (Exercise 29), and the period </text>
<text x="287" y="595" dx="0,0,0,0,0,-.4,-.3,0,0,0,0,0,0,0,0,0,0,0,0,0,0,0,0,0,0,0,0,0,0,0,0,0,0,0,0,0,0,0,0,0,0,0,0,0,0,0,0,0,0,0,0,0,0,0,0,0,0,0,0,0,0,0,0,0,0,0,0,0,0,0,0,0,-.2,0,0,0,0,0,0,0,0,0,0" class="s5_62">of revolution of a planet as a function of its distance from the sun (Exercise 32).</text>
<path d="M288.8,621.9c0,0,-1.6,0,-1.6,1.5v9.2c0,0,0,1.5,1.6,1.5h9.1c0,0,1.6,0,1.6,-1.5v-9.2c0,0,0,-1.5,-1.6,-1.5Z" class="g6_62"/>
<text x="307" y="634" dx="0,.2,-.1,0,0,0,0,0,0,0,-.5,0,0,.3,0,0,0,0" class="sm_62">Rational Functions</text>
<text x="287" y="657" class="s5_62">A </text>
<text x="302" y="657" class="sk_62">rational function</text>
<text x="418" y="657" class="s6_62">f</text>
<text x="428" y="657" dx="0,0,0,0,0,0,0,0,0,0,0,0,0,0,0,0,-.2,0,0,0,0,0,0,0,0,0,0,0,0,0" class="s5_62">is a ratio of two polynomials:</text>
<text x="516" y="696" class="s6_62">f</text>
<text x="523" y="696" class="sb_62">s</text>
<text x="529" y="696" class="s6_62">x</text>
<text x="535" y="696" class="sb_62">d</text>
<text x="545" y="696" class="s7_62">-</text>
<text x="566" y="686" class="s6_62">P</text>
<text x="575" y="686" class="sb_62">s</text>
<text x="581" y="686" class="s6_62">x</text>
<text x="587" y="686" class="sb_62">d</text>
<g clip-path="url(#c5_62)">
<path d="M563.2,691.8h33.4" class="g0_62"/>
</g>
<text x="565" y="707" class="s6_62">Q</text>
<text x="576" y="707" class="sb_62">s</text>
<text x="582" y="707" class="s6_62">x</text>
<text x="588" y="707" class="sb_62">d</text>
<text x="287" y="733" class="s5_62">where </text>
<text x="327" y="733" class="s6_62">P</text>
<text x="339" y="733" class="s5_62">and </text>
<text x="363" y="733" class="s6_62">Q</text>
<text x="377" y="733" dx="0,0,0,0,-1.3,0,0,0,0,0,0,0,0,0,0,0,0,-1.5,0,0,0,-1.3,0,0,0,0,0,0,-1.3,0,0,0,0,0,0,0,0,-1.3,0,0,-1.3,0,0,0,-1.3,-.4,0,0,0,0,0,-1.3,0,0" class="s5_62">are polynomials. The domain consists of all values of </text>
<text x="695" y="733" class="s6_62">x</text>
<text x="705" y="733" dx="0,0,0,0,0,-1.3,0,0,0,0" class="s5_62">such that </text>
<text x="761" y="733" class="s6_62">Q</text>
<text x="772" y="733" class="sb_62">s</text>
<text x="778" y="733" class="s6_62">x</text>
<text x="785" y="733" class="sb_62">d</text>
<text x="794" y="733" class="s7_62">±</text>
<text x="812" y="733" class="s5_62">0. </text>
<text x="287" y="751" dx="0,0,1.4,0,0,0,0,0,0,1.4,-.2,0,0,0,0,0,0,1.4,0,0,1.4,0,1.4,0,0,0,0,0,0,0,0,1.4,0,0,0,0,0,0,0,0,1.4,0,0,1.4,0,0,0,1.4,0,0,0,0,0,0,0,0" class="s5_62">A simple example of a rational function is the function </text>
<text x="641" y="751" class="s6_62">f</text>
<text x="648" y="751" class="sb_62">s</text>
<text x="654" y="751" class="s6_62">x</text>
<text x="661" y="751" class="sb_62">d</text>
<text x="671" y="751" class="s7_62">-</text>
<text x="688" y="751" class="s5_62">1</text>
<text x="694" y="751" class="sb_62">y</text>
<text x="702" y="751" class="s6_62">x</text>
<text x="708" y="751" dx="0,0,1.4,0,0,0,0,0,1.4,0,0,0,0,0,0,1.4,0,0" class="s5_62">, whose domain is </text>
<text x="287" y="770" class="sb_62">h</text>
<text x="293" y="770" class="s6_62">x</text>
<text transform="matrix(0.63,0,0,1,303,773)" class="sn_62">|</text>
<text x="312" y="770" class="s6_62">x</text>
<text x="323" y="770" class="s7_62">±</text>
<text x="341" y="770" class="s5_62">0</text>
<text x="348" y="770" class="sb_62">j</text>
<text x="353" y="770" dx="0,0,0,0,0,0,0,0,0,0,0,0,0,0,0,0,0,0,0,0,0,0,0,0,0,0,0,0,0,0,0,0,0,0,0,0,0,0,0,0,0,0,0,0,0,0,0,0,0,0,0,0,0,0,0,0,-.3,0,0,0,0,0,0,0,0,0,0,0" class="s5_62">; this is the reciprocal function graphed in Figure 14. The function</text>
<text x="488" y="814" class="s6_62">f</text>
<text x="494" y="814" class="sb_62">s</text>
<text x="500" y="814" class="s6_62">x</text>
<text x="507" y="814" class="sb_62">d</text>
<text x="517" y="814" class="s7_62">-</text>
<text x="536" y="803" class="s5_62">2</text>
<text x="545" y="803" class="s6_62">x</text>
<text x="553" y="797" class="s8_62">4</text>
<text x="562" y="803" class="se_62">2</text>
<text x="579" y="803" class="s6_62">x</text>
<text x="588" y="797" class="s8_62">2</text>
<text x="597" y="803" class="se_62">1</text>
<text x="614" y="803" class="s5_62">1</text>
<g clip-path="url(#c6_62)">
<path d="M534.8,809.4h90.1" class="g0_62"/>
</g>
<text x="558" y="825" class="s6_62">x</text>
<text x="566" y="818" class="s8_62">2</text>
<text x="575" y="825" class="se_62">2</text>
<text x="593" y="825" class="s5_62">4</text>
<text x="287" y="854" class="s5_62">is a rational function with domain </text>
<text x="497" y="854" class="sb_62">h</text>
<text x="503" y="854" class="s6_62">x</text>
<text transform="matrix(0.63,0,0,1,514,857)" class="sn_62">|</text>
<text x="522" y="854" class="s6_62">x</text>
<text x="534" y="854" class="s7_62">±</text>
<text x="551" y="854" class="se_62">6</text>
<text x="564" y="854" class="s5_62">2</text>
<text x="571" y="854" class="sb_62">j</text>
<text x="576" y="854" dx="0,0,0,0,0,0,0,0,0,0,0,0,0,0,0,0,0,0,-.4,0,0,0,0,0,0,0,0,0,0,0,0,0,0,0" class="s5_62">. ±ts graph is shown in Figure 16.</text>
<path d="M288.8,880.1c0,0,-1.6,0,-1.6,1.5v9.2c0,0,0,1.5,1.6,1.5h9.1c0,0,1.6,0,1.6,-1.5v-9.2c0,0,0,-1.5,-1.6,-1.5Z" class="g6_62"/>
<text x="307" y="892" dx="0,-.1,0,0,0,0,-.2,0,0,0,0,-.5,0,0,.3,0,0,0,0" class="sm_62">Algebraic Functions</text>
<text x="287" y="915" dx="0,0,1.7,0,0,0,0,0,0,0,0" class="s5_62">A function </text>
<text x="362" y="915" class="s6_62">f</text>
<text x="374" y="915" dx="0,0,0,1.7,0,0,0,0,0,0,1.7,0,0" class="s5_62">is called an </text>
<text x="451" y="915" dx="0,0,0,0,0,0,0,0,0,0,1.7,0,0,0,0,0,0,0" class="sk_62">algebraic function</text>
<text x="577" y="915" dx="0,0,0,1.7,0,0,1.7,0,0,0,1.7,0,0,1.7,0,0,0,0,0,0,0,0,0,0,0,1.7,0,0,0,0,0,1.7,0,0,0,0,0,0,0,0,0" class="s5_62">if it can be constructed using algebraic </text>
<text x="287" y="933" dx="0,0,0,0,0,0,0,0,0,0,0,-.7,0,0,0,0,0,-.7,0,0,-.7,0,0,0,0,0,0,0,0,0,-.7,0,0,0,0,0,0,0,0,0,0,0,0,-.7,0,0,0,0,0,0,0,0,0,0,0,0,0,0,0,-.7,0,-.4,0,0,0,0,0,0,0,-.7,0,0,0,-.7,0,0,0,0,0,0,-.7,0,0,0,0,0,0,-.7,0,0,0,0,0" class="s5_62">operations (such as addition, subtraction, multiplication, division, and taking roots) start-</text>
<text x="287" y="951" dx="0,0,0,0,-.3,0,0,0,0,-.3,0,0,0,0,0,0,0,0,0,0,0,0,-1.1,0,-.2,0,-.3,0,0,0,0,0,0,0,0,-.3,0,0,0,0,0,0,0,0,-.3,0,0,-.3,0,0,0,0,0,0,0,0,0,0,0,0,0,-.3,0,0,-.3,0,0,0,0,0,0,0,0,0,-.3,0,0,0,0,0,0,0,0,0,-.3,0,0,0,0" class="s5_62">ing with polynomials. Any rational function is automatically an algebraic function. Here </text>
<text x="287" y="970" dx="0,0,0,0,0,0,-.2,0,0,0,0,0,0,0,-.2,0,0,0,0,0,0,0" class="s5_62">are two more examples:</text>
<text x="365" y="1011" class="s6_62">f</text>
<text x="372" y="1011" class="sb_62">s</text>
<text x="378" y="1011" class="s6_62">x</text>
<text x="384" y="1011" class="sb_62">d</text>
<text x="394" y="1011" class="s7_62">-</text>
<text x="411" y="1011" class="s9_62">s</text>
<text x="424" y="1011" class="s6_62">x</text>
<text x="432" y="1006" class="s8_62">2</text>
<text x="441" y="1011" class="se_62">1</text>
<text x="458" y="1011" class="s5_62">1</text>
<g clip-path="url(#c7_62)">
<path d="M423.5,997.8h43.3" class="g0_62"/>
</g>
<text x="512" y="1011" class="s9_62">t</text>
<text x="518" y="1011" class="sb_62">s</text>
<text x="524" y="1011" class="s6_62">x</text>
<text x="531" y="1011" class="sb_62">d</text>
<text x="541" y="1011" class="s7_62">-</text>
<text x="560" y="1000" class="s6_62">x</text>
<text x="569" y="994" class="s8_62">4</text>
<text x="578" y="1000" class="se_62">2</text>
<text x="595" y="1000" class="s5_62">16</text>
<text x="611" y="1000" class="s6_62">x</text>
<text x="619" y="994" class="s8_62">2</text>
<path d="M558.9,1006.5h68.2" class="g0_62"/>
<text x="568" y="1022" class="s6_62">x</text>
<text x="579" y="1022" class="se_62">1</text>
<text x="596" y="1023" class="s9_62">s</text>
<text x="608" y="1022" class="s6_62">x</text>
<path d="M608.4,1009.3h9.1" class="g0_62"/>
<text x="631" y="1011" class="se_62">1</text>
<text x="648" y="1011" class="sb_62">s</text>
<text x="654" y="1011" class="s6_62">x</text>
<text x="665" y="1011" class="se_62">2</text>
<text x="683" y="1011" class="s5_62">2</text>
<text x="690" y="1011" class="sb_62">d</text>
<text x="697" y="1011" class="s9_62">s</text>
<text x="700" y="1005" class="sc_62">3</text>
<text x="708" y="1011" class="s6_62">x</text>
<text x="719" y="1011" class="se_62">1</text>
<text x="737" y="1011" class="s5_62">1</text>
<g clip-path="url(#c8_62)">
<path d="M709,997.8h38.5" class="g0_62"/>
</g>
<text x="204" y="306" dx="0,.3,.3,.3,.3,.3,.1" class="so_62">FIGURE </text>
<text x="256" y="306" class="sp_62">13 </text>
<text x="138" y="322" class="sq_62">Graphs of root functions</text>
<path d="M53.6,430.6H186.9" class="g4_62"/>
<path fill-rule="evenodd" d="M186.9,430.6l-1.5,-2.2l5.9,2.2l-5.9,2.2Z" class="g5_62"/>
<text x="185" y="441" class="sr_62">x</text>
<path d="M120.2,497.3V364" class="g4_62"/>
<path fill-rule="evenodd" d="M120.2,364l-2.2,1.4l2.2,-5.9l2.2,5.9Z" class="g5_62"/>
<path d="M117.4,414H123m13.9,13.8v5.6" class="g4_62"/>
<text x="110" y="417" class="ss_62">1</text>
<text x="110" y="365" class="st_62">y</text>
<text x="134" y="446" class="st_62">1</text>
<text x="110" y="441" class="st_62">0</text>
<path d="M186.8,425.8c-54.8,-1,-59,-12.2,-62.5,-61.8M53.5,435.5c54.8,1.1,59,12.2,62.5,61.8" class="g1_62"/>
<text x="134" y="393" class="su_62">y=∆</text>
<text x="53" y="524" dx="0,.3,.3,.3,.3,.3,.1" class="so_62">FIGURE </text>
<text x="106" y="524" class="sp_62">14</text>
<text x="53" y="541" class="sq_62">The reciprocal function</text>
<path d="M188.9,671.2C112.5,665.1,95.9,641.5,88.3,571.8" class="g7_62"/>
<path d="M53.5,683.8H188.1" class="g8_62"/>
<path fill-rule="evenodd" d="M188.1,683.8l-1.5,-2.2l5.9,2.2l-5.9,2.1Z" class="g5_62"/>
<text x="185" y="697" class="sv_62">P</text>
<path d="M75.9,706.2V571.5" class="g8_62"/>
<path fill-rule="evenodd" d="M75.9,571.5L73.7,573l2.2,-5.9l2.2,5.9Z" class="g5_62"/>
<text x="63" y="575" class="sw_62">V</text>
<text x="67" y="695" class="sx_62">0</text>
<text x="53" y="732" dx="0,.3,.3,.3,.3,.3,.1" class="so_62">FIGURE </text>
<text x="106" y="732" class="sp_62">15</text>
<text x="53" y="749" dx="0,-1.8,0,0,0,0,0,0,0,0,0,0,0,0,0,0,0,0,0,0,0,0,0,0,0,0,0,0,0,0,0,0,0" class="sq_62">Volume as a function of pressure </text>
<text x="53" y="766" class="sq_62">at constant temperature</text>
<path d="M96.7,946.8c0,-49.3,-1.5,-66.4,18.9,-68.2c2.6,-.3,3.9,-.3,6.6,-.3c2.8,0,4.1,0,6.7,.3c20.4,1.8,18.8,18.9,18.8,68.2M89.9,805.2c-.4,16.5,-2.1,31.7,-9.1,32C71.9,837.6,62.3,823.1,54,808.1m136.7,0c-8.4,15,-18,29.5,-26.9,29.1c-7,-.3,-8.7,-15.5,-9.1,-32" class="g7_62"/>
<text x="53" y="1003" class="sy_62">ƒ=</text>
<text x="91" y="993" class="sz_62">2x</text>
<text x="106" y="993" class="s10_62">$-≈+1</text>
<text x="108" y="1010" class="s10_62">≈-4</text>
<path d="M91.1,997.8h68.3" class="g9_62"/>
<path d="M53.5,878.3H191" class="g8_62"/>
<path fill-rule="evenodd" d="M191,878.3l-1.6,-2.5l6.5,2.5l-6.5,2.4Z" class="g5_62"/>
<text x="189" y="890" class="s11_62">x</text>
<path d="M122.3,947V806.5" class="g8_62"/>
<path d="M149.8,872.2V805" class="ga_62"/>
<path fill-rule="evenodd" d="M122.3,806.5l-2.4,1.6l2.4,-6.5l2.5,6.5Z" class="g5_62"/>
<path d="M119.3,850.8h6.1m24.4,24.4v6.1" class="g8_62"/>
<text x="103" y="854" class="s12_62">20</text>
<text x="111" y="807" class="s12_62">y</text>
<text x="147" y="893" class="s12_62">2</text>
<text x="113" y="890" class="s12_62">0</text>
<path d="M149.8,947V895.3" class="gb_62"/>
<path d="M94.8,946.8V805" class="ga_62"/>
<text x="53" y="975" dx="0,.3,.3,.3,.3,.3,.1" class="so_62">FIGURE </text>
<text x="106" y="975" class="sp_62">16 </text>
<text x="121" y="1076" class="s13_62">Copyright 2016 Cengage Learning. All Rights Reserved. May not be copied, scanned, or duplicated, in whole or in part. Due to electronic rights, some third party content may be suppressed from the eBook and/or eChapter(s).</text>
<text x="106" y="1087" class="s13_62">Editorial review has deemed that any suppressed content does not materially affect the overall learning experience. Cengage Learning reserves the right to remove additional content at any time if subsequent rights restrictions require it.</text>

</g>

<!-- Any embedded fonts defined here -->
<style type="text/css" ><![CDATA[

@font-face {
	font-family: BeaconDingbatsTypeOne_12w;
	src: url("fonts/BeaconDingbatsTypeOne_12w.woff") format("woff");
}

@font-face {
	font-family: MathematicalPiLTStd-1_rr;
	src: url("fonts/MathematicalPiLTStd-1_rr.woff") format("woff");
}

@font-face {
	font-family: MathematicalPiLTStd-3_ry;
	src: url("fonts/MathematicalPiLTStd-3_ry.woff") format("woff");
}

@font-face {
	font-family: MathematicalPiLTStd-5_vb;
	src: url("fonts/MathematicalPiLTStd-5_vb.woff") format("woff");
}

@font-face {
	font-family: MathematicalPiLTStd-6_13j;
	src: url("fonts/MathematicalPiLTStd-6_13j.woff") format("woff");
}

@font-face {
	font-family: MyriadPro-Bold_74;
	src: url("fonts/MyriadPro-Bold_74.woff") format("woff");
}

@font-face {
	font-family: MyriadPro-Regular_4i;
	src: url("fonts/MyriadPro-Regular_4i.woff") format("woff");
}

@font-face {
	font-family: MyriadPro-Semibold_49;
	src: url("fonts/MyriadPro-Semibold_49.woff") format("woff");
}

@font-face {
	font-family: TECHMath-Mix_-x;
	src: url("fonts/TECHMath-Mix_-x.woff") format("woff");
}

@font-face {
	font-family: TECHMath-Mix_13x;
	src: url("fonts/TECHMath-Mix_13x.woff") format("woff");
}

@font-face {
	font-family: TECHMath-Mix_16a;
	src: url("fonts/TECHMath-Mix_16a.woff") format("woff");
}

@font-face {
	font-family: TECHMath-Mix_16e;
	src: url("fonts/TECHMath-Mix_16e.woff") format("woff");
}

@font-face {
	font-family: TECHMath-Mix_16i;
	src: url("fonts/TECHMath-Mix_16i.woff") format("woff");
}

@font-face {
	font-family: TECHMath-Mix_19d;
	src: url("fonts/TECHMath-Mix_19d.woff") format("woff");
}

@font-face {
	font-family: TECHMath-Mix_19t;
	src: url("fonts/TECHMath-Mix_19t.woff") format("woff");
}

@font-face {
	font-family: TECHMath-Mix_1a1;
	src: url("fonts/TECHMath-Mix_1a1.woff") format("woff");
}

@font-face {
	font-family: TECHMath-Mix_1a5;
	src: url("fonts/TECHMath-Mix_1a5.woff") format("woff");
}

@font-face {
	font-family: TECHMath-Mix_wh;
	src: url("fonts/TECHMath-Mix_wh.woff") format("woff");
}

@font-face {
	font-family: Times-Roman_4n;
	src: url("fonts/Times-Roman_4n.woff") format("woff");
}

@font-face {
	font-family: Times-Roman_n6;
	src: url("fonts/Times-Roman_n6.woff") format("woff");
}

@font-face {
	font-family: TimesLTStd-BoldItalic_12r;
	src: url("fonts/TimesLTStd-BoldItalic_12r.woff") format("woff");
}

@font-face {
	font-family: TimesLTStd-Bold_oh;
	src: url("fonts/TimesLTStd-Bold_oh.woff") format("woff");
}

@font-face {
	font-family: TimesLTStd-Italic_o3;
	src: url("fonts/TimesLTStd-Italic_o3.woff") format("woff");
}

@font-face {
	font-family: TimesLTStd-Roman_143;
	src: url("fonts/TimesLTStd-Roman_143.woff") format("woff");
}

]]></style>

</svg>
