<?xml version="1.0" encoding="UTF-8" standalone="no"?>
<!DOCTYPE svg PUBLIC "-//W3C//DTD SVG 1.1//EN"
"http://www.w3.org/Graphics/SVG/1.1/DTD/svg11.dtd">


<!-- Page 63 -->
<svg x="0" y="0" width="931" height="1096" viewBox="0 0 931 1096" version="1.1" xmlns="http://www.w3.org/2000/svg" xmlns:xlink="http://www.w3.org/1999/xlink"
style="display: block;margin-left: auto;margin-right: auto;">
<defs>
<clipPath id="c_63"><path d="M0,0H931V1096H0Z"/></clipPath>
<clipPath id="c0_63"><path d="M530.6,419.5V387.7H690.1v31.8Z"/></clipPath>

<style type="text/css"><![CDATA[
text { white-space: pre; }
path, image { pointer-events: none; }

.s1_63{
font-size: 12.22px;
font-family: MyriadPro-Semibold_49;
fill: #231F20;
}
.s2_63{
font-size: 13.75px;
font-family: MyriadPro-Semibold_49;
fill: #231F20;
}
.s3_63{
font-size: 12.22px;
font-family: MyriadPro-Regular_4i;
fill: #231F20;
}
.s4_63{
font-size: 15.28px;
font-family: MyriadPro-Semibold_49;
fill: #231F20;
}
.s5_63{
font-size: 15.28px;
font-family: TimesLTStd-Roman_143;
fill: #231F20;
}
.s6_63{
font-size: 12.22px;
font-family: TECHMath-Mix_16a;
fill: #231F20;
}
.s7_63{
font-size: 12.22px;
font-family: TECHMath-Mix__v;
fill: #231F20;
}
.s8_63{
font-size: 12.22px;
font-family: TECHMath-Mix_19t;
fill: #231F20;
}
.s9_63{
font-size: 12.22px;
font-family: TECHMath-Mix_191;
fill: #231F20;
}
.sa_63{
font-size: 12.99px;
font-family: Times-Roman_n6;
fill: #231F20;
}
.sb_63{
font-size: 12.99px;
font-family: TECHMath-Mix_1ac;
fill: #231F20;
}
.sc_63{
font-size: 12.22px;
font-family: TECHMath-Mix_1ac;
fill: #231F20;
}
.sd_63{
font-size: 12.22px;
font-family: Times-Roman_n6;
fill: #231F20;
}
.se_63{
font-size: 15.28px;
font-family: CenturyOldStyle-Italic__q;
fill: #231F20;
}
.sf_63{
font-size: 15.28px;
font-family: TimesLTStd-Italic_o3;
fill: #231F20;
}
.sg_63{
font-size: 15.28px;
font-family: MathematicalPiLTStd-5_vb;
fill: #231F20;
}
.sh_63{
font-size: 15.28px;
font-family: MathematicalPiLTStd-3_ry;
fill: #231F20;
}
.si_63{
font-size: 9.17px;
font-family: TimesLTStd-Roman_143;
fill: #231F20;
}
.sj_63{
font-size: 15.28px;
font-family: BeaconDingbatsTypeOne_12w;
fill: #231F20;
}
.sk_63{
font-size: 15.28px;
font-family: MathematicalPiLTStd-1_rr;
fill: #231F20;
}
.sl_63{
font-size: 16.81px;
font-family: MyriadPro-Semibold_49;
fill: #231F20;
}
.sm_63{
font-size: 12.98px;
font-family: Times-Roman_n6;
fill: #231F20;
}
.sn_63{
font-size: 12.98px;
font-family: TECHMath-Mix_1a1;
fill: #231F20;
}
.so_63{
font-size: 12.98px;
font-family: TECHMath-Mix_1ag;
fill: #231F20;
}
.sp_63{
font-size: 10.69px;
font-family: TECHMath-Mix_1ag;
fill: #231F20;
}
.sq_63{
font-size: 12.22px;
font-family: TECHMath-Mix_1ag;
fill: #231F20;
}
.sr_63{
font-size: 24.44px;
font-family: MathematicalPiLTStd-3_ry;
fill: #231F20;
}
.ss_63{
font-size: 15.28px;
font-family: MathematicalPi-One-Italic_x2;
fill: #231F20;
}
.st_63{
font-size: 14.51px;
font-family: MyriadPro-Bold_74;
fill: #231F20;
}
.su_63{
font-size: 15.28px;
font-family: MyriadPro-Bold_74;
fill: #231F20;
}
.sv_63{
font-size: 13.75px;
font-family: TimesLTStd-Roman_143;
fill: #231F20;
}
.sw_63{
font-size: 7.64px;
font-family: Times-Roman_4n;
fill: #000000;
}

.g0_63{
fill: none;
stroke: #231F20;
stroke-width: 0.611;
stroke-linecap: butt;
stroke-linejoin: miter;
stroke-miterlimit: 3;
}
.g1_63{
fill: #231F20;
}
.g2_63{
fill: none;
stroke: #00AEEF;
stroke-width: 0.916;
stroke-linecap: butt;
stroke-linejoin: round;
stroke-miterlimit: 3;
}
.g3_63{
fill: none;
stroke: #231F20;
stroke-width: 0.763;
stroke-linecap: butt;
stroke-linejoin: miter;
}
.g4_63{
fill: #CC017A;
}
.g5_63{
fill: none;
stroke: #231F20;
stroke-width: 0.381;
stroke-linecap: butt;
stroke-linejoin: miter;
stroke-miterlimit: 3;
}
.g6_63{
fill: none;
stroke: #00AEEF;
stroke-width: 0.763;
stroke-linecap: butt;
stroke-linejoin: miter;
stroke-miterlimit: 4;
}

]]></style>

</defs>
<g clip-path="url(#c_63)">
<path d="M0,0
L0,1096
L931,1096
L931,0 Z " 
fill="#FFFFFF" stroke="none"/>
<text x="440" y="64" dx="0,.2,.2,.5,.2,.2,.2" class="s1_63">SECTION</text>
<text x="492" y="64" class="s2_63">1.2</text>
<text x="522" y="64" dx="0,.2,.1,.1,.1,.1,.1,.1,.1,.1,.1,.1,.1,.1,.2,.1,.1,.1,.1,.1,.1,.1,.1,.1,0,.1,.1,.1,.1,.1,.1,.1,.1,.1,.1,.1,.1,.1,.1,.1,.1,.1,.1,.1,.1,-.3,.1,.1,.3,.1,.1,.1,.1,.1" class="s3_63">Mathematical Models: A Catalog of Essential Functions </text>
<text x="862" y="64" class="s4_63">31</text>
<text x="342" y="107" dx="0,0,0,0,0,2.2,0,0,2.2,0,-.2,0,0,0,0,2.2,0,0,0,0,0,0,0,0,0,2.2,0,0,0,0,0,0,0,0,0,2.2,0,0,2.2,0,0,0,0,0,0,0,2.2,0,0,2.2,0,0,2.2,0,0,0,0,2.2,0,0,0,2.2,0,0,0,0,2.2,0,0,0,0,0,2.2,0,0,0,0,0,0,2.2,0,0,0" class="s5_63">When we sketch algebraic functions in Chapter 4, we will see that their graphs can </text>
<text x="342" y="126" dx="0,0,0,0,0,0,0,0,0,0,-.4,0,0,0,0,0,0,0,0,0,0,0,0,0,0,0,0,0,0,0,0,0,0,0,0,0,0,0,0,0,0,0,0,0,0,0,0,0,0,0,0,0,0,0,0,0,0,0,0,0,0,0,0,0,0,0,0,0,0,0,0,0,0,0,0,0" class="s5_63">assume a variety of shapes. Figure 17 illustrates some of the possibilities.</text>
<path d="M351.3,215.4H492.7" class="g0_63"/>
<path fill-rule="evenodd" d="M492.7,215.4L491.1,213l6.5,2.4l-6.5,2.5Z" class="g1_63"/>
<text x="491" y="226" class="s6_63">x</text>
<path fill-rule="evenodd" d="M452,154l-2.5,1.7l2.5,-6.5l2.4,6.5Z" class="g1_63"/>
<path d="M448.9,174.1H455" class="g0_63"/>
<text x="439" y="177" class="s7_63">2</text>
<text x="440" y="155" class="s8_63">y</text>
<text x="470" y="232" class="s9_63">1</text>
<text x="376" y="304" class="sa_63">(a) </text>
<text x="393" y="304" dx="0,0,0,1,0,0,0,0" class="sb_63">ƒ=xœ„„„„</text>
<text x="444" y="304" class="sb_63">x+3</text>
<path d="M390.1,215.6c.8,15.6,2.9,40.7,21.8,40.7c22.8,0,54.1,-63.8,69.8,-102.7" class="g2_63"/>
<path d="M451.9,277.3V153.6m-61.8,57.2V220m82.5,-7.6v6.1" class="g0_63"/>
<path fill-rule="evenodd" d="M606.4,154l-2.5,1.7l2.5,-6.6l2.4,6.6Z" class="g1_63"/>
<path fill-rule="evenodd" d="M667.9,256.7l-1.7,-2.5l6.6,2.5l-6.6,2.4Z" class="g1_63"/>
<text x="666" y="267" class="sc_63">x</text>
<path d="M603.4,236h6.1" class="g0_63"/>
<text x="595" y="240" class="sc_63">1</text>
<text x="595" y="155" class="sc_63">y</text>
<text x="623" y="272" class="sc_63">5</text>
<text x="597" y="269" class="sc_63">0</text>
<text x="558" y="304" class="sa_63">(b) </text>
<text x="576" y="304" dx="0,0,0,-3.2,0,0,0,0,0,0" class="sb_63">©=$œ„„„„„„</text>
<text x="620" y="304" dx="0,0,0,-.3" class="sb_63">≈-25</text>
<path d="M585.8,256.7c0,-38.2,-4.1,-52.3,-40.8,-77.8m122.8,0c-36.8,25.5,-40.9,39.6,-40.9,77.8" class="g2_63"/>
<path d="M606.4,277.3V153.5M545.1,256.7H668.3m-41.4,-3.1v6.1" class="g0_63"/>
<path fill-rule="evenodd" d="M864.5,256.3l-1.6,-2.5l6.5,2.5l-6.5,2.4Z" class="g1_63"/>
<text x="863" y="267" class="sc_63">x</text>
<path fill-rule="evenodd" d="M749.5,153.7l-2.4,1.6l2.4,-6.5l2.5,6.5Z" class="g1_63"/>
<text x="737" y="239" class="sd_63">1</text>
<text x="738" y="154" class="sc_63">y</text>
<path d="M778.3,253.2v6.1" class="g0_63"/>
<text x="775" y="273" class="sc_63">1</text>
<text x="740" y="268" class="sc_63">0</text>
<text x="742" y="304" class="sa_63">(c) </text>
<text x="760" y="304" dx="0,0,.3,.6,0,0,1,1,.8,0,0,0,0,0,0" class="sb_63">h(x)=x@?#(x-2)@</text>
<path d="M732,153.3l17.5,103c2.3,-14.9,2.7,-29.3,13.6,-29.3c13.2,0,23.5,29.4,41.4,29.4c23.4,0,34.8,-77.4,40.8,-103.1" class="g2_63"/>
<path d="M717.2,256.3H865M749.5,277V153.2m-3.1,82.5h6.1" class="g0_63"/>
<text x="373" y="232" dx="0,.3" class="sc_63">_3</text>
<text x="360" y="350" dx="0,0,0,.2,-.2,0,0,0,0,0,0,.2,0,0,.2,0,0,.2,0,0,0,0,0,0,0,0,0,.2,0,0,0,0,0,0,0,0,.2,0,0,0,0,0,0,.2,0,0,.2,0,0,0,.2,0,0,0,0,0,0,.2,0,0,.2,0,0,0,0,0,-.4,0,0,0,-1,0,-.1,0,0,0,.2,0,0,0,0,.2,0,0,.2,0" class="s5_63">An example of an algebraic function occurs in the theory of relativity. The mass of a </text>
<text x="342" y="368" dx="0,0,0,0,0,0,0,0,0,0,0,0,0,0,0,-.2,0,0,0,0,0,0,0" class="s5_63">particle with velocity </text>
<text x="475" y="368" class="se_63">v</text>
<text x="486" y="368" class="s5_63">is</text>
<text x="530" y="405" class="sf_63">m</text>
<text x="546" y="405" class="sg_63">-</text>
<text x="563" y="405" class="sf_63">f</text>
<text x="570" y="405" class="sh_63">s</text>
<text x="575" y="405" class="se_63">v</text>
<text x="583" y="405" class="sh_63">d</text>
<text x="592" y="405" class="sg_63">-</text>
<text x="641" y="394" class="sf_63">m</text>
<text x="653" y="396" class="si_63">0</text>
<g clip-path="url(#c0_63)">
<path d="M610.5,400.2h80" class="g3_63"/>
</g>
<text x="612" y="417" class="sj_63">s</text>
<text x="623" y="416" class="s5_63">1</text>
<text x="636" y="416" class="sk_63">2</text>
<text x="653" y="416" class="se_63">v</text>
<text x="662" y="412" class="si_63">2</text>
<text x="665" y="416" class="sh_63">y</text>
<text x="672" y="416" class="sf_63">c</text>
<text x="680" y="412" class="si_63">2 </text>
<path d="M624,402.9h64.2" class="g3_63"/>
<text x="342" y="455" class="s5_63">where </text>
<text x="382" y="455" class="sf_63">m</text>
<text x="394" y="457" class="si_63">0</text>
<text x="402" y="455" dx="0,0,0,-.7,0,0,0,-.7,0,0,0,0,-.7,0,0,0,0,-.7,0,0,-.7,0,0,0,-.7,0,0,0,0,0,0,0,0,-.7,0,0,0" class="s5_63">is the rest mass of the particle and </text>
<text x="607" y="455" class="sf_63">c</text>
<text x="618" y="455" class="sg_63">-</text>
<text x="636" y="455" class="s5_63">3.0</text>
<text x="659" y="455" class="sk_63">3</text>
<text x="677" y="455" class="s5_63">10</text>
<text x="693" y="449" class="si_63">5</text>
<text x="700" y="455" class="s5_63">km</text>
<text x="720" y="455" class="sh_63">y</text>
<text x="727" y="455" dx="0,0,-.7,0,0,-.7,0,0,0,-.7,0,0,0,0,0,-.7,0,0,-.7,0,0,0,0,0,-.7,0,0,-.7,0" class="s5_63">s is the speed of light in a </text>
<text x="342" y="473" dx="0,-.4,0,0,0,0,0" class="s5_63">vacuum.</text>
<path d="M343.8,499.9c0,0,-1.6,0,-1.6,1.5v9.2c0,0,0,1.5,1.6,1.5h9.1c0,0,1.6,0,1.6,-1.5v-9.2c0,0,0,-1.5,-1.6,-1.5Z" class="g4_63"/>
<text x="361" y="512" dx="0,-.8,0,0,0,0,0,0,0,0,0,0,0,0,0,-.5,0,0,.3,0,0,0,0" class="sl_63">Trigonometric Functions</text>
<text x="341" y="535" dx="0,-.5,0,0,0,0,0,0,0,0,0,0,0,-.8,0,0,0,-.8,0,0,0,-.8,0,0,0,0,0,0,0,0,0,0,0,0,0,-.8,0,0,0,0,0,0,0,0,0,-.8,0,0,0,-.8,0,-.4,0,0,-.4,0,0,0,-.8,0,0,-.8,0,0,0,0,0,0,0,0,0,-.8,-.2,0,0,0,-.8,0,-.8,0,0,0,-.8,0,0,0,0" class="s5_63">Trigonometry and the trigonometric functions are reviewed on Reference Page 2 and also </text>
<text x="342" y="553" dx="0,0,0,-.8,0,0,0,0,0,0,0,0,.1,0,0,.1,0,0,.1,0,0,0,0,0,0,0,0,.1,0,0,0,.1,0,0,-.6,-.2,0,0,0,0,0,0,.1,0,0,.1,0,0,0,0,.1,0,0,0,0,0,0,.1,0,0,0,0,0,0,0,.1,0,0,.1,0,-.2,-.2,0,0,0,.1,0,0,0,0,.1,0,-.2,0,0,0,0,0" class="s5_63">in Appendix D. ±n calculus the convention is that radian measure is always used (except </text>
<text x="342" y="571" dx="0,0,0,0,0,1.3,0,0,0,0,0,0,0,0,0,1.3,0,0,0,0,0,0,0,0,0,0,0,1.3,-.2,0,0,1.3,-.2,0,0,0,0,0,0,0,1.3,0,0,0,0,1.3,0,0,1.3,0,0,0,1.3,0,0,0,1.3,0,0,0,0,0,0,0,0" class="s5_63">when otherwise indicated). For example, when we use the function </text>
<text x="770" y="571" class="sf_63">f</text>
<text x="776" y="571" class="sh_63">s</text>
<text x="782" y="571" class="sf_63">x</text>
<text x="789" y="571" class="sh_63">d</text>
<text x="799" y="571" class="sg_63">-</text>
<text x="816" y="571" class="s5_63">sin </text>
<text x="838" y="571" class="sf_63">x</text>
<text x="845" y="571" dx="0,0,1.3,0,0,1.3,0,0" class="s5_63">, it is </text>
<text x="342" y="590" dx="0,0,0,0,0,0,0,0,0,0,0,.9,0,0,0,0,.9,0,0,0" class="s5_63">understood that sin </text>
<text x="464" y="590" class="sf_63">x</text>
<text x="476" y="590" dx="0,0,0,0,0,0,.9,0,0,0,.9,0,0,0,0,.9,0,0,.9,0,0,0,.9,0,0,0,0,0,.9,0,0,0,0,0,.9,0,0,0,0,0,0,.9,0,0,0,0,0,0,0,.9,0,0" class="s5_63">means the sine of the angle whose radian measure is </text>
<text x="809" y="590" class="sf_63">x</text>
<text x="816" y="590" dx="0,0,.6,0,0,0,0,.9,0,0,0" class="s5_63">. Thus the </text>
<text x="342" y="608" dx="0,0,0,0,0,0,0,0,0,0,0,0,0,0,0,0,0,0,0,0,0,0,0,0,0,0,0,0,0,0,0,0,0,0,0,0,0,0,0,0,0,0,0,0,0,0,0,0,0,0,-.4,0,0,0,0,0,0,0,0,0,0,0,0,0,0,0" class="s5_63">graphs of the sine and cosine functions are as shown in Figure 18.</text>
<path d="M457.2,714.4c-12.3,0,-23.1,-11.1,-33.5,-20.7C414.5,684.4,403.1,673,391,673c-12.2,0,-22.7,11.4,-33,20.7c-9.1,9.6,-20.1,20.7,-32.8,20.7c-12.2,0,-22.1,-11.1,-32.5,-20.7C283.5,684.4,272.1,673,260,673c-11.9,0,-22.5,11.4,-32.7,20.7c-9.6,9.6,-20.5,20.7,-32.5,20.7c-12.4,0,-21.5,-10.8,-31.9,-20.7C153.7,684.4,142.2,673,130.2,673c-4.6,0,-9,1.7,-13.3,4.3m758,4.7c-4.4,3.6,-8.8,7.8,-13,11.7c-9.2,9.6,-20.2,20.7,-32.9,20.7c-12.2,0,-23.1,-11.1,-33.5,-20.7C786.4,684.4,774.9,673,762.8,673c-12.2,0,-22.7,11.4,-32.9,20.7c-9.2,9.6,-20.2,20.7,-32.9,20.7c-12.2,0,-22.1,-11.1,-32.5,-20.7C655.3,684.4,643.9,673,631.8,673c-11.9,0,-22.5,11.4,-32.7,20.7c-9.6,9.6,-20.5,20.7,-32.5,20.7c-12.4,0,-22.5,-11.4,-32.8,-21.3c-4.6,-4.6,-9.4,-9.4,-14.7,-13.2" class="g2_63"/>
<text x="246" y="771" class="sm_63">(a) </text>
<text x="263" y="771" class="sn_63">ƒ=</text>
<text x="298" y="771" class="sm_63">sin</text>
<text x="316" y="771" class="so_63">x</text>
<text x="256" y="708" class="sp_63">π</text>
<text x="257" y="721" class="sp_63">2</text>
<path d="M255.1,710.5H264" class="g5_63"/>
<text x="384" y="708" class="sp_63">5π</text>
<text x="388" y="721" class="sp_63">2</text>
<path d="M383.9,710.5h13.5" class="g5_63"/>
<text x="319" y="671" class="sp_63">3π</text>
<text x="323" y="685" class="sp_63">2</text>
<path d="M319.5,673.8h13.4" class="g5_63"/>
<text x="192" y="671" class="sp_63">π</text>
<text x="193" y="685" class="sp_63">2</text>
<path d="M191.1,673.8H200" class="g5_63"/>
<text x="181" y="677" class="sq_63">_</text>
<text x="456" y="706" class="sq_63">x</text>
<path d="M113.1,693.5H457.8" class="g0_63"/>
<path fill-rule="evenodd" d="M457.8,693.5l-1.7,-2.4l6.6,2.4l-6.6,2.5Z" class="g1_63"/>
<text x="216" y="643" class="sq_63">y</text>
<path d="M227.5,750.3V641.9" class="g0_63"/>
<path fill-rule="evenodd" d="M227.5,641.9l-2.5,1.6l2.5,-6.5l2.4,6.5Z" class="g1_63"/>
<text x="287" y="710" class="sq_63">π</text>
<text x="230" y="705" class="sq_63">0</text>
<path d="M161.8,690.5v6.1m130.6,-6.1v6.1" class="g0_63"/>
<text x="147" y="710" dx="0,.4" class="sq_63">_π</text>
<path d="M224.4,713.8h6.1m-6.1,-40.6h6.1M130.2,690.5v6.1m65,-6.1v6.1m65.1,-6.1v6.1" class="g0_63"/>
<text x="216" y="677" class="sq_63">1</text>
<text x="208" y="719" dx="0,.3" class="sq_63">_1</text>
<path d="M358.6,690.5v6.1M326,690.5v6.1" class="g0_63"/>
<text x="351" y="710" class="sq_63">2π</text>
<path d="M423.6,690.5v6.1M391,690.5v6.1" class="g0_63"/>
<text x="415" y="710" class="sq_63">3π</text>
<text x="653" y="771" class="sm_63">(b) </text>
<text x="672" y="771" class="so_63">©=</text>
<text x="706" y="771" class="sm_63">cos</text>
<text x="727" y="771" class="so_63">x</text>
<text x="869" y="706" class="sq_63">x</text>
<text x="620" y="643" class="sq_63">y</text>
<text x="634" y="705" class="sq_63">0</text>
<text x="619" y="671" class="sq_63">1</text>
<text x="611" y="718" dx="0,.3" class="sq_63">_1</text>
<path d="M516.7,693.5H870.5" class="g0_63"/>
<path fill-rule="evenodd" d="M870.5,693.5l-1.6,-2.4l6.5,2.4l-6.5,2.5Z" class="g1_63"/>
<path d="M631.1,750.3V641.9" class="g0_63"/>
<path fill-rule="evenodd" d="M631.1,641.9l-2.5,1.6l2.5,-6.5l2.4,6.5Z" class="g1_63"/>
<text x="691" y="685" class="sq_63">π</text>
<path d="M565.4,690.5v6.1M696,690.5v6.1" class="g0_63"/>
<text x="553" y="685" dx="0,.4" class="sq_63">_π</text>
<path d="M762.3,690.5v6.1m-32.7,-6.1v6.1M628,713.8h6.1M628,673.2h6.1M533.8,690.5v6.1m65,-6.1v6.1m65.1,-6.1v6.1" class="g0_63"/>
<text x="754" y="710" class="sq_63">2π</text>
<path d="M827.2,690.5v6.1m-32.6,-6.1v6.1" class="g0_63"/>
<text x="819" y="685" class="sq_63">3π</text>
<text x="659" y="708" class="sp_63">π</text>
<text x="660" y="721" class="sp_63">2</text>
<path d="M658.7,710.5h8.9" class="g5_63"/>
<text x="787" y="708" class="sp_63">5π</text>
<text x="791" y="721" class="sp_63">2</text>
<path d="M787.6,710.5H801" class="g5_63"/>
<text x="723" y="707" class="sp_63">3π</text>
<text x="727" y="721" class="sp_63">2</text>
<path d="M723.1,710.1h13.5" class="g5_63"/>
<text x="595" y="671" class="sp_63">π</text>
<text x="596" y="685" class="sp_63">2</text>
<path d="M594.7,673.8h8.9" class="g5_63"/>
<text x="584" y="677" class="sq_63">_</text>
<text x="360" y="817" dx="0,0,0,0,0,0,0,-.6,0,0,0,0,-.6,0,0,0,-.6,0,0,0,0,-.6,0,0,0,-.6,0,0,0,0,-.6,0,0,0,-.6,0,0,0,0,0,0,-.6,0,0,0,0,0,0,0,0,0,-.6,0,0,0,-.6,0,0,0,0,0,0,-.6,0,0" class="s5_63">Notice that for both the sine and cosine functions the domain is </text>
<text x="744" y="817" class="sh_63">s</text>
<text x="749" y="817" class="sk_63">2`</text>
<text x="771" y="817" class="s5_63">,</text>
<text x="778" y="817" class="sk_63">`</text>
<text x="789" y="817" class="sh_63">d</text>
<text x="797" y="817" dx="0,0,0,0,-.6,0,0,0,-.6,0,0,0,0,0" class="s5_63">and the range </text>
<text x="342" y="835" dx="0,0,0,0,0,0,0,0,0,0,0,0,0,0,0,0,0,0,0,0,-.4,0,0" class="s5_63">is the closed interval </text>
<text x="471" y="835" class="sh_63">f</text>
<text x="476" y="835" class="sk_63">2</text>
<text x="489" y="835" dx="0,0,0,-.8" class="s5_63">1, 1</text>
<text x="511" y="835" class="sh_63">g</text>
<text x="516" y="835" dx="0,0,-.3,0,0,0,0,0,0,0,0,0,0,0,0,0,0,-.4,0,0,0,0,0,0,0,0" class="s5_63">. Thus, for all values of </text>
<text x="662" y="835" class="sf_63">x</text>
<text x="669" y="835" dx="0,0,0,0,0,0,0,-.3,-.2" class="s5_63">, we have</text>
<text x="484" y="883" class="sk_63">2</text>
<text x="497" y="883" class="s5_63">1</text>
<text x="509" y="883" class="sk_63">&lt;</text>
<text x="526" y="883" class="s5_63">sin </text>
<text x="549" y="883" class="sf_63">x</text>
<text x="560" y="883" class="sk_63">&lt;</text>
<text x="577" y="883" class="s5_63">1 </text>
<text x="631" y="883" class="sk_63">2</text>
<text x="643" y="883" class="s5_63">1</text>
<text x="656" y="883" class="sk_63">&lt;</text>
<text x="673" y="883" class="s5_63">cos </text>
<text x="698" y="883" class="sf_63">x</text>
<text x="709" y="883" class="sk_63">&lt;</text>
<text x="727" y="883" class="s5_63">1</text>
<path d="M442.7,857.8c0,0,-3.1,0,-3.1,3v35.9c0,0,0,3.1,3.1,3.1H778c0,0,3.1,0,3.1,-3.1V860.8c0,0,0,-3,-3.1,-3H442.7Z" class="g6_63"/>
<text x="342" y="929" dx="0,0,-.6,0,0,0,0,0,0,0,0,0,0,0,0,0,0,0,0,0,0,0,0,0,0,0,-.4,0,0,0,0,0" class="s5_63">or, in terms of absolute values,</text>
<text transform="matrix(0.63,0,0,1,516,962)" class="sr_63">|</text>
<text x="522" y="958" class="s5_63">sin</text>
<text x="543" y="958" class="sf_63">x</text>
<text transform="matrix(0.63,0,0,1,552,962)" class="sr_63">|</text>
<text x="561" y="958" class="sk_63">&lt;</text>
<text x="578" y="958" class="s5_63">1 </text>
<text transform="matrix(0.63,0,0,1,632,962)" class="sr_63">|</text>
<text x="638" y="958" class="s5_63">cos</text>
<text x="661" y="958" class="sf_63">x</text>
<text transform="matrix(0.63,0,0,1,670,962)" class="sr_63">|</text>
<text x="679" y="958" class="sk_63">&lt;</text>
<text x="697" y="958" class="s5_63">1</text>
<text x="342" y="990" dx="0,0,0,0,0,0,0,0,0,0,0,0,0,0,0,0,0,0,0,0,0,0,0,0,0,0,0,0,0,0,0,0,0,0,0,0,0,0,0,0,0,0,0,0,0,0,0,0,0,0,0,0,0,0,-.2,0,0,0,0,0,0,0,0,0,0,0,0,0,0,0,0" class="s5_63">Also, the zeros of the sine function occur at the integer multiples of </text>
<text x="757" y="990" class="ss_63">°</text>
<text x="767" y="990" class="s5_63">; that is,</text>
<text x="466" y="1019" class="s5_63">sin </text>
<text x="488" y="1019" class="sf_63">x</text>
<text x="499" y="1019" class="sg_63">-</text>
<text x="517" y="1019" class="s5_63">0 </text>
<text x="555" y="1019" class="s5_63">when </text>
<text x="620" y="1019" class="sf_63">x</text>
<text x="631" y="1019" class="sg_63">-</text>
<text x="648" y="1019" class="sf_63">n</text>
<text x="656" y="1019" class="ss_63">°</text>
<text x="681" y="1019" class="sf_63">n</text>
<text x="693" y="1019" dx="0,0,0,0,0,.7,0,0,0,0" class="s5_63">an integer</text>
<text x="259" y="306" dx="0,.3,.3,.3,.3,.3,.1" class="st_63">FIGURE </text>
<text x="311" y="306" class="su_63">17</text>
<text x="117" y="534" dx="0,0,0,0,0,0,0,0,0,0,0,0,0,0,0,-.2,0,0,0,0,0,0,0,0,0,0,0,0,0,0,0,0,0,0,0" class="sv_63">The Reference Pages are located at </text>
<text x="117" y="550" class="sv_63">the back of the book.</text>
<text x="108" y="799" dx="0,.3,.3,.3,.3,.3,.1" class="st_63">FIGURE </text>
<text x="161" y="799" class="su_63">18</text>
<text x="121" y="1076" class="sw_63">Copyright 2016 Cengage Learning. All Rights Reserved. May not be copied, scanned, or duplicated, in whole or in part. Due to electronic rights, some third party content may be suppressed from the eBook and/or eChapter(s).</text>
<text x="106" y="1087" class="sw_63">Editorial review has deemed that any suppressed content does not materially affect the overall learning experience. Cengage Learning reserves the right to remove additional content at any time if subsequent rights restrictions require it.</text>

</g>

<!-- Any embedded fonts defined here -->
<style type="text/css" ><![CDATA[

@font-face {
	font-family: BeaconDingbatsTypeOne_12w;
	src: url("fonts/BeaconDingbatsTypeOne_12w.woff") format("woff");
}

@font-face {
	font-family: CenturyOldStyle-Italic__q;
	src: url("fonts/CenturyOldStyle-Italic__q.woff") format("woff");
}

@font-face {
	font-family: MathematicalPi-One-Italic_x2;
	src: url("fonts/MathematicalPi-One-Italic_x2.woff") format("woff");
}

@font-face {
	font-family: MathematicalPiLTStd-1_rr;
	src: url("fonts/MathematicalPiLTStd-1_rr.woff") format("woff");
}

@font-face {
	font-family: MathematicalPiLTStd-3_ry;
	src: url("fonts/MathematicalPiLTStd-3_ry.woff") format("woff");
}

@font-face {
	font-family: MathematicalPiLTStd-5_vb;
	src: url("fonts/MathematicalPiLTStd-5_vb.woff") format("woff");
}

@font-face {
	font-family: MyriadPro-Bold_74;
	src: url("fonts/MyriadPro-Bold_74.woff") format("woff");
}

@font-face {
	font-family: MyriadPro-Regular_4i;
	src: url("fonts/MyriadPro-Regular_4i.woff") format("woff");
}

@font-face {
	font-family: MyriadPro-Semibold_49;
	src: url("fonts/MyriadPro-Semibold_49.woff") format("woff");
}

@font-face {
	font-family: TECHMath-Mix_16a;
	src: url("fonts/TECHMath-Mix_16a.woff") format("woff");
}

@font-face {
	font-family: TECHMath-Mix_191;
	src: url("fonts/TECHMath-Mix_191.woff") format("woff");
}

@font-face {
	font-family: TECHMath-Mix_19t;
	src: url("fonts/TECHMath-Mix_19t.woff") format("woff");
}

@font-face {
	font-family: TECHMath-Mix_1a1;
	src: url("fonts/TECHMath-Mix_1a1.woff") format("woff");
}

@font-face {
	font-family: TECHMath-Mix_1ac;
	src: url("fonts/TECHMath-Mix_1ac.woff") format("woff");
}

@font-face {
	font-family: TECHMath-Mix_1ag;
	src: url("fonts/TECHMath-Mix_1ag.woff") format("woff");
}

@font-face {
	font-family: TECHMath-Mix__v;
	src: url("fonts/TECHMath-Mix__v.woff") format("woff");
}

@font-face {
	font-family: Times-Roman_4n;
	src: url("fonts/Times-Roman_4n.woff") format("woff");
}

@font-face {
	font-family: Times-Roman_n6;
	src: url("fonts/Times-Roman_n6.woff") format("woff");
}

@font-face {
	font-family: TimesLTStd-Italic_o3;
	src: url("fonts/TimesLTStd-Italic_o3.woff") format("woff");
}

@font-face {
	font-family: TimesLTStd-Roman_143;
	src: url("fonts/TimesLTStd-Roman_143.woff") format("woff");
}

]]></style>

</svg>
