<?xml version="1.0" encoding="UTF-8" standalone="no"?>
<!DOCTYPE svg PUBLIC "-//W3C//DTD SVG 1.1//EN"
"http://www.w3.org/Graphics/SVG/1.1/DTD/svg11.dtd">


<!-- Page 64 -->
<svg x="0" y="0" width="931" height="1096" viewBox="0 0 931 1096" version="1.1" xmlns="http://www.w3.org/2000/svg" xmlns:xlink="http://www.w3.org/1999/xlink"
style="display: block;margin-left: auto;margin-right: auto;">
<defs>
<clipPath id="c_64"><path d="M0,0H931V1096H0Z"/></clipPath>
<clipPath id="c0_64"><path d="M591.9,389.3V357.4H720.6v31.9Z"/></clipPath>
<clipPath id="c1_64"><path d="M510.9,623.1V591h88.9v32.1Z"/></clipPath>

<style type="text/css"><![CDATA[
text { white-space: pre; }
path, image { pointer-events: none; }

.s1_64{
font-size: 15.28px;
font-family: MyriadPro-Semibold_49;
fill: #231F20;
}
.s2_64{
font-size: 12.22px;
font-family: MyriadPro-Semibold_49;
fill: #231F20;
}
.s3_64{
font-size: 13.75px;
font-family: MyriadPro-Semibold_49;
fill: #231F20;
}
.s4_64{
font-size: 12.22px;
font-family: MyriadPro-Regular_4i;
fill: #231F20;
}
.s5_64{
font-size: 15.28px;
font-family: TimesLTStd-Roman_143;
fill: #231F20;
}
.s6_64{
font-size: 15.28px;
font-family: MathematicalPi-One-Italic_x2;
fill: #231F20;
}
.s7_64{
font-size: 15.28px;
font-family: TimesLTStd-Italic_o3;
fill: #231F20;
}
.s8_64{
font-size: 15.28px;
font-family: MathematicalPiLTStd-3_ry;
fill: #231F20;
}
.s9_64{
font-size: 15.28px;
font-family: MathematicalPiLTStd-1_rr;
fill: #231F20;
}
.sa_64{
font-size: 15.28px;
font-family: MathematicalPiLTStd-5_vb;
fill: #231F20;
}
.sb_64{
font-size: 47.36px;
font-family: MathematicalPiLTStd-3_ry;
fill: #231F20;
}
.sc_64{
font-size: 16.81px;
font-family: MyriadPro-BoldSemiCn_90;
fill: #EC008C;
}
.sd_64{
font-size: 17.57px;
font-family: MyriadPro-BoldSemiCn_90;
fill: #EC008C;
}
.se_64{
font-size: 13.75px;
font-family: MyriadPro-Semibold_49;
fill: #EC008C;
}
.sf_64{
font-size: 15.28px;
font-family: UniversalChemicalPi-T_-_;
fill: #231F20;
}
.sg_64{
font-size: 15.28px;
font-family: MathematicalPi-One-Italic_1aq;
fill: #231F20;
}
.sh_64{
font-size: 12.99px;
font-family: ZapfDingbatsITC_my;
fill: #EC008C;
}
.si_64{
font-size: 16.81px;
font-family: MyriadPro-Semibold_49;
fill: #231F20;
}
.sj_64{
font-size: 15.28px;
font-family: TimesLTStd-Bold_oh;
fill: #231F20;
}
.sk_64{
font-size: 9.17px;
font-family: TimesLTStd-Italic_o3;
fill: #231F20;
}
.sl_64{
font-size: 14.51px;
font-family: MyriadPro-Bold_74;
fill: #231F20;
}
.sm_64{
font-size: 15.28px;
font-family: MyriadPro-Bold_74;
fill: #231F20;
}
.sn_64{
font-size: 13.75px;
font-family: TimesLTStd-Italic_o3;
fill: #231F20;
}
.so_64{
font-size: 13.75px;
font-family: MathematicalPiLTStd-5_vb;
fill: #231F20;
}
.sp_64{
font-size: 13.75px;
font-family: TimesLTStd-Roman_143;
fill: #231F20;
}
.sq_64{
font-size: 12.22px;
font-family: TECHMath-Mix_1ag;
fill: #231F20;
}
.sr_64{
font-size: 12.22px;
font-family: TECHMath-Mix_16e;
fill: #231F20;
}
.ss_64{
font-size: 12.22px;
font-family: TECHMath-Mix_14f;
fill: #231F20;
}
.st_64{
font-size: 10.69px;
font-family: TECHMath-Mix_14f;
fill: #231F20;
}
.su_64{
font-size: 10.69px;
font-family: TECHMath-Mix_1am;
fill: #231F20;
}
.sv_64{
font-size: 12.22px;
font-family: TECHMath-Mix_1am;
fill: #231F20;
}
.sw_64{
font-size: 12.22px;
font-family: TECHMath-Mix_160;
fill: #231F20;
}
.sx_64{
font-size: 12.22px;
font-family: TECHMath-Mix_187;
fill: #231F20;
}
.sy_64{
font-size: 12.22px;
font-family: TECHMath-Mix_19t;
fill: #231F20;
}
.sz_64{
font-size: 12.99px;
font-family: Times-Roman_n6;
fill: #231F20;
}
.s10_64{
font-size: 12.99px;
font-family: TECHMath-Mix_1av;
fill: #231F20;
}
.s11_64{
font-size: 7.64px;
font-family: Times-Roman_4n;
fill: #000000;
}

.g0_64{
fill: none;
stroke: #00AEEF;
stroke-width: 0.763;
stroke-linecap: butt;
stroke-linejoin: miter;
stroke-miterlimit: 4;
}
.g1_64{
fill: none;
stroke: #231F20;
stroke-width: 0.763;
stroke-linecap: butt;
stroke-linejoin: miter;
}
.g2_64{
fill: #CC017A;
}
.g3_64{
fill: none;
stroke: #00AEEF;
stroke-width: 0.916;
stroke-linecap: butt;
stroke-linejoin: round;
stroke-miterlimit: 3;
}
.g4_64{
fill: none;
stroke: #231F20;
stroke-width: 0.611;
stroke-linecap: butt;
stroke-linejoin: miter;
stroke-miterlimit: 3;
}
.g5_64{
fill: #231F20;
}
.g6_64{
fill: none;
stroke: #231F20;
stroke-width: 0.381;
stroke-linecap: butt;
stroke-linejoin: miter;
stroke-miterlimit: 3;
}
.g7_64{
fill: none;
stroke: #231F20;
stroke-width: 0.763;
stroke-linecap: butt;
stroke-linejoin: miter;
stroke-miterlimit: 3;
stroke-dasharray: 10,5;
}
.g8_64{
fill: none;
stroke: #00AEEF;
stroke-width: 1.069;
stroke-linecap: butt;
stroke-linejoin: round;
stroke-miterlimit: 3;
}

]]></style>

</defs>
<g clip-path="url(#c_64)">
<path d="M0,0
L0,1096
L931,1096
L931,0 Z " 
fill="#FFFFFF" stroke="none"/>
<text x="53" y="64" class="s1_64">32</text>
<text x="126" y="64" dx="0,.2,.2,.2,.2,.2,.2,.1" class="s2_64">CHAPTER </text>
<text x="180" y="64" class="s3_64">1</text>
<text x="200" y="64" dx="0,-.3,.1,.1,.3,.1,.1,.1,.1,.1,.1,.1,.1,.1,.1,.2,.1,.1,.1,.1" class="s4_64">Functions and Models</text>
<text x="305" y="107" dx="0,0,0,0,0,0,0,0,0,0,0,0,0,0,0,0,0,0,0,0,0,0,0,0,0,0,0,0,0,0,0,0,0,0,0,0,0,0,0,0,0,0,0,0,0,0,0,0,0,0,0,0,0,0,0,0,0,0,0,0,0,0,0,0,0,0,-.2,0,0,0,0,0,0,0,0,0,0,0,0,0,0,0,0,0,0,0" class="s5_64">An important property of the sine and cosine functions is that they are periodic func-</text>
<text x="287" y="126" dx="0,0,0,0,0,0,0,0,0,0,0,0,-.3,-.2,0,0,0,0,0,0,0,0,0" class="s5_64">tions and have period 2</text>
<text x="429" y="126" class="s6_64">°</text>
<text x="439" y="126" dx="0,0,-.3,0,0,0,0,0,0,0,0,0,0,0,0,0,0,0,0,0,0,0,0,0,0,0,0,0,-.4,0,0,0,0,0,0,0,0" class="s5_64">. This means that, for all values of </text>
<text x="651" y="126" class="s7_64">x</text>
<text x="658" y="126" class="s5_64">,</text>
<text x="405" y="174" class="s5_64">sin</text>
<text x="423" y="174" class="s8_64">s</text>
<text x="429" y="174" class="s7_64">x</text>
<text x="440" y="174" class="s9_64">1</text>
<text x="457" y="174" class="s5_64">2</text>
<text x="465" y="174" class="s6_64">°</text>
<text x="475" y="174" class="s8_64">d</text>
<text x="485" y="174" class="sa_64">-</text>
<text x="502" y="174" class="s5_64">sin </text>
<text x="524" y="174" class="s7_64">x</text>
<text x="577" y="174" class="s5_64">cos</text>
<text x="597" y="174" class="s8_64">s</text>
<text x="603" y="174" class="s7_64">x</text>
<text x="615" y="174" class="s9_64">1</text>
<text x="632" y="174" class="s5_64">2</text>
<text x="640" y="174" class="s6_64">°</text>
<text x="650" y="174" class="s8_64">d</text>
<text x="659" y="174" class="sa_64">-</text>
<text x="677" y="174" class="s5_64">cos </text>
<text x="702" y="174" class="s7_64">x</text>
<path d="M362.1,148.1c0,0,-3.1,0,-3.1,3.1v35.9c0,0,0,3,3.1,3H752.4c0,0,3.1,0,3.1,-3V151.2c0,0,0,-3.1,-3.1,-3.1H362.1Z" class="g0_64"/>
<text x="287" y="219" dx="0,0,0,0,.1,0,0,0,0,0,0,0,0,.1,0,0,0,0,0,0,.1,0,0,.1,0,0,0,0,0,.1,0,0,0,0,0,0,0,0,0,.1,0,0,-.2,0,0,.1,0,0,0,0,.1,0,0,0,0,0,0,0,0,.1,0,0,0,.1,0,0,0,0,0,0,0,0,.1,0,0,0,0,0,0,0,-.4,-.2,0,.1,0,0,0" class="s5_64">The periodic nature of these functions makes them suitable for modeling repetitive phe-</text>
<text x="287" y="237" dx="0,0,0,0,0,0,0,-.7,0,0,0,0,-.7,0,0,-.7,0,0,0,0,0,0,-.7,0,0,0,0,0,0,0,0,0,-.7,0,0,0,0,0,0,0,0,-.7,0,0,0,-.7,0,0,0,0,0,-.7,-.2,-.3,-.2,0,0,0,-.7,-.2,0,0,-.7,0,0,0,0,0,0,0,0,0,-.7,0,0,-.7,0,0,0,0,0,0,0,-.7,0,0,0,0,0" class="s5_64">nomena such as tides, vibrating springs, and sound waves. For instance, in Example 1.3.4 </text>
<text x="287" y="256" dx="0,0,0,.2,0,0,0,0,.2,0,0,0,.2,0,0,0,0,.2,0,.2,0,0,0,0,0,0,0,0,0,0,.2,0,0,0,0,0,.2,0,0,0,.2,0,0,0,.2,0,0,0,0,0,0,.2,0,0,.2,0,0,0,0,0,.2,0,0,.2,0,0,0,0,0,0,0,0,.2,0,0,.2,0,0,0,0,0,0,0,0,0,0,0,0" class="s5_64">we will see that a reasonable model for the number of hours of daylight in Philadelphia </text>
<text x="287" y="274" class="s7_64">t</text>
<text x="295" y="274" dx="0,0,0,0,0,0,0,0,0,0,0,0,0,0,0,0,0,0,0,0,0,0,0,0,0,0,-.4,-.2,0,0,0,0,0,0,0,0,0,0,0,0,0,0,0,0,0" class="s5_64">days after January 1 is given by the function</text>
<text x="443" y="320" class="s7_64">L</text>
<text x="452" y="320" class="s8_64">s</text>
<text x="457" y="320" class="s7_64">t</text>
<text x="461" y="320" class="s8_64">d</text>
<text x="471" y="320" class="sa_64">-</text>
<text x="488" y="320" class="s5_64">12</text>
<text x="508" y="320" class="s9_64">1</text>
<text x="525" y="320" dx="0,0,0,0,-.8,0,0" class="s5_64">2.8 sin</text>
<text x="565" y="323" class="sb_64">F</text>
<text x="580" y="309" class="s5_64">2</text>
<text x="588" y="309" class="s6_64">°</text>
<path d="M576.4,315.4h27.5" class="g1_64"/>
<text x="578" y="331" class="s5_64">365</text>
<text x="605" y="320" class="s8_64">s</text>
<text x="610" y="320" class="s7_64">t</text>
<text x="618" y="320" class="s9_64">2</text>
<text x="636" y="320" class="s5_64">80</text>
<text x="651" y="320" class="s8_64">d</text>
<text x="656" y="323" class="sb_64">G</text>
<text x="287" y="378" dx="0,.3,.3,.3,.3,.3,.3,.2" class="sc_64">EXAMPLE </text>
<text x="358" y="378" class="sd_64">5</text>
<text x="375" y="378" class="s5_64">What is the domain of the function </text>
<text x="595" y="378" class="s7_64">f</text>
<text x="602" y="378" class="s8_64">s</text>
<text x="608" y="378" class="s7_64">x</text>
<text x="615" y="378" class="s8_64">d</text>
<text x="625" y="378" class="sa_64">-</text>
<text x="677" y="367" class="s5_64">1</text>
<g clip-path="url(#c0_64)">
<path d="M642.9,373.4H721" class="g1_64"/>
</g>
<text x="644" y="389" class="s5_64">1</text>
<text x="657" y="389" class="s9_64">2</text>
<text x="674" y="389" dx="0,0,.8,0,0,0" class="s5_64">2 cos </text>
<text x="711" y="389" class="s7_64">x</text>
<text x="722" y="378" class="s5_64">?</text>
<text x="287" y="412" dx="0,.3,.3,.3,.3,.3,.3,.3,.1" class="se_64">SOLUTION </text>
<text x="358" y="412" dx="0,0,0,0,0,0,0,0,0,0,0,0,0,0,0,0,0,0,0,0,0,0,0,0,0,0,0,0,0,0,0,0,0,-.4,0,0,0,0,0,0,0,0" class="s5_64">This function is deIned for all values of </text>
<text x="607" y="412" class="s7_64">x</text>
<text x="618" y="412" dx="0,-.2,0,0,0,0,0,0,0,0,0,0,0,0,0,0,0,0,0,0,0,0,0,0,0,-.2,0,0,0,0,0" class="s5_64">except for those that make the </text>
<text x="287" y="430" class="s5_64">denominator 0. But</text>
<text x="287" y="473" class="s5_64">1</text>
<text x="299" y="473" class="s9_64">2</text>
<text x="316" y="473" class="s5_64">2</text>
<text x="328" y="473" class="s5_64">cos </text>
<text x="353" y="473" class="s7_64">x</text>
<text x="368" y="473" class="sa_64">-</text>
<text x="385" y="473" dx="0,-.2" class="s5_64">0 </text>
<text x="409" y="473" dx="0,-3.1" class="sf_64">&amp;?</text>
<text x="454" y="473" class="s5_64">cos </text>
<text x="478" y="473" class="s7_64">x</text>
<text x="489" y="473" class="sa_64">-</text>
<text x="509" y="462" class="s5_64">1</text>
<path d="M507.3,468.2h12.2" class="g1_64"/>
<text x="509" y="483" class="s5_64">2</text>
<text x="539" y="473" dx="0,-3.1" class="sf_64">&amp;?</text>
<text x="584" y="473" class="s7_64">x</text>
<text x="595" y="473" class="sa_64">-</text>
<text x="615" y="462" class="sg_64">°</text>
<path d="M613.3,468.2H628" class="g1_64"/>
<text x="616" y="483" class="s5_64">3</text>
<text x="636" y="473" class="s9_64">1</text>
<text x="653" y="473" class="s5_64">2</text>
<text x="660" y="473" class="s7_64">n</text>
<text x="668" y="473" class="sg_64">°</text>
<text x="693" y="473" dx="0,-.2,-.2" class="s5_64">or </text>
<text x="721" y="473" class="s7_64">x</text>
<text x="732" y="473" class="sa_64">-</text>
<text x="752" y="462" class="s5_64">5</text>
<text x="759" y="462" class="sg_64">°</text>
<path d="M750.4,468.2h22.4" class="g1_64"/>
<text x="757" y="483" class="s5_64">3</text>
<text x="780" y="473" class="s9_64">1</text>
<text x="798" y="473" class="s5_64">2</text>
<text x="805" y="473" class="s7_64">n</text>
<text x="813" y="473" class="sg_64">°</text>
<text x="287" y="515" class="s5_64">where </text>
<text x="328" y="515" class="s7_64">n</text>
<text x="339" y="515" dx="0,0,0,0,0,-.2,0,0,0,0,0,-.2,0,0,0,0,0,0,0,0,0,0,0,0,0,0,0,0,0,0,0,0,0,0,0,0,0,0,0,0,0,0,0,0,0,0,0,0,0,0,0,0,0,0,0,0" class="s5_64">is any integer (because the cosine function has period 2</text>
<text x="677" y="515" class="sg_64">°</text>
<text x="687" y="515" class="s5_64">). So the domain of </text>
<text x="811" y="515" class="s7_64">f</text>
<text x="287" y="534" dx="0,0,0,0,0,0,0,0,0,0,0,0,0,0,0,0,0,0,0,0,0,0,0,0,0,0,0,0,0,0,0,0,-.2,0,0,0,0,0,0,0,0,0,0,0,0,0,0,0,0,0,0,0,0,0,0,0,0,0,0,0,-.2,-.2,0,0" class="s5_64">is the set of all real numbers except for the ones noted above. </text>
<text x="813" y="534" class="sh_64">■</text>
<text x="305" y="570" class="s5_64">The tangent function is related to the sine and cosine functions by the equation</text>
<text x="510" y="612" class="s5_64">tan </text>
<text x="534" y="612" class="s7_64">x</text>
<text x="545" y="612" class="sa_64">-</text>
<text x="566" y="601" class="s5_64">sin </text>
<text x="589" y="601" class="s7_64">x</text>
<g clip-path="url(#c1_64)">
<path d="M563.1,607.2h37.1" class="g1_64"/>
</g>
<text x="565" y="622" class="s5_64">cos </text>
<text x="590" y="622" class="s7_64">x</text>
<text x="287" y="651" dx="0,-.2,-.2,-.2,1.5,-.2,-.2,-.2,1.5,-.2,-.2,-.2,-.2,-.2,1.5,-.2,-.2,1.5,-.2,-.2,-.5,-.2,-.2,1.5,-.2,-.2,1.5,-.2,-.2,-.2,-.2,-.2,-.2,1.5,-.2,-.2,-.2,1.5,-.2,-.2,1.5,-.2,-.2,1.5,-.2,-.2,-.2,-.2,-.2,-.2,-.2,-.2,1.5,-.2,-.2,-.2,-.2,-.5,-.4,-.2,-.2,1.5,0,0,0" class="s5_64">and its graph is shown in Figure 19. ±t is undeIned whenever cos </text>
<text x="699" y="651" class="s7_64">x</text>
<text x="710" y="651" class="sa_64">-</text>
<text x="727" y="651" dx="0,-.2,-.2,1.5,-.2,-.2,-.2,-.2,1.5,-.2,-.2,-.2,1.5,-.2,-.2,-.2,0" class="s5_64">0, that is, when </text>
<text x="287" y="670" class="s7_64">x</text>
<text x="298" y="670" class="sa_64">-</text>
<text x="316" y="670" class="s9_64">6</text>
<text x="328" y="670" class="sg_64">°</text>
<text x="337" y="670" class="s8_64">y</text>
<text x="345" y="670" dx="0,-.2,-.2" class="s5_64">2, </text>
<text x="358" y="670" class="s9_64">6</text>
<text x="371" y="670" class="s5_64">3</text>
<text x="379" y="670" class="sg_64">°</text>
<text x="387" y="670" class="s8_64">y</text>
<text x="395" y="670" class="s5_64">2, </text>
<text x="410" y="670" dx="0,3,3.1,3.1" class="s5_64">....</text>
<text x="438" y="670" dx="0,-.2,-.2,-.2,-1.4,-.2,-.2,-.2,-.2,-.2,-1.4,-.2,-.2" class="s5_64">±ts range is </text>
<text x="504" y="670" class="s8_64">s</text>
<text x="509" y="670" class="s9_64">2`</text>
<text x="531" y="670" class="s5_64">,</text>
<text x="538" y="670" class="s9_64">`</text>
<text x="549" y="670" class="s8_64">d</text>
<text x="553" y="670" dx="0,-.2,-1.4,-.2,-.2,-.2,-.2,-.2,-.2,-1.4,-.2,-.2,-.2,-.2,-1.4,-.2,-.2,-.2,-1.4,-.2,-.2,-.2,-.2,-.2,-.2,-.2,-1.4,-.2,-.2,-.2,-.2,-.2,-.2,-.2,-.2,-1.4,-.2,-.2,-.2,-1.4,-.2,-.2,-.2,-.2,-.2,-.2" class="s5_64">. Notice that the tangent function has period </text>
<text x="809" y="670" class="sg_64">°</text>
<text x="819" y="670" class="s5_64">:</text>
<text x="455" y="708" class="s5_64">tan</text>
<text x="473" y="708" class="s8_64">s</text>
<text x="479" y="708" class="s7_64">x</text>
<text x="490" y="708" class="s9_64">1</text>
<text x="508" y="708" class="sg_64">°</text>
<text x="518" y="708" class="s8_64">d</text>
<text x="528" y="708" class="sa_64">-</text>
<text x="545" y="708" class="s5_64">tan </text>
<text x="568" y="708" class="s7_64">x</text>
<text x="607" y="708" class="s5_64">for all </text>
<text x="648" y="708" class="s7_64">x</text>
<text x="305" y="745" dx="0,0,0,0,2.1,0,0,0,0,0,0,0,0,0,2.1,0,0,0,0,0,2.1,0,0,0,0,0,0,0,0,0,0,0,0,0,2.1,0,0,0,0,0,0,0,0,0,2.1,0,0,0,0,0,0,0,0,0,0,2.1,0,0,0,0,0,0,0,2.1,0,0,0,2.1,0,0,0,0,0,0,0,0,0,0,2.1,0,0,0" class="s5_64">The remaining three trigonometric functions (cosecant, secant, and cotangent) are </text>
<text x="287" y="763" dx="0,0,0,0,2.1,0,0,0,0,0,0,0,0,0,0,0,2.1,0,0,2.1,0,0,0,2.1,0,0,0,0,0,2.1,0,0,0,0,0,0,0,2.1,0,0,0,2.1,0,0,0,0,0,0,0,2.1,0,0,0,0,0,0,0,0,0,0,1.8,0,0,0,0,0,2.1,0,0,0,0,0,0,2.1,0,0,0,2.1,0,0,-.4,0,0,2.1,0,.1" class="s5_64">the reciprocals of the sine, cosine, and tangent functions. Their graphs are shown in </text>
<text x="287" y="781" class="s5_64">Appendix D.</text>
<path d="M288.8,807.7c0,0,-1.6,0,-1.6,1.5v9.2c0,0,0,1.5,1.6,1.5h9.1c0,0,1.6,0,1.6,-1.5v-9.2c0,0,0,-1.5,-1.6,-1.5Z" class="g2_64"/>
<text x="307" y="819" dx="0,0,0,0,0,0,0,-.1,0,0,0,0,0,-.5,0,0,.3,0,0,0,0" class="si_64">Exponential Functions</text>
<text x="287" y="842" class="s5_64">The </text>
<text x="314" y="842" dx="0,0,0,0,0,0,0,0,0,0,0,0,.1,0,0,0,0,0,0,0" class="sj_64">exponential function</text>
<text x="448" y="842" dx="0,0,.1,0,0,0,.1,0,0,0,.1,0,0,0,0,0,0,0,0,0,.1,0,0,.1,0,0,0,.1,0,0,0,0" class="s5_64">s are the functions of the form </text>
<text x="639" y="842" class="s7_64">f</text>
<text x="646" y="842" class="s8_64">s</text>
<text x="652" y="842" class="s7_64">x</text>
<text x="658" y="842" class="s8_64">d</text>
<text x="668" y="842" class="sa_64">-</text>
<text x="685" y="842" class="s7_64">b</text>
<text x="694" y="836" class="sk_64">x</text>
<text x="699" y="842" dx="0,0,.1,0,0,0,0,0,.1,0,0,0,.1,0,0,0,0" class="s5_64">, where the base </text>
<text x="801" y="842" class="s7_64">b</text>
<text x="813" y="842" class="s5_64">is </text>
<text x="287" y="861" dx="0,0,-.2,0,0,0,0,0,-.4,-.2,0,-.2,0,0,0,0,0,0,0,0,0,-.5,0,0,0,-.2,0,0,0,0,0,0,-.2,0,0" class="s5_64">a positive constant. The graphs of </text>
<text x="495" y="861" class="s7_64">y</text>
<text x="506" y="861" class="sa_64">-</text>
<text x="524" y="861" class="s5_64">2</text>
<text x="532" y="855" class="sk_64">x</text>
<text x="540" y="861" class="s5_64">and </text>
<text x="566" y="861" class="s7_64">y</text>
<text x="577" y="861" class="sa_64">-</text>
<text x="595" y="861" class="s8_64">s</text>
<text x="600" y="861" class="s5_64">0.5</text>
<text x="619" y="861" class="s8_64">d</text>
<text x="625" y="855" class="sk_64">x</text>
<text x="632" y="861" dx="0,0,0,0,-.2,0,0,-.4,0,0,-.2,0,0,-.2,0,0,0,0,0,0,-.2,0,0,0,-.2,0,0,-.2,0,0,0,0" class="s5_64">are shown in Figure 20. ±n both </text>
<text x="287" y="879" class="s5_64">cases the domain is </text>
<text x="409" y="879" class="s8_64">s</text>
<text x="414" y="879" class="s9_64">2`</text>
<text x="437" y="879" class="s5_64">,</text>
<text x="444" y="879" class="s9_64">`</text>
<text x="454" y="879" class="s8_64">d</text>
<text x="463" y="879" class="s5_64">and the range is </text>
<text x="563" y="879" class="s8_64">s</text>
<text x="568" y="879" class="s5_64">0,</text>
<text x="583" y="879" class="s9_64">`</text>
<text x="593" y="879" class="s8_64">d</text>
<text x="598" y="879" class="s5_64">.</text>
<text x="305" y="897" dx="0,0,0,0,0,0,0,0,0,0,0,0,-.7,0,0,0,0,0,0,0,0,0,-.7,0,0,0,0,-.7,0,0,-.7,0,0,0,0,0,0,0,-.7,0,0,-.7,0,0,0,0,0,0,-.7,0,0,-.7,0,0,0,0,0,0,0,-.7,0,0,0,0,-.7,0,0,0,-.7,0,0,-.7,0,0,0,0,-.7,0,0,0,-.7,0,0,0,0,-.7,0,0,-.2,0" class="s5_64">Exponential functions will be studied in detail in Section 1.4, and we will see that they </text>
<text x="287" y="916" dx="0,0,0,0,.2,0,0,0,0,0,0,.2,0,0,0,.2,0,0,0,0,0,0,0,0,.2,0,0,-.2,0,.2,0,0,0,0,0,0,0,.2,0,0,0,0,0,0,0,0,0,0,.2,0,0,0,0,.2,0,0,.2,0,0,0,0,0,0,0,0,0,0,.2,0,0,-.4,0,0,0,.2,0,0,0" class="s5_64">are useful for modeling many natural phenomena, such as population growth (if </text>
<text x="781" y="916" class="s7_64">b</text>
<text x="793" y="916" class="s9_64">.</text>
<text x="810" y="916" class="s5_64">1) </text>
<text x="287" y="934" dx="0,0,0,0,0,0,0,0,0,0,0,0,0,-.4,-.2,0,0,0,0,0,0,0,0,0,0,0" class="s5_64">and radioactive decay (if </text>
<text x="441" y="934" class="s7_64">b</text>
<text x="454" y="934" class="s9_64">,</text>
<text x="471" y="934" class="s5_64">1</text>
<text x="479" y="934" class="s8_64">d</text>
<text x="483" y="934" class="s5_64">.</text>
<path d="M288.8,960.5c0,0,-1.6,0,-1.6,1.5v9.2c0,0,0,1.5,1.6,1.5h9.1c0,0,1.6,0,1.6,-1.5V962c0,0,0,-1.5,-1.6,-1.5Z" class="g2_64"/>
<text x="307" y="972" dx="0,-.2,0,0,0,0,0,0,0,0,0,0,0,-.5,0,0,.3,0,0,0,0" class="si_64">Logarithmic Functions</text>
<text x="287" y="995" class="s5_64">The </text>
<text x="314" y="995" dx="0,0,0,0,0,0,0,0,0,0,0,0,-.5,0,0,0,0,0,0,0,0" class="sj_64">logarithmic functions</text>
<text x="458" y="995" class="s7_64">f</text>
<text x="465" y="995" class="s8_64">s</text>
<text x="471" y="995" class="s7_64">x</text>
<text x="478" y="995" class="s8_64">d</text>
<text x="487" y="995" class="sa_64">-</text>
<text x="505" y="995" class="s5_64">log</text>
<text x="525" y="997" class="sk_64">b</text>
<text x="532" y="995" class="s7_64">x</text>
<text x="538" y="995" dx="0,0,-.5,0,0,0,0,0,-.5,0,0,0,-.5,0,0,0,0" class="s5_64">, where the base </text>
<text x="639" y="995" class="s7_64">b</text>
<text x="650" y="995" dx="0,0,0,-.5,0,-.5,0,0,0,0,0,-.4,-.2,0,-.5,0,0,0,0,0,0,0,0,0,-.5,0,0,0,-.5,0,0,0" class="s5_64">is a positive constant, are the </text>
<text x="287" y="1013" dx="0,0,-.6,-.2,0,0,0,0,-.8,0,0,0,0,0,0,0,0,0,-.8,0,0,-.8,0,0,0,-.8,-.2,0,0,0,0,0,0,0,0,0,0,-.8,0,0,0,0,0,0,0,0,0,0,-1.1,0,0,-.2,0,-.8,0,0,0,0,-.8,0,0,-.8,0,0,0,0,0,0,0,-.8,0,0,-.8,0,0,0,0,0,0,0,-.8,0,0,0,0,-.8,0,0,0,0,0,0" class="s5_64">inverse functions of the exponential functions. They will be studied in Section 1.5. Figure </text>
<text x="53" y="758" dx="0,.3,.3,.3,.3,.3,.1" class="sl_64">FIGURE </text>
<text x="106" y="758" class="sm_64">19</text>
<text x="53" y="775" class="sn_64">y</text>
<text x="64" y="775" class="so_64">-</text>
<text x="79" y="775" class="sp_64">tan </text>
<text x="99" y="775" class="sn_64">x</text>
<path d="M77.4,730.1c1,-22.5,2.1,-69.5,23.5,-82.5c21.4,-13,22.5,-59.9,23.5,-82.5m63,165c1,-22.5,2.1,-69.5,23.5,-82.5c21.4,-13,22.5,-59.9,23.5,-82.5m-102,165c1,-22.5,2.1,-69.5,23.5,-82.5c21.4,-13,22.5,-59.9,23.5,-82.5" class="g3_64"/>
<text x="257" y="659" class="sq_64">x</text>
<path d="M53.5,647.6H258.3" class="g4_64"/>
<path fill-rule="evenodd" d="M258.3,647.6l-1.7,-2.5l6.6,2.5l-6.6,2.4Z" class="g5_64"/>
<text x="145" y="566" class="sq_64">y</text>
<path d="M156,730.1v-165" class="g4_64"/>
<path fill-rule="evenodd" d="M156,565.1l-2.4,1.7l2.4,-6.6l2.4,6.6Z" class="g5_64"/>
<text x="206" y="663" class="sq_64">π</text>
<text x="160" y="661" class="sr_64">0</text>
<text x="92" y="663" dx="0,.4" class="ss_64">_π</text>
<path d="M183.4,644.6v6.1" class="g4_64"/>
<text x="143" y="631" class="ss_64">1</text>
<text x="179" y="662" class="st_64">π</text>
<text x="181" y="676" class="su_64">2</text>
<path d="M179.3,665h8.9" class="g6_64"/>
<text x="231" y="662" class="su_64">3π</text>
<text x="235" y="676" class="su_64">2</text>
<path d="M232.2,664.8h13.4" class="g6_64"/>
<text x="126" y="662" class="su_64">π</text>
<text x="128" y="676" class="su_64">2</text>
<path d="M126.4,665h8.8" class="g6_64"/>
<text x="116" y="668" class="sv_64">_</text>
<path d="M152.9,627h6.2M73.4,644.6v6.1m27.5,-6.1v6.1m27.5,-6.1v6.1m110,-6.1v6.1m-27.5,-6.1v6.1" class="g4_64"/>
<text x="67" y="662" class="su_64">3π </text>
<text x="73" y="675" class="su_64">2</text>
<path d="M69,664.9H82.4" class="g6_64"/>
<text x="58" y="668" class="sv_64">_</text>
<path d="M238.4,565.1V640m0,90.1V681.2m-55,-116.1V640m0,90.1V681.2m-55,-116.1V640m0,90.1V681.2M73.4,565.1V640m0,90.1V681.2" class="g7_64"/>
<path d="M53.8,898.1C98,896.9,122.5,889.5,137.7,821m126.4,77.1C219.9,896.9,195.4,889.5,180.2,821" class="g8_64"/>
<text x="95" y="824" class="sw_64">y</text>
<text x="150" y="909" class="sx_64">x</text>
<path d="M102.7,886.3H107M117.7,897v4.2" class="g4_64"/>
<text x="94" y="887" class="sx_64">1</text>
<text x="115" y="913" class="sx_64">1</text>
<text x="96" y="911" class="sy_64">0</text>
<path d="M104.9,915.1v-93" class="g4_64"/>
<path fill-rule="evenodd" d="M104.9,822.1l-1.7,1.1l1.7,-4.5l1.7,4.5Z" class="g5_64"/>
<path d="M53.5,899.1H153" class="g4_64"/>
<path fill-rule="evenodd" d="M153,899.1l-1.1,-1.7l4.5,1.7l-4.5,1.7Z" class="g5_64"/>
<text x="203" y="824" class="sw_64">y</text>
<text x="260" y="909" class="sx_64">x</text>
<path d="M210.9,886.3h4.3M225.9,897v4.2" class="g4_64"/>
<text x="202" y="892" class="sx_64">1</text>
<text x="223" y="913" class="sx_64">1</text>
<text x="204" y="910" class="sy_64">0</text>
<path d="M213,915.1v-93" class="g4_64"/>
<path fill-rule="evenodd" d="M213,822.1l-1.7,1.1l1.7,-4.5l1.7,4.5Z" class="g5_64"/>
<path d="M164.9,899.1h99.5" class="g4_64"/>
<path fill-rule="evenodd" d="M264.4,899.1l-1.2,-1.7l4.6,1.7l-4.6,1.7Z" class="g5_64"/>
<text x="78" y="934" class="sz_64">(a) </text>
<text x="96" y="934" dx="0,0,0,.6" class="s10_64">y=2®</text>
<text x="181" y="934" class="sz_64">(b) </text>
<text x="199" y="934" dx="0,0,0,0,0,0,0,.6" class="s10_64">y=(0.5)®</text>
<text x="53" y="963" dx="0,.3,.3,.3,.3,.3,.1" class="sl_64">FIGURE </text>
<text x="106" y="963" class="sm_64">20</text>
<text x="121" y="1076" class="s11_64">Copyright 2016 Cengage Learning. All Rights Reserved. May not be copied, scanned, or duplicated, in whole or in part. Due to electronic rights, some third party content may be suppressed from the eBook and/or eChapter(s).</text>
<text x="106" y="1087" class="s11_64">Editorial review has deemed that any suppressed content does not materially affect the overall learning experience. Cengage Learning reserves the right to remove additional content at any time if subsequent rights restrictions require it.</text>

</g>

<!-- Any embedded fonts defined here -->
<style type="text/css" ><![CDATA[

@font-face {
	font-family: MathematicalPi-One-Italic_1aq;
	src: url("fonts/MathematicalPi-One-Italic_1aq.woff") format("woff");
}

@font-face {
	font-family: MathematicalPi-One-Italic_x2;
	src: url("fonts/MathematicalPi-One-Italic_x2.woff") format("woff");
}

@font-face {
	font-family: MathematicalPiLTStd-1_rr;
	src: url("fonts/MathematicalPiLTStd-1_rr.woff") format("woff");
}

@font-face {
	font-family: MathematicalPiLTStd-3_ry;
	src: url("fonts/MathematicalPiLTStd-3_ry.woff") format("woff");
}

@font-face {
	font-family: MathematicalPiLTStd-5_vb;
	src: url("fonts/MathematicalPiLTStd-5_vb.woff") format("woff");
}

@font-face {
	font-family: MyriadPro-BoldSemiCn_90;
	src: url("fonts/MyriadPro-BoldSemiCn_90.woff") format("woff");
}

@font-face {
	font-family: MyriadPro-Bold_74;
	src: url("fonts/MyriadPro-Bold_74.woff") format("woff");
}

@font-face {
	font-family: MyriadPro-Regular_4i;
	src: url("fonts/MyriadPro-Regular_4i.woff") format("woff");
}

@font-face {
	font-family: MyriadPro-Semibold_49;
	src: url("fonts/MyriadPro-Semibold_49.woff") format("woff");
}

@font-face {
	font-family: TECHMath-Mix_14f;
	src: url("fonts/TECHMath-Mix_14f.woff") format("woff");
}

@font-face {
	font-family: TECHMath-Mix_160;
	src: url("fonts/TECHMath-Mix_160.woff") format("woff");
}

@font-face {
	font-family: TECHMath-Mix_16e;
	src: url("fonts/TECHMath-Mix_16e.woff") format("woff");
}

@font-face {
	font-family: TECHMath-Mix_187;
	src: url("fonts/TECHMath-Mix_187.woff") format("woff");
}

@font-face {
	font-family: TECHMath-Mix_19t;
	src: url("fonts/TECHMath-Mix_19t.woff") format("woff");
}

@font-face {
	font-family: TECHMath-Mix_1ag;
	src: url("fonts/TECHMath-Mix_1ag.woff") format("woff");
}

@font-face {
	font-family: TECHMath-Mix_1am;
	src: url("fonts/TECHMath-Mix_1am.woff") format("woff");
}

@font-face {
	font-family: TECHMath-Mix_1av;
	src: url("fonts/TECHMath-Mix_1av.woff") format("woff");
}

@font-face {
	font-family: Times-Roman_4n;
	src: url("fonts/Times-Roman_4n.woff") format("woff");
}

@font-face {
	font-family: Times-Roman_n6;
	src: url("fonts/Times-Roman_n6.woff") format("woff");
}

@font-face {
	font-family: TimesLTStd-Bold_oh;
	src: url("fonts/TimesLTStd-Bold_oh.woff") format("woff");
}

@font-face {
	font-family: TimesLTStd-Italic_o3;
	src: url("fonts/TimesLTStd-Italic_o3.woff") format("woff");
}

@font-face {
	font-family: TimesLTStd-Roman_143;
	src: url("fonts/TimesLTStd-Roman_143.woff") format("woff");
}

@font-face {
	font-family: UniversalChemicalPi-T_-_;
	src: url("fonts/UniversalChemicalPi-T_-_.woff") format("woff");
}

@font-face {
	font-family: ZapfDingbatsITC_my;
	src: url("fonts/ZapfDingbatsITC_my.woff") format("woff");
}

]]></style>

</svg>
