<?xml version="1.0" encoding="UTF-8" standalone="no"?>
<!DOCTYPE svg PUBLIC "-//W3C//DTD SVG 1.1//EN"
"http://www.w3.org/Graphics/SVG/1.1/DTD/svg11.dtd">


<!-- Page 65 -->
<svg x="0" y="0" width="931" height="1096" viewBox="0 0 931 1096" version="1.1" xmlns="http://www.w3.org/2000/svg" xmlns:xlink="http://www.w3.org/1999/xlink"
style="display: block;margin-left: auto;margin-right: auto;">
<defs>
<clipPath id="c_65"><path d="M0,0H931V1096H0Z"/></clipPath>
<clipPath id="c0_65"><path d="M366.8,252.2V216.8H468.5v35.4Z"/></clipPath>
<clipPath id="c1_65"><path d="M366.8,386.7V351.2H468.5v35.5Z"/></clipPath>
<clipPath id="c2_65"><path d="M335.4,584.6V568.4h60v16.2Z"/></clipPath>
<clipPath id="c3_65"><path d="M156.6,624.9V594.4h84.9v30.5Z"/></clipPath>
<clipPath id="c4_65"><path d="M156.6,739.5V714h62.2v25.5Z"/></clipPath>
<clipPath id="c5_65"><path d="M335.4,744.3V707h78.7v37.3Z"/></clipPath>
<clipPath id="c6_65"><path d="M832.7,529.1v-16h44.4v16Z"/></clipPath>
<clipPath id="c7_65"><path d="M539.3,842.9V817.1H641.8v25.8Z"/></clipPath>
<clipPath id="c8_65"><path d="M741,842.9V814.2H844.2v28.7Z"/></clipPath>

<style type="text/css"><![CDATA[
text { white-space: pre; }
path, image { pointer-events: none; }

.s1_65{
font-size: 12.22px;
font-family: MyriadPro-Semibold_49;
fill: #231F20;
}
.s2_65{
font-size: 13.75px;
font-family: MyriadPro-Semibold_49;
fill: #231F20;
}
.s3_65{
font-size: 12.22px;
font-family: MyriadPro-Regular_4i;
fill: #231F20;
}
.s4_65{
font-size: 15.28px;
font-family: MyriadPro-Semibold_49;
fill: #231F20;
}
.s5_65{
font-size: 15.28px;
font-family: TimesLTStd-Roman_143;
fill: #231F20;
}
.s6_65{
font-size: 15.28px;
font-family: MathematicalPiLTStd-3_ry;
fill: #231F20;
}
.s7_65{
font-size: 15.28px;
font-family: MathematicalPiLTStd-1_rr;
fill: #231F20;
}
.s8_65{
font-size: 15.28px;
font-family: TimesLTStd-Italic_o3;
fill: #231F20;
}
.s9_65{
font-size: 16.81px;
font-family: MyriadPro-BoldSemiCn_90;
fill: #EC008C;
}
.sa_65{
font-size: 17.57px;
font-family: MyriadPro-BoldSemiCn_90;
fill: #EC008C;
}
.sb_65{
font-size: 15.28px;
font-family: MathematicalPiLTStd-5_vb;
fill: #231F20;
}
.sc_65{
font-size: 9.17px;
font-family: TimesLTStd-Italic_o3;
fill: #231F20;
}
.sd_65{
font-size: 15.28px;
font-family: BeaconDingbatsTypeOne_12w;
fill: #231F20;
}
.se_65{
font-size: 9.17px;
font-family: TimesLTStd-Roman_143;
fill: #231F20;
}
.sf_65{
font-size: 13.75px;
font-family: MyriadPro-Semibold_49;
fill: #EC008C;
}
.sg_65{
font-size: 12.99px;
font-family: ZapfDingbatsITC_my;
fill: #EC008C;
}
.sh_65{
font-size: 13.75px;
font-family: MyriadPro-BoldSemiCn_90;
fill: #00AEEF;
}
.si_65{
font-size: 13.75px;
font-family: TimesLTStd-Roman_143;
fill: #231F20;
}
.sj_65{
font-size: 13.75px;
font-family: MyriadPro-BoldSemiCn_90;
fill: #231F20;
}
.sk_65{
font-size: 13.75px;
font-family: TimesLTStd-Italic_o3;
fill: #231F20;
}
.sl_65{
font-size: 13.75px;
font-family: MathematicalPiLTStd-3_ry;
fill: #231F20;
}
.sm_65{
font-size: 13.75px;
font-family: MathematicalPiLTStd-5_vb;
fill: #231F20;
}
.sn_65{
font-size: 8.25px;
font-family: TimesLTStd-Roman_143;
fill: #231F20;
}
.so_65{
font-size: 13.75px;
font-family: BeaconDingbatsTypeOne_12w;
fill: #231F20;
}
.sp_65{
font-size: 6.60px;
font-family: TimesLTStd-Roman_143;
fill: #231F20;
}
.sq_65{
font-size: 13.75px;
font-family: MathematicalPiLTStd-1_rr;
fill: #231F20;
}
.sr_65{
font-size: 13.75px;
font-family: CenturyOldStyle-Italic__q;
fill: #231F20;
}
.ss_65{
font-size: 8.25px;
font-family: TimesLTStd-Italic_o3;
fill: #231F20;
}
.st_65{
font-size: 13.75px;
font-family: MathematicalPi-One-Italic_1aq;
fill: #231F20;
}
.su_65{
font-size: 8.25px;
font-family: MathematicalPi-One-Italic_1aq;
fill: #231F20;
}
.sv_65{
font-size: 13.75px;
font-family: MyriadPro-BoldSemiCn_90;
fill: #EC008C;
}
.sw_65{
font-size: 12.99px;
font-family: TECHMath-Mix_1am;
fill: #231F20;
}
.sx_65{
font-size: 12.22px;
font-family: TECHMath-Mix_1am;
fill: #231F20;
}
.sy_65{
font-size: 12.99px;
font-family: TECHMath-Mix_18x;
fill: #231F20;
}
.sz_65{
font-size: 12.22px;
font-family: TECHMath-Mix_15k;
fill: #231F20;
}
.s10_65{
font-size: 12.22px;
font-family: TECHMath-Mix_187;
fill: #231F20;
}
.s11_65{
font-size: 12.99px;
font-family: TECHMath-Mix_1a5;
fill: #231F20;
}
.s12_65{
font-size: 12.99px;
font-family: TECHMath-Mix_1av;
fill: #231F20;
}
.s13_65{
font-size: 12.22px;
font-family: TECHMath-Mix_16e;
fill: #231F20;
}
.s14_65{
font-size: 12.22px;
font-family: TECHMath-Mix_160;
fill: #231F20;
}
.s15_65{
font-size: 12.22px;
font-family: TECHMath-Mix_16a;
fill: #231F20;
}
.s16_65{
font-size: 12.22px;
font-family: TECHMath-Mix_-x;
fill: #231F20;
}
.s17_65{
font-size: 13.75px;
font-family: TECHMath-Mix__f;
fill: #231F20;
}
.s18_65{
font-size: 13.75px;
font-family: Times-Roman_n6;
fill: #231F20;
}
.s19_65{
font-size: 13.75px;
font-family: TECHMath-Mix_1bc;
fill: #231F20;
}
.s1a_65{
font-size: 14.51px;
font-family: MyriadPro-Bold_74;
fill: #231F20;
}
.s1b_65{
font-size: 15.28px;
font-family: MyriadPro-Bold_74;
fill: #231F20;
}
.s1c_65{
font-size: 7.64px;
font-family: Times-Roman_4n;
fill: #000000;
}

.g0_65{
fill: none;
stroke: #231F20;
stroke-width: 0.763;
stroke-linecap: butt;
stroke-linejoin: miter;
}
.g1_65{
fill: none;
stroke: #00AEEF;
stroke-width: 0.763;
stroke-linecap: butt;
stroke-linejoin: miter;
}
.g2_65{
fill: none;
stroke: #231F20;
stroke-width: 0.687;
stroke-linecap: butt;
stroke-linejoin: miter;
}
.g3_65{
fill: none;
stroke: #66C18C;
stroke-width: 1.069;
stroke-linecap: butt;
stroke-linejoin: round;
stroke-miterlimit: 3;
}
.g4_65{
fill: none;
stroke: #00AEEF;
stroke-width: 0.763;
stroke-linecap: butt;
stroke-linejoin: round;
stroke-miterlimit: 3;
}
.g5_65{
fill: none;
stroke: #EC008C;
stroke-width: 0.763;
stroke-linecap: butt;
stroke-linejoin: round;
stroke-miterlimit: 3;
}
.g6_65{
fill: none;
stroke: #231F20;
stroke-width: 0.611;
stroke-linecap: butt;
stroke-linejoin: miter;
stroke-miterlimit: 3;
}
.g7_65{
fill: #231F20;
}
.g8_65{
fill: none;
stroke: #66C18C;
stroke-width: 0.916;
stroke-linecap: butt;
stroke-linejoin: round;
stroke-miterlimit: 3;
}
.g9_65{
fill: none;
stroke: #231F20;
stroke-width: 0.763;
stroke-linecap: butt;
stroke-linejoin: round;
stroke-miterlimit: 3;
}
.ga_65{
fill: none;
stroke: #231F20;
stroke-width: 0.381;
stroke-linecap: butt;
stroke-linejoin: miter;
stroke-miterlimit: 3;
}

]]></style>

</defs>
<g clip-path="url(#c_65)">
<path d="M0,0
L0,1096
L931,1096
L931,0 Z " 
fill="#FFFFFF" stroke="none"/>
<text x="440" y="64" dx="0,.2,.2,.5,.2,.2,.2" class="s1_65">SECTION</text>
<text x="492" y="64" class="s2_65">1.2</text>
<text x="522" y="64" dx="0,.2,.1,.1,.1,.1,.1,.1,.1,.1,.1,.1,.1,.1,.2,.1,.1,.1,.1,.1,.1,.1,.1,.1,0,.1,.1,.1,.1,.1,.1,.1,.1,.1,.1,.1,.1,.1,.1,.1,.1,.1,.1,.1,.1,-.3,.1,.1,.3,.1,.1,.1,.1,.1" class="s3_65">Mathematical Models: A Catalog of Essential Functions </text>
<text x="862" y="64" class="s4_65">33</text>
<text x="342" y="107" dx="0,0,0,.7,0,0,-.4,0,0,.7,0,0,0,.7,0,0,0,0,0,0,.7,0,0,.7,0,0,0,0,.7,0,0,-.1,0,0,0,0,0,0,0,0,.7,0,0,0,0,0,0,0,0,0,.7,0,0,0,0,.7,-.4,0,0,0,0,0,0,.7,0,0,0,0,0,0,.7,0,0,.7,0,0,0,0,.7,0,0,0,0,.7,0,0,0" class="s5_65">21 shows the graphs of four logarithmic functions with various bases. ±n each case the </text>
<text x="342" y="126" dx="0,0,0,0,0,0,0,.9,0,0" class="s5_65">domain is </text>
<text x="407" y="126" class="s6_65">s</text>
<text x="412" y="126" class="s5_65">0, </text>
<text x="428" y="126" class="s7_65">`</text>
<text x="438" y="126" class="s6_65">d</text>
<text x="443" y="126" dx="0,0,.9,0,0,0,.9,0,0,0,0,0,.9,0,0" class="s5_65">, the range is </text>
<text x="528" y="126" class="s6_65">s</text>
<text x="534" y="126" class="s7_65">2`</text>
<text x="556" y="126" class="s5_65">, </text>
<text x="564" y="126" class="s7_65">`</text>
<text x="574" y="126" class="s6_65">d</text>
<text x="579" y="126" dx="0,0,.9,0,0,0,.9,0,0,0,.9,0,0,0,0,0,0,0,0,.9,0,0,0,0,0,0,0,0,0,.9,0,0,-.4,0,0,0,.9,0,0,0,0" class="s5_65">, and the function increases slowly when </text>
<text x="838" y="126" class="s8_65">x</text>
<text x="849" y="126" class="s7_65">.</text>
<text x="867" y="126" class="s5_65">1.</text>
<text x="342" y="162" dx="0,.3,.3,.3,.3,.3,.3,.2" class="s9_65">EXAMPLE </text>
<text x="413" y="162" class="sa_65">6</text>
<text x="430" y="162" dx="0,0,0,0,0,0,0,0,0,0,0,0,0,0,0,0,0,0,-.4,0,0,0,0,0,0,0,0,0,0,0,0,0,0,0,0,0,0,0,0,0,0,0,0,0,0,0,0,0,0,0,0,0,0,0,0,0,0,0,0,0,0,0,0,0,0,0,0,0,0,0,0,0,0,0" class="s5_65">Classify the following functions as one of the types of functions that we </text>
<text x="342" y="181" dx="0,0,-.3,-.2,0,0,0,0,0,0,0,0,0,0,0" class="s5_65">have discussed.</text>
<text x="342" y="204" class="s5_65">(a) </text>
<text x="369" y="204" class="s8_65">f</text>
<text x="375" y="204" class="s6_65">s</text>
<text x="381" y="204" class="s8_65">x</text>
<text x="388" y="204" class="s6_65">d</text>
<text x="397" y="204" class="sb_65">-</text>
<text x="415" y="204" class="s5_65">5</text>
<text x="423" y="198" class="sc_65">x</text>
<text x="611" y="204" class="s5_65">(b) </text>
<text x="636" y="204" class="sd_65">t</text>
<text x="643" y="204" class="s6_65">s</text>
<text x="649" y="204" class="s8_65">x</text>
<text x="655" y="204" class="s6_65">d</text>
<text x="665" y="204" class="sb_65">-</text>
<text x="682" y="204" class="s8_65">x</text>
<text x="691" y="198" class="se_65">5</text>
<text x="342" y="237" class="s5_65">(c) </text>
<text x="366" y="237" class="s8_65">h</text>
<text x="374" y="237" class="s6_65">s</text>
<text x="380" y="237" class="s8_65">x</text>
<text x="387" y="237" class="s6_65">d</text>
<text x="396" y="237" class="sb_65">-</text>
<text x="423" y="227" class="s5_65">1</text>
<text x="435" y="227" class="s7_65">1</text>
<text x="452" y="227" class="s8_65">x</text>
<g clip-path="url(#c0_65)">
<path d="M414.4,232.9h54.5" class="g0_65"/>
</g>
<text x="416" y="249" class="s5_65">1</text>
<text x="428" y="249" class="s7_65">2</text>
<text x="445" y="249" class="sd_65">s</text>
<text x="457" y="249" class="s8_65">x</text>
<path d="M457.5,235.6h9.1" class="g0_65"/>
<text x="611" y="237" class="s5_65">(d) </text>
<text x="636" y="237" class="s8_65">u</text>
<text x="644" y="237" class="s6_65">s</text>
<text x="649" y="237" class="s8_65">t</text>
<text x="653" y="237" class="s6_65">d</text>
<text x="663" y="237" class="sb_65">-</text>
<text x="680" y="237" class="s5_65">1</text>
<text x="692" y="237" class="s7_65">2</text>
<text x="709" y="237" class="s8_65">t</text>
<text x="718" y="237" class="s7_65">1</text>
<text x="736" y="237" class="s5_65">5</text>
<text x="743" y="237" class="s8_65">t</text>
<text x="749" y="231" class="se_65">4</text>
<text x="342" y="274" dx="0,.3,.3,.3,.3,.3,.3,.3,.1" class="sf_65">SOLUTION </text>
<text x="342" y="297" class="s5_65">(a) </text>
<text x="369" y="297" class="s8_65">f</text>
<text x="375" y="297" class="s6_65">s</text>
<text x="381" y="297" class="s8_65">x</text>
<text x="388" y="297" class="s6_65">d</text>
<text x="397" y="297" class="sb_65">-</text>
<text x="415" y="297" class="s5_65">5</text>
<text x="423" y="291" class="sc_65">x</text>
<text x="431" y="297" dx="0,0,0,0,0,0,0,-.2,0,0,0,0,0,0,0,0,0,0,0,0,0,0,0,0,0,0,0,0,0,0,0,0,0" class="s5_65">is an exponential function. (The </text>
<text x="630" y="297" class="s8_65">x</text>
<text x="640" y="297" dx="0,0,0,0,0,0,0,0,-.2,0,0,0,0,0,0,0,0" class="s5_65">is the exponent.)</text>
<text x="342" y="320" class="s5_65">(b) </text>
<text x="367" y="320" class="sd_65">t</text>
<text x="374" y="320" class="s6_65">s</text>
<text x="380" y="320" class="s8_65">x</text>
<text x="386" y="320" class="s6_65">d</text>
<text x="396" y="320" class="sb_65">-</text>
<text x="413" y="320" class="s8_65">x</text>
<text x="422" y="314" class="se_65">5</text>
<text x="430" y="320" dx="0,0,0,0,0,0,0,-.4,0,0,0,0,0,0,0,0,0,0,0,0,0,0,0,0,0,0" class="s5_65">is a power function. (The </text>
<text x="588" y="320" class="s8_65">x</text>
<text x="599" y="320" dx="0,0,0,0,0,0,0,0,0,0,0,0,0,0,-.5,-1.2,0,0,0,0,0,0,0,0,0,0,0,0,0,0,0,0,0,0,0,0,0,0,0,0,0,0,0,0,0,0,0,0" class="s5_65">is the base.) We could also consider it to be a </text>
<text x="342" y="338" dx="0,0,0,0,0,0,0,0,0,0,0,0,0,0,0,0,-.2,0,0,0,0,0,0" class="s5_65">polynomial of degree 5.</text>
<text x="342" y="372" class="s5_65">(c) </text>
<text x="366" y="372" class="s8_65">h</text>
<text x="374" y="372" class="s6_65">s</text>
<text x="380" y="372" class="s8_65">x</text>
<text x="387" y="372" class="s6_65">d</text>
<text x="396" y="372" class="sb_65">-</text>
<text x="423" y="361" class="s5_65">1</text>
<text x="435" y="361" class="s7_65">1</text>
<text x="452" y="361" class="s8_65">x</text>
<g clip-path="url(#c1_65)">
<path d="M414.4,367.3h54.5" class="g0_65"/>
</g>
<text x="416" y="383" class="s5_65">1</text>
<text x="428" y="383" class="s7_65">2</text>
<text x="445" y="384" class="sd_65">s</text>
<text x="457" y="383" class="s8_65">x</text>
<path d="M457.5,370.1h9.1" class="g0_65"/>
<text x="472" y="372" class="s5_65">is an algebraic function.</text>
<text x="342" y="410" class="s5_65">(d) </text>
<text x="367" y="410" class="s8_65">u</text>
<text x="375" y="410" class="s6_65">s</text>
<text x="380" y="410" class="s8_65">t</text>
<text x="384" y="410" class="s6_65">d</text>
<text x="394" y="410" class="sb_65">-</text>
<text x="411" y="410" class="s5_65">1</text>
<text x="423" y="410" class="s7_65">2</text>
<text x="441" y="410" class="s8_65">t</text>
<text x="449" y="410" class="s7_65">1</text>
<text x="467" y="410" class="s5_65">5</text>
<text x="474" y="410" class="s8_65">t</text>
<text x="480" y="404" class="se_65">4</text>
<text x="488" y="410" dx="0,0,0,0,0,0,0,0,0,0,0,0,0,0,0,0,0,0,0,0,0,-.2,0,0,0,0,0,0,0" class="s5_65">is a polynomial of degree 4. </text>
<text x="868" y="410" class="sg_65">■</text>
<image preserveAspectRatio="none" x="107" y="463" width="773" height="34" xlink:href="65/img/1.png"/>
<path d="M108.5,755.3h385" class="g1_65"/>
<text x="108" y="523" class="sh_65">1–2</text>
<text x="136" y="523" dx="0,0,0,0,0,0,0,0,0,0,0,0,0,0,0,0,0,0,0,0,0,0,0,0,0,0,0,0,0,0,-.3,0,0,0,0,0,0,0,0,0,0,0,0,0,0,0,0,0,0,0,0,0,0,0,0,0,0,0,0" class="si_65">Classify each function as a power function, root function, </text>
<text x="108" y="540" dx="0,0,0,0,0,0,0,0,0,0,0,0,0,0,0,0,0,0,0,0,0,0,0,0,-.2,0,0,0,0,0,0,0,0,0,0,0,0,0,0,0,0,0,0,0,0,0,0,0,0,0,0,0,0,0,0,0,0,0,0,0,0,0,0,0,0,0,0,0,0,0" class="si_65">polynomial (state its degree), rational function, algebraic function, </text>
<text x="108" y="557" dx="0,0,0,0,0,0,0,0,0,0,0,0,0,0,0,0,0,0,0,0,0,0,0,0,0,-.2,0,0,0,0,0,0,0,0,0,0,0,0,0,0,0,0,0,0,0,0,0,0,0,0,0,0,-.1,0,0,0,0,0,0,0,0,0,0,0,0,0,0,0,0,0" class="si_65">trigonometric function, exponential function, or logarithmic function.</text>
<text x="116" y="581" class="sj_65">1. </text>
<text x="133" y="581" class="si_65">(a) </text>
<text x="158" y="581" class="sk_65">f</text>
<text x="164" y="581" class="sl_65">s</text>
<text x="170" y="581" class="sk_65">x</text>
<text x="176" y="581" class="sl_65">d</text>
<text x="184" y="581" class="sm_65">-</text>
<text x="200" y="581" class="si_65">log</text>
<text x="218" y="582" class="sn_65">2 </text>
<text x="224" y="581" class="sk_65">x</text>
<text x="310" y="581" class="si_65">(b) </text>
<text x="335" y="581" class="so_65">t</text>
<text x="341" y="581" class="sl_65">s</text>
<text x="346" y="581" class="sk_65">x</text>
<text x="352" y="581" class="sl_65">d</text>
<text x="361" y="581" class="sm_65">-</text>
<text x="377" y="581" class="so_65">s</text>
<text x="379" y="575" class="sp_65">4</text>
<text x="387" y="581" class="sk_65">x</text>
<g clip-path="url(#c2_65)">
<path d="M387.6,568.7h8.1" class="g2_65"/>
</g>
<text x="133" y="615" class="si_65">(c) </text>
<text x="156" y="615" class="sk_65">h</text>
<text x="163" y="615" class="sl_65">s</text>
<text x="168" y="615" class="sk_65">x</text>
<text x="174" y="615" class="sl_65">d</text>
<text x="183" y="615" class="sm_65">-</text>
<text x="210" y="605" class="si_65">2</text>
<text x="218" y="605" class="sk_65">x</text>
<text x="225" y="599" class="sn_65">3</text>
<g clip-path="url(#c3_65)">
<path d="M199.5,610.6h42.4" class="g2_65"/>
</g>
<text x="201" y="624" class="si_65">1</text>
<text x="212" y="624" class="sq_65">2</text>
<text x="227" y="624" class="sk_65">x</text>
<text x="235" y="619" class="sn_65">2</text>
<text x="310" y="615" class="si_65">(d) </text>
<text x="335" y="615" class="sk_65">u</text>
<text x="342" y="615" class="sl_65">s</text>
<text x="348" y="615" class="sk_65">t</text>
<text x="352" y="615" class="sl_65">d</text>
<text x="361" y="615" class="sm_65">-</text>
<text x="377" y="615" class="si_65">1</text>
<text x="388" y="615" class="sq_65">2</text>
<text x="403" y="615" class="si_65">1.1</text>
<text x="420" y="615" class="sk_65">t</text>
<text x="428" y="615" class="sq_65">1</text>
<text x="444" y="615" class="si_65">2.54</text>
<text x="469" y="615" class="sk_65">t</text>
<text x="474" y="609" class="sn_65">2</text>
<text x="133" y="645" class="si_65">(e) </text>
<text x="156" y="645" class="sr_65">v</text>
<text x="163" y="645" class="sl_65">s</text>
<text x="168" y="645" class="sk_65">t</text>
<text x="173" y="645" class="sl_65">d</text>
<text x="181" y="645" class="sm_65">-</text>
<text x="197" y="645" class="si_65">5</text>
<text x="204" y="640" class="ss_65">t</text>
<text x="310" y="645" dx="0,0,0,-1.9,0" class="si_65">(f ) </text>
<text x="335" y="645" class="sr_65">w</text>
<text x="345" y="645" class="sl_65">s</text>
<text x="350" y="645" class="st_65">±</text>
<text x="358" y="645" class="sl_65">d</text>
<text x="367" y="645" class="sm_65">-</text>
<text x="382" y="645" class="si_65">sin </text>
<text x="400" y="645" class="st_65">± </text>
<text x="412" y="645" class="si_65">cos</text>
<text x="431" y="640" class="sn_65">2</text>
<text x="435" y="645" class="st_65">±</text>
<text x="116" y="670" class="sj_65">2. </text>
<text x="133" y="670" class="si_65">(a) </text>
<text x="156" y="670" class="sk_65">y</text>
<text x="167" y="670" class="sm_65">-</text>
<text x="182" y="670" class="st_65">°</text>
<text x="194" y="664" class="ss_65">x</text>
<text x="310" y="670" class="si_65">(b) </text>
<text x="335" y="670" class="sk_65">y</text>
<text x="345" y="670" class="sm_65">-</text>
<text x="361" y="670" class="sk_65">x</text>
<text x="368" y="664" class="su_65">°</text>
<text x="133" y="694" class="si_65">(c) </text>
<text x="156" y="694" class="sk_65">y</text>
<text x="167" y="694" class="sm_65">-</text>
<text x="182" y="694" class="sk_65">x</text>
<text x="190" y="689" class="sn_65">2</text>
<text x="195" y="694" class="sl_65">s</text>
<text x="199" y="694" class="si_65">2</text>
<text x="210" y="694" class="sq_65">2</text>
<text x="226" y="694" class="sk_65">x</text>
<text x="233" y="689" class="sn_65">3</text>
<text x="238" y="694" class="sl_65">d</text>
<text x="310" y="694" class="si_65">(d) </text>
<text x="335" y="694" class="sk_65">y</text>
<text x="345" y="694" class="sm_65">-</text>
<text x="361" y="694" class="si_65">tan </text>
<text x="381" y="694" class="sk_65">t</text>
<text x="389" y="694" class="sq_65">2</text>
<text x="405" y="694" class="si_65">cos </text>
<text x="426" y="694" class="sk_65">t</text>
<text x="133" y="729" class="si_65">(e) </text>
<text x="156" y="729" class="sk_65">y</text>
<text x="167" y="729" class="sm_65">-</text>
<text x="198" y="720" class="sk_65">s</text>
<g clip-path="url(#c4_65)">
<path d="M183.1,725.2h36" class="g2_65"/>
</g>
<text x="184" y="739" class="si_65">1</text>
<text x="195" y="739" class="sq_65">1</text>
<text x="211" y="739" class="sk_65">s</text>
<text x="310" y="729" dx="0,0,1.4,0" class="si_65">(f) </text>
<text x="335" y="729" class="sk_65">y</text>
<text x="345" y="729" class="sm_65">-</text>
<text x="363" y="720" class="so_65">s</text>
<text x="373" y="720" class="sk_65">x</text>
<text x="381" y="715" class="sn_65">3</text>
<text x="389" y="720" class="sq_65">2</text>
<text x="405" y="720" class="si_65">1</text>
<path d="M374,707.3h38.4" class="g2_65"/>
<g clip-path="url(#c5_65)">
<path d="M361.8,725.2h52.7" class="g2_65"/>
</g>
<text x="365" y="740" class="si_65">1</text>
<text x="376" y="740" class="sq_65">1</text>
<text x="391" y="742" class="so_65">s</text>
<text x="394" y="736" class="sp_65">3</text>
<text x="402" y="740" class="sk_65">x</text>
<path d="M402.4,728.8h8.2" class="g2_65"/>
<text x="108" y="777" class="sh_65">3–4</text>
<text x="136" y="777" class="si_65">Match each equation with its graph. Explain your choices. </text>
<text x="108" y="794" dx="0,0,0,0,0,-.2,0,0,0,0,0,0,0,0,0,0,0,0,0,0,0,0,0,0,0,0,0,0,0,0,0,0,0,0,0,0,0,0,0,0,0,0,0,0,-.8,0" class="si_65">(Don’t use a computer or graphing calculator.)</text>
<text x="116" y="819" class="sv_65">3. </text>
<text x="133" y="819" class="si_65">(a) </text>
<text x="156" y="819" class="sk_65">y</text>
<text x="167" y="819" class="sm_65">-</text>
<text x="182" y="819" class="sk_65">x</text>
<text x="190" y="813" class="sn_65">2</text>
<text x="228" y="819" class="si_65">(b) </text>
<text x="252" y="819" class="sk_65">y</text>
<text x="262" y="819" class="sm_65">-</text>
<text x="278" y="819" class="sk_65">x</text>
<text x="285" y="813" class="sn_65">5</text>
<text x="324" y="819" class="si_65">(c) </text>
<text x="347" y="819" class="sk_65">y</text>
<text x="357" y="819" class="sm_65">-</text>
<text x="372" y="819" class="sk_65">x</text>
<text x="380" y="813" class="sn_65">8</text>
<path d="M241.8,841c6.1,73.9,9.3,98.7,32,98c2.5,-.1,9.3,.2,24.8,.2c15.6,0,22.3,-.2,24.8,-.2c22.7,.8,25.9,-24.1,32,-97.9" class="g3_65"/>
<text x="235" y="992" class="sw_65">f</text>
<text x="289" y="951" class="sx_65">0</text>
<text x="344" y="853" class="sy_65">g</text>
<text x="367" y="866" class="sw_65">h</text>
<path d="M226.5,841c9.9,27,36.8,97.9,72.1,98.3c35.4,-.4,62.2,-71.3,72.1,-98.2" class="g4_65"/>
<path d="M239.6,1034c5.1,-40.1,12,-94.4,39.2,-94.6l19.8,-.1l19.8,-.1c28,-.2,34.5,-57.7,39.6,-98.1" class="g5_65"/>
<text x="286" y="847" class="sz_65">y</text>
<path d="M298.5,1034V845.9" class="g6_65"/>
<path fill-rule="evenodd" d="M298.5,845.9l-2.4,1.7l2.4,-6.6l2.5,6.6Z" class="g7_65"/>
<text x="401" y="951" class="s10_65">x</text>
<path d="M194,939.3H403" class="g6_65"/>
<path fill-rule="evenodd" d="M403,939.3l-1.6,-2.5l6.5,2.5l-6.5,2.4Z" class="g7_65"/>
<path d="M511.8,769.6H878.5M511.8,860.2H878.5" class="g1_65"/>
<text x="519" y="526" class="sj_65">4. </text>
<text x="539" y="526" class="si_65">(a) </text>
<text x="562" y="526" class="sk_65">y</text>
<text x="572" y="526" class="sm_65">-</text>
<text x="588" y="526" class="si_65">3</text>
<text x="595" y="526" class="sk_65">x</text>
<text x="628" y="526" class="si_65">(b) </text>
<text x="654" y="526" class="sk_65">y</text>
<text x="664" y="526" class="sm_65">-</text>
<text x="680" y="526" class="si_65">3</text>
<text x="687" y="520" class="ss_65">x</text>
<text x="719" y="526" class="si_65">(c) </text>
<text x="745" y="526" class="sk_65">y</text>
<text x="756" y="526" class="sm_65">-</text>
<text x="771" y="526" class="sk_65">x</text>
<text x="779" y="520" class="sn_65">3</text>
<text x="807" y="526" class="si_65">(d) </text>
<text x="833" y="526" class="sk_65">y</text>
<text x="843" y="526" class="sm_65">-</text>
<text x="858" y="526" class="so_65">s</text>
<text x="861" y="520" class="sp_65">3</text>
<text x="868" y="526" class="sk_65">x</text>
<g clip-path="url(#c6_65)">
<path d="M869.3,513.5h8.1" class="g2_65"/>
</g>
<text x="644" y="741" class="s11_65">G</text>
<path d="M702,552.9L637.8,745.4" class="g8_65"/>
<path d="M616,745.4c11.6,-52.1,24,-60.8,41.9,-60.8c24.1,0,38.4,-15.8,54.2,-131.7" class="g5_65"/>
<text x="611" y="665" class="s12_65">f</text>
<path d="M700,552.9C679.3,644.3,649.2,673.4,588.3,680.5" class="g4_65"/>
<text x="754" y="627" class="s12_65">g</text>
<text x="713" y="577" class="s11_65">F</text>
<path d="M588,728.7c56.5,-11.2,69.9,-22.3,69.9,-44.1c0,-28.8,23.4,-38.9,139.1,-55.4" class="g9_65"/>
<text x="647" y="559" class="sz_65">y</text>
<path d="M658.1,745.4V557.7" class="g6_65"/>
<path fill-rule="evenodd" d="M658.1,557.7l-2.4,1.6l2.4,-6.5l2.5,6.5Z" class="g7_65"/>
<text x="796" y="696" class="s10_65">x</text>
<path d="M588.5,684.5h209" class="g6_65"/>
<path fill-rule="evenodd" d="M797.5,684.5L795.8,682l6.5,2.5l-6.5,2.4Z" class="g7_65"/>
<text x="511" y="799" class="sh_65">5–6 </text>
<text x="539" y="799" class="si_65">Find the domain of the function.</text>
<text x="519" y="833" class="sj_65">5. </text>
<text x="542" y="833" class="sk_65">f</text>
<text x="548" y="833" class="sl_65">s</text>
<text x="553" y="833" class="sk_65">x</text>
<text x="560" y="833" class="sl_65">d</text>
<text x="569" y="833" class="sm_65">-</text>
<text x="597" y="823" class="si_65">cos </text>
<text x="619" y="823" class="sk_65">x</text>
<g clip-path="url(#c7_65)">
<path d="M585.3,828.6h56.8" class="g2_65"/>
</g>
<text x="587" y="842" class="si_65">1</text>
<text x="597" y="842" class="sq_65">2</text>
<text x="613" y="842" class="si_65">sin </text>
<text x="633" y="842" class="sk_65">x</text>
<text x="721" y="833" class="sj_65">6. </text>
<text x="744" y="833" class="so_65">t</text>
<text x="750" y="833" class="sl_65">s</text>
<text x="755" y="833" class="sk_65">x</text>
<text x="762" y="833" class="sl_65">d</text>
<text x="771" y="833" class="sm_65">-</text>
<text x="812" y="823" class="si_65">1</text>
<g clip-path="url(#c8_65)">
<path d="M787,828.6h57.6" class="g2_65"/>
</g>
<text x="788" y="842" class="si_65">1</text>
<text x="799" y="842" class="sq_65">2</text>
<text x="815" y="842" class="si_65">tan </text>
<text x="836" y="842" class="sk_65">x</text>
<text x="519" y="889" class="sv_65">7. </text>
<text x="537" y="889" class="si_65">(a) </text>
<text x="559" y="889" dx="0,0,0,0,0,0,0,0,0,0,0,0,0,0,0,0,0,0,0,0,0,0,0,0,0,0,-.1,0,0,0,0,0,0,0,0,0,0,0,0,0,0,0,0,0,0,0,0,0,0,0,0,0,0,0,0,0,0" class="si_65">Find an equation for the family of linear functions with </text>
<text x="559" y="906" dx="0,0,0,0,0,0,0,0,0,0,0,0,0,0,-.1,0,0,0,0,0,0,-.3,-.2,0,0,0,0,0,0,0,0,0,0,0,0,0,0,0,0,0,0,0,0,-.1,0,0,0,0,-.9" class="si_65">slope 2 and sketch several members of the family.</text>
<text x="537" y="923" class="si_65">(b) </text>
<text x="559" y="923" dx="0,0,0,0,0,0,0,0,0,0,0,0,0,0,0,0,0,0,0,0,0,0,0,0,0,0,-.1,0,0,0,0,0,0,0,0,0,0,0,0,0,0,0,0,0,0,0,0,0,0,0,0,0,0,0,0,0,0" class="si_65">Find an equation for the family of linear functions such </text>
<text x="559" y="940" class="si_65">that </text>
<text x="585" y="940" class="sk_65">f</text>
<text x="592" y="940" class="sl_65">s</text>
<text x="596" y="940" class="si_65">2</text>
<text x="603" y="940" class="sl_65">d</text>
<text x="612" y="940" class="sm_65">-</text>
<text x="627" y="940" dx="0,0,0,0,0,0,0,0,-.1,0,0,0,0,0,0,-.3,-.2,0,0,0,0,0,0,0,0,0,0,0,0,0,0,0,0,0,0,0,0,-.1,0,0,0,0,-.9" class="si_65">1 and sketch several members of the family.</text>
<text x="537" y="956" class="si_65">(c) </text>
<text x="559" y="956" dx="0,0,0,0,0,0,0,0,0,0,0,0,0,0,0,0,0,0,0,0,0,0,0,0,0,0,0,0,0,0,0,0,-.1,0,0,0,0,0,0,0" class="si_65">Which function belongs to both families?</text>
<text x="519" y="981" class="sj_65">8. </text>
<text x="539" y="981" dx="0,0,0,0,0,0,0,0,0,0,0,0,0,0,0,0,0,0,0,0,0,0,0,0,0,0,0,0,-.1,0,0,0,0,0,0,0,0,0,0,0,0,0,0,0,0,0,0,0,0,0,0,0,0,0" class="si_65">What do all members of the family of linear functions </text>
<text x="541" y="998" class="sk_65">f</text>
<text x="547" y="998" class="sl_65">s</text>
<text x="552" y="998" class="sk_65">x</text>
<text x="558" y="998" class="sl_65">d</text>
<text x="567" y="998" class="sm_65">-</text>
<text x="583" y="998" class="si_65">1</text>
<text x="594" y="998" class="sq_65">1</text>
<text x="609" y="998" class="sk_65">m</text>
<text x="619" y="998" class="sl_65">s</text>
<text x="624" y="998" class="sk_65">x</text>
<text x="635" y="998" class="sq_65">1</text>
<text x="650" y="998" class="si_65">3</text>
<text x="657" y="998" class="sl_65">d</text>
<text x="665" y="998" dx="0,0,-.3,-.2,0,0,0,0,0,0,0,0,0,0,0,0,0,0,-.1,0,0,0,0,0,0,-.3,-.2,0,0,0,0" class="si_65">have in common? Sketch several </text>
<text x="539" y="1014" dx="0,0,0,0,0,0,0,0,0,0,0,0,0,0,0,0,-.1,0,0,0,0,-.9" class="si_65">members of the family.</text>
<path d="M316.8,159.4C182,181.3,134,187,134,290.2" class="g5_65"/>
<path d="M316.8,110C173.9,151.2,147.3,217.9,140,290.3" class="g8_65"/>
<path d="M316.8,142.4c-142.2,27.4,-176,59.5,-181.6,148.1" class="g4_65"/>
<path d="M108.5,196.8H316.7" class="g6_65"/>
<path fill-rule="evenodd" d="M316.7,196.8l-1.6,-2.4l6.5,2.4l-6.5,2.5Z" class="g7_65"/>
<path d="M131.9,290.2V107" class="g6_65"/>
<path fill-rule="evenodd" d="M131.9,107l-2.5,1.6l2.5,-6.5l2.4,6.5Z" class="g7_65"/>
<path d="M128.8,158.9h6.1" class="g6_65"/>
<text x="121" y="208" class="s13_65">0</text>
<text x="121" y="107" class="s14_65">y</text>
<text x="120" y="162" class="s15_65">1</text>
<text x="314" y="207" class="s16_65">x</text>
<text x="168" y="213" class="s15_65">1</text>
<path d="M171.1,193.8v6.1" class="g6_65"/>
<path d="M316.8,172.2c-30.5,2.1,-62.7,4.8,-98.5,12.1c-76.7,15.4,-85.2,26.5,-85.2,105.9" class="g9_65"/>
<path d="M267.3,229.8l-6.2,-48.3" class="ga_65"/>
<path d="M260.6,178.2l2.2,4.1l-1.7,-.8l-1.6,1.2Z" class="g7_65"/>
<path d="M206.7,212l-4,-26" class="ga_65"/>
<path d="M202.2,182.8l2.3,4l-1.8,-.8l-1.4,1.3Z" class="g7_65"/>
<path d="M195.6,144.8l18.8,22.1" class="ga_65"/>
<path d="M216.5,169.4l-4.1,-2.2l2,-.3L215,165Z" class="g7_65"/>
<path d="M238.5,121l8.9,10.5" class="ga_65"/>
<path d="M249.5,134l-4.1,-2.3l2,-.2l.6,-1.9Z" class="g7_65"/>
<text x="143" y="142" class="s17_65">y=</text>
<text x="165" y="142" class="s18_65">log</text>
<text x="182" y="142" class="s19_65">£ x</text>
<text x="187" y="117" class="s19_65">y=</text>
<text x="209" y="117" class="s18_65">log</text>
<text x="226" y="117" class="s19_65">™ x</text>
<text x="203" y="222" class="s19_65">y=</text>
<text x="225" y="222" class="s18_65">log</text>
<text x="242" y="222" class="s19_65">∞ x</text>
<text x="263" y="240" class="s19_65">y=</text>
<text x="285" y="240" class="s18_65">log</text>
<text x="303" y="240" class="s19_65">¡¸ x</text>
<text x="108" y="318" dx="0,.3,.3,.3,.3,.3,.1" class="s1a_65">FIGURE </text>
<text x="161" y="318" class="s1b_65">21</text>
<text x="121" y="1076" class="s1c_65">Copyright 2016 Cengage Learning. All Rights Reserved. May not be copied, scanned, or duplicated, in whole or in part. Due to electronic rights, some third party content may be suppressed from the eBook and/or eChapter(s).</text>
<text x="106" y="1087" class="s1c_65">Editorial review has deemed that any suppressed content does not materially affect the overall learning experience. Cengage Learning reserves the right to remove additional content at any time if subsequent rights restrictions require it.</text>

</g>

<!-- Any embedded fonts defined here -->
<style type="text/css" ><![CDATA[

@font-face {
	font-family: BeaconDingbatsTypeOne_12w;
	src: url("fonts/BeaconDingbatsTypeOne_12w.woff") format("woff");
}

@font-face {
	font-family: CenturyOldStyle-Italic__q;
	src: url("fonts/CenturyOldStyle-Italic__q.woff") format("woff");
}

@font-face {
	font-family: MathematicalPi-One-Italic_1aq;
	src: url("fonts/MathematicalPi-One-Italic_1aq.woff") format("woff");
}

@font-face {
	font-family: MathematicalPiLTStd-1_rr;
	src: url("fonts/MathematicalPiLTStd-1_rr.woff") format("woff");
}

@font-face {
	font-family: MathematicalPiLTStd-3_ry;
	src: url("fonts/MathematicalPiLTStd-3_ry.woff") format("woff");
}

@font-face {
	font-family: MathematicalPiLTStd-5_vb;
	src: url("fonts/MathematicalPiLTStd-5_vb.woff") format("woff");
}

@font-face {
	font-family: MyriadPro-BoldSemiCn_90;
	src: url("fonts/MyriadPro-BoldSemiCn_90.woff") format("woff");
}

@font-face {
	font-family: MyriadPro-Bold_74;
	src: url("fonts/MyriadPro-Bold_74.woff") format("woff");
}

@font-face {
	font-family: MyriadPro-Regular_4i;
	src: url("fonts/MyriadPro-Regular_4i.woff") format("woff");
}

@font-face {
	font-family: MyriadPro-Semibold_49;
	src: url("fonts/MyriadPro-Semibold_49.woff") format("woff");
}

@font-face {
	font-family: TECHMath-Mix_-x;
	src: url("fonts/TECHMath-Mix_-x.woff") format("woff");
}

@font-face {
	font-family: TECHMath-Mix_15k;
	src: url("fonts/TECHMath-Mix_15k.woff") format("woff");
}

@font-face {
	font-family: TECHMath-Mix_160;
	src: url("fonts/TECHMath-Mix_160.woff") format("woff");
}

@font-face {
	font-family: TECHMath-Mix_16a;
	src: url("fonts/TECHMath-Mix_16a.woff") format("woff");
}

@font-face {
	font-family: TECHMath-Mix_16e;
	src: url("fonts/TECHMath-Mix_16e.woff") format("woff");
}

@font-face {
	font-family: TECHMath-Mix_187;
	src: url("fonts/TECHMath-Mix_187.woff") format("woff");
}

@font-face {
	font-family: TECHMath-Mix_18x;
	src: url("fonts/TECHMath-Mix_18x.woff") format("woff");
}

@font-face {
	font-family: TECHMath-Mix_1a5;
	src: url("fonts/TECHMath-Mix_1a5.woff") format("woff");
}

@font-face {
	font-family: TECHMath-Mix_1am;
	src: url("fonts/TECHMath-Mix_1am.woff") format("woff");
}

@font-face {
	font-family: TECHMath-Mix_1av;
	src: url("fonts/TECHMath-Mix_1av.woff") format("woff");
}

@font-face {
	font-family: TECHMath-Mix_1bc;
	src: url("fonts/TECHMath-Mix_1bc.woff") format("woff");
}

@font-face {
	font-family: TECHMath-Mix__f;
	src: url("fonts/TECHMath-Mix__f.woff") format("woff");
}

@font-face {
	font-family: Times-Roman_4n;
	src: url("fonts/Times-Roman_4n.woff") format("woff");
}

@font-face {
	font-family: Times-Roman_n6;
	src: url("fonts/Times-Roman_n6.woff") format("woff");
}

@font-face {
	font-family: TimesLTStd-Italic_o3;
	src: url("fonts/TimesLTStd-Italic_o3.woff") format("woff");
}

@font-face {
	font-family: TimesLTStd-Roman_143;
	src: url("fonts/TimesLTStd-Roman_143.woff") format("woff");
}

@font-face {
	font-family: ZapfDingbatsITC_my;
	src: url("fonts/ZapfDingbatsITC_my.woff") format("woff");
}

]]></style>

</svg>
