<?xml version="1.0" encoding="UTF-8" standalone="no"?>
<!DOCTYPE svg PUBLIC "-//W3C//DTD SVG 1.1//EN"
"http://www.w3.org/Graphics/SVG/1.1/DTD/svg11.dtd">


<!-- Page 66 -->
<svg x="0" y="0" width="931" height="1096" viewBox="0 0 931 1096" version="1.1" xmlns="http://www.w3.org/2000/svg" xmlns:xlink="http://www.w3.org/1999/xlink"
style="display: block;margin-left: auto;margin-right: auto;">
<defs>
<clipPath id="c_66"><path d="M0,0H931V1096H0Z"/></clipPath>
<style type="text/css"><![CDATA[
text { white-space: pre; }
path, image { pointer-events: none; }

.s1_66{
font-size: 15.28px;
font-family: MyriadPro-Semibold_49;
fill: #231F20;
}
.s2_66{
font-size: 12.22px;
font-family: MyriadPro-Semibold_49;
fill: #231F20;
}
.s3_66{
font-size: 13.75px;
font-family: MyriadPro-Semibold_49;
fill: #231F20;
}
.s4_66{
font-size: 12.22px;
font-family: MyriadPro-Regular_4i;
fill: #231F20;
}
.s5_66{
font-size: 13.75px;
font-family: MyriadPro-BoldSemiCn_90;
fill: #231F20;
}
.s6_66{
font-size: 13.75px;
font-family: TimesLTStd-Roman_143;
fill: #231F20;
}
.s7_66{
font-size: 13.75px;
font-family: TimesLTStd-Italic_o3;
fill: #231F20;
}
.s8_66{
font-size: 13.75px;
font-family: MathematicalPiLTStd-3_ry;
fill: #231F20;
}
.s9_66{
font-size: 13.75px;
font-family: MathematicalPiLTStd-5_vb;
fill: #231F20;
}
.sa_66{
font-size: 13.75px;
font-family: MathematicalPiLTStd-1_rr;
fill: #231F20;
}
.sb_66{
font-size: 12.22px;
font-family: TECHMath-Mix_160;
fill: #231F20;
}
.sc_66{
font-size: 12.22px;
font-family: TECHMath-Mix_1bi;
fill: #231F20;
}
.sd_66{
font-size: 12.99px;
font-family: TECHMath-Mix_1bi;
fill: #231F20;
}
.se_66{
font-size: 9.63px;
font-family: TimesLTStd-Roman_143;
fill: #231F20;
}
.sf_66{
font-size: 13.75px;
font-family: TimesLTStd-Roman_1bm;
fill: #231F20;
}
.sg_66{
font-size: 13.75px;
font-family: MyriadPro-BoldSemiCn_90;
fill: #EC008C;
}
.sh_66{
font-size: 8.25px;
font-family: TimesLTStd-Roman_1bm;
fill: #231F20;
}
.si_66{
font-size: 13.75px;
font-family: MyriadPro-BoldSemiCn_90;
fill: #00AEEF;
}
.sj_66{
font-size: 12.22px;
font-family: TECHMath-Mix_16e;
fill: #231F20;
}
.sk_66{
font-size: 12.22px;
font-family: TECHMath-Mix_187;
fill: #231F20;
}
.sl_66{
font-size: 12.22px;
font-family: TECHMath-Mix_19t;
fill: #231F20;
}
.sm_66{
font-size: 7.64px;
font-family: Times-Roman_4n;
fill: #000000;
}

.g0_66{
fill: none;
stroke: #00AEEF;
stroke-width: 0.916;
stroke-linecap: butt;
stroke-linejoin: miter;
stroke-miterlimit: 3;
}
.g1_66{
fill: #00AEEF;
}
.g2_66{
fill: none;
stroke: #00AEEF;
stroke-width: 0.763;
stroke-linecap: butt;
stroke-linejoin: miter;
stroke-miterlimit: 3;
}
.g3_66{
fill: none;
stroke: #231F20;
stroke-width: 0.611;
stroke-linecap: butt;
stroke-linejoin: miter;
stroke-miterlimit: 3;
}
.g4_66{
fill: #231F20;
}
.g5_66{
fill: none;
stroke: #231F20;
stroke-width: 0.481;
stroke-linecap: butt;
stroke-linejoin: miter;
}

]]></style>

</defs>
<g clip-path="url(#c_66)">
<path d="M0,0
L0,1096
L931,1096
L931,0 Z " 
fill="#FFFFFF" stroke="none"/>
<text x="53" y="67" class="s1_66">34</text>
<text x="126" y="67" dx="0,.2,.2,.2,.2,.2,.2,.1" class="s2_66">CHAPTER </text>
<text x="180" y="67" class="s3_66">1</text>
<text x="200" y="67" dx="0,-.3,.1,.1,.3,.1,.1,.1,.1,.1,.1,.1,.1,.1,.1,.2,.1,.1,.1,.1" class="s4_66">Functions and Models</text>
<text x="61" y="107" class="s5_66">9. </text>
<text x="80" y="107" dx="0,0,0,0,0,0,0,0,0,0,0,0,0,0,0,0,0,0,0,0,0,0,0,0,0,0,0,0,-.1,0,0,0,0,0,0,0,0,0,0,0,0,0,0,0,0,0,0,0,0,0,0,0,0,0" class="s6_66">What do all members of the family of linear functions </text>
<text x="82" y="124" class="s7_66">f</text>
<text x="89" y="124" class="s8_66">s</text>
<text x="94" y="124" class="s7_66">x</text>
<text x="100" y="124" class="s8_66">d</text>
<text x="109" y="124" class="s9_66">-</text>
<text x="124" y="124" class="s7_66">c</text>
<text x="134" y="124" class="sa_66">2</text>
<text x="150" y="124" class="s7_66">x</text>
<text x="160" y="124" dx="0,0,-.3,-.2,0,0,0,0,0,0,0,0,0,0,0,0,0,0,-.1,0,0,0,0,0,0,-.3,-.2,0,0,0,0,0,0,0,0,0,0,0,0,0,0,0" class="s6_66">have in common? Sketch several members of </text>
<text x="80" y="141" dx="0,0,0,0,0,-.1,0,0,0,0,-.9" class="s6_66">the family.</text>
<text x="54" y="165" class="s5_66">10. </text>
<text x="80" y="165" dx="0,0,0,0,0,0,-.2,0,0,0,0,0,0,0,0,0,0,0,0,0,0,0,0,0,0,0,0,0,0,0,0,0,0,0,0,0,0,0,0,0,0,0,0,0,0,0,0,0,0,0,0,0,0,0,0,0,0,0" class="s6_66">Find expressions for the quadratic functions whose graphs </text>
<text x="80" y="182" dx="0,0,0,0,0,0,0,-.3,0,0" class="s6_66">are shown.</text>
<path d="M263.1,303.4c5.7,-32.1,21.2,-90.6,38.4,-90.6c17.2,0,32.7,58.5,38.4,90.6" class="g0_66"/>
<path d="M339.9,295.3c0,.8,-.8,1.5,-1.8,1.5c-.9,0,-1.7,-.7,-1.7,-1.5c0,-.9,.8,-1.6,1.7,-1.6c1,0,1.8,.7,1.8,1.6Z" class="g1_66"/>
<path d="M339.9,295.3c0,.8,-.8,1.5,-1.8,1.5c-.9,0,-1.7,-.7,-1.7,-1.5c0,-.9,.8,-1.6,1.7,-1.6c1,0,1.8,.7,1.8,1.6Z" class="g2_66"/>
<path d="M323.4,238.2c0,.9,-.7,1.6,-1.5,1.6c-.9,0,-1.6,-.7,-1.6,-1.6c0,-.8,.7,-1.5,1.6,-1.5c.8,0,1.5,.7,1.5,1.5Z" class="g1_66"/>
<path d="M323.4,238.2c0,.9,-.7,1.6,-1.5,1.6c-.9,0,-1.6,-.7,-1.6,-1.6c0,-.8,.7,-1.5,1.6,-1.5c.8,0,1.5,.7,1.5,1.5Z" class="g2_66"/>
<path d="M291,221.9c0,.9,-.8,1.6,-1.7,1.6c-1,0,-1.8,-.7,-1.8,-1.6c0,-.8,.8,-1.5,1.8,-1.5c.9,0,1.7,.7,1.7,1.5Z" class="g1_66"/>
<path d="M291,221.9c0,.9,-.8,1.6,-1.7,1.6c-1,0,-1.8,-.7,-1.8,-1.6c0,-.8,.8,-1.5,1.8,-1.5c.9,0,1.7,.7,1.7,1.5Z" class="g2_66"/>
<path d="M120.7,200.8c4,30.2,13.5,83.9,24.1,83.9c10.7,0,20.2,-53.7,24.2,-83.9" class="g0_66"/>
<path d="M160.2,256.9c0,.9,-.6,1.6,-1.5,1.6c-.8,0,-1.5,-.7,-1.5,-1.6c0,-.8,.7,-1.5,1.5,-1.5c.9,0,1.5,.7,1.5,1.5Z" class="g1_66"/>
<path d="M160.2,256.9c0,.9,-.6,1.6,-1.5,1.6c-.8,0,-1.5,-.7,-1.5,-1.6c0,-.8,.7,-1.5,1.5,-1.5c.9,0,1.5,.7,1.5,1.5Z" class="g2_66"/>
<text x="312" y="206" class="sb_66">y</text>
<path d="M321.8,303.4V205.6" class="g3_66"/>
<path fill-rule="evenodd" d="M321.8,205.6l-2.1,1.5l2.1,-5.8l2.2,5.8Z" class="g4_66"/>
<path d="M243.7,254.5H377.5" class="g3_66"/>
<path fill-rule="evenodd" d="M377.5,254.5L376,252.3l5.9,2.2l-5.9,2.2Z" class="g4_66"/>
<text x="325" y="239" class="sc_66">(0, 1)</text>
<text x="342" y="297" class="sc_66">(1, _2.5)</text>
<text x="251" y="222" class="sc_66">(_2, 2)</text>
<text x="93" y="205" class="sc_66">y</text>
<text x="199" y="295" class="sc_66">x</text>
<text x="95" y="295" class="sc_66">0</text>
<path d="M103.2,303.1V204" class="g3_66"/>
<path fill-rule="evenodd" d="M103.2,204l-2.5,1.6l2.5,-6.5l2.4,6.5Z" class="g4_66"/>
<path d="M84.9,284.7H200.8" class="g3_66"/>
<path fill-rule="evenodd" d="M200.8,284.7l-1.6,-2.4l6.5,2.4l-6.5,2.5Z" class="g4_66"/>
<text x="163" y="259" class="sc_66">(4, 2)</text>
<text x="130" y="229" class="sd_66">f</text>
<text x="259" y="277" class="sd_66">g</text>
<text x="376" y="265" class="sc_66">x</text>
<text x="313" y="265" class="sc_66">0</text>
<path d="M144.9,281.5v6.1" class="g3_66"/>
<text x="141" y="299" class="sc_66">3</text>
<text x="54" y="338" class="s5_66">11. </text>
<text x="78" y="338" dx="0,0,0,0,0,0,0,0,0,-.2,0,0,0,0,0,0,0,0,0,0,0,0,0,0,0,0,0,0,0,0,0,0,0,0,0,0,0,0,0,0" class="s6_66">Find an expression for a cubic function </text>
<text x="299" y="338" class="s7_66">f</text>
<text x="308" y="338" class="s6_66">if </text>
<text x="322" y="338" class="s7_66">f</text>
<text x="328" y="338" class="s8_66">s</text>
<text x="332" y="338" class="s6_66">1</text>
<text x="339" y="338" class="s8_66">d</text>
<text x="348" y="338" class="s9_66">-</text>
<text x="363" y="338" class="s6_66">6 and </text>
<text x="80" y="355" class="s7_66">f</text>
<text x="86" y="355" class="s8_66">s</text>
<text x="91" y="355" class="sa_66">2</text>
<text x="102" y="355" class="s6_66">1</text>
<text x="109" y="355" class="s8_66">d</text>
<text x="118" y="355" class="s9_66">-</text>
<text x="133" y="355" class="s7_66">f</text>
<text x="140" y="355" class="s8_66">s</text>
<text x="144" y="355" class="s6_66">0</text>
<text x="151" y="355" class="s8_66">d</text>
<text x="160" y="355" class="s9_66">-</text>
<text x="175" y="355" class="s7_66">f</text>
<text x="181" y="355" class="s8_66">s</text>
<text x="186" y="355" class="s6_66">2</text>
<text x="193" y="355" class="s8_66">d</text>
<text x="202" y="355" class="s9_66">-</text>
<text x="217" y="355" class="s6_66">0.</text>
<text x="54" y="380" class="s5_66">12. </text>
<text x="80" y="380" dx="0,0,0,0,0,0,0,0,0,0,0,0,0,0,0,0,0,0,0,0,0,0,0,0,0,0,0,0,0,0,0,0,0,0,-.3,-.2,0,0,0,0,0,0,0,0,0,-.1,0,0,0,0,0,0,0,0,0,0,0,0" class="s6_66">Recent studies indicate that the average surface tempera- </text>
<text x="80" y="397" dx="0,0,0,0,0,0,0,0,0,0,0,0,0,0,0,0,0,0,0,0,0,0,0,0,0,0,0,0,0,0,0,0,0,0,0,0,0,0,0,0,0,0,-.9,0,0,0,0,0,0,0,0,0,0,0,0,0,0,0,0,0" class="s6_66">ture of the earth has been rising steadily. Some scientists </text>
<text x="80" y="414" dx="0,0,-.3,-.2,0,0,0,0,0,0,0,0,0,0,0,0,0,0,0,0,0,0,0,0,0,0,0,0,0,0,0,0,0,0,0,0,0,0,0,0,0,0,0,0,0,0,0,0,0,0,0,0" class="s6_66">have modeled the temperature by the linear function </text>
<text x="80" y="431" class="s7_66">T</text>
<text x="92" y="431" class="s9_66">-</text>
<text x="108" y="431" class="s6_66">0.02</text>
<text x="133" y="431" class="s7_66">t</text>
<text x="140" y="431" class="sa_66">1</text>
<text x="156" y="431" class="s6_66">8.50, where </text>
<text x="224" y="431" class="s7_66">T</text>
<text x="236" y="431" class="s6_66">is temperature in °C and </text>
<text x="373" y="431" class="s7_66">t</text>
<text x="80" y="448" class="s6_66">represents years since 1900.</text>
<text x="78" y="464" class="s6_66">(a) </text>
<text x="101" y="464" class="s6_66">What do the slope and </text>
<text x="228" y="464" class="s7_66">T</text>
<text x="236" y="464" class="s6_66">-intercept represent?</text>
<text x="78" y="481" class="s6_66">(b) </text>
<text x="101" y="481" dx="0,0,0,0,0,0,0,0,0,0,0,0,0,0,0,0,0,0,0,0,0,0,0,0,0,0,0,0,0,0,0,0,0,-.3,-.2,0,0,0,0,0,0,0,0,0,0,0,0,0,0,0,0,-.1,0,0,0" class="s6_66">Use the equation to predict the average global surface </text>
<text x="101" y="498" class="s6_66">temperature in 2100.</text>
<text x="54" y="523" class="s5_66">13. </text>
<text x="80" y="523" class="s6_66">±f the recommended adult dosage for a drug is </text>
<text x="338" y="523" class="s7_66">D</text>
<text x="351" y="523" class="s6_66">(in mg), </text>
<text x="80" y="540" class="s6_66">then to determine the appropriate dosage </text>
<text x="308" y="540" class="s7_66">c</text>
<text x="318" y="540" class="s6_66">for a child of </text>
<text x="80" y="557" class="s6_66">age </text>
<text x="103" y="557" class="s7_66">a</text>
<text x="110" y="557" class="s6_66">, pharmacists use the equation </text>
<text x="279" y="557" class="s7_66">c</text>
<text x="289" y="557" class="s9_66">-</text>
<text x="304" y="557" class="s6_66">0.0417</text>
<text x="342" y="557" class="s7_66">D</text>
<text x="352" y="557" class="s8_66">s</text>
<text x="357" y="557" class="s7_66">a</text>
<text x="368" y="557" class="sa_66">1</text>
<text x="383" y="557" class="s6_66">1</text>
<text x="390" y="557" class="s8_66">d</text>
<text x="395" y="557" class="s6_66">. </text>
<text x="80" y="574" class="s6_66">Suppose the dosage for an adult is 200 mg.</text>
<text x="78" y="590" class="s6_66">(a) </text>
<text x="101" y="590" class="s6_66">Find the slope of the graph of </text>
<text x="267" y="590" class="s7_66">c</text>
<text x="273" y="590" dx="0,0,-.4,0,0,0,0,0,0,0,0,0,0,0,0,0,0,0,0,0,0,0,0,0,0" class="s6_66">. What does it represent?</text>
<text x="78" y="607" class="s6_66">(b) </text>
<text x="101" y="607" dx="0,0,0,0,0,0,0,0,0,0,0,0,0,0,0,0,0,0,0,0,0,0,0,0,0,0,0,-.3,0,0,0,0,0" class="s6_66">What is the dosage for a newborn?</text>
<text x="54" y="632" class="s5_66">14. </text>
<text x="80" y="632" dx="0,0,0,0,0,0,0,0,0,0,0,0,0,0,0,0,0,0,0,0,0,-.1,0,0,0,0,0,0,0,0,0,0,0,-.1,0,0,0,0,0,-.3,0,0,0,0,0,0,0,0,0,0,0,0" class="s6_66">The manager of a weekend ²ea market knows from past </text>
<text x="80" y="649" dx="0,-.2,0,0,0,0,0,0,0,0,0,0,0,0,0,0,0,0,0,0,0,0,0,0,0,0,-.2,0,0,0" class="s6_66">experience that if he charges </text>
<text x="241" y="649" class="s7_66">x</text>
<text x="251" y="649" class="s6_66">dollars for a rental space at </text>
<text x="80" y="666" dx="0,0,0,0,0,0,0,0,-.1,0,0,0,0,0,0,0,0,0,0,0,0,0,0,0,0,0,0,0" class="s6_66">the market, then the number </text>
<text x="239" y="666" class="s7_66">y</text>
<text x="248" y="666" dx="0,0,0,0,0,0,0,0,0,0,0,0,0,0,0,0,0,0,0,0,0,0,0,0,0,0,0,-.3,-.2,0,0" class="s6_66">of spaces he can rent is given </text>
<text x="80" y="683" class="s6_66">by the equation </text>
<text x="169" y="683" class="s7_66">y</text>
<text x="179" y="683" class="s9_66">-</text>
<text x="195" y="683" class="s6_66">200</text>
<text x="220" y="683" class="sa_66">2</text>
<text x="235" y="683" class="s6_66">4</text>
<text x="243" y="683" class="s7_66">x</text>
<text x="249" y="683" class="s6_66">.</text>
<text x="78" y="700" class="s6_66">(a) </text>
<text x="101" y="700" dx="0,0,-.1,0,0,0,0,0,0,0,0,0,0,0,0,0,0,0,0,0,0,0,0,0,0,0,0,0,0,0,0,0,0,0,0,0,0,0,0,0,0,0,0,0,0,0,0,0,0,0,0,0,0,0,0" class="s6_66">Sketch a graph of this linear function. (Remember that </text>
<text x="101" y="716" dx="0,0,0,0,0,0,0,0,0,0,0,0,0,0,0,-.2,0,0,0,0,0,0,0,0,0,0,0,0,0,0,0,0,0,0,0,0,0,0,0,0,0,0,0,0,0,0,0,0,0,0,0,0,0" class="s6_66">the rental charge per space and the number of spaces </text>
<text x="101" y="733" dx="0,0,0,0,0,0,0,0,0,0,0,-.2,0,0,0,0,0,0,-.2,-.1,0,0,-.3,-.2,0,0,0,0,0,0,0,0,0,0,0,0,0" class="s6_66">rented can’t be negative quantities.)</text>
<text x="78" y="750" class="s6_66">(b) </text>
<text x="101" y="750" class="s6_66">What do the slope, the </text>
<text x="228" y="750" class="s7_66">y</text>
<text x="234" y="750" class="s6_66">-intercept, and the </text>
<text x="338" y="750" class="s7_66">x</text>
<text x="344" y="750" class="s6_66">-intercept of </text>
<text x="101" y="767" class="s6_66">the graph represent?</text>
<text x="54" y="792" class="s5_66">15. </text>
<text x="78" y="792" dx="0,0,0,0,0,0,0,0,0,0,0,0,0,0,0,0,0,0,0,0,0,0,0,0,0,0,0,0,0,0,-.2,0,0,0,0,0,0,0,0,0" class="s6_66">The relationship between the Fahrenheit </text>
<text x="303" y="792" class="s8_66">s</text>
<text x="307" y="792" class="s7_66">F</text>
<text x="317" y="792" class="s8_66">d</text>
<text x="325" y="792" class="s6_66">and Celsius </text>
<text x="78" y="809" class="s8_66">s</text>
<text x="83" y="809" class="s7_66">C</text>
<text x="93" y="809" class="s8_66">d</text>
<text x="101" y="809" dx="0,0,0,0,0,0,0,0,0,0,0,0,0,0,0,0,0,0,0,0,0,0,0,0,-.3,-.2,0,0,0,0,0,0,0,0,0,0,0,0,0,0,0,0,0,0,0,0,0,0,0,0,0" class="s6_66">temperature scales is given by the linear function </text>
<text x="78" y="827" class="s7_66">F</text>
<text x="91" y="827" class="s9_66">-</text>
<text x="106" y="821" class="se_66">9</text>
<path d="M107,823.1h4.8" class="g5_66"/>
<text x="106" y="831" class="se_66">5</text>
<text x="113" y="827" class="s7_66">C</text>
<text x="126" y="827" class="sa_66">1</text>
<text x="142" y="827" class="s6_66">32.</text>
<text x="78" y="844" dx="0,0,0,0,4.2,0,-.1,0,0,0,0,0,0,0,0,0,0,0,0,0,0,0,0,0,0,0,0,0,0,0,0,0,0,0,0,0" class="s6_66">(a) Sketch a graph of this function.</text>
<text x="78" y="861" class="s6_66">(b) </text>
<text x="101" y="861" class="s6_66">What is the slope of the graph and what does it repre-</text>
<text x="101" y="878" dx="0,0,0,0,0,0,-.4,0,0,0,0,0,0,0,0,0,0,0" class="s6_66">sent? What is the </text>
<text x="198" y="878" class="s7_66">F</text>
<text x="207" y="878" class="s6_66">-intercept and what does it represent?</text>
<text x="54" y="903" class="s5_66">16. </text>
<text x="78" y="903" dx="0,0,0,0,0,0,0,0,0,-.3" class="s6_66">Jason leav</text>
<text x="135" y="903" dx="0,0,0,0,0,0,0,0,0,0,0,0,0,0,0,0,0,0,0,0,0,0,0,0,0,0,0,0,0,-.3,-.2,0,0,0,0,0,0,0,0,0,0,0,0,0,0,0,0,0,0,0,0,0,0" class="sf_66">es Detroit at 2:00 pm and drives at a constant sPeed </text>
<text x="78" y="920" dx="0,0,0,0,0,0,0,0,0,0,0,0,0,0,0,0,0,0,0,0,0,0,0,0,0,0,0,-.8,0,0,0,-.8,0,0,0,0,-.5,0,0,0,0,0,0,0,0,0,0,0,0,0,0,0,0,0,0,0,0,0,0,0,0" class="sf_66">west along I-94. He Passes Ann Arbor, 40 Mi froM Detroit, at </text>
<text x="78" y="936" class="sf_66">2:50 pm.</text>
<text x="78" y="953" class="sf_66">(a) </text>
<text x="101" y="953" dx="0,0,0,0,0,0,0,0,0,0,0,0,0,0,0,0,0,0,0,0,0,0,0,0,-.3,-.2,0,0,0,0,0,0,0,0,0,0,0,0,0,0,0,0,0,0,0,0,0,0,0,0,0" class="sf_66">ExPress the distance traveled in terMs of the tiMe </text>
<text x="101" y="970" class="sf_66">elaPsed.</text>
<text x="78" y="987" class="sf_66">(b) </text>
<text x="101" y="987" dx="0,0,0,-.2,0,0,0,0,0,0,0,0,0,0,0,0,0,0,0,0,0,0,0,0,0,0,0,0,0,0,0,0,0,0,0,0,0,0,0,0,0,0,0" class="sf_66">Draw the graPh of the equation in Part (a).</text>
<text x="78" y="1004" class="sf_66">(c) </text>
<text x="101" y="1004" dx="0,0,0,0,0,0,0,0,0,0,0,0,0,0,0,0,0,0,0,0,0,0,0,0,0,0,0,0,0,0,0,0,-.4,0,0,0,0,0,0,0,0,0,0,0,0,0,0,0,0,0,0,0,0,0,0" class="sf_66">What is the sloPe of this line? What does it rePresent?</text>
<text x="461" y="107" dx="0,.1,.1,.1" class="sg_66">17. </text>
<text x="486" y="107" dx="0,.1,.1,.1,.1,.1,.1,.1,.1,.1,.1,.1,.1,-.1,-.1,.1,.1,.1,.1,.1,.1,.1,.1,.1,.1,.1,.1,.1,.1,.1,.1,.1,.1,.1,.1,.1,.1,.1,.1,.1,.1,.1,.1,.1,.1,.1,.1,.1,.1,.1,.1,.1,.1,.1,.1,0,.1,.1,.1,.1,.1,0" class="sf_66">Biologists have noticed that the chirPing rate of crickets of </text>
<text x="486" y="124" dx="0,.1,.1,.1,.1,.1,.1,.1,.1,.1,.1,.1,.1,.1,.1,.1,.1,.1,.1,.1,.1,.1,.1,.1,.1,.1,.1,.1,.1,.1,.1,.1,.1,.1,.1,.1,.1,.1,.1,.1,.1,.1,.1,.1,.1,.1,.1,.1,.1,.1,.1,.1,.1,.1,.1,.1,.1,.1,.1,.1,.1,.1" class="sf_66">a certain sPecies is related to teMPerature, and the relation-</text>
<text x="486" y="141" dx="0,.1,.1,.1,.1,.1,.1,.1,.1,.1,.1,.1,.1,.1,.1,.1,.1,.1,.1,.1,-.1,.1,.1,.1,.1,.1,.1,.1,.1,.1,.1,.1,.1,.1,.1,.1,.1,-.6,.1,-.6,.1,.1,.1,.1,.1,.1,0,.1,.1,.1,.1,.1,.1,.1,.1,.1,.1,0" class="sf_66">shiP aPPears to be very nearly linear. A cricket Produces </text>
<text x="486" y="158" dx="0,.1,.1,.1,.1,.1,.1,.1,.1,.1,.1,.1,.1,.1,.1,.1,.1,.1,.1,.1,.1,.1,.1,.1,.1,.1,.1,.1,.1,.1,.1,.1,.1,.1,.1,.1,.1,.1,.1,.1,.1,.1,.1,.1,.1,.1,.1,.1,.1,.1,.1,.1,.1,.1,.1,0" class="sf_66">113 chirPs Per Minute at 70°F and 173 chirPs Per Minute </text>
<text x="486" y="175" dx="0,.1,.1,.1,.1,.1,.1,-1" class="sf_66">at 80°F.</text>
<text x="486" y="191" class="sf_66">(a) </text>
<text x="509" y="191" class="sf_66">Find a linear equation that Models the teMPerature </text>
<text x="789" y="191" class="s7_66">T</text>
<text x="801" y="191" class="sf_66">as </text>
<text x="509" y="208" class="sf_66">a function of the nuMber of chirPs Per Minute </text>
<text x="763" y="208" class="s7_66">N</text>
<text x="773" y="208" class="sf_66">.</text>
<text x="486" y="226" class="sf_66">(b) </text>
<text x="509" y="226" dx="0,0,0,0,0,0,0,0,0,0,0,0,0,0,0,0,0,0,0,0,0,0,0,0,0,0,0,0,0,0,0,0,-.4,0,0,0,0,0,0,0,0,0,0,0,0,0,0,0,0,0,0,0,0,0,0" class="sf_66">What is the sloPe of the graPh? What does it rePresent?</text>
<text x="486" y="243" class="sf_66">(c) </text>
<text x="509" y="243" dx="0,0,0,0,0,0,0,0,0,0,0,0,-.1,0,0,0,0,0,0,0,0,0,0,0,0,0,0,0,0,0,0,0,0,0,0,0,0,0,0,0,0,0,0,0,0,0,0,0,0,0,0,0,0,0,0" class="sf_66">If the crickets are chirPing at 150 chirPs Per Minute, </text>
<text x="509" y="260" class="sf_66">estiMate the teMPerature.</text>
<text x="462" y="286" class="s5_66">18. </text>
<text x="486" y="286" dx="0,0,0,0,0,0,0,0,0,0,0,0,0,0,0,0,0,0,0,0,0,0,0,0,0,0,0,0,-.1,0,0,0,0,0,0,0,0,0,0,0,0,0,0,0,0,0,0,0,0,0,0,0,0,0,0,0,0,0,0,0" class="sf_66">The Manager of a furniture factory ±nds that it costs $2200 </text>
<text x="486" y="303" dx="0,0,0,0,0,0,0,0,-.1,0,0,0,0,0,0,0,0,0,0,0,0,0,0,0,0,0,0,0,0,0,0,0,0,0,0,0,0,0,0,0,0,0,0,0,0,0,0,0,0,0,0,0,0,0,0,0,0,0" class="sf_66">to Manufacture 100 chairs in one day and $4800 to Produce </text>
<text x="486" y="320" dx="0,0,0,0,0,0,0,0,0,0,0,0,0,0,0,0,0,0,0,0,0,-.9" class="sf_66">300 chairs in one day.</text>
<text x="486" y="337" class="sf_66">(a) </text>
<text x="509" y="337" class="sf_66">ExPress the cost as a function of the nuMber of chairs </text>
<text x="509" y="353" dx="0,0,0,0,0,0,0,0,0,0,0,0,0,0,0,0,0,0,0,0,0,0,0,0,0,0,0,0,0,0,0,0,0,0,0,0,-.8,0,-.2,0,0,0,0,0,0,-.1,0,0,0,0,0,0,0,0" class="sf_66">Produced, assuMing that it is linear. Then sketch the </text>
<text x="509" y="370" class="sf_66">graPh.</text>
<text x="486" y="388" dx="0,-.1,-.1,-.1" class="sf_66">(b) </text>
<text x="509" y="388" dx="0,-.1,-.1,-.1,-.1,-.1,-.1,-.1,-.1,-.1,-.1,-.1,-.1,-.1,-.1,-.1,-.1,-.1,-.1,-.1,-.1,-.1,-.1,-.1,-.1,-.1,-.1,-.1,-.1,-.1,-.1,-.1,-.1,-.1,-.1,-.1,-.1,-.1,-.1,-.1,-.1,-.1,-.1,-.1,-.1,-.1,-.1,-.1,-.1,-.1,-.1,-.1,-.1,-.1,-.1,-.1,-.1,-.1" class="sf_66">What is the sloPe of the graPh and what does it rePresent?</text>
<text x="486" y="405" class="sf_66">(c) </text>
<text x="509" y="405" class="sf_66">What is the </text>
<text x="575" y="405" class="s7_66">y</text>
<text x="582" y="405" class="sf_66">-intercePt of the graPh and what does it </text>
<text x="509" y="422" class="sf_66">rePresent?</text>
<text x="462" y="448" class="sg_66">19. </text>
<text x="486" y="448" dx="0,0,0,0,0,0,0,0,0,0,0,-.1,0,0,0,0,0,0,0,0,0,0,0,0,0,0,0,0,0,0,0,0,0,0,-.1,0,0,0,0,0,0,0,0,0,0,0,0,0,0,0,0,0,0,0,0,0,0,0,0,0" class="sf_66">At the surface of the ocean, the water Pressure is the saMe </text>
<text x="486" y="465" dx="0,0,0,0,0,0,0,0,0,0,0,0,0,0,0,0,0,0,0,0,0,0,0,-.2,-.2,0,0,0,0,0,0,-.1,0,0,0,-.6,0,0,0,0,0,0" class="sf_66">as the air Pressure above the water, 15 lb</text>
<text x="708" y="465" class="s8_66">y</text>
<text x="715" y="465" class="sf_66">in</text>
<text x="726" y="459" class="sh_66">2</text>
<text x="730" y="465" dx="0,0,0,0,0,0,-.3,0,0,0,0,0,0,0,0,-.3,0" class="sf_66">. Below the sur- </text>
<text x="486" y="482" dx="0,-.1,0,0,0,0,0,0,0,0,0,-.1,0,0,0,0,0,0,0,0,0,0,0,0,0,0,0,0,0,0,0,0,0,0,0,0,0,0,0,0,0,0,0,0,0" class="sf_66">face, the water Pressure increases by 4.34 lb</text>
<text x="728" y="482" class="s8_66">y</text>
<text x="734" y="482" class="sf_66">in</text>
<text x="745" y="476" class="sh_66">2</text>
<text x="752" y="482" dx="0,0,0,0,0,-.3,-.2,0,0,0" class="sf_66">for every </text>
<text x="486" y="498" class="sf_66">10 ft of descent.</text>
<text x="486" y="515" class="sf_66">(a) </text>
<text x="509" y="515" dx="0,0,0,0,0,0,0,0,0,0,0,0,0,-.1,0,0,0,0,0,0,0,0,0,0,0,0,0,0,0,0,0,0,0,0,0,0,0,0,0,0,0,0,0,0,0,0,0,0,0,0,0,0,0,0" class="sf_66">ExPress the water Pressure as a function of the dePth </text>
<text x="509" y="532" dx="0,0,0,0,-.3,0,0,0,0,0,0,0,0,0,0,0,0,0,0,0,-.1,0,0,0" class="sf_66">below the ocean surface.</text>
<text x="486" y="550" class="sf_66">(b) </text>
<text x="509" y="550" class="sf_66">At what dePth is the Pressure 100 lb</text>
<text x="706" y="550" class="s8_66">y</text>
<text x="713" y="550" class="sf_66">in</text>
<text x="724" y="544" class="sh_66">2</text>
<text x="728" y="550" class="sf_66">?</text>
<text x="462" y="576" class="s5_66">20. </text>
<text x="486" y="576" dx="0,0,0,0,0,0,0,0,0,0,0,0,0,0,0,0,0,0,0,0,0,0,0,-.3,0,0,0,0,0,0,0,0,0,0,0,0,0,0,0,0,0,0,0,0,0,0,0,0,0,0,0,0,0,0,0,0" class="sf_66">The Monthly cost of driving a car dePends on the nuMber </text>
<text x="486" y="592" dx="0,0,0,0,0,0,0,0,0,0,0,0,-.3,-.2,0,0,0,0,-.8,0,0,0,0,0,0,0,0,0,0,0,0,0,0,0,0,0,0,0,0,0,0,0,0,0,0,0,0,0,0,0,0,0,0,0,0,0,0,0,0,0" class="sf_66">of Miles driven. Lynn found that in ²ay it cost her $380 to </text>
<text x="486" y="609" dx="0,0,0,-.3,-.2,0,0,0,0,0,0,0,0,0,0,0,0,0,0,0,0,0,0,0,0,0,0,0,0,0,0,0,0,0,0,0,0,0,0,0,0,0,0,0,0,0,0,0,-.3,-.2,0,0,0,0,0,0,0,0" class="sf_66">drive 480 Mi and in June it cost her $460 to drive 800 Mi.</text>
<text x="486" y="626" class="sf_66">(a) </text>
<text x="509" y="626" class="sf_66">ExPress the Monthly cost </text>
<text x="651" y="626" class="s7_66">C</text>
<text x="664" y="626" class="sf_66">as a function of the distance </text>
<text x="509" y="643" dx="0,0,0,-.3,-.2,0,0" class="sf_66">driven </text>
<text x="547" y="643" class="s7_66">d</text>
<text x="554" y="643" dx="0,0,0,0,0,0,0,0,0,0,0,0,0,0,0,0,0,0,0,0,0,0,0,0,0,0,0,0,0,0,0,0,0,0,0,0,0,0,0,0,-.3,-.2,0,0,0,0" class="sf_66">, assuMing that a linear relationshiP gives a </text>
<text x="509" y="660" class="sf_66">suitable Model.</text>
<text x="486" y="677" class="sf_66">(b) </text>
<text x="509" y="677" dx="0,0,0,0,0,0,0,0,0,0,0,0,0,0,0,0,0,0,0,0,0,0,0,0,0,0,0,0,0,0,0,0,0,0,0,0,0,0,0,-.3,0,0,0,0,0,0,0,0,0,0,0,0,0,0,0,0,0,0,0" class="sf_66">Use Part (a) to Predict the cost of driving 1500 Miles Per </text>
<text x="509" y="694" class="sf_66">Month.</text>
<text x="486" y="712" class="sf_66">(c) </text>
<text x="509" y="712" dx="0,0,0,-.2,0,0,0,0,0,0,0,0,0,0,0,0,0,0,0,0,0,0,0,0,0,0,0,0,0,0,0,0,0,0,0,0,0,0,0,-.4,0,0,0,0,0,0,0,0,0,0,0,0,0" class="sf_66">Draw the graPh of the linear function. What does the </text>
<text x="509" y="728" class="sf_66">sloPe rePresent?</text>
<text x="486" y="746" class="sf_66">(d) </text>
<text x="509" y="746" class="sf_66">What does the </text>
<text x="591" y="746" class="s7_66">C</text>
<text x="600" y="746" class="sf_66">-intercePt rePresent?</text>
<text x="486" y="764" class="sf_66">(e) </text>
<text x="509" y="764" dx="0,0,-.1,0,0,0,0,0,0,0,0,0,0,0,0,0,0,0,0,0,0,0,0,0,0,0,0,0,0,-.3,-.2,0,0,0,0,0,0,0,0,0,0,0,0,0,0,0,0,0,0,0,0,0,0,0,0,0,0" class="sf_66">Why does a linear function give a suitable Model in this </text>
<text x="509" y="780" class="sf_66">situation?</text>
<text x="462" y="811" class="si_66">21–22 </text>
<text x="505" y="811" dx="0,-.2,0,0,0,0,0,0,0,0,0,0,0,0,0,0,0,0,0,0,0,0,0,0,0,0,0,0,0,0,0,0,0,0,0,0,0,0,0,0,0,0,0,0,0,0,0,0,0,0,0,0,0,0,0,0" class="sf_66">For each scatter Plot, decide what tyPe of function you </text>
<text x="462" y="828" class="sf_66">Might choose as a Model for the data. ExPlain your choices.</text>
<text x="462" y="858" class="s5_66">21. </text>
<text x="519" y="1000" class="sj_66">0</text>
<path d="M527.9,916.5c0,-.7,.5,-1.2,1.1,-1.2c.7,0,1.2,.5,1.2,1.2c0,.6,-.5,1.1,-1.2,1.1c-.6,0,-1.1,-.5,-1.1,-1.1Z" class="g1_66"/>
<path d="M527.9,916.5c0,-.7,.5,-1.2,1.1,-1.2c.7,0,1.2,.5,1.2,1.2c0,.6,-.5,1.1,-1.2,1.1c-.6,0,-1.1,-.5,-1.1,-1.1Z" class="g2_66"/>
<path d="M531.3,918.1c0,-.6,.5,-1.1,1.1,-1.1c.7,0,1.2,.5,1.2,1.1c0,.7,-.5,1.2,-1.2,1.2c-.6,0,-1.1,-.5,-1.1,-1.2Z" class="g1_66"/>
<path d="M531.3,918.1c0,-.6,.5,-1.1,1.1,-1.1c.7,0,1.2,.5,1.2,1.1c0,.7,-.5,1.2,-1.2,1.2c-.6,0,-1.1,-.5,-1.1,-1.2Z" class="g2_66"/>
<path d="M535.1,921.7c0,-.6,.5,-1.2,1.1,-1.2c.7,0,1.2,.6,1.2,1.2c0,.6,-.5,1.1,-1.2,1.1c-.6,0,-1.1,-.5,-1.1,-1.1Z" class="g1_66"/>
<path d="M535.1,921.7c0,-.6,.5,-1.2,1.1,-1.2c.7,0,1.2,.6,1.2,1.2c0,.6,-.5,1.1,-1.2,1.1c-.6,0,-1.1,-.5,-1.1,-1.1Z" class="g2_66"/>
<path d="M537.8,926.2c0,-.6,.6,-1.1,1.2,-1.1c.6,0,1.1,.5,1.1,1.1c0,.7,-.5,1.2,-1.1,1.2c-.6,0,-1.2,-.5,-1.2,-1.2Z" class="g1_66"/>
<path d="M537.8,926.2c0,-.6,.6,-1.1,1.2,-1.1c.6,0,1.1,.5,1.1,1.1c0,.7,-.5,1.2,-1.1,1.2c-.6,0,-1.2,-.5,-1.2,-1.2Z" class="g2_66"/>
<path d="M538.8,930.8c0,-.6,.5,-1.2,1.1,-1.2c.6,0,1.1,.6,1.1,1.2c0,.6,-.5,1.1,-1.1,1.1c-.6,0,-1.1,-.5,-1.1,-1.1Z" class="g1_66"/>
<path d="M538.8,930.8c0,-.6,.5,-1.2,1.1,-1.2c.6,0,1.1,.6,1.1,1.2c0,.6,-.5,1.1,-1.1,1.1c-.6,0,-1.1,-.5,-1.1,-1.1Z" class="g2_66"/>
<path d="M541,933.3c0,-.6,.5,-1.1,1.1,-1.1c.7,0,1.2,.5,1.2,1.1c0,.6,-.5,1.2,-1.2,1.2c-.6,0,-1.1,-.6,-1.1,-1.2Z" class="g1_66"/>
<path d="M541,933.3c0,-.6,.5,-1.1,1.1,-1.1c.7,0,1.2,.5,1.2,1.1c0,.6,-.5,1.2,-1.2,1.2c-.6,0,-1.1,-.6,-1.1,-1.2Z" class="g2_66"/>
<path d="M542.6,939c0,-.6,.5,-1.1,1.1,-1.1c.6,0,1.2,.5,1.2,1.1c0,.7,-.6,1.2,-1.2,1.2c-.6,0,-1.1,-.5,-1.1,-1.2Z" class="g1_66"/>
<path d="M542.6,939c0,-.6,.5,-1.1,1.1,-1.1c.6,0,1.2,.5,1.2,1.1c0,.7,-.6,1.2,-1.2,1.2c-.6,0,-1.1,-.5,-1.1,-1.2Z" class="g2_66"/>
<path d="M545.3,944.4c0,-.6,.5,-1.1,1.2,-1.1c.6,0,1.1,.5,1.1,1.1c0,.7,-.5,1.2,-1.1,1.2c-.7,0,-1.2,-.5,-1.2,-1.2Z" class="g1_66"/>
<path d="M545.3,944.4c0,-.6,.5,-1.1,1.2,-1.1c.6,0,1.1,.5,1.1,1.1c0,.7,-.5,1.2,-1.1,1.2c-.7,0,-1.2,-.5,-1.2,-1.2Z" class="g2_66"/>
<path d="M549.1,948.3c0,-.6,.5,-1.1,1.2,-1.1c.6,0,1.1,.5,1.1,1.1c0,.6,-.5,1.2,-1.1,1.2c-.7,0,-1.2,-.6,-1.2,-1.2Z" class="g1_66"/>
<path d="M549.1,948.3c0,-.6,.5,-1.1,1.2,-1.1c.6,0,1.1,.5,1.1,1.1c0,.6,-.5,1.2,-1.1,1.2c-.7,0,-1.2,-.6,-1.2,-1.2Z" class="g2_66"/>
<path d="M551.7,952.9c0,-.7,.5,-1.2,1.2,-1.2c.6,0,1.1,.5,1.1,1.2c0,.6,-.5,1.1,-1.1,1.1c-.7,0,-1.2,-.5,-1.2,-1.1Z" class="g1_66"/>
<path d="M551.7,952.9c0,-.7,.5,-1.2,1.2,-1.2c.6,0,1.1,.5,1.1,1.2c0,.6,-.5,1.1,-1.1,1.1c-.7,0,-1.2,-.5,-1.2,-1.1Z" class="g2_66"/>
<path d="M555,954.7c0,-.6,.5,-1.1,1.2,-1.1c.6,0,1.1,.5,1.1,1.1c0,.6,-.5,1.2,-1.1,1.2c-.7,0,-1.2,-.6,-1.2,-1.2Z" class="g1_66"/>
<path d="M555,954.7c0,-.6,.5,-1.1,1.2,-1.1c.6,0,1.1,.5,1.1,1.1c0,.6,-.5,1.2,-1.1,1.2c-.7,0,-1.2,-.6,-1.2,-1.2Z" class="g2_66"/>
<path d="M559,951.3c0,-.6,.5,-1.1,1.1,-1.1c.6,0,1.1,.5,1.1,1.1c0,.7,-.5,1.2,-1.1,1.2c-.6,0,-1.1,-.5,-1.1,-1.2Z" class="g1_66"/>
<path d="M559,951.3c0,-.6,.5,-1.1,1.1,-1.1c.6,0,1.1,.5,1.1,1.1c0,.7,-.5,1.2,-1.1,1.2c-.6,0,-1.1,-.5,-1.1,-1.2Z" class="g2_66"/>
<path d="M561.8,946.1c0,-.6,.5,-1.1,1.2,-1.1c.6,0,1.1,.5,1.1,1.1c0,.7,-.5,1.2,-1.1,1.2c-.7,0,-1.2,-.5,-1.2,-1.2Z" class="g1_66"/>
<path d="M561.8,946.1c0,-.6,.5,-1.1,1.2,-1.1c.6,0,1.1,.5,1.1,1.1c0,.7,-.5,1.2,-1.1,1.2c-.7,0,-1.2,-.5,-1.2,-1.2Z" class="g2_66"/>
<path d="M562.6,940.4c0,-.6,.5,-1.2,1.2,-1.2c.6,0,1.1,.6,1.1,1.2c0,.6,-.5,1.1,-1.1,1.1c-.7,0,-1.2,-.5,-1.2,-1.1Z" class="g1_66"/>
<path d="M562.6,940.4c0,-.6,.5,-1.2,1.2,-1.2c.6,0,1.1,.6,1.1,1.2c0,.6,-.5,1.1,-1.1,1.1c-.7,0,-1.2,-.5,-1.2,-1.1Z" class="g2_66"/>
<path d="M566,938.4c0,-.7,.5,-1.2,1.2,-1.2c.6,0,1.1,.5,1.1,1.2c0,.6,-.5,1.1,-1.1,1.1c-.7,0,-1.2,-.5,-1.2,-1.1Z" class="g1_66"/>
<path d="M566,938.4c0,-.7,.5,-1.2,1.2,-1.2c.6,0,1.1,.5,1.1,1.2c0,.6,-.5,1.1,-1.1,1.1c-.7,0,-1.2,-.5,-1.2,-1.1Z" class="g2_66"/>
<path d="M565.8,933.5c0,-.7,.5,-1.2,1.1,-1.2c.6,0,1.2,.5,1.2,1.2c0,.6,-.6,1.1,-1.2,1.1c-.6,0,-1.1,-.5,-1.1,-1.1Z" class="g1_66"/>
<path d="M565.8,933.5c0,-.7,.5,-1.2,1.1,-1.2c.6,0,1.2,.5,1.2,1.2c0,.6,-.6,1.1,-1.2,1.1c-.6,0,-1.1,-.5,-1.1,-1.1Z" class="g2_66"/>
<path d="M567.6,928.9c0,-.6,.5,-1.1,1.1,-1.1c.7,0,1.2,.5,1.2,1.1c0,.7,-.5,1.2,-1.2,1.2c-.6,0,-1.1,-.5,-1.1,-1.2Z" class="g1_66"/>
<path d="M567.6,928.9c0,-.6,.5,-1.1,1.1,-1.1c.7,0,1.2,.5,1.2,1.1c0,.7,-.5,1.2,-1.2,1.2c-.6,0,-1.1,-.5,-1.1,-1.2Z" class="g2_66"/>
<path d="M570.6,923.4c0,-.7,.5,-1.2,1.2,-1.2c.6,0,1.1,.5,1.1,1.2c0,.6,-.5,1.1,-1.1,1.1c-.7,0,-1.2,-.5,-1.2,-1.1Z" class="g1_66"/>
<path d="M570.6,923.4c0,-.7,.5,-1.2,1.2,-1.2c.6,0,1.1,.5,1.1,1.2c0,.6,-.5,1.1,-1.1,1.1c-.7,0,-1.2,-.5,-1.2,-1.1Z" class="g2_66"/>
<path d="M573.5,922.4c0,-.7,.5,-1.2,1.1,-1.2c.7,0,1.2,.5,1.2,1.2c0,.6,-.5,1.1,-1.2,1.1c-.6,0,-1.1,-.5,-1.1,-1.1Z" class="g1_66"/>
<path d="M573.5,922.4c0,-.7,.5,-1.2,1.1,-1.2c.7,0,1.2,.5,1.2,1.2c0,.6,-.5,1.1,-1.2,1.1c-.6,0,-1.1,-.5,-1.1,-1.1Z" class="g2_66"/>
<path d="M576.1,916.8c0,-.6,.5,-1.1,1.2,-1.1c.6,0,1.1,.5,1.1,1.1c0,.6,-.5,1.1,-1.1,1.1c-.7,0,-1.2,-.5,-1.2,-1.1Z" class="g1_66"/>
<path d="M576.1,916.8c0,-.6,.5,-1.1,1.2,-1.1c.6,0,1.1,.5,1.1,1.1c0,.6,-.5,1.1,-1.1,1.1c-.7,0,-1.2,-.5,-1.2,-1.1Z" class="g2_66"/>
<path d="M579,918.3c0,-.6,.5,-1.1,1.1,-1.1c.7,0,1.2,.5,1.2,1.1c0,.7,-.5,1.2,-1.2,1.2c-.6,0,-1.1,-.5,-1.1,-1.2Z" class="g1_66"/>
<path d="M579,918.3c0,-.6,.5,-1.1,1.1,-1.1c.7,0,1.2,.5,1.2,1.1c0,.7,-.5,1.2,-1.2,1.2c-.6,0,-1.1,-.5,-1.1,-1.2Z" class="g2_66"/>
<path d="M580.2,920.7c0,-.7,.5,-1.2,1.1,-1.2c.7,0,1.2,.5,1.2,1.2c0,.6,-.5,1.1,-1.2,1.1c-.6,0,-1.1,-.5,-1.1,-1.1Z" class="g1_66"/>
<path d="M580.2,920.7c0,-.7,.5,-1.2,1.1,-1.2c.7,0,1.2,.5,1.2,1.2c0,.6,-.5,1.1,-1.2,1.1c-.6,0,-1.1,-.5,-1.1,-1.1Z" class="g2_66"/>
<path d="M582.5,923.5c0,-.6,.5,-1.1,1.2,-1.1c.6,0,1.1,.5,1.1,1.1c0,.7,-.5,1.2,-1.1,1.2c-.7,0,-1.2,-.5,-1.2,-1.2Z" class="g1_66"/>
<path d="M582.5,923.5c0,-.6,.5,-1.1,1.2,-1.1c.6,0,1.1,.5,1.1,1.1c0,.7,-.5,1.2,-1.1,1.2c-.7,0,-1.2,-.5,-1.2,-1.2Z" class="g2_66"/>
<path d="M585.2,927.6c0,-.7,.5,-1.2,1.1,-1.2c.6,0,1.1,.5,1.1,1.2c0,.6,-.5,1.1,-1.1,1.1c-.6,0,-1.1,-.5,-1.1,-1.1Z" class="g1_66"/>
<path d="M585.2,927.6c0,-.7,.5,-1.2,1.1,-1.2c.6,0,1.1,.5,1.1,1.2c0,.6,-.5,1.1,-1.1,1.1c-.6,0,-1.1,-.5,-1.1,-1.1Z" class="g2_66"/>
<path d="M587,925.9c0,-.6,.5,-1.2,1.1,-1.2c.7,0,1.2,.6,1.2,1.2c0,.6,-.5,1.1,-1.2,1.1c-.6,0,-1.1,-.5,-1.1,-1.1Z" class="g1_66"/>
<path d="M587,925.9c0,-.6,.5,-1.2,1.1,-1.2c.7,0,1.2,.6,1.2,1.2c0,.6,-.5,1.1,-1.2,1.1c-.6,0,-1.1,-.5,-1.1,-1.1Z" class="g2_66"/>
<path d="M589.2,933c0,-.7,.5,-1.2,1.2,-1.2c.6,0,1.1,.5,1.1,1.2c0,.6,-.5,1.1,-1.1,1.1c-.7,0,-1.2,-.5,-1.2,-1.1Z" class="g1_66"/>
<path d="M589.2,933c0,-.7,.5,-1.2,1.2,-1.2c.6,0,1.1,.5,1.1,1.2c0,.6,-.5,1.1,-1.1,1.1c-.7,0,-1.2,-.5,-1.2,-1.1Z" class="g2_66"/>
<path d="M589.9,937.4c0,-.7,.5,-1.2,1.1,-1.2c.6,0,1.2,.5,1.2,1.2c0,.6,-.6,1.1,-1.2,1.1c-.6,0,-1.1,-.5,-1.1,-1.1Z" class="g1_66"/>
<path d="M589.9,937.4c0,-.7,.5,-1.2,1.1,-1.2c.6,0,1.2,.5,1.2,1.2c0,.6,-.6,1.1,-1.2,1.1c-.6,0,-1.1,-.5,-1.1,-1.1Z" class="g2_66"/>
<path d="M592.9,940.9c0,-.6,.5,-1.1,1.1,-1.1c.7,0,1.2,.5,1.2,1.1c0,.6,-.5,1.1,-1.2,1.1c-.6,0,-1.1,-.5,-1.1,-1.1Z" class="g1_66"/>
<path d="M592.9,940.9c0,-.6,.5,-1.1,1.1,-1.1c.7,0,1.2,.5,1.2,1.1c0,.6,-.5,1.1,-1.2,1.1c-.6,0,-1.1,-.5,-1.1,-1.1Z" class="g2_66"/>
<path d="M593.7,946.8c0,-.6,.5,-1.2,1.1,-1.2c.7,0,1.2,.6,1.2,1.2c0,.6,-.5,1.1,-1.2,1.1c-.6,0,-1.1,-.5,-1.1,-1.1Z" class="g1_66"/>
<path d="M593.7,946.8c0,-.6,.5,-1.2,1.1,-1.2c.7,0,1.2,.6,1.2,1.2c0,.6,-.5,1.1,-1.2,1.1c-.6,0,-1.1,-.5,-1.1,-1.1Z" class="g2_66"/>
<path d="M596.7,949.5c0,-.6,.5,-1.2,1.1,-1.2c.7,0,1.2,.6,1.2,1.2c0,.6,-.5,1.1,-1.2,1.1c-.6,0,-1.1,-.5,-1.1,-1.1Z" class="g1_66"/>
<path d="M596.7,949.5c0,-.6,.5,-1.2,1.1,-1.2c.7,0,1.2,.6,1.2,1.2c0,.6,-.5,1.1,-1.2,1.1c-.6,0,-1.1,-.5,-1.1,-1.1Z" class="g2_66"/>
<path d="M600.2,951.8c0,-.6,.5,-1.1,1.2,-1.1c.6,0,1.1,.5,1.1,1.1c0,.7,-.5,1.2,-1.1,1.2c-.7,0,-1.2,-.5,-1.2,-1.2Z" class="g1_66"/>
<path d="M600.2,951.8c0,-.6,.5,-1.1,1.2,-1.1c.6,0,1.1,.5,1.1,1.1c0,.7,-.5,1.2,-1.1,1.2c-.7,0,-1.2,-.5,-1.2,-1.2Z" class="g2_66"/>
<path d="M604.3,949.3c0,-.6,.5,-1.1,1.1,-1.1c.7,0,1.2,.5,1.2,1.1c0,.7,-.5,1.2,-1.2,1.2c-.6,0,-1.1,-.5,-1.1,-1.2Z" class="g1_66"/>
<path d="M604.3,949.3c0,-.6,.5,-1.1,1.1,-1.1c.7,0,1.2,.5,1.2,1.1c0,.7,-.5,1.2,-1.2,1.2c-.6,0,-1.1,-.5,-1.1,-1.2Z" class="g2_66"/>
<path d="M607.2,945.3c0,-.7,.5,-1.2,1.1,-1.2c.7,0,1.2,.5,1.2,1.2c0,.6,-.5,1.1,-1.2,1.1c-.6,0,-1.1,-.5,-1.1,-1.1Z" class="g1_66"/>
<path d="M607.2,945.3c0,-.7,.5,-1.2,1.1,-1.2c.7,0,1.2,.5,1.2,1.2c0,.6,-.5,1.1,-1.2,1.1c-.6,0,-1.1,-.5,-1.1,-1.1Z" class="g2_66"/>
<path d="M610.5,942.1c0,-.7,.5,-1.2,1.1,-1.2c.6,0,1.1,.5,1.1,1.2c0,.6,-.5,1.1,-1.1,1.1c-.6,0,-1.1,-.5,-1.1,-1.1Z" class="g1_66"/>
<path d="M610.5,942.1c0,-.7,.5,-1.2,1.1,-1.2c.6,0,1.1,.5,1.1,1.2c0,.6,-.5,1.1,-1.1,1.1c-.6,0,-1.1,-.5,-1.1,-1.1Z" class="g2_66"/>
<path d="M611.4,937.5c0,-.6,.5,-1.1,1.1,-1.1c.6,0,1.2,.5,1.2,1.1c0,.7,-.6,1.2,-1.2,1.2c-.6,0,-1.1,-.5,-1.1,-1.2Z" class="g1_66"/>
<path d="M611.4,937.5c0,-.6,.5,-1.1,1.1,-1.1c.6,0,1.2,.5,1.2,1.1c0,.7,-.6,1.2,-1.2,1.2c-.6,0,-1.1,-.5,-1.1,-1.2Z" class="g2_66"/>
<path d="M613.5,933.7c0,-.7,.5,-1.2,1.1,-1.2c.6,0,1.2,.5,1.2,1.2c0,.6,-.6,1.1,-1.2,1.1c-.6,0,-1.1,-.5,-1.1,-1.1Z" class="g1_66"/>
<path d="M613.5,933.7c0,-.7,.5,-1.2,1.1,-1.2c.6,0,1.2,.5,1.2,1.2c0,.6,-.6,1.1,-1.2,1.1c-.6,0,-1.1,-.5,-1.1,-1.1Z" class="g2_66"/>
<path d="M616,933.3c0,-.6,.5,-1.1,1.1,-1.1c.6,0,1.1,.5,1.1,1.1c0,.6,-.5,1.2,-1.1,1.2c-.6,0,-1.1,-.6,-1.1,-1.2Z" class="g1_66"/>
<path d="M616,933.3c0,-.6,.5,-1.1,1.1,-1.1c.6,0,1.1,.5,1.1,1.1c0,.6,-.5,1.2,-1.1,1.2c-.6,0,-1.1,-.6,-1.1,-1.2Z" class="g2_66"/>
<path d="M616.2,930.1c0,-.6,.5,-1.1,1.2,-1.1c.6,0,1.1,.5,1.1,1.1c0,.6,-.5,1.2,-1.1,1.2c-.7,0,-1.2,-.6,-1.2,-1.2Z" class="g1_66"/>
<path d="M616.2,930.1c0,-.6,.5,-1.1,1.2,-1.1c.6,0,1.1,.5,1.1,1.1c0,.6,-.5,1.2,-1.1,1.2c-.7,0,-1.2,-.6,-1.2,-1.2Z" class="g2_66"/>
<path d="M618.4,924c0,-.6,.5,-1.1,1.2,-1.1c.6,0,1.1,.5,1.1,1.1c0,.7,-.5,1.2,-1.1,1.2c-.7,0,-1.2,-.5,-1.2,-1.2Z" class="g1_66"/>
<path d="M618.4,924c0,-.6,.5,-1.1,1.2,-1.1c.6,0,1.1,.5,1.1,1.1c0,.7,-.5,1.2,-1.1,1.2c-.7,0,-1.2,-.5,-1.2,-1.2Z" class="g2_66"/>
<path d="M621.2,922.2c0,-.6,.5,-1.1,1.1,-1.1c.7,0,1.2,.5,1.2,1.1c0,.6,-.5,1.1,-1.2,1.1c-.6,0,-1.1,-.5,-1.1,-1.1Z" class="g1_66"/>
<path d="M621.2,922.2c0,-.6,.5,-1.1,1.1,-1.1c.7,0,1.2,.5,1.2,1.1c0,.6,-.5,1.1,-1.2,1.1c-.6,0,-1.1,-.5,-1.1,-1.1Z" class="g2_66"/>
<path d="M624.6,918c0,-.6,.5,-1.2,1.1,-1.2c.7,0,1.2,.6,1.2,1.2c0,.6,-.5,1.1,-1.2,1.1c-.6,0,-1.1,-.5,-1.1,-1.1Z" class="g1_66"/>
<path d="M624.6,918c0,-.6,.5,-1.2,1.1,-1.2c.7,0,1.2,.6,1.2,1.2c0,.6,-.5,1.1,-1.2,1.1c-.6,0,-1.1,-.5,-1.1,-1.1Z" class="g2_66"/>
<path d="M626.8,916.8c0,-.6,.5,-1.1,1.2,-1.1c.6,0,1.1,.5,1.1,1.1c0,.6,-.5,1.1,-1.1,1.1c-.7,0,-1.2,-.5,-1.2,-1.1Z" class="g1_66"/>
<path d="M626.8,916.8c0,-.6,.5,-1.1,1.2,-1.1c.6,0,1.1,.5,1.1,1.1c0,.6,-.5,1.1,-1.1,1.1c-.7,0,-1.2,-.5,-1.2,-1.1Z" class="g2_66"/>
<path d="M628.7,921.9c0,-.7,.5,-1.2,1.1,-1.2c.6,0,1.2,.5,1.2,1.2c0,.6,-.6,1.1,-1.2,1.1c-.6,0,-1.1,-.5,-1.1,-1.1Z" class="g1_66"/>
<path d="M628.7,921.9c0,-.7,.5,-1.2,1.1,-1.2c.6,0,1.2,.5,1.2,1.2c0,.6,-.6,1.1,-1.2,1.1c-.6,0,-1.1,-.5,-1.1,-1.1Z" class="g2_66"/>
<path d="M632.2,925.4c0,-.6,.5,-1.2,1.2,-1.2c.6,0,1.1,.6,1.1,1.2c0,.6,-.5,1.1,-1.1,1.1c-.7,0,-1.2,-.5,-1.2,-1.1Z" class="g1_66"/>
<path d="M632.2,925.4c0,-.6,.5,-1.2,1.2,-1.2c.6,0,1.1,.6,1.1,1.2c0,.6,-.5,1.1,-1.1,1.1c-.7,0,-1.2,-.5,-1.2,-1.1Z" class="g2_66"/>
<path d="M634.6,929.9c0,-.6,.5,-1.1,1.1,-1.1c.6,0,1.2,.5,1.2,1.1c0,.7,-.6,1.2,-1.2,1.2c-.6,0,-1.1,-.5,-1.1,-1.2Z" class="g1_66"/>
<path d="M634.6,929.9c0,-.6,.5,-1.1,1.1,-1.1c.6,0,1.2,.5,1.2,1.1c0,.7,-.6,1.2,-1.2,1.2c-.6,0,-1.1,-.5,-1.1,-1.2Z" class="g2_66"/>
<path d="M636.8,933.7c0,-.7,.5,-1.2,1.1,-1.2c.7,0,1.2,.5,1.2,1.2c0,.6,-.5,1.1,-1.2,1.1c-.6,0,-1.1,-.5,-1.1,-1.1Z" class="g1_66"/>
<path d="M636.8,933.7c0,-.7,.5,-1.2,1.1,-1.2c.7,0,1.2,.5,1.2,1.2c0,.6,-.5,1.1,-1.2,1.1c-.6,0,-1.1,-.5,-1.1,-1.1Z" class="g2_66"/>
<path d="M529,1008.6V875.2" class="g3_66"/>
<path fill-rule="evenodd" d="M529,875.2l-2.4,1.7l2.4,-6.5l2.5,6.5Z" class="g4_66"/>
<path d="M508.8,988.4H642.3" class="g3_66"/>
<path fill-rule="evenodd" d="M642.3,988.4l-1.7,-2.5l6.6,2.5l-6.6,2.4Z" class="g4_66"/>
<text x="640" y="1000" class="sk_66">x</text>
<text x="518" y="876" class="sl_66">y</text>
<text x="486" y="878" class="s6_66">(a)</text>
<path d="M707.8,908.6c0,-.7,.5,-1.2,1.2,-1.2c.6,0,1.1,.5,1.1,1.2c0,.6,-.5,1.1,-1.1,1.1c-.7,0,-1.2,-.5,-1.2,-1.1Z" class="g1_66"/>
<path d="M707.8,908.6c0,-.7,.5,-1.2,1.2,-1.2c.6,0,1.1,.5,1.1,1.2c0,.6,-.5,1.1,-1.1,1.1c-.7,0,-1.2,-.5,-1.2,-1.1Z" class="g2_66"/>
<path d="M712.8,909.2c0,-.6,.5,-1.2,1.1,-1.2c.7,0,1.2,.6,1.2,1.2c0,.6,-.5,1.1,-1.2,1.1c-.6,0,-1.1,-.5,-1.1,-1.1Z" class="g1_66"/>
<path d="M712.8,909.2c0,-.6,.5,-1.2,1.1,-1.2c.7,0,1.2,.6,1.2,1.2c0,.6,-.5,1.1,-1.2,1.1c-.6,0,-1.1,-.5,-1.1,-1.1Z" class="g2_66"/>
<path d="M716.5,914.2c0,-.6,.5,-1.1,1.2,-1.1c.6,0,1.1,.5,1.1,1.1c0,.7,-.5,1.2,-1.1,1.2c-.7,0,-1.2,-.5,-1.2,-1.2Z" class="g1_66"/>
<path d="M716.5,914.2c0,-.6,.5,-1.1,1.2,-1.1c.6,0,1.1,.5,1.1,1.1c0,.7,-.5,1.2,-1.1,1.2c-.7,0,-1.2,-.5,-1.2,-1.2Z" class="g2_66"/>
<path d="M720,920.3c0,-.6,.6,-1.1,1.2,-1.1c.6,0,1.1,.5,1.1,1.1c0,.6,-.5,1.1,-1.1,1.1c-.6,0,-1.2,-.5,-1.2,-1.1Z" class="g1_66"/>
<path d="M720,920.3c0,-.6,.6,-1.1,1.2,-1.1c.6,0,1.1,.5,1.1,1.1c0,.6,-.5,1.1,-1.1,1.1c-.6,0,-1.2,-.5,-1.2,-1.1Z" class="g2_66"/>
<path d="M720.9,925.9c0,-.7,.5,-1.2,1.1,-1.2c.7,0,1.2,.5,1.2,1.2c0,.6,-.5,1.1,-1.2,1.1c-.6,0,-1.1,-.5,-1.1,-1.1Z" class="g1_66"/>
<path d="M720.9,925.9c0,-.7,.5,-1.2,1.1,-1.2c.7,0,1.2,.5,1.2,1.2c0,.6,-.5,1.1,-1.2,1.1c-.6,0,-1.1,-.5,-1.1,-1.1Z" class="g2_66"/>
<path d="M725.3,923.2c0,-.7,.5,-1.2,1.1,-1.2c.7,0,1.2,.5,1.2,1.2c0,.6,-.5,1.1,-1.2,1.1c-.6,0,-1.1,-.5,-1.1,-1.1Z" class="g1_66"/>
<path d="M725.3,923.2c0,-.7,.5,-1.2,1.1,-1.2c.7,0,1.2,.5,1.2,1.2c0,.6,-.5,1.1,-1.2,1.1c-.6,0,-1.1,-.5,-1.1,-1.1Z" class="g2_66"/>
<path d="M728,928.9c0,-.6,.5,-1.2,1.1,-1.2c.6,0,1.2,.6,1.2,1.2c0,.6,-.6,1.1,-1.2,1.1c-.6,0,-1.1,-.5,-1.1,-1.1Z" class="g1_66"/>
<path d="M728,928.9c0,-.6,.5,-1.2,1.1,-1.2c.6,0,1.2,.6,1.2,1.2c0,.6,-.6,1.1,-1.2,1.1c-.6,0,-1.1,-.5,-1.1,-1.1Z" class="g2_66"/>
<path d="M733.5,928.4c0,-.6,.5,-1.1,1.2,-1.1c.6,0,1.1,.5,1.1,1.1c0,.6,-.5,1.1,-1.1,1.1c-.7,0,-1.2,-.5,-1.2,-1.1Z" class="g1_66"/>
<path d="M733.5,928.4c0,-.6,.5,-1.1,1.2,-1.1c.6,0,1.1,.5,1.1,1.1c0,.6,-.5,1.1,-1.1,1.1c-.7,0,-1.2,-.5,-1.2,-1.1Z" class="g2_66"/>
<path d="M736.4,933.8c0,-.6,.5,-1.2,1.1,-1.2c.7,0,1.2,.6,1.2,1.2c0,.6,-.5,1.1,-1.2,1.1c-.6,0,-1.1,-.5,-1.1,-1.1Z" class="g1_66"/>
<path d="M736.4,933.8c0,-.6,.5,-1.2,1.1,-1.2c.7,0,1.2,.6,1.2,1.2c0,.6,-.5,1.1,-1.2,1.1c-.6,0,-1.1,-.5,-1.1,-1.1Z" class="g2_66"/>
<path d="M740.4,938.3c0,-.6,.6,-1.1,1.2,-1.1c.6,0,1.1,.5,1.1,1.1c0,.7,-.5,1.2,-1.1,1.2c-.6,0,-1.2,-.5,-1.2,-1.2Z" class="g1_66"/>
<path d="M740.4,938.3c0,-.6,.6,-1.1,1.2,-1.1c.6,0,1.1,.5,1.1,1.1c0,.7,-.5,1.2,-1.1,1.2c-.6,0,-1.2,-.5,-1.2,-1.2Z" class="g2_66"/>
<path d="M743.8,935c0,-.7,.5,-1.2,1.2,-1.2c.6,0,1.1,.5,1.1,1.2c0,.6,-.5,1.1,-1.1,1.1c-.7,0,-1.2,-.5,-1.2,-1.1Z" class="g1_66"/>
<path d="M743.8,935c0,-.7,.5,-1.2,1.2,-1.2c.6,0,1.1,.5,1.1,1.2c0,.6,-.5,1.1,-1.1,1.1c-.7,0,-1.2,-.5,-1.2,-1.1Z" class="g2_66"/>
<path d="M748.2,938c0,-.6,.5,-1.2,1.1,-1.2c.7,0,1.2,.6,1.2,1.2c0,.6,-.5,1.1,-1.2,1.1c-.6,0,-1.1,-.5,-1.1,-1.1Z" class="g1_66"/>
<path d="M748.2,938c0,-.6,.5,-1.2,1.1,-1.2c.7,0,1.2,.6,1.2,1.2c0,.6,-.5,1.1,-1.2,1.1c-.6,0,-1.1,-.5,-1.1,-1.1Z" class="g2_66"/>
<path d="M744.7,943.1c0,-.7,.5,-1.2,1.1,-1.2c.6,0,1.1,.5,1.1,1.2c0,.6,-.5,1.1,-1.1,1.1c-.6,0,-1.1,-.5,-1.1,-1.1Z" class="g1_66"/>
<path d="M744.7,943.1c0,-.7,.5,-1.2,1.1,-1.2c.6,0,1.1,.5,1.1,1.2c0,.6,-.5,1.1,-1.1,1.1c-.6,0,-1.1,-.5,-1.1,-1.1Z" class="g2_66"/>
<path d="M754.4,940.2c0,-.6,.5,-1.2,1.2,-1.2c.6,0,1.1,.6,1.1,1.2c0,.6,-.5,1.1,-1.1,1.1c-.7,0,-1.2,-.5,-1.2,-1.1Z" class="g1_66"/>
<path d="M754.4,940.2c0,-.6,.5,-1.2,1.2,-1.2c.6,0,1.1,.6,1.1,1.2c0,.6,-.5,1.1,-1.1,1.1c-.7,0,-1.2,-.5,-1.2,-1.1Z" class="g2_66"/>
<path d="M758.1,940.2c0,-.6,.5,-1.2,1.2,-1.2c.6,0,1.1,.6,1.1,1.2c0,.6,-.5,1.1,-1.1,1.1c-.7,0,-1.2,-.5,-1.2,-1.1Z" class="g1_66"/>
<path d="M758.1,940.2c0,-.6,.5,-1.2,1.2,-1.2c.6,0,1.1,.6,1.1,1.2c0,.6,-.5,1.1,-1.1,1.1c-.7,0,-1.2,-.5,-1.2,-1.1Z" class="g2_66"/>
<path d="M759.8,946.3c0,-.7,.5,-1.2,1.2,-1.2c.6,0,1.1,.5,1.1,1.2c0,.6,-.5,1.1,-1.1,1.1c-.7,0,-1.2,-.5,-1.2,-1.1Z" class="g1_66"/>
<path d="M759.8,946.3c0,-.7,.5,-1.2,1.2,-1.2c.6,0,1.1,.5,1.1,1.2c0,.6,-.5,1.1,-1.1,1.1c-.7,0,-1.2,-.5,-1.2,-1.1Z" class="g2_66"/>
<path d="M762.7,944.6c0,-.7,.5,-1.2,1.1,-1.2c.7,0,1.2,.5,1.2,1.2c0,.6,-.5,1.1,-1.2,1.1c-.6,0,-1.1,-.5,-1.1,-1.1Z" class="g1_66"/>
<path d="M762.7,944.6c0,-.7,.5,-1.2,1.1,-1.2c.7,0,1.2,.5,1.2,1.2c0,.6,-.5,1.1,-1.2,1.1c-.6,0,-1.1,-.5,-1.1,-1.1Z" class="g2_66"/>
<path d="M764.7,948.8c0,-.7,.5,-1.2,1.1,-1.2c.7,0,1.2,.5,1.2,1.2c0,.6,-.5,1.1,-1.2,1.1c-.6,0,-1.1,-.5,-1.1,-1.1Z" class="g1_66"/>
<path d="M764.7,948.8c0,-.7,.5,-1.2,1.1,-1.2c.7,0,1.2,.5,1.2,1.2c0,.6,-.5,1.1,-1.2,1.1c-.6,0,-1.1,-.5,-1.1,-1.1Z" class="g2_66"/>
<path d="M766.2,954.5c0,-.6,.5,-1.1,1.2,-1.1c.6,0,1.1,.5,1.1,1.1c0,.6,-.5,1.2,-1.1,1.2c-.7,0,-1.2,-.6,-1.2,-1.2Z" class="g1_66"/>
<path d="M766.2,954.5c0,-.6,.5,-1.1,1.2,-1.1c.6,0,1.1,.5,1.1,1.1c0,.6,-.5,1.2,-1.1,1.2c-.7,0,-1.2,-.6,-1.2,-1.2Z" class="g2_66"/>
<path d="M771.1,953c0,-.6,.5,-1.2,1.1,-1.2c.7,0,1.2,.6,1.2,1.2c0,.6,-.5,1.1,-1.2,1.1c-.6,0,-1.1,-.5,-1.1,-1.1Z" class="g1_66"/>
<path d="M771.1,953c0,-.6,.5,-1.2,1.1,-1.2c.7,0,1.2,.6,1.2,1.2c0,.6,-.5,1.1,-1.2,1.1c-.6,0,-1.1,-.5,-1.1,-1.1Z" class="g2_66"/>
<path d="M773.6,958.2c0,-.6,.5,-1.1,1.2,-1.1c.6,0,1.1,.5,1.1,1.1c0,.6,-.5,1.2,-1.1,1.2c-.7,0,-1.2,-.6,-1.2,-1.2Z" class="g1_66"/>
<path d="M773.6,958.2c0,-.6,.5,-1.1,1.2,-1.1c.6,0,1.1,.5,1.1,1.1c0,.6,-.5,1.2,-1.1,1.2c-.7,0,-1.2,-.6,-1.2,-1.2Z" class="g2_66"/>
<path d="M777.5,963.1c0,-.6,.5,-1.1,1.1,-1.1c.7,0,1.2,.5,1.2,1.1c0,.6,-.5,1.1,-1.2,1.1c-.6,0,-1.1,-.5,-1.1,-1.1Z" class="g1_66"/>
<path d="M777.5,963.1c0,-.6,.5,-1.1,1.1,-1.1c.7,0,1.2,.5,1.2,1.1c0,.6,-.5,1.1,-1.2,1.1c-.6,0,-1.1,-.5,-1.1,-1.1Z" class="g2_66"/>
<path d="M781.9,961.2c0,-.6,.5,-1.1,1.1,-1.1c.7,0,1.2,.5,1.2,1.1c0,.7,-.5,1.2,-1.2,1.2c-.6,0,-1.1,-.5,-1.1,-1.2Z" class="g1_66"/>
<path d="M781.9,961.2c0,-.6,.5,-1.1,1.1,-1.1c.7,0,1.2,.5,1.2,1.1c0,.7,-.5,1.2,-1.2,1.2c-.6,0,-1.1,-.5,-1.1,-1.2Z" class="g2_66"/>
<path d="M785.4,967.3c0,-.6,.5,-1.1,1.2,-1.1c.6,0,1.1,.5,1.1,1.1c0,.6,-.5,1.2,-1.1,1.2c-.7,0,-1.2,-.6,-1.2,-1.2Z" class="g1_66"/>
<path d="M785.4,967.3c0,-.6,.5,-1.1,1.2,-1.1c.6,0,1.1,.5,1.1,1.1c0,.6,-.5,1.2,-1.1,1.2c-.7,0,-1.2,-.6,-1.2,-1.2Z" class="g2_66"/>
<path d="M787.4,964.3c0,-.7,.6,-1.2,1.2,-1.2c.6,0,1.1,.5,1.1,1.2c0,.6,-.5,1.1,-1.1,1.1c-.6,0,-1.2,-.5,-1.2,-1.1Z" class="g1_66"/>
<path d="M787.4,964.3c0,-.7,.6,-1.2,1.2,-1.2c.6,0,1.1,.5,1.1,1.2c0,.6,-.5,1.1,-1.1,1.1c-.6,0,-1.2,-.5,-1.2,-1.1Z" class="g2_66"/>
<path d="M788.6,970.7c0,-.6,.5,-1.2,1.2,-1.2c.6,0,1.1,.6,1.1,1.2c0,.6,-.5,1.1,-1.1,1.1c-.7,0,-1.2,-.5,-1.2,-1.1Z" class="g1_66"/>
<path d="M788.6,970.7c0,-.6,.5,-1.2,1.2,-1.2c.6,0,1.1,.6,1.1,1.2c0,.6,-.5,1.1,-1.1,1.1c-.7,0,-1.2,-.5,-1.2,-1.1Z" class="g2_66"/>
<path d="M792.8,968.8c0,-.6,.5,-1.1,1.2,-1.1c.6,0,1.1,.5,1.1,1.1c0,.7,-.5,1.2,-1.1,1.2c-.7,0,-1.2,-.5,-1.2,-1.2Z" class="g1_66"/>
<path d="M792.8,968.8c0,-.6,.5,-1.1,1.2,-1.1c.6,0,1.1,.5,1.1,1.1c0,.7,-.5,1.2,-1.1,1.2c-.7,0,-1.2,-.5,-1.2,-1.2Z" class="g2_66"/>
<path d="M794.2,974.2c0,-.6,.5,-1.1,1.1,-1.1c.7,0,1.2,.5,1.2,1.1c0,.7,-.5,1.2,-1.2,1.2c-.6,0,-1.1,-.5,-1.1,-1.2Z" class="g1_66"/>
<path d="M794.2,974.2c0,-.6,.5,-1.1,1.1,-1.1c.7,0,1.2,.5,1.2,1.1c0,.7,-.5,1.2,-1.2,1.2c-.6,0,-1.1,-.5,-1.1,-1.2Z" class="g2_66"/>
<path d="M798.6,976.9c0,-.6,.5,-1.1,1.1,-1.1c.6,0,1.2,.5,1.2,1.1c0,.7,-.6,1.2,-1.2,1.2c-.6,0,-1.1,-.5,-1.1,-1.2Z" class="g1_66"/>
<path d="M798.6,976.9c0,-.6,.5,-1.1,1.1,-1.1c.6,0,1.2,.5,1.2,1.1c0,.7,-.6,1.2,-1.2,1.2c-.6,0,-1.1,-.5,-1.1,-1.2Z" class="g2_66"/>
<path d="M801.6,972.2c0,-.6,.5,-1.1,1.1,-1.1c.7,0,1.2,.5,1.2,1.1c0,.6,-.5,1.1,-1.2,1.1c-.6,0,-1.1,-.5,-1.1,-1.1Z" class="g1_66"/>
<path d="M801.6,972.2c0,-.6,.5,-1.1,1.1,-1.1c.7,0,1.2,.5,1.2,1.1c0,.6,-.5,1.1,-1.2,1.1c-.6,0,-1.1,-.5,-1.1,-1.1Z" class="g2_66"/>
<path d="M805.1,974.4c0,-.6,.6,-1.2,1.2,-1.2c.6,0,1.1,.6,1.1,1.2c0,.6,-.5,1.1,-1.1,1.1c-.6,0,-1.2,-.5,-1.2,-1.1Z" class="g1_66"/>
<path d="M805.1,974.4c0,-.6,.6,-1.2,1.2,-1.2c.6,0,1.1,.6,1.1,1.2c0,.6,-.5,1.1,-1.1,1.1c-.6,0,-1.2,-.5,-1.2,-1.1Z" class="g2_66"/>
<path d="M807.5,977.4c0,-.6,.5,-1.1,1.1,-1.1c.7,0,1.2,.5,1.2,1.1c0,.7,-.5,1.2,-1.2,1.2c-.6,0,-1.1,-.5,-1.1,-1.2Z" class="g1_66"/>
<path d="M807.5,977.4c0,-.6,.5,-1.1,1.1,-1.1c.7,0,1.2,.5,1.2,1.1c0,.7,-.5,1.2,-1.2,1.2c-.6,0,-1.1,-.5,-1.1,-1.2Z" class="g2_66"/>
<path d="M809,980.8c0,-.6,.5,-1.2,1.2,-1.2c.6,0,1.1,.6,1.1,1.2c0,.6,-.5,1.1,-1.1,1.1c-.7,0,-1.2,-.5,-1.2,-1.1Z" class="g1_66"/>
<path d="M809,980.8c0,-.6,.5,-1.2,1.2,-1.2c.6,0,1.1,.6,1.1,1.2c0,.6,-.5,1.1,-1.1,1.1c-.7,0,-1.2,-.5,-1.2,-1.1Z" class="g2_66"/>
<path d="M703.2,1008.6V875.1" class="g3_66"/>
<path fill-rule="evenodd" d="M703.2,875.1l-2.5,1.7l2.5,-6.5l2.4,6.5Z" class="g4_66"/>
<path d="M682.9,988.4H816.4" class="g3_66"/>
<path fill-rule="evenodd" d="M816.4,988.4l-1.6,-2.5l6.5,2.5l-6.5,2.4Z" class="g4_66"/>
<text x="694" y="1000" class="sj_66">0</text>
<text x="815" y="1000" class="sk_66">x</text>
<text x="692" y="876" class="sl_66">y</text>
<text x="662" y="878" class="s6_66">(b)</text>
<text x="121" y="1076" class="sm_66">Copyright 2016 Cengage Learning. All Rights Reserved. May not be copied, scanned, or duplicated, in whole or in part. Due to electronic rights, some third party content may be suppressed from the eBook and/or eChapter(s).</text>
<text x="106" y="1087" class="sm_66">Editorial review has deemed that any suppressed content does not materially affect the overall learning experience. Cengage Learning reserves the right to remove additional content at any time if subsequent rights restrictions require it.</text>

</g>

<!-- Any embedded fonts defined here -->
<style type="text/css" ><![CDATA[

@font-face {
	font-family: MathematicalPiLTStd-1_rr;
	src: url("fonts/MathematicalPiLTStd-1_rr.woff") format("woff");
}

@font-face {
	font-family: MathematicalPiLTStd-3_ry;
	src: url("fonts/MathematicalPiLTStd-3_ry.woff") format("woff");
}

@font-face {
	font-family: MathematicalPiLTStd-5_vb;
	src: url("fonts/MathematicalPiLTStd-5_vb.woff") format("woff");
}

@font-face {
	font-family: MyriadPro-BoldSemiCn_90;
	src: url("fonts/MyriadPro-BoldSemiCn_90.woff") format("woff");
}

@font-face {
	font-family: MyriadPro-Regular_4i;
	src: url("fonts/MyriadPro-Regular_4i.woff") format("woff");
}

@font-face {
	font-family: MyriadPro-Semibold_49;
	src: url("fonts/MyriadPro-Semibold_49.woff") format("woff");
}

@font-face {
	font-family: TECHMath-Mix_160;
	src: url("fonts/TECHMath-Mix_160.woff") format("woff");
}

@font-face {
	font-family: TECHMath-Mix_16e;
	src: url("fonts/TECHMath-Mix_16e.woff") format("woff");
}

@font-face {
	font-family: TECHMath-Mix_187;
	src: url("fonts/TECHMath-Mix_187.woff") format("woff");
}

@font-face {
	font-family: TECHMath-Mix_19t;
	src: url("fonts/TECHMath-Mix_19t.woff") format("woff");
}

@font-face {
	font-family: TECHMath-Mix_1bi;
	src: url("fonts/TECHMath-Mix_1bi.woff") format("woff");
}

@font-face {
	font-family: Times-Roman_4n;
	src: url("fonts/Times-Roman_4n.woff") format("woff");
}

@font-face {
	font-family: TimesLTStd-Italic_o3;
	src: url("fonts/TimesLTStd-Italic_o3.woff") format("woff");
}

@font-face {
	font-family: TimesLTStd-Roman_143;
	src: url("fonts/TimesLTStd-Roman_143.woff") format("woff");
}

@font-face {
	font-family: TimesLTStd-Roman_1bm;
	src: url("fonts/TimesLTStd-Roman_1bm.woff") format("woff");
}

]]></style>

</svg>
