<?xml version="1.0" encoding="UTF-8" standalone="no"?>
<!DOCTYPE svg PUBLIC "-//W3C//DTD SVG 1.1//EN"
"http://www.w3.org/Graphics/SVG/1.1/DTD/svg11.dtd">


<!-- Page 67 -->
<svg x="0" y="0" width="931" height="1096" viewBox="0 0 931 1096" version="1.1" xmlns="http://www.w3.org/2000/svg" xmlns:xlink="http://www.w3.org/1999/xlink"
style="display: block;margin-left: auto;margin-right: auto;">
<defs>
<clipPath id="c_67"><path d="M0,0H931V1096H0Z"/></clipPath>
<clipPath id="c0_67"><path d="M152,252.1V109.4H308V252.1Z"/></clipPath>
<clipPath id="c1_67"><path d="M323.2,252.1V109.9h156V252.1Z"/></clipPath>

<style type="text/css"><![CDATA[
text { white-space: pre; }
path, image { pointer-events: none; }

.s1_67{
font-size: 12.22px;
font-family: MyriadPro-Semibold_49;
fill: #231F20;
}
.s2_67{
font-size: 13.75px;
font-family: MyriadPro-Semibold_49;
fill: #231F20;
}
.s3_67{
font-size: 12.22px;
font-family: MyriadPro-Regular_4i;
fill: #231F20;
}
.s4_67{
font-size: 15.28px;
font-family: MyriadPro-Semibold_49;
fill: #231F20;
}
.s5_67{
font-size: 13.75px;
font-family: MyriadPro-BoldSemiCn_90;
fill: #231F20;
}
.s6_67{
font-size: 12.22px;
font-family: TECHMath-Mix_16e;
fill: #231F20;
}
.s7_67{
font-size: 12.22px;
font-family: TECHMath-Mix_187;
fill: #231F20;
}
.s8_67{
font-size: 12.22px;
font-family: TECHMath-Mix_19t;
fill: #231F20;
}
.s9_67{
font-size: 13.75px;
font-family: TimesLTStd-Roman_143;
fill: #231F20;
}
.sa_67{
font-size: 13.75px;
font-family: MathematicalPiLTStd-3_ry;
fill: #231F20;
}
.sb_67{
font-size: 13.75px;
font-family: BeaconDingbatsTypeOne_12w;
fill: #EC008C;
}
.sc_67{
font-size: 13.75px;
font-family: TimesLTStd-Italic_o3;
fill: #231F20;
}
.sd_67{
font-size: 10.69px;
font-family: TimesLTStd-Italic_o3;
fill: #231F20;
}
.se_67{
font-size: 10.69px;
font-family: TimesLTStd-Roman_143;
fill: #231F20;
}
.sf_67{
font-size: 7.64px;
font-family: Times-Roman_4n;
fill: #000000;
}

.g0_67{
fill: none;
stroke: #00AEEF;
stroke-width: 0.763;
stroke-linecap: butt;
stroke-linejoin: miter;
}
.g1_67{
fill: #00AEEF;
}
.g2_67{
fill: none;
stroke: #00AEEF;
stroke-width: 0.763;
stroke-linecap: butt;
stroke-linejoin: miter;
stroke-miterlimit: 3;
}
.g3_67{
fill: none;
stroke: #231F20;
stroke-width: 0.611;
stroke-linecap: butt;
stroke-linejoin: miter;
stroke-miterlimit: 3;
}
.g4_67{
fill: #231F20;
}
.g5_67{
fill: #E2F4FC;
}
.g6_67{
fill: none;
stroke: #231F20;
stroke-width: 0.763;
stroke-linecap: butt;
stroke-linejoin: miter;
}

]]></style>

</defs>
<g clip-path="url(#c_67)">
<path d="M0,0
L0,1096
L931,1096
L931,0 Z " 
fill="#FFFFFF" stroke="none"/>
<text x="440" y="64" dx="0,.2,.2,.5,.2,.2,.2" class="s1_67">SECTION</text>
<text x="492" y="64" class="s2_67">1.2</text>
<text x="522" y="64" dx="0,.2,.1,.1,.1,.1,.1,.1,.1,.1,.1,.1,.1,.1,.2,.1,.1,.1,.1,.1,.1,.1,.1,.1,0,.1,.1,.1,.1,.1,.1,.1,.1,.1,.1,.1,.1,.1,.1,.1,.1,.1,.1,.1,.1,-.3,.1,.1,.3,.1,.1,.1,.1,.1" class="s3_67">Mathematical Models: A Catalog of Essential Functions </text>
<text x="862" y="64" class="s4_67">35</text>
<path d="M126.8,268.5H484.3" class="g0_67"/>
<text x="127" y="107" class="s5_67">22. </text>
<path d="M188.7,188.7c0,-.6,.5,-1.1,1.1,-1.1c.7,0,1.2,.5,1.2,1.1c0,.6,-.5,1.2,-1.2,1.2c-.6,0,-1.1,-.6,-1.1,-1.2Z" class="g1_67"/>
<path d="M188.7,188.7c0,-.6,.5,-1.1,1.1,-1.1c.7,0,1.2,.5,1.2,1.1c0,.6,-.5,1.2,-1.2,1.2c-.6,0,-1.1,-.6,-1.1,-1.2Z" class="g2_67"/>
<path d="M189.7,193.1c0,-.6,.5,-1.2,1.1,-1.2c.7,0,1.2,.6,1.2,1.2c0,.6,-.5,1.1,-1.2,1.1c-.6,0,-1.1,-.5,-1.1,-1.1Z" class="g1_67"/>
<path d="M189.7,193.1c0,-.6,.5,-1.2,1.1,-1.2c.7,0,1.2,.6,1.2,1.2c0,.6,-.5,1.1,-1.2,1.1c-.6,0,-1.1,-.5,-1.1,-1.1Z" class="g2_67"/>
<path d="M189.9,198.6c0,-.6,.5,-1.1,1.1,-1.1c.7,0,1.2,.5,1.2,1.1c0,.7,-.5,1.2,-1.2,1.2c-.6,0,-1.1,-.5,-1.1,-1.2Z" class="g1_67"/>
<path d="M189.9,198.6c0,-.6,.5,-1.1,1.1,-1.1c.7,0,1.2,.5,1.2,1.1c0,.7,-.5,1.2,-1.2,1.2c-.6,0,-1.1,-.5,-1.1,-1.2Z" class="g2_67"/>
<path d="M194.1,196.6c0,-.6,.5,-1.1,1.1,-1.1c.7,0,1.2,.5,1.2,1.1c0,.7,-.5,1.2,-1.2,1.2c-.6,0,-1.1,-.5,-1.1,-1.2Z" class="g1_67"/>
<path d="M194.1,196.6c0,-.6,.5,-1.1,1.1,-1.1c.7,0,1.2,.5,1.2,1.1c0,.7,-.5,1.2,-1.2,1.2c-.6,0,-1.1,-.5,-1.1,-1.2Z" class="g2_67"/>
<path d="M200.3,192.4c0,-.6,.5,-1.1,1.2,-1.1c.6,0,1.1,.5,1.1,1.1c0,.6,-.5,1.2,-1.1,1.2c-.7,0,-1.2,-.6,-1.2,-1.2Z" class="g1_67"/>
<path d="M200.3,192.4c0,-.6,.5,-1.1,1.2,-1.1c.6,0,1.1,.5,1.1,1.1c0,.6,-.5,1.2,-1.1,1.2c-.7,0,-1.2,-.6,-1.2,-1.2Z" class="g2_67"/>
<path d="M205.9,192.7c0,-.6,.5,-1.1,1.1,-1.1c.7,0,1.2,.5,1.2,1.1c0,.7,-.5,1.2,-1.2,1.2c-.6,0,-1.1,-.5,-1.1,-1.2Z" class="g1_67"/>
<path d="M205.9,192.7c0,-.6,.5,-1.1,1.1,-1.1c.7,0,1.2,.5,1.2,1.1c0,.7,-.5,1.2,-1.2,1.2c-.6,0,-1.1,-.5,-1.1,-1.2Z" class="g2_67"/>
<path d="M210.8,184.7c0,-.7,.5,-1.2,1.1,-1.2c.6,0,1.2,.5,1.2,1.2c0,.6,-.6,1.1,-1.2,1.1c-.6,0,-1.1,-.5,-1.1,-1.1Z" class="g1_67"/>
<path d="M210.8,184.7c0,-.7,.5,-1.2,1.1,-1.2c.6,0,1.2,.5,1.2,1.2c0,.6,-.6,1.1,-1.2,1.1c-.6,0,-1.1,-.5,-1.1,-1.1Z" class="g2_67"/>
<path d="M216.3,179.6c0,-.6,.5,-1.1,1.2,-1.1c.6,0,1.1,.5,1.1,1.1c0,.6,-.5,1.2,-1.1,1.2c-.7,0,-1.2,-.6,-1.2,-1.2Z" class="g1_67"/>
<path d="M216.3,179.6c0,-.6,.5,-1.1,1.2,-1.1c.6,0,1.1,.5,1.1,1.1c0,.6,-.5,1.2,-1.1,1.2c-.7,0,-1.2,-.6,-1.2,-1.2Z" class="g2_67"/>
<path d="M221.4,176.6c0,-.7,.5,-1.2,1.1,-1.2c.7,0,1.2,.5,1.2,1.2c0,.6,-.5,1.1,-1.2,1.1c-.6,0,-1.1,-.5,-1.1,-1.1Z" class="g1_67"/>
<path d="M221.4,176.6c0,-.7,.5,-1.2,1.1,-1.2c.7,0,1.2,.5,1.2,1.2c0,.6,-.5,1.1,-1.2,1.1c-.6,0,-1.1,-.5,-1.1,-1.1Z" class="g2_67"/>
<path d="M224.1,170.9c0,-.7,.5,-1.2,1.1,-1.2c.7,0,1.2,.5,1.2,1.2c0,.6,-.5,1.1,-1.2,1.1c-.6,0,-1.1,-.5,-1.1,-1.1Z" class="g1_67"/>
<path d="M224.1,170.9c0,-.7,.5,-1.2,1.1,-1.2c.7,0,1.2,.5,1.2,1.2c0,.6,-.5,1.1,-1.2,1.1c-.6,0,-1.1,-.5,-1.1,-1.1Z" class="g2_67"/>
<path d="M226.4,174.4c0,-.6,.6,-1.2,1.2,-1.2c.6,0,1.1,.6,1.1,1.2c0,.6,-.5,1.1,-1.1,1.1c-.6,0,-1.2,-.5,-1.2,-1.1Z" class="g1_67"/>
<path d="M226.4,174.4c0,-.6,.6,-1.2,1.2,-1.2c.6,0,1.1,.6,1.1,1.2c0,.6,-.5,1.1,-1.1,1.1c-.6,0,-1.2,-.5,-1.2,-1.1Z" class="g2_67"/>
<path d="M229.3,172.5c0,-.6,.5,-1.1,1.2,-1.1c.6,0,1.1,.5,1.1,1.1c0,.7,-.5,1.2,-1.1,1.2c-.7,0,-1.2,-.5,-1.2,-1.2Z" class="g1_67"/>
<path d="M229.3,172.5c0,-.6,.5,-1.1,1.2,-1.1c.6,0,1.1,.5,1.1,1.1c0,.7,-.5,1.2,-1.1,1.2c-.7,0,-1.2,-.5,-1.2,-1.2Z" class="g2_67"/>
<path d="M232,166.8c0,-.6,.5,-1.1,1.1,-1.1c.7,0,1.2,.5,1.2,1.1c0,.6,-.5,1.1,-1.2,1.1c-.6,0,-1.1,-.5,-1.1,-1.1Z" class="g1_67"/>
<path d="M232,166.8c0,-.6,.5,-1.1,1.1,-1.1c.7,0,1.2,.5,1.2,1.1c0,.6,-.5,1.1,-1.2,1.1c-.6,0,-1.1,-.5,-1.1,-1.1Z" class="g2_67"/>
<path d="M228.5,163.4c0,-.6,.5,-1.1,1.1,-1.1c.6,0,1.2,.5,1.2,1.1c0,.7,-.6,1.2,-1.2,1.2c-.6,0,-1.1,-.5,-1.1,-1.2Z" class="g1_67"/>
<path d="M228.5,163.4c0,-.6,.5,-1.1,1.1,-1.1c.6,0,1.2,.5,1.2,1.1c0,.7,-.6,1.2,-1.2,1.2c-.6,0,-1.1,-.5,-1.1,-1.2Z" class="g2_67"/>
<path d="M231.5,159.4c0,-.6,.5,-1.2,1.1,-1.2c.7,0,1.2,.6,1.2,1.2c0,.6,-.5,1.1,-1.2,1.1c-.6,0,-1.1,-.5,-1.1,-1.1Z" class="g1_67"/>
<path d="M231.5,159.4c0,-.6,.5,-1.2,1.1,-1.2c.7,0,1.2,.6,1.2,1.2c0,.6,-.5,1.1,-1.2,1.1c-.6,0,-1.1,-.5,-1.1,-1.1Z" class="g2_67"/>
<path d="M234.7,154.5c0,-.6,.5,-1.1,1.1,-1.1c.7,0,1.2,.5,1.2,1.1c0,.6,-.5,1.1,-1.2,1.1c-.6,0,-1.1,-.5,-1.1,-1.1Z" class="g1_67"/>
<path d="M234.7,154.5c0,-.6,.5,-1.1,1.1,-1.1c.7,0,1.2,.5,1.2,1.1c0,.6,-.5,1.1,-1.2,1.1c-.6,0,-1.1,-.5,-1.1,-1.1Z" class="g2_67"/>
<path d="M238.7,153c0,-.7,.6,-1.2,1.2,-1.2c.6,0,1.1,.5,1.1,1.2c0,.6,-.5,1.1,-1.1,1.1c-.6,0,-1.2,-.5,-1.2,-1.1Z" class="g1_67"/>
<path d="M238.7,153c0,-.7,.6,-1.2,1.2,-1.2c.6,0,1.1,.5,1.1,1.2c0,.6,-.5,1.1,-1.1,1.1c-.6,0,-1.2,-.5,-1.2,-1.1Z" class="g2_67"/>
<path d="M239.4,147.8c0,-.7,.5,-1.2,1.1,-1.2c.7,0,1.2,.5,1.2,1.2c0,.6,-.5,1.1,-1.2,1.1c-.6,0,-1.1,-.5,-1.1,-1.1Z" class="g1_67"/>
<path d="M239.4,147.8c0,-.7,.5,-1.2,1.1,-1.2c.7,0,1.2,.5,1.2,1.2c0,.6,-.5,1.1,-1.2,1.1c-.6,0,-1.1,-.5,-1.1,-1.1Z" class="g2_67"/>
<path d="M242.4,142.7c0,-.6,.6,-1.1,1.2,-1.1c.6,0,1.1,.5,1.1,1.1c0,.6,-.5,1.2,-1.1,1.2c-.6,0,-1.2,-.6,-1.2,-1.2Z" class="g1_67"/>
<path d="M242.4,142.7c0,-.6,.6,-1.1,1.2,-1.1c.6,0,1.1,.5,1.1,1.1c0,.6,-.5,1.2,-1.1,1.2c-.6,0,-1.2,-.6,-1.2,-1.2Z" class="g2_67"/>
<path d="M245.8,142.4c0,-.7,.5,-1.2,1.2,-1.2c.6,0,1.1,.5,1.1,1.2c0,.6,-.5,1.1,-1.1,1.1c-.7,0,-1.2,-.5,-1.2,-1.1Z" class="g1_67"/>
<path d="M245.8,142.4c0,-.7,.5,-1.2,1.2,-1.2c.6,0,1.1,.5,1.1,1.2c0,.6,-.5,1.1,-1.1,1.1c-.7,0,-1.2,-.5,-1.2,-1.1Z" class="g2_67"/>
<path d="M248.2,133.1c0,-.6,.5,-1.1,1.1,-1.1c.6,0,1.2,.5,1.2,1.1c0,.6,-.6,1.1,-1.2,1.1c-.6,0,-1.1,-.5,-1.1,-1.1Z" class="g1_67"/>
<path d="M248.2,133.1c0,-.6,.5,-1.1,1.1,-1.1c.6,0,1.2,.5,1.2,1.1c0,.6,-.6,1.1,-1.2,1.1c-.6,0,-1.1,-.5,-1.1,-1.1Z" class="g2_67"/>
<path d="M252.1,134.6c0,-.6,.5,-1.1,1.1,-1.1c.6,0,1.1,.5,1.1,1.1c0,.7,-.5,1.2,-1.1,1.2c-.6,0,-1.1,-.5,-1.1,-1.2Z" class="g1_67"/>
<path d="M252.1,134.6c0,-.6,.5,-1.1,1.1,-1.1c.6,0,1.1,.5,1.1,1.1c0,.7,-.5,1.2,-1.1,1.2c-.6,0,-1.1,-.5,-1.1,-1.2Z" class="g2_67"/>
<path d="M249.5,126.4c0,-.7,.5,-1.2,1.2,-1.2c.6,0,1.1,.5,1.1,1.2c0,.6,-.5,1.1,-1.1,1.1c-.7,0,-1.2,-.5,-1.2,-1.1Z" class="g1_67"/>
<path d="M249.5,126.4c0,-.7,.5,-1.2,1.2,-1.2c.6,0,1.1,.5,1.1,1.2c0,.6,-.5,1.1,-1.1,1.1c-.7,0,-1.2,-.5,-1.2,-1.1Z" class="g2_67"/>
<path d="M250.5,123c0,-.6,.5,-1.2,1.2,-1.2c.6,0,1.1,.6,1.1,1.2c0,.6,-.5,1.1,-1.1,1.1c-.7,0,-1.2,-.5,-1.2,-1.1Z" class="g1_67"/>
<path d="M250.5,123c0,-.6,.5,-1.2,1.2,-1.2c.6,0,1.1,.6,1.1,1.2c0,.6,-.5,1.1,-1.1,1.1c-.7,0,-1.2,-.5,-1.2,-1.1Z" class="g2_67"/>
<path d="M254.2,126.7c0,-.6,.6,-1.1,1.2,-1.1c.6,0,1.1,.5,1.1,1.1c0,.6,-.5,1.1,-1.1,1.1c-.6,0,-1.2,-.5,-1.2,-1.1Z" class="g1_67"/>
<path d="M254.2,126.7c0,-.6,.6,-1.1,1.2,-1.1c.6,0,1.1,.5,1.1,1.1c0,.6,-.5,1.1,-1.1,1.1c-.6,0,-1.2,-.5,-1.2,-1.1Z" class="g2_67"/>
<path d="M189.8,252.1V118.6" class="g3_67"/>
<path fill-rule="evenodd" d="M189.8,118.6l-2.4,1.6l2.4,-6.5l2.5,6.5Z" class="g4_67"/>
<path d="M169.6,231.8H303.1" class="g3_67"/>
<g clip-path="url(#c0_67)">
<path fill-rule="evenodd" d="M303.1,231.8l-1.7,-2.4l6.6,2.4l-6.6,2.5Z" class="g4_67"/>
</g>
<text x="180" y="243" class="s6_67">0</text>
<text x="301" y="244" class="s7_67">x</text>
<text x="178" y="120" class="s8_67">y</text>
<text x="152" y="120" class="s9_67">(a)</text>
<text x="351" y="243" class="s6_67">0</text>
<path d="M372,119.6c0,-.6,.5,-1.1,1.2,-1.1c.6,0,1.1,.5,1.1,1.1c0,.7,-.5,1.2,-1.1,1.2c-.7,0,-1.2,-.5,-1.2,-1.2Z" class="g1_67"/>
<path d="M372,119.6c0,-.6,.5,-1.1,1.2,-1.1c.6,0,1.1,.5,1.1,1.1c0,.7,-.5,1.2,-1.1,1.2c-.7,0,-1.2,-.5,-1.2,-1.2Z" class="g2_67"/>
<path d="M373.1,125.9c0,-.7,.5,-1.2,1.1,-1.2c.6,0,1.1,.5,1.1,1.2c0,.6,-.5,1.1,-1.1,1.1c-.6,0,-1.1,-.5,-1.1,-1.1Z" class="g1_67"/>
<path d="M373.1,125.9c0,-.7,.5,-1.2,1.1,-1.2c.6,0,1.1,.5,1.1,1.2c0,.6,-.5,1.1,-1.1,1.1c-.6,0,-1.1,-.5,-1.1,-1.1Z" class="g2_67"/>
<path d="M374.1,133.8c0,-.7,.5,-1.2,1.1,-1.2c.6,0,1.2,.5,1.2,1.2c0,.6,-.6,1.1,-1.2,1.1c-.6,0,-1.1,-.5,-1.1,-1.1Z" class="g1_67"/>
<path d="M374.1,133.8c0,-.7,.5,-1.2,1.1,-1.2c.6,0,1.2,.5,1.2,1.2c0,.6,-.6,1.1,-1.2,1.1c-.6,0,-1.1,-.5,-1.1,-1.1Z" class="g2_67"/>
<path d="M374.9,144.7c0,-.6,.5,-1.1,1.1,-1.1c.7,0,1.2,.5,1.2,1.1c0,.7,-.5,1.2,-1.2,1.2c-.6,0,-1.1,-.5,-1.1,-1.2Z" class="g1_67"/>
<path d="M374.9,144.7c0,-.6,.5,-1.1,1.1,-1.1c.7,0,1.2,.5,1.2,1.1c0,.7,-.5,1.2,-1.2,1.2c-.6,0,-1.1,-.5,-1.1,-1.2Z" class="g2_67"/>
<path d="M377.9,152.5c0,-.7,.5,-1.2,1.2,-1.2c.6,0,1.1,.5,1.1,1.2c0,.6,-.5,1.1,-1.1,1.1c-.7,0,-1.2,-.5,-1.2,-1.1Z" class="g1_67"/>
<path d="M377.9,152.5c0,-.7,.5,-1.2,1.2,-1.2c.6,0,1.1,.5,1.1,1.2c0,.6,-.5,1.1,-1.1,1.1c-.7,0,-1.2,-.5,-1.2,-1.1Z" class="g2_67"/>
<path d="M380.8,159.7c0,-.6,.5,-1.1,1.1,-1.1c.7,0,1.2,.5,1.2,1.1c0,.7,-.5,1.2,-1.2,1.2c-.6,0,-1.1,-.5,-1.1,-1.2Z" class="g1_67"/>
<path d="M380.8,159.7c0,-.6,.5,-1.1,1.1,-1.1c.7,0,1.2,.5,1.2,1.1c0,.7,-.5,1.2,-1.2,1.2c-.6,0,-1.1,-.5,-1.1,-1.2Z" class="g2_67"/>
<path d="M380,165.5c0,-.7,.5,-1.2,1.1,-1.2c.6,0,1.1,.5,1.1,1.2c0,.6,-.5,1.1,-1.1,1.1c-.6,0,-1.1,-.5,-1.1,-1.1Z" class="g1_67"/>
<path d="M380,165.5c0,-.7,.5,-1.2,1.1,-1.2c.6,0,1.1,.5,1.1,1.2c0,.6,-.5,1.1,-1.1,1.1c-.6,0,-1.1,-.5,-1.1,-1.1Z" class="g2_67"/>
<path d="M381.8,170.3c0,-.6,.5,-1.1,1.2,-1.1c.6,0,1.1,.5,1.1,1.1c0,.7,-.5,1.2,-1.1,1.2c-.7,0,-1.2,-.5,-1.2,-1.2Z" class="g1_67"/>
<path d="M381.8,170.3c0,-.6,.5,-1.1,1.2,-1.1c.6,0,1.1,.5,1.1,1.1c0,.7,-.5,1.2,-1.1,1.2c-.7,0,-1.2,-.5,-1.2,-1.2Z" class="g2_67"/>
<path d="M385.4,180.4c0,-.6,.5,-1.1,1.1,-1.1c.6,0,1.1,.5,1.1,1.1c0,.7,-.5,1.2,-1.1,1.2c-.6,0,-1.1,-.5,-1.1,-1.2Z" class="g1_67"/>
<path d="M385.4,180.4c0,-.6,.5,-1.1,1.1,-1.1c.6,0,1.1,.5,1.1,1.1c0,.7,-.5,1.2,-1.1,1.2c-.6,0,-1.1,-.5,-1.1,-1.2Z" class="g2_67"/>
<path d="M388.9,182.8c0,-.6,.5,-1.1,1.1,-1.1c.7,0,1.2,.5,1.2,1.1c0,.6,-.5,1.2,-1.2,1.2c-.6,0,-1.1,-.6,-1.1,-1.2Z" class="g1_67"/>
<path d="M388.9,182.8c0,-.6,.5,-1.1,1.1,-1.1c.7,0,1.2,.5,1.2,1.1c0,.6,-.5,1.2,-1.2,1.2c-.6,0,-1.1,-.6,-1.1,-1.2Z" class="g2_67"/>
<path d="M391.9,186c0,-.6,.5,-1.1,1.2,-1.1c.6,0,1.1,.5,1.1,1.1c0,.6,-.5,1.2,-1.1,1.2c-.7,0,-1.2,-.6,-1.2,-1.2Z" class="g1_67"/>
<path d="M391.9,186c0,-.6,.5,-1.1,1.2,-1.1c.6,0,1.1,.5,1.1,1.1c0,.6,-.5,1.2,-1.1,1.2c-.7,0,-1.2,-.6,-1.2,-1.2Z" class="g2_67"/>
<path d="M392.3,191.4c0,-.6,.5,-1.1,1.1,-1.1c.6,0,1.1,.5,1.1,1.1c0,.6,-.5,1.1,-1.1,1.1c-.6,0,-1.1,-.5,-1.1,-1.1Z" class="g1_67"/>
<path d="M392.3,191.4c0,-.6,.5,-1.1,1.1,-1.1c.6,0,1.1,.5,1.1,1.1c0,.6,-.5,1.1,-1.1,1.1c-.6,0,-1.1,-.5,-1.1,-1.1Z" class="g2_67"/>
<path d="M396,193.1c0,-.6,.5,-1.2,1.1,-1.2c.6,0,1.1,.6,1.1,1.2c0,.6,-.5,1.1,-1.1,1.1c-.6,0,-1.1,-.5,-1.1,-1.1Z" class="g1_67"/>
<path d="M396,193.1c0,-.6,.5,-1.2,1.1,-1.2c.6,0,1.1,.6,1.1,1.2c0,.6,-.5,1.1,-1.1,1.1c-.6,0,-1.1,-.5,-1.1,-1.1Z" class="g2_67"/>
<path d="M399,197.3c0,-.6,.5,-1.1,1.1,-1.1c.7,0,1.2,.5,1.2,1.1c0,.6,-.5,1.1,-1.2,1.1c-.6,0,-1.1,-.5,-1.1,-1.1Z" class="g1_67"/>
<path d="M399,197.3c0,-.6,.5,-1.1,1.1,-1.1c.7,0,1.2,.5,1.2,1.1c0,.6,-.5,1.1,-1.2,1.1c-.6,0,-1.1,-.5,-1.1,-1.1Z" class="g2_67"/>
<path d="M402.5,199.8c0,-.6,.5,-1.1,1.2,-1.1c.6,0,1.1,.5,1.1,1.1c0,.7,-.5,1.2,-1.1,1.2c-.7,0,-1.2,-.5,-1.2,-1.2Z" class="g1_67"/>
<path d="M402.5,199.8c0,-.6,.5,-1.1,1.2,-1.1c.6,0,1.1,.5,1.1,1.1c0,.7,-.5,1.2,-1.1,1.2c-.7,0,-1.2,-.5,-1.2,-1.2Z" class="g2_67"/>
<path d="M406.6,202.5c0,-.6,.5,-1.1,1.1,-1.1c.7,0,1.2,.5,1.2,1.1c0,.6,-.5,1.2,-1.2,1.2c-.6,0,-1.1,-.6,-1.1,-1.2Z" class="g1_67"/>
<path d="M406.6,202.5c0,-.6,.5,-1.1,1.1,-1.1c.7,0,1.2,.5,1.2,1.1c0,.6,-.5,1.2,-1.2,1.2c-.6,0,-1.1,-.6,-1.1,-1.2Z" class="g2_67"/>
<path d="M408.9,205.7c0,-.6,.5,-1.1,1.2,-1.1c.6,0,1.1,.5,1.1,1.1c0,.7,-.5,1.2,-1.1,1.2c-.7,0,-1.2,-.5,-1.2,-1.2Z" class="g1_67"/>
<path d="M408.9,205.7c0,-.6,.5,-1.1,1.2,-1.1c.6,0,1.1,.5,1.1,1.1c0,.7,-.5,1.2,-1.1,1.2c-.7,0,-1.2,-.5,-1.2,-1.2Z" class="g2_67"/>
<path d="M412.5,205.7c0,-.6,.5,-1.1,1.1,-1.1c.7,0,1.2,.5,1.2,1.1c0,.7,-.5,1.2,-1.2,1.2c-.6,0,-1.1,-.5,-1.1,-1.2Z" class="g1_67"/>
<path d="M412.5,205.7c0,-.6,.5,-1.1,1.1,-1.1c.7,0,1.2,.5,1.2,1.1c0,.7,-.5,1.2,-1.2,1.2c-.6,0,-1.1,-.5,-1.1,-1.2Z" class="g2_67"/>
<path d="M415.2,208.1c0,-.6,.5,-1.2,1.1,-1.2c.6,0,1.2,.6,1.2,1.2c0,.6,-.6,1.1,-1.2,1.1c-.6,0,-1.1,-.5,-1.1,-1.1Z" class="g1_67"/>
<path d="M415.2,208.1c0,-.6,.5,-1.2,1.1,-1.2c.6,0,1.2,.6,1.2,1.2c0,.6,-.6,1.1,-1.2,1.1c-.6,0,-1.1,-.5,-1.1,-1.1Z" class="g2_67"/>
<path d="M417.2,211.6c0,-.6,.5,-1.1,1.1,-1.1c.7,0,1.2,.5,1.2,1.1c0,.7,-.5,1.2,-1.2,1.2c-.6,0,-1.1,-.5,-1.1,-1.2Z" class="g1_67"/>
<path d="M417.2,211.6c0,-.6,.5,-1.1,1.1,-1.1c.7,0,1.2,.5,1.2,1.1c0,.7,-.5,1.2,-1.2,1.2c-.6,0,-1.1,-.5,-1.1,-1.2Z" class="g2_67"/>
<path d="M421.6,210.4c0,-.6,.5,-1.1,1.1,-1.1c.6,0,1.2,.5,1.2,1.1c0,.7,-.6,1.2,-1.2,1.2c-.6,0,-1.1,-.5,-1.1,-1.2Z" class="g1_67"/>
<path d="M421.6,210.4c0,-.6,.5,-1.1,1.1,-1.1c.6,0,1.2,.5,1.2,1.1c0,.7,-.6,1.2,-1.2,1.2c-.6,0,-1.1,-.5,-1.1,-1.2Z" class="g2_67"/>
<path d="M424.9,210.9c0,-.6,.6,-1.1,1.2,-1.1c.6,0,1.1,.5,1.1,1.1c0,.7,-.5,1.2,-1.1,1.2c-.6,0,-1.2,-.5,-1.2,-1.2Z" class="g1_67"/>
<path d="M424.9,210.9c0,-.6,.6,-1.1,1.2,-1.1c.6,0,1.1,.5,1.1,1.1c0,.7,-.5,1.2,-1.1,1.2c-.6,0,-1.2,-.5,-1.2,-1.2Z" class="g2_67"/>
<path d="M429.8,212.1c0,-.6,.5,-1.1,1.2,-1.1c.6,0,1.1,.5,1.1,1.1c0,.7,-.5,1.2,-1.1,1.2c-.7,0,-1.2,-.5,-1.2,-1.2Z" class="g1_67"/>
<path d="M429.8,212.1c0,-.6,.5,-1.1,1.2,-1.1c.6,0,1.1,.5,1.1,1.1c0,.7,-.5,1.2,-1.1,1.2c-.7,0,-1.2,-.5,-1.2,-1.2Z" class="g2_67"/>
<path d="M431.7,216.2c0,-.7,.5,-1.2,1.1,-1.2c.7,0,1.2,.5,1.2,1.2c0,.6,-.5,1.1,-1.2,1.1c-.6,0,-1.1,-.5,-1.1,-1.1Z" class="g1_67"/>
<path d="M431.7,216.2c0,-.7,.5,-1.2,1.1,-1.2c.7,0,1.2,.5,1.2,1.2c0,.6,-.5,1.1,-1.2,1.1c-.6,0,-1.1,-.5,-1.1,-1.1Z" class="g2_67"/>
<path d="M436.7,218.4c0,-.7,.6,-1.2,1.2,-1.2c.6,0,1.1,.5,1.1,1.2c0,.6,-.5,1.1,-1.1,1.1c-.6,0,-1.2,-.5,-1.2,-1.1Z" class="g1_67"/>
<path d="M436.7,218.4c0,-.7,.6,-1.2,1.2,-1.2c.6,0,1.1,.5,1.1,1.2c0,.6,-.5,1.1,-1.1,1.1c-.6,0,-1.2,-.5,-1.2,-1.1Z" class="g2_67"/>
<path d="M440.9,220.4c0,-.6,.6,-1.2,1.2,-1.2c.6,0,1.1,.6,1.1,1.2c0,.6,-.5,1.1,-1.1,1.1c-.6,0,-1.2,-.5,-1.2,-1.1Z" class="g1_67"/>
<path d="M440.9,220.4c0,-.6,.6,-1.2,1.2,-1.2c.6,0,1.1,.6,1.1,1.2c0,.6,-.5,1.1,-1.1,1.1c-.6,0,-1.2,-.5,-1.2,-1.1Z" class="g2_67"/>
<path d="M446.3,220.9c0,-.6,.6,-1.2,1.2,-1.2c.6,0,1.1,.6,1.1,1.2c0,.6,-.5,1.1,-1.1,1.1c-.6,0,-1.2,-.5,-1.2,-1.1Z" class="g1_67"/>
<path d="M446.3,220.9c0,-.6,.6,-1.2,1.2,-1.2c.6,0,1.1,.6,1.1,1.2c0,.6,-.5,1.1,-1.1,1.1c-.6,0,-1.2,-.5,-1.2,-1.1Z" class="g2_67"/>
<path d="M449.5,217.3c0,-.6,.6,-1.1,1.2,-1.1c.6,0,1.1,.5,1.1,1.1c0,.7,-.5,1.2,-1.1,1.2c-.6,0,-1.2,-.5,-1.2,-1.2Z" class="g1_67"/>
<path d="M449.5,217.3c0,-.6,.6,-1.1,1.2,-1.1c.6,0,1.1,.5,1.1,1.1c0,.7,-.5,1.2,-1.1,1.2c-.6,0,-1.2,-.5,-1.2,-1.2Z" class="g2_67"/>
<path d="M451.6,221.1c0,-.7,.5,-1.2,1.1,-1.2c.6,0,1.2,.5,1.2,1.2c0,.6,-.6,1.1,-1.2,1.1c-.6,0,-1.1,-.5,-1.1,-1.1Z" class="g1_67"/>
<path d="M451.6,221.1c0,-.7,.5,-1.2,1.1,-1.2c.6,0,1.2,.5,1.2,1.2c0,.6,-.6,1.1,-1.2,1.1c-.6,0,-1.1,-.5,-1.1,-1.1Z" class="g2_67"/>
<path d="M455.3,223.1c0,-.7,.5,-1.2,1.1,-1.2c.7,0,1.2,.5,1.2,1.2c0,.6,-.5,1.1,-1.2,1.1c-.6,0,-1.1,-.5,-1.1,-1.1Z" class="g1_67"/>
<path d="M455.3,223.1c0,-.7,.5,-1.2,1.1,-1.2c.7,0,1.2,.5,1.2,1.2c0,.6,-.5,1.1,-1.2,1.1c-.6,0,-1.1,-.5,-1.1,-1.1Z" class="g2_67"/>
<path d="M459.6,224c0,-.7,.5,-1.2,1.2,-1.2c.6,0,1.1,.5,1.1,1.2c0,.6,-.5,1.1,-1.1,1.1c-.7,0,-1.2,-.5,-1.2,-1.1Z" class="g1_67"/>
<path d="M459.6,224c0,-.7,.5,-1.2,1.2,-1.2c.6,0,1.1,.5,1.1,1.2c0,.6,-.5,1.1,-1.1,1.1c-.7,0,-1.2,-.5,-1.2,-1.1Z" class="g2_67"/>
<path d="M461.5,221.1c0,-.7,.5,-1.2,1.2,-1.2c.6,0,1.1,.5,1.1,1.2c0,.6,-.5,1.1,-1.1,1.1c-.7,0,-1.2,-.5,-1.2,-1.1Z" class="g1_67"/>
<path d="M461.5,221.1c0,-.7,.5,-1.2,1.2,-1.2c.6,0,1.1,.5,1.1,1.2c0,.6,-.5,1.1,-1.1,1.1c-.7,0,-1.2,-.5,-1.2,-1.1Z" class="g2_67"/>
<path d="M464.5,223.9c0,-.6,.6,-1.1,1.2,-1.1c.6,0,1.1,.5,1.1,1.1c0,.7,-.5,1.2,-1.1,1.2c-.6,0,-1.2,-.5,-1.2,-1.2Z" class="g1_67"/>
<path d="M464.5,223.9c0,-.6,.6,-1.1,1.2,-1.1c.6,0,1.1,.5,1.1,1.1c0,.7,-.5,1.2,-1.1,1.2c-.6,0,-1.2,-.5,-1.2,-1.2Z" class="g2_67"/>
<path d="M468.1,218.9c0,-.7,.5,-1.2,1.1,-1.2c.7,0,1.2,.5,1.2,1.2c0,.6,-.5,1.1,-1.2,1.1c-.6,0,-1.1,-.5,-1.1,-1.1Z" class="g1_67"/>
<path d="M468.1,218.9c0,-.7,.5,-1.2,1.1,-1.2c.7,0,1.2,.5,1.2,1.2c0,.6,-.5,1.1,-1.2,1.1c-.6,0,-1.1,-.5,-1.1,-1.1Z" class="g2_67"/>
<path d="M471.4,222.6c0,-.7,.6,-1.2,1.2,-1.2c.6,0,1.1,.5,1.1,1.2c0,.6,-.5,1.1,-1.1,1.1c-.6,0,-1.2,-.5,-1.2,-1.1Z" class="g1_67"/>
<path d="M471.4,222.6c0,-.7,.6,-1.2,1.2,-1.2c.6,0,1.1,.5,1.1,1.2c0,.6,-.5,1.1,-1.1,1.1c-.6,0,-1.2,-.5,-1.2,-1.1Z" class="g2_67"/>
<path d="M361,252.1V118.6" class="g3_67"/>
<path fill-rule="evenodd" d="M361,118.6l-2.4,1.6l2.4,-6.5l2.5,6.5Z" class="g4_67"/>
<path d="M340.8,231.8H474.3" class="g3_67"/>
<g clip-path="url(#c1_67)">
<path fill-rule="evenodd" d="M474.3,231.8l-1.7,-2.4l6.6,2.4l-6.6,2.5Z" class="g4_67"/>
</g>
<text x="472" y="244" class="s7_67">x</text>
<text x="350" y="120" class="s8_67">y</text>
<text x="323" y="122" class="s9_67">(b)</text>
<text x="127" y="293" class="s5_67">23. </text>
<text x="152" y="293" dx="0,-.1,-.1,-.1,-.1,-.1,-.1,-.1,-.1,-.1,-.1,-.1,-.1,-.5,-.1,-.1,-.1,-.1,-.1,-.1,-.1,-.1,-.1,-.1,-.1,-.1,-.1,-.1,-.1,-.1,-.1,-.1,-.1,-.1,-.1,-.1,-.1,-.1,-.1,-.1,-.1,-.1,-.1,-.1,-.1,-.1,-.1,-.1,-.1,-.1,-.1,-.1,-.1,-.1,-.1,-.1,-.1,-.1,-.1,-.1,-.1,-.1" class="s9_67">The table shows (lifetime) peptic ulcer rates (per 100 popula-</text>
<text x="152" y="310" dx="0,-.1,-.1,-.1,-.1,-.1,0,0,0,0,0,-.3,0,0,0,0,0,0,0,-.1,0,0,0,0,0,0,0,0,0,0,0,0,0,0,0,0,0,0,0,0,0,0,0,0,0,0,0,0,0,0,0,0,0,0,0,0,0,0,0,0,0" class="s9_67">tion) for various family incomes as reported by the National </text>
<text x="152" y="326" dx="0,0,0,0,0,0,0,0,0,0,0,0,0,0,0,-.3,0,0,0,0,0,-.2,-.2,-.9" class="s9_67">Health ±nterview Survey.</text>
<path d="M192.2,341.1h99.9v44.3H192.2Zm99.9,0H418.9v44.3H292.1Z" class="g5_67"/>
<path d="M292.1,403.7v-18m0,36.3V403.7m0,36.7V422m0,36.7V440.4m0,36.6V458.7m0,36.7V477m0,36.7V495.4m0,36.6V513.7m0,39.3V532m0,-147V341.4m-99.9,62.3v-18m226.7,18v-18M192.2,422V403.7M418.9,422V403.7M192.2,440.4V422m226.7,18.4V422M192.2,458.7V440.4m226.7,18.3V440.4M192.2,477V458.7M418.9,477V458.7M192.2,495.4V477m226.7,18.4V477M192.2,513.7V495.4m226.7,18.3V495.4M192.2,532V513.7M418.9,532V513.7M192.2,553V532m226.7,21V532M191.8,553.4H292.1m0,0H419.3M191.8,341.1H292.1m0,0H419.3M191.8,385.4H292.1m0,0H419.3M192.2,385V341.4M418.9,385V341.4" class="g6_67"/>
<text x="221" y="376" class="s9_67">±ncome</text>
<text x="328" y="359" class="s9_67">Ulcer rate </text>
<text x="299" y="376" class="s9_67">(per 100 population)</text>
<text x="225" y="399" class="s9_67">$4,000</text>
<text x="340" y="399" class="s9_67">14.1</text>
<text x="225" y="417" class="s9_67">$6,000</text>
<text x="340" y="418" class="s9_67">13.0</text>
<text x="225" y="435" class="s9_67">$8,000</text>
<text x="340" y="436" class="s9_67">13.4</text>
<text x="218" y="454" class="s9_67">$12,000</text>
<text x="340" y="454" class="s9_67">12.5</text>
<text x="218" y="472" class="s9_67">$16,000</text>
<text x="340" y="473" class="s9_67">12.0</text>
<text x="218" y="490" class="s9_67">$20,000</text>
<text x="340" y="491" class="s9_67">12.4</text>
<text x="218" y="509" class="s9_67">$30,000</text>
<text x="340" y="509" class="s9_67">10.5</text>
<text x="218" y="527" class="s9_67">$45,000</text>
<text x="347" y="528" class="s9_67">9.4</text>
<text x="218" y="545" class="s9_67">$60,000</text>
<text x="347" y="545" class="s9_67">8.2</text>
<text x="152" y="575" class="s9_67">(a) </text>
<text x="174" y="575" dx="0,0,0,-.1,0,0,0,0,0,0,0,0,0,0,0,0,0,0,0,0,0,0,0,0,0,0,0,0,0,0,0,0,0,0,0,0,0,0,0,0,0,0,0,0,0,0,0,0,0,0,0,0,0,0,0" class="s9_67">Make a scatter plot of these data and decide whether a </text>
<text x="174" y="592" class="s9_67">linear model is appropriate.</text>
<text x="152" y="608" class="s9_67">(b) </text>
<text x="174" y="608" class="s9_67">Find and graph a linear model using the Irst and last </text>
<text x="174" y="625" class="s9_67">data points.</text>
<text x="152" y="642" dx="0,0,0,0,4.2,0,0,0,0,0,0,0,0,0,0,0,0,0,0,0,0,0,0,0,0,0,0,0,0,0,0,0,0,0,0,0,0,0,0,-.2,0,0,0,0,0,0,0,0,0,0,0,0,0" class="s9_67">(c) Find and graph the least squares regression line.</text>
<text x="152" y="659" class="s9_67">(d) </text>
<text x="174" y="659" class="s9_67">Use the linear model in part (c) to estimate the ulcer </text>
<text x="174" y="676" class="s9_67">rate for an income of $25,000.</text>
<text x="152" y="692" class="s9_67">(e) </text>
<text x="174" y="692" dx="0,0,0,0,0,0,0,0,0,0,0,0,0,0,0,0,0,0,0,0,0,0,0,0,0,0,-.3,0,0,0,0,-.1,0,0,0,0,0,0,0,0,0,0,0,0,0,0,0,0,0,0,0,0,0,0" class="s9_67">According to the model, how likely is someone with an </text>
<text x="174" y="709" dx="0,0,0,0,0,0,0,0,0,0,0,0,0,0,0,0,0,0,0,0,0,0,0,0,-.3,0,0,0,0,0,0,0,0,0,0,0,0,0,0,0,0,0,0,0,0,0,0" class="s9_67">income of $80,000 to suffer from peptic ulcers?</text>
<text x="152" y="726" dx="0,0,1.4,0" class="s9_67">(f) </text>
<text x="174" y="726" dx="0,0,0,0,0,0,0,0,0,0,0,0,0,0,0,0,0,-.1,0,0,0,0,0,0,0,0,0,0,0,0,0,0,0,0,0,0,0,0,0,0,0,0,0,0,0,0,0,0,0,0,0,0,0,0,0" class="s9_67">Do you think it would be reasonable to apply the model </text>
<text x="174" y="743" class="s9_67">to someone with an income of $200,000?</text>
<text x="127" y="767" class="s5_67">24. </text>
<text x="152" y="767" dx="0,0,0,0,0,0,0,0,0,0,0,0,0,-.3,-.2,0,0,0,0,0,0,0,-.2,0,0,0,0,0,0,0,0,0,0,0,0,0,0,0,0,0,0,0,0,0,0,0,0,0,0,0,0,0,0,0,0,0,-.1,0,0,0,0,0,0" class="s9_67">Biologists have observed that the chirping rate of crickets of </text>
<text x="152" y="784" dx="0,0,0,0,0,0,0,0,0,0,0,0,0,0,0,0,0,0,0,0,0,0,0,0,0,0,0,0,0,0,0,0,0,0,0,0,0,0,0,0,0,0,0,0,0,0,0,0,0,0,0,0,0,0,0,0,-.2,0,0,0" class="s9_67">a certain species appears to be related to temperature. The </text>
<text x="152" y="801" dx="0,0,0,0,0,0,0,0,0,-.3,0,0,0,0,0,0,0,0,0,0,0,0,0,0,0,0,0,0,0,0,0,0,0,0,0,0,-.3,0,0,0,0,0,0,0,0,0,0,0,0,0,0,0,0,0,0,0" class="s9_67">table shows the chirping rates for various temperatures.</text>
<text x="152" y="818" dx="0,0,0,0,4.2,0,0,-.1,0,0,0,0,0,0,0,0,0,0,0,0,0,0,0,0,0,0,0,0,0,0,0,0,0,0,0,0" class="s9_67">(a) Make a scatter plot of the data.</text>
<text x="152" y="834" dx="0,0,0,0,3.5,0,0,0,0,0,0,0,0,0,0,0,0,0,0,0,0,0,0,0,0,-.2,0,0,0,0,0,0,0,0,0,0,0,0,0" class="s9_67">(b) Find and graph the regression line.</text>
<text x="152" y="851" class="s9_67">(c) </text>
<text x="174" y="851" class="s9_67">Use the linear model in part (b) to estimate the chirping </text>
<text x="174" y="868" dx="0,0,0,0,0,0,0,0,0,0,0,0,0,-1.1" class="s9_67">rate at 100°F.</text>
<path d="M134.1,884.2h84v44.3h-84Zm84,0h87.1v44.3H218.1Zm87.1,0h4.6v44.3h-4.6Zm4.6,0h84v44.3h-84Zm84,0h87.1v44.3H393.8Z" class="g5_67"/>
<path d="M305.2,928.1V884.6m4.6,43.5V884.6m-91.7,62.6V928.9m87.1,18.3V928.9m4.6,18.3V928.9m84,18.3V928.9M218.1,965.5V947.2m87.1,18.3V947.2m4.6,18.3V947.2m84,18.3V947.2M218.1,983.9V965.5m87.1,18.4V965.5m4.6,18.4V965.5m84,18.4V965.5m-175.7,36.7V983.9m87.1,18.3V983.9m4.6,18.3V983.9m84,18.3V983.9m-175.7,39.2v-20.9m87.1,20.9v-20.9m4.6,20.9v-20.9m84,20.9v-20.9M218.1,928.1V884.6m175.7,43.5V884.6M134.1,947.2V928.9m346.8,18.3V928.9M134.1,965.5V947.2m346.8,18.3V947.2M134.1,983.9V965.5m346.8,18.4V965.5m-346.8,36.7V983.9m346.8,18.3V983.9m-346.8,39.2v-20.9m346.8,20.9v-20.9m-347.2,21.2h84.4m0,0h87.1m0,0h4.6m0,0h84m0,0h87.5M133.7,884.2h84.4m-84,43.9V884.6m84,-.4h87.1m0,0h4.6m0,0h84m0,0h87.5m-.4,43.9V884.6M133.7,928.5h84.4m0,0h87.1m0,0h4.6m0,0h84m0,0h87.5" class="g6_67"/>
<text x="141" y="902" dx="0,-1,0,0,0,0,0,0,0,0,0,0" class="s9_67">Temperature </text>
<text x="164" y="919" class="s9_67">(°F)</text>
<text x="225" y="902" class="s9_67">Chirping rate </text>
<text x="226" y="919" class="s9_67">(chirps</text>
<text x="264" y="919" class="sa_67">y</text>
<text x="271" y="919" class="s9_67">min)</text>
<text x="317" y="902" dx="0,-1,0,0,0,0,0,0,0,0,0,0" class="s9_67">Temperature </text>
<text x="340" y="919" class="s9_67">(°F)</text>
<text x="400" y="902" class="s9_67">Chirping rate </text>
<text x="401" y="919" class="s9_67">(chirps</text>
<text x="440" y="919" class="sa_67">y</text>
<text x="446" y="919" class="s9_67">min)</text>
<text x="169" y="942" class="s9_67">50</text>
<text x="259" y="942" class="s9_67">20</text>
<text x="344" y="942" class="s9_67">75</text>
<text x="427" y="942" class="s9_67">140</text>
<text x="169" y="961" class="s9_67">55</text>
<text x="259" y="961" class="s9_67">46</text>
<text x="344" y="961" class="s9_67">80</text>
<text x="427" y="961" class="s9_67">173</text>
<text x="169" y="979" class="s9_67">60</text>
<text x="259" y="979" class="s9_67">79</text>
<text x="344" y="979" class="s9_67">85</text>
<text x="427" y="979" class="s9_67">198</text>
<text x="169" y="997" class="s9_67">65</text>
<text x="259" y="997" class="s9_67">91</text>
<text x="344" y="997" class="s9_67">90</text>
<text x="427" y="997" class="s9_67">211</text>
<text x="169" y="1015" class="s9_67">70</text>
<text x="252" y="1015" class="s9_67">113</text>
<text x="108" y="295" class="sb_67">;</text>
<text x="108" y="769" class="sb_67">;</text>
<text x="521" y="107" dx="0,-.1,-.1" class="s5_67">25.</text>
<text x="546" y="107" dx="0,-.1,-.1,-.1,-.1,-.1,-.1,-.1,-.1,-.1,-.1,-.1,-.1,-.1,-.1,-.1,-.1,-.1,-.1,-.1,-.1,-.1,-.1,-.1,-.1,-.1,-.1,-.1,-.1,-.1,-.1,-.1,-.1,-.1,-.1,-.1,-.1,-.1,-.1,-.1,-.1,-.1,-.1,-.1,-.1,-.1,-.1,-.1,-.1,-.1,-.1,-.1,-.1,-.1,-.1,-.1,-.1,-.1,-.1,0" class="s9_67">Anthropologists use a linear model that relates human femur </text>
<text x="546" y="124" dx="0,-.1,-.1,-.1,-.1,-.1,-.1,-.1,-.1,-.1,-.1,-.1,-.1,-.1,-.1,-.1,-.1,-.1,-.1,-.1,-.1,-.1,-.1,-.1,-.1,-.1,-.1,-.1,-.1,-.1,-.3,-.1,-.1,-.1,-.1,-.1,-.1,-.1,-.1,-.1,-.1,-.1,-.1,-.1,-.4,-.1,-.1,-.1,-.1,-.1,-.1,-.1,-.1,-.1,-.1,-.1,-.1" class="s9_67">(thighbone) length to height. The model allows an anthro-</text>
<text x="546" y="141" dx="0,-.1,-.1,-.1,-.1,-.1,-.1,-.1,-.1,-.1,-.1,-.1,-.1,-.1,-.1,-.1,-.1,-.1,-.1,-.1,-.1,-.1,-.1,-.1,-.1,-.1,-.1,-.1,-.1,-.1,-.1,-.1,-.1,-.1,-.1,-.1,-.1,-.1,-.1,-.1,-.1,-.1,-.1,-.4,-.1,-.1,-.1,-.1,-.1,-.1,-.1,-.1,-.1,-.1,-.1,-.1,-.1,-.1,-.1,-.1,-.1,0" class="s9_67">pologist to determine the height of an individual when only a </text>
<text x="546" y="158" dx="0,-.1,-.1,-.1,-.1,-.1,-.1,-.1,-.1,-.1,-.2,-.1,-.1,-.1,-.1,-.1,-.1,-.1,-.1,-.1,-.1,-.1,-.1,-.1,-.1,-.1,-.1,-.1,-.1,-.1,-.1,-.1,-.1,-.1,-.1,-.1,-.1,-.1,-.1,-.1,-.1,-.1,-.1,-.1,-.1,-.1,-.1,-.1,-.1,-.1,-.1,-.1,-.1,-.1,-.1,-.1,-.1,-.1,-.1,-.1,0" class="s9_67">partial skeleton (including the femur) is found. Here we Ind </text>
<text x="546" y="175" dx="0,-.1,-.1,-.1,-.1,-.1,-.1,-.1,-.1,-.1,-.1,-.1,-.1,-.1,-.1,-.1,-.1,-.1,-.1,-.1,-.1,-.1,-.1,-.1,-.1,-.1,-.1,-.1,-.1,-.1,-.1,-.1,-.1,-.1,-.1,-.1,-.1,-.1,-.1,-.1,-.1,-.1,-.1,-.1,-.1,-.1,-.1,-.1,-.1,-.1,-.1,-.1,-.1,-.1,-.1,-.1,-.1,-.1,0" class="s9_67">the model by analyzing the data on femur length and height </text>
<text x="546" y="191" dx="0,-.1,-.1,-.1,-.1,-.1,-.1,-.1,-.1,-.1,-.1,-.1,-.1,-.1,-.1,-.1,-.1,-.1,-.1,-.1,-.1,-.1,-.4,-.3,-.1,-.1,-.1,-.1,-.1,-.1,-.1,-.1,-.1,-.1,-.1,-.1,-.1,-.1,-.4,-.1,-.1,-.1,-.1,-.1,-.1,-.1,-.1,-.1,-.1" class="s9_67">for the eight males given in the following table.</text>
<text x="546" y="208" class="s9_67">(a) </text>
<text x="569" y="208" dx="0,0,0,-.1,0,0,0,0,0,0,0,0,0,0,0,0,0,0,0,0,0,0,0,0,0,0,0,0,0,0,0,0" class="s9_67">Make a scatter plot of the data.</text>
<text x="546" y="225" dx="0,0,0,0,3.5,0,0,0,0,0,0,0,0,0,0,0,0,0,0,0,0,0,0,0,0,-.2,0,0,0,0,0,0,0,0,0,0,0,0,0,0,0,0,0,0,0,0,0,0,0,0,0,0,0,0,0,0,0,0,0,0" class="s9_67">(b) Find and graph the regression line that models the data.</text>
<text x="546" y="242" class="s9_67">(c) </text>
<text x="569" y="242" class="s9_67">An anthropologist Inds a human femur of length </text>
<text x="569" y="259" dx="0,0,0,0,0,0,0,0,0,-.3,0,0,0,0,0,0,0,-.1,0,0,0,0,0,0,0,0,0,0,0,0,0" class="s9_67">53 cm. How tall was the person?</text>
<path d="M547.3,274.8h96.3v44.3H547.3Zm96.3,0h67.2v44.3H643.6Zm67.2,0h4.6v44.3h-4.6Zm4.6,0h96.2v44.3H715.4Zm96.2,0h65.7v44.3H811.6Z" class="g5_67"/>
<path d="M710.8,318.7V275.2m4.6,43.5V275.2m-71.8,62.6V319.5m67.2,18.3V319.5m4.6,18.3V319.5m96.2,18.3V319.5m-168,36.6V337.8m67.2,18.3V337.8m4.6,18.3V337.8m96.2,18.3V337.8m-168,36.7V356.1m67.2,18.4V356.1m4.6,18.4V356.1m96.2,18.4V356.1m-168,39.4v-21m67.2,21v-21m4.6,21v-21m96.2,21v-21m-168,-55.8V275.2m168,43.5V275.2M547,274.8h96.6m-96.3,43.9V275.2m96.3,-.4h67.2m0,0h4.6m0,0h96.2m0,0h66.1m-.4,43.9V275.2M547,319.1h96.6m0,0h67.2m0,0h4.6m0,0h96.2m0,0h66.1M547.3,337.8V319.5m330,18.3V319.5m-330,36.6V337.8m330,18.3V337.8m-330,36.7V356.1m330,18.4V356.1m-330,39.4v-21m330,21v-21M547,395.9h96.6m0,0h67.2m0,0h4.6m0,0h96.2m0,0h66.1" class="g6_67"/>
<text x="558" y="293" class="s9_67">Femur length </text>
<text x="582" y="310" class="s9_67">(cm)</text>
<text x="658" y="293" class="s9_67">Height </text>
<text x="664" y="310" class="s9_67">(cm)</text>
<text x="726" y="293" class="s9_67">Femur length </text>
<text x="750" y="310" class="s9_67">(cm)</text>
<text x="825" y="293" class="s9_67">Height </text>
<text x="831" y="310" class="s9_67">(cm)</text>
<text x="583" y="333" class="s9_67">50.1</text>
<text x="661" y="333" class="s9_67">178.5</text>
<text x="751" y="333" class="s9_67">44.5</text>
<text x="828" y="333" class="s9_67">168.3</text>
<text x="583" y="351" class="s9_67">48.3</text>
<text x="661" y="351" class="s9_67">173.6</text>
<text x="751" y="351" class="s9_67">42.7</text>
<text x="828" y="351" class="s9_67">165.0</text>
<text x="583" y="369" class="s9_67">45.2</text>
<text x="661" y="369" class="s9_67">164.8</text>
<text x="751" y="369" class="s9_67">39.5</text>
<text x="828" y="369" class="s9_67">155.4</text>
<text x="583" y="388" class="s9_67">44.7</text>
<text x="661" y="388" class="s9_67">163.7</text>
<text x="751" y="388" class="s9_67">38.0</text>
<text x="828" y="388" class="s9_67">155.8</text>
<text x="521" y="420" class="s5_67">26. </text>
<text x="546" y="420" dx="0,0,0,0,0,0,0,0,0,0,0,0,0,0,0,0,0,0,0,0,0,0,0,0,0,0,-.2,0,0,0,0,0,0,0,0,0,0,0,0,0,0,0,0,0,0,0,0,0,0,0,0,0,0,0,0,0,0" class="s9_67">When laboratory rats are exposed to asbestos Ibers, some </text>
<text x="546" y="437" dx="0,0,0,0,0,0,0,0,0,0,-.3,-.2,0,0,0,0,0,0,0,0,0,0,0,0,0,0,0,0,0,-.2,0,0,0,0,0,0,0,0,0,0,0,0,0,0,0,0,0,0,0,0,0,0,0,0,0,0,0,0,0,0" class="s9_67">of them develop lung tumors. The table lists the results of </text>
<text x="546" y="454" dx="0,0,-.3,-.2,0,0,0,0,0,-.2,0,0,0,0,0,0,0,0,0,0,0,0,0,0,0,0,-.3,0,0,0,0,0,0,0,0,0,0,0,0,0,0,0,0,0" class="s9_67">several experiments by different scientists.</text>
<text x="546" y="471" class="s9_67">(a) </text>
<text x="569" y="471" dx="0,0,0,0,0,0,0,0,0,0,0,-.2,0,0,0,0,0,0,0,0,0,0,0,0,0,0,0,0,0,0,0,0,0,0,0,0,0,0" class="s9_67">Find the regression line for the data.</text>
<text x="546" y="487" class="s9_67">(b) </text>
<text x="569" y="487" dx="0,0,0,-.1,0,0,0,0,0,0,0,0,0,0,0,0,0,0,0,0,0,0,0,0,0,0,0,0,0,0,0,0,0,0,0,0,-.2,0,0,0,0,0,0,0,0,0,0,0,0,0,0" class="s9_67">Make a scatter plot and graph the regression line. </text>
<text x="569" y="504" dx="0,-.1,-.1,-.1,-.1,-.1,-.1,-.1,-.1,-.1,-.1,-.3,-.1,-.1,-.1,-.1,-.1,-.1,-.1,-.1,-.1,-.1,-.1,-.1,-.1,-.1,-.1,-.1,-.1,-.1,-.1,-.1,-.1,-.1,-.1,-.1,-.1,-.1,-.1,-.1,-.1,-.1,-.1,-.1,-.1,-.1,-.1,-.1,-.1,-.1,-.1,-.1,-.1,-.1,0" class="s9_67">Does the regression line appear to be a suitable model </text>
<text x="569" y="521" class="s9_67">for the data?</text>
<text x="545" y="538" class="s9_67">(c) </text>
<text x="569" y="538" dx="0,-.1,-.1,-.1,-.1,-.6,-.1,-.1,-.1,-.1,-.6,-.1,-.1,-.1" class="s9_67">What does the </text>
<text x="649" y="538" class="sc_67">y</text>
<text x="655" y="538" dx="0,-.1,-.1,-.1,-.1,-.1,-.1,-.1,-.1,-.1,-.1,-.6,-.1,-.1,-.6,-.1,-.1,-.1,-.6,-.1,-.3,-.1,-.1,-.1,-.1,-.1,-.1,-.1,-.1,-.6,-.1,-.1,-.1,-.1,-.6,-.1,-.1,-.1,-.1,-.1,-.1,-.1,-.1,-.1" class="s9_67">-intercept of the regression line represent?</text>
<path d="M521.4,554h77.9v62.6H521.4Zm77.9,0h97.8v62.6H599.3Zm97.8,0h4.5v62.6h-4.5Zm4.5,0h78v62.6h-78Zm78,0h97.7v62.6H779.6Z" class="g5_67"/>
<path d="M599.3,616.2V554.4m0,80.9V617m97.8,18.3V617m4.5,18.3V617m78,18.3V617M599.3,653.7V635.3m97.8,18.4V635.3m4.5,18.4V635.3m78,18.4V635.3M599.3,672V653.7M697.1,672V653.7m4.5,18.3V653.7m78,18.3V653.7M599.3,690.3V672m97.8,18.3V672m4.5,18.3V672m78,18.3V672M599.3,711.3v-21m97.8,21v-21m4.5,21v-21m78,21v-21M697.1,616.2V554.4m4.5,61.8V554.4m78,61.8V554.4M521.4,635.3V617m355.9,18.3V617M521.4,653.7V635.3m355.9,18.4V635.3M521.4,672V653.7M877.3,672V653.7M521.4,690.3V672m355.9,18.3V672M521.4,711.3v-21m355.9,21v-21M521,711.7h78.3m0,0h97.8m0,0h4.5m0,0h78m0,0h98.1M521,554h78.3m-77.9,62.2V554.4m77.9,-.4h97.8m0,0h4.5m0,0h78m0,0h98.1m-.4,62.2V554.4M521,616.6h78.3m0,0h97.8m0,0h4.5m0,0h78m0,0h98.1" class="g6_67"/>
<text x="535" y="573" dx="0,-.1,-.1,-.1,-.1,-.1,-.1,-.1,0" class="s9_67">Asbestos </text>
<text x="536" y="590" dx="0,-.3,-.1,-.1,-.1,-.1,-.1,-.1,0" class="s9_67">exposure </text>
<text x="528" y="606" dx="0,-.1,-.1,-.1,-.1,-.1" class="s9_67">(Ibers</text>
<text x="562" y="606" class="sa_67">y</text>
<text x="569" y="606" dx="0,-.1,-.1" class="s9_67">mL)</text>
<text x="605" y="573" dx="0,-.1,-.1,-.1,-.1,-.1,-.1,-.1,-.1,-.1,-.1,-.1,-.1,-.1,-.1,0" class="s9_67">Percent of mice </text>
<text x="615" y="590" dx="0,-.1,-.1,-.1,-.1,-.1,-.1,-.5,-.3,-.1,-.1,-.1,0" class="s9_67">that develop </text>
<text x="615" y="606" dx="0,-.1,-.1,-.1,-.1,-.1,-.1,-.1,-.1,-.1,-.1" class="s9_67">lung tumors</text>
<text x="716" y="573" dx="0,-.1,-.1,-.1,-.1,-.1,-.1,-.1,0" class="s9_67">Asbestos </text>
<text x="716" y="590" dx="0,-.3,-.1,-.1,-.1,-.1,-.1,-.1,0" class="s9_67">exposure </text>
<text x="708" y="606" dx="0,-.1,-.1,-.1,-.1,-.1" class="s9_67">(Ibers</text>
<text x="742" y="606" class="sa_67">y</text>
<text x="749" y="606" dx="0,-.1,-.1" class="s9_67">mL)</text>
<text x="786" y="573" dx="0,-.1,-.1,-.1,-.1,-.1,-.1,-.1,-.1,-.1,-.1,-.1,-.1,-.1,-.1,0" class="s9_67">Percent of mice </text>
<text x="795" y="590" dx="0,-.1,-.1,-.1,-.1,-.1,-.1,-.5,-.3,-.1,-.1,-.1,0" class="s9_67">that develop </text>
<text x="796" y="606" dx="0,-.1,-.1,-.1,-.1,-.1,-.1,-.1,-.1,-.1,-.1" class="s9_67">lung tumors</text>
<text x="559" y="630" class="s9_67">50</text>
<text x="647" y="630" class="s9_67">2</text>
<text x="726" y="630" class="s9_67">1600</text>
<text x="821" y="630" class="s9_67">42</text>
<text x="552" y="649" class="s9_67">400</text>
<text x="647" y="649" class="s9_67">6</text>
<text x="726" y="649" class="s9_67">1800</text>
<text x="821" y="649" class="s9_67">37</text>
<text x="552" y="667" class="s9_67">500</text>
<text x="647" y="667" class="s9_67">5</text>
<text x="726" y="667" class="s9_67">2000</text>
<text x="821" y="667" class="s9_67">38</text>
<text x="552" y="685" class="s9_67">900</text>
<text x="640" y="685" class="s9_67">10</text>
<text x="726" y="685" class="s9_67">3000</text>
<text x="821" y="685" class="s9_67">50</text>
<text x="545" y="704" class="s9_67">1100</text>
<text x="640" y="704" class="s9_67">26</text>
<text x="521" y="736" class="s5_67">27. </text>
<text x="546" y="736" dx="0,0,0,0,0,0,0,0,0,0,0,0,0,-.3,0,0,0,-.1,0,0,0,0,0,-.3,-.2,0,0,0,0,0,0,0,0,0,0,0,0,0,0,0,0,0,0,0,0,0,0,0,0,0,0,0,0,0,0,0,0" class="s9_67">The table shows world average daily oil consumption from </text>
<text x="546" y="753" dx="0,0,0,0,0,0,0,0,0,0,0,0,0,0,0,0,0,0,0,0,0,0,0,0,0,0,0,0,0,0,0,0,0,0,0,0,0,0,0,0,0,0,0,0,0,0,0,0,0,0,0,0,0,-.9" class="s9_67">1985 to 2010 measured in thousands of barrels per day.</text>
<text x="546" y="770" class="s9_67">(a) </text>
<text x="569" y="770" dx="0,0,0,-.1,0,0,0,0,0,0,0,0,0,0,0,0,0,0,0,0,0,0,0,0,0,0,0,0,0,0,0,0,0,0,0,0,0,0,0,0,0,0,0,0,0,0,0,0,0,0,0,0,0,0" class="s9_67">Make a scatter plot and decide whether a linear model </text>
<text x="569" y="786" class="s9_67">is appropriate.</text>
<text x="546" y="803" class="s9_67">(b) </text>
<text x="569" y="803" dx="0,0,0,0,0,0,0,0,0,0,0,0,0,0,0,0,0,0,0,0,0,-.2,0,0,0,0,0,0,0,0,0,0,0,0,0" class="s9_67">Find and graph the regression line.</text>
<text x="546" y="820" class="s9_67">(c) </text>
<text x="569" y="820" class="s9_67">Use the linear model to estimate the oil consumption in </text>
<text x="569" y="837" class="s9_67">2002 and 2012.</text>
<path d="M583.3,851.5h99.9v44.3H583.3Zm99.9,0h133v44.3h-133Z" class="g5_67"/>
<path d="M582.9,851.5H683.2m-99.9,43.9V851.9m99.9,-.4H816.5M683.2,895.4V851.9m133,43.5V851.9M583.3,914.2v-18m232.9,18v-18M583.3,932.5V914.2m232.9,18.3V914.2M583.3,950.8V932.5m232.9,18.3V932.5M583.3,969.2V950.8m232.9,18.4V950.8M583.3,987.5V969.2m232.9,18.3V969.2m-133,-55v-18m0,36.3V914.2m0,36.6V932.5m0,36.7V950.8m0,36.7V969.2m0,39.3v-21m-99.9,21v-21m232.9,21v-21m-233.3,21.4H683.2m0,0H816.5M582.9,895.8H683.2m0,0H816.5" class="g6_67"/>
<text x="617" y="869" dx="0,-1.4,0,0,0,0" class="s9_67">Years </text>
<text x="603" y="886" class="s9_67">since 1985</text>
<text x="692" y="869" dx="0,0,0,0,0,0,0,0,0,0,0,0,0,0,0,0,0,0,0,0,1.3" class="s9_67">Thousands of barrels </text>
<text x="712" y="886" class="s9_67">of oil per day</text>
<text x="629" y="909" class="s9_67">0</text>
<text x="730" y="909" class="s9_67">60,083</text>
<text x="629" y="928" class="s9_67">5</text>
<text x="730" y="928" class="s9_67">66,533</text>
<text x="626" y="946" class="s9_67">10</text>
<text x="730" y="946" class="s9_67">70,099</text>
<text x="626" y="964" class="s9_67">15</text>
<text x="730" y="964" class="s9_67">76,784</text>
<text x="626" y="983" class="s9_67">20</text>
<text x="730" y="983" class="s9_67">84,077</text>
<text x="626" y="1001" class="s9_67">25</text>
<text x="730" y="1001" class="s9_67">87,302</text>
<text x="598" y="1024" dx="0,0,0,0,-.4,0,0,0" class="sd_67">Source: </text>
<text x="633" y="1024" dx="0,0,0,0,0,0,0,-.2,0,0,0,0,0,0,0,0,0,0,0,0,0,0,-.6,0,0,0,0,0,0,0,0,0,0,0,0,0" class="se_67">US Energy ±nformation Administration</text>
<text x="502" y="109" class="sb_67">;</text>
<text x="502" y="422" class="sb_67">;</text>
<text x="502" y="738" class="sb_67">;</text>
<text x="121" y="1076" class="sf_67">Copyright 2016 Cengage Learning. All Rights Reserved. May not be copied, scanned, or duplicated, in whole or in part. Due to electronic rights, some third party content may be suppressed from the eBook and/or eChapter(s).</text>
<text x="106" y="1087" class="sf_67">Editorial review has deemed that any suppressed content does not materially affect the overall learning experience. Cengage Learning reserves the right to remove additional content at any time if subsequent rights restrictions require it.</text>

</g>

<!-- Any embedded fonts defined here -->
<style type="text/css" ><![CDATA[

@font-face {
	font-family: BeaconDingbatsTypeOne_12w;
	src: url("fonts/BeaconDingbatsTypeOne_12w.woff") format("woff");
}

@font-face {
	font-family: MathematicalPiLTStd-3_ry;
	src: url("fonts/MathematicalPiLTStd-3_ry.woff") format("woff");
}

@font-face {
	font-family: MyriadPro-BoldSemiCn_90;
	src: url("fonts/MyriadPro-BoldSemiCn_90.woff") format("woff");
}

@font-face {
	font-family: MyriadPro-Regular_4i;
	src: url("fonts/MyriadPro-Regular_4i.woff") format("woff");
}

@font-face {
	font-family: MyriadPro-Semibold_49;
	src: url("fonts/MyriadPro-Semibold_49.woff") format("woff");
}

@font-face {
	font-family: TECHMath-Mix_16e;
	src: url("fonts/TECHMath-Mix_16e.woff") format("woff");
}

@font-face {
	font-family: TECHMath-Mix_187;
	src: url("fonts/TECHMath-Mix_187.woff") format("woff");
}

@font-face {
	font-family: TECHMath-Mix_19t;
	src: url("fonts/TECHMath-Mix_19t.woff") format("woff");
}

@font-face {
	font-family: Times-Roman_4n;
	src: url("fonts/Times-Roman_4n.woff") format("woff");
}

@font-face {
	font-family: TimesLTStd-Italic_o3;
	src: url("fonts/TimesLTStd-Italic_o3.woff") format("woff");
}

@font-face {
	font-family: TimesLTStd-Roman_143;
	src: url("fonts/TimesLTStd-Roman_143.woff") format("woff");
}

]]></style>

</svg>
