<?xml version="1.0" encoding="UTF-8" standalone="no"?>
<!DOCTYPE svg PUBLIC "-//W3C//DTD SVG 1.1//EN"
"http://www.w3.org/Graphics/SVG/1.1/DTD/svg11.dtd">


<!-- Page 68 -->
<svg x="0" y="0" width="931" height="1096" viewBox="0 0 931 1096" version="1.1" xmlns="http://www.w3.org/2000/svg" xmlns:xlink="http://www.w3.org/1999/xlink"
style="display: block;margin-left: auto;margin-right: auto;">
<defs>
<clipPath id="c_68"><path d="M0,0H931V1096H0Z"/></clipPath>
<style type="text/css"><![CDATA[
text { white-space: pre; }
path, image { pointer-events: none; }

.s1_68{
font-size: 15.28px;
font-family: MyriadPro-Semibold_49;
fill: #231F20;
}
.s2_68{
font-size: 12.22px;
font-family: MyriadPro-Semibold_49;
fill: #231F20;
}
.s3_68{
font-size: 13.75px;
font-family: MyriadPro-Semibold_49;
fill: #231F20;
}
.s4_68{
font-size: 12.22px;
font-family: MyriadPro-Regular_4i;
fill: #231F20;
}
.s5_68{
font-size: 13.75px;
font-family: MyriadPro-BoldSemiCn_90;
fill: #231F20;
}
.s6_68{
font-size: 13.75px;
font-family: TimesLTStd-Roman_143;
fill: #231F20;
}
.s7_68{
font-size: 13.75px;
font-family: MathematicalPiLTStd-3_ry;
fill: #231F20;
}
.s8_68{
font-size: 10.69px;
font-family: TimesLTStd-Italic_o3;
fill: #231F20;
}
.s9_68{
font-size: 10.69px;
font-family: TimesLTStd-Roman_143;
fill: #231F20;
}
.sa_68{
font-size: 13.75px;
font-family: TimesLTStd-Italic_o3;
fill: #231F20;
}
.sb_68{
font-size: 13.75px;
font-family: MathematicalPiLTStd-5_vb;
fill: #231F20;
}
.sc_68{
font-size: 8.25px;
font-family: MathematicalPiLTStd-1_rr;
fill: #231F20;
}
.sd_68{
font-size: 8.25px;
font-family: TimesLTStd-Roman_143;
fill: #231F20;
}
.se_68{
font-size: 13.75px;
font-family: BeaconDingbatsTypeOne_12w;
fill: #EC008C;
}
.sf_68{
font-size: 15.28px;
font-family: TimesLTStd-Roman_143;
fill: #231F20;
}
.sg_68{
font-size: 16.81px;
font-family: MyriadPro-Semibold_49;
fill: #231F20;
}
.sh_68{
font-size: 15.28px;
font-family: TimesLTStd-Bold_oh;
fill: #231F20;
}
.si_68{
font-size: 15.28px;
font-family: TimesLTStd-Italic_o3;
fill: #231F20;
}
.sj_68{
font-size: 15.28px;
font-family: MathematicalPiLTStd-5_vb;
fill: #231F20;
}
.sk_68{
font-size: 15.28px;
font-family: MathematicalPiLTStd-3_ry;
fill: #231F20;
}
.sl_68{
font-size: 15.28px;
font-family: MathematicalPiLTStd-1_rr;
fill: #231F20;
}
.sm_68{
font-size: 7.64px;
font-family: Times-Roman_4n;
fill: #000000;
}

.g0_68{
fill: #E2F4FC;
}
.g1_68{
fill: none;
stroke: #231F20;
stroke-width: 0.763;
stroke-linecap: butt;
stroke-linejoin: miter;
}
.g2_68{
fill: #CC017A;
}

]]></style>

</defs>
<g clip-path="url(#c_68)">
<path d="M0,0
L0,1096
L931,1096
L931,0 Z " 
fill="#FFFFFF" stroke="none"/>
<text x="53" y="67" class="s1_68">36</text>
<text x="126" y="67" dx="0,.2,.2,.2,.2,.2,.2,.1" class="s2_68">CHAPTER </text>
<text x="180" y="67" class="s3_68">1</text>
<text x="200" y="67" dx="0,-.3,.1,.1,.3,.1,.1,.1,.1,.1,.1,.1,.1,.1,.1,.2,.1,.1,.1,.1" class="s4_68">Functions and Models</text>
<text x="72" y="107" class="s5_68">28. </text>
<text x="97" y="107" dx="0,0,0,0,0,0,0,0,0,0,0,0,0,-.3,0,0,0,-.3,-.2,0,0,0,0,0,0,0,0,0,0,0,0,0,0,0,0,0,0,0,0,0,0,0,0,0,0,0,0,0,0,0,0,0,0,0,0,0" class="s6_68">The table shows average US retail residential prices of </text>
<text x="97" y="124" class="s6_68">electricity from 2000 to 2012, measured in cents per </text>
<text x="97" y="141" dx="0,0,0,0,-.3,-.1,0,0,0,0,0,0,0,-.8" class="s6_68">kilowatt hour.</text>
<text x="97" y="158" class="s6_68">(a) </text>
<text x="119" y="158" dx="0,0,0,-.1,0,0,0,0,0,0,0,0,0,0,0,0,0,0,0,0,0,0,0,0,0,0,0,0,0,0,0,0,0,0,0,0,0,0,0,0,0,0,0,0,0,0,0,0,0,0,0" class="s6_68">Make a scatter plot. ±s a linear model appropriate?</text>
<text x="97" y="175" class="s6_68">(b) </text>
<text x="119" y="175" dx="0,0,0,0,0,0,0,0,0,0,0,0,0,0,0,0,0,0,0,0,0,-.2,0,0,0,0,0,0,0,0,0,0,0,0,0" class="s6_68">Find and graph the regression line.</text>
<text x="97" y="191" class="s6_68">(c) </text>
<text x="119" y="191" class="s6_68">Use your linear model from part (b) to estimate the </text>
<text x="119" y="208" dx="0,-.3,-.2,0,0,0,0,0,0,0,0,0,0,0,0,0,0,0,0,0,0,0,0,0,0,0,0,0,0,0,0,0,0,0,0,0,0,0,0,0,0,0,0,0,0,0,0,0,0,0,0,0,0" class="s6_68">average retail price of electricity in 2005 and 2013.</text>
<path d="M140.6,224.4h110v27.5h-110Zm110,0h110v27.5h-110Z" class="g0_68"/>
<path d="M250.6,251.5V224.8m-110.4,-.4H250.6m0,0H361M140.6,251.5V224.8m220,26.7V224.8m-110,45.4V252.3m0,36.2V270.2m0,36.7V288.5m0,36.7V306.9m0,36.6V325.2m0,36.7V343.5m0,39.2V361.9m-110,-91.7V252.3m220,17.9V252.3m-220,36.2V270.2m220,18.3V270.2m-220,36.7V288.5m220,18.4V288.5m-220,36.7V306.9m220,18.3V306.9m-220,36.6V325.2m220,18.3V325.2m-220,36.7V343.5m220,18.4V343.5m-220,39.2V361.9m220,20.8V361.9M140.2,383.1H250.6m0,0H361M140.2,251.9H250.6m0,0H361" class="g1_68"/>
<text x="149" y="242" dx="0,-1.5,-.1,-.1,-.1,-.1,-.1,-.1,-.1,-.1,-.1,-.1,-.1,-.1,-.1,-.1" class="s6_68">Years since 2000</text>
<text x="272" y="243" class="s6_68">Cents</text>
<text x="304" y="243" class="s7_68">y</text>
<text x="310" y="243" dx="0,0,.8" class="s6_68">kWh</text>
<text x="193" y="265" class="s6_68">0</text>
<text x="286" y="265" class="s6_68">8.24</text>
<text x="193" y="284" class="s6_68">2</text>
<text x="286" y="284" class="s6_68">8.44</text>
<text x="193" y="302" class="s6_68">4</text>
<text x="286" y="302" class="s6_68">8.95</text>
<text x="193" y="320" class="s6_68">6</text>
<text x="279" y="320" class="s6_68">10.40</text>
<text x="193" y="339" class="s6_68">8</text>
<text x="279" y="339" class="s6_68">11.26</text>
<text x="186" y="357" class="s6_68">10</text>
<text x="279" y="357" class="s6_68">11.54</text>
<text x="186" y="375" class="s6_68">12</text>
<text x="279" y="375" class="s6_68">11.58</text>
<text x="148" y="400" dx="0,0,0,0,-.4,0,0,0" class="s8_68">Source: </text>
<text x="184" y="400" dx="0,0,0,0,0,0,0,-.2,0,0,0,0,0,0,0,0,0,0,0,0,0,0,-.6,0,0,0,0,0,0,0,0,0,0,0,0,0" class="s9_68">US Energy ±nformation Administration</text>
<text x="72" y="426" dx="0,-.1,-.1" class="s5_68">29.</text>
<text x="97" y="426" dx="0,-.1,-.1,-.3,-.1,-.1,-.1,-.2,-.1,-.1,-.1,-.1,-.1,-.1,-.1,-.1,-.1,-.1,-.1,-.1,-.1,-.1,-.1,-.1,-.1,-.1,-.1,-.1,-.1,-.1,-.1,-.1,-.1,-.1,-.1,-.1,-.1,-.1,-.1,-.1,-.1" class="s6_68">Many physical quantities are connected by</text>
<text x="329" y="426" dx="0,-.1,-.7,-.1,-.1,-.3,-.1,-.1,-.1,-.1,-.1,-.1,-.1,-.6,0" class="sa_68">inverse square </text>
<text x="97" y="443" dx="0,-.1,-.1,-.1" class="sa_68">laws</text>
<text x="121" y="443" dx="0,-.1,-.1,-.1,-.1,-.1,-.1,-.1,-.1,-.1,-.1,-.1,-.1,-.1,-.1,-.1,-.5,-.1,-.1,-.1,-.1,-.1,-.1,-.1,-.1,-.1,-.1,-.1,-.1,-.1,-.1,-.1,-.1,-.1,-.1,-.1,-.1,-.1,-.1,-.1,-.1,-.1" class="s6_68">, that is, by power functions of the form </text>
<text x="339" y="443" class="sa_68">f</text>
<text x="345" y="443" class="s7_68">s</text>
<text x="350" y="443" class="sa_68">x</text>
<text x="356" y="443" class="s7_68">d</text>
<text x="365" y="443" class="sb_68">-</text>
<text x="381" y="443" dx="0,.7" class="sa_68">kx</text>
<text x="394" y="437" class="sc_68">2</text>
<text x="401" y="437" class="sd_68">2</text>
<text x="405" y="443" class="s6_68">. </text>
<text x="97" y="459" dx="0,-.1,-.1,-.1,-.1,-.1,-.1,-.1,-.1,-.1,-.1,-.1,-.1,-.7,-.1,-.1,-.1,-.1,-.1,-.1,-.1,-.1,-.1,-.1,-.1,-.1,-.1,-.1,-.1,-.1,-.1,-.1,-.1,-.1,-.1,-.1,-.1,-.1,-.1,-.1,-.1,-.1,-.1,-.1,-.1,-.1,-.1,-.1,-.1,-.1,-.1,-.1,-.1,-.1,-.1,-.1,-.1,-.1,-.1,-.1,-.1,-.1,0" class="s6_68">±n particular, the illumination of an object by a light source </text>
<text x="97" y="476" dx="0,-.1,-.1,-.1,-.1,-.7,-.3,-.1,-.1,-.1,-.1,-.1,-.1,-.1,-.1,-.1,-.1,-.1,-.1,-.1,-.1,-.1,-.1,-.1,-.1,-.1,-.1,-.1,-.1,-.1,-.1,-.1,-.1,-.1,-.1,-.1,-.1,-.1,-.1,-.1,-.1,-.1,-.1,-.1,-.1,-.1,-.1,-.1,-.1,-.1,-.1,-.1,-.1,-.1,-.1,-.1,-.1,-.1,-.1,-.1,0" class="s6_68">is inversely proportional to the square of the distance from </text>
<text x="97" y="493" dx="0,-.1,-.1,-.1,-.1,-.1,-.1,-.1,-.1,-.1,-.1,-.1,-.1,-.1,-.1,-.1,-.1,-.1,-.1,-.1,-.1,-.1,-.1,-.1,-.1,-.1,-.1,-.1,-.1,-.1,-.1,-.1,-.1,-.1,-.1,-.1,-.1,-.1,-.1,-.1,-.1,-.1,-.1,-.1,-.1,-.1,-.1,-.1,-.1,-.1,-.1,-.1,-.1,-.1,-.1,-.1,-.1,-.1,0" class="s6_68">the source. Suppose that after dark you are in a room with </text>
<text x="97" y="510" dx="0,-.1,-.1,-.1,-.1,-.1,-.1,-.1,-.1,-.1,-.1,-.1,-.1,-.1,-.1,-.1,-.1,-.1,-.1,-.1,-.1,-.1,-.1,-.1,-.1,-.1,-.1,-.1,-.1,-.1,-.1,-.1,-.1,-.1,-.1,-.1,-.1,-.1,-.1,-.1,-.1,-.1,-.1,-.1,-.1,-.1,-.1,-.1,-.1,-.4,-.1,-.1,-.1,-.1,-.1,-.1,-.1,-.1,-.1,-.1,-.1,0" class="s6_68">just one lamp and you are trying to read a book. The light is </text>
<text x="97" y="527" dx="0,-.1,-.1,-.1,-.1,-.1,-.1,-.1,-.1,-.1,-.1,-.1,-.1,-.1,-.1,-.1,-.1,-.1,-.1,-.1,-.1,-.3,-.3,-.1,-.1,-.1,-.1,-.1,-.1,-.3,-.1,-.1,-.1,-.1,-.1,-.1,-.1,-.1,-.1,-.1,-.1,-.1,-.1,-.1,-.1,-.1,-.1,-.5,-.1,-.1,-.1,-.1,-.1,0" class="s6_68">too dim and so you move halfway to the lamp. How much </text>
<text x="97" y="543" dx="0,-.1,-.1,-.1,-.1,-.1,-.1,-.1,-.1,-.1,-.1,-.1,-.1,-.1,-.1,-.1,-.1,-.1,-.1,-.1,-.1,-.1" class="s6_68">brighter is the light?</text>
<text x="72" y="568" class="s5_68">30. </text>
<text x="97" y="568" dx="0,0,0,0,0,0,-.1,0,0,0,0,0,0,0,0,0,0,0,0,0,0,0,0,0,0,0,0,-.2,0,0,0,0,0,0,0,0,0,0,0,0,0,0,0,0,0,0,0,-.2,0,0,0,0,0,0,0,0,0,0,0,0,-.2,0,0,0" class="s6_68">±t makes sense that the larger the area of a region, the larger </text>
<text x="97" y="585" dx="0,0,0,0,0,0,0,0,0,0,0,0,0,0,0,0,0,0,0,0,0,0,0,0,0,0,0,0,0,0,0,0,0,0,0,0,0,0,0,0,0,-.2,0,0,0,0,0,0,0,0,-.2,0,0,0,0,0,0,0" class="s6_68">the number of species that inhabit the region. Many ecolo-</text>
<text x="97" y="601" dx="0,0,0,0,0,0,0,0,-.3,-.2,0,0,0,0,0,0,0,0,0,0,0,0,0,0,0,0,0,0,0,0,0,0,0,0,0,0,0,0,0,0,0,0,0,0,0,0,0,0,0,0,0,0,0,0,-.3,0,0,0" class="s6_68">gists have modeled the species-area relation with a power </text>
<text x="97" y="618" dx="0,0,0,0,0,0,0,0,0,0,0,0,0,0,0,0,0,0,0,0,0,0,0,0,0,0,0,-.5,0,0,0,0,0,0,0,0,0,0,0,0,0,0,0,0,0,0,0,0,0,0,0" class="s6_68">function and, in particular, the number of species </text>
<text x="369" y="618" class="sa_68">S</text>
<text x="380" y="618" class="s6_68">of bats </text>
<text x="97" y="635" dx="0,0,-.3,0,0,0,0,0,0,0,0,0,-.3,-.2,0,0,0,0,0,0,0,0,0,0,0,0,0,0,0,-.2,0,0,0,0,0,0,0,0,0,0,0,0,0,0,0,0,0,0,0,0,0,0,0,0,0,0,0,0" class="s6_68">living in caves in central Mexico has been related to the </text>
<text x="97" y="652" dx="0,0,0,0,-.1,0,0,0,0,0,0,0,0" class="s6_68">surface area </text>
<text x="167" y="652" class="sa_68">A</text>
<text x="178" y="652" dx="0,0,0,0,0,0,0,0,0,-.3,-.2,0,0,0,0,0,0,0,0,0,0,0,0,0,0,0,0,0,0" class="s6_68">of the caves by the equation </text>
<text x="335" y="652" class="sa_68">S</text>
<text x="346" y="652" class="sb_68">-</text>
<text x="362" y="652" class="s6_68">0.7</text>
<text x="379" y="652" class="sa_68">A</text>
<text x="387" y="646" class="sd_68">0.3</text>
<text x="398" y="652" class="s6_68">.</text>
<text x="97" y="669" class="s6_68">(a) </text>
<text x="119" y="669" dx="0,0,0,0,0,0,-.3,-.2,0,0,0,0,0,0,0,0" class="s6_68">The cave called </text>
<text x="209" y="669" class="sa_68">Misión Imposible</text>
<text x="308" y="669" class="s6_68">near Puebla, </text>
<text x="119" y="685" dx="0,0,-.2,0,0,0,0,0,0,0,0,0,0,0,0,0,0,0,-.1,0,0,0,0,0,0,0,0,0,0,0" class="s6_68">Mexico, has a surface area of </text>
<text x="284" y="685" class="sa_68">A</text>
<text x="297" y="685" class="sb_68">-</text>
<text x="312" y="685" class="s6_68">60 m</text>
<text x="340" y="680" class="sd_68">2</text>
<text x="344" y="685" dx="0,0,0,0,-.3,0,0,0,0,-.2,0" class="s6_68">. How many </text>
<text x="119" y="702" dx="0,0,0,0,0,0,0,0,0,0,0,0,0,0,0,0,0,-.1,0,0,0,0,0,0,0,0,0,-.2,0,0,0,0,0,0,0,0,0,0,0,0,0,0,0,0,0,0,0,0,0,0,-.3,-.2,0" class="s6_68">species of bats would you expect to Ind in that cave?</text>
<text x="97" y="719" class="s6_68">(b) </text>
<text x="119" y="719" dx="0,0,0,0,0,0,0,0,0,0,0,0,-.2,-.2,0,0,0,0,0,0,0,0,0,0,0,0,0,0,0,0,0,0,0,0,0,0,0,0,0,0,0,0,0,0,-.3,-.2,0,0,0,0,0,0,0,0,-.3,-.2,0,0" class="s6_68">±f you discover that four species of bats live in a cave, </text>
<text x="119" y="736" dx="0,0,0,0,0,0,0,0,0,0,0,0,0,0,0,0,0,0,0,0,0,0,0,0,0,0,0,-.3,-.2,0" class="s6_68">estimate the area of the cave.</text>
<text x="53" y="109" class="se_68">;</text>
<text x="466" y="107" class="s5_68">31. </text>
<text x="491" y="107" dx="0,-.1,0,0,0,0,0,0,0,0,0,0,0,-.3,0,0,0,0,0,0,0,0,0,0,0,0,0" class="s6_68">The table shows the number </text>
<text x="649" y="107" class="sa_68">N</text>
<text x="662" y="107" class="s6_68">of species of reptiles and </text>
<text x="491" y="124" class="s6_68">amphibians inhabiting Caribbean islands and the area </text>
<text x="789" y="124" class="sa_68">A</text>
<text x="801" y="124" class="s6_68">of </text>
<text x="491" y="141" class="s6_68">the island in square miles.</text>
<text x="491" y="158" class="s6_68">(a) </text>
<text x="514" y="158" dx="0,0,0,0,0,0,0,0,-.3,0,0,0,0,0,0,0,0,0,0,0,0,0,0,0,0,0,0,0,0,0" class="s6_68">Use a power function to model </text>
<text x="687" y="158" class="sa_68">N</text>
<text x="700" y="158" class="s6_68">as a function of </text>
<text x="789" y="158" class="sa_68">A</text>
<text x="798" y="158" class="s6_68">.</text>
<text x="491" y="175" dx="0,.1,.1,.1" class="s6_68">(b) </text>
<text x="514" y="175" dx="0,.1,.1,.1,.1,.1,.1,.1,.1,.1,.1,.1,.1,.1,.1,.1,.1,.1,.1,.1,.1,.1,.1,.1,.1,.1,.1,.1,.1,.1,.1,.1,.1,.1,.1,.1,.1,.1,.1,.1,.1,.1,.2,0,0,0,0,0" class="s6_68">The Caribbean island of Dominica has area 291 mi</text>
<text x="800" y="169" class="sd_68">2</text>
<text x="804" y="175" class="s6_68">. </text>
<text x="514" y="191" dx="0,.1,-.2,.1,.1,.1,.1,-.1,.1,.1,.1,.1,.1,.1,.1,.1,.1,.1,.1,.1,.1,.1,.1,.1,.1,.1,.1,.1,.1,.1,.1,.1,.1,.1,.1,.1,.1,.1,.1,.1,.1,.1,.1,.1,.1,0,.1,.1,.1,0" class="s6_68">How many species of reptiles and amphibians would </text>
<text x="514" y="208" dx="0,.1,.1,.1,.1,-.1,.1,.1,.1,.1,.1,.1,.1,.1,.1,.1,.1,.1,.1,.1,.1,.1,.1,.1,.1,.1,.1,.1,.1,.1" class="s6_68">you expect to Ind on Dominica?</text>
<path d="M521,224.4H621.8v27.5H521Zm100.8,0h73.4v27.5H621.8Zm73.4,0h73.3v27.5H695.2Z" class="g0_68"/>
<path d="M621.8,270.6V252.3m73.4,18.3V252.3m-73.4,36.6V270.6m73.4,18.3V270.6m-73.4,36.7V288.9m73.4,18.4V288.9m-73.4,36.7V307.3m73.4,18.3V307.3m-73.4,36.6V325.6m73.4,18.3V325.6m0,39.3v-21M621.8,251.5V224.8m73.4,26.7V224.8M521,270.6V252.3m247.5,18.3V252.3M521,288.9V270.6m247.5,18.3V270.6M521,307.3V288.9m247.5,18.4V288.9M521,325.6V307.3m247.5,18.3V307.3M521,343.9V325.6m247.5,18.3V325.6m0,39.3v-21M621.8,365.3h73.4m0,0h73.7M520.6,224.4H621.8m0,0h73.4m0,0h73.7M520.6,251.9H621.8m0,0h73.4m0,0h73.7M521,251.5V224.8m247.5,26.7V224.8M521,364.9v-21m100.8,21v-21M520.6,365.3H621.8" class="g1_68"/>
<text x="554" y="242" class="s6_68">±sland</text>
<text x="654" y="242" class="sa_68">A</text>
<text x="727" y="242" class="sa_68">N</text>
<text x="539" y="266" class="s6_68">Saba</text>
<text x="669" y="266" class="s6_68">4</text>
<text x="732" y="266" class="s6_68">5</text>
<text x="539" y="284" class="s6_68">Monserrat</text>
<text x="663" y="284" class="s6_68">40</text>
<text x="732" y="284" class="s6_68">9</text>
<text x="539" y="302" class="s6_68">Puerto Rico</text>
<text x="645" y="302" class="s6_68">3,459</text>
<text x="725" y="302" class="s6_68">40</text>
<text x="539" y="321" class="s6_68">Jamaica</text>
<text x="645" y="321" class="s6_68">4,411</text>
<text x="725" y="321" class="s6_68">39</text>
<text x="539" y="339" class="s6_68">Hispaniola</text>
<text x="639" y="339" class="s6_68">29,418</text>
<text x="725" y="339" class="s6_68">84</text>
<text x="539" y="357" class="s6_68">Cuba</text>
<text x="638" y="357" class="s6_68">44,218</text>
<text x="726" y="357" class="s6_68">76</text>
<text x="466" y="394" class="s5_68">32. </text>
<text x="491" y="394" dx="0,-.1,0,0,0,0,0,0,0,0,0,0,0,-.3,0,0,0,0,0,0,0,0,0,0,0,0,0,-.3,-.2,0,0,0,0,0,0,0,0,0,0,0,0,0,0,0,0" class="s6_68">The table shows the mean (average) distances </text>
<text x="745" y="394" class="sa_68">d</text>
<text x="756" y="394" class="s6_68">of the </text>
<text x="491" y="411" class="s6_68">planets from the sun (taking the unit of measurement to be </text>
<text x="491" y="428" class="s6_68">the distance from the earth to the sun) and their periods </text>
<text x="798" y="428" class="sa_68">T</text>
<text x="491" y="445" dx="0,0,0,0,0,0,0,0,0,0,0,-.3,-.3,0,0,0,0,0,0,0,0,0,0,0,0,0,0,0,0,0" class="s6_68">(time of revolution in years).</text>
<text x="491" y="461" dx="0,0,0,0,4.2,0,0,0,0,0,0,0,-.3,0,0,0,0,0,0,0,0,0,0,0,0,0,0,0,0,0,0,0,0,0" class="s6_68">(a) Fit a power model to the data.</text>
<text x="491" y="478" dx="0,.1,.1,.1" class="s6_68">(b) </text>
<text x="514" y="478" dx="0,-.2,.1,.1,.1,.1,.1,-.6,.1,-.1,.1,.1,.1,.1,.1,.1,.1,-.1,.1,.1,.1,.1,.1,.1,.1,.1,.1,.1,.1,.1,.1,.1,.1,.1,.1,.1,.1,.1,.1,.1,.1,.1,.1,.1,.1,.1,.1,.1,.1,.1,0" class="s6_68">Kepler’s Third Law of Planetary Motion states that </text>
<text x="514" y="495" dx="0,1.5,.1,.1,.1,.1,.1,.1,.1,.1,.1,.1,.1,.1,.1,.1,.1,.1,.1,.1,.1,.1,.1,.1,.1,.1,.1,.1,.1,.1,.1,-.2,-.1,.1,.1,.1,.1,.1,.1,.1,.1,.1,.1,.1,.1,.1,.1,.1,.1,.1,.1,0" class="s6_68">“The square of the period of revolution of a planet </text>
<text x="514" y="512" dx="0,.1,.1,.1,.1,.1,.1,.1,.1,.1,.1,.1,.1,.1,.1,.1,.1,.1,.1,.1,.1,.1,.1,.1,.1,.1,.1,.1,.1,.1,.1,.1,.1,.1,.1,.1,.1,.1,.1,.1,.1,.1,.1,.1,.1,.1,.1,.1,.1,.1,.1,.1,.1,0" class="s6_68">is proportional to the cube of its mean distance from </text>
<text x="514" y="529" dx="0,.1,.1,.1,.1,.1,.1,.1,-.8,0" class="s6_68">the sun.” </text>
<text x="514" y="545" dx="0,.1,.1,.1,.1,.1,.1,.1,.1,.1,.1,.1,.1,.1,.1,.1,.1,.1,.1,.1,.1,.1,.1,.1,.1,.1,.1,.1,.1,-.2,.1,.1,.1,.1,.1,-.6,.1,-.1,.1,.1,.1,.1,.1,.1,.1,-.1,.1" class="s6_68">Does your model corroborate Kepler’s Third Law?</text>
<path d="M521.8,561.6h99.3v27.5H521.8Zm99.3,0h73.3v27.5H621.1Zm73.3,0h73.3v27.5H694.4Z" class="g0_68"/>
<path d="M621.1,588.7V562m73.3,26.7V562M621.1,738.8v-21m73.3,21v-21M521.8,607.8V589.5m99.3,18.3V589.5m73.3,18.3V589.5m73.3,18.3V589.5M521.8,626.2V607.8m99.3,18.4V607.8m73.3,18.4V607.8m73.3,18.4V607.8M521.8,644.5V626.2m99.3,18.3V626.2m73.3,18.3V626.2m73.3,18.3V626.2M521.8,662.8V644.5m99.3,18.3V644.5m73.3,18.3V644.5m73.3,18.3V644.5M521.8,681.2V662.8m99.3,18.4V662.8m73.3,18.4V662.8m73.3,18.4V662.8M521.8,699.5V681.2m99.3,18.3V681.2m73.3,18.3V681.2m73.3,18.3V681.2M521.8,717.8V699.5m99.3,18.3V699.5m73.3,18.3V699.5m73.3,18.3V699.5M521.8,738.8v-21m245.9,21v-21M521.4,739.2h99.7m0,0h73.3m0,0h73.7M521.4,561.6h99.7m0,0h73.3m0,0h73.7M521.4,589.1h99.7m0,0h73.3m0,0h73.7m-246.3,-.4V562m245.9,26.7V562" class="g1_68"/>
<text x="554" y="580" class="s6_68">Planet</text>
<text x="654" y="580" class="sa_68">d</text>
<text x="726" y="580" class="sa_68">T</text>
<text x="540" y="603" class="s6_68">Mercury</text>
<text x="646" y="603" class="s6_68">0.387</text>
<text x="719" y="603" class="s6_68">0.241</text>
<text x="540" y="621" dx="0,-1.5,0,0,0" class="s6_68">Venus</text>
<text x="646" y="621" class="s6_68">0.723</text>
<text x="719" y="621" class="s6_68">0.615</text>
<text x="540" y="640" class="s6_68">Earth</text>
<text x="646" y="640" class="s6_68">1.000</text>
<text x="719" y="640" class="s6_68">1.000</text>
<text x="540" y="658" class="s6_68">Mars</text>
<text x="646" y="658" class="s6_68">1.523</text>
<text x="719" y="658" class="s6_68">1.881</text>
<text x="540" y="676" class="s6_68">Jupiter</text>
<text x="646" y="676" class="s6_68">5.203</text>
<text x="713" y="676" class="s6_68">11.861</text>
<text x="540" y="695" class="s6_68">Saturn</text>
<text x="646" y="695" class="s6_68">9.541</text>
<text x="713" y="695" class="s6_68">29.457</text>
<text x="540" y="713" class="s6_68">Uranus</text>
<text x="639" y="713" class="s6_68">19.190</text>
<text x="713" y="713" class="s6_68">84.008</text>
<text x="540" y="731" class="s6_68">Neptune</text>
<text x="639" y="731" class="s6_68">30.086</text>
<text x="706" y="731" class="s6_68">164.784</text>
<text x="447" y="109" class="se_68">;</text>
<text x="447" y="396" class="se_68">;</text>
<image preserveAspectRatio="none" x="52" y="793" width="773" height="33" xlink:href="68/img/1.png"/>
<text x="287" y="848" dx="0,0,0,.6,0,0,0,0,.6,0,0,0,0,0,0,0,.6,0,0,.6,0,0,0,0,0,.6,0,0,0,0,.6,0,0,0,.6,0,0,0,0,0,.6,0,0,0,0,0,0,0,0,0,.6,0,0,.6,0,0,0,0,0,0,0,0,0,.6,0,0,.6,0,0,0,0,0,0,0,.6,0,0,0,.6,0,0,0,.6,0,0,0,0,0,0" class="sf_68">±n this section we start with the basic functions we discussed in Section 1.2 and obtain </text>
<text x="287" y="866" dx="0,-.1,-.5,-.1,1.1,-.1,-.1,-.1,-.1,-.1,-.1,-.1,-.1,-.1,1.1,-.1,-.1,1.1,-.1,-.1,-.1,-.1,-.1,-.1,-.1,-.1,-.1,1.1,-.1,-.1,-.1,-.1,-.1,-.1,-.1,-.1,-.1,-.1,-.1,1.1,-.1,-.1,-.1,1.1,-.1,-.1,-.1,-.1,-.1,-.1,-.1,-.1,-.1,1.1,-.1,-.1,-.1,-.1,-.1,1.1,-.1,-.1,-.1,-.1,-.1,-.1,-.1,.6,-1.3,-.1,1.1,-.1,-.1,-.1,-.1,1.1,-.1,-.1,-.5,-.1,1.1,-.1,-.5,-.1,1.1,-.1,0" class="sf_68">new functions by shifting, stretching, and re²ecting their graphs. We also show how to </text>
<text x="287" y="884" dx="0,-.1,-.1,-.1,-.1,-.1,-.1,-.1,-.1,-.1,-.1,-.1,-.1,-.1,-.1,-.1,-.1,-.1,-.1,-.1,-.1,-.1,-.1,-.1,-.1,-.1,-.1,-.1,-.1,-.1,-.1,-.1,-.1,-.1,-.1,-.1,-.1,-.1,-.1,-.1,-.1,-.1,-.1,-.1,-.1,-.1,-.1,-.1,-.1,-.1,-.1,-.1,-.1,-.1,-.1,-.1,-.1,-.1,-.1,-.1,-.1,-.1,-.1,-.1,-.1,-.1,-.1,-.1,-.1,-.1,-.1,-.1,-.1,-.1,-.1,-.1,-.1,-.1,-.1,-.1,-.1,-.1,-.1,-.1" class="sf_68">combine pairs of functions by the standard arithmetic operations and by composition.</text>
<path d="M288.8,910.8c0,0,-1.6,0,-1.6,1.6v9.1c0,0,0,1.6,1.6,1.6h9.1c0,0,1.6,0,1.6,-1.6v-9.1c0,0,0,-1.6,-1.6,-1.6Z" class="g2_68"/>
<text x="306" y="923" dx="0,-.8,-.2,0,0,0,-.2,0,0,0,-.1,0,0,0,0,0,0,0,0,0,-.5,0,0,.3,0,0,0,0" class="sg_68">Transformations of Functions</text>
<text x="287" y="945" dx="0,0,0,2.4,0,0,0,0,0,0,0,0,2.4,0,0,0,0,0,0,0,2.4,0,0,0,0,0,0,0,0,0,0,0,0,0,0,0,2.4,0,0,2.4,0,0,0,2.4,0,0,0,0,0,2.4,0,0,2.4,0,2.4,0,-.4,-.2,0,0,2.4,0,0,0,0,0,0,0,0,2.4,0,0,2.4,0,0,0,2.4,0,0,0,0,0,0" class="sf_68">By applying certain transformations to the graph of a given function we can obtain </text>
<text x="287" y="964" dx="0,0,0,0,2.3,0,0,0,0,0,0,2.3,0,0,2.3,0,0,0,0,0,0,0,2.3,0,0,0,0,0,0,0,0,0,0,2,0,0,0,0,2.3,0,0,0,0,2.3,0,-.4,-.2,0,2.3,0,0,2.3,0,0,0,2.3,0,0,0,0,0,0,0,2.3,0,0,2.3,0,-.2,0,0,0,0,2.3,0,0,0,2.3,0,0,0,0,0,0,2.3,0,.1" class="sf_68">the graphs of related functions. This will give us the ability to sketch the graphs of </text>
<text x="287" y="982" dx="0,0,0,-.2,0,-1,0,0,0,0,0,0,0,0,0,-1,0,0,0,0,0,0,0,-1,0,0,-1,0,0,0,0,0,-1,0,0,-1,0,0,0,0,-1,0,0,0,0,-1,0,0,0,0,0,0,-1,0,0,-1,0,0,-1,0,0,0,0,0,-1,0,0,0,0,0,0,0,0,0,-1,0,0,0,-1,0,-.4,-.2,0,0,-1,0,0,0,0,0,0" class="sf_68">many functions quickly by hand. ±t will also enable us to write equations for given graphs.</text>
<text x="305" y="1000" dx="0,0,0,0,-.8,0,-2,0,0,0,0,-2,0,0,0,0,0,0,0,0" class="sf_68">Let’s Irst consider </text>
<text x="416" y="1000" class="sh_68">translations</text>
<text x="494" y="1000" dx="0,0,-2,0,0" class="sf_68">. ±f </text>
<text x="511" y="1000" class="si_68">c</text>
<text x="520" y="1000" dx="0,0,0,-2,0,-2,0,0,0,0,0,-.4,-.2,0,-2,0,0,0,0,0,-.6,0,-2,0,0,0,0,-2,0,0,0,-2,0,0,0,0,0,-2,0,0" class="sf_68">is a positive number, then the graph of </text>
<text x="742" y="1000" class="si_68">y</text>
<text x="753" y="1000" class="sj_68">-</text>
<text x="770" y="1000" class="si_68">f</text>
<text x="777" y="1000" class="sk_68">s</text>
<text x="783" y="1000" class="si_68">x</text>
<text x="789" y="1000" class="sk_68">d</text>
<text x="799" y="1000" class="sl_68">1</text>
<text x="816" y="1000" class="si_68">c</text>
<text x="287" y="1019" dx="0,0,0,-.2,0,0,0,0,-.2,0,0,0,-.2,0,0,0,0,0,-.2,0,0" class="sf_68">is just the graph of </text>
<text x="404" y="1019" class="si_68">y</text>
<text x="415" y="1019" class="sj_68">-</text>
<text x="432" y="1019" class="si_68">f</text>
<text x="439" y="1019" class="sk_68">s</text>
<text x="445" y="1019" class="si_68">x</text>
<text x="451" y="1019" class="sk_68">d</text>
<text x="460" y="1019" dx="0,0,0,0,0,0,0,0,-.2,0,0,-.2,0,0,0,-.2,0,-.2,0,0,0,0,0,0,0,0,-.2,0,0" class="sf_68">shifted upward a distance of </text>
<text x="635" y="1019" class="si_68">c</text>
<text x="645" y="1019" dx="0,0,0,0,0,0,-.2,0,0,0,0,0,0,0,0,-.2,0,0,0,0" class="sf_68">units (because each </text>
<text x="767" y="1019" class="si_68">y</text>
<text x="774" y="1019" class="sf_68">-coordi-</text>
<text x="121" y="1076" class="sm_68">Copyright 2016 Cengage Learning. All Rights Reserved. May not be copied, scanned, or duplicated, in whole or in part. Due to electronic rights, some third party content may be suppressed from the eBook and/or eChapter(s).</text>
<text x="106" y="1087" class="sm_68">Editorial review has deemed that any suppressed content does not materially affect the overall learning experience. Cengage Learning reserves the right to remove additional content at any time if subsequent rights restrictions require it.</text>

</g>

<!-- Any embedded fonts defined here -->
<style type="text/css" ><![CDATA[

@font-face {
	font-family: BeaconDingbatsTypeOne_12w;
	src: url("fonts/BeaconDingbatsTypeOne_12w.woff") format("woff");
}

@font-face {
	font-family: MathematicalPiLTStd-1_rr;
	src: url("fonts/MathematicalPiLTStd-1_rr.woff") format("woff");
}

@font-face {
	font-family: MathematicalPiLTStd-3_ry;
	src: url("fonts/MathematicalPiLTStd-3_ry.woff") format("woff");
}

@font-face {
	font-family: MathematicalPiLTStd-5_vb;
	src: url("fonts/MathematicalPiLTStd-5_vb.woff") format("woff");
}

@font-face {
	font-family: MyriadPro-BoldSemiCn_90;
	src: url("fonts/MyriadPro-BoldSemiCn_90.woff") format("woff");
}

@font-face {
	font-family: MyriadPro-Regular_4i;
	src: url("fonts/MyriadPro-Regular_4i.woff") format("woff");
}

@font-face {
	font-family: MyriadPro-Semibold_49;
	src: url("fonts/MyriadPro-Semibold_49.woff") format("woff");
}

@font-face {
	font-family: Times-Roman_4n;
	src: url("fonts/Times-Roman_4n.woff") format("woff");
}

@font-face {
	font-family: TimesLTStd-Bold_oh;
	src: url("fonts/TimesLTStd-Bold_oh.woff") format("woff");
}

@font-face {
	font-family: TimesLTStd-Italic_o3;
	src: url("fonts/TimesLTStd-Italic_o3.woff") format("woff");
}

@font-face {
	font-family: TimesLTStd-Roman_143;
	src: url("fonts/TimesLTStd-Roman_143.woff") format("woff");
}

]]></style>

</svg>
