<?xml version="1.0" encoding="UTF-8" standalone="no"?>
<!DOCTYPE svg PUBLIC "-//W3C//DTD SVG 1.1//EN"
"http://www.w3.org/Graphics/SVG/1.1/DTD/svg11.dtd">


<!-- Page 69 -->
<svg x="0" y="0" width="931" height="1096" viewBox="0 0 931 1096" version="1.1" xmlns="http://www.w3.org/2000/svg" xmlns:xlink="http://www.w3.org/1999/xlink"
style="display: block;margin-left: auto;margin-right: auto;">
<defs>
<clipPath id="c_69"><path d="M0,0H931V1096H0Z"/></clipPath>
<clipPath id="c0_69"><path d="M108.9,644.5v-297H832.7v297Z"/></clipPath>

<style type="text/css"><![CDATA[
text { white-space: pre; }
path, image { pointer-events: none; }

.s1_69{
font-size: 12.22px;
font-family: MyriadPro-Semibold_49;
fill: #231F20;
}
.s2_69{
font-size: 13.75px;
font-family: MyriadPro-Semibold_49;
fill: #231F20;
}
.s3_69{
font-size: 12.22px;
font-family: MyriadPro-Regular_4i;
fill: #231F20;
}
.s4_69{
font-size: 15.28px;
font-family: MyriadPro-Semibold_49;
fill: #231F20;
}
.s5_69{
font-size: 15.28px;
font-family: TimesLTStd-Roman_143;
fill: #231F20;
}
.s6_69{
font-size: 15.28px;
font-family: TimesLTStd-Italic_o3;
fill: #231F20;
}
.s7_69{
font-size: 15.28px;
font-family: BeaconDingbatsTypeOne_12w;
fill: #231F20;
}
.s8_69{
font-size: 15.28px;
font-family: MathematicalPiLTStd-3_ry;
fill: #231F20;
}
.s9_69{
font-size: 15.28px;
font-family: MathematicalPiLTStd-5_vb;
fill: #231F20;
}
.sa_69{
font-size: 15.28px;
font-family: MathematicalPiLTStd-1_rr;
fill: #231F20;
}
.sb_69{
font-size: 13.75px;
font-family: MyriadPro-Bold_74;
fill: #00AEEF;
}
.sc_69{
font-size: 12.99px;
font-family: TECHMath-Mix_1cf;
fill: #231F20;
}
.sd_69{
font-size: 10.31px;
font-family: Times-Roman_n6;
fill: #231F20;
}
.se_69{
font-size: 10.31px;
font-family: Times-Italic_n3;
fill: #231F20;
}
.sf_69{
font-size: 12.22px;
font-family: TECHMath-Mix_1cf;
fill: #231F20;
}
.sg_69{
font-size: 15.28px;
font-family: TimesLTStd-Bold_oh;
fill: #231F20;
}
.sh_69{
font-size: 13.75px;
font-family: MyriadPro-Bold_1ca;
fill: #00AEEF;
}
.si_69{
font-size: 14.51px;
font-family: MyriadPro-Bold_1ca;
fill: #231F20;
}
.sj_69{
font-size: 15.28px;
font-family: MyriadPro-Bold_1ca;
fill: #231F20;
}
.sk_69{
font-size: 13.75px;
font-family: TimesLTStd-Roman_143;
fill: #231F20;
}
.sl_69{
font-size: 7.64px;
font-family: Times-Roman_4n;
fill: #000000;
}

.g0_69{
fill: none;
stroke: #00AEEF;
stroke-width: 0.763;
stroke-linecap: butt;
stroke-linejoin: miter;
stroke-miterlimit: 4;
}
.g1_69{
fill: none;
stroke: #00AEEF;
stroke-width: 0.916;
stroke-linecap: butt;
stroke-linejoin: round;
stroke-miterlimit: 3;
}
.g2_69{
fill: none;
stroke: #F7931D;
stroke-width: 0.916;
stroke-linecap: butt;
stroke-linejoin: round;
stroke-miterlimit: 3;
}
.g3_69{
fill: none;
stroke: #66C18C;
stroke-width: 0.916;
stroke-linecap: butt;
stroke-linejoin: round;
stroke-miterlimit: 3;
}
.g4_69{
fill: none;
stroke: #EC008C;
stroke-width: 0.916;
stroke-linecap: butt;
stroke-linejoin: round;
stroke-miterlimit: 3;
}
.g5_69{
fill: none;
stroke: #231F20;
stroke-width: 0.381;
stroke-linecap: butt;
stroke-linejoin: miter;
stroke-miterlimit: 3;
}
.g6_69{
fill: none;
stroke: #231F20;
stroke-width: 0.611;
stroke-linecap: butt;
stroke-linejoin: miter;
stroke-miterlimit: 3;
}
.g7_69{
fill: #231F20;
}
.g8_69{
fill: none;
stroke: #231F20;
stroke-width: 0.916;
stroke-linecap: butt;
stroke-linejoin: round;
stroke-miterlimit: 3;
}
.g9_69{
fill: none;
stroke: #231F20;
stroke-width: 0.763;
stroke-linecap: butt;
stroke-linejoin: miter;
stroke-miterlimit: 3;
stroke-dasharray: 11,5;
}

]]></style>

</defs>
<g clip-path="url(#c_69)">
<path d="M0,0
L0,1096
L931,1096
L931,0 Z " 
fill="#FFFFFF" stroke="none"/>
<text x="543" y="64" dx="0,.2,.2,.5,.2,.2,.2" class="s1_69">SECTION</text>
<text x="595" y="64" class="s2_69">1.3</text>
<text x="625" y="64" dx="0,.1,.1,.1,.1,-.3,.1,.1,.3,.1,.1,.1,.1,.1,.1,.1,0,.1,.1,.1,.1,.1,.1,.1,-.3,.1,.1,.3,.1,.1,.1,.1,.1" class="s3_69">New Functions from Old Functions </text>
<text x="862" y="64" class="s4_69">37</text>
<text x="342" y="109" dx="0,0,0,0,0,-.7,0,0,-.7,0,0,0,0,0,0,0,0,0,-.7,0,0,-.7,0,0,0,-.7,0,0,0,0,-.7,0,0,0,0,0,0" class="s5_69">nate is increased by the same number </text>
<text x="569" y="109" class="s6_69">c</text>
<text x="575" y="109" dx="0,0,0,-.7,0,0,-.2,-.4,0,0,0,0,0,-.7,0,0" class="s5_69">). Likewise, if </text>
<text x="662" y="109" class="s7_69">t</text>
<text x="669" y="109" class="s8_69">s</text>
<text x="675" y="109" class="s6_69">x</text>
<text x="681" y="109" class="s8_69">d</text>
<text x="691" y="109" class="s9_69">-</text>
<text x="708" y="109" class="s6_69">f</text>
<text x="715" y="109" class="s8_69">s</text>
<text x="721" y="109" class="s6_69">x</text>
<text x="732" y="109" class="sa_69">2</text>
<text x="749" y="109" class="s6_69">c</text>
<text x="756" y="109" class="s8_69">d</text>
<text x="761" y="109" dx="0,0,-.7,0,0,0,0,0" class="s5_69">, where </text>
<text x="809" y="109" class="s6_69">c</text>
<text x="820" y="109" class="sa_69">.</text>
<text x="837" y="109" dx="0,0,0,-.7,0,0,0,0" class="s5_69">0, then </text>
<text x="342" y="127" dx="0,0,0,0,.3,-.4,0,0,0,0,.3,0,0" class="s5_69">the value of </text>
<text x="418" y="127" class="s7_69">t</text>
<text x="429" y="127" class="s5_69">at </text>
<text x="444" y="127" class="s6_69">x</text>
<text x="455" y="127" dx="0,0,0,.3,0,0,0,.3,0,0,0,0,.3,0,0,.3,0,0,0,.3,-.4,0,0,0,0,.3,0,0" class="s5_69">is the same as the value of </text>
<text x="623" y="127" class="s6_69">f</text>
<text x="633" y="127" class="s5_69">at </text>
<text x="649" y="127" class="s6_69">x</text>
<text x="660" y="127" class="sa_69">2</text>
<text x="677" y="127" class="s6_69">c</text>
<text x="688" y="127" class="s5_69">(</text>
<text x="693" y="127" class="s6_69">c</text>
<text x="704" y="127" dx="0,0,0,0,0,0,.3,0,0,.3,0,0,0,.3,0,0,0,0,.3,0,0" class="s5_69">units to the left of </text>
<text x="818" y="127" class="s6_69">x</text>
<text x="825" y="127" class="s5_69">). There- </text>
<text x="342" y="145" dx="0,0,0,0,0,.8,0,0,0,.8,0,0,0,0,0,.8,0,0" class="s5_69">fore the graph of </text>
<text x="452" y="145" class="s6_69">y</text>
<text x="463" y="145" class="s9_69">-</text>
<text x="480" y="145" class="s6_69">f</text>
<text x="487" y="145" class="s8_69">s</text>
<text x="493" y="145" class="s6_69">x</text>
<text x="504" y="145" class="sa_69">2</text>
<text x="521" y="145" class="s6_69">c</text>
<text x="528" y="145" class="s8_69">d</text>
<text x="538" y="145" dx="0,0,0,.8,0,0,0,0,.8,0,0,0,.8,0,0,0,0,0,.8,0,0" class="s5_69">is just the graph of </text>
<text x="660" y="145" class="s6_69">y</text>
<text x="671" y="145" class="s9_69">-</text>
<text x="688" y="145" class="s6_69">f</text>
<text x="695" y="145" class="s8_69">s</text>
<text x="701" y="145" class="s6_69">x</text>
<text x="708" y="145" class="s8_69">d</text>
<text x="717" y="145" class="s5_69">shifted </text>
<text x="764" y="145" class="s6_69">c</text>
<text x="775" y="145" dx="0,0,0,0,0,0,.8,0,0,.8,0,0,0,.8,0,0,0,0,0" class="s5_69">units to the right </text>
<text x="342" y="164" class="s5_69">(see Figure 1).</text>
<path d="M345.7,192.1c0,0,-3.1,0,-3.1,3V316.6c0,0,0,3.1,3.1,3.1H875.1c0,0,3,0,3,-3.1V195.1c0,0,0,-3,-3,-3H345.7Z" class="g0_69"/>
<text x="360" y="211" dx="0,-.6,0,.3,0,0,.1,0,0,0,0,0,0,0,0,0,0,0,-.1,0,-.1,0,0,0,0,-.1,0,0,.2,0" class="sb_69">Vertical and Horizontal Shifts</text>
<text x="546" y="211" class="s5_69">Suppose </text>
<text x="601" y="211" class="s6_69">c</text>
<text x="613" y="211" class="sa_69">.</text>
<text x="630" y="211" dx="0,0,0,-.3,-1.2,0,0,0,0,0,0,0,0,0,0,0,0,0,0,0,0,0,0,0,0" class="s5_69">0. To obtain the graph of</text>
<text x="395" y="237" class="s6_69">y</text>
<text x="407" y="237" class="s9_69">-</text>
<text x="424" y="237" class="s6_69">f</text>
<text x="430" y="237" class="s8_69">s</text>
<text x="436" y="237" class="s6_69">x</text>
<text x="443" y="237" class="s8_69">d</text>
<text x="453" y="237" class="sa_69">1</text>
<text x="470" y="237" class="s6_69">c</text>
<text x="477" y="237" class="s5_69">, shift the graph of </text>
<text x="593" y="237" class="s6_69">y</text>
<text x="604" y="237" class="s9_69">-</text>
<text x="621" y="237" class="s6_69">f</text>
<text x="628" y="237" class="s8_69">s</text>
<text x="634" y="237" class="s6_69">x</text>
<text x="640" y="237" class="s8_69">d</text>
<text x="649" y="237" class="s5_69">a distance </text>
<text x="713" y="237" class="s6_69">c</text>
<text x="724" y="237" dx="0,0,0,.7,0,0,0,0,0,0,0,0" class="s5_69">units upward</text>
<text x="395" y="259" class="s6_69">y</text>
<text x="407" y="259" class="s9_69">-</text>
<text x="424" y="259" class="s6_69">f</text>
<text x="430" y="259" class="s8_69">s</text>
<text x="436" y="259" class="s6_69">x</text>
<text x="443" y="259" class="s8_69">d</text>
<text x="453" y="259" class="sa_69">2</text>
<text x="470" y="259" class="s6_69">c</text>
<text x="477" y="259" class="s5_69">, shift the graph of </text>
<text x="593" y="259" class="s6_69">y</text>
<text x="604" y="259" class="s9_69">-</text>
<text x="621" y="259" class="s6_69">f</text>
<text x="628" y="259" class="s8_69">s</text>
<text x="634" y="259" class="s6_69">x</text>
<text x="640" y="259" class="s8_69">d</text>
<text x="649" y="259" class="s5_69">a distance </text>
<text x="713" y="259" class="s6_69">c</text>
<text x="724" y="259" dx="0,0,0,.7,0,0,0,0,0,0,0,0,0,0" class="s5_69">units downward</text>
<text x="395" y="280" class="s6_69">y</text>
<text x="407" y="280" class="s9_69">-</text>
<text x="424" y="280" class="s6_69">f</text>
<text x="430" y="280" class="s8_69">s</text>
<text x="436" y="280" class="s6_69">x</text>
<text x="448" y="280" class="sa_69">2</text>
<text x="465" y="280" class="s6_69">c</text>
<text x="472" y="280" class="s8_69">d</text>
<text x="477" y="280" class="s5_69">, shift the graph of </text>
<text x="593" y="280" class="s6_69">y</text>
<text x="604" y="280" class="s9_69">-</text>
<text x="621" y="280" class="s6_69">f</text>
<text x="628" y="280" class="s8_69">s</text>
<text x="634" y="280" class="s6_69">x</text>
<text x="640" y="280" class="s8_69">d</text>
<text x="649" y="280" class="s5_69">a distance </text>
<text x="713" y="280" class="s6_69">c</text>
<text x="724" y="280" dx="0,0,0,.7,0,0,0,0,0,0,0,0,0,0,0,0,0,0" class="s5_69">units to the right</text>
<text x="395" y="301" class="s6_69">y</text>
<text x="407" y="301" class="s9_69">-</text>
<text x="424" y="301" class="s6_69">f</text>
<text x="430" y="301" class="s8_69">s</text>
<text x="436" y="301" class="s6_69">x</text>
<text x="448" y="301" class="sa_69">1</text>
<text x="465" y="301" class="s6_69">c</text>
<text x="472" y="301" class="s8_69">d</text>
<text x="477" y="301" class="s5_69">, shift the graph of </text>
<text x="593" y="301" class="s6_69">y</text>
<text x="604" y="301" class="s9_69">-</text>
<text x="621" y="301" class="s6_69">f</text>
<text x="628" y="301" class="s8_69">s</text>
<text x="634" y="301" class="s6_69">x</text>
<text x="640" y="301" class="s8_69">d</text>
<text x="649" y="301" class="s5_69">a distance </text>
<text x="713" y="301" class="s6_69">c</text>
<text x="724" y="301" dx="0,0,0,.7,0,0,0,0,0,0,0,0,0,0,0,0,0" class="s5_69">units to the left</text>
<path d="M609,514.7c-7.8,-14.5,-31.8,-66.2,-44.9,-35c-2.8,6.6,-9.2,18.5,-18.5,4.6" class="g1_69"/>
<g clip-path="url(#c0_69)">
<path d="M681.7,584c7.8,14.6,31.8,66.2,44.9,35c2.8,-6.5,9.2,-18.5,18.5,-4.6" class="g2_69"/>
</g>
<path d="M681.7,538.5c7.8,-7.3,31.8,-33.1,44.9,-17.4c2.8,3.2,9.2,9.2,18.5,2.1" class="g3_69"/>
<g clip-path="url(#c0_69)">
<path d="M681.7,441c7.8,-21.8,31.8,-99.3,44.9,-52.4c2.8,9.8,9.2,27.7,18.5,6.8" class="g4_69"/>
</g>
<path d="M380.4,525.5c8,-14.9,32.4,-67.7,45.9,-35.7c2.9,6.7,9.4,18.8,19,4.4" class="g1_69"/>
<path d="M283,624.5c7.8,-14.8,32.4,-67.5,45.9,-35.9c2.9,6.7,9.4,19.1,18.9,4.7" class="g3_69"/>
<path d="M181.5,525.5c8,-14.9,32.4,-67.7,45.8,-35.7c3,6.7,9.5,18.8,19.1,4.4" class="g2_69"/>
<path d="M283,421.7c7.8,-14.9,32.4,-67.6,45.9,-35.7c2.9,6.7,9.4,18.8,18.9,4.7" class="g4_69"/>
<text x="752" y="523" class="sc_69">y= </text>
<text x="782" y="523" class="sc_69">ƒ</text>
<text x="775" y="518" class="sd_69">1</text>
<text x="775" y="530" class="se_69">c</text>
<path d="M780.5,520.9h-5.4" class="g5_69"/>
<text x="826" y="560" class="sf_69">x</text>
<text x="634" y="357" class="sf_69">y</text>
<text x="636" y="561" class="sf_69">0</text>
<text x="543" y="461" dx="0,0,0,.8,0,0,-.1" class="sc_69">y=f(_x)</text>
<text x="751" y="484" class="sc_69">y=ƒ</text>
<text x="752" y="619" class="sc_69">y=_ƒ</text>
<text x="752" y="396" class="sc_69">y=cƒ</text>
<text x="752" y="412" class="sc_69">(c&gt;1)</text>
<path d="M645.3,644.5V356.2" class="g6_69"/>
<path fill-rule="evenodd" d="M645.3,356.2l-2.5,1.7l2.5,-6.5l2.4,6.5Z" class="g7_69"/>
<path d="M525.3,548.4H827.8" class="g6_69"/>
<path fill-rule="evenodd" d="M827.8,548.4L826.1,546l6.6,2.4l-6.6,2.5Z" class="g7_69"/>
<path d="M681.7,513c7.8,-14.5,31.8,-66.2,44.9,-35c2.8,6.6,9.2,18.5,18.5,4.6" class="g8_69"/>
<text x="462" y="560" class="sf_69">x</text>
<path d="M108.9,548.4H464.1" class="g6_69"/>
<path fill-rule="evenodd" d="M464.1,548.4L462.4,546l6.6,2.4l-6.6,2.5Z" class="g7_69"/>
<text x="146" y="357" class="sf_69">y</text>
<path d="M157.4,644.4v-288" class="g6_69"/>
<path fill-rule="evenodd" d="M157.4,356.4l-2.5,1.6l2.5,-6.5l2.4,6.5Z" class="g7_69"/>
<text x="146" y="561" class="sf_69">0</text>
<path d="M286.8,513.7H187.5m99.3,0V414.4" class="g9_69"/>
<path d="M281.5,525.5c7.8,-14.9,32.4,-67.7,45.8,-35.7c2.9,6.7,9.5,18.8,19,4.4" class="g8_69"/>
<text x="376" y="471" dx="0,0,0,.8,0,0,0,0" class="sc_69">y=f(x-c)</text>
<text x="177" y="471" dx="0,0,0,.8,0,0,0,0" class="sc_69">y=f(x+c)</text>
<text x="295" y="471" class="sc_69">y =ƒ</text>
<text x="356" y="593" class="sc_69">y=ƒ-c</text>
<text x="356" y="391" class="sc_69">y=ƒ+c</text>
<text x="274" y="466" class="sc_69">c</text>
<path d="M286.8,513.7h99.3m-99.3,0v99.4" class="g9_69"/>
<text x="274" y="563" class="sc_69">c</text>
<text x="234" y="523" class="sc_69">c</text>
<text x="331" y="523" class="sc_69">c</text>
<text x="360" y="708" dx="0,0,-.4,0,.7,0,0,0,-.8,0,.7,0,0,0,0,0,0,0,0,.7,0,0,0" class="s5_69">Now let’s consider the </text>
<text x="503" y="708" dx="0,0,0,-.3,0,0,0,0,0,0" class="sg_69">stretching</text>
<text x="573" y="708" class="s5_69">and </text>
<text x="600" y="708" dx="0,-.3,0,0,0,0,0,0,0" class="sg_69">reLecting</text>
<text x="665" y="708" dx="0,0,0,0,0,0,0,0,0,0,0,0,0,0,0,0,0,.7,0,0" class="s5_69">transformations. ±f </text>
<text x="784" y="708" class="s6_69">c</text>
<text x="795" y="708" class="sa_69">.</text>
<text x="813" y="708" dx="0,0,0,.7,0,0,0,0,.7,0,0,0" class="s5_69">1, then the </text>
<text x="342" y="727" dx="0,0,0,0,0,0,1.8,0,0" class="s5_69">graph of </text>
<text x="401" y="727" class="s6_69">y</text>
<text x="412" y="727" class="s9_69">-</text>
<text x="430" y="727" dx="0,1.5" class="s6_69">cf</text>
<text x="444" y="727" class="s8_69">s</text>
<text x="450" y="727" class="s6_69">x</text>
<text x="457" y="727" class="s8_69">d</text>
<text x="468" y="727" dx="0,0,0,1.8,0,0,0,1.8,0,0,0,0,0,1.8,0,0" class="s5_69">is the graph of </text>
<text x="567" y="727" class="s6_69">y</text>
<text x="578" y="727" class="s9_69">-</text>
<text x="595" y="727" class="s6_69">f</text>
<text x="602" y="727" class="s8_69">s</text>
<text x="608" y="727" class="s6_69">x</text>
<text x="614" y="727" class="s8_69">d</text>
<text x="625" y="727" dx="0,0,0,0,0,0,0,0,0,0,1.8,0,0,1.8,0,1.8,-.2,0,0,0,0,0,1.8,0,0" class="s5_69">stretched by a factor of </text>
<text x="778" y="727" class="s6_69">c</text>
<text x="791" y="727" dx="0,0,0,1.8,0,0,0,1.8,-.2,0,0,0,0,0,0,0" class="s5_69">in the vertical </text>
<text x="342" y="745" dx="0,0,0,0,0,0,0,0,0,0,.2,0,0,0,0,0,0,0,0,.2,0,0,0,0" class="s5_69">direction (because each </text>
<text x="490" y="745" class="s6_69">y</text>
<text x="497" y="745" dx="0,0,0,0,0,0,0,0,0,0,0,0,.2,0,0,.2,0,0,0,0,0,0,0,0,0,0,.2,0,0,.2,0,0,0,.2,0,0,0,0,.2,0,0,0,0,0,0" class="s5_69">-coordinate is multiplied by the same number </text>
<text x="779" y="745" class="s6_69">c</text>
<text x="786" y="745" dx="0,0,0,-.1,0,0,0,.2,0,0,0,0,0,.2,0,0" class="s5_69">). The graph of </text>
<text x="342" y="763" class="s6_69">y</text>
<text x="354" y="763" class="s9_69">-</text>
<text x="371" y="763" class="sa_69">2</text>
<text x="384" y="763" class="s6_69">f</text>
<text x="390" y="763" class="s8_69">s</text>
<text x="396" y="763" class="s6_69">x</text>
<text x="403" y="763" class="s8_69">d</text>
<text x="412" y="763" dx="0,0,0,.3,0,0,0,.3,0,0,0,0,0,.3,0,0" class="s5_69">is the graph of </text>
<text x="505" y="763" class="s6_69">y</text>
<text x="517" y="763" class="s9_69">-</text>
<text x="534" y="763" class="s6_69">f</text>
<text x="540" y="763" class="s8_69">s</text>
<text x="546" y="763" class="s6_69">x</text>
<text x="553" y="763" class="s8_69">d</text>
<text x="562" y="763" dx="0,0,0,0,0,0,0,0,0,.3,0,0,0,0,0,.3,0,0,0" class="s5_69">re²ected about the </text>
<text x="680" y="763" class="s6_69">x</text>
<text x="687" y="763" dx="0,0,0,0,0,0,.3,0,0,0,0,0,0,0,.3,0,0,0,.3,0,0,0,0,0" class="s5_69">-axis because the point </text>
<text x="832" y="763" class="s8_69">s</text>
<text x="837" y="763" class="s6_69">x</text>
<text x="844" y="763" class="s5_69">, </text>
<text x="852" y="763" class="s6_69">y</text>
<text x="859" y="763" class="s8_69">d</text>
<text x="868" y="763" class="s5_69">is </text>
<text x="342" y="782" dx="0,0,0,0,0,0,0,0,0,-.3,0,0,-.3,0,0,0,-.3,0,0,0,0,0" class="s5_69">replaced by the point </text>
<text x="473" y="782" class="s8_69">s</text>
<text x="479" y="782" class="s6_69">x</text>
<text x="486" y="782" class="s5_69">, </text>
<text x="493" y="782" class="sa_69">2</text>
<text x="506" y="782" class="s6_69">y</text>
<text x="513" y="782" class="s8_69">d</text>
<text x="518" y="782" dx="0,0,-.3,0,0,0,0,-.3,0,0,0,0,0,0,-.3,0,-.3,0,0,0,-.3,0,0,0,-.3,0,0,0,0,-.4,0,0,0,0,-.3,0,0,0,0,0,0,-.3,0,0,0,0,0,-.3,0,0,0,-.3,0,0,0,0,0,0,0,-.3,0,0" class="s5_69">. (See Figure 2 and the following chart, where the results of </text>
<text x="342" y="800" dx="0,0,0,0,0,0,0,0,0,0,0,0,0,0,0,0,0,0,0,0,0,0,0,0,0,0,0,0,0,0,0,0,0,0,0,0,0,0,0,0,0,0,0,0,0,0,0,0,0,0,0,0,0,0,0,0,0,0,0,0,0,0,0,0,0,0,0,0,0,0,-.4,-.2,0,0,0" class="s5_69">other stretching, shrinking, and re²ecting transformations are also given.)</text>
<path d="M345.7,829.8c0,0,-3.1,0,-3.1,3v182.6c0,0,0,3,3.1,3H875.1c0,0,3,0,3,-3V832.8c0,0,0,-3,-3,-3H345.7Z" class="g0_69"/>
<text x="360" y="850" dx="0,-.6,0,.3,0,0,.1,0,0,0,0,0,0,0,0,0,0,0,-.1,0,-.1,0,0,0,0,-.1,0,-.1,0" class="sb_69">Vertical and Horizontal Stret</text>
<text x="533" y="850" dx="0,0,0,0,0,0,0,0,0,0,0,0,0,0,0,.2,0,0,0" class="sh_69">ching and Relecting</text>
<text x="666" y="850" class="s5_69">Suppose </text>
<text x="721" y="850" class="s6_69">c</text>
<text x="733" y="850" class="sa_69">.</text>
<text x="750" y="850" dx="0,0,0,-.3,-1.2,0,0,0,0,0,0,0,0,0,0,0,0" class="s5_69">1. To obtain the </text>
<text x="360" y="867" class="s5_69">graph of</text>
<text x="397" y="893" class="s6_69">y</text>
<text x="408" y="893" class="s9_69">-</text>
<text x="425" y="893" dx="0,1.5" class="s6_69">cf</text>
<text x="440" y="893" class="s8_69">s</text>
<text x="446" y="893" class="s6_69">x</text>
<text x="453" y="893" class="s8_69">d</text>
<text x="458" y="893" class="s5_69">, stretch the graph of </text>
<text x="587" y="893" class="s6_69">y</text>
<text x="599" y="893" class="s9_69">-</text>
<text x="616" y="893" class="s6_69">f</text>
<text x="622" y="893" class="s8_69">s</text>
<text x="628" y="893" class="s6_69">x</text>
<text x="635" y="893" class="s8_69">d</text>
<text x="644" y="893" class="s5_69">vertically by a factor of </text>
<text x="791" y="893" class="s6_69">c</text>
<text x="397" y="915" class="s6_69">y</text>
<text x="408" y="915" class="s9_69">-</text>
<text x="425" y="915" class="s8_69">s</text>
<text x="430" y="915" class="s5_69">1</text>
<text x="437" y="915" class="s8_69">y</text>
<text x="444" y="915" class="s6_69">c</text>
<text x="451" y="915" class="s8_69">d</text>
<text x="457" y="915" class="s6_69">f</text>
<text x="464" y="915" class="s8_69">s</text>
<text x="470" y="915" class="s6_69">x</text>
<text x="477" y="915" class="s8_69">d</text>
<text x="482" y="915" class="s5_69">, shrink the graph of </text>
<text x="609" y="915" class="s6_69">y</text>
<text x="620" y="915" class="s9_69">-</text>
<text x="637" y="915" class="s6_69">f</text>
<text x="644" y="915" class="s8_69">s</text>
<text x="650" y="915" class="s6_69">x</text>
<text x="656" y="915" class="s8_69">d</text>
<text x="665" y="915" class="s5_69">vertically by a factor of </text>
<text x="812" y="915" class="s6_69">c</text>
<text x="397" y="936" class="s6_69">y</text>
<text x="408" y="936" class="s9_69">-</text>
<text x="425" y="936" class="s6_69">f</text>
<text x="432" y="936" class="s8_69">s</text>
<text x="437" y="936" dx="0,.7" class="s6_69">cx</text>
<text x="451" y="936" class="s8_69">d</text>
<text x="456" y="936" class="s5_69">, shrink the graph of </text>
<text x="583" y="936" class="s6_69">y</text>
<text x="595" y="936" class="s9_69">-</text>
<text x="612" y="936" class="s6_69">f</text>
<text x="618" y="936" class="s8_69">s</text>
<text x="624" y="936" class="s6_69">x</text>
<text x="631" y="936" class="s8_69">d</text>
<text x="640" y="936" dx="0,0,0,0,0,0,0,.7,0,0,0,0,0,0,0,0,0,0,0,0,0,0,0,0,0,0,0,0" class="s5_69">horizontally by a factor of </text>
<text x="803" y="936" class="s6_69">c</text>
<text x="397" y="957" class="s6_69">y</text>
<text x="408" y="957" class="s9_69">-</text>
<text x="425" y="957" class="s6_69">f</text>
<text x="432" y="957" class="s8_69">s</text>
<text x="438" y="957" class="s6_69">x</text>
<text x="444" y="957" class="s8_69">y</text>
<text x="450" y="957" class="s6_69">c</text>
<text x="457" y="957" class="s8_69">d</text>
<text x="462" y="957" class="s5_69">, stretch the graph of </text>
<text x="592" y="957" class="s6_69">y</text>
<text x="603" y="957" class="s9_69">-</text>
<text x="620" y="957" class="s6_69">f</text>
<text x="627" y="957" class="s8_69">s</text>
<text x="633" y="957" class="s6_69">x</text>
<text x="639" y="957" class="s8_69">d</text>
<text x="648" y="957" dx="0,0,0,0,0,0,0,.7,0,0,0,0,0,0,0,0,0,0,0,0,0,0,0,0,0,0,0,0" class="s5_69">horizontally by a factor of </text>
<text x="812" y="957" class="s6_69">c</text>
<text x="397" y="979" class="s6_69">y</text>
<text x="408" y="979" class="s9_69">-</text>
<text x="425" y="979" class="sa_69">2</text>
<text x="438" y="979" class="s6_69">f</text>
<text x="445" y="979" class="s8_69">s</text>
<text x="450" y="979" class="s6_69">x</text>
<text x="457" y="979" class="s8_69">d</text>
<text x="462" y="979" dx="0,0,0,0,-.1,0,0,0,0,0,0,0,0,0,0,0,0,0,0,0,0,0,0" class="s5_69">, reflect the graph of </text>
<text x="590" y="979" class="s6_69">y</text>
<text x="601" y="979" class="s9_69">-</text>
<text x="619" y="979" class="s6_69">f</text>
<text x="625" y="979" class="s8_69">s</text>
<text x="631" y="979" class="s6_69">x</text>
<text x="638" y="979" class="s8_69">d</text>
<text x="647" y="979" class="s5_69">about the </text>
<text x="707" y="979" class="s6_69">x</text>
<text x="714" y="979" class="s5_69">-axis</text>
<text x="397" y="1000" class="s6_69">y</text>
<text x="408" y="1000" class="s9_69">-</text>
<text x="425" y="1000" class="s6_69">f</text>
<text x="432" y="1000" class="s8_69">s</text>
<text x="437" y="1000" class="sa_69">2</text>
<text x="450" y="1000" class="s6_69">x</text>
<text x="456" y="1000" class="s8_69">d</text>
<text x="461" y="1000" dx="0,0,0,0,-.1,0,0,0,0,0,0,0,0,0,0,0,0,0,0,0,0,0,0" class="s5_69">, reflect the graph of </text>
<text x="589" y="1000" class="s6_69">y</text>
<text x="601" y="1000" class="s9_69">-</text>
<text x="618" y="1000" class="s6_69">f</text>
<text x="624" y="1000" class="s8_69">s</text>
<text x="630" y="1000" class="s6_69">x</text>
<text x="637" y="1000" class="s8_69">d</text>
<text x="646" y="1000" class="s5_69">about the </text>
<text x="706" y="1000" class="s6_69">y</text>
<text x="713" y="1000" class="s5_69">-axis</text>
<text x="524" y="672" dx="0,.3,.3,.3,.3,.3,.1" class="si_69">FIGURE </text>
<text x="576" y="672" class="sj_69">2</text>
<text x="592" y="672" class="sk_69">Stretching and re²ecting the graph of </text>
<text x="802" y="672" class="s6_69">f</text>
<text x="108" y="672" dx="0,.3,.3,.3,.3,.3,.1" class="si_69">FIGURE </text>
<text x="161" y="672" class="sj_69">1</text>
<text x="176" y="672" dx="0,-.5,0,0,0,0,0,0,0,0,0,0,0,0,0,0,0,0,0,0,0,0,0,0,0" class="sk_69">Translating the graph of </text>
<text x="313" y="672" class="s6_69">f</text>
<text x="121" y="1076" class="sl_69">Copyright 2016 Cengage Learning. All Rights Reserved. May not be copied, scanned, or duplicated, in whole or in part. Due to electronic rights, some third party content may be suppressed from the eBook and/or eChapter(s).</text>
<text x="106" y="1087" class="sl_69">Editorial review has deemed that any suppressed content does not materially affect the overall learning experience. Cengage Learning reserves the right to remove additional content at any time if subsequent rights restrictions require it.</text>

</g>

<!-- Any embedded fonts defined here -->
<style type="text/css" ><![CDATA[

@font-face {
	font-family: BeaconDingbatsTypeOne_12w;
	src: url("fonts/BeaconDingbatsTypeOne_12w.woff") format("woff");
}

@font-face {
	font-family: MathematicalPiLTStd-1_rr;
	src: url("fonts/MathematicalPiLTStd-1_rr.woff") format("woff");
}

@font-face {
	font-family: MathematicalPiLTStd-3_ry;
	src: url("fonts/MathematicalPiLTStd-3_ry.woff") format("woff");
}

@font-face {
	font-family: MathematicalPiLTStd-5_vb;
	src: url("fonts/MathematicalPiLTStd-5_vb.woff") format("woff");
}

@font-face {
	font-family: MyriadPro-Bold_1ca;
	src: url("fonts/MyriadPro-Bold_1ca.woff") format("woff");
}

@font-face {
	font-family: MyriadPro-Bold_74;
	src: url("fonts/MyriadPro-Bold_74.woff") format("woff");
}

@font-face {
	font-family: MyriadPro-Regular_4i;
	src: url("fonts/MyriadPro-Regular_4i.woff") format("woff");
}

@font-face {
	font-family: MyriadPro-Semibold_49;
	src: url("fonts/MyriadPro-Semibold_49.woff") format("woff");
}

@font-face {
	font-family: TECHMath-Mix_1cf;
	src: url("fonts/TECHMath-Mix_1cf.woff") format("woff");
}

@font-face {
	font-family: Times-Italic_n3;
	src: url("fonts/Times-Italic_n3.woff") format("woff");
}

@font-face {
	font-family: Times-Roman_4n;
	src: url("fonts/Times-Roman_4n.woff") format("woff");
}

@font-face {
	font-family: Times-Roman_n6;
	src: url("fonts/Times-Roman_n6.woff") format("woff");
}

@font-face {
	font-family: TimesLTStd-Bold_oh;
	src: url("fonts/TimesLTStd-Bold_oh.woff") format("woff");
}

@font-face {
	font-family: TimesLTStd-Italic_o3;
	src: url("fonts/TimesLTStd-Italic_o3.woff") format("woff");
}

@font-face {
	font-family: TimesLTStd-Roman_143;
	src: url("fonts/TimesLTStd-Roman_143.woff") format("woff");
}

]]></style>

</svg>
