<?xml version="1.0" encoding="UTF-8" standalone="no"?>
<!DOCTYPE svg PUBLIC "-//W3C//DTD SVG 1.1//EN"
"http://www.w3.org/Graphics/SVG/1.1/DTD/svg11.dtd">


<!-- Page 70 -->
<svg x="0" y="0" width="931" height="1096" viewBox="0 0 931 1096" version="1.1" xmlns="http://www.w3.org/2000/svg" xmlns:xlink="http://www.w3.org/1999/xlink"
style="display: block;margin-left: auto;margin-right: auto;">
<defs>
<clipPath id="c_70"><path d="M0,0H931V1096H0Z"/></clipPath>
<clipPath id="c0_70"><path d="M492.8,361.3V344.2h50.3v17.1Z"/></clipPath>
<clipPath id="c1_70"><path d="M286.3,382.7V365.6h79.8v17.1Z"/></clipPath>
<clipPath id="c2_70"><path d="M373.8,382.7V365.6h63v17.1Z"/></clipPath>
<clipPath id="c3_70"><path d="M444.4,382.7V365.6h59.5v17.1Z"/></clipPath>
<clipPath id="c4_70"><path d="M537.4,382.7V365.6h62.3v17.1Z"/></clipPath>
<clipPath id="c5_70"><path d="M590,410.2V393.1h50.4v17.1Z"/></clipPath>
<clipPath id="c6_70"><path d="M556.1,448.4V431.2H636v17.2Z"/></clipPath>
<clipPath id="c7_70"><path d="M322.8,469.6v-17h62.3v17Z"/></clipPath>
<clipPath id="c8_70"><path d="M574.3,468.3V451.1h59.5v17.2Z"/></clipPath>
<clipPath id="c9_70"><path d="M383.3,486.6V469.4h62.3v17.2Z"/></clipPath>

<style type="text/css"><![CDATA[
text { white-space: pre; }
path, image { pointer-events: none; }

.s1_70{
font-size: 15.28px;
font-family: MyriadPro-Semibold_49;
fill: #231F20;
}
.s2_70{
font-size: 12.22px;
font-family: MyriadPro-Semibold_49;
fill: #231F20;
}
.s3_70{
font-size: 13.75px;
font-family: MyriadPro-Semibold_49;
fill: #231F20;
}
.s4_70{
font-size: 12.22px;
font-family: MyriadPro-Regular_4i;
fill: #231F20;
}
.s5_70{
font-size: 15.28px;
font-family: TimesLTStd-Roman_143;
fill: #231F20;
}
.s6_70{
font-size: 15.28px;
font-family: TimesLTStd-Italic_o3;
fill: #231F20;
}
.s7_70{
font-size: 15.28px;
font-family: MathematicalPiLTStd-5_vb;
fill: #231F20;
}
.s8_70{
font-size: 12.22px;
font-family: TECHMath-Mix_16a;
fill: #231F20;
}
.s9_70{
font-size: 12.22px;
font-family: TECHMath-Mix_13x;
fill: #231F20;
}
.sa_70{
font-size: 12.22px;
font-family: TECHMath-Mix_16e;
fill: #231F20;
}
.sb_70{
font-size: 12.22px;
font-family: TECHMath-Mix_1cp;
fill: #231F20;
}
.sc_70{
font-size: 12.99px;
font-family: TECHMath-Mix_1cp;
fill: #231F20;
}
.sd_70{
font-size: 12.99px;
font-family: Times-Roman_n6;
fill: #231F20;
}
.se_70{
font-size: 10.31px;
font-family: TECHMath-Mix_1cp;
fill: #231F20;
}
.sf_70{
font-size: 16.81px;
font-family: MyriadPro-BoldSemiCn_90;
fill: #EC008C;
}
.sg_70{
font-size: 17.57px;
font-family: MyriadPro-BoldSemiCn_90;
fill: #EC008C;
}
.sh_70{
font-size: 15.28px;
font-family: BeaconDingbatsTypeOne_12w;
fill: #231F20;
}
.si_70{
font-size: 15.28px;
font-family: MathematicalPiLTStd-1_rr;
fill: #231F20;
}
.sj_70{
font-size: 13.75px;
font-family: MyriadPro-Semibold_49;
fill: #EC008C;
}
.sk_70{
font-size: 12.99px;
font-family: TECHMath-Mix_14s;
fill: #231F20;
}
.sl_70{
font-size: 12.99px;
font-family: TECHMath-Mix_1ct;
fill: #231F20;
}
.sm_70{
font-size: 12.22px;
font-family: TECHMath-Mix_1ct;
fill: #231F20;
}
.sn_70{
font-size: 12.99px;
font-family: ZapfDingbatsITC_my;
fill: #EC008C;
}
.so_70{
font-size: 15.28px;
font-family: MathematicalPiLTStd-3_ry;
fill: #231F20;
}
.sp_70{
font-size: 9.17px;
font-family: TimesLTStd-Roman_143;
fill: #231F20;
}
.sq_70{
font-size: 12.99px;
font-family: TECHMath-Mix_1cl;
fill: #231F20;
}
.sr_70{
font-size: 12.22px;
font-family: TECHMath-Mix_1cl;
fill: #231F20;
}
.ss_70{
font-size: 14.51px;
font-family: MyriadPro-Bold_74;
fill: #231F20;
}
.st_70{
font-size: 15.28px;
font-family: MyriadPro-Bold_74;
fill: #231F20;
}
.su_70{
font-size: 7.64px;
font-family: Times-Roman_4n;
fill: #000000;
}

.g0_70{
fill: none;
stroke: #00AEEF;
stroke-width: 0.916;
stroke-linecap: butt;
stroke-linejoin: round;
stroke-miterlimit: 3;
}
.g1_70{
fill: none;
stroke: #EC008C;
stroke-width: 0.916;
stroke-linecap: butt;
stroke-linejoin: round;
stroke-miterlimit: 3;
}
.g2_70{
fill: #231F20;
}
.g3_70{
fill: none;
stroke: #231F20;
stroke-width: 0.611;
stroke-linecap: butt;
stroke-linejoin: miter;
stroke-miterlimit: 3;
}
.g4_70{
fill: none;
stroke: #231F20;
stroke-width: 0.381;
stroke-linecap: butt;
stroke-linejoin: miter;
stroke-miterlimit: 3;
}
.g5_70{
fill: none;
stroke: #66C18C;
stroke-width: 0.916;
stroke-linecap: butt;
stroke-linejoin: round;
stroke-miterlimit: 3;
}
.g6_70{
fill: none;
stroke: #231F20;
stroke-width: 0.763;
stroke-linecap: butt;
stroke-linejoin: miter;
}
.g7_70{
fill: #EC008C;
}
.g8_70{
fill: none;
stroke: #EC008C;
stroke-width: 0.763;
stroke-linecap: butt;
stroke-linejoin: miter;
stroke-miterlimit: 3;
}

]]></style>

</defs>
<g clip-path="url(#c_70)">
<path d="M0,0
L0,1096
L931,1096
L931,0 Z " 
fill="#FFFFFF" stroke="none"/>
<text x="53" y="64" class="s1_70">38</text>
<text x="126" y="64" dx="0,.2,.2,.2,.2,.2,.2,.1" class="s2_70">CHAPTER </text>
<text x="180" y="64" class="s3_70">1</text>
<text x="200" y="64" dx="0,-.3,.1,.1,.3,.1,.1,.1,.1,.1,.1,.1,.1,.1,.1,.2,.1,.1,.1,.1" class="s4_70">Functions and Models</text>
<text x="304" y="107" dx="0,-.2,-.2,-.2,-.2,-.2,-.2,-.5,-.2,-.5,-.2,-.2,-.2,-.2,-.2,-.2,-.2,-.2,-.2,-.2,-.2,-.5,-.2,-.2,-.2,-.2,-.2,-.5,-.2,-.2,-.2,-.2,-.2,-.2,-.2,-.2,-.2,-.2,-.5,-.2,-.2,-.2,-.2,-.2,-.2,-.2,-.2,-.2,-.2,-.2,-.2,-.2,-.2,-.2,-.5,-.2,-.2,-.2,-.2,-.5,-.2,-.2,-.2,-.2,-.2,-.2,-.2,-.5,-.2,-.2,-.5,-.2,-.2,-.2,-.5,-.2,-.2,-.2,-.2,-.2,-.2,-.5,-.2,-.2,-.2,-.2,-.2,-.2,-.2,0" class="s5_70">Figure 3 illustrates these stretching transformations when applied to the cosine function </text>
<text x="286" y="126" dx="0,-.2,-.2,-.2,-.2" class="s5_70">with </text>
<text x="316" y="126" class="s6_70">c</text>
<text x="327" y="126" class="s7_70">-</text>
<text x="344" y="126" dx="0,-.2,-.2,-.6,-.4,-.2,-.2,-.6,-.2,-.2,-.2,-.2,-.2,-.2,-.2,-.2,-.2,-.6,-.2,-.2,-.6,-.2,-.2,-.2,-.2,-.2,-.6,-.2,-.2,-.6,-.2,-.2,-.2,-.6,-.2,-.2,-.2,-.6,-.2,-.2,-.2,-.2,-.2,-.6,-.2,-.2" class="s5_70">2. For instance, in order to get the graph of </text>
<text x="598" y="126" class="s6_70">y</text>
<text x="610" y="126" class="s7_70">-</text>
<text x="627" y="126" dx="0,0,-.8,0,0" class="s5_70">2 cos</text>
<text x="661" y="126" class="s6_70">x</text>
<text x="671" y="126" dx="0,-.2,-.2,-.6,-.2,-.2,-.2,-.2,-.2,-.2,-.2,-.2,-.6,-.2,-.2,-.2" class="s5_70">we multiply the </text>
<text x="767" y="126" class="s6_70">y</text>
<text x="774" y="126" dx="0,-.2,-.2,-.2,-.2,-.2,-.2,-.2" class="s5_70">-coordi-</text>
<text x="286" y="144" dx="0,-.2,-.2,-.2,-.2,0,-.2,-.2,0,-.2,-.2,-.2,-.2,0,-.2,-.2,-.2,-.2,-.2,0,-.2,-.2,0,-.2,-.2,-.2,0,-.2,-.2,-.2,-.2,-.2,0,-.2,-.2" class="s5_70">nate of each point on the graph of </text>
<text x="492" y="144" class="s6_70">y</text>
<text x="503" y="144" class="s7_70">-</text>
<text x="521" y="144" class="s5_70">cos</text>
<text x="544" y="144" class="s6_70">x</text>
<text x="554" y="144" dx="0,-.2,-.2,0,-.2,-.2,-.3,-.2,-.2,-.2,-.2,0,-.2,-.2,-.2,-.2,-.2,0,-.2,-.2,-.2,-.2,0,-.2,-.2,-.2,0,-.2,-.2,-.2,-.2,-.2,0,-.2,-.2" class="s5_70">by 2. This means that the graph of </text>
<text x="763" y="144" class="s6_70">y</text>
<text x="775" y="144" class="s7_70">-</text>
<text x="792" y="144" class="s5_70">cos</text>
<text x="815" y="144" class="s6_70">x</text>
<text x="286" y="162" dx="0,-.2,-.2,-.2,-.2,-.2,-.2,-.2,-.2,-.2,-.2,-.2,-.2,-.2,-.2,-.2,-.4,-.2,-.2,-.2,-.2,-.2,-.2,-.2,-.2,-.2,-.2,-.2,-.2,-.2,-.2,-.2,-.3,-.2,-.2,-.2,-.2,-.2,-.2,-.2,-.2,-.2,-.2" class="s5_70">gets stretched vertically by a factor of 2.</text>
<path d="M578,277.4c8.3,-15.7,15.1,-38.1,26.5,-38.1c17.6,0,24.3,53.3,42,53.3c17.8,0,24.5,-53.3,42.1,-53.3c17.6,0,24.3,53.3,42,53.3c17.8,0,24.9,-53.3,42.5,-53.3c3.3,0,6.2,1.9,9,5" class="g0_70"/>
<path d="M324.9,251.7c8.3,-7.4,17,-12.9,27.3,-12.9c32.6,.2,49.6,54.6,83.7,54.4c34.1,.2,49.4,-54.2,82,-54.4c4.2,0,8.2,.9,12,2.6" class="g1_70"/>
<path fill-rule="evenodd" d="M780,265.8l-1.6,-2.4l6.5,2.4l-6.5,2.5Z" class="g2_70"/>
<text x="778" y="278" class="s8_70">x</text>
<path fill-rule="evenodd" d="M604.4,186l-2.4,1.6l2.4,-6.5l2.5,6.5Z" class="g2_70"/>
<path d="M657.8,262.9V269m-26.7,-6.1V269" class="g3_70"/>
<text x="593" y="236" class="s9_70">1</text>
<path d="M601.4,212.5h6.1" class="g3_70"/>
<text x="591" y="216" class="sa_70">2</text>
<text x="593" y="186" class="sb_70">y</text>
<path d="M601.3,292.6h6.2" class="g3_70"/>
<text x="595" y="278" class="sb_70">0</text>
<path d="M711.1,262.9V269m53.4,-6.1V269m-26.7,-6.1V269" class="g3_70"/>
<text x="666" y="318" class="sc_70">y=</text>
<text x="687" y="318" class="sd_70">cos</text>
<text x="707" y="318" class="sc_70">x</text>
<path d="M690.9,307.1v-9.5" class="g4_70"/>
<path d="M690.9,294.3l1.7,4.3l-1.7,-1l-1.6,1Z" class="g2_70"/>
<text x="717" y="217" class="sc_70">y=</text>
<text x="738" y="217" class="sd_70">cos</text>
<text x="759" y="217" dx="0,1" class="sc_70">2x</text>
<path d="M648.3,224.8v16.8" class="g4_70"/>
<path d="M648.3,244.9l-1.6,-4.3l1.6,1l1.7,-1Z" class="g2_70"/>
<text x="618" y="214" class="sc_70">y=</text>
<text x="639" y="214" class="sd_70">cos</text>
<text x="669" y="214" class="sc_70">x</text>
<text x="661" y="207" class="se_70">1</text>
<text x="660" y="221" class="se_70">2</text>
<path d="M659.6,210.7h6.7" class="g4_70"/>
<path fill-rule="evenodd" d="M527.5,266l-1.7,-2.5l6.6,2.5l-6.6,2.4Z" class="g2_70"/>
<text x="526" y="278" class="sb_70">x</text>
<path fill-rule="evenodd" d="M352.3,186.1l-2.5,1.6l2.5,-6.5l2.4,6.5Z" class="g2_70"/>
<path d="M349.2,239.3h6.1m50.3,23.6V269m-26.7,-6.2v6.1" class="g3_70"/>
<text x="341" y="236" class="sb_70">1</text>
<text x="339" y="212" class="sb_70">2</text>
<path d="M432.3,262.9V269" class="g3_70"/>
<text x="341" y="186" class="sb_70">y</text>
<path d="M349.2,292.6h6.1" class="g3_70"/>
<text x="343" y="278" class="sb_70">0</text>
<path d="M512.3,262.9V269m-26.7,-6.1V269m-26.7,-6.1V269" class="g3_70"/>
<text x="382" y="191" class="sc_70">y=2 </text>
<text x="412" y="191" class="sd_70">cos</text>
<text x="433" y="191" class="sc_70">x</text>
<path d="M379.1,192.2l-13.8,18.3" class="g4_70"/>
<path d="M363.3,213.2l1.3,-4.5l.7,1.8l2,.2Z" class="g2_70"/>
<path d="M713.8,218.2L700,236.5" class="g4_70"/>
<path d="M698,239.1l1.3,-4.4l.7,1.8l2,.2Z" class="g2_70"/>
<path d="M397.4,238.8c-9.6,0,-22.1,1.5,-30.6,10.7" class="g4_70"/>
<path d="M364.6,251.9l1.7,-4.3l.5,1.9l2,.3Z" class="g2_70"/>
<text x="382" y="217" class="sc_70">y=</text>
<text x="402" y="217" class="sd_70">cos</text>
<text x="423" y="217" class="sc_70">x</text>
<path d="M379.1,218.2l-13.8,18.3" class="g4_70"/>
<path d="M363.3,239.1l1.3,-4.4l.7,1.8l2,.2Z" class="g2_70"/>
<text x="400" y="242" class="sc_70">y= </text>
<text x="433" y="242" class="sd_70">cos</text>
<text x="454" y="242" class="sc_70">x</text>
<text x="423" y="235" class="se_70">1</text>
<text x="422" y="249" class="se_70">2</text>
<path d="M421.9,238.8h6.7" class="g4_70"/>
<path d="M782.1,292.5c-3.2,.3,-6.4,.4,-9.6,.4c-65.9,.1,-103.7,-53.6,-168,-53.6c-9.3,0,-18,1.1,-26.4,3" class="g5_70"/>
<path d="M576.6,252.3c8.4,-7.5,17.3,-13,27.8,-13c32.6,.2,49.6,53.5,83.7,53.3c34.1,.2,49.4,-53.1,82,-53.3c4.2,0,8.2,.9,12,2.5" class="g1_70"/>
<path d="M324.4,258.9c8.4,-3.9,17.3,-6.7,27.8,-6.8c32.6,.1,49.6,27.9,83.7,27.8c34.1,.1,49.4,-27.7,82,-27.8c4.2,.1,8.2,.5,12,1.4" class="g5_70"/>
<path d="M324.4,238.7c8.4,-14.9,17.3,-25.9,27.8,-26c32.6,.3,49.6,107,83.7,106.7c34.1,.3,49.4,-106.4,82,-106.7c4.2,0,8.2,1.8,12,5" class="g0_70"/>
<path d="M577.8,265.9H780.1M604.4,326.1V185.9m-3,53.3h6M325.6,266H527.9M352.3,326.1V185.9m-3.1,26.7h6.1m329.2,50.3V269" class="g3_70"/>
<text x="376" y="280" class="sb_70">1</text>
<text x="286" y="358" dx="0,.3,.3,.3,.3,.3,.3,.2" class="sf_70">EXAMPLE </text>
<text x="357" y="358" class="sg_70">1</text>
<text x="374" y="358" dx="0,0,-.4,-.2,0,0,0,0,0,0,0,0,0,0,0,0,0,0,0" class="s5_70">Given the graph of </text>
<text x="493" y="358" class="s6_70">y</text>
<text x="504" y="358" class="s7_70">-</text>
<text x="521" y="358" class="sh_70">s</text>
<text x="534" y="358" class="s6_70">x</text>
<g clip-path="url(#c0_70)">
<path d="M533.6,344.5h9.9" class="g6_70"/>
</g>
<text x="543" y="358" class="s5_70">, use transformations to graph </text>
<text x="729" y="358" class="s6_70">y</text>
<text x="740" y="358" class="s7_70">-</text>
<text x="758" y="358" class="sh_70">s</text>
<text x="770" y="358" class="s6_70">x</text>
<path d="M769.7,344.5h9.9" class="g6_70"/>
<text x="783" y="358" class="si_70">2</text>
<text x="801" y="358" class="s5_70">2, </text>
<text x="286" y="379" class="s6_70">y</text>
<text x="298" y="379" class="s7_70">-</text>
<text x="315" y="380" class="sh_70">s</text>
<text x="327" y="379" class="s6_70">x</text>
<text x="338" y="379" class="si_70">2</text>
<text x="356" y="379" class="s5_70">2</text>
<g clip-path="url(#c1_70)">
<path d="M327.1,365.9h39.4" class="g6_70"/>
</g>
<text x="366" y="379" class="s5_70">, </text>
<text x="374" y="379" class="s6_70">y</text>
<text x="385" y="379" class="s7_70">-</text>
<text x="402" y="379" class="si_70">2</text>
<text x="415" y="380" class="sh_70">s</text>
<text x="427" y="379" class="s6_70">x</text>
<g clip-path="url(#c2_70)">
<path d="M427.3,365.9h9.9" class="g6_70"/>
</g>
<text x="436" y="379" class="s5_70">, </text>
<text x="444" y="379" class="s6_70">y</text>
<text x="456" y="379" class="s7_70">-</text>
<text x="473" y="379" class="s5_70">2</text>
<text x="482" y="380" class="sh_70">s</text>
<text x="494" y="379" class="s6_70">x</text>
<g clip-path="url(#c3_70)">
<path d="M494.4,365.9h9.9" class="g6_70"/>
</g>
<text x="503" y="379" class="s5_70">, and </text>
<text x="537" y="379" class="s6_70">y</text>
<text x="549" y="379" class="s7_70">-</text>
<text x="566" y="380" class="sh_70">s</text>
<text x="577" y="379" class="si_70">2</text>
<text x="590" y="379" class="s6_70">x</text>
<g clip-path="url(#c4_70)">
<path d="M578.2,365.9h21.9" class="g6_70"/>
</g>
<text x="599" y="379" class="s5_70">.</text>
<text x="286" y="407" dx="0,.3,.3,.3,.3,.3,.3,.3,.1" class="sj_70">SOLUTION </text>
<text x="357" y="407" class="s5_70">The graph of the square root function </text>
<text x="590" y="407" class="s6_70">y</text>
<text x="601" y="407" class="s7_70">-</text>
<text x="619" y="407" class="sh_70">s</text>
<text x="631" y="407" class="s6_70">x</text>
<g clip-path="url(#c5_70)">
<path d="M630.8,393.4h9.9" class="g6_70"/>
</g>
<text x="640" y="407" class="s5_70">, obtained from Fig- </text>
<text x="286" y="425" dx="0,0,0,0,0,0,0,0,0,0,0,0,0,0,0,0,0,0,0,0,0,-.4,0,0,0,0,0,0,0,0,0,0,0,0,0,0,0,0,0,0,0,0,0,0,0,0,0,0,0,0,0,0,0,0,0,0,0,0,0,0,0,0,0,0,0,0,0,0,0,0,0,0,0,0,0,0,0,-.2,0,0,0,0" class="s5_70">ure 1.2.13(a), is shown in Figure 4(a). ±n the other parts of the Igure we sketch </text>
<text x="286" y="446" class="s6_70">y</text>
<text x="298" y="446" class="s7_70">-</text>
<text x="315" y="446" class="sh_70">s</text>
<text x="327" y="446" class="s6_70">x</text>
<path d="M327.1,432.5H337" class="g6_70"/>
<text x="341" y="446" class="si_70">2</text>
<text x="358" y="446" dx="0,0,0,0,0,0,0,0,0,0,0,0,0,0,0,0,0,0,0,0,0,0,0,0,-.4,0,0,-.2,0,0,0,0" class="s5_70">2 by shifting 2 units downward, </text>
<text x="556" y="445" class="s6_70">y</text>
<text x="567" y="445" class="s7_70">-</text>
<text x="585" y="445" class="sh_70">s</text>
<text x="597" y="445" class="s6_70">x</text>
<text x="608" y="445" class="si_70">2</text>
<text x="626" y="445" class="s5_70">2</text>
<g clip-path="url(#c6_70)">
<path d="M596.9,431.6h39.4" class="g6_70"/>
</g>
<text x="639" y="445" class="s5_70">by shifting 2 units to the </text>
<text x="286" y="465" class="s5_70">right, </text>
<text x="323" y="465" class="s6_70">y</text>
<text x="334" y="465" class="s7_70">-</text>
<text x="351" y="465" class="si_70">2</text>
<text x="364" y="467" class="sh_70">s</text>
<text x="376" y="466" class="s6_70">x</text>
<g clip-path="url(#c7_70)">
<path d="M376.3,453h9.2" class="g6_70"/>
</g>
<text x="388" y="465" class="s5_70">by re²ecting about the </text>
<text x="530" y="465" class="s6_70">x</text>
<text x="537" y="465" class="s5_70">-axis, </text>
<text x="574" y="465" class="s6_70">y</text>
<text x="586" y="465" class="s7_70">-</text>
<text x="603" y="465" class="s5_70">2</text>
<text x="612" y="465" class="sh_70">s</text>
<text x="624" y="465" class="s6_70">x</text>
<g clip-path="url(#c8_70)">
<path d="M624.3,451.5h9.9" class="g6_70"/>
</g>
<text x="637" y="465" dx="0,0,0,0,0,0,0,0,0,0,0,0,0,0,0,-.2,0,0,0,0,0,0,0,0,0,0,0,0,0,0" class="s5_70">by stretching vertically by a </text>
<text x="286" y="483" dx="0,-.2,0,0,0,0,0,0,0,0,0,0,0,0,0,0,0" class="s5_70">factor of 2, and </text>
<text x="383" y="483" class="s6_70">y</text>
<text x="395" y="483" class="s7_70">-</text>
<text x="412" y="483" class="sh_70">s</text>
<text x="423" y="483" class="si_70">2</text>
<text x="436" y="483" class="s6_70">x</text>
<g clip-path="url(#c9_70)">
<path d="M424.1,469.8H446" class="g6_70"/>
</g>
<text x="449" y="483" class="s5_70">by re²ecting about the </text>
<text x="590" y="483" class="s6_70">y</text>
<text x="597" y="483" class="s5_70">-axis.</text>
<path d="M794,574.7C793.6,559.3,763.3,547,727.1,536.9M622.7,574.7c.3,-12,18.4,-44.6,43.6,-63.4M496.7,574.4c.4,15.4,30.6,27.6,66.8,37.8M389.7,574.7c.5,-13.1,21,-23.5,51.5,-33.4M193.6,616.6c.2,-18.6,50.2,-33.8,100.6,-46.2" class="g1_70"/>
<path d="M72.7,574.7c0,-14.8,30.7,-27.7,66.8,-37.8" class="g0_70"/>
<text x="69" y="665" class="sd_70">(a) </text>
<text x="87" y="665" class="sk_70">y=œ„</text>
<text x="117" y="666" class="sk_70">x</text>
<text x="191" y="665" class="sd_70">(b) </text>
<text x="210" y="665" class="sl_70">y=œ„-2</text>
<text x="239" y="666" class="sl_70">x</text>
<text x="342" y="665" class="sd_70">(c) </text>
<text x="359" y="665" class="sl_70">y=œ</text>
<text transform="matrix(1.1,0,0,1,389,665)" class="sl_70">„„„„</text>
<text x="389" y="666" class="sl_70">x-2</text>
<text x="494" y="665" class="sd_70">(d) </text>
<text x="513" y="665" dx="0,0,0,1.3,0,-6" class="sl_70">y=_œ„x</text>
<text x="618" y="665" class="sd_70">(e) </text>
<text x="635" y="665" dx="0,0,0,1.3,0" class="sl_70">y=2œ„</text>
<text x="673" y="666" class="sl_70">x</text>
<text x="749" y="664" dx="0,0,1.3,0" class="sd_70">(f) </text>
<text x="767" y="664" class="sl_70">y=œ</text>
<text transform="matrix(1.15,0,0,1,796,664)" class="sl_70">„„</text>
<text x="797" y="664" class="sl_70">_x</text>
<path d="M725.6,574.7h90.9" class="g3_70"/>
<path fill-rule="evenodd" d="M816.5,574.7l-1.6,-2.5l6.5,2.5l-6.5,2.4Z" class="g2_70"/>
<path d="M794,640.5V511.7" class="g3_70"/>
<path fill-rule="evenodd" d="M794,511.7l-2.5,1.6l2.5,-6.5l2.4,6.5Z" class="g2_70"/>
<text x="783" y="587" class="sm_70">0</text>
<text x="815" y="586" class="sm_70">x</text>
<text x="782" y="512" class="sm_70">y</text>
<path d="M598,574.7h93.9" class="g3_70"/>
<path fill-rule="evenodd" d="M691.9,574.7l-1.7,-2.5l6.6,2.5l-6.6,2.4Z" class="g2_70"/>
<path d="M622.7,640.5V511.7" class="g3_70"/>
<path fill-rule="evenodd" d="M622.7,511.7l-2.4,1.6l2.4,-6.5l2.5,6.5Z" class="g2_70"/>
<text x="612" y="587" class="sm_70">0</text>
<text x="690" y="585" class="sm_70">x</text>
<text x="611" y="512" class="sm_70">y</text>
<path d="M478.8,574.7h87" class="g3_70"/>
<path fill-rule="evenodd" d="M565.8,574.7l-1.6,-2.5l6.5,2.5l-6.5,2.4Z" class="g2_70"/>
<path d="M496.7,640.5V511.7" class="g3_70"/>
<path fill-rule="evenodd" d="M496.7,511.7l-2.5,1.6l2.5,-6.5l2.4,6.5Z" class="g2_70"/>
<text x="486" y="589" class="sm_70">0</text>
<text x="564" y="587" class="sm_70">x</text>
<text x="485" y="512" class="sm_70">y</text>
<text x="386" y="591" class="sm_70">2</text>
<text x="336" y="588" class="sm_70">0</text>
<text x="443" y="586" class="sm_70">x</text>
<text x="335" y="512" class="sm_70">y</text>
<path d="M328.5,574.7H444.8" class="g3_70"/>
<path fill-rule="evenodd" d="M444.8,574.7l-1.6,-2.5l6.5,2.5l-6.5,2.4Z" class="g2_70"/>
<path d="M346.8,640.5V511.7" class="g3_70"/>
<path fill-rule="evenodd" d="M346.8,511.7l-2.5,1.6l2.5,-6.5l2.4,6.5Z" class="g2_70"/>
<path d="M389.7,571.6v6.1m-214,-3H297.2" class="g3_70"/>
<path fill-rule="evenodd" d="M297.2,574.7l-1.6,-2.5l6.5,2.5l-6.5,2.4Z" class="g2_70"/>
<path d="M193.7,640.5V511.7" class="g3_70"/>
<path fill-rule="evenodd" d="M193.7,511.7l-2.4,1.6l2.4,-6.5l2.5,6.5Z" class="g2_70"/>
<path d="M190.7,617.3h6.1" class="g3_70"/>
<text x="173" y="621" dx="0,.2" class="sm_70">_2</text>
<text x="183" y="588" class="sm_70">0</text>
<text x="295" y="586" class="sm_70">x</text>
<text x="182" y="512" class="sm_70">y</text>
<text x="61" y="557" class="sm_70">1</text>
<text x="92" y="591" class="sm_70">1</text>
<text x="62" y="588" class="sm_70">0</text>
<text x="140" y="586" class="sm_70">x</text>
<text x="61" y="512" class="sm_70">y</text>
<path d="M53.7,574.7h88.2M69.6,553.4h6.2M94,571.6v6.1" class="g3_70"/>
<path fill-rule="evenodd" d="M141.9,574.7l-1.7,-2.5l6.6,2.5l-6.6,2.4Z" class="g2_70"/>
<path d="M72.7,640.5V511.7" class="g3_70"/>
<path fill-rule="evenodd" d="M72.7,511.7l-2.4,1.6l2.4,-6.5l2.4,6.5Z" class="g2_70"/>
<text x="812" y="694" class="sn_70">■</text>
<text x="286" y="721" dx="0,.3,.3,.3,.3,.3,.3,.2" class="sf_70">EXAMPLE </text>
<text x="357" y="721" class="sg_70">2</text>
<text x="374" y="721" dx="0,0,-.2,0,0,0,0,0,0,0,0,0,0,0,0,0,0,0,0,0,0,0,0,0,0,0,0,0,0,0,0,0,0" class="s5_70">Sketch the graph of the function </text>
<text x="576" y="721" class="s6_70">f</text>
<text x="583" y="721" class="so_70">s</text>
<text x="589" y="721" class="s6_70">x</text>
<text x="596" y="721" class="so_70">d</text>
<text x="605" y="721" class="s7_70">-</text>
<text x="623" y="721" class="s6_70">x</text>
<text x="631" y="715" class="sp_70">2</text>
<text x="640" y="721" class="si_70">1</text>
<text x="657" y="721" class="s5_70">6</text>
<text x="666" y="721" class="s6_70">x</text>
<text x="677" y="721" class="si_70">1</text>
<text x="694" y="721" class="s5_70">10.</text>
<text x="286" y="749" dx="0,.3,.3,.3,.3,.3,.3,.3,.1" class="sj_70">SOLUTION </text>
<text x="357" y="749" class="s5_70">Completing the square, we write the equation of the graph as</text>
<text x="445" y="776" class="s6_70">y</text>
<text x="456" y="776" class="s7_70">-</text>
<text x="473" y="776" class="s6_70">x</text>
<text x="482" y="770" class="sp_70">2</text>
<text x="491" y="776" class="si_70">1</text>
<text x="508" y="776" class="s5_70">6</text>
<text x="517" y="776" class="s6_70">x</text>
<text x="528" y="776" class="si_70">1</text>
<text x="545" y="776" class="s5_70">10</text>
<text x="565" y="776" class="s7_70">-</text>
<text x="582" y="776" class="so_70">s</text>
<text x="588" y="776" class="s6_70">x</text>
<text x="599" y="776" class="si_70">1</text>
<text x="617" y="776" class="s5_70">3</text>
<text x="624" y="776" class="so_70">d</text>
<text x="629" y="770" class="sp_70">2</text>
<text x="639" y="776" class="si_70">1</text>
<text x="656" y="776" class="s5_70">1</text>
<text x="286" y="804" class="s5_70">This means we obtain the desired graph by starting with the parabola </text>
<text x="711" y="804" class="s6_70">y</text>
<text x="723" y="804" class="s7_70">-</text>
<text x="740" y="804" class="s6_70">x</text>
<text x="748" y="798" class="sp_70">2</text>
<text x="757" y="804" class="s5_70">and shift-</text>
<text x="286" y="822" dx="0,0,0,0,0,0,0,0,0,0,0,0,0,0,0,0,0,0,0,0,0,0,0,0,0,0,0,0,0,0,0,0,0,0,0,0,0,0,0,0,0,0,0,-.2,0,0,0,0,0,0,0,0,0,0,0,0,0,0,0,0,0,0" class="s5_70">ing 3 units to the left and then 1 unit upward (see Figure 5).</text>
<text x="414" y="1014" class="sd_70">(a) </text>
<text x="431" y="1014" class="sq_70">y=≈</text>
<text x="624" y="1014" class="sd_70">(b) </text>
<text x="642" y="1014" dx="0,0,0,0,0,0,0,0,.6,0" class="sq_70">y=(x+3)@+1</text>
<text x="753" y="977" class="sr_70">x</text>
<text x="720" y="977" class="sr_70">0</text>
<text x="691" y="981" dx="0,.3" class="sr_70">_1</text>
<text x="653" y="981" dx="0,.2" class="sr_70">_3</text>
<text x="707" y="951" class="sr_70">1</text>
<text x="707" y="849" class="sr_70">y</text>
<path d="M587,965.5H755.2" class="g3_70"/>
<path fill-rule="evenodd" d="M755.2,965.5L753.6,963l6.5,2.5l-6.5,2.4Z" class="g2_70"/>
<path d="M718.1,990.1v-142" class="g3_70"/>
<path fill-rule="evenodd" d="M718.1,848.1l-2.5,1.7l2.5,-6.5l2.4,6.5Z" class="g2_70"/>
<path d="M662.8,962v6.1M681.1,962v6.1M715.6,947h6.2m-22.4,15v6.1" class="g3_70"/>
<path d="M704.9,850.7c0,0,-19.2,95.2,-42.1,96.3c-22.2,0,-41.3,-96.3,-41.3,-96.3" class="g1_70"/>
<text x="620" y="956" dx="0,0,.2,0,0,0,0" class="sr_70">(_3, 1)</text>
<path d="M661.5,946.8c0,-.9,.8,-1.7,1.7,-1.7c1,0,1.8,.8,1.8,1.7c0,1,-.8,1.8,-1.8,1.8c-.9,0,-1.7,-.8,-1.7,-1.8Z" class="g7_70"/>
<path d="M661.5,946.8c0,-.9,.8,-1.7,1.7,-1.7c1,0,1.8,.8,1.8,1.7c0,1,-.8,1.8,-1.8,1.8c-.9,0,-1.7,-.8,-1.7,-1.8Z" class="g8_70"/>
<text x="524" y="977" class="sr_70">x</text>
<path d="M348.8,965.3H526.2" class="g3_70"/>
<path fill-rule="evenodd" d="M526.2,965.3l-1.7,-2.5l6.5,2.5l-6.5,2.4Z" class="g2_70"/>
<text x="427" y="978" class="sr_70">0</text>
<text x="426" y="846" class="sr_70">y</text>
<path d="M437.1,992.2V845.7" class="g3_70"/>
<path fill-rule="evenodd" d="M437.1,845.7l-2.5,1.6l2.5,-6.5l2.4,6.5Z" class="g2_70"/>
<path d="M483.8,847.9c0,0,-24.9,116.5,-46.6,116.9c-24.1,0,-47,-116.9,-47,-116.9" class="g0_70"/>
<text x="812" y="1020" class="sn_70">■</text>
<text x="211" y="324" dx="0,.3,.3,.3,.3,.3,.1" class="ss_70">FIGURE </text>
<text x="264" y="324" class="st_70">3</text>
<text x="54" y="690" dx="0,.3,.3,.3,.3,.3,.1" class="ss_70">FIGURE </text>
<text x="106" y="690" class="st_70">4</text>
<text x="212" y="1011" dx="0,.3,.3,.3,.3,.3,.1" class="ss_70">FIGURE </text>
<text x="265" y="1011" class="st_70">5</text>
<text x="121" y="1076" class="su_70">Copyright 2016 Cengage Learning. All Rights Reserved. May not be copied, scanned, or duplicated, in whole or in part. Due to electronic rights, some third party content may be suppressed from the eBook and/or eChapter(s).</text>
<text x="106" y="1087" class="su_70">Editorial review has deemed that any suppressed content does not materially affect the overall learning experience. Cengage Learning reserves the right to remove additional content at any time if subsequent rights restrictions require it.</text>

</g>

<!-- Any embedded fonts defined here -->
<style type="text/css" ><![CDATA[

@font-face {
	font-family: BeaconDingbatsTypeOne_12w;
	src: url("fonts/BeaconDingbatsTypeOne_12w.woff") format("woff");
}

@font-face {
	font-family: MathematicalPiLTStd-1_rr;
	src: url("fonts/MathematicalPiLTStd-1_rr.woff") format("woff");
}

@font-face {
	font-family: MathematicalPiLTStd-3_ry;
	src: url("fonts/MathematicalPiLTStd-3_ry.woff") format("woff");
}

@font-face {
	font-family: MathematicalPiLTStd-5_vb;
	src: url("fonts/MathematicalPiLTStd-5_vb.woff") format("woff");
}

@font-face {
	font-family: MyriadPro-BoldSemiCn_90;
	src: url("fonts/MyriadPro-BoldSemiCn_90.woff") format("woff");
}

@font-face {
	font-family: MyriadPro-Bold_74;
	src: url("fonts/MyriadPro-Bold_74.woff") format("woff");
}

@font-face {
	font-family: MyriadPro-Regular_4i;
	src: url("fonts/MyriadPro-Regular_4i.woff") format("woff");
}

@font-face {
	font-family: MyriadPro-Semibold_49;
	src: url("fonts/MyriadPro-Semibold_49.woff") format("woff");
}

@font-face {
	font-family: TECHMath-Mix_13x;
	src: url("fonts/TECHMath-Mix_13x.woff") format("woff");
}

@font-face {
	font-family: TECHMath-Mix_14s;
	src: url("fonts/TECHMath-Mix_14s.woff") format("woff");
}

@font-face {
	font-family: TECHMath-Mix_16a;
	src: url("fonts/TECHMath-Mix_16a.woff") format("woff");
}

@font-face {
	font-family: TECHMath-Mix_16e;
	src: url("fonts/TECHMath-Mix_16e.woff") format("woff");
}

@font-face {
	font-family: TECHMath-Mix_1cl;
	src: url("fonts/TECHMath-Mix_1cl.woff") format("woff");
}

@font-face {
	font-family: TECHMath-Mix_1cp;
	src: url("fonts/TECHMath-Mix_1cp.woff") format("woff");
}

@font-face {
	font-family: TECHMath-Mix_1ct;
	src: url("fonts/TECHMath-Mix_1ct.woff") format("woff");
}

@font-face {
	font-family: Times-Roman_4n;
	src: url("fonts/Times-Roman_4n.woff") format("woff");
}

@font-face {
	font-family: Times-Roman_n6;
	src: url("fonts/Times-Roman_n6.woff") format("woff");
}

@font-face {
	font-family: TimesLTStd-Italic_o3;
	src: url("fonts/TimesLTStd-Italic_o3.woff") format("woff");
}

@font-face {
	font-family: TimesLTStd-Roman_143;
	src: url("fonts/TimesLTStd-Roman_143.woff") format("woff");
}

@font-face {
	font-family: ZapfDingbatsITC_my;
	src: url("fonts/ZapfDingbatsITC_my.woff") format("woff");
}

]]></style>

</svg>
