<?xml version="1.0" encoding="UTF-8" standalone="no"?>
<!DOCTYPE svg PUBLIC "-//W3C//DTD SVG 1.1//EN"
"http://www.w3.org/Graphics/SVG/1.1/DTD/svg11.dtd">


<!-- Page 72 -->
<svg x="0" y="0" width="931" height="1096" viewBox="0 0 931 1096" version="1.1" xmlns="http://www.w3.org/2000/svg" xmlns:xlink="http://www.w3.org/1999/xlink"
style="display: block;margin-left: auto;margin-right: auto;">
<defs>
<clipPath id="c_72"><path d="M0,0H931V1096H0Z"/></clipPath>
<clipPath id="c0_72"><path d="M304.6,814.7V797.5h69.5v17.2Z"/></clipPath>
<clipPath id="c1_72"><path d="M583.6,815V797.5h96.2V815Z"/></clipPath>
<clipPath id="c2_72"><path d="M353.4,834.8V817.4H531.6v17.4Z"/></clipPath>
<clipPath id="c3_72"><path d="M583,906.2V864.1H688.8v42.1Z"/></clipPath>
<clipPath id="c4_72"><path d="M433.5,1005.7V988.5h96.6v17.2Z"/></clipPath>

<style type="text/css"><![CDATA[
text { white-space: pre; }
path, image { pointer-events: none; }

.s1_72{
font-size: 15.28px;
font-family: MyriadPro-Semibold_49;
fill: #231F20;
}
.s2_72{
font-size: 12.22px;
font-family: MyriadPro-Semibold_49;
fill: #231F20;
}
.s3_72{
font-size: 13.75px;
font-family: MyriadPro-Semibold_49;
fill: #231F20;
}
.s4_72{
font-size: 12.22px;
font-family: MyriadPro-Regular_4i;
fill: #231F20;
}
.s5_72{
font-size: 13.75px;
font-family: MyriadPro-Semibold_49;
fill: #EC008C;
}
.s6_72{
font-size: 15.28px;
font-family: TimesLTStd-Roman_143;
fill: #231F20;
}
.s7_72{
font-size: 10.69px;
font-family: TimesLTStd-Roman_143;
fill: #231F20;
}
.s8_72{
font-size: 15.28px;
font-family: MathematicalPiLTStd-3_ry;
fill: #231F20;
}
.s9_72{
font-size: 15.28px;
font-family: MathematicalPiLTStd-1_rr;
fill: #231F20;
}
.sa_72{
font-size: 15.28px;
font-family: MathematicalPiLTStd-5_vb;
fill: #231F20;
}
.sb_72{
font-size: 15.28px;
font-family: TimesLTStd-Italic_o3;
fill: #231F20;
}
.sc_72{
font-size: 15.28px;
font-family: MathematicalPi-One-Italic_x2;
fill: #231F20;
}
.sd_72{
font-size: 47.36px;
font-family: MathematicalPiLTStd-3_ry;
fill: #231F20;
}
.se_72{
font-size: 12.99px;
font-family: ZapfDingbatsITC_my;
fill: #EC008C;
}
.sf_72{
font-size: 24.44px;
font-family: MathematicalPiLTStd-3_ry;
fill: #231F20;
}
.sg_72{
font-size: 16.81px;
font-family: MyriadPro-BoldSemiCn_90;
fill: #EC008C;
}
.sh_72{
font-size: 17.57px;
font-family: MyriadPro-BoldSemiCn_90;
fill: #EC008C;
}
.si_72{
font-size: 9.17px;
font-family: TimesLTStd-Roman_143;
fill: #231F20;
}
.sj_72{
font-size: 16.81px;
font-family: MyriadPro-Semibold_49;
fill: #231F20;
}
.sk_72{
font-size: 15.28px;
font-family: BeaconDingbatsTypeOne_12w;
fill: #231F20;
}
.sl_72{
font-size: 15.28px;
font-family: MathematicalPiLTStd-4_v8;
fill: #231F20;
}
.sm_72{
font-size: 14.51px;
font-family: MyriadPro-Bold_74;
fill: #231F20;
}
.sn_72{
font-size: 15.28px;
font-family: MyriadPro-Bold_74;
fill: #231F20;
}
.so_72{
font-size: 12.22px;
font-family: TECHMath-Mix_16e;
fill: #231F20;
}
.sp_72{
font-size: 12.22px;
font-family: TECHMath-Mix_187;
fill: #231F20;
}
.sq_72{
font-size: 12.22px;
font-family: TECHMath-Mix_19t;
fill: #231F20;
}
.sr_72{
font-size: 12.22px;
font-family: TECHMath-Mix_1d9;
fill: #231F20;
}
.ss_72{
font-size: 12.99px;
font-family: Times-Roman_n6;
fill: #231F20;
}
.st_72{
font-size: 12.99px;
font-family: TECHMath-Mix_1d9;
fill: #231F20;
}
.su_72{
font-size: 7.64px;
font-family: Times-Roman_4n;
fill: #000000;
}

.g0_72{
fill: none;
stroke: #231F20;
stroke-width: 0.534;
stroke-linecap: butt;
stroke-linejoin: miter;
}
.g1_72{
fill: none;
stroke: #231F20;
stroke-width: 0.763;
stroke-linecap: butt;
stroke-linejoin: miter;
}
.g2_72{
fill: #CC017A;
}
.g3_72{
fill: none;
stroke: #00AEEF;
stroke-width: 0.916;
stroke-linecap: butt;
stroke-linejoin: round;
stroke-miterlimit: 3;
}
.g4_72{
fill: none;
stroke: #F7931D;
stroke-width: 0.916;
stroke-linecap: butt;
stroke-linejoin: round;
stroke-miterlimit: 3;
}
.g5_72{
fill: none;
stroke: #EC008C;
stroke-width: 0.916;
stroke-linecap: butt;
stroke-linejoin: round;
stroke-miterlimit: 3;
}
.g6_72{
fill: none;
stroke: #231F20;
stroke-width: 0.611;
stroke-linecap: butt;
stroke-linejoin: miter;
stroke-miterlimit: 3;
}
.g7_72{
fill: #231F20;
}

]]></style>

</defs>
<g clip-path="url(#c_72)">
<path d="M0,0
L0,1096
L931,1096
L931,0 Z " 
fill="#FFFFFF" stroke="none"/>
<text x="53" y="64" class="s1_72">40</text>
<text x="126" y="64" dx="0,.2,.2,.2,.2,.2,.2,.1" class="s2_72">CHAPTER </text>
<text x="180" y="64" class="s3_72">1</text>
<text x="200" y="64" dx="0,-.3,.1,.1,.3,.1,.1,.1,.1,.1,.1,.1,.1,.1,.1,.2,.1,.1,.1,.1" class="s4_72">Functions and Models</text>
<text x="287" y="107" dx="0,.3,.3,.3,.3,.3,.3,.3,.1" class="s5_72">SOLUTION </text>
<text x="358" y="107" dx="0,0,0,0,0,0,0,0,0,0,0,0,0,0,0,0,0,0,0,0,0,-.2,0,0,0,0,0,0,0,0,0,0,0,0,0,0,0,0,0,0,0,0,0,0,0,0,0,0,0,0,0,0,0,0,0,0,0,0,0,0,0,0,0,0,0,0,0,0,0,0,0,0" class="s6_72">Notice that each curve resembles a shifted and stretched sine function. </text>
<text x="287" y="126" dx="0,0,0,0,0,0,0,0,0,0,0,0,0,0,0,0,0,0,0,0,0,0,0,0,0,0,0,-.2,0,0,0,0,0,0,0,0,0,0,0,0,0,0,0,0,0,0,0,0,0,0,0,0,0,0,0,0,0,0,0,0,0,0,0,0,0,0,0,0,0,0,0,0,0,0,0,0,0,0,0,0,0,0,0,0" class="s6_72">By looking at the blue curve we see that, at the latitude of Philadelphia, daylight </text>
<text x="287" y="144" class="s6_72">lasts about 14.8 hours on June 21 and 9.2 hours on December 21, so the amplitude </text>
<text x="287" y="162" dx="0,0,0,0,0,0,0,0,0,0,0,-.2,0,0,0,0,0,0,0,-.2,0,0,0,0,0,0,0,0,0,0,0,0,0,0,0,0,0,0,0,-.3,-.2,0,0,0,0,0,0,0,0,0,0,0,0,0,0,0,0,0,0,0,0,0,0,0,0,0,-.2,0,0,-.2,0,0,0,0,0,0,0,0,0,0,0,0,0" class="s6_72">of the curve (the factor by which we have to stretch the sine curve vertically) is </text>
<text x="287" y="174" class="s7_72">1</text>
<path d="M287.5,176.3h5.4" class="g0_72"/>
<text x="287" y="185" class="s7_72">2</text>
<text x="294" y="181" class="s8_72">s</text>
<text x="299" y="181" class="s6_72">14.8</text>
<text x="330" y="181" class="s9_72">2</text>
<text x="348" y="181" class="s6_72">9.2</text>
<text x="367" y="181" class="s8_72">d</text>
<text x="376" y="181" class="sa_72">-</text>
<text x="394" y="181" class="s6_72">2.8.</text>
<text x="305" y="199" dx="0,0,0,0,0,0,0,0,0,-.2,0,0,0,0,0,0,0,0,0,0,0,0,0,0,0,0,0,0,0,0,0,0,0,0,0,0,0,0,0,0,0,0,0,0,0,0,0,0,0,0,-.2,0,0,0,0,0,0,0,0,0,0,0,0,0,0,0,0,0,0,0,0,0,0,0,0,0,0,0,0,0,0,0,0" class="s6_72">By what factor do we need to stretch the sine curve horizontally if we measure the </text>
<text x="287" y="217" class="s6_72">time </text>
<text x="318" y="217" class="sb_72">t</text>
<text x="326" y="217" dx="0,0,0,0,0,0,0,0,0,0,0,0,0,0,0,0,0,0,0,0,0,0,0,0,0,0,0,0,0,0,0,0,0,0,0,0,0,0,0,0,0,0,0,0,0,0,0,0,0,0,0,-.6,0,0,0,0,0,0,0,0,0,0,0,0,0,0,0,0,0,0,0,0,0,0,0,0,0" class="s6_72">in days? Because there are about 365 days in a year, the period of our model </text>
<text x="287" y="236" class="s6_72">should be 365. But the period of </text>
<text x="488" y="236" class="sb_72">y</text>
<text x="500" y="236" class="sa_72">-</text>
<text x="517" y="236" class="s6_72">sin</text>
<text x="538" y="236" class="sb_72">t</text>
<text x="546" y="236" class="s6_72">is 2</text>
<text x="568" y="236" class="sc_72">°</text>
<text x="578" y="236" dx="0,0,0,0,0,0,0,0,0,0,0,0,0,0,0,0,0,0,0,0,0,0,0,0,0,0,0,0,0,0,0,0,-.2,0,0,0,0,0" class="s6_72">, so the horizontal stretching factor </text>
<text x="287" y="254" class="s6_72">is 2</text>
<text x="308" y="254" class="sc_72">°</text>
<text x="318" y="254" class="s8_72">y</text>
<text x="325" y="254" class="s6_72">365.</text>
<text x="305" y="272" dx="0,-1.2,0,0,0,0,0,0,0,0,0,0,0,0,0,0,0,0,0,0,0,0,0,0,0,0,0,0,-.2,0,0,0,-.2,0,0,0,0,0,0,0,0,0,-.2,0,0,0,0,0,0,0,0,0,0,0,0,0,0,0,0,0,0,0,0,0,0,0,0,0,0,0,0,0,0,0,0,0,0,0,0,0" class="s6_72">We also notice that the curve begins its cycle on March 21, the 80th day of the </text>
<text x="287" y="291" dx="0,0,0,0,-.6,0,0,0,0,0,0,0,0,0,-.3,-.2,0,0,0,0,0,0,0,0,0,0,0,0,0,0,0,0,0,0,-.2,0,0,0,0,0,0,0,0,0,0,0,0,0,0,0,0,0,0,0,0,0,0,0,0,0,0,0,0,0,0,0,0,0,0,0,0,0,0,0,0,0,0,0,0,0,0,0,0,0,0,0,0,0,0,0,0,0,0" class="s6_72">year, so we have to shift the curve 80 units to the right. ±n addition, we shift it 12 units </text>
<text x="287" y="309" dx="0,0,0,-.2,0,0,0,0,-.3,0,0,0,0,0,0,0,0,0,0,0,0,0,0,0,0,0,0,0,0,0,0,0,0,0,0,0,0,0,0,0,0,0,0,0,0,0,0,0,0,0,0,0,0,0,0,0,0,0,0,0,0,0,0,0,0,0,0,0,0,0,0,0,0" class="s6_72">upward. Therefore we model the length of daylight in Philadelphia on the </text>
<text x="740" y="309" class="sb_72">t</text>
<text x="744" y="309" class="s6_72">th day of the </text>
<text x="287" y="327" class="s6_72">year by the function</text>
<text x="443" y="363" class="sb_72">L</text>
<text x="452" y="363" class="s8_72">s</text>
<text x="457" y="363" class="sb_72">t</text>
<text x="461" y="363" class="s8_72">d</text>
<text x="471" y="363" class="sa_72">-</text>
<text x="488" y="363" class="s6_72">12</text>
<text x="508" y="363" class="s9_72">1</text>
<text x="525" y="363" dx="0,0,0,0,-.8,0,0" class="s6_72">2.8 sin</text>
<text x="565" y="365" class="sd_72">F</text>
<text x="580" y="352" class="s6_72">2</text>
<text x="588" y="352" class="sc_72">°</text>
<path d="M576.4,358.2h27.5" class="g1_72"/>
<text x="578" y="373" class="s6_72">365</text>
<text x="605" y="363" class="s8_72">s</text>
<text x="610" y="363" class="sb_72">t</text>
<text x="618" y="363" class="s9_72">2</text>
<text x="636" y="363" class="s6_72">80</text>
<text x="651" y="363" class="s8_72">d</text>
<text x="656" y="365" class="sd_72">G</text>
<text x="813" y="372" class="se_72">■</text>
<text x="305" y="413" dx="0,0,0,0,0,0,0,0,.2,0,0,0,0,0,0,0,0,0,0,0,0,0,0,.2,0,0,.2,0,0,0,0,.2,0,0,0,0,0,0,0,0,.2,0,0,.2,0,0,0,0,0,0,.2,0,0,0" class="s6_72">Another transformation of some interest is taking the </text>
<text x="634" y="413" dx="0,0,0,0,0,0,0,0,0,.2,0,0,0,0" class="sb_72">absolute value</text>
<text x="727" y="413" dx="0,0,0,.2,0,.2,0,0,0,0,0,0,0,0,0,.2,0,0" class="s6_72">of a function. ±f </text>
<text x="287" y="431" class="sb_72">y</text>
<text x="299" y="431" class="sa_72">-</text>
<text transform="matrix(0.63,0,0,1,316,435)" class="sf_72">|</text>
<text x="323" y="431" class="sb_72">f</text>
<text x="330" y="431" class="s8_72">s</text>
<text x="335" y="431" class="sb_72">x</text>
<text x="342" y="431" class="s8_72">d</text>
<text transform="matrix(0.63,0,0,1,347,435)" class="sf_72">|</text>
<text x="351" y="431" dx="0,0,.7,0,0,0,0,.7,0,0,0,0,0,0,0,0,0,.7,0,0,.7,0,0,0,.7,0,0,0,0,0,0,0,0,0,.7,0,0,.7,0,0,0,0,0,0,0,0,.7,-.4,0,0,0,0,0" class="s6_72">, then according to the deInition of absolute value, </text>
<text x="672" y="431" class="sb_72">y</text>
<text x="684" y="431" class="sa_72">-</text>
<text x="701" y="431" class="sb_72">f</text>
<text x="707" y="431" class="s8_72">s</text>
<text x="713" y="431" class="sb_72">x</text>
<text x="720" y="431" class="s8_72">d</text>
<text x="729" y="431" class="s6_72">when </text>
<text x="769" y="431" class="sb_72">f</text>
<text x="776" y="431" class="s8_72">s</text>
<text x="782" y="431" class="sb_72">x</text>
<text x="788" y="431" class="s8_72">d</text>
<text x="798" y="431" class="s9_72">&gt;</text>
<text x="815" y="431" class="s6_72">0 </text>
<text x="287" y="450" class="s6_72">and </text>
<text x="313" y="450" class="sb_72">y</text>
<text x="324" y="450" class="sa_72">-</text>
<text x="341" y="450" class="s9_72">2</text>
<text x="354" y="450" class="sb_72">f</text>
<text x="361" y="450" class="s8_72">s</text>
<text x="367" y="450" class="sb_72">x</text>
<text x="373" y="450" class="s8_72">d</text>
<text x="382" y="450" class="s6_72">when </text>
<text x="421" y="450" class="sb_72">f</text>
<text x="427" y="450" class="s8_72">s</text>
<text x="433" y="450" class="sb_72">x</text>
<text x="440" y="450" class="s8_72">d</text>
<text x="450" y="450" class="s9_72">,</text>
<text x="467" y="450" dx="0,0,0,-.5,0,0,0,0,-.2,0,0,0,0,0,-.2,0,0,-.2,0,-.4,0,-.2,0,0,-.2,0,0,0,-.2,0,0,0,-.2,0,0,0,0,0,-.2,0,0" class="s6_72">0. This tells us how to get the graph of </text>
<text x="703" y="450" class="sb_72">y</text>
<text x="715" y="450" class="sa_72">-</text>
<text transform="matrix(0.63,0,0,1,732,454)" class="sf_72">|</text>
<text x="739" y="450" class="sb_72">f</text>
<text x="746" y="450" class="s8_72">s</text>
<text x="751" y="450" class="sb_72">x</text>
<text x="758" y="450" class="s8_72">d</text>
<text transform="matrix(0.63,0,0,1,763,454)" class="sf_72">|</text>
<text x="771" y="450" dx="0,0,0,0,0,-.2,0,0,0" class="s6_72">from the </text>
<text x="287" y="468" class="s6_72">graph of </text>
<text x="342" y="468" class="sb_72">y</text>
<text x="354" y="468" class="sa_72">-</text>
<text x="371" y="468" class="sb_72">f</text>
<text x="377" y="468" class="s8_72">s</text>
<text x="383" y="468" class="sb_72">x</text>
<text x="390" y="468" class="s8_72">d</text>
<text x="395" y="468" dx="0,0,-.3,0,0,0,0,0,0,0,0,0,0,0,0,0,0,0,0,0,0,0,0,0,0,0,0,0,0,0,0,0,0,0,0,0,0,-.2,-.2,0,0,0,0,0" class="s6_72">: The part of the graph that lies above the </text>
<text x="650" y="468" class="sb_72">x</text>
<text x="657" y="468" class="s6_72">-axis remains the same; the </text>
<text x="287" y="486" dx="0,0,0,0,0,0,0,0,0,0,0,0,0,0,0,0,0,0,0,-.4,0,0,0,0,0" class="s6_72">part that lies below the </text>
<text x="430" y="486" class="sb_72">x</text>
<text x="437" y="486" class="s6_72">-axis is re²ected about the </text>
<text x="601" y="486" class="sb_72">x</text>
<text x="608" y="486" class="s6_72">-axis.</text>
<text x="287" y="520" dx="0,.3,.3,.3,.3,.3,.3,.2" class="sg_72">EXAMPLE </text>
<text x="358" y="520" class="sh_72">5</text>
<text x="375" y="520" dx="0,0,-.2,0,0,0,0,0,0,0,0,0,0,0,0,0,0,0,0,0,0,0,0,0,0,0,0,0,0,0,0,0,0" class="s6_72">Sketch the graph of the function </text>
<text x="576" y="520" class="sb_72">y</text>
<text x="587" y="520" class="sa_72">-</text>
<text transform="matrix(0.63,0,0,1,604,524)" class="sf_72">|</text>
<text x="611" y="520" class="sb_72">x</text>
<text x="619" y="514" class="si_72">2</text>
<text x="628" y="520" class="s9_72">2</text>
<text x="645" y="520" class="s6_72">1</text>
<text transform="matrix(0.63,0,0,1,655,524)" class="sf_72">|</text>
<text x="660" y="520" class="s6_72">.</text>
<text x="287" y="548" dx="0,.3,.3,.3,.3,.3,.3,.3,.1" class="s5_72">SOLUTION </text>
<text x="358" y="548" dx="0,-1.2,0,0,0,0,0,0,0,0,0,0,0,0,0,0,0,0,0,0,0,0,0,0,0,0,0" class="s6_72">We Irst graph the parabola </text>
<text x="528" y="548" class="sb_72">y</text>
<text x="539" y="548" class="sa_72">-</text>
<text x="556" y="548" class="sb_72">x</text>
<text x="565" y="541" class="si_72">2</text>
<text x="574" y="548" class="s9_72">2</text>
<text x="591" y="548" class="s6_72">1 in Figure 10(a) by shifting the </text>
<text x="287" y="566" class="s6_72">parabola </text>
<text x="344" y="566" class="sb_72">y</text>
<text x="355" y="566" class="sa_72">-</text>
<text x="372" y="566" class="sb_72">x</text>
<text x="381" y="560" class="si_72">2</text>
<text x="389" y="566" dx="0,0,-.4,0,0,-.2,0,0,0,0,0,0,0,0,0,0,0,-.5,-1.2,0,0,0,0,0,0,0,0,0,0,0,0,0,0,0,0,0,0,0,0,0,0,0,0,0,0,0,0,0,-.4,0,0,0,0,0" class="s6_72">downward 1 unit. We see that the graph lies below the </text>
<text x="723" y="566" class="sb_72">x</text>
<text x="730" y="566" class="s6_72">-axis when </text>
<text x="287" y="584" class="s9_72">2</text>
<text x="299" y="584" class="s6_72">1</text>
<text x="312" y="584" class="s9_72">,</text>
<text x="329" y="584" class="sb_72">x</text>
<text x="340" y="584" class="s9_72">,</text>
<text x="358" y="584" class="s6_72">1, so we re²ect that part of the graph about the </text>
<text x="646" y="584" class="sb_72">x</text>
<text x="653" y="584" class="s6_72">-axis to obtain the graph of </text>
<text x="287" y="603" class="sb_72">y</text>
<text x="299" y="603" class="sa_72">-</text>
<text transform="matrix(0.63,0,0,1,316,606)" class="sf_72">|</text>
<text x="322" y="603" class="sb_72">x</text>
<text x="331" y="596" class="si_72">2</text>
<text x="340" y="603" class="s9_72">2</text>
<text x="357" y="603" class="s6_72">1</text>
<text transform="matrix(0.63,0,0,1,365,606)" class="sf_72">|</text>
<text x="373" y="603" dx="0,0,0,0,0,0,0,0,0,0,0,0,1.1,0,0,0" class="s6_72">in Figure 10(b).</text>
<text x="813" y="603" class="se_72">■</text>
<path d="M288.8,639.7c0,0,-1.6,0,-1.6,1.5v9.2c0,0,0,1.5,1.6,1.5h9.1c0,0,1.6,0,1.6,-1.5v-9.2c0,0,0,-1.5,-1.6,-1.5Z" class="g2_72"/>
<text x="307" y="651" dx="0,-.3,0,0,0,0,0,-.1,0,0,0,0,0,0,0,0,0,-.5,0,0,.3,0,0,0,0" class="sj_72">Combinations of Functions</text>
<text x="287" y="674" dx="0,-1.2,-.2,0,-.2,0,0,0,0,0,0,0,0,0" class="s6_72">Two functions </text>
<text x="380" y="674" class="sb_72">f</text>
<text x="390" y="674" class="s6_72">and </text>
<text x="415" y="674" class="sk_72">t</text>
<text x="426" y="674" dx="0,0,0,0,-.2,0,0,-.2,0,0,0,0,0,0,0,0,-.2,0,0,-.2,0,0,0,0,-.2,0,-.4,0,-.2,0,0,0,0,0,0,0,0,0" class="s6_72">can be combined to form new functions </text>
<text x="672" y="674" class="sb_72">f</text>
<text x="681" y="674" class="s9_72">1</text>
<text x="698" y="674" class="sk_72">t</text>
<text x="705" y="674" class="s6_72">, </text>
<text x="715" y="674" class="sb_72">f</text>
<text x="723" y="674" class="s9_72">2</text>
<text x="741" y="674" class="sk_72">t</text>
<text x="747" y="674" class="s6_72">, </text>
<text x="757" y="674" class="sb_72">f</text>
<text x="763" y="674" class="sk_72">t</text>
<text x="769" y="674" dx="0,0,-.2,0,0,0" class="s6_72">, and </text>
<text x="805" y="674" class="sb_72">f</text>
<text x="810" y="674" class="s8_72">y</text>
<text x="816" y="674" class="sk_72">t</text>
<text x="287" y="693" dx="0,0,0,.2,0,.2,0,0,0,0,0,0,.2,0,0,0,0,0,0,0,.2,0,0,.2,0,0,0,.2,-.2,0,0,.2,0,0,.2,0,0,0,0,.2,0,0,0,0,0,0,0,0,0,.2,0,0,0,0,0,0,0,-1,0,.2,0,0,0,.2,0,-.4,0,0,0,0,.2,0,0,0,0,.2,0,0,0,0,0,0,0,0,-.1,0,0,0" class="s6_72">in a manner similar to the way we add, subtract, multiply, and divide real numbers. The </text>
<text x="287" y="711" dx="0,0,0,0,0,0,0,0,0,0,0,-.4,0,0,0,0,0,0,0,0,0,0,0,0,0,0,0,0,0,0,0,0,0,0,0,0,0,0,0,0,0,0" class="s6_72">sum and difference functions are deIned by</text>
<text x="374" y="743" class="s8_72">s</text>
<text x="382" y="743" class="sb_72">f</text>
<text x="391" y="743" class="s9_72">1</text>
<text x="408" y="743" class="sk_72">t</text>
<text x="415" y="743" class="s8_72">ds</text>
<text x="426" y="743" class="sb_72">x</text>
<text x="433" y="743" class="s8_72">d</text>
<text x="442" y="743" class="sa_72">-</text>
<text x="460" y="743" class="sb_72">f</text>
<text x="466" y="743" class="s8_72">s</text>
<text x="472" y="743" class="sb_72">x</text>
<text x="479" y="743" class="s8_72">d</text>
<text x="489" y="743" class="s9_72">1</text>
<text x="506" y="743" class="sk_72">t</text>
<text x="513" y="743" class="s8_72">s</text>
<text x="519" y="743" class="sb_72">x</text>
<text x="525" y="743" class="s8_72">d</text>
<text x="580" y="743" class="s8_72">s</text>
<text x="588" y="743" class="sb_72">f</text>
<text x="597" y="743" class="s9_72">2</text>
<text x="614" y="743" class="sk_72">t</text>
<text x="621" y="743" class="s8_72">ds</text>
<text x="632" y="743" class="sb_72">x</text>
<text x="639" y="743" class="s8_72">d</text>
<text x="648" y="743" class="sa_72">-</text>
<text x="666" y="743" class="sb_72">f</text>
<text x="672" y="743" class="s8_72">s</text>
<text x="678" y="743" class="sb_72">x</text>
<text x="685" y="743" class="s8_72">d</text>
<text x="694" y="743" class="s9_72">2</text>
<text x="712" y="743" class="sk_72">t</text>
<text x="718" y="743" class="s8_72">s</text>
<text x="724" y="743" class="sb_72">x</text>
<text x="731" y="743" class="s8_72">d</text>
<text x="287" y="774" dx="0,0,0,.5,0,0,0,.5,0,0,0,0,0,0,.5,0,0" class="s6_72">±f the domain of </text>
<text x="394" y="774" class="sb_72">f</text>
<text x="404" y="774" class="s6_72">is </text>
<text x="420" y="774" class="sb_72">A</text>
<text x="433" y="774" dx="0,0,0,0,.5,0,0,0,.5,0,0,0,0,0,0,.5,0,0" class="s6_72">and the domain of </text>
<text x="550" y="774" class="sk_72">t</text>
<text x="561" y="774" class="s6_72">is </text>
<text x="575" y="774" class="sb_72">B</text>
<text x="585" y="774" dx="0,0,.5,0,0,0,0,.5,0,0,0,.5,0,0,0,0,0,0,.5,0,0" class="s6_72">, then the domain of </text>
<text x="716" y="774" class="sb_72">f</text>
<text x="724" y="774" class="s9_72">1</text>
<text x="742" y="774" class="sk_72">t</text>
<text x="753" y="774" dx="0,0,0,.5,0,0,0,.5,0,0,0,0,-.3" class="s6_72">is the inter-</text>
<text x="287" y="792" class="s6_72">section </text>
<text x="335" y="792" class="sb_72">A</text>
<text x="349" y="792" class="sl_72">&gt;</text>
<text x="366" y="792" class="sb_72">B</text>
<text x="380" y="792" dx="0,0,0,0,0,0,0,0,.4,0,0,0,0" class="s6_72">because both </text>
<text x="466" y="792" class="sb_72">f</text>
<text x="472" y="792" class="s8_72">s</text>
<text x="478" y="792" class="sb_72">x</text>
<text x="485" y="792" class="s8_72">d</text>
<text x="494" y="792" class="s6_72">and </text>
<text x="521" y="792" class="sk_72">t</text>
<text x="527" y="792" class="s8_72">s</text>
<text x="533" y="792" class="sb_72">x</text>
<text x="540" y="792" class="s8_72">d</text>
<text x="549" y="792" dx="0,0,-.3,-.2,0,.4,0,0,.4,0,0,.4,0,0,0,0,0,0,0,.4,-.2,0,0,.4,-.2,0,0,0,0,0,0,0,.4,0,0,0,.4,0,0,0,0,0" class="s6_72">have to be deIned. For example, the domain</text>
<text x="287" y="811" class="s6_72">of </text>
<text x="306" y="811" class="sb_72">f</text>
<text x="313" y="811" class="s8_72">s</text>
<text x="319" y="811" class="sb_72">x</text>
<text x="325" y="811" class="s8_72">d</text>
<text x="335" y="811" class="sa_72">-</text>
<text x="352" y="812" class="sk_72">s</text>
<text x="365" y="811" class="sb_72">x</text>
<g clip-path="url(#c0_72)">
<path d="M364.6,797.9h9.9" class="g1_72"/>
</g>
<text x="378" y="811" class="s6_72">is </text>
<text x="394" y="811" class="sb_72">A</text>
<text x="408" y="811" class="sa_72">-</text>
<text x="425" y="811" class="s8_72">f</text>
<text x="430" y="811" class="s6_72">0, </text>
<text x="445" y="811" class="s9_72">`</text>
<text x="456" y="811" class="s8_72">d</text>
<text x="465" y="811" dx="0,0,0,0,.8,0,0,0,.8,0,0,0,0,0,0,.8,0,0" class="s6_72">and the domain of </text>
<text x="583" y="811" class="sk_72">t</text>
<text x="590" y="811" class="s8_72">s</text>
<text x="596" y="811" class="sb_72">x</text>
<text x="602" y="811" class="s8_72">d</text>
<text x="612" y="811" class="sa_72">-</text>
<text x="629" y="812" class="sk_72">s</text>
<text x="641" y="811" class="s6_72">2</text>
<text x="653" y="811" class="s9_72">2</text>
<text x="670" y="811" class="sb_72">x</text>
<g clip-path="url(#c1_72)">
<path d="M641.5,797.9h38.6" class="g1_72"/>
</g>
<text x="684" y="811" class="s6_72">is </text>
<text x="699" y="811" class="sb_72">B</text>
<text x="713" y="811" class="sa_72">-</text>
<text x="730" y="811" class="s8_72">s</text>
<text x="735" y="811" dx="0,-.8" class="s9_72">2`</text>
<text x="757" y="811" class="s6_72">, 2</text>
<text x="773" y="811" class="s8_72">g</text>
<text x="778" y="811" dx="0,0,.8,0,0,.8,0,0" class="s6_72">, so the</text>
<text x="287" y="831" class="s6_72">domain of </text>
<text x="353" y="831" class="s8_72">s</text>
<text x="361" y="831" class="sb_72">f</text>
<text x="370" y="831" class="s9_72">1</text>
<text x="387" y="831" class="sk_72">t</text>
<text x="394" y="831" class="s8_72">ds</text>
<text x="405" y="831" class="sb_72">x</text>
<text x="412" y="831" class="s8_72">d</text>
<text x="422" y="831" class="sa_72">-</text>
<text x="439" y="831" class="sk_72">s</text>
<text x="450" y="831" class="sb_72">x</text>
<path d="M451,817.7h9.2" class="g1_72"/>
<text x="464" y="831" class="s9_72">1</text>
<text x="481" y="831" class="sk_72">s</text>
<text x="493" y="831" class="s6_72">2</text>
<text x="505" y="831" class="s9_72">2</text>
<text x="522" y="831" class="sb_72">x</text>
<g clip-path="url(#c2_72)">
<path d="M493.4,817.7H532" class="g1_72"/>
</g>
<text x="535" y="831" class="s6_72">is </text>
<text x="550" y="831" class="sb_72">A</text>
<text x="564" y="831" class="sl_72">&gt;</text>
<text x="581" y="831" class="sb_72">B</text>
<text x="595" y="831" class="sa_72">-</text>
<text x="612" y="831" class="s8_72">f</text>
<text x="617" y="831" class="s6_72">0, 2</text>
<text x="640" y="831" class="s8_72">g</text>
<text x="645" y="831" class="s6_72">.</text>
<text x="305" y="849" dx="0,0,0,0,0,0,0,0,0,-1,0,0,0,0,0,0,0,0,0,0,0,0,0,0,0,0,0,0,0,0,0,0,0,0,0,0,0,0,0,0,0,0,0,0,0,0,0,0,0,0,0,0,0,0,0,0,0,0,0" class="s6_72">Similarly, the product and quotient functions are deIned by</text>
<text x="421" y="891" class="s8_72">s</text>
<text x="430" y="891" class="sb_72">f</text>
<text x="435" y="891" class="sk_72">t</text>
<text x="442" y="891" class="s8_72">ds</text>
<text x="453" y="891" class="sb_72">x</text>
<text x="460" y="891" class="s8_72">d</text>
<text x="469" y="891" class="sa_72">-</text>
<text x="487" y="891" class="sb_72">f</text>
<text x="493" y="891" class="s8_72">s</text>
<text x="499" y="891" class="sb_72">x</text>
<text x="506" y="891" class="s8_72">d</text>
<text x="512" y="891" class="sk_72">t</text>
<text x="519" y="891" class="s8_72">s</text>
<text x="525" y="891" class="sb_72">x</text>
<text x="532" y="891" class="s8_72">d</text>
<text x="582" y="893" class="sd_72">S</text>
<text x="599" y="880" class="sb_72">f</text>
<path d="M593.9,886h12.6" class="g1_72"/>
<text x="596" y="901" class="sk_72">t</text>
<text x="606" y="893" class="sd_72">D</text>
<text x="616" y="891" class="s8_72">s</text>
<text x="622" y="891" class="sb_72">x</text>
<text x="629" y="891" class="s8_72">d</text>
<text x="638" y="891" class="sa_72">-</text>
<text x="662" y="880" class="sb_72">f</text>
<text x="668" y="880" class="s8_72">s</text>
<text x="674" y="880" class="sb_72">x</text>
<text x="681" y="880" class="s8_72">d</text>
<g clip-path="url(#c3_72)">
<path d="M656.6,886h32.6" class="g1_72"/>
</g>
<text x="660" y="901" class="sk_72">t</text>
<text x="666" y="901" class="s8_72">s</text>
<text x="672" y="901" class="sb_72">x</text>
<text x="679" y="901" class="s8_72">d</text>
<text x="287" y="927" dx="0,0,0,0,2.4,0,0,0,0,0,0,2.4,0,0" class="s6_72">The domain of </text>
<text x="390" y="927" class="sb_72">f</text>
<text x="396" y="927" class="sk_72">t</text>
<text x="409" y="927" class="s6_72">is </text>
<text x="426" y="927" class="sb_72">A</text>
<text x="440" y="927" class="sl_72">&gt;</text>
<text x="457" y="927" class="sb_72">B</text>
<text x="466" y="927" dx="0,0,2.4,-.3,0,0,2.4,0,0,2.4,0,0,0,-.3,0,2.4,0,-.4,0,0,0,0,2.4,0,0,2.4,0,2.4,0,0,0,2.4,0,0,2.4,0,0,0,2.4,0,0,0,0,0,0,2.4,0,0" class="s6_72">, but we can’t divide by 0 and so the domain of </text>
<text x="788" y="927" class="sb_72">f</text>
<text x="793" y="927" class="s8_72">y</text>
<text x="800" y="927" class="sk_72">t</text>
<text x="813" y="927" class="s6_72">is </text>
<text x="287" y="946" class="s8_72">h</text>
<text x="293" y="946" class="sb_72">x</text>
<text x="304" y="946" class="sl_72">[</text>
<text x="321" y="946" class="sb_72">A</text>
<text x="335" y="946" class="sl_72">&gt;</text>
<text x="352" y="946" class="sb_72">B</text>
<text transform="matrix(0.63,0,0,1,367,949)" class="sf_72">|</text>
<text x="377" y="946" class="sk_72">t</text>
<text x="383" y="946" class="s8_72">s</text>
<text x="389" y="946" class="sb_72">x</text>
<text x="396" y="946" class="s8_72">d</text>
<text x="405" y="946" class="sa_72">±</text>
<text x="423" y="946" class="s6_72">0</text>
<text x="430" y="946" class="s8_72">j</text>
<text x="435" y="946" dx="0,0,.5,-.2,0,0,.5,0,0,0,0,0,0,0,0,0,.5,0,0" class="s6_72">. For instance, if </text>
<text x="543" y="946" class="sb_72">f</text>
<text x="550" y="946" class="s8_72">s</text>
<text x="556" y="946" class="sb_72">x</text>
<text x="562" y="946" class="s8_72">d</text>
<text x="572" y="946" class="sa_72">-</text>
<text x="589" y="946" class="sb_72">x</text>
<text x="597" y="939" class="si_72">2</text>
<text x="606" y="946" class="s6_72">and </text>
<text x="633" y="946" class="sk_72">t</text>
<text x="639" y="946" class="s8_72">s</text>
<text x="645" y="946" class="sb_72">x</text>
<text x="652" y="946" class="s8_72">d</text>
<text x="662" y="946" class="sa_72">-</text>
<text x="679" y="946" class="sb_72">x</text>
<text x="690" y="946" class="s9_72">2</text>
<text x="708" y="946" dx="0,0,0,.5,0,0,0,0,.5,0,0,0,.5,0,0,0,0,0,0" class="s6_72">1, then the domain </text>
<text x="287" y="964" class="s6_72">of the rational function </text>
<text x="431" y="964" class="s8_72">s</text>
<text x="439" y="964" class="sb_72">f</text>
<text x="444" y="964" class="s8_72">y</text>
<text x="452" y="964" class="sk_72">t</text>
<text x="458" y="964" class="s8_72">ds</text>
<text x="469" y="964" class="sb_72">x</text>
<text x="476" y="964" class="s8_72">d</text>
<text x="486" y="964" class="sa_72">-</text>
<text x="503" y="964" class="sb_72">x</text>
<text x="511" y="958" class="si_72">2</text>
<text x="514" y="964" dx="0,-.1" class="s8_72">ys</text>
<text x="528" y="964" class="sb_72">x</text>
<text x="539" y="964" class="s9_72">2</text>
<text x="556" y="964" class="s6_72">1</text>
<text x="564" y="964" class="s8_72">d</text>
<text x="573" y="964" class="s6_72">is </text>
<text x="587" y="964" class="s8_72">h</text>
<text x="593" y="964" class="sb_72">x</text>
<text transform="matrix(0.63,0,0,1,606,968)" class="sf_72">|</text>
<text x="615" y="964" class="sb_72">x</text>
<text x="626" y="964" class="sa_72">±</text>
<text x="644" y="964" class="s6_72">1</text>
<text x="651" y="964" class="s8_72">j</text>
<text x="656" y="964" class="s6_72">, or </text>
<text x="681" y="964" class="s8_72">s</text>
<text x="686" y="964" class="s9_72">2`</text>
<text x="709" y="964" class="s6_72">, 1</text>
<text x="724" y="964" class="s8_72">d</text>
<text x="734" y="964" class="sl_72">ø</text>
<text x="751" y="964" class="s8_72">s</text>
<text x="756" y="964" class="s6_72">1, </text>
<text x="771" y="964" class="s9_72">`</text>
<text x="781" y="964" class="s8_72">d</text>
<text x="786" y="964" class="s6_72">. </text>
<text x="305" y="982" dx="0,0,0,0,0,0,2.8,0,0,2.8,0,0,0,0,0,0,0,2.8,-.2,0,0,2.8,0,0,2.8,0,0,0,0,0,0,0,0,0,2.8,0,-.2,0,2.8,0,0,0,0,0,0,0,0,0,2.8,0,0,2.8,0,0,0,0,0,0,2.8,0,2.8,0,-.4,0,2.8,0,0,0,0,0,0,0,0,0,2.8,-.2,0" class="s6_72">There is another way of combining two functions to obtain a new function. For</text>
<text x="287" y="1002" dx="0,-.1,.2,.2,.2,.2,.2,.2,.2,1.5,.2,.2,.2,.2,.2,.2,.2,1.5,.2,.2,.2,.2" class="s6_72">example, suppose that </text>
<text x="433" y="1002" class="sb_72">y</text>
<text x="445" y="1002" class="sa_72">-</text>
<text x="462" y="1002" class="sb_72">f</text>
<text x="469" y="1002" class="s8_72">s</text>
<text x="474" y="1002" class="sb_72">u</text>
<text x="481" y="1002" class="s8_72">d</text>
<text x="491" y="1002" class="sa_72">-</text>
<text x="508" y="1002" class="sk_72">s</text>
<text x="520" y="1002" class="sb_72">u</text>
<g clip-path="url(#c4_72)">
<path d="M520.4,988.9h10.1" class="g1_72"/>
</g>
<text x="535" y="1002" dx="0,.2,.2,.2" class="s6_72">and </text>
<text x="563" y="1002" class="sb_72">u</text>
<text x="575" y="1002" class="sa_72">-</text>
<text x="592" y="1002" class="sk_72">t</text>
<text x="599" y="1002" class="s8_72">s</text>
<text x="605" y="1002" class="sb_72">x</text>
<text x="612" y="1002" class="s8_72">d</text>
<text x="621" y="1002" class="sa_72">-</text>
<text x="639" y="1002" class="sb_72">x</text>
<text x="647" y="996" class="si_72">2</text>
<text x="656" y="1002" class="s9_72">1</text>
<text x="673" y="1002" dx="0,.2,.2,1.5,.2,.2,.2,.2,.2" class="s6_72">1. Since </text>
<text x="731" y="1002" class="sb_72">y</text>
<text x="743" y="1002" dx="0,.2,.2,1.5,.2,1.5,.2,.2,.2,.2,.2,.2,.2,0" class="s6_72">is a function </text>
<text x="287" y="1020" dx="0,.2,.2" class="s6_72">of </text>
<text x="305" y="1020" class="sb_72">u</text>
<text x="318" y="1020" dx="0,.2,.2,.2" class="s6_72">and </text>
<text x="345" y="1020" class="sb_72">u</text>
<text x="358" y="1020" dx="0,.2,.2,.2,1.3,.2,.2,1.3,.2,.2,.2,.2,.2,1.3,.2,1.3,.2,.2,.2,.2,.2,.2,.2,.2,1.3,.2,.2" class="s6_72">is, in turn, a function of </text>
<text x="517" y="1020" class="sb_72">x</text>
<text x="524" y="1020" dx="0,.2,1.3,.2,.2,1.3,.2,.2,.2,.2,-.2,.2,.2,1.3,.2,.2,.2,.2" class="s6_72">, it follows that </text>
<text x="628" y="1020" class="sb_72">y</text>
<text x="640" y="1020" dx="0,.2,.2,1.3,.2,.2,.2,.2,.2,.2,.2,.2,.2,.2,1.3,.2,1.3,.2,.2,.2,.2,.2,.2,.2,.2,1.3,.2,.2" class="s6_72">is ultimately a function of </text>
<text x="812" y="1020" class="sb_72">x</text>
<text x="819" y="1020" class="s6_72">. </text>
<text x="53" y="681" dx="0,.3,.3,.3,.3,.3,.1" class="sm_72">FIGURE </text>
<text x="106" y="681" dx="0,-1.1" class="sn_72">10</text>
<path d="M196.3,427.2c10.1,-19.3,19.1,-43.8,25.7,-66.9m-121.6,.6c6.5,23.2,15.2,47.7,25.3,66.8" class="g3_72"/>
<path d="M125.7,427.7c10.6,20.4,22.8,34.5,35.6,34.6c12.2,-.1,24.3,-14.7,35,-35.1" class="g4_72"/>
<path d="M99.7,516.1c6.6,23,15.6,46.9,25.8,66.2c10.6,-20.3,22.8,-34.6,35.6,-34.7c12.1,.2,24.2,14.7,35,35.2c10.1,-19.3,19.3,-43.1,25.9,-66.3" class="g5_72"/>
<path d="M160.6,471.6V360.9M94.7,427H227m-30.6,-2.6v5.2m-71.2,-5.2v5.2" class="g6_72"/>
<text x="152" y="595" class="so_72">0</text>
<text x="226" y="592" class="sp_72">x</text>
<text x="151" y="518" class="sq_72">y</text>
<path d="M161.5,627.5V516.8m-66,66.1H227.9" class="g6_72"/>
<path fill-rule="evenodd" d="M227.9,582.9l-1.4,-2.1l5.5,2.1l-5.5,2.1Z" class="g7_72"/>
<text x="117" y="597" dx="0,.3" class="sr_72">_1</text>
<text x="193" y="597" class="sr_72">1</text>
<path d="M196.1,580.3v5.2m-70.6,-5.2v5.2" class="g6_72"/>
<text x="126" y="491" class="ss_72">(a) </text>
<text x="143" y="491" class="st_72">y=≈-1</text>
<text x="120" y="648" class="ss_72">(b) </text>
<text x="139" y="648" class="st_72">y=| ≈-1 |</text>
<text x="151" y="439" class="sr_72">0</text>
<text x="224" y="437" class="sr_72">x</text>
<text x="149" y="362" class="sr_72">y</text>
<path fill-rule="evenodd" d="M160.7,361.6l-2.5,1.6l2.5,-6.5l2.4,6.5Z" class="g7_72"/>
<path fill-rule="evenodd" d="M226.7,427l-1.6,-2.5l6.5,2.5l-6.5,2.4Z" class="g7_72"/>
<text x="114" y="440" dx="0,.3" class="sr_72">_1</text>
<text x="194" y="441" class="sr_72">1</text>
<path fill-rule="evenodd" d="M161.5,517.5l-2.5,1.7l2.5,-6.6l2.4,6.6Z" class="g7_72"/>
<text x="121" y="1076" class="su_72">Copyright 2016 Cengage Learning. All Rights Reserved. May not be copied, scanned, or duplicated, in whole or in part. Due to electronic rights, some third party content may be suppressed from the eBook and/or eChapter(s).</text>
<text x="106" y="1087" class="su_72">Editorial review has deemed that any suppressed content does not materially affect the overall learning experience. Cengage Learning reserves the right to remove additional content at any time if subsequent rights restrictions require it.</text>

</g>

<!-- Any embedded fonts defined here -->
<style type="text/css" ><![CDATA[

@font-face {
	font-family: BeaconDingbatsTypeOne_12w;
	src: url("fonts/BeaconDingbatsTypeOne_12w.woff") format("woff");
}

@font-face {
	font-family: MathematicalPi-One-Italic_x2;
	src: url("fonts/MathematicalPi-One-Italic_x2.woff") format("woff");
}

@font-face {
	font-family: MathematicalPiLTStd-1_rr;
	src: url("fonts/MathematicalPiLTStd-1_rr.woff") format("woff");
}

@font-face {
	font-family: MathematicalPiLTStd-3_ry;
	src: url("fonts/MathematicalPiLTStd-3_ry.woff") format("woff");
}

@font-face {
	font-family: MathematicalPiLTStd-4_v8;
	src: url("fonts/MathematicalPiLTStd-4_v8.woff") format("woff");
}

@font-face {
	font-family: MathematicalPiLTStd-5_vb;
	src: url("fonts/MathematicalPiLTStd-5_vb.woff") format("woff");
}

@font-face {
	font-family: MyriadPro-BoldSemiCn_90;
	src: url("fonts/MyriadPro-BoldSemiCn_90.woff") format("woff");
}

@font-face {
	font-family: MyriadPro-Bold_74;
	src: url("fonts/MyriadPro-Bold_74.woff") format("woff");
}

@font-face {
	font-family: MyriadPro-Regular_4i;
	src: url("fonts/MyriadPro-Regular_4i.woff") format("woff");
}

@font-face {
	font-family: MyriadPro-Semibold_49;
	src: url("fonts/MyriadPro-Semibold_49.woff") format("woff");
}

@font-face {
	font-family: TECHMath-Mix_16e;
	src: url("fonts/TECHMath-Mix_16e.woff") format("woff");
}

@font-face {
	font-family: TECHMath-Mix_187;
	src: url("fonts/TECHMath-Mix_187.woff") format("woff");
}

@font-face {
	font-family: TECHMath-Mix_19t;
	src: url("fonts/TECHMath-Mix_19t.woff") format("woff");
}

@font-face {
	font-family: TECHMath-Mix_1d9;
	src: url("fonts/TECHMath-Mix_1d9.woff") format("woff");
}

@font-face {
	font-family: Times-Roman_4n;
	src: url("fonts/Times-Roman_4n.woff") format("woff");
}

@font-face {
	font-family: Times-Roman_n6;
	src: url("fonts/Times-Roman_n6.woff") format("woff");
}

@font-face {
	font-family: TimesLTStd-Italic_o3;
	src: url("fonts/TimesLTStd-Italic_o3.woff") format("woff");
}

@font-face {
	font-family: TimesLTStd-Roman_143;
	src: url("fonts/TimesLTStd-Roman_143.woff") format("woff");
}

@font-face {
	font-family: ZapfDingbatsITC_my;
	src: url("fonts/ZapfDingbatsITC_my.woff") format("woff");
}

]]></style>

</svg>
