<?xml version="1.0" encoding="UTF-8" standalone="no"?>
<!DOCTYPE svg PUBLIC "-//W3C//DTD SVG 1.1//EN"
"http://www.w3.org/Graphics/SVG/1.1/DTD/svg11.dtd">


<!-- Page 80 -->
<svg x="0" y="0" width="931" height="1096" viewBox="0 0 931 1096" version="1.1" xmlns="http://www.w3.org/2000/svg" xmlns:xlink="http://www.w3.org/1999/xlink"
style="display: block;margin-left: auto;margin-right: auto;">
<defs>
<clipPath id="c_80"><path d="M0,0H931V1096H0Z"/></clipPath>
<clipPath id="c0_80"><path d="M578.7,681.7c-5,0,-9.2,-4,-9.2,-9V580.8c0,-5,4.2,-9.1,9.2,-9.1H728.4c5.1,0,9.2,4.1,9.2,9.1v91.9c0,5,-4.1,9,-9.2,9Z"/></clipPath>
<clipPath id="c1_80"><path d="M317.5,681.7c-5.1,0,-9.2,-4,-9.2,-9V580.8c0,-5,4.1,-9.1,9.2,-9.1H467.2c5.1,0,9.1,4.1,9.1,9.1v91.9c0,5,-4,9,-9.1,9Z"/></clipPath>

<style type="text/css"><![CDATA[
text { white-space: pre; }
path, image { pointer-events: none; }

.s1_80{
font-size: 15.28px;
font-family: MyriadPro-Semibold_49;
fill: #231F20;
}
.s2_80{
font-size: 12.22px;
font-family: MyriadPro-Semibold_49;
fill: #231F20;
}
.s3_80{
font-size: 13.75px;
font-family: MyriadPro-Semibold_49;
fill: #231F20;
}
.s4_80{
font-size: 12.22px;
font-family: MyriadPro-Regular_4i;
fill: #231F20;
}
.s5_80{
font-size: 15.28px;
font-family: TimesLTStd-Roman_143;
fill: #231F20;
}
.s6_80{
font-size: 15.28px;
font-family: TimesLTStd-Italic_o3;
fill: #231F20;
}
.s7_80{
font-size: 15.28px;
font-family: MathematicalPiLTStd-5_vb;
fill: #231F20;
}
.s8_80{
font-size: 15.28px;
font-family: MathematicalPiLTStd-1_rr;
fill: #231F20;
}
.s9_80{
font-size: 9.17px;
font-family: TimesLTStd-Italic_o3;
fill: #231F20;
}
.sa_80{
font-size: 15.28px;
font-family: MathematicalPiLTStd-6_13j;
fill: #231F20;
}
.sb_80{
font-size: 15.28px;
font-family: MathematicalPiLTStd-3_ry;
fill: #231F20;
}
.sc_80{
font-size: 12.19px;
font-family: TECHMath-Mix_16e;
fill: #231F20;
}
.sd_80{
font-size: 12.19px;
font-family: TECHMath-Mix_13x;
fill: #231F20;
}
.se_80{
font-size: 12.95px;
font-family: Times-Roman_n6;
fill: #231F20;
}
.sf_80{
font-size: 12.95px;
font-family: TECHMath-Mix_1f_;
fill: #231F20;
}
.sg_80{
font-size: 12.19px;
font-family: TECHMath-Mix_1f_;
fill: #231F20;
}
.sh_80{
font-size: 13.71px;
font-family: TECHMath-Mix_1f_;
fill: #231F20;
}
.si_80{
font-size: 12.99px;
font-family: ZapfDingbatsITC_my;
fill: #EC008C;
}
.sj_80{
font-size: 16.81px;
font-family: MyriadPro-BoldSemiCn_90;
fill: #EC008C;
}
.sk_80{
font-size: 17.57px;
font-family: MyriadPro-BoldSemiCn_90;
fill: #EC008C;
}
.sl_80{
font-size: 15.28px;
font-family: BeaconDingbatsTypeOne_12w;
fill: #231F20;
}
.sm_80{
font-size: 9.17px;
font-family: TimesLTStd-Roman_143;
fill: #231F20;
}
.sn_80{
font-size: 13.75px;
font-family: MyriadPro-Semibold_49;
fill: #EC008C;
}
.so_80{
font-size: 12.22px;
font-family: TECHMath-Mix_1g3;
fill: #231F20;
}
.sp_80{
font-size: 14.51px;
font-family: MyriadPro-Bold_74;
fill: #231F20;
}
.sq_80{
font-size: 15.28px;
font-family: MyriadPro-Bold_74;
fill: #231F20;
}
.sr_80{
font-size: 16.81px;
font-family: MyriadPro-Semibold_49;
fill: #231F20;
}
.ss_80{
font-size: 13.75px;
font-family: TimesLTStd-Roman_143;
fill: #231F20;
}
.st_80{
font-size: 12.22px;
font-family: TimesLTStd-Italic_o3;
fill: #231F20;
}
.su_80{
font-size: 12.22px;
font-family: MathematicalPiLTStd-5_vb;
fill: #231F20;
}
.sv_80{
font-size: 12.22px;
font-family: TimesLTStd-Roman_143;
fill: #231F20;
}
.sw_80{
font-size: 7.33px;
font-family: TimesLTStd-Italic_o3;
fill: #231F20;
}
.sx_80{
font-size: 7.33px;
font-family: TimesLTStd-Roman_143;
fill: #231F20;
}
.sy_80{
font-size: 12.22px;
font-family: MathematicalPiLTStd-3_ry;
fill: #231F20;
}
.sz_80{
font-size: 7.64px;
font-family: Times-Roman_4n;
fill: #000000;
}

.g0_80{
fill: #231F20;
}
.g1_80{
fill: none;
stroke: #00AEEF;
stroke-width: 0.913;
stroke-linecap: butt;
stroke-linejoin: round;
stroke-miterlimit: 3;
}
.g2_80{
fill: none;
stroke: #231F20;
stroke-width: 0.609;
stroke-linecap: butt;
stroke-linejoin: miter;
stroke-miterlimit: 3;
}
.g3_80{
fill: none;
stroke: #66C18C;
stroke-width: 1.066;
stroke-linecap: butt;
stroke-linejoin: round;
stroke-miterlimit: 3;
}
.g4_80{
fill: none;
stroke: #231F20;
stroke-width: 0.762;
stroke-linecap: butt;
stroke-linejoin: miter;
stroke-miterlimit: 3;
stroke-dasharray: 11,4;
}
.g5_80{
fill: none;
stroke: #EC008C;
stroke-width: 0.913;
stroke-linecap: butt;
stroke-linejoin: round;
stroke-miterlimit: 3;
}
.g6_80{
fill: none;
stroke: #00AEEF;
stroke-width: 0.916;
stroke-linecap: butt;
stroke-linejoin: miter;
stroke-miterlimit: 3;
}
.g7_80{
fill: none;
stroke: #EC008C;
stroke-width: 0.916;
stroke-linecap: butt;
stroke-linejoin: miter;
stroke-miterlimit: 3;
}
.g8_80{
fill: none;
stroke: #00AEEF;
stroke-width: 0.534;
stroke-linecap: butt;
stroke-linejoin: miter;
stroke-miterlimit: 3;
}
.g9_80{
fill: none;
stroke: #231F20;
stroke-width: 0.534;
stroke-linecap: butt;
stroke-linejoin: miter;
stroke-miterlimit: 3;
}
.ga_80{
fill: #CC017A;
}

]]></style>

</defs>
<g clip-path="url(#c_80)">
<path d="M0,0
L0,1096
L931,1096
L931,0 Z " 
fill="#FFFFFF" stroke="none"/>
<text x="53" y="64" class="s1_80">48</text>
<text x="126" y="64" dx="0,.2,.2,.2,.2,.2,.2,.1" class="s2_80">CHAPTER </text>
<text x="180" y="64" class="s3_80">1</text>
<text x="200" y="64" dx="0,-.3,.1,.1,.3,.1,.1,.1,.1,.1,.1,.1,.1,.1,.1,.2,.1,.1,.1,.1" class="s4_80">Functions and Models</text>
<text x="287" y="108" dx="0,0,0,-.2,0,0,0,0,0,0,0,0,0,0,0,0,0,0,0,0,0,0,0,0,0,0,0,0,0,0,0,0,0,0,0,0,0,0" class="s5_80">upward 3 units to obtain the graph of </text>
<text x="517" y="108" class="s6_80">y</text>
<text x="528" y="108" class="s7_80">-</text>
<text x="546" y="108" class="s5_80">3</text>
<text x="558" y="108" class="s8_80">2</text>
<text x="575" y="108" class="s5_80">2</text>
<text x="584" y="102" class="s9_80">x</text>
<text x="592" y="108" dx="0,0,0,0,0,0,0,0,0,0,0,0,0,0,0,0,-.3,0,0,0,0,0,0,0,0,0,0,0,0,0" class="s5_80">in Figure 5(c). The domain is </text>
<text x="774" y="108" class="sa_80">R</text>
<text x="789" y="108" class="s5_80">and </text>
<text x="287" y="126" class="s5_80">the range is </text>
<text x="361" y="126" class="sb_80">s</text>
<text x="366" y="126" class="s8_80">2`</text>
<text x="389" y="126" class="s5_80">, 3</text>
<text x="404" y="126" class="sb_80">d</text>
<text x="409" y="126" class="s5_80">.</text>
<text x="366" y="265" class="sc_80">0</text>
<text x="366" y="222" class="sd_80">1</text>
<text x="345" y="358" class="se_80">(a)</text>
<text x="362" y="358" class="sf_80">y=2®</text>
<path fill-rule="evenodd" d="M440.6,253.9l-1.7,-2.4l6.5,2.4l-6.5,2.4Z" class="g0_80"/>
<path fill-rule="evenodd" d="M376,161.8l-2.4,1.6l2.4,-6.5l2.5,6.5Z" class="g0_80"/>
<text x="438" y="266" class="sg_80">x</text>
<text x="365" y="162" class="sg_80">y</text>
<path d="M423.5,161C394,233.7,354,244.4,312.2,249" class="g1_80"/>
<path d="M311.3,253.9H440.9m-64.8,77.8V161.4" class="g2_80"/>
<text x="544" y="265" class="sg_80">0</text>
<text x="535" y="294" dx="0,.3" class="sg_80">_1</text>
<text x="518" y="358" class="se_80">(b)</text>
<text x="536" y="358" class="sf_80">y=_2®</text>
<path fill-rule="evenodd" d="M617.5,253.9l-1.7,-2.4l6.5,2.4l-6.5,2.5Z" class="g0_80"/>
<path fill-rule="evenodd" d="M553.3,161.7l-2.5,1.6l2.5,-6.5l2.4,6.5Z" class="g0_80"/>
<text x="614" y="266" class="sg_80">x</text>
<text x="542" y="162" class="sg_80">y</text>
<path d="M593.9,330.9c-20,-45.5,-54.3,-66.6,-104.5,-72" class="g3_80"/>
<path d="M488.5,253.9H618m-64.7,77.8V161.4" class="g2_80"/>
<text x="767" y="189" class="sh_80">y=3</text>
<text x="721" y="265" class="sg_80">0</text>
<text x="719" y="210" class="sg_80">2</text>
<text x="688" y="358" class="se_80">(c)</text>
<text x="706" y="358" class="sf_80">y=3-2®</text>
<path fill-rule="evenodd" d="M794.6,253.9l-1.7,-2.4l6.5,2.4l-6.5,2.5Z" class="g0_80"/>
<path fill-rule="evenodd" d="M730.3,161.9l-2.5,1.6l2.5,-6.5l2.4,6.5Z" class="g0_80"/>
<text x="792" y="266" class="sg_80">x</text>
<text x="719" y="163" class="sg_80">y</text>
<path d="M665.5,176.2H796.3" class="g4_80"/>
<path d="M794.2,321.6C764.4,201.1,716.7,186.8,666.4,181.3" class="g5_80"/>
<path d="M665.5,253.9H795.1m-64.8,77.8V161.4" class="g2_80"/>
<text x="813" y="361" class="si_80">■</text>
<text x="287" y="405" dx="0,.3,.3,.3,.3,.3,.3,.2" class="sj_80">EXAMPLE </text>
<text x="358" y="405" class="sk_80">2</text>
<text x="375" y="405" dx="0,0,0,0,0,0,0,0,0,0,0,0,0,0,0,0,0,-.4,0,0,0,0,0,0,0,0,0,0,0,0,0,0,0,0,0,0,0,0,-.2,0,0,0,0,0,0,0,0,0,0,0,0,0,0,0,0,0,0,0" class="s5_80">Use a graphing device to compare the exponential function </text>
<text x="741" y="405" class="s6_80">f</text>
<text x="748" y="405" class="sb_80">s</text>
<text x="753" y="405" class="s6_80">x</text>
<text x="760" y="405" class="sb_80">d</text>
<text x="770" y="405" class="s7_80">-</text>
<text x="787" y="405" class="s5_80">2</text>
<text x="796" y="399" class="s9_80">x</text>
<text x="287" y="424" dx="0,0,0,0,0,0,0,0,0,0,-.4,0,0,0,0,0,0,0,0,0,0,0,0" class="s5_80">and the power function </text>
<text x="431" y="424" class="sl_80">t</text>
<text x="438" y="424" class="sb_80">s</text>
<text x="444" y="424" class="s6_80">x</text>
<text x="451" y="424" class="sb_80">d</text>
<text x="460" y="424" class="s7_80">-</text>
<text x="478" y="424" class="s6_80">x</text>
<text x="486" y="417" class="sm_80">2</text>
<text x="491" y="424" dx="0,0,-.5,0,0,0,0,0,0,0,0,0,0,0,0,0,0,0,0,0,-.4,0,0,0,0,0,0,0,0,0,0,0,0,0,0,0,0,0,0,0,0" class="s5_80">. Which function grows more quickly when </text>
<text x="760" y="424" class="s6_80">x</text>
<text x="771" y="424" dx="0,0,0,0,0,0,-.3,0,0" class="s5_80">is large?</text>
<text x="287" y="451" dx="0,.3,.3,.3,.3,.3,.3,.3,.1" class="sn_80">SOLUTION </text>
<text x="358" y="451" dx="0,0,0,0,0,0,0,0,0,0,0,0,-.4,0,0,0,0,0,0,0,0,0,0,0,0,0,0,0,0,0,0,0,0,0,0,0,0,0,0,0,0,0,0,0,0,0,0,0,-.4,0,0,0,0,0,0,0,0,0,0,0,0,0,0" class="s5_80">Figure 6 shows both functions graphed in the viewing rectangle </text>
<text x="751" y="451" class="sb_80">f</text>
<text x="756" y="451" class="s8_80">2</text>
<text x="768" y="451" class="s5_80">2, 6</text>
<text x="791" y="451" class="sb_80">g</text>
<text x="287" y="469" class="s5_80">by </text>
<text x="306" y="469" class="sb_80">f</text>
<text x="311" y="469" class="s5_80">0, 40</text>
<text x="341" y="469" class="sb_80">g</text>
<text x="347" y="469" dx="0,0,-.5,-1.2,0,0,0,0,0,0,0,0,0,0,0,0,0,0,0,0,0,0,0,0,0,0,0,0,0,0,0,0,0,0,0,0,0,0,0,0,0,0,0,0,0,0,0,0,0,-.3,0,0,0,0,0,0" class="s5_80">. We see that the graphs intersect three times, but for </text>
<text x="670" y="469" class="s6_80">x</text>
<text x="682" y="469" class="s8_80">.</text>
<text x="699" y="469" class="s5_80">4 the graph of </text>
<text x="289" y="488" class="s6_80">f</text>
<text x="295" y="488" class="sb_80">s</text>
<text x="301" y="488" class="s6_80">x</text>
<text x="308" y="488" class="sb_80">d</text>
<text x="318" y="488" class="s7_80">-</text>
<text x="335" y="488" class="s5_80">2</text>
<text x="343" y="482" class="s9_80">x</text>
<text x="351" y="488" dx="0,0,0,0,0,0,0,0,0,-.2,-.2,0,0,0,0,0,0,0,0,0,0,0,0,0,0" class="s5_80">stays above the graph of </text>
<text x="503" y="488" class="sl_80">t</text>
<text x="510" y="488" class="sb_80">s</text>
<text x="516" y="488" class="s6_80">x</text>
<text x="522" y="488" class="sb_80">d</text>
<text x="532" y="488" class="s7_80">-</text>
<text x="549" y="488" class="s6_80">x</text>
<text x="558" y="482" class="sm_80">2</text>
<text x="562" y="488" dx="0,0,0,0,0,0,0,0,0,0,0,0,0,-.4,-.2,0,0,0,0,0,0,0,0,0,0,0,0,0,0,0,0,0,0,0,-.4,0,0,0,0,0" class="s5_80">. Figure 7 gives a more global view and </text>
<text x="287" y="506" dx="0,0,0,-.4,0,0,0,0,0,0,0,0,0,0,0,0,0,0,-.3,0,0,0,-.4,0,0,0,0,0,0,0,0" class="s5_80">shows that for large values of </text>
<text x="470" y="506" class="s6_80">x</text>
<text x="477" y="506" dx="0,0,0,0,0,0,0,-.2,0,0,0,0,0,0,0,0,0,0,0,0,0,0,0,0,0,0,0" class="s5_80">, the exponential function </text>
<text x="637" y="506" class="s6_80">y</text>
<text x="649" y="506" class="s7_80">-</text>
<text x="666" y="506" class="s5_80">2</text>
<text x="674" y="500" class="s9_80">x</text>
<text x="682" y="506" dx="0,0,0,-.4,0,0,0,-.2,0,0,0,0,0,0,0,0,0,0,0,0,0,0,0" class="s5_80">grows far more rapidly </text>
<text x="287" y="524" dx="0,0,0,0,0,0,0,0,0,0,0,-.4,0,0,0,0,0,0,0,0,0,0,0,0" class="s5_80">than the power function </text>
<text x="436" y="524" class="s6_80">y</text>
<text x="448" y="524" class="s7_80">-</text>
<text x="465" y="524" class="s6_80">x</text>
<text x="473" y="518" class="sm_80">2</text>
<text x="478" y="524" class="s5_80">.</text>
<g clip-path="url(#c0_80)">
<path d="M734.2,654.1l3.3,-1m-7.1,2.2l3.8,-1.2m-7.2,2.4l3.4,-1.2m-6.9,2.2l3.5,-1m-6.8,2l3.3,-1m-7.2,2.2l3.9,-1.2m-7.2,2.2l3.3,-1m-6.8,2l3.5,-1m-6.9,2l3.4,-1m-6.9,2l3.5,-1m-7.1,1.7l3.6,-.7m-7.2,1.7l3.6,-1m-7.1,2l3.5,-1m-6.9,1.7l3.4,-.7m-6.9,1.5l3.5,-.8m-7.1,1.7l3.6,-.9m-6.9,1.7l3.3,-.8m-6.9,1.5l3.6,-.7m-7.2,1.5l3.6,-.8m-7.1,1.2l3.5,-.4m-7.1,1.2l3.6,-.8m-7.2,1.5l3.6,-.7m-6.9,1.2l3.3,-.5m-6.8,1.3l3.5,-.8m-7.1,1.3l3.6,-.5m-7.2,1.2l3.6,-.7m-6.9,1.2l3.3,-.5m-6.6,1l3.3,-.5m-6.9,1l3.6,-.5m-7.2,.7L636,677m-6.9,.7l3.3,-.5m-6.8,1l3.5,-.5m-7.1,.8l3.6,-.3m-7.2,.7l3.6,-.4m-6.9,.7l3.3,-.3m-6.9,.5l3.6,-.2m-7.1,.5l3.5,-.3m-7.1,.8l3.6,-.5m-6.9,.5h3.3m-6.9,.2l3.6,-.2m-7.2,.5l3.6,-.3m-7.1,.5l3.5,-.2m-7.1,.2h3.6m-6.9,.3l3.3,-.3m-6.9,.3h3.6m-7.2,0h3.6m-7.1,0h3.5m-6.8,.2l3.3,-.2" class="g6_80"/>
<path d="M734.2,580.1l2.5,-9.1m-4.6,15.3l2.1,-6.2M730.4,592l1.7,-5.7M727,601.6l3.4,-9.6m-6.9,18.2l3.5,-8.6m-6.8,16l3.3,-7.4M716.3,625l3.9,-7.4M713,630.7l3.3,-5.7m-6.8,11.3l3.5,-5.6m-6.9,10.5l3.4,-4.9m-6.9,9.4l3.5,-4.5m-7.1,8.4l3.6,-3.9m-7.2,7.4l3.6,-3.5m-7.1,6.7l3.5,-3.2m-6.9,5.6l3.4,-2.4m-6.9,5.2l3.5,-2.8m-7.1,4.7l3.6,-1.9m-6.9,3.9l3.3,-2m-6.9,3.7l3.6,-1.7m-7.2,3.4l3.6,-1.7m-7.1,3l3.5,-1.3m-7.1,2.5l3.6,-1.2m-7.2,2.4l3.6,-1.2m-6.9,2l3.3,-.8m-6.8,1.8l3.5,-1m-7.1,1.7l3.6,-.7m-7.2,1.4l3.6,-.7m-6.9,1.2l3.3,-.5m-6.6,1l3.3,-.5m-6.9,1l3.6,-.5m-7.2,1l3.6,-.5m-6.9,1l3.3,-.5m-6.8,.8l3.5,-.3m-7.1,.5l3.6,-.2m-7.2,.7l3.6,-.5m-6.9,.5h3.3m-6.9,.2l3.6,-.2m-7.1,.5l3.5,-.3m-7.1,.5l3.6,-.2m-6.9,.2h3.3m-6.9,.3l3.6,-.3m-7.2,.3h3.6m-7.1,.2l3.5,-.2m-7.1,.2h3.6m-6.9,.3l3.3,-.3m-6.9,.3h3.6m-7.2,0h3.6m-7.1,0h3.5m-6.8,.2l3.3,-.2" class="g7_80"/>
</g>
<path d="M578.7,571.7H728.4c5.1,0,9.2,4.1,9.2,9.1v91.9c0,5,-4.1,9,-9.2,9H578.7c-5,0,-9.2,-4,-9.2,-9V580.8c0,-5,4.2,-9.1,9.2,-9.1Z" class="g8_80"/>
<text x="561" y="565" dx="0,-.4,-.4" class="so_80">250</text>
<text x="562" y="690" class="so_80">0</text>
<text x="742" y="686" class="so_80">8</text>
<text x="699" y="586" dx="0,0,0,.6" class="so_80">y=2®</text>
<text x="742" y="655" class="so_80">y=≈</text>
<g clip-path="url(#c1_80)">
<path d="M473.1,587.9l3.3,-5.4m-7.2,11l3.9,-5.6m-7.2,10.5l3.3,-4.9m-6.8,9.8l3.5,-4.9M459,608l3.4,-4.7m-7.2,9.6L459,608m-7.1,9.1l3.3,-4.2m-6.9,8.8l3.6,-4.6m-6.9,8.8l3.3,-4.2m-6.9,8.1l3.6,-3.9m-7.1,7.8l3.5,-3.9m-7.1,7.6l3.6,-3.7m-7.2,7.4l3.6,-3.7m-6.9,7.1l3.3,-3.4m-6.8,6.8l3.5,-3.4m-7.1,6.4l3.6,-3m-6.9,5.9l3.3,-2.9m-6.9,5.6l3.6,-2.7m-7.2,5.6l3.6,-2.9m-7.1,5.4l3.5,-2.5m-7.1,5l3.6,-2.5m-7.2,4.7l3.6,-2.2m-6.9,4.1l3.3,-1.9m-6.9,3.9l3.6,-2m-7.1,3.7l3.5,-1.7m-7.1,3.4l3.6,-1.7m-6.9,2.9l3.3,-1.2m-6.6,2.7l3.3,-1.5m-6.9,2.5l3.6,-1m-7.2,2l3.6,-1m-6.9,1.9l3.3,-.9m-6.9,1.7l3.6,-.8m-7.1,1.3l3.5,-.5m-7.1,.7l3.6,-.2m-6.9,.5l3.3,-.3m-6.9,.5l3.6,-.2m-7.2,0l3.6,.2m-7.1,-.5l3.5,.3m-6.8,-.5l3.3,.2m-6.9,-.7l3.6,.5m-7.2,-1.3l3.6,.8m-7.1,-1.7l3.5,.9m-7.1,-1.9l3.6,1m-6.9,-2l3.3,1m-6.9,-2.5l3.6,1.5m-7.2,-2.9l3.6,1.4m-7.1,-2.9l3.5,1.5m-6.9,-3.2l3.4,1.7" class="g6_80"/>
<path d="M459,582.5l3.1,-10.8M455.2,594L459,582.5m-7.1,20.3l3.3,-8.8m-6.9,17.7l3.6,-8.9M445,619.3l3.3,-7.6m-6.9,14.4l3.6,-6.8m-7.1,12.9l3.5,-6.1m-7.1,11.3l3.6,-5.2m-7.2,10.1l3.6,-4.9m-6.9,9.1l3.3,-4.2m-6.8,8.1l3.5,-3.9m-7.1,7.3l3.6,-3.4m-6.9,6.3l3.3,-2.9m-6.9,5.6l3.6,-2.7m-7.2,5.2l3.6,-2.5m-7.1,4.4l3.5,-1.9m-7.1,3.9l3.6,-2m-7.2,3.7l3.6,-1.7m-6.9,3.2l3.3,-1.5m-6.9,3l3.6,-1.5m-7.1,2.7l3.5,-1.2m-7.1,2.2l3.6,-1m-6.9,2l3.3,-1m-6.6,1.7l3.3,-.7m-6.9,1.4l3.6,-.7m-7.2,1.5l3.6,-.8m-6.9,1.3l3.3,-.5m-6.9,1.2l3.6,-.7m-7.1,1.2l3.5,-.5m-7.1,.7l3.6,-.2m-6.9,.7l3.3,-.5m-6.9,.8l3.6,-.3m-7.2,.8l3.6,-.5m-7.1,.7l3.5,-.2m-6.8,.4l3.3,-.2m-6.9,.2H340m-7.2,.3l3.6,-.3m-7.1,.5l3.5,-.2m-7.1,.5l3.6,-.3m-6.9,.3h3.3m-6.9,.2l3.6,-.2m-7.2,.2h3.6m-7.1,0h3.5m-6.9,.3l3.4,-.3" class="g7_80"/>
</g>
<path d="M317.5,571.7H467.2c5.1,0,9.1,4.1,9.1,9.1v91.9c0,5,-4,9,-9.1,9H317.5c-5.1,0,-9.2,-4,-9.2,-9V580.8c0,-5,4.1,-9.1,9.2,-9.1Z" class="g8_80"/>
<text x="343" y="565" class="so_80">40</text>
<text x="347" y="696" class="so_80">0</text>
<text x="288" y="686" dx="0,.2" class="so_80">_2</text>
<text x="480" y="686" class="so_80">6</text>
<text x="423" y="588" dx="0,0,0,.6" class="so_80">y=2®</text>
<text x="480" y="583" class="so_80">y=≈</text>
<path d="M350.5,681.6V571.8m-1.7,82.1h3.8m-3.8,-27.5h3.8m-3.8,-27.5h3.8m39.9,83.3v-2.8m41.8,2.8v-2.8M569.6,659.2h2.5m-2.5,-22.1l2.5,-.1m-2.5,-21.9h2.5m-2.5,-22.2h2.5m39.4,88.9v-2.3m42.1,2.3v-2.3m41.8,2.3v-2.3" class="g9_80"/>
<text x="287" y="719" dx="0,.3,.3,.3,.3,.3,.1" class="sp_80">FIGURE </text>
<text x="339" y="719" class="sq_80">6 </text>
<text x="562" y="719" dx="0,.3,.3,.3,.3,.3" class="sp_80">FIGURE</text>
<text x="614" y="719" class="sq_80">7 </text>
<text x="813" y="719" class="si_80">■</text>
<path d="M288.8,752.9c0,0,-1.6,0,-1.6,1.5v9.2c0,0,0,1.5,1.6,1.5h9.1c0,0,1.6,0,1.6,-1.5v-9.2c0,0,0,-1.5,-1.6,-1.5Z" class="ga_80"/>
<text x="307" y="765" dx="0,-.1,0,0,0,0,0,-.1,0,0,0,0,0,0,0,0,0,0,0,0,0,0,0,-.1,0,0,0,0,0,-.5,0,0,.3,0,0,0,0" class="sr_80">Applications of Exponential Functions</text>
<text x="287" y="787" dx="0,0,0,0,.7,-.2,0,0,0,0,0,0,0,0,0,0,.7,0,0,0,0,0,0,0,0,.7,0,0,0,0,0,0,.7,-.2,0,0,0,.7,0,0,0,0,0,0,0,0,0,0,.7,0,0,.7,0,0,0,0,0,0,0,0,0,0,0,0,.7,0,0,0,0,0,0,.7,0,0,.7,0,0,0,0,0,0,.7,0,0,0" class="s5_80">The exponential function occurs very frequently in mathematical models of nature and </text>
<text x="287" y="806" dx="0,0,0,0,0,0,0,-1,0,1.2,0,0,0,0,1.2,0,0,1.2,0,0,0,0,0,0,0,0,1.2,0,0,0,0,0,0,1.2,0,-.4,0,1.2,0,0,1.2,0,0,0,0,0,0,1.2,0,0,1.2,0,0,0,1.2,0,0,0,0,0,0,0,0,0,0,0,1.2,0,0,1.2,0,0,0,0,0,0,0,0,0,0,1.2,0,0,-.4,0,0,0" class="s5_80">society. Here we indicate brie²y how it arises in the description of population growth </text>
<text x="287" y="824" dx="0,0,0,0,1.2,0,0,0,0,0,0,0,0,-.4,-.2,0,1.2,0,0,0,0,-1,0,1.2,0,0,1.2,0,0,0,0,0,1.2,0,0,0,0,0,0,0,0,1.2,0,0,1.2,0,0,0,0,1.2,0,0,0,0,0,0,1.2,0,0,0,0,0,1.2,0,0,0,1.2,0,0,0,0,0,1.2,0,0,0,0,0,0,0,0,0,0,0,0,1.2,0,0" class="s5_80">and radioactive decay. ±n later chapters we will pursue these and other applications in </text>
<text x="287" y="842" class="s5_80">greater detail.</text>
<text x="305" y="861" dx="0,0,0,0,0,0,-1.3,0,0,-1.3,0,0,0,0,0,0,0,0,-1.3,0,-1.3,0,0,0,0,0,0,0,0,0,0,-1.3,0,0,-1.3,0,0,0,0,0,0,0,0,-1.3,0,0,-1.3,0,-1.3,0,0,0,0,0,0,0,0,0,0,0,-1.3,0,0,0,0,0,0,0,0,-1.3,0,0,0,0,0,0,0,-1.3,0,0,0,0,0,0,0" class="s5_80">First we consider a population of bacteria in a homogeneous nutrient medium. Suppose </text>
<text x="287" y="879" dx="0,0,0,0,0,.7,0,0,.7,0,0,0,0,0,0,0,0,.7,0,0,0,.7,0,0,0,0,0,0,0,0,0,0,.7,0,0,.7,0,0,0,0,0,0,0,.7,0,0,0,0,0,-.4,0,0,0,.7,0,0,.7,0,0,.7,0,0,0,0,0,0,0,0,0,0,.7,0,0,0,0,.7,0,0,0,.7,0,0,0,0,0,0,0,0,0,0" class="s5_80">that by sampling the population at certain intervals it is determined that the population </text>
<text x="287" y="897" dx="0,0,0,0,0,0,0,0,1.2,-.4,-.2,0,0,0,1.2,0,0,0,-.8,0,1.2,0,0,1.2,0,0,0,1.2,0,0,0,0,0,0,1.2,0,0,1.2,0,0,0,0,0,0,0,0,1.2,0,0,1.2,0,0,0,0" class="s5_80">doubles every hour. ±f the number of bacteria at time </text>
<text x="624" y="897" class="s6_80">t</text>
<text x="633" y="897" class="s5_80">is </text>
<text x="650" y="897" class="s6_80">p</text>
<text x="657" y="897" class="sb_80">s</text>
<text x="662" y="897" class="s6_80">t</text>
<text x="666" y="897" class="sb_80">d</text>
<text x="672" y="897" dx="0,0,1.2,0,0,0,0,0" class="s5_80">, where </text>
<text x="723" y="897" class="s6_80">t</text>
<text x="732" y="897" dx="0,0,0,1.2,0,0,0,0,0,0,0,0,1.2,0,0" class="s5_80">is measured in </text>
<text x="287" y="916" class="s5_80">hours, and the initial population is </text>
<text x="501" y="916" class="s6_80">p</text>
<text x="508" y="916" class="sb_80">s</text>
<text x="513" y="916" class="s5_80">0</text>
<text x="521" y="916" class="sb_80">d</text>
<text x="531" y="916" class="s7_80">-</text>
<text x="548" y="916" dx="0,0,0,0,0,0,0,0,0,0,0,0,0,0,0,0,-.3,-.2" class="s5_80">1000, then we have</text>
<text x="471" y="948" class="s6_80">p</text>
<text x="479" y="948" class="sb_80">s</text>
<text x="484" y="948" class="s5_80">1</text>
<text x="491" y="948" class="sb_80">d</text>
<text x="501" y="948" class="s7_80">-</text>
<text x="518" y="948" class="s5_80">2</text>
<text x="526" y="948" class="s6_80">p</text>
<text x="534" y="948" class="sb_80">s</text>
<text x="539" y="948" class="s5_80">0</text>
<text x="546" y="948" class="sb_80">d</text>
<text x="556" y="948" class="s7_80">-</text>
<text x="573" y="948" class="s5_80">2</text>
<text x="585" y="948" class="s8_80">3</text>
<text x="603" y="948" class="s5_80">1000</text>
<text x="471" y="982" class="s6_80">p</text>
<text x="479" y="982" class="sb_80">s</text>
<text x="484" y="982" class="s5_80">2</text>
<text x="491" y="982" class="sb_80">d</text>
<text x="501" y="982" class="s7_80">-</text>
<text x="518" y="982" class="s5_80">2</text>
<text x="526" y="982" class="s6_80">p</text>
<text x="534" y="982" class="sb_80">s</text>
<text x="539" y="982" class="s5_80">1</text>
<text x="546" y="982" class="sb_80">d</text>
<text x="556" y="982" class="s7_80">-</text>
<text x="573" y="982" class="s5_80">2</text>
<text x="582" y="975" class="sm_80">2</text>
<text x="591" y="982" class="s8_80">3</text>
<text x="608" y="982" class="s5_80">1000</text>
<text x="471" y="1015" class="s6_80">p</text>
<text x="479" y="1015" class="sb_80">s</text>
<text x="484" y="1015" class="s5_80">3</text>
<text x="491" y="1015" class="sb_80">d</text>
<text x="501" y="1015" class="s7_80">-</text>
<text x="518" y="1015" class="s5_80">2</text>
<text x="526" y="1015" class="s6_80">p</text>
<text x="534" y="1015" class="sb_80">s</text>
<text x="539" y="1015" class="s5_80">2</text>
<text x="546" y="1015" class="sb_80">d</text>
<text x="556" y="1015" class="s7_80">-</text>
<text x="573" y="1015" class="s5_80">2</text>
<text x="582" y="1009" class="sm_80">3</text>
<text x="591" y="1015" class="s8_80">3</text>
<text x="608" y="1015" class="s5_80">1000</text>
<text x="212" y="360" dx="0,.3,.3,.3,.3,.3,.1" class="sp_80">FIGURE </text>
<text x="265" y="360" class="sq_80">5</text>
<text x="53" y="518" dx="0,-.1,-.1,-.1,-.1,-.1,-.1,-.1,-.1,-.1,-.1,-.1,-.1,-.4,-.1,-.1,-.1,-.1,-.1,-.1,-.1" class="ss_80">Example 2 shows that </text>
<text x="176" y="518" class="st_80">y</text>
<text x="185" y="518" class="su_80">-</text>
<text x="199" y="518" class="sv_80">2</text>
<text x="206" y="513" class="sw_80">x</text>
<text x="213" y="518" dx="0,-.1,-.1,-.1,-.1,-.1,-.1,-.1,-.1,0" class="ss_80">increases </text>
<text x="53" y="535" dx="0,-.1,-.1,-.1,-.1,-.1,-.1,-.1,-.1,-.1,-.1,-.1,-.1,-.1,-.1,-.1,-.1,-.1" class="ss_80">more quickly than </text>
<text x="156" y="535" class="st_80">y</text>
<text x="165" y="535" class="su_80">-</text>
<text x="179" y="535" class="st_80">x</text>
<text x="186" y="530" class="sx_80">2</text>
<text x="189" y="535" dx="0,-.1,-.3,-1.2,-.1,-.1,-.1,-.1,-.1,-.1,-.1" class="ss_80">. To demon-</text>
<text x="53" y="551" dx="0,-.1,-.1,-.1,-.1,-.1,-.1,-.1,-.1,-.1,-.1,-.1,-.1,-.1,-.4,-.1,-.1,-.1,-.1,-.1,-.1,-.1,-.1,-.1" class="ss_80">strate just how quickly </text>
<text x="181" y="552" class="st_80">f</text>
<text x="187" y="552" class="sy_80">s</text>
<text x="192" y="552" class="st_80">x</text>
<text x="197" y="552" class="sy_80">d</text>
<text x="205" y="552" class="su_80">-</text>
<text x="219" y="552" class="sv_80">2</text>
<text x="226" y="547" class="sw_80">x</text>
<text x="53" y="568" dx="0,-.1,-.1,-.1,-.1,-.1,-.1,-.1,-.1,-.1,-.1,-.1,-.1,-.1,-.1,-.8,-.1,-.1,-.1,-.1,-.1,-.1,-.1,-.1,-.1,-.1,-.1,-.1,-.1,-.1,-.1,-.1,-.1,-.1,-.4,-.1,-.1,-.1,0" class="ss_80">increases, let’s perform the following </text>
<text x="53" y="585" dx="0,-.1,-.1,-.1,-.1,-.1,-.1,-.1,-.1,-.3,-.1,-.1,-.1,-.1,-.1,-.1,-.1,-.1,-.1,-.1,-.1,-.1,-.1,-.1,-.1,-.1,-.1,-.1,-.1,-.1,-.1,-.1,-.1,-.1,-.1,-.1,0" class="ss_80">thought experiment. Suppose we start </text>
<text x="53" y="602" dx="0,-.1,-.1,-.1,-.1,-.1,-.1,-.1,-.1,-.1,-.1,-.1,-.1,-.1,-.1,-.1,-.1,-.1,-.1,-.1,-.1,-.1,-.1,-.1,-.1,-.1,-.1,-.1,-.1,-.1,-.1,-.1,-.1,-.1,-.1,-.1,-.1,0" class="ss_80">with a piece of paper a thousandth of </text>
<text x="53" y="619" dx="0,-.1,-.1,-.1,-.1,-.1,-.1,-.1,-.1,-.1,-.1,-.1,-.1,-.1,-.1,-.1,-.1,-.1,-.1,-.1,-.1,-.1,-.1,-.1,-.1,-.1,-.1,-.1,-.1,-.1,-.1,-.1,-.1,-.1,-.1,-.1,-.1,-.1,-.1,0" class="ss_80">an inch thick and we fold it in half 50 </text>
<text x="53" y="636" dx="0,-.1,-.1,-.1,-.1,-.1,-.1,-.1,-.1,-.1,-.1,-.1,-.1,-.1,-.1,-.1,-.1,-.1,-.1,-.1,-.1,-.1,-.1,-.1,-.1,-.1,-.1,-.1,-.1,-.1,-.1,-.1,-.1,-.1,-.1,-.1,-.1,0" class="ss_80">times. Each time we fold the paper in </text>
<text x="53" y="652" dx="0,-.1,-.1,-.1,-.1,-.1,-.1,-.1,-.1,-.1,-.1,-.1,-.1,-.1,-.1,-.1,-.1,-.1,-.1,-.1,-.1,-.1,-.1,-.1,-.1,-.1,-.1,-.1,-.1,-.1,-.1,-.1,-.1,-.1,-.1,-.1,-.1,-.1,-.1,-.1,-.1,0" class="ss_80">half, the thickness of the paper doubles, </text>
<text x="53" y="669" dx="0,-.1,-.1,-.1,-.1,-.1,-.1,-.1,-.1,-.1,-.1,-.1,-.1,-.1,-.1,-.1,-.1,-.1,-.1,-.1,-.1,-.1,-.1,-.1,-.1,-.1,-.1,-.1,-.1,-.1,-.1,-.1,-.1,-.1,-.1,-.1,-.1,-.1,-.1,0" class="ss_80">so the thickness of the resulting paper </text>
<text x="53" y="686" dx="0,-.2,-.1,-.1,-.1,-.1,-.1,-.1,-.1" class="ss_80">would be </text>
<text x="106" y="686" class="sv_80">2</text>
<text x="113" y="681" dx="0,.1" class="sx_80">50</text>
<text x="119" y="686" class="sy_80">y</text>
<text x="125" y="686" class="sv_80">1000</text>
<text x="153" y="686" dx="0,-.1,-.1,-.1,-.1,-.1,-.1,-.1,-.1,-.1,-.4,-.1,-.1,-.1,-.1,-.1,-.1,0" class="ss_80">inches. How thick </text>
<text x="53" y="703" dx="0,-.1,-.1,-.1,-.1,-.1,-.1,-.1,-.1,-.1,-.1,-.1,-.1,-.1,-.1,-.1,-.1,-.1,-.1,-.1,-.1,-.1,-.1,-.1,-.1,-.1,-.2,-.1,-.1,-.1,-.1,-.1,-.1,-.1,-.1,-.1,-.1,0" class="ss_80">do you think that is? ±t works out to </text>
<text x="53" y="720" dx="0,-.1,-.1,-.1,-.1,-.1,-.1,-.1,-.1,-.1,-.1,-.1,-.1,-.1,-.1,-.1,-.1,-.1,-.1,-.1,-.1,-.1,-.1,-.1,-.1,-.1,-.1,-.1,-.1,-.1" class="ss_80">be more than 17 million miles!</text>
<text x="121" y="1076" class="sz_80">Copyright 2016 Cengage Learning. All Rights Reserved. May not be copied, scanned, or duplicated, in whole or in part. Due to electronic rights, some third party content may be suppressed from the eBook and/or eChapter(s).</text>
<text x="106" y="1087" class="sz_80">Editorial review has deemed that any suppressed content does not materially affect the overall learning experience. Cengage Learning reserves the right to remove additional content at any time if subsequent rights restrictions require it.</text>

</g>

<!-- Any embedded fonts defined here -->
<style type="text/css" ><![CDATA[

@font-face {
	font-family: BeaconDingbatsTypeOne_12w;
	src: url("fonts/BeaconDingbatsTypeOne_12w.woff") format("woff");
}

@font-face {
	font-family: MathematicalPiLTStd-1_rr;
	src: url("fonts/MathematicalPiLTStd-1_rr.woff") format("woff");
}

@font-face {
	font-family: MathematicalPiLTStd-3_ry;
	src: url("fonts/MathematicalPiLTStd-3_ry.woff") format("woff");
}

@font-face {
	font-family: MathematicalPiLTStd-5_vb;
	src: url("fonts/MathematicalPiLTStd-5_vb.woff") format("woff");
}

@font-face {
	font-family: MathematicalPiLTStd-6_13j;
	src: url("fonts/MathematicalPiLTStd-6_13j.woff") format("woff");
}

@font-face {
	font-family: MyriadPro-BoldSemiCn_90;
	src: url("fonts/MyriadPro-BoldSemiCn_90.woff") format("woff");
}

@font-face {
	font-family: MyriadPro-Bold_74;
	src: url("fonts/MyriadPro-Bold_74.woff") format("woff");
}

@font-face {
	font-family: MyriadPro-Regular_4i;
	src: url("fonts/MyriadPro-Regular_4i.woff") format("woff");
}

@font-face {
	font-family: MyriadPro-Semibold_49;
	src: url("fonts/MyriadPro-Semibold_49.woff") format("woff");
}

@font-face {
	font-family: TECHMath-Mix_13x;
	src: url("fonts/TECHMath-Mix_13x.woff") format("woff");
}

@font-face {
	font-family: TECHMath-Mix_16e;
	src: url("fonts/TECHMath-Mix_16e.woff") format("woff");
}

@font-face {
	font-family: TECHMath-Mix_1f_;
	src: url("fonts/TECHMath-Mix_1f_.woff") format("woff");
}

@font-face {
	font-family: TECHMath-Mix_1g3;
	src: url("fonts/TECHMath-Mix_1g3.woff") format("woff");
}

@font-face {
	font-family: Times-Roman_4n;
	src: url("fonts/Times-Roman_4n.woff") format("woff");
}

@font-face {
	font-family: Times-Roman_n6;
	src: url("fonts/Times-Roman_n6.woff") format("woff");
}

@font-face {
	font-family: TimesLTStd-Italic_o3;
	src: url("fonts/TimesLTStd-Italic_o3.woff") format("woff");
}

@font-face {
	font-family: TimesLTStd-Roman_143;
	src: url("fonts/TimesLTStd-Roman_143.woff") format("woff");
}

@font-face {
	font-family: ZapfDingbatsITC_my;
	src: url("fonts/ZapfDingbatsITC_my.woff") format("woff");
}

]]></style>

</svg>
