<?xml version="1.0" encoding="UTF-8" standalone="no"?>
<!DOCTYPE svg PUBLIC "-//W3C//DTD SVG 1.1//EN"
"http://www.w3.org/Graphics/SVG/1.1/DTD/svg11.dtd">


<!-- Page 81 -->
<svg x="0" y="0" width="931" height="1096" viewBox="0 0 931 1096" version="1.1" xmlns="http://www.w3.org/2000/svg" xmlns:xlink="http://www.w3.org/1999/xlink"
style="display: block;margin-left: auto;margin-right: auto;">
<defs>
<clipPath id="c_81"><path d="M0,0H931V1096H0Z"/></clipPath>
<style type="text/css"><![CDATA[
text { white-space: pre; }
path, image { pointer-events: none; }

.s1_81{
font-size: 12.22px;
font-family: MyriadPro-Semibold_49;
fill: #231F20;
}
.s2_81{
font-size: 13.75px;
font-family: MyriadPro-Semibold_49;
fill: #231F20;
}
.s3_81{
font-size: 12.22px;
font-family: MyriadPro-Regular_4i;
fill: #231F20;
}
.s4_81{
font-size: 15.28px;
font-family: MyriadPro-Semibold_49;
fill: #231F20;
}
.s5_81{
font-size: 15.28px;
font-family: TimesLTStd-Roman_143;
fill: #231F20;
}
.s6_81{
font-size: 15.28px;
font-family: TimesLTStd-Italic_o3;
fill: #231F20;
}
.s7_81{
font-size: 15.28px;
font-family: MathematicalPiLTStd-3_ry;
fill: #231F20;
}
.s8_81{
font-size: 15.28px;
font-family: MathematicalPiLTStd-5_vb;
fill: #231F20;
}
.s9_81{
font-size: 9.17px;
font-family: TimesLTStd-Italic_o3;
fill: #231F20;
}
.sa_81{
font-size: 15.28px;
font-family: MathematicalPiLTStd-1_rr;
fill: #231F20;
}
.sb_81{
font-size: 12.22px;
font-family: TECHMath-Mix_13x;
fill: #231F20;
}
.sc_81{
font-size: 12.22px;
font-family: MATH_13_;
fill: #231F20;
}
.sd_81{
font-size: 12.99px;
font-family: TimesLTStd-Roman_143;
fill: #231F20;
}
.se_81{
font-size: 12.22px;
font-family: TECHMath-Mix_1g9;
fill: #231F20;
}
.sf_81{
font-size: 14.51px;
font-family: MyriadPro-Bold_74;
fill: #231F20;
}
.sg_81{
font-size: 15.28px;
font-family: MyriadPro-Bold_74;
fill: #231F20;
}
.sh_81{
font-size: 13.75px;
font-family: TimesLTStd-Roman_143;
fill: #231F20;
}
.si_81{
font-size: 13.75px;
font-family: TimesLTStd-Italic_o3;
fill: #231F20;
}
.sj_81{
font-size: 7.64px;
font-family: Times-Roman_4n;
fill: #000000;
}

.g0_81{
fill: #231F20;
}
.g1_81{
fill: none;
stroke: #231F20;
stroke-width: 0.611;
stroke-linecap: butt;
stroke-linejoin: miter;
stroke-miterlimit: 3;
}
.g2_81{
fill: #00AEEF;
}
.g3_81{
fill: none;
stroke: #00AEEF;
stroke-width: 0.763;
stroke-linecap: butt;
stroke-linejoin: miter;
stroke-miterlimit: 4;
}
.g4_81{
fill: none;
stroke: #00AEEF;
stroke-width: 0.763;
stroke-linecap: butt;
stroke-linejoin: miter;
stroke-miterlimit: 3;
}
.g5_81{
fill: none;
stroke: #EC008C;
stroke-width: 1.222;
stroke-linecap: butt;
stroke-linejoin: round;
stroke-miterlimit: 3;
}
.g6_81{
fill: #E2F4FC;
}
.g7_81{
fill: none;
stroke: #231F20;
stroke-width: 0.763;
stroke-linecap: butt;
stroke-linejoin: miter;
}

]]></style>

</defs>
<g clip-path="url(#c_81)">
<path d="M0,0
L0,1096
L931,1096
L931,0 Z " 
fill="#FFFFFF" stroke="none"/>
<text x="607" y="64" dx="0,.2,.2,.5,.2,.2,.2" class="s1_81">SECTION</text>
<text x="659" y="64" class="s2_81">1.4</text>
<text x="689" y="64" dx="0,.1,.1,.1,.1,.1,.1,.1,.1,.1,.1,.1,.1,-.3,.1,.1,.3,.1,.1,.1,.1,.1" class="s3_81">Exponential Functions </text>
<text x="862" y="64" class="s4_81">49</text>
<text x="342" y="107" class="s5_81">±t seems from this pattern that, in general,</text>
<text x="520" y="143" class="s6_81">p</text>
<text x="528" y="143" class="s7_81">s</text>
<text x="533" y="143" class="s6_81">t</text>
<text x="537" y="143" class="s7_81">d</text>
<text x="547" y="143" class="s8_81">-</text>
<text x="564" y="143" class="s5_81">2</text>
<text x="572" y="137" class="s9_81">t</text>
<text x="579" y="143" class="sa_81">3</text>
<text x="597" y="143" class="s5_81">1000</text>
<text x="632" y="143" class="s8_81">-</text>
<text x="649" y="143" class="s7_81">s</text>
<text x="654" y="143" class="s5_81">1000</text>
<text x="685" y="143" class="s7_81">d</text>
<text x="690" y="143" class="s5_81">2</text>
<text x="698" y="137" class="s9_81">t</text>
<text x="342" y="179" dx="0,0,0,0,0,.4,0,0,0,0,0,0,0,0,0,0,.4,0,0,0,0,0,0,0,0,.4,0,0,.4,0,.4,0,0,0,0,0,0,0,0,.4,0,0,0,0,0,0,0,0,.4,0,0,.4,0,0,0,.4,-.2,0,0,0,0,0,0,0,0,0,0,.4,0,0,0,0,0,0,0,0" class="s5_81">This population function is a constant multiple of the exponential function </text>
<text x="804" y="179" class="s6_81">y</text>
<text x="815" y="179" class="s8_81">-</text>
<text x="833" y="179" class="s5_81">2</text>
<text x="841" y="173" class="s9_81">t</text>
<text x="844" y="179" dx="0,0,.4,0,0,.4,0,0" class="s5_81">, so it </text>
<text x="342" y="198" dx="0,-.2,0,0,0,0,0,0,0,1.1,0,0,0,1.1,0,0,0,0,0,1.1,0,0,-.4,0,0,0,1.1,0,0,0,0,1.1,0,0,1.1,0,0,0,0,0,-.2,0,0,1.1,0,0,1.1,0,0,0,0,0,0,0,1.1,0,1.1,0,0,0,1.1,0,0,1.1,0,0,0,0,0,1.1,0,0,0,0,0,1.1,0,0,0,0,0,0,0,0,0,0" class="s5_81">exhibits the rapid growth that we observed in Figures 2 and 7. Under ideal conditions </text>
<text x="342" y="216" dx="0,0,0,0,0,0,0,0,0,0,0,-.2,0,0,0,0,0,-.2,0,0,0,-.2,0,0,0,0,0,0,0,0,0,-.2,0,0,0,-.2,0,0,0,0,0,0,0,-.2,0,0,-.2,0,0,0,0,0,0,0,0,-.2,0,0,0,0,-.2,-.2,0,0,0,0,0,0,0,0,0,0,-.2,0,0,-.4,0,0,0,-.2,0,0,-.2,0,0,0,0,0,0,0" class="s5_81">(unlimited space and nutrition and absence of disease) this exponential growth is typical </text>
<text x="342" y="234" class="s5_81">of what actually occurs in nature.</text>
<text x="360" y="253" dx="0,0,0,0,0,-.6,0,0,0,0,0,-.6,0,0,0,-.6,0,0,0,0,0,-.6,0,0,0,0,0,0,0,0,0,0,0,-.8,-1.2,0,0,0,0,-.6,0,-.6,0,0,-.4,0,0,-.6,0,0,0,0,-.6,0,0,0,-.6,0,0,0,-.6,0,0,0,0,0,0,0,0,0,0,-.6,0,0,-.6,0,0,0,-.6,-.2,0,0,0,0" class="s5_81">What about the human population? Table 1 shows data for the population of the world </text>
<text x="342" y="271" dx="0,0,0,0,0,0,0,0,0,0,0,0,0,0,0,0,0,0,0,0,0,0,0,0,0,0,0,0,0,0,0,0,0,0,0,0,-.4,0,0,0,0,0,0,0,0,0,0,0,0,0,0,0,0,0,0,0,0,0,0,0,0,0,0,0,0,0,0,0,0,0" class="s5_81">in the 20th century and Figure 8 shows the corresponding scatter plot.</text>
<path fill-rule="evenodd" d="M782.2,512l-1.6,-2.4l6.5,2.4l-6.5,2.5Z" class="g0_81"/>
<path fill-rule="evenodd" d="M475.1,322.6l-2.4,1.6l2.4,-6.5l2.5,6.5Z" class="g0_81"/>
<path d="M472.1,365.4h6.1m-6.1,-24.5h6.1" class="g1_81"/>
<path d="M474,471.5c0,-.6,.5,-1.1,1.2,-1.1c.6,0,1.1,.5,1.1,1.1c0,.7,-.5,1.2,-1.1,1.2c-.7,0,-1.2,-.5,-1.2,-1.2Z" class="g2_81"/>
<path d="M474,471.5c0,-.6,.5,-1.1,1.2,-1.1c.6,0,1.1,.5,1.1,1.1c0,.7,-.5,1.2,-1.1,1.2c-.7,0,-1.2,-.5,-1.2,-1.2Z" class="g3_81"/>
<text x="433" y="393" class="sb_81">5</text>
<text x="440" y="393" class="sc_81">x</text>
<text x="453" y="393" dx="0,-.1,.7" class="sb_81">10'</text>
<text x="464" y="324" class="sb_81">P</text>
<text x="782" y="524" class="sb_81">t</text>
<path d="M496.9,469.6c0,-.6,.5,-1.1,1.2,-1.1c.6,0,1.1,.5,1.1,1.1c0,.6,-.5,1.2,-1.1,1.2c-.7,0,-1.2,-.6,-1.2,-1.2Z" class="g2_81"/>
<path d="M496.9,469.6c0,-.6,.5,-1.1,1.2,-1.1c.6,0,1.1,.5,1.1,1.1c0,.6,-.5,1.2,-1.1,1.2c-.7,0,-1.2,-.6,-1.2,-1.2Z" class="g3_81"/>
<path d="M519.8,467.1c0,-.6,.5,-1.1,1.2,-1.1c.6,0,1.1,.5,1.1,1.1c0,.7,-.5,1.2,-1.1,1.2c-.7,0,-1.2,-.5,-1.2,-1.2Z" class="g2_81"/>
<path d="M519.8,467.1c0,-.6,.5,-1.1,1.2,-1.1c.6,0,1.1,.5,1.1,1.1c0,.7,-.5,1.2,-1.1,1.2c-.7,0,-1.2,-.5,-1.2,-1.2Z" class="g3_81"/>
<path d="M542.8,461.6c0,-.6,.5,-1.1,1.1,-1.1c.6,0,1.2,.5,1.2,1.1c0,.7,-.6,1.2,-1.2,1.2c-.6,0,-1.1,-.5,-1.1,-1.2Z" class="g2_81"/>
<path d="M542.8,461.6c0,-.6,.5,-1.1,1.1,-1.1c.6,0,1.2,.5,1.2,1.1c0,.7,-.6,1.2,-1.2,1.2c-.6,0,-1.1,-.5,-1.1,-1.2Z" class="g3_81"/>
<path d="M565.7,456.1c0,-.6,.5,-1.1,1.1,-1.1c.6,0,1.2,.5,1.2,1.1c0,.6,-.6,1.1,-1.2,1.1c-.6,0,-1.1,-.5,-1.1,-1.1Z" class="g2_81"/>
<path d="M565.7,456.1c0,-.6,.5,-1.1,1.1,-1.1c.6,0,1.2,.5,1.2,1.1c0,.6,-.6,1.1,-1.2,1.1c-.6,0,-1.1,-.5,-1.1,-1.1Z" class="g3_81"/>
<path d="M588.6,450.6c0,-.7,.5,-1.2,1.1,-1.2c.7,0,1.2,.5,1.2,1.2c0,.6,-.5,1.1,-1.2,1.1c-.6,0,-1.1,-.5,-1.1,-1.1Z" class="g2_81"/>
<path d="M588.6,450.6c0,-.7,.5,-1.2,1.1,-1.2c.7,0,1.2,.5,1.2,1.2c0,.6,-.5,1.1,-1.2,1.1c-.6,0,-1.1,-.5,-1.1,-1.1Z" class="g3_81"/>
<path d="M611.5,438.5c0,-.6,.5,-1.1,1.2,-1.1c.6,0,1.1,.5,1.1,1.1c0,.7,-.5,1.2,-1.1,1.2c-.7,0,-1.2,-.5,-1.2,-1.2Z" class="g2_81"/>
<path d="M611.5,438.5c0,-.6,.5,-1.1,1.2,-1.1c.6,0,1.1,.5,1.1,1.1c0,.7,-.5,1.2,-1.1,1.2c-.7,0,-1.2,-.5,-1.2,-1.2Z" class="g3_81"/>
<path d="M634.4,422c0,-.7,.5,-1.2,1.2,-1.2c.6,0,1.1,.5,1.1,1.2c0,.6,-.5,1.1,-1.1,1.1c-.7,0,-1.2,-.5,-1.2,-1.1Z" class="g2_81"/>
<path d="M634.4,422c0,-.7,.5,-1.2,1.2,-1.2c.6,0,1.1,.5,1.1,1.2c0,.6,-.5,1.1,-1.1,1.1c-.7,0,-1.2,-.5,-1.2,-1.1Z" class="g3_81"/>
<path d="M657.3,403.8c0,-.7,.5,-1.2,1.2,-1.2c.6,0,1.1,.5,1.1,1.2c0,.6,-.5,1.1,-1.1,1.1c-.7,0,-1.2,-.5,-1.2,-1.1Z" class="g2_81"/>
<path d="M657.3,403.8c0,-.7,.5,-1.2,1.2,-1.2c.6,0,1.1,.5,1.1,1.2c0,.6,-.5,1.1,-1.1,1.1c-.7,0,-1.2,-.5,-1.2,-1.1Z" class="g3_81"/>
<path d="M680.3,383.3c0,-.7,.5,-1.2,1.1,-1.2c.6,0,1.2,.5,1.2,1.2c0,.6,-.6,1.1,-1.2,1.1c-.6,0,-1.1,-.5,-1.1,-1.1Z" class="g2_81"/>
<path d="M680.3,383.3c0,-.7,.5,-1.2,1.1,-1.2c.6,0,1.2,.5,1.2,1.2c0,.6,-.6,1.1,-1.2,1.1c-.6,0,-1.1,-.5,-1.1,-1.1Z" class="g3_81"/>
<path d="M703.2,363.6c0,-.6,.5,-1.1,1.1,-1.1c.6,0,1.2,.5,1.2,1.1c0,.7,-.6,1.2,-1.2,1.2c-.6,0,-1.1,-.5,-1.1,-1.2Z" class="g2_81"/>
<path d="M703.2,363.6c0,-.6,.5,-1.1,1.1,-1.1c.6,0,1.2,.5,1.2,1.1c0,.7,-.6,1.2,-1.2,1.2c-.6,0,-1.1,-.5,-1.1,-1.2Z" class="g3_81"/>
<path d="M726.1,344.1c0,-.6,.5,-1.2,1.1,-1.2c.7,0,1.2,.6,1.2,1.2c0,.6,-.5,1.1,-1.2,1.1c-.6,0,-1.1,-.5,-1.1,-1.1Z" class="g2_81"/>
<path d="M726.1,344.1c0,-.6,.5,-1.2,1.1,-1.2c.7,0,1.2,.6,1.2,1.2c0,.6,-.5,1.1,-1.2,1.1c-.6,0,-1.1,-.5,-1.1,-1.1Z" class="g3_81"/>
<text x="513" y="527" class="sb_81">20</text>
<path d="M521,509v6.1" class="g1_81"/>
<text x="560" y="527" class="sb_81">40</text>
<path d="M566.8,509v6.1" class="g1_81"/>
<text x="605" y="527" class="sb_81">60</text>
<path d="M612.7,509v6.1" class="g1_81"/>
<text x="651" y="527" class="sb_81">80</text>
<path d="M658.5,509v6.1M704.3,509v6.1M750.2,509v6.1" class="g1_81"/>
<text x="694" y="527" dx="0,.2,.7,0,16.5,0,0" class="sb_81">100 120</text>
<path d="M472.1,487.6h6.1m-6.1,-24.5h6.1m-6.1,-24.4h6.1m-6.1,-24.5h6.1m-6.1,-24.4h6.1M475.1,321V512H784.8" class="g1_81"/>
<text x="465" y="523" class="sb_81">0</text>
<text x="591" y="548" dx="0,-1.3,0,0,0,0,0,0,0,0,0,0,0,-1,0,.3" class="sd_81">Years since 1900</text>
<text x="360" y="589" dx="0,0,0,0,-1.9,0,0,0,0,0,0,0,-1.9,0,0,-1.9,0,0,0,-1.9,0,0,0,0,-1.9,0,0,0,0,0,0,-1.9,0,0,-1.9,0,0,0,0,0,0,-1.9,0,-1.9,0,0,0,0,0,0,0,0,-1.9,-.2,0,0,0,0,0,0,0,0,0,0,-1.9,0,0,-.4,0,0,0,0,-1.9,0,0,-1.9,0,0,-1.9,0,0,0,-1.9,0,-1.9,0,0,0,0,0,.1" class="s5_81">The pattern of the data points in Figure 8 suggests exponential growth, so we use a graph- </text>
<text x="342" y="607" dx="0,0,0,0,-.6,0,0,0,0,0,0,0,0,0,0,-.6,0,0,0,0,-.6,-.2,0,0,0,0,0,0,0,0,0,0,-.6,0,-.2,0,0,0,0,0,0,0,0,-.6,0,0,0,0,0,0,0,0,0,0,-.6,0,0,-.6,0,0,0,0,0,-.6,0,0,0,-.6,0,0,0,0,0,0,-.6,0,0,-.6,0,0,0,0,0,-.6,0,0,0,0,0,0,0" class="s5_81">ing calculator with exponential regression capability to apply the method of least squares </text>
<text x="342" y="625" dx="0,0,0,0,0,0,0,0,0,0,0,0,0,0,0,0,-.2,0,0,0,0,0,0,0,0,0,0,0,0,0,0,0" class="s5_81">and obtain the exponential model</text>
<text x="526" y="661" class="s6_81">P</text>
<text x="540" y="661" class="s8_81">-</text>
<text x="557" y="661" class="s7_81">s</text>
<text x="562" y="661" class="s5_81">1436.53</text>
<text x="612" y="661" class="s7_81">d</text>
<text x="621" y="661" class="sa_81">?</text>
<text x="631" y="661" class="s7_81">s</text>
<text x="636" y="661" class="s5_81">1.01395</text>
<text x="686" y="661" class="s7_81">d</text>
<text x="691" y="654" class="s9_81">t</text>
<text x="342" y="697" class="s5_81">where </text>
<text x="383" y="697" class="s6_81">t</text>
<text x="392" y="697" class="s8_81">-</text>
<text x="409" y="697" dx="0,0,0,0,0,0,0,0,0,0,0,0,0,0,0,0,0,0,0,0,0,0,0,0,0,0,0,0,0,0,0,0,0,0,0,-.4,0,0,0,0,0,0,0,0,0,0,0,0,0,0,0,0,0,0,0,0,0,-.2,0,0,0,0,0,0,0,0,0,0,0,0,0,0,0,0,0,0,.1" class="s5_81">0 corresponds to 1900. Figure 9 shows the graph of this exponential function </text>
<text x="342" y="716" dx="0,0,0,0,0,0,0,0,0,-.2,0,0,0,0,-.2,0,0,0,-.2,0,0,0,0,0,0,0,0,-.2,0,0,0,0,-.2,0,0,0,0,0,0,0,-.7,-1.2,0,-.2,0,0,0,-.2,0,0,0,0,-.2,0,0,0,-.2,-.2,0,0,0,0,0,0,0,0,0,0,-.2,0,0,0,-.2,0,-.2,0,0,0,-.2,0,0,0,-.2,0,0,0,0,-.2,0,0,0" class="s5_81">together with the original data points. We see that the exponential curve Its the data rea-</text>
<text x="342" y="734" dx="0,0,0,0,0,0,0,0,1.1,0,0,0,0,0,.8,0,0,0,1.1,0,0,0,0,0,0,1.1,0,0,1.1,0,0,0,0,0,-.4,-.2,0,0,0,1.1,0,0,-.4,0,1.1,0,0,0,0,0,0,0,0,0,0,1.1,0,0,-.4,0,0,0,1.1,0,0,1.1,-.2,0,0,0,0,0,0,0,0,1.1,0,0,1.1,0,0,0,1.1,0,-.2,0" class="s5_81">sonably well. The period of relatively slow population growth is explained by the two </text>
<text x="342" y="752" dx="0,-.2,0,0,0,0,0,-.2,0,0,0,0,0,0,0,0,0,0,0,0,0,0,0,0,0,0,0,0,0,0,0,0,0,0,0,0,0,0,0,0,0,0,0,0,0,0,0,0,0" class="s5_81">world wars and the Great Depression of the 1930s.</text>
<text x="432" y="860" class="sb_81">5</text>
<text x="438" y="860" class="sc_81">x</text>
<text x="452" y="860" dx="0,-.1,.7" class="sb_81">10'</text>
<text x="515" y="995" class="se_81">20</text>
<text x="562" y="995" class="se_81">40</text>
<text x="607" y="995" class="se_81">60</text>
<text x="653" y="995" dx="0,0,0,18.3,.2,.7,0,16.5,0,0" class="se_81">80 100 120</text>
<path fill-rule="evenodd" d="M783.6,979.5l-1.7,-2.4l6.6,2.4l-6.6,2.5Z" class="g0_81"/>
<path fill-rule="evenodd" d="M476.5,794.7l-2.5,1.6l2.5,-6.5l2.4,6.5Z" class="g0_81"/>
<path d="M473.4,832.9h6.1m-6.1,-24.5h6.1" class="g1_81"/>
<path d="M475.3,939c0,-.6,.6,-1.1,1.2,-1.1c.6,0,1.1,.5,1.1,1.1c0,.7,-.5,1.2,-1.1,1.2c-.6,0,-1.2,-.5,-1.2,-1.2Z" class="g2_81"/>
<path d="M475.3,939c0,-.6,.6,-1.1,1.2,-1.1c.6,0,1.1,.5,1.1,1.1c0,.7,-.5,1.2,-1.1,1.2c-.6,0,-1.2,-.5,-1.2,-1.2Z" class="g4_81"/>
<text x="465" y="796" class="se_81">P</text>
<text x="783" y="991" class="se_81">t</text>
<path d="M498.3,937.1c0,-.6,.5,-1.1,1.1,-1.1c.6,0,1.1,.5,1.1,1.1c0,.6,-.5,1.2,-1.1,1.2c-.6,0,-1.1,-.6,-1.1,-1.2Z" class="g2_81"/>
<path d="M498.3,937.1c0,-.6,.5,-1.1,1.1,-1.1c.6,0,1.1,.5,1.1,1.1c0,.6,-.5,1.2,-1.1,1.2c-.6,0,-1.1,-.6,-1.1,-1.2Z" class="g4_81"/>
<path d="M521.2,934.6c0,-.6,.5,-1.1,1.1,-1.1c.6,0,1.2,.5,1.2,1.1c0,.7,-.6,1.2,-1.2,1.2c-.6,0,-1.1,-.5,-1.1,-1.2Z" class="g2_81"/>
<path d="M521.2,934.6c0,-.6,.5,-1.1,1.1,-1.1c.6,0,1.2,.5,1.2,1.1c0,.7,-.6,1.2,-1.2,1.2c-.6,0,-1.1,-.5,-1.1,-1.2Z" class="g4_81"/>
<path d="M544.1,929.1c0,-.6,.5,-1.1,1.1,-1.1c.7,0,1.2,.5,1.2,1.1c0,.7,-.5,1.2,-1.2,1.2c-.6,0,-1.1,-.5,-1.1,-1.2Z" class="g2_81"/>
<path d="M544.1,929.1c0,-.6,.5,-1.1,1.1,-1.1c.7,0,1.2,.5,1.2,1.1c0,.7,-.5,1.2,-1.2,1.2c-.6,0,-1.1,-.5,-1.1,-1.2Z" class="g4_81"/>
<path d="M567,923.6c0,-.6,.5,-1.1,1.2,-1.1c.6,0,1.1,.5,1.1,1.1c0,.6,-.5,1.1,-1.1,1.1c-.7,0,-1.2,-.5,-1.2,-1.1Z" class="g2_81"/>
<path d="M567,923.6c0,-.6,.5,-1.1,1.2,-1.1c.6,0,1.1,.5,1.1,1.1c0,.6,-.5,1.1,-1.1,1.1c-.7,0,-1.2,-.5,-1.2,-1.1Z" class="g4_81"/>
<path d="M589.9,918.1c0,-.7,.5,-1.2,1.2,-1.2c.6,0,1.1,.5,1.1,1.2c0,.6,-.5,1.1,-1.1,1.1c-.7,0,-1.2,-.5,-1.2,-1.1Z" class="g2_81"/>
<path d="M589.9,918.1c0,-.7,.5,-1.2,1.2,-1.2c.6,0,1.1,.5,1.1,1.2c0,.6,-.5,1.1,-1.1,1.1c-.7,0,-1.2,-.5,-1.2,-1.1Z" class="g4_81"/>
<path d="M612.8,906c0,-.6,.6,-1.1,1.2,-1.1c.6,0,1.1,.5,1.1,1.1c0,.7,-.5,1.2,-1.1,1.2c-.6,0,-1.2,-.5,-1.2,-1.2Z" class="g2_81"/>
<path d="M612.8,906c0,-.6,.6,-1.1,1.2,-1.1c.6,0,1.1,.5,1.1,1.1c0,.7,-.5,1.2,-1.1,1.2c-.6,0,-1.2,-.5,-1.2,-1.2Z" class="g4_81"/>
<path d="M635.8,889.5c0,-.7,.5,-1.2,1.1,-1.2c.6,0,1.1,.5,1.1,1.2c0,.6,-.5,1.1,-1.1,1.1c-.6,0,-1.1,-.5,-1.1,-1.1Z" class="g2_81"/>
<path d="M635.8,889.5c0,-.7,.5,-1.2,1.1,-1.2c.6,0,1.1,.5,1.1,1.2c0,.6,-.5,1.1,-1.1,1.1c-.6,0,-1.1,-.5,-1.1,-1.1Z" class="g4_81"/>
<path d="M658.7,871.3c0,-.7,.5,-1.2,1.1,-1.2c.6,0,1.2,.5,1.2,1.2c0,.6,-.6,1.1,-1.2,1.1c-.6,0,-1.1,-.5,-1.1,-1.1Z" class="g2_81"/>
<path d="M658.7,871.3c0,-.7,.5,-1.2,1.1,-1.2c.6,0,1.2,.5,1.2,1.2c0,.6,-.6,1.1,-1.2,1.1c-.6,0,-1.1,-.5,-1.1,-1.1Z" class="g4_81"/>
<path d="M681.6,850.8c0,-.7,.5,-1.2,1.1,-1.2c.7,0,1.2,.5,1.2,1.2c0,.6,-.5,1.1,-1.2,1.1c-.6,0,-1.1,-.5,-1.1,-1.1Z" class="g2_81"/>
<path d="M681.6,850.8c0,-.7,.5,-1.2,1.1,-1.2c.7,0,1.2,.5,1.2,1.2c0,.6,-.5,1.1,-1.2,1.1c-.6,0,-1.1,-.5,-1.1,-1.1Z" class="g4_81"/>
<path d="M704.5,831.2c0,-.7,.5,-1.2,1.1,-1.2c.7,0,1.2,.5,1.2,1.2c0,.6,-.5,1.1,-1.2,1.1c-.6,0,-1.1,-.5,-1.1,-1.1Z" class="g2_81"/>
<path d="M704.5,831.2c0,-.7,.5,-1.2,1.1,-1.2c.7,0,1.2,.5,1.2,1.2c0,.6,-.5,1.1,-1.2,1.1c-.6,0,-1.1,-.5,-1.1,-1.1Z" class="g4_81"/>
<path d="M727.4,811.6c0,-.6,.5,-1.2,1.2,-1.2c.6,0,1.1,.6,1.1,1.2c0,.6,-.5,1.1,-1.1,1.1c-.7,0,-1.2,-.5,-1.2,-1.1Z" class="g2_81"/>
<path d="M727.4,811.6c0,-.6,.5,-1.2,1.2,-1.2c.6,0,1.1,.6,1.1,1.2c0,.6,-.5,1.1,-1.1,1.1c-.7,0,-1.2,-.5,-1.2,-1.1Z" class="g4_81"/>
<path d="M522.3,976.5v6.1m45.9,-6.1v6.1M614,976.5v6.1m45.8,-6.1v6.1m45.8,-6.1v6.1m45.9,-6.1v6.1M473.4,955.1h6.1m-6.1,-24.5h6.1m-6.1,-24.4h6.1m-6.1,-24.5h6.1m-6.1,-24.4h6.1" class="g1_81"/>
<path d="M477.1,944.8c33.5,-7,176.7,-40.1,261.6,-135.4" class="g5_81"/>
<path d="M476.5,793.1V979.5H786.1" class="g1_81"/>
<text x="467" y="991" class="se_81">0</text>
<text x="593" y="1016" dx="0,-1.3,0,0,0,0,0,0,0,0,0,0,0,-1,0,.3" class="sd_81">Years since 1900</text>
<text x="267" y="515" dx="0,.3,.3,.3,.3,.3,.1" class="sf_81">FIGURE </text>
<text x="320" y="515" class="sg_81">8 </text>
<text x="210" y="532" dx="0,0,0,0,0,0,0,0,0,0,0,0,0,0,0,0,0,0,-.1,0,0,0,0" class="sh_81">Scatter plot for world </text>
<text x="227" y="549" dx="0,0,0,0,0,0,0,0,0,0,0,0,0,0,-.3,0,0" class="sh_81">population growth</text>
<text x="267" y="978" dx="0,.3,.3,.3,.3,.3,.1" class="sf_81">FIGURE </text>
<text x="320" y="978" class="sg_81">9 </text>
<text x="204" y="995" class="sh_81">Exponential model for </text>
<text x="227" y="1011" dx="0,0,0,0,0,0,0,0,0,0,0,0,0,0,-.3,0,0" class="sh_81">population growth</text>
<path d="M108.9,199.2h110v44.3h-110Zm110,0h82.5v44.3H218.9Z" class="g6_81"/>
<path d="M218.9,262.2V243.8m0,36.7V262.2m0,36.6V280.5m0,36.7V298.8m0,36.7V317.2m0,36.6V335.5m0,36.7V353.8m0,36.7V372.2m0,36.6V390.5m0,36.7V408.8m0,36.7V427.2m0,39.3v-21m0,-202.4V199.5m-110,62.7V243.8m192.5,18.4V243.8M108.9,280.5V262.2m192.5,18.3V262.2M108.9,298.8V280.5m192.5,18.3V280.5M108.9,317.2V298.8m192.5,18.4V298.8M108.9,335.5V317.2m192.5,18.3V317.2M108.9,353.8V335.5m192.5,18.3V335.5M108.9,372.2V353.8m192.5,18.4V353.8M108.9,390.5V372.2m192.5,18.3V372.2M108.9,408.8V390.5m192.5,18.3V390.5M108.9,427.2V408.8m192.5,18.4V408.8M108.9,445.5V427.2m192.5,18.3V427.2M108.9,466.5v-21m192.5,21v-21M108.5,466.9H218.9m0,0h82.9M108.5,199.2H218.9m-110,43.9V199.5m110,-.3h82.9m-.4,43.9V199.5m-192.9,44H218.9m0,0h82.9" class="g7_81"/>
<text x="161" y="217" class="si_81">t</text>
<text x="114" y="234" dx="0,-.1,-.1,-.1,-.1,-.1,-.1,-.1,-.1,-.1,-.1,-.1,-.1,-.1,-.1,-.1,-.1,-.1" class="sh_81">(years since 1900)</text>
<text x="230" y="217" class="sh_81">Population </text>
<text x="232" y="234" class="sh_81">(millions)</text>
<text x="166" y="257" class="sh_81">0</text>
<text x="246" y="257" class="sh_81">1650</text>
<text x="159" y="276" class="sh_81">10</text>
<text x="246" y="276" class="sh_81">1750</text>
<text x="159" y="294" class="sh_81">20</text>
<text x="246" y="294" class="sh_81">1860</text>
<text x="159" y="312" class="sh_81">30</text>
<text x="246" y="312" class="sh_81">2070</text>
<text x="159" y="331" class="sh_81">40</text>
<text x="246" y="331" class="sh_81">2300</text>
<text x="159" y="349" class="sh_81">50</text>
<text x="246" y="349" class="sh_81">2560</text>
<text x="159" y="367" class="sh_81">60</text>
<text x="246" y="367" class="sh_81">3040</text>
<text x="159" y="386" class="sh_81">70</text>
<text x="246" y="386" class="sh_81">3710</text>
<text x="159" y="404" class="sh_81">80</text>
<text x="246" y="404" class="sh_81">4450</text>
<text x="159" y="422" class="sh_81">90</text>
<text x="246" y="422" class="sh_81">5280</text>
<text x="152" y="441" class="sh_81">100</text>
<text x="246" y="441" class="sh_81">6080</text>
<text x="152" y="459" class="sh_81">110</text>
<text x="246" y="459" class="sh_81">6870</text>
<text x="181" y="191" dx="0,-1,0,0,0,0" class="sf_81">Table </text>
<text x="219" y="191" class="sg_81">1</text>
<text x="121" y="1076" class="sj_81">Copyright 2016 Cengage Learning. All Rights Reserved. May not be copied, scanned, or duplicated, in whole or in part. Due to electronic rights, some third party content may be suppressed from the eBook and/or eChapter(s).</text>
<text x="106" y="1087" class="sj_81">Editorial review has deemed that any suppressed content does not materially affect the overall learning experience. Cengage Learning reserves the right to remove additional content at any time if subsequent rights restrictions require it.</text>

</g>

<!-- Any embedded fonts defined here -->
<style type="text/css" ><![CDATA[

@font-face {
	font-family: MATH_13_;
	src: url("fonts/MATH_13_.woff") format("woff");
}

@font-face {
	font-family: MathematicalPiLTStd-1_rr;
	src: url("fonts/MathematicalPiLTStd-1_rr.woff") format("woff");
}

@font-face {
	font-family: MathematicalPiLTStd-3_ry;
	src: url("fonts/MathematicalPiLTStd-3_ry.woff") format("woff");
}

@font-face {
	font-family: MathematicalPiLTStd-5_vb;
	src: url("fonts/MathematicalPiLTStd-5_vb.woff") format("woff");
}

@font-face {
	font-family: MyriadPro-Bold_74;
	src: url("fonts/MyriadPro-Bold_74.woff") format("woff");
}

@font-face {
	font-family: MyriadPro-Regular_4i;
	src: url("fonts/MyriadPro-Regular_4i.woff") format("woff");
}

@font-face {
	font-family: MyriadPro-Semibold_49;
	src: url("fonts/MyriadPro-Semibold_49.woff") format("woff");
}

@font-face {
	font-family: TECHMath-Mix_13x;
	src: url("fonts/TECHMath-Mix_13x.woff") format("woff");
}

@font-face {
	font-family: TECHMath-Mix_1g9;
	src: url("fonts/TECHMath-Mix_1g9.woff") format("woff");
}

@font-face {
	font-family: Times-Roman_4n;
	src: url("fonts/Times-Roman_4n.woff") format("woff");
}

@font-face {
	font-family: TimesLTStd-Italic_o3;
	src: url("fonts/TimesLTStd-Italic_o3.woff") format("woff");
}

@font-face {
	font-family: TimesLTStd-Roman_143;
	src: url("fonts/TimesLTStd-Roman_143.woff") format("woff");
}

]]></style>

</svg>
