<?xml version="1.0" encoding="UTF-8" standalone="no"?>
<!DOCTYPE svg PUBLIC "-//W3C//DTD SVG 1.1//EN"
"http://www.w3.org/Graphics/SVG/1.1/DTD/svg11.dtd">


<!-- Page 82 -->
<svg x="0" y="0" width="931" height="1096" viewBox="0 0 931 1096" version="1.1" xmlns="http://www.w3.org/2000/svg" xmlns:xlink="http://www.w3.org/1999/xlink"
style="display: block;margin-left: auto;margin-right: auto;">
<defs>
<clipPath id="c_82"><path d="M0,0H931V1096H0Z"/></clipPath>
<clipPath id="c0_82"><path d="M473.6,729.5V596.3h160V729.5Z"/></clipPath>

<style type="text/css"><![CDATA[
text { white-space: pre; }
path, image { pointer-events: none; }

.s1_82{
font-size: 15.28px;
font-family: MyriadPro-Semibold_49;
fill: #231F20;
}
.s2_82{
font-size: 12.22px;
font-family: MyriadPro-Semibold_49;
fill: #231F20;
}
.s3_82{
font-size: 13.75px;
font-family: MyriadPro-Semibold_49;
fill: #231F20;
}
.s4_82{
font-size: 12.22px;
font-family: MyriadPro-Regular_4i;
fill: #231F20;
}
.s5_82{
font-size: 15.28px;
font-family: TimesLTStd-Roman_143;
fill: #231F20;
}
.s6_82{
font-size: 8.91px;
font-family: TimesLTStd-Roman_143;
fill: #231F20;
}
.s7_82{
font-size: 15.28px;
font-family: TimesLTStd-Italic_o3;
fill: #231F20;
}
.s8_82{
font-size: 15.28px;
font-family: MathematicalPiLTStd-3_ry;
fill: #231F20;
}
.s9_82{
font-size: 10.69px;
font-family: TimesLTStd-Roman_143;
fill: #231F20;
}
.sa_82{
font-size: 12.22px;
font-family: TECHMath-Mix_16e;
fill: #231F20;
}
.sb_82{
font-size: 12.22px;
font-family: TECHMath-Mix_1a5;
fill: #231F20;
}
.sc_82{
font-size: 12.22px;
font-family: TECHMath-Mix_187;
fill: #231F20;
}
.sd_82{
font-size: 12.22px;
font-family: TECHMath-Mix_123;
fill: #231F20;
}
.se_82{
font-size: 12.22px;
font-family: TECHMath-Mix_1gf;
fill: #231F20;
}
.sf_82{
font-size: 12.22px;
font-family: TimesLTStd-Roman_143;
fill: #231F20;
}
.sg_82{
font-size: 14.51px;
font-family: MyriadPro-Bold_74;
fill: #231F20;
}
.sh_82{
font-size: 15.28px;
font-family: MyriadPro-Bold_74;
fill: #231F20;
}
.si_82{
font-size: 13.75px;
font-family: TimesLTStd-Roman_143;
fill: #231F20;
}
.sj_82{
font-size: 15.28px;
font-family: MathematicalPiLTStd-5_vb;
fill: #231F20;
}
.sk_82{
font-size: 9.17px;
font-family: TimesLTStd-Italic_o3;
fill: #231F20;
}
.sl_82{
font-size: 15.28px;
font-family: MathematicalPiLTStd-1_rr;
fill: #231F20;
}
.sm_82{
font-size: 15.28px;
font-family: TimesLTStd-Bold_oh;
fill: #231F20;
}
.sn_82{
font-size: 16.81px;
font-family: MyriadPro-BoldSemiCn_90;
fill: #EC008C;
}
.so_82{
font-size: 17.57px;
font-family: MyriadPro-BoldSemiCn_90;
fill: #EC008C;
}
.sp_82{
font-size: 9.17px;
font-family: TimesLTStd-Roman_143;
fill: #231F20;
}
.sq_82{
font-size: 15.28px;
font-family: KievitOT-Bold_6q;
fill: #231F20;
}
.sr_82{
font-size: 13.75px;
font-family: TimesLTStd-Italic_o3;
fill: #231F20;
}
.ss_82{
font-size: 13.75px;
font-family: MathematicalPiLTStd-3_ry;
fill: #231F20;
}
.st_82{
font-size: 12.22px;
font-family: TimesLTStd-Italic_o3;
fill: #231F20;
}
.su_82{
font-size: 7.64px;
font-family: Times-Roman_4n;
fill: #000000;
}

.g0_82{
fill: none;
stroke: #231F20;
stroke-width: 0.611;
stroke-linecap: butt;
stroke-linejoin: miter;
stroke-miterlimit: 3;
}
.g1_82{
fill: #231F20;
}
.g2_82{
fill: #00AEEF;
}
.g3_82{
fill: none;
stroke: #00AEEF;
stroke-width: 0.763;
stroke-linecap: butt;
stroke-linejoin: miter;
stroke-miterlimit: 3;
}
.g4_82{
fill: none;
stroke: #EC008C;
stroke-width: 0.916;
stroke-linecap: butt;
stroke-linejoin: miter;
stroke-miterlimit: 4;
}
.g5_82{
fill: none;
stroke: #EE1D23;
stroke-width: 1.222;
stroke-linecap: butt;
stroke-linejoin: miter;
stroke-miterlimit: 4;
}
.g6_82{
fill: none;
stroke: #00AEEF;
stroke-width: 0.763;
stroke-linecap: butt;
stroke-linejoin: miter;
stroke-miterlimit: 4;
}
.g7_82{
fill: #E2F4FC;
}
.g8_82{
fill: none;
stroke: #231F20;
stroke-width: 0.763;
stroke-linecap: butt;
stroke-linejoin: miter;
}

]]></style>

</defs>
<g clip-path="url(#c_82)">
<path d="M0,0
L0,1096
L931,1096
L931,0 Z " 
fill="#FFFFFF" stroke="none"/>
<text x="53" y="64" class="s1_82">50</text>
<text x="126" y="64" dx="0,.2,.2,.2,.2,.2,.2,.1" class="s2_82">CHAPTER </text>
<text x="180" y="64" class="s3_82">1</text>
<text x="200" y="64" dx="0,-.3,.1,.1,.3,.1,.1,.1,.1,.1,.1,.1,.1,.1,.1,.2,.1,.1,.1,.1" class="s4_82">Functions and Models</text>
<text x="305" y="107" dx="0,0,0,-.5,0,0,0,0,-.5,0,-.5,0,0,0,0,0,-.5,0,0,0,0,0,0,0,0,-.5,0,0,0,0,0,0,0,0,0,-.5,0,0,0,-.5,0,-.4,0,0,0,0,-.5,0,0,-.5,0,0,0,-.5,0,0,0,0,0,0,0,0,-.5,0,0,0,0,0,0,0,0,0,-1.3,0,0,-1.4,0,0,0,0,-.5,0,0,-.5,0,0,0" class="s5_82">±n 1995 a paper appeared detailing the effect of the protease inhibitor ABT-538 on the </text>
<text x="287" y="126" dx="0,0,0,0,0,0,1,0,0,0,0,0,0,0,0,0,0,0,0,0,-.2,0,1,0,0,0,0,0,1,0,0,-1.5,0,0" class="s5_82">human immunodeIciency virus H±V-1.</text>
<text x="529" y="121" class="s6_82">1</text>
<text x="538" y="126" dx="0,-1.2,0,0,0,0,1,0,1,0,0,-.4,0,0,1,-.4,0,0,0,0,0,1,0,0,1,0,0,0,1,0,0,0,0,0,0,1,0,0,0,0,0,1,0,0,0,0" class="s5_82">Table 2 shows values of the plasma viral load </text>
<text x="287" y="144" class="s7_82">V</text>
<text x="296" y="144" class="s8_82">s</text>
<text x="302" y="144" class="s7_82">t</text>
<text x="307" y="144" class="s8_82">d</text>
<text x="315" y="144" dx="0,0,0,-.7,0,0,0,0,0,0,0,-.7,0,0,0,0,-.7,0,0,0,0,0,0,0,0,-.7,0,0,-.7,0,-.5,0,-.7,0,0,0,0,0,0,-.7,0,0,0,-.7,0,0,0" class="s5_82">of patient 303, measured in RNA copies per mL, </text>
<text x="609" y="144" class="s7_82">t</text>
<text x="617" y="144" dx="0,0,0,0,0,-.7,0,0,0,0,0,-1.6,0,0,-1.4,0,0,0,0,-.7,0,0,0,0,0,0,0,0,0,-.7,-.2,0,0" class="s5_82">days after ABT-538 treatment was </text>
<text x="287" y="162" dx="0,0,-.2,0,0,0,0,-.3,0,0,0,0,0,0,0,0,0,0,0,0,0,0,0,0,0,0,0,0,0,0,0,0,0,0,0,0,0,0,0,0,0,0,0,0,-.4,0,0,0,0,0,0,0,0,0,0,0,0,0,0,0" class="s5_82">begun. The corresponding scatter plot is shown in Figure 10.</text>
<text transform="matrix(0,-1,1,0,512,307)" class="s9_82">RNA copies / mL</text>
<path d="M542.9,201.9V336H711" class="g0_82"/>
<path fill-rule="evenodd" d="M542.9,201.9l-2.4,1.6l2.4,-6.5l2.5,6.5Z" class="g1_82"/>
<text x="533" y="348" class="sa_82">0</text>
<text x="531" y="204" class="sb_82">V</text>
<text x="586" y="352" class="sc_82">10</text>
<text x="634" y="352" class="sd_82">20</text>
<text x="683" y="352" class="se_82">30</text>
<path d="M591.8,333v6.1M640.7,333v6.1M689.6,333v6.1M539.9,302.4H546m-6.1,-33.6H546m-6.1,-33.6H546" class="g0_82"/>
<text x="524" y="306" class="se_82">20</text>
<text x="524" y="272" class="se_82">40</text>
<text x="524" y="239" class="se_82">60</text>
<path fill-rule="evenodd" d="M711,336l-1.7,-2.4l6.6,2.4l-6.6,2.5Z" class="g1_82"/>
<text x="708" y="347" class="se_82">t </text>
<text x="715" y="347" class="sf_82">(days)</text>
<path d="M549.5,208.1c.1,1,-.6,1.8,-1.5,1.9c-1,.1,-1.8,-.6,-1.9,-1.5c-.1,-1,.6,-1.8,1.5,-1.9c1,-.1,1.8,.6,1.9,1.5Z" class="g2_82"/>
<path d="M549.5,208.1c.1,1,-.6,1.8,-1.5,1.9c-1,.1,-1.8,-.6,-1.9,-1.5c-.1,-1,.6,-1.8,1.5,-1.9c1,-.1,1.8,.6,1.9,1.5Z" class="g3_82"/>
<path d="M564.2,246.8c.1,.9,-.6,1.8,-1.6,1.9c-.9,.1,-1.8,-.6,-1.9,-1.6c0,-.9,.7,-1.8,1.6,-1.9c1,-.1,1.8,.6,1.9,1.6Z" class="g2_82"/>
<path d="M564.2,246.8c.1,.9,-.6,1.8,-1.6,1.9c-.9,.1,-1.8,-.6,-1.9,-1.6c0,-.9,.7,-1.8,1.6,-1.9c1,-.1,1.8,.6,1.9,1.6Z" class="g3_82"/>
<path d="M583.7,305.6c.1,1,-.6,1.8,-1.5,1.9c-1,.1,-1.8,-.6,-1.9,-1.6c-.1,-.9,.6,-1.8,1.6,-1.8c.9,-.1,1.8,.6,1.8,1.5Z" class="g2_82"/>
<path d="M583.7,305.6c.1,1,-.6,1.8,-1.5,1.9c-1,.1,-1.8,-.6,-1.9,-1.6c-.1,-.9,.6,-1.8,1.6,-1.8c.9,-.1,1.8,.6,1.8,1.5Z" class="g3_82"/>
<path d="M598.4,320.1c.1,.9,-.6,1.8,-1.6,1.8c-.9,.1,-1.7,-.6,-1.8,-1.5c-.1,-1,.6,-1.8,1.5,-1.9c1,-.1,1.8,.6,1.9,1.6Z" class="g2_82"/>
<path d="M598.4,320.1c.1,.9,-.6,1.8,-1.6,1.8c-.9,.1,-1.7,-.6,-1.8,-1.5c-.1,-1,.6,-1.8,1.5,-1.9c1,-.1,1.8,.6,1.9,1.6Z" class="g3_82"/>
<path d="M618,327.1c0,1,-.7,1.8,-1.6,1.9c-1,.1,-1.8,-.6,-1.9,-1.6c-.1,-.9,.6,-1.8,1.6,-1.8c.9,-.1,1.8,.6,1.9,1.5Z" class="g2_82"/>
<path d="M618,327.1c0,1,-.7,1.8,-1.6,1.9c-1,.1,-1.8,-.6,-1.9,-1.6c-.1,-.9,.6,-1.8,1.6,-1.8c.9,-.1,1.8,.6,1.9,1.5Z" class="g3_82"/>
<path d="M652.2,329.8c.1,1,-.6,1.8,-1.6,1.9c-.9,.1,-1.8,-.6,-1.8,-1.6c-.1,-.9,.6,-1.8,1.5,-1.8c1,-.1,1.8,.6,1.9,1.5Z" class="g2_82"/>
<path d="M652.2,329.8c.1,1,-.6,1.8,-1.6,1.9c-.9,.1,-1.8,-.6,-1.8,-1.6c-.1,-.9,.6,-1.8,1.5,-1.8c1,-.1,1.8,.6,1.9,1.5Z" class="g3_82"/>
<text x="507" y="377" dx="0,.3,.3,.3,.3,.3,.1" class="sg_82">FIGURE </text>
<text x="559" y="377" class="sh_82">10</text>
<text x="583" y="377" class="si_82">Plasma viral load in patient 303</text>
<text x="305" y="411" dx="0,0,0,0,.7,0,0,0,0,0,0,.7,0,0,0,0,0,0,0,0,.7,0,0,0,0,0,0,0,.7,0,0,.7,0,0,0,.7,0,0,0,0,0,.7,0,0,0,0,.7,0,0,0,0,.7,0,0,.7,0,0,0,.7,0,0,.7,0,0,0,0,0,0,.7,0,0,.7,0,0,0,0,0,0,0,.7,0,0,.7,0,0" class="s5_82">The rather dramatic decline of the viral load that we see in Figure 10 reminds us of </text>
<text x="287" y="429" dx="0,0,0,0,-.7,0,0,0,0,0,0,-.7,0,0,-.7,0,0,0,-.7,-.2,0,0,0,0,0,0,0,0,0,0,-.7,0,0,0,0,0,0,0,0" class="s5_82">the graphs of the exponential function </text>
<text x="519" y="429" class="s7_82">y</text>
<text x="530" y="429" class="sj_82">-</text>
<text x="547" y="429" class="s7_82">b</text>
<text x="557" y="423" class="sk_82">x</text>
<text x="564" y="429" dx="0,0,0,-.7,0,0,0,0,0,0,0,-.7,0,-.7,0,0,0,-.7,0,0,0,0,-.7,0,0,0,-.7,0,0,0,-.7,0,0,0,0,-.7,0,0,0,0,0,-.7,0,0,0" class="s5_82">in Figures 3 and 4(a) for the case where the </text>
<text x="287" y="448" class="s5_82">base </text>
<text x="318" y="448" class="s7_82">b</text>
<text x="330" y="448" dx="0,0,0,.2,0,0,0,0,.2,0,0,0,0,.2,0,0,.2,0,0,.2,0,0,0,-.8,0,.2,0,0,0,0,0,.2,0,0,0,.2,0,0,0,0,0,0,0,0" class="s5_82">is less than 1. So let’s model the function </text>
<text x="586" y="448" class="s7_82">V</text>
<text x="595" y="448" class="s8_82">s</text>
<text x="601" y="448" class="s7_82">t</text>
<text x="606" y="448" class="s8_82">d</text>
<text x="615" y="448" dx="0,0,0,.2,0,0,.2,-.2,0,0,0,0,0,0,0,0,0,0,.2,0,0,0,0,0,0,0,0,0,.2,0,0,0,0,0" class="s5_82">by an exponential function. Using </text>
<text x="287" y="466" dx="0,0,.1,0,0,0,0,0,0,0,0,.1,0,0,0,0,0,0,0,0,0,0,.1,0,0,.1,0,0,0,0,0,0,0,0,.1,0,0,.1,0,0,.1,0,0,0,.1,0,0,0,0,.1,0,0,-.1,-1.2,0,0,0,0,.1,0,.1,0,0,0,0,.1,0,0,.1,-.2,0,0,0,0,0,0,0,0,0,0,.1,0,0,0,0,0,0,0,0" class="s5_82">a graphing calculator or computer to It the data in Table 2 with an exponential function </text>
<text x="287" y="484" class="s5_82">of the form </text>
<text x="360" y="484" class="s7_82">y</text>
<text x="371" y="484" class="sj_82">-</text>
<text x="388" y="484" class="s7_82">a</text>
<text x="401" y="484" class="sl_82">?</text>
<text x="410" y="484" class="s7_82">b</text>
<text x="419" y="478" class="sk_82">t</text>
<text x="421" y="484" class="s5_82">, we obtain the model</text>
<text x="469" y="516" class="s7_82">V</text>
<text x="482" y="516" class="sj_82">-</text>
<text x="500" y="516" class="s5_82">96.39785</text>
<text x="561" y="516" class="sl_82">?</text>
<text x="571" y="516" class="s8_82">s</text>
<text x="576" y="516" class="s5_82">0.818656</text>
<text x="633" y="516" class="s8_82">d</text>
<text x="639" y="510" class="sk_82">t</text>
<text x="287" y="547" dx="0,0,0,1.5,0,0,0,0,0,0,1.5,0,0,1.5,0,0,1.5,0,0,0,0,0,1.5,0,0,0,0,1.5,-.2,0,0,0,0,0,0,0,0,0,0,1.5,0,0,0,0,0,0,0,0,1.5,0,0,0,0,1.5,0,0,0,1.5,0,0,0,0,1.5,0,0,0,0,0,0,1.5,0,0,0,1.5,0,0,0,1.5,0,0,0,0,1.5,0,0,0" class="s5_82">±n Figure 11 we graph this exponential function with the data points and see that the </text>
<text x="287" y="565" class="s5_82">model represents the viral load reasonably well for the Irst month of treatment.</text>
<g clip-path="url(#c0_82)">
<path d="M476.8,587.6C487,646.4,502.1,696.2,530.2,713c26.6,15.8,52.7,14.5,90.1,15.6" class="g4_82"/>
</g>
<path d="M620.3,728.6h19.6" class="g5_82"/>
<text transform="matrix(0,-1,1,0,443,700)" class="s9_82">RNA copies / mL</text>
<path fill-rule="evenodd" d="M641.7,729.5l-1.6,-2.4l6.5,2.4l-6.5,2.5Z" class="g1_82"/>
<path d="M473.6,595.4V729.5H641.7" class="g0_82"/>
<path fill-rule="evenodd" d="M473.6,595.4l-2.4,1.6l2.4,-6.5l2.5,6.5Z" class="g1_82"/>
<text x="464" y="741" class="se_82">0</text>
<text x="461" y="597" class="se_82">V</text>
<text x="517" y="746" class="se_82">10</text>
<text x="565" y="746" class="se_82">20</text>
<text x="613" y="746" class="se_82">30</text>
<path d="M522.5,726.5v6.1m48.9,-6.1v6.1m48.9,-6.1v6.1M470.6,695.9h6.1m-6.1,-33.6h6.1m-6.1,-33.6h6.1" class="g0_82"/>
<text x="454" y="699" class="se_82">20</text>
<text x="454" y="666" class="se_82">40</text>
<text x="454" y="632" class="se_82">60</text>
<text x="640" y="741" class="se_82">t </text>
<text x="646" y="741" class="sf_82">(days)</text>
<path d="M480.3,601.7c0,.9,-.7,1.8,-1.6,1.8c-1,.1,-1.8,-.6,-1.9,-1.5c-.1,-1,.6,-1.8,1.6,-1.9c.9,-.1,1.8,.6,1.9,1.6Z" class="g2_82"/>
<path d="M480.3,601.7c0,.9,-.7,1.8,-1.6,1.8c-1,.1,-1.8,-.6,-1.9,-1.5c-.1,-1,.6,-1.8,1.6,-1.9c.9,-.1,1.8,.6,1.9,1.6Z" class="g6_82"/>
<path d="M494.9,640.3c.1,1,-.6,1.8,-1.5,1.9c-1,.1,-1.8,-.6,-1.9,-1.6c-.1,-.9,.6,-1.8,1.5,-1.8c1,-.1,1.8,.6,1.9,1.5Z" class="g2_82"/>
<path d="M494.9,640.3c.1,1,-.6,1.8,-1.5,1.9c-1,.1,-1.8,-.6,-1.9,-1.6c-.1,-.9,.6,-1.8,1.5,-1.8c1,-.1,1.8,.6,1.9,1.5Z" class="g6_82"/>
<path d="M514.5,699.1c.1,1,-.6,1.8,-1.6,1.9c-.9,.1,-1.8,-.6,-1.9,-1.6c0,-.9,.7,-1.7,1.6,-1.8c1,-.1,1.8,.6,1.9,1.5Z" class="g2_82"/>
<path d="M514.5,699.1c.1,1,-.6,1.8,-1.6,1.9c-.9,.1,-1.8,-.6,-1.9,-1.6c0,-.9,.7,-1.7,1.6,-1.8c1,-.1,1.8,.6,1.9,1.5Z" class="g6_82"/>
<path d="M529.1,713.6c.1,1,-.6,1.8,-1.5,1.9c-1,0,-1.8,-.6,-1.9,-1.6c-.1,-.9,.6,-1.8,1.6,-1.9c.9,-.1,1.8,.6,1.8,1.6Z" class="g2_82"/>
<path d="M529.1,713.6c.1,1,-.6,1.8,-1.5,1.9c-1,0,-1.8,-.6,-1.9,-1.6c-.1,-.9,.6,-1.8,1.6,-1.9c.9,-.1,1.8,.6,1.8,1.6Z" class="g6_82"/>
<path d="M548.7,720.7c.1,.9,-.6,1.7,-1.6,1.8c-.9,.1,-1.8,-.6,-1.8,-1.5c-.1,-1,.6,-1.8,1.5,-1.9c1,-.1,1.8,.6,1.9,1.6Z" class="g2_82"/>
<path d="M548.7,720.7c.1,.9,-.6,1.7,-1.6,1.8c-.9,.1,-1.8,-.6,-1.8,-1.5c-.1,-1,.6,-1.8,1.5,-1.9c1,-.1,1.8,.6,1.9,1.6Z" class="g6_82"/>
<path d="M582.9,723.3c.1,1,-.6,1.8,-1.6,1.9c-.9,.1,-1.7,-.6,-1.8,-1.6c-.1,-.9,.6,-1.7,1.5,-1.8c1,-.1,1.8,.6,1.9,1.5Z" class="g2_82"/>
<path d="M582.9,723.3c.1,1,-.6,1.8,-1.6,1.9c-.9,.1,-1.7,-.6,-1.8,-1.6c-.1,-.9,.6,-1.7,1.5,-1.8c1,-.1,1.8,.6,1.9,1.5Z" class="g6_82"/>
<text x="305" y="781" dx="0,-1.2,0,1.1,0,0,0,0,0,1.1,0,0,0,1.1,0,0,0,1.1,0,0,0,0,0,1.1,0,0,1.1,0,0,0,0,0,0,1.1,0,0,1.1,0,0,1.1,0,0,0,0,0,0,0,0,1.1,0,0,0" class="s5_82">We could use the graph in Figure 11 to estimate the </text>
<text x="635" y="781" class="sm_82">half-life</text>
<text x="691" y="781" class="s5_82">of </text>
<text x="708" y="781" class="s7_82">V</text>
<text x="717" y="781" dx="0,0,1.1,0,0,0,0,1.1,0,0,0,1.1,0,0,0,1.1,0,0,0,0" class="s5_82">, that is, the time </text>
<text x="287" y="799" dx="0,0,0,0,0,0,0,0,0,.2,0,0,0,.2,0,0,0,.2,0,0,0,0,0,.2,0,0,0,0,.2,0,0,.2,0,0,.2,0,0,0,0,0,0,0,.2,0,0,.2,0,0,0,0,.2,0,0,0,.2,0,0,0,0,0,0,0,.2,-.4,0,0,0,0,.2,0,0,0,0,.2,0,-.2,0,0,0,0,0,0,.2,0,0,0,0,.2,0,0,.2,0,0,0" class="s5_82">required for the viral load to be reduced to half its initial value (see Exercise 33). ±n the </text>
<text x="287" y="817" dx="0,0,-.2,0,0,1.2,-.2,0,0,0,0,0,0,1.2,0,0,1.2,0,0,0,1.2,0,-.4,-.2,0,0,1.2,0,0,0,1.2,0,0,0,0,0,0,0,0,0,1.2,0,0,1.2,0,1.2,0,0,0,0,0,0,0,0,-.4,-.2,0,1.2,0,0,0,0,0,0,0,1.2,0,0,0,1.2,0,0,-.2,0,0,1.2,0,0,1.2,0,0,0,1.2,0,0,0" class="s5_82">next example we are given the half-life of a radioactive element and asked to Ind the </text>
<text x="287" y="836" dx="0,0,0,0,0,0,0,0,0,0,0,0,0,0,0,0,0,0,0,0,0,0,-.2,0,0,0,0,0,0" class="s5_82">mass of a sample at any time.</text>
<text x="287" y="871" dx="0,.3,.3,.3,.3,.3,.3,.2" class="sn_82">EXAMPLE </text>
<text x="358" y="871" class="so_82">3</text>
<text x="375" y="871" class="s5_82">The half-life of strontium-90, </text>
<text x="558" y="865" class="sp_82">90</text>
<text x="568" y="871" dx="0,0,0,0,0,0,0,0,0,0,0,0,0,0,0,0,0,-.3,0,0,0,0,0,0,0,0,0,0,0,0,0,0,0,0,0,0,0,0,0,0,0" class="s5_82">Sr, is 25 years. This means that half of </text>
<text x="287" y="889" dx="0,0,-.2,0,0,0,-.4,-.2,0,0,0,0,0,0,0,0,0,0,0,0,0,0" class="s5_82">any given quantity of </text>
<text x="420" y="883" class="sp_82">90</text>
<text x="429" y="889" dx="0,0,0,0,0,0,0,0,0,0,0,0,0,0,0,-.2,0,0,0,0,0,0,0,0,0,0,0,0,0,0,0,0,0" class="s5_82">Sr will disintegrate in 25 years.</text>
<text x="287" y="907" dx="0,0,0,0,5.2,0,0,0,0,0,0,0,0,0,0,0,0,0,0" class="s5_82">(a) ±f a sample of </text>
<text x="401" y="901" class="sp_82">90</text>
<text x="410" y="907" dx="0,0,0,0,0,0,0,0,0,0,0,0,0,0,0,0,0,0,0,0,0,0,0,0,0,0,0,0,0,0,0,0,-.2,0,0,0,0,0,0,0,0,0,0,0,0,0,0,0,0,0,0,0,0,0,0" class="s5_82">Sr has a mass of 24 mg, Ind an expression for the mass </text>
<text x="753" y="907" class="s7_82">m</text>
<text x="764" y="907" class="s8_82">s</text>
<text x="770" y="907" class="s7_82">t</text>
<text x="775" y="907" class="s8_82">d</text>
<text x="784" y="907" class="s5_82">that </text>
<text x="287" y="926" class="s5_82">remains after </text>
<text x="371" y="926" class="s7_82">t</text>
<text x="379" y="926" class="s5_82">years.</text>
<text x="287" y="944" dx="0,0,0,0,4.3,0,0,0,0,0,0,0,0,0,0,0,0,0,0,0,0,0,0,0,0,0,0,0,0,0,0,0,0,0,0,0,0,0,0,0,0,0,0,0,0,0,0,0,0,0,0,0,0,0,0,0,0,0,0,0,0,0,0,0,0,0,0,0,0,0,0,0,0,0,0,0,0" class="s5_82">(b) Find the mass remaining after 40 years, correct to the nearest milligram.</text>
<text x="287" y="962" dx="0,0,0,0,5.2,0,0,0,0,0,0,0,0,0,0,0,0,0,0,0,0,-.4,0,0,0,0,0,0,0,0,0,0,0,0,0" class="s5_82">(c) Use a graphing device to graph </text>
<text x="506" y="962" class="s7_82">m</text>
<text x="518" y="962" class="s8_82">s</text>
<text x="523" y="962" class="s7_82">t</text>
<text x="528" y="962" class="s8_82">d</text>
<text x="537" y="962" class="s5_82">and use the graph to estimate the time required </text>
<text x="287" y="981" class="s5_82">for the mass to be reduced to 5 mg.</text>
<text x="342" y="202" dx="0,-1,0,0,0,0" class="sg_82">Table </text>
<text x="380" y="202" class="sq_82">2</text>
<path d="M287.6,209.5h69.3V237H287.6Zm69.3,0H442V237H356.9Z" class="g7_82"/>
<path d="M287.2,371.2h69.7m0,0h85.5M356.9,236.6V209.9m-69.7,-.4h69.7m0,0h85.5M287.2,237h69.7m0,0h85.5m-154.8,-.4V209.9M442,236.6V209.9M287.6,258.6V237.4m69.3,21.2V237.4M442,258.6V237.4M287.6,280.2V258.6m69.3,21.6V258.6M442,280.2V258.6M287.6,301.8V280.2m69.3,21.6V280.2M442,301.8V280.2M287.6,323.4V301.8m69.3,21.6V301.8M442,323.4V301.8M287.6,345V323.4M356.9,345V323.4M442,345V323.4M287.6,370.8V345m69.3,25.8V345M442,370.8V345" class="g8_82"/>
<text x="301" y="227" class="s7_82">t</text>
<text x="309" y="227" class="si_82">(days)</text>
<text x="387" y="228" class="sr_82">V</text>
<text x="396" y="228" class="ss_82">s</text>
<text x="401" y="228" class="sr_82">t</text>
<text x="406" y="228" class="ss_82">d</text>
<text x="321" y="252" class="si_82">1</text>
<text x="384" y="252" class="si_82">76.0</text>
<text x="321" y="274" class="si_82">4</text>
<text x="384" y="274" class="si_82">53.0</text>
<text x="321" y="295" class="si_82">8</text>
<text x="384" y="295" class="si_82">18.0</text>
<text x="315" y="317" class="si_82">11</text>
<text x="391" y="317" class="si_82">9.4</text>
<text x="315" y="338" class="si_82">15</text>
<text x="391" y="338" class="si_82">5.2</text>
<text x="315" y="360" class="si_82">22</text>
<text x="391" y="360" class="si_82">3.6</text>
<text x="204" y="729" dx="0,.3,.3,.3,.3,.3,.1" class="sg_82">FIGURE </text>
<text x="256" y="729" class="sh_82">11 </text>
<text x="93" y="746" class="si_82">Exponential model for viral load</text>
<path d="M287.2,996.8h59.6" class="g8_82"/>
<text x="287" y="1015" class="sf_82">1.</text>
<text x="298" y="1015" dx="0,0,0,0,0,0,0,0,0,0,0,0,0,0,0,0,0,0,0,0,0,-.2,-.5,0,0,0,-.2,-.2,0,0,0,0,0,0,0,0,0,0,0,0,-.6,-.7,0,0,0,0,0,0,0,0,0,0,0,0,0,0,0,-.7,0,0,0,0,0,-.2,0,0,0,0,0,0,0,0,0,0,-1.2,0,0,0,0,0,0,0,0,0,0,0,0,-.9,0" class="sf_82">D. Ho et al., “Rapid Turnover of Plasma Virions and CD4 Lymphocytes in H±V-1 ±nfection,” </text>
<text x="752" y="1015" dx="0,0,0,0,0,-.5" class="st_82">Nature</text>
<text x="789" y="1015" class="sf_82">373 </text>
<text x="287" y="1030" class="sf_82">(1995): 123–26.</text>
<text x="121" y="1076" class="su_82">Copyright 2016 Cengage Learning. All Rights Reserved. May not be copied, scanned, or duplicated, in whole or in part. Due to electronic rights, some third party content may be suppressed from the eBook and/or eChapter(s).</text>
<text x="106" y="1087" class="su_82">Editorial review has deemed that any suppressed content does not materially affect the overall learning experience. Cengage Learning reserves the right to remove additional content at any time if subsequent rights restrictions require it.</text>

</g>

<!-- Any embedded fonts defined here -->
<style type="text/css" ><![CDATA[

@font-face {
	font-family: KievitOT-Bold_6q;
	src: url("fonts/KievitOT-Bold_6q.woff") format("woff");
}

@font-face {
	font-family: MathematicalPiLTStd-1_rr;
	src: url("fonts/MathematicalPiLTStd-1_rr.woff") format("woff");
}

@font-face {
	font-family: MathematicalPiLTStd-3_ry;
	src: url("fonts/MathematicalPiLTStd-3_ry.woff") format("woff");
}

@font-face {
	font-family: MathematicalPiLTStd-5_vb;
	src: url("fonts/MathematicalPiLTStd-5_vb.woff") format("woff");
}

@font-face {
	font-family: MyriadPro-BoldSemiCn_90;
	src: url("fonts/MyriadPro-BoldSemiCn_90.woff") format("woff");
}

@font-face {
	font-family: MyriadPro-Bold_74;
	src: url("fonts/MyriadPro-Bold_74.woff") format("woff");
}

@font-face {
	font-family: MyriadPro-Regular_4i;
	src: url("fonts/MyriadPro-Regular_4i.woff") format("woff");
}

@font-face {
	font-family: MyriadPro-Semibold_49;
	src: url("fonts/MyriadPro-Semibold_49.woff") format("woff");
}

@font-face {
	font-family: TECHMath-Mix_123;
	src: url("fonts/TECHMath-Mix_123.woff") format("woff");
}

@font-face {
	font-family: TECHMath-Mix_16e;
	src: url("fonts/TECHMath-Mix_16e.woff") format("woff");
}

@font-face {
	font-family: TECHMath-Mix_187;
	src: url("fonts/TECHMath-Mix_187.woff") format("woff");
}

@font-face {
	font-family: TECHMath-Mix_1a5;
	src: url("fonts/TECHMath-Mix_1a5.woff") format("woff");
}

@font-face {
	font-family: TECHMath-Mix_1gf;
	src: url("fonts/TECHMath-Mix_1gf.woff") format("woff");
}

@font-face {
	font-family: Times-Roman_4n;
	src: url("fonts/Times-Roman_4n.woff") format("woff");
}

@font-face {
	font-family: TimesLTStd-Bold_oh;
	src: url("fonts/TimesLTStd-Bold_oh.woff") format("woff");
}

@font-face {
	font-family: TimesLTStd-Italic_o3;
	src: url("fonts/TimesLTStd-Italic_o3.woff") format("woff");
}

@font-face {
	font-family: TimesLTStd-Roman_143;
	src: url("fonts/TimesLTStd-Roman_143.woff") format("woff");
}

]]></style>

</svg>
