<?xml version="1.0" encoding="UTF-8" standalone="no"?>
<!DOCTYPE svg PUBLIC "-//W3C//DTD SVG 1.1//EN"
"http://www.w3.org/Graphics/SVG/1.1/DTD/svg11.dtd">


<!-- Page 83 -->
<svg x="0" y="0" width="931" height="1096" viewBox="0 0 931 1096" version="1.1" xmlns="http://www.w3.org/2000/svg" xmlns:xlink="http://www.w3.org/1999/xlink"
style="display: block;margin-left: auto;margin-right: auto;">
<defs>
<clipPath id="c_83"><path d="M0,0H931V1096H0Z"/></clipPath>
<clipPath id="c0_83"><path d="M126.1,542.1c-5,0,-9.1,-4,-9.1,-9.1V441.3c0,-5,4.1,-9.1,9.1,-9.1H275.8c5.1,0,9.2,4.1,9.2,9.1V533c0,5.1,-4.1,9.1,-9.2,9.1Z"/></clipPath>

<style type="text/css"><![CDATA[
text { white-space: pre; }
path, image { pointer-events: none; }

.s1_83{
font-size: 12.22px;
font-family: MyriadPro-Semibold_49;
fill: #231F20;
}
.s2_83{
font-size: 13.75px;
font-family: MyriadPro-Semibold_49;
fill: #231F20;
}
.s3_83{
font-size: 12.22px;
font-family: MyriadPro-Regular_4i;
fill: #231F20;
}
.s4_83{
font-size: 15.28px;
font-family: MyriadPro-Semibold_49;
fill: #231F20;
}
.s5_83{
font-size: 13.75px;
font-family: MyriadPro-Semibold_49;
fill: #EC008C;
}
.s6_83{
font-size: 15.28px;
font-family: TimesLTStd-Roman_143;
fill: #231F20;
}
.s7_83{
font-size: 15.28px;
font-family: TimesLTStd-Italic_o3;
fill: #231F20;
}
.s8_83{
font-size: 15.28px;
font-family: MathematicalPiLTStd-3_ry;
fill: #231F20;
}
.s9_83{
font-size: 15.28px;
font-family: MathematicalPiLTStd-5_vb;
fill: #231F20;
}
.sa_83{
font-size: 15.28px;
font-family: MathematicalPiLTStd-1_rr;
fill: #231F20;
}
.sb_83{
font-size: 9.17px;
font-family: TimesLTStd-Roman_143;
fill: #231F20;
}
.sc_83{
font-size: 9.17px;
font-family: TimesLTStd-Italic_o3;
fill: #231F20;
}
.sd_83{
font-size: 9.17px;
font-family: MathematicalPiLTStd-3_ry;
fill: #231F20;
}
.se_83{
font-size: 9.17px;
font-family: MathematicalPiLTStd-1_rr;
fill: #231F20;
}
.sf_83{
font-size: 12.99px;
font-family: ZapfDingbatsITC_my;
fill: #EC008C;
}
.sg_83{
font-size: 16.81px;
font-family: MyriadPro-Semibold_49;
fill: #231F20;
}
.sh_83{
font-size: 16.81px;
font-family: TimesLTStd-BoldItalic_12r;
fill: #231F20;
}
.si_83{
font-size: 12.21px;
font-family: TECHMath-Mix_16e;
fill: #231F20;
}
.sj_83{
font-size: 12.21px;
font-family: TECHMath-Mix_13x;
fill: #231F20;
}
.sk_83{
font-size: 12.97px;
font-family: TECHMath-Mix_1gl;
fill: #231F20;
}
.sl_83{
font-size: 12.21px;
font-family: TECHMath-Mix_1gl;
fill: #231F20;
}
.sm_83{
font-size: 14.51px;
font-family: MyriadPro-Bold_74;
fill: #231F20;
}
.sn_83{
font-size: 15.28px;
font-family: MyriadPro-Bold_74;
fill: #231F20;
}
.so_83{
font-size: 13.75px;
font-family: TECHMath-Mix_1gp;
fill: #231F20;
}
.sp_83{
font-size: 13.75px;
font-family: Times-Roman_n6;
fill: #231F20;
}
.sq_83{
font-size: 9.17px;
font-family: TECHMath-Mix_1gp;
fill: #231F20;
}
.sr_83{
font-size: 12.22px;
font-family: TECHMath-Mix_1gp;
fill: #231F20;
}
.ss_83{
font-size: 7.64px;
font-family: Times-Roman_4n;
fill: #000000;
}

.g0_83{
fill: none;
stroke: #231F20;
stroke-width: 0.763;
stroke-linecap: butt;
stroke-linejoin: miter;
}
.g1_83{
fill: #CC017A;
}
.g2_83{
fill: none;
stroke: #EC008C;
stroke-width: 0.762;
stroke-linecap: butt;
stroke-linejoin: round;
stroke-miterlimit: 3;
}
.g3_83{
fill: none;
stroke: #00AEEF;
stroke-width: 0.762;
stroke-linecap: butt;
stroke-linejoin: round;
stroke-miterlimit: 3;
}
.g4_83{
fill: none;
stroke: #231F20;
stroke-width: 0.609;
stroke-linecap: butt;
stroke-linejoin: miter;
stroke-miterlimit: 3;
}
.g5_83{
fill: #231F20;
}
.g6_83{
fill: none;
stroke: #EC008C;
stroke-width: 0.916;
stroke-linecap: butt;
stroke-linejoin: miter;
stroke-miterlimit: 3;
}
.g7_83{
fill: none;
stroke: #00AEEF;
stroke-width: 0.916;
stroke-linecap: butt;
stroke-linejoin: miter;
stroke-miterlimit: 3;
}
.g8_83{
fill: none;
stroke: #00AEEF;
stroke-width: 0.534;
stroke-linecap: butt;
stroke-linejoin: miter;
stroke-miterlimit: 3;
}
.g9_83{
fill: none;
stroke: #231F20;
stroke-width: 0.534;
stroke-linecap: butt;
stroke-linejoin: miter;
stroke-miterlimit: 3;
}

]]></style>

</defs>
<g clip-path="url(#c_83)">
<path d="M0,0
L0,1096
L931,1096
L931,0 Z " 
fill="#FFFFFF" stroke="none"/>
<text x="607" y="64" dx="0,.2,.2,.5,.2,.2,.2" class="s1_83">SECTION</text>
<text x="659" y="64" class="s2_83">1.4</text>
<text x="689" y="64" dx="0,.1,.1,.1,.1,.1,.1,.1,.1,.1,.1,.1,.1,-.3,.1,.1,.3,.1,.1,.1,.1,.1" class="s3_83">Exponential Functions </text>
<text x="862" y="64" class="s4_83">51</text>
<text x="342" y="107" dx="0,.3,.3,.3,.3,.3,.3,.3,.1" class="s5_83">SOLUTION </text>
<text x="342" y="126" dx="0,0,0,0,5.2,0,0,0,0,0,0,0,0,0,0,0,0,0,0,0,0,0,0,0,0,0,0,0,0,0,0,0,0,0,0,0,0,0,0,0,0,0,0,-.2,0,0,0,0,0,0,0,0,0,0,0,0,0,0,0,0,0,0,0,0,0,0,0,0,0,0,0,0,0,0,0,0" class="s6_83">(a) The mass is initially 24 mg and is halved during each 25-year period, so</text>
<text x="524" y="158" class="s7_83">m</text>
<text x="535" y="158" class="s8_83">s</text>
<text x="540" y="158" class="s6_83">0</text>
<text x="548" y="158" class="s8_83">d</text>
<text x="558" y="158" class="s9_83">-</text>
<text x="575" y="158" class="s6_83">24</text>
<text x="517" y="195" class="s7_83">m</text>
<text x="528" y="195" class="s8_83">s</text>
<text x="533" y="195" class="s6_83">25</text>
<text x="548" y="195" class="s8_83">d</text>
<text x="558" y="195" class="s9_83">-</text>
<text x="577" y="184" class="s6_83">1</text>
<path d="M575.8,190.1H588" class="g0_83"/>
<text x="577" y="205" class="s6_83">2</text>
<text x="589" y="195" class="s8_83">s</text>
<text x="594" y="195" class="s6_83">24</text>
<text x="609" y="195" class="s8_83">d</text>
<text x="517" y="239" class="s7_83">m</text>
<text x="528" y="239" class="s8_83">s</text>
<text x="533" y="239" class="s6_83">50</text>
<text x="548" y="239" class="s8_83">d</text>
<text x="558" y="239" class="s9_83">-</text>
<text x="577" y="228" class="s6_83">1</text>
<path d="M575.8,234.4H588" class="g0_83"/>
<text x="577" y="250" class="s6_83">2</text>
<text x="592" y="239" class="sa_83">?</text>
<text x="604" y="228" class="s6_83">1</text>
<path d="M602.3,234.4h12.2" class="g0_83"/>
<text x="604" y="250" class="s6_83">2</text>
<text x="615" y="239" class="s8_83">s</text>
<text x="620" y="239" class="s6_83">24</text>
<text x="635" y="239" class="s8_83">d</text>
<text x="645" y="239" class="s9_83">-</text>
<text x="667" y="228" class="s6_83">1</text>
<path d="M663.3,234.4h16.8" class="g0_83"/>
<text x="665" y="250" class="s6_83">2</text>
<text x="672" y="243" class="sb_83">2</text>
<text x="681" y="239" class="s8_83">s</text>
<text x="686" y="239" class="s6_83">24</text>
<text x="701" y="239" class="s8_83">d</text>
<text x="517" y="283" class="s7_83">m</text>
<text x="528" y="283" class="s8_83">s</text>
<text x="533" y="283" class="s6_83">75</text>
<text x="548" y="283" class="s8_83">d</text>
<text x="558" y="283" class="s9_83">-</text>
<text x="577" y="272" class="s6_83">1</text>
<path d="M575.8,278.7H588" class="g0_83"/>
<text x="577" y="294" class="s6_83">2</text>
<text x="592" y="283" class="sa_83">?</text>
<text x="606" y="272" class="s6_83">1</text>
<path d="M602.3,278.7h16.8" class="g0_83"/>
<text x="604" y="294" class="s6_83">2</text>
<text x="611" y="288" class="sb_83">2</text>
<text x="620" y="283" class="s8_83">s</text>
<text x="625" y="283" class="s6_83">24</text>
<text x="640" y="283" class="s8_83">d</text>
<text x="650" y="283" class="s9_83">-</text>
<text x="672" y="272" class="s6_83">1</text>
<path d="M667.9,278.7h16.8" class="g0_83"/>
<text x="669" y="294" class="s6_83">2</text>
<text x="677" y="288" class="sb_83">3</text>
<text x="685" y="283" class="s8_83">s</text>
<text x="690" y="283" class="s6_83">24</text>
<text x="706" y="283" class="s8_83">d</text>
<text x="509" y="327" class="s7_83">m</text>
<text x="520" y="327" class="s8_83">s</text>
<text x="525" y="327" class="s6_83">100</text>
<text x="548" y="327" class="s8_83">d</text>
<text x="558" y="327" class="s9_83">-</text>
<text x="577" y="317" class="s6_83">1</text>
<path d="M575.8,323H588" class="g0_83"/>
<text x="577" y="338" class="s6_83">2</text>
<text x="592" y="327" class="sa_83">?</text>
<text x="606" y="317" class="s6_83">1</text>
<path d="M602.3,323h16.8" class="g0_83"/>
<text x="604" y="338" class="s6_83">2</text>
<text x="611" y="332" class="sb_83">3</text>
<text x="620" y="327" class="s8_83">s</text>
<text x="625" y="327" class="s6_83">24</text>
<text x="640" y="327" class="s8_83">d</text>
<text x="650" y="327" class="s9_83">-</text>
<text x="672" y="317" class="s6_83">1</text>
<path d="M667.9,323h16.8" class="g0_83"/>
<text x="669" y="338" class="s6_83">2</text>
<text x="677" y="332" class="sb_83">4</text>
<text x="685" y="327" class="s8_83">s</text>
<text x="690" y="327" class="s6_83">24</text>
<text x="706" y="327" class="s8_83">d</text>
<text x="342" y="369" class="s6_83">From this pattern, it appears that the mass remaining after </text>
<text x="699" y="369" class="s7_83">t</text>
<text x="707" y="369" class="s6_83">years is</text>
<text x="467" y="410" class="s7_83">m</text>
<text x="478" y="410" class="s8_83">s</text>
<text x="484" y="410" class="s7_83">t</text>
<text x="489" y="410" class="s8_83">d</text>
<text x="499" y="410" class="s9_83">-</text>
<text x="527" y="399" class="s6_83">1</text>
<path d="M517,405.5h28.6" class="g0_83"/>
<text x="518" y="421" class="s6_83">2</text>
<text x="526" y="415" class="sc_83">t</text>
<text x="529" y="415" class="sd_83">y</text>
<text x="533" y="415" class="sb_83">25</text>
<text x="546" y="410" class="s8_83">s</text>
<text x="551" y="410" class="s6_83">24</text>
<text x="567" y="410" class="s8_83">d</text>
<text x="576" y="410" class="s9_83">-</text>
<text x="593" y="410" class="s6_83">24</text>
<text x="613" y="410" class="sa_83">?</text>
<text x="623" y="410" class="s6_83">2</text>
<text x="631" y="404" class="se_83">2</text>
<text x="638" y="404" class="sc_83">t</text>
<text x="641" y="404" class="sd_83">y</text>
<text x="645" y="404" class="sb_83">25</text>
<text x="659" y="410" class="s9_83">-</text>
<text x="676" y="410" class="s6_83">24</text>
<text x="696" y="410" class="sa_83">?</text>
<text x="706" y="410" class="s8_83">s</text>
<text x="711" y="410" class="s6_83">2</text>
<text x="719" y="404" class="se_83">2</text>
<text x="726" y="404" class="sb_83">1</text>
<text x="731" y="404" class="sd_83">y</text>
<text x="735" y="404" class="sb_83">25</text>
<text x="745" y="410" class="s8_83">d</text>
<text x="750" y="404" class="sc_83">t</text>
<text x="342" y="454" dx="0,0,0,0,0,0,0,0,0,0,0,0,-.2,0,0,0,0,0,0,0,0,0,0,0,0,0,0,0,0,0,0,0,0,0,0,0,0,0,0,0,0,0" class="s6_83">This is an exponential function with base </text>
<text x="597" y="454" class="s7_83">b</text>
<text x="609" y="454" class="s9_83">-</text>
<text x="626" y="454" class="s6_83">2</text>
<text x="634" y="448" class="se_83">2</text>
<text x="641" y="448" class="sb_83">1</text>
<text x="646" y="448" class="sd_83">y</text>
<text x="650" y="448" class="sb_83">25</text>
<text x="664" y="454" class="s9_83">-</text>
<text x="682" y="454" class="s6_83">1</text>
<text x="689" y="454" class="s8_83">y</text>
<text x="697" y="454" class="s6_83">2</text>
<text x="704" y="448" class="sb_83">1</text>
<text x="709" y="448" class="sd_83">y</text>
<text x="714" y="448" class="sb_83">25</text>
<text x="723" y="454" class="s6_83">.</text>
<text x="342" y="482" dx="0,0,0,0,4.3,0,0,0,0,0,0,0,0,0,0,0,0,0,0,0,0,0,0,0,0,0,0,0,0,0,0,0,0,0,0,0,0,0,0,0,0,0,0" class="s6_83">(b) The mass that remains after 40 years is</text>
<text x="515" y="514" class="s7_83">m</text>
<text x="526" y="514" class="s8_83">s</text>
<text x="531" y="514" class="s6_83">40</text>
<text x="546" y="514" class="s8_83">d</text>
<text x="556" y="514" class="s9_83">-</text>
<text x="573" y="514" class="s6_83">24</text>
<text x="593" y="514" class="sa_83">?</text>
<text x="603" y="514" class="s6_83">2</text>
<text x="610" y="508" class="se_83">2</text>
<text x="618" y="508" class="sb_83">40</text>
<text x="627" y="508" class="sd_83">y</text>
<text x="632" y="508" class="sb_83">25</text>
<text x="645" y="514" class="s8_83">&lt;</text>
<text x="663" y="514" class="s6_83">7.9 mg</text>
<text x="342" y="541" dx="0,-.1,-.1,-.1,5.4,-1.3,-.1,-.1,-.1,-.1,-.1,-.1,-.1,-.1,-.1,-.1,-.1,-.1,-.1,-.1,-.1,-.1,-.1,-.1,-.1,-.1,-.1,-.1,-.1,-.1,-.1,-.1,-.1,-.1,-.1,-.1,-.1,-.1,-.1,-.1,-.1,-.1,-.1,-.1,-.1,-.1,-.1,-.1,-.1,-.1,-.1,-.1,-.1,-.1,-.1,-.1,-.1,-.1,-.1,-.1,-.1,-.1,-.1,-.1,-.1,-.1,-.1" class="s6_83">(c) We use a graphing calculator or computer to graph the function </text>
<text x="753" y="541" class="s7_83">m</text>
<text x="764" y="541" class="s8_83">s</text>
<text x="770" y="541" class="s7_83">t</text>
<text x="775" y="541" class="s8_83">d</text>
<text x="785" y="541" class="s9_83">-</text>
<text x="802" y="541" class="s6_83">24</text>
<text x="822" y="541" class="sa_83">?</text>
<text x="832" y="541" class="s6_83">2</text>
<text x="839" y="535" class="se_83">2</text>
<text x="847" y="535" class="sc_83">t</text>
<text x="849" y="535" class="sd_83">y</text>
<text x="854" y="535" class="sb_83">25</text>
<text x="342" y="560" dx="0,-.1,-.1,-.1,-.1,-.1,-.1,-.1,-.1,-.1,-.1,-.1,-.1,-.1,-.5,-1.3,-.1,-.1,-.1,-.1,-.1,-.1,-.1,-.1,-.1,-.1,-.1,-.1,-.1,-.1,-.1,-.1,-.1,-.1,-.1,-.1,-.1" class="s6_83">in Figure 12. We also graph the line </text>
<text x="561" y="560" class="s7_83">m</text>
<text x="576" y="560" class="s9_83">-</text>
<text x="594" y="560" dx="0,-.1,-.1,-.1,-.1,-.1,-.1,-.1,-.1,-.1,-.1,-.1,-.1,-.1,-.1,-.1,-.1,-.1,-.1,-.1,-.1,-.1,-.1,-.1,-.1,-.1,-.1,-.1,-.1,-.1,-.1,-.1,-.1,-.1,-.1,-.1,-.1,-.1" class="s6_83">5 and use the cursor to estimate that </text>
<text x="814" y="560" class="s7_83">m</text>
<text x="825" y="560" class="s8_83">s</text>
<text x="831" y="560" class="s7_83">t</text>
<text x="836" y="560" class="s8_83">d</text>
<text x="846" y="560" class="s9_83">-</text>
<text x="863" y="560" class="s6_83">5 </text>
<text x="342" y="578" dx="0,-.1,-.1,-.1,-.1" class="s6_83">when </text>
<text x="378" y="578" class="s7_83">t</text>
<text x="387" y="578" class="s8_83">&lt;</text>
<text x="404" y="578" dx="0,0,-.1,-.1,-.1,-.1,-.1,-.1,-.1,-.1,-.1,-.1,-.1,-.1,-.1,-.1,-.1,-.1,-.1,-.1,-.1,-.1,-.1,-.1,-.1,-.1,-.1,-.1,-.1,-.1,-.1,-.1,-.1,-.1,-.1,-.1,-.1,-.1,-.1,-.1,-.1,-.1,-.1,-.1,-.1,-.1,-.1,-.1,-.1,-.1,-.1,-.1,-.1,-.1,-.1,-.1,-.1,-.1,-.1,-.1,-.1,-.1,-.1,-.1,-.1,-.1,-.1,-.1,-.1,-.1,-.1,-.1,-.1,-.1,-.1,-.1" class="s6_83">57. So the mass of the sample will be reduced to 5 mg after about 57 years. </text>
<text x="868" y="578" class="sf_83">■</text>
<path d="M343.8,604.5c0,0,-1.6,0,-1.6,1.6v9.1c0,0,0,1.5,1.6,1.5h9.1c0,0,1.6,0,1.6,-1.5v-9.1c0,0,0,-1.6,-1.6,-1.6Z" class="g1_83"/>
<text x="361" y="616" dx="0,-.2,0,0,0,0,0,0,0,0,0" class="sg_83">The Number </text>
<text x="454" y="616" class="sh_83">e</text>
<text x="342" y="639" dx="0,0,0,1.3,0,0,0,1.3,0,0,0,0,0,0,0,0,1.3,0,0,0,0,0,1.3,0,0,0,1.3,0,0,1.3,-.2,0,0,0,0,0,0,0,0,0,0,1.3,0,0,0,0,0,0,0,0,0,1.3,0,0,0,0,0,1.3,0,0,1.3,0,0,0,1.3,0,0,0,0,1.3,0,0,1.3,0,0,0,0,1.3,0,0,-.6,-.2,0,0,0,0,0,0" class="s6_83">Of all possible bases for an exponential function, there is one that is most convenient </text>
<text x="342" y="657" dx="0,0,0,0,.6,0,0,0,.6,0,0,0,0,0,0,0,0,.6,0,0,.6,0,0,0,0,0,0,0,0,0,.3,0,0,0,.6,0,0,0,0,0,0,.6,0,0,.6,0,.6,0,0,0,0" class="s6_83">for the purposes of calculus. The choice of a base </text>
<text x="653" y="657" class="s7_83">b</text>
<text x="665" y="657" dx="0,0,0,.6,0,0,0,0,0,0,0,0,0,.6,0,0,.6,0,0,0,.6,-.2,0,0,.6,0,0,0,.6,0,0,0,0,0" class="s6_83">is in²uenced by the way the graph </text>
<text x="342" y="676" class="s6_83">of </text>
<text x="359" y="676" class="s7_83">y</text>
<text x="371" y="676" class="s9_83">-</text>
<text x="388" y="676" class="s7_83">b</text>
<text x="397" y="670" class="sc_83">x</text>
<text x="406" y="676" dx="0,0,0,0,0,0,0,0,.6,0,0,0" class="s6_83">crosses the </text>
<text x="478" y="676" class="s7_83">y</text>
<text x="485" y="676" dx="0,0,0,0,0,0,0,.6,0,0,0,0,0,0,0,.6,0,0,.6,0,0,0,.6,0,0,.6,0,0,-.4,0,.6,0,0,0,.6,0,0,0,0,0,0,0,.6,0,0,0,0,0,.6,0,0,.6,0,0,0,.6,0,0,0,0,0,0,.6,0,0" class="s6_83">-axis. Figures 13 and 14 show the tangent lines to the graphs of </text>
<text x="342" y="694" class="s7_83">y</text>
<text x="354" y="694" class="s9_83">-</text>
<text x="371" y="694" class="s6_83">2</text>
<text x="379" y="688" class="sc_83">x</text>
<text x="387" y="694" class="s6_83">and </text>
<text x="414" y="694" class="s7_83">y</text>
<text x="425" y="694" class="s9_83">-</text>
<text x="442" y="694" class="s6_83">3</text>
<text x="451" y="688" class="sc_83">x</text>
<text x="459" y="694" class="s6_83">at the point </text>
<text x="531" y="694" class="s8_83">s</text>
<text x="536" y="694" class="s6_83">0, 1</text>
<text x="559" y="694" class="s8_83">d</text>
<text x="564" y="694" dx="0,0,0,0,-1.2,0,0,0,0,0,0,0,0,0,0,0,0,0,0,0,0,0,0,0,0,0,0,0,0,0,0,0,0,0,0,0,0,0,0,0,0,0,0,0,0,0,0,0,0,0,0,0,0" class="s6_83">. (Tangent lines will be deIned precisely in Section </text>
<text x="342" y="712" dx="0,0,0,0,0,.3,-.2,0,0,.3,0,0,0,0,0,0,0,.3,0,0,0,0,0,0,0,0,0,.3,0,0,0,.3,0,0,0,.3,0,0,0,0,0,.3,0,0,.3,0,0,0,.3,0,0,0,0,0,0,0,.3,0,0,0,0,.3,0,0,.3,0,0,.3,-.2,0,0,0,0,0,0,0,0,0,0,.3,0,0,0,0,0,.3,0,0,.3,0" class="s6_83">2.7. For present purposes, you can think of the tangent line to an exponential graph at a </text>
<text x="342" y="731" dx="0,0,0,0,0,0,.7,0,0,.7,0,0,0,.7,0,0,0,0,.7,0,0,0,0,.7,0,0,0,0,0,0,0,.7,0,0,0,.7,0,0,0,0,0,.7,0,0,0,0,.7,0,0,.7,0,0,0,0,.7,0,0,0,0,0,0,0,.7,0,0,.7,0,0,.7,0,0,0,0,0,0,0,.7,0,0,0,.7,0,0,0,0,0,0,.7,0,0" class="s6_83">point as the line that touches the graph only at that point.) ±f we measure the slopes of </text>
<text x="342" y="749" class="s6_83">these tangent lines at </text>
<text x="473" y="749" class="s8_83">s</text>
<text x="478" y="749" class="s6_83">0, 1</text>
<text x="501" y="749" class="s8_83">d</text>
<text x="506" y="749" class="s6_83">, we Ind that </text>
<text x="590" y="749" class="s7_83">m</text>
<text x="606" y="749" class="s8_83">&lt;</text>
<text x="623" y="749" class="s6_83">0.7 for </text>
<text x="668" y="749" class="s7_83">y</text>
<text x="679" y="749" class="s9_83">-</text>
<text x="696" y="749" class="s6_83">2</text>
<text x="705" y="743" class="sc_83">x</text>
<text x="713" y="749" class="s6_83">and </text>
<text x="739" y="749" class="s7_83">m</text>
<text x="754" y="749" class="s8_83">&lt;</text>
<text x="772" y="749" class="s6_83">1.1 for </text>
<text x="817" y="749" class="s7_83">y</text>
<text x="828" y="749" class="s9_83">-</text>
<text x="845" y="749" class="s6_83">3</text>
<text x="854" y="743" class="sc_83">x</text>
<text x="858" y="749" class="s6_83">.</text>
<text x="692" y="912" class="si_83">0</text>
<path d="M627.6,941.9L776.3,778.2" class="g2_83"/>
<path d="M742.7,778.2c-20.7,74,-55.1,111.7,-122.8,118" class="g3_83"/>
<text x="693" y="858" class="sj_83">1</text>
<text x="742" y="826" class="sk_83">mÅ1.1</text>
<text x="415" y="912" class="sl_83">0</text>
<path d="M342.7,916.7L506.4,803" class="g2_83"/>
<path d="M489.3,778.5c-29.2,66.3,-79.4,101.1,-147,111.7" class="g3_83"/>
<text x="450" y="787" dx="0,0,0,1" class="sk_83">y=2®</text>
<text x="415" y="858" class="sl_83">1</text>
<text x="470" y="840" class="sk_83">mÅ0.7</text>
<path d="M619.7,900.7H784.5" class="g4_83"/>
<path fill-rule="evenodd" d="M784.5,900.7l-1.7,-2.4l6.5,2.4l-6.5,2.5Z" class="g5_83"/>
<path d="M702.1,941.9V777.2" class="g4_83"/>
<path fill-rule="evenodd" d="M702.1,777.2l-2.5,1.6l2.5,-6.5l2.4,6.5Z" class="g5_83"/>
<text x="782" y="912" class="sl_83">x</text>
<text x="691" y="778" class="sl_83">y</text>
<text x="705" y="787" dx="0,0,0,1.2" class="sk_83">y=3®</text>
<path d="M342.3,900.7H507.1" class="g4_83"/>
<path fill-rule="evenodd" d="M507.1,900.7l-1.7,-2.4l6.5,2.4l-6.5,2.5Z" class="g5_83"/>
<path d="M424.7,941.9V777.2" class="g4_83"/>
<path fill-rule="evenodd" d="M424.7,777.2l-2.5,1.6l2.5,-6.5l2.4,6.5Z" class="g5_83"/>
<text x="505" y="912" class="sl_83">x</text>
<text x="414" y="778" class="sl_83">y</text>
<text x="342" y="965" dx="0,.3,.3,.3,.3,.3,.1" class="sm_83">FIGURE </text>
<text x="394" y="965" class="sn_83">13 </text>
<text x="618" y="965" dx="0,.3,.3,.3,.3,.3" class="sm_83">FIGURE</text>
<text x="671" y="965" class="sn_83">14</text>
<text x="360" y="995" dx="0,0,0,-.1,0,0,0,0,0,-.1,0,0,0,0,-.1,0,0,-.1,0,0,-.1,0,0,0,0,-.1,0,0,0,-.1,0,0,-.1,0,0,0,0,0,0,0,-.1,0,0,-.1,0,0,0,0,-.1,0,0,0,0,-.1,0,0,-.1,0,0,0,-.1,0,0,0,0,0,0,0,0,-.1,0,0,-.1,0,0,0,0,0,0,0,0,-.1,0,0,0,0,-.1,0,0" class="s6_83">±t turns out, as we will see in Chapter 3, that some of the formulas of calculus will be </text>
<text x="342" y="1013" dx="0,0,0,0,0,0,0,0,.2,0,0,0,0,0,0,0,0,0,.2,0,0,.2,0,0,.2,0,0,0,0,0,0,.2,0,0,0,.2,0,0,0,0" class="s6_83">greatly simpliIed if we choose the base </text>
<text x="589" y="1013" class="s7_83">b</text>
<text x="601" y="1013" dx="0,0,0,.2,0,0,0,0,.2,0,0,0,.2,0,0,0,0,0,.2,0,0,.2,0,0,0,.2,0,0,0,0,0,0,0,.2,0,0,0,0,.2,0,0" class="s6_83">so that the slope of the tangent line to </text>
<text x="836" y="1013" class="s7_83">y</text>
<text x="847" y="1013" class="s9_83">-</text>
<text x="865" y="1013" class="s7_83">b</text>
<text x="874" y="1007" class="sc_83">x</text>
<text x="159" y="475" dx="0,0,0,0,-.8" class="so_83">m=24 </text>
<text x="201" y="475" class="sp_83">·</text>
<text x="208" y="475" class="so_83">2</text>
<text x="215" y="469" dx="0,.7,.5,.9,-.2" class="sq_83">_t/25</text>
<text x="233" y="520" class="so_83">m=5</text>
<g clip-path="url(#c0_83)">
<path d="M281.9,536l3.3,.3m-7.1,-.8l3.8,.5m-7.1,-.7l3.3,.2m-6.9,-.7l3.6,.5m-6.9,-.7l3.3,.2m-7.1,-.8l3.8,.6m-7.1,-1l3.3,.4m-6.9,-.9l3.6,.5m-6.9,-1l3.3,.5m-6.9,-1l3.6,.5m-7.2,-1.3l3.6,.8m-7.1,-1.2l3.5,.4m-7.1,-1.2l3.6,.8m-6.9,-1.5l3.3,.7m-6.9,-1.5l3.6,.8m-7.2,-1.5l3.6,.7m-6.9,-1.4l3.3,.7m-6.8,-1.7l3.5,1m-7.1,-2l3.6,1m-7.2,-2l3.6,1m-7.1,-2l3.5,1M208,522l3.6,1.2M204.7,521l3.3,1m-6.9,-2.2l3.6,1.2m-7.2,-2.7l3.6,1.5M194,517l3.5,1.3m-6.9,-2.7L194,517m-6.7,-2.9l3.3,1.5m-6.8,-3.2l3.5,1.7m-7.1,-3.5l3.6,1.8m-6.9,-3.7l3.3,1.9m-6.9,-3.9l3.6,2m-7.2,-4l3.6,2m-7.1,-4.4l3.5,2.4m-6.9,-4.4l3.4,2m-6.9,-4.7l3.5,2.7m-7.1,-5.2l3.6,2.5m-7.2,-5.4l3.6,2.9m-6.9,-5.6l3.3,2.7m-6.8,-6l3.5,3.3m-7.1,-6.7l3.6,3.4m-7.2,-6.9l3.6,3.5m-7.2,-7.1l3.6,3.6m-6.9,-7.6l3.3,4m-6.8,-8.2l3.5,4.2m-7.1,-8.6l3.6,4.4m-7.2,-9.4l3.6,5m-6.9,-9.6l3.3,4.6" class="g6_83"/>
<path d="M117.2,523.5h168" class="g7_83"/>
</g>
<path d="M126.1,432.2H275.8c5.1,0,9.2,4.1,9.2,9.1V533c0,5.1,-4.1,9.1,-9.2,9.1H126.1c-5,0,-9.1,-4,-9.1,-9.1V441.3c0,-5,4.1,-9.1,9.1,-9.1Z" class="g8_83"/>
<text x="111" y="427" class="sr_83">30</text>
<text x="110" y="550" class="sr_83">0</text>
<text x="289" y="547" dx="0,-.1,.3" class="sr_83">100</text>
<path d="M117.1,523.5h1.8M117.1,505h2.1m-2.1,-18.3h2.1m-2.1,-18.4h2.1m-2.1,-18.5h2.1m31.7,92.4v-2.4m33.6,2.4v-2.4m33.4,2.4v-2.4m33.7,2.4v-2.4" class="g9_83"/>
<text x="108" y="577" dx="0,.3,.3,.3,.3,.3,.1" class="sm_83">FIGURE </text>
<text x="161" y="577" class="sn_83">12</text>
<text x="121" y="1076" class="ss_83">Copyright 2016 Cengage Learning. All Rights Reserved. May not be copied, scanned, or duplicated, in whole or in part. Due to electronic rights, some third party content may be suppressed from the eBook and/or eChapter(s).</text>
<text x="106" y="1087" class="ss_83">Editorial review has deemed that any suppressed content does not materially affect the overall learning experience. Cengage Learning reserves the right to remove additional content at any time if subsequent rights restrictions require it.</text>

</g>

<!-- Any embedded fonts defined here -->
<style type="text/css" ><![CDATA[

@font-face {
	font-family: MathematicalPiLTStd-1_rr;
	src: url("fonts/MathematicalPiLTStd-1_rr.woff") format("woff");
}

@font-face {
	font-family: MathematicalPiLTStd-3_ry;
	src: url("fonts/MathematicalPiLTStd-3_ry.woff") format("woff");
}

@font-face {
	font-family: MathematicalPiLTStd-5_vb;
	src: url("fonts/MathematicalPiLTStd-5_vb.woff") format("woff");
}

@font-face {
	font-family: MyriadPro-Bold_74;
	src: url("fonts/MyriadPro-Bold_74.woff") format("woff");
}

@font-face {
	font-family: MyriadPro-Regular_4i;
	src: url("fonts/MyriadPro-Regular_4i.woff") format("woff");
}

@font-face {
	font-family: MyriadPro-Semibold_49;
	src: url("fonts/MyriadPro-Semibold_49.woff") format("woff");
}

@font-face {
	font-family: TECHMath-Mix_13x;
	src: url("fonts/TECHMath-Mix_13x.woff") format("woff");
}

@font-face {
	font-family: TECHMath-Mix_16e;
	src: url("fonts/TECHMath-Mix_16e.woff") format("woff");
}

@font-face {
	font-family: TECHMath-Mix_1gl;
	src: url("fonts/TECHMath-Mix_1gl.woff") format("woff");
}

@font-face {
	font-family: TECHMath-Mix_1gp;
	src: url("fonts/TECHMath-Mix_1gp.woff") format("woff");
}

@font-face {
	font-family: Times-Roman_4n;
	src: url("fonts/Times-Roman_4n.woff") format("woff");
}

@font-face {
	font-family: Times-Roman_n6;
	src: url("fonts/Times-Roman_n6.woff") format("woff");
}

@font-face {
	font-family: TimesLTStd-BoldItalic_12r;
	src: url("fonts/TimesLTStd-BoldItalic_12r.woff") format("woff");
}

@font-face {
	font-family: TimesLTStd-Italic_o3;
	src: url("fonts/TimesLTStd-Italic_o3.woff") format("woff");
}

@font-face {
	font-family: TimesLTStd-Roman_143;
	src: url("fonts/TimesLTStd-Roman_143.woff") format("woff");
}

@font-face {
	font-family: ZapfDingbatsITC_my;
	src: url("fonts/ZapfDingbatsITC_my.woff") format("woff");
}

]]></style>

</svg>
