<?xml version="1.0" encoding="UTF-8" standalone="no"?>
<!DOCTYPE svg PUBLIC "-//W3C//DTD SVG 1.1//EN"
"http://www.w3.org/Graphics/SVG/1.1/DTD/svg11.dtd">


<!-- Page 86 -->
<svg x="0" y="0" width="931" height="1096" viewBox="0 0 931 1096" version="1.1" xmlns="http://www.w3.org/2000/svg" xmlns:xlink="http://www.w3.org/1999/xlink"
style="display: block;margin-left: auto;margin-right: auto;">
<defs>
<clipPath id="c_86"><path d="M0,0H931V1096H0Z"/></clipPath>
<style type="text/css"><![CDATA[
text { white-space: pre; }
path, image { pointer-events: none; }

.s1_86{
font-size: 15.28px;
font-family: MyriadPro-Semibold_49;
fill: #231F20;
}
.s2_86{
font-size: 12.22px;
font-family: MyriadPro-Semibold_49;
fill: #231F20;
}
.s3_86{
font-size: 13.75px;
font-family: MyriadPro-Semibold_49;
fill: #231F20;
}
.s4_86{
font-size: 12.22px;
font-family: MyriadPro-Regular_4i;
fill: #231F20;
}
.s5_86{
font-size: 13.75px;
font-family: MyriadPro-BoldSemiCn_90;
fill: #00AEEF;
}
.s6_86{
font-size: 13.75px;
font-family: TimesLTStd-Roman_143;
fill: #231F20;
}
.s7_86{
font-size: 13.75px;
font-family: TimesLTStd-Italic_o3;
fill: #231F20;
}
.s8_86{
font-size: 13.75px;
font-family: MathematicalPiLTStd-3_ry;
fill: #231F20;
}
.s9_86{
font-size: 13.75px;
font-family: MathematicalPiLTStd-5_vb;
fill: #231F20;
}
.sa_86{
font-size: 8.25px;
font-family: TimesLTStd-Italic_o3;
fill: #231F20;
}
.sb_86{
font-size: 13.75px;
font-family: MyriadPro-BoldSemiCn_90;
fill: #EC008C;
}
.sc_86{
font-size: 13.75px;
font-family: MyriadPro-BoldSemiCn_90;
fill: #231F20;
}
.sd_86{
font-size: 12.22px;
font-family: TECHMath-Mix_16e;
fill: #231F20;
}
.se_86{
font-size: 12.22px;
font-family: TECHMath-Mix_1hu;
fill: #231F20;
}
.sf_86{
font-size: 9.17px;
font-family: TECHMath-Mix_1hu;
fill: #231F20;
}
.sg_86{
font-size: 13.75px;
font-family: MathematicalPiLTStd-1_rr;
fill: #231F20;
}
.sh_86{
font-size: 42.63px;
font-family: MathematicalPiLTStd-3_ry;
fill: #231F20;
}
.si_86{
font-size: 8.25px;
font-family: MathematicalPiLTStd-1_rr;
fill: #231F20;
}
.sj_86{
font-size: 8.25px;
font-family: TimesLTStd-Roman_143;
fill: #231F20;
}
.sk_86{
font-size: 13.75px;
font-family: BeaconDingbatsTypeOne_1hn;
fill: #231F20;
}
.sl_86{
font-size: 13.75px;
font-family: BeaconDingbatsTypeOne_1hn;
fill: #EC008C;
}
.sm_86{
font-size: 9.20px;
font-family: UniversLTStd-LightCn_tc;
fill: #231F20;
}
.sn_86{
font-size: 10.69px;
font-family: TimesLTStd-Italic_o3;
fill: #231F20;
}
.so_86{
font-size: 10.69px;
font-family: TimesLTStd-Roman_143;
fill: #231F20;
}
.sp_86{
font-size: 7.64px;
font-family: Times-Roman_4n;
fill: #000000;
}

.g0_86{
fill: none;
stroke: #00AEEF;
stroke-width: 0.763;
stroke-linecap: butt;
stroke-linejoin: miter;
}
.g1_86{
fill: none;
stroke: #00AEEF;
stroke-width: 0.916;
stroke-linecap: butt;
stroke-linejoin: round;
stroke-miterlimit: 3;
}
.g2_86{
fill: none;
stroke: #231F20;
stroke-width: 0.611;
stroke-linecap: butt;
stroke-linejoin: miter;
stroke-miterlimit: 3;
}
.g3_86{
fill: #231F20;
}
.g4_86{
fill: #00AEEF;
}
.g5_86{
fill: none;
stroke: #00AEEF;
stroke-width: 0.763;
stroke-linecap: butt;
stroke-linejoin: miter;
stroke-miterlimit: 3;
}
.g6_86{
fill: none;
stroke: #231F20;
stroke-width: 0.381;
stroke-linecap: butt;
stroke-linejoin: miter;
stroke-miterlimit: 3;
}
.g7_86{
fill: none;
stroke: #231F20;
stroke-width: 0.687;
stroke-linecap: butt;
stroke-linejoin: miter;
}
.g8_86{
fill: #E2F4FC;
}
.g9_86{
fill: none;
stroke: #231F20;
stroke-width: 0.763;
stroke-linecap: butt;
stroke-linejoin: miter;
}

]]></style>

</defs>
<g clip-path="url(#c_86)">
<path d="M0,0
L0,1096
L931,1096
L931,0 Z " 
fill="#FFFFFF" stroke="none"/>
<text x="53" y="67" class="s1_86">54</text>
<text x="126" y="67" dx="0,.2,.2,.2,.2,.2,.2,.1" class="s2_86">CHAPTER </text>
<text x="180" y="67" class="s3_86">1</text>
<text x="200" y="67" dx="0,-.3,.1,.1,.3,.1,.1,.1,.1,.1,.1,.1,.1,.1,.1,.2,.1,.1,.1,.1" class="s4_86">Functions and Models</text>
<path d="M71.8,309.3H429.3" class="g0_86"/>
<text x="73" y="108" class="s5_86">21–22 </text>
<text x="115" y="108" dx="0,0,0,0,0,0,0,0,0,0,-.2,0,0,0,0,0,0,0,0,0,0,0,0,0,0,0,0,0,0,0" class="s6_86">Find the exponential function </text>
<text x="282" y="108" class="s7_86">f</text>
<text x="289" y="108" class="s8_86">s</text>
<text x="294" y="108" class="s7_86">x</text>
<text x="300" y="108" class="s8_86">d</text>
<text x="309" y="108" class="s9_86">-</text>
<text x="324" y="108" class="s7_86">Cb</text>
<text x="342" y="102" class="sa_86">x</text>
<text x="349" y="108" class="s6_86">whose graph </text>
<text x="71" y="124" dx="0,0,0,0,0,-.3,-.2,0,0" class="s6_86">is given.</text>
<text x="72" y="149" class="sb_86">21. </text>
<text x="251" y="149" class="sc_86">22. </text>
<path d="M90.8,261.5C168,250.6,198.1,225,226.3,158.3" class="g1_86"/>
<text x="113" y="278" class="sd_86">0</text>
<text x="129" y="239" class="se_86">(1, 6)</text>
<text x="182" y="178" class="se_86">(3, 24)</text>
<text x="112" y="159" class="se_86">y</text>
<path d="M122.9,290.9V158.4" class="g2_86"/>
<path fill-rule="evenodd" d="M122.9,158.4l-2.4,1.6l2.4,-6.5l2.4,6.5Z" class="g3_86"/>
<path d="M90.8,267.3H229.1" class="g2_86"/>
<path fill-rule="evenodd" d="M229.1,267.3l-1.6,-2.5l6.5,2.5l-6.5,2.4Z" class="g3_86"/>
<text x="227" y="278" class="se_86">x</text>
<path d="M220,175.8c0,.9,-.7,1.7,-1.7,1.7c-.9,0,-1.7,-.8,-1.7,-1.7c0,-1,.8,-1.8,1.7,-1.8c1,0,1.7,.8,1.7,1.8Z" class="g4_86"/>
<path d="M220,175.8c0,.9,-.7,1.7,-1.7,1.7c-.9,0,-1.7,-.8,-1.7,-1.7c0,-1,.8,-1.8,1.7,-1.8c1,0,1.7,.8,1.7,1.8Z" class="g5_86"/>
<path d="M328,175.3c0,1,-.8,1.7,-1.7,1.7c-1,0,-1.7,-.7,-1.7,-1.7c0,-1,.7,-1.7,1.7,-1.7c.9,0,1.7,.7,1.7,1.7Z" class="g4_86"/>
<path d="M328,175.3c0,1,-.8,1.7,-1.7,1.7c-1,0,-1.7,-.7,-1.7,-1.7c0,-1,.7,-1.7,1.7,-1.7c.9,0,1.7,.7,1.7,1.7Z" class="g5_86"/>
<path d="M156.4,244.4c0,.9,-.7,1.7,-1.7,1.7c-.9,0,-1.7,-.8,-1.7,-1.7c0,-1,.8,-1.7,1.7,-1.7c1,0,1.7,.7,1.7,1.7Z" class="g4_86"/>
<path d="M156.4,244.4c0,.9,-.7,1.7,-1.7,1.7c-.9,0,-1.7,-.8,-1.7,-1.7c0,-1,.8,-1.7,1.7,-1.7c1,0,1.7,.7,1.7,1.7Z" class="g5_86"/>
<path d="M389.1,226.1c0,1,-.8,1.8,-1.7,1.8c-1,0,-1.7,-.8,-1.7,-1.8c0,-.9,.7,-1.7,1.7,-1.7c.9,0,1.7,.8,1.7,1.7Z" class="g4_86"/>
<path d="M389.1,226.1c0,1,-.8,1.8,-1.7,1.8c-1,0,-1.7,-.8,-1.7,-1.8c0,-.9,.7,-1.7,1.7,-1.7c.9,0,1.7,.8,1.7,1.7Z" class="g5_86"/>
<path d="M388.7,226.1c0,.8,-.6,1.4,-1.3,1.4c-.7,0,-1.3,-.6,-1.3,-1.4c0,-.7,.6,-1.3,1.3,-1.3c.7,0,1.3,.6,1.3,1.3Z" class="g4_86"/>
<path d="M388.7,226.1c0,.8,-.6,1.4,-1.3,1.4c-.7,0,-1.3,-.6,-1.3,-1.4c0,-.7,.6,-1.3,1.3,-1.3c.7,0,1.3,.6,1.3,1.3Z" class="g5_86"/>
<path d="M327.6,175.2c0,.8,-.6,1.3,-1.3,1.3c-.8,0,-1.4,-.5,-1.4,-1.3c0,-.7,.6,-1.3,1.4,-1.3c.7,0,1.3,.6,1.3,1.3Z" class="g4_86"/>
<path d="M327.6,175.2c0,.8,-.6,1.3,-1.3,1.3c-.8,0,-1.4,-.5,-1.4,-1.3c0,-.7,.6,-1.3,1.4,-1.3c.7,0,1.3,.6,1.3,1.3Z" class="g5_86"/>
<path d="M311.6,154.6c30.3,47.8,72.1,74.8,115.2,88" class="g1_86"/>
<text x="290" y="182" class="se_86">(_1, 3)</text>
<text x="396" y="216" dx="0,.7,0,0" class="se_86">”1, </text>
<text x="419" y="216" class="se_86">’</text>
<text x="412" y="209" class="sf_86">4</text>
<text x="412" y="220" class="sf_86">3</text>
<path d="M411.8,212h5.8" class="g6_86"/>
<text x="347" y="278" class="se_86">0</text>
<text x="346" y="159" class="se_86">y</text>
<path d="M356.8,289.8V158.4" class="g2_86"/>
<path fill-rule="evenodd" d="M356.8,158.4l-2.4,1.6l2.4,-6.5l2.5,6.5Z" class="g3_86"/>
<path d="M289.6,266.9H424.4" class="g2_86"/>
<path fill-rule="evenodd" d="M424.4,266.9l-1.6,-2.5l6.5,2.5l-6.5,2.4Z" class="g3_86"/>
<text x="423" y="278" class="se_86">x</text>
<text x="74" y="341" class="sc_86">23. </text>
<text x="97" y="341" class="s6_86">±f </text>
<text x="111" y="341" class="s7_86">f</text>
<text x="117" y="341" class="s8_86">s</text>
<text x="122" y="341" class="s7_86">x</text>
<text x="128" y="341" class="s8_86">d</text>
<text x="137" y="341" class="s9_86">-</text>
<text x="152" y="341" class="s6_86">5</text>
<text x="160" y="336" class="sa_86">x</text>
<text x="163" y="341" dx="0,0,0,0,0,-.3,0,0,0,0,0" class="s6_86">, show that</text>
<text x="162" y="373" class="s7_86">f</text>
<text x="167" y="373" class="s8_86">s</text>
<text x="172" y="373" class="s7_86">x</text>
<text x="182" y="373" class="sg_86">1</text>
<text x="198" y="373" class="s7_86">h</text>
<text x="204" y="373" class="s8_86">d</text>
<text x="213" y="373" class="sg_86">2</text>
<text x="229" y="373" class="s7_86">f</text>
<text x="234" y="373" class="s8_86">s</text>
<text x="239" y="373" class="s7_86">x</text>
<text x="245" y="373" class="s8_86">d</text>
<path d="M157.2,378.6h95" class="g7_86"/>
<text x="200" y="392" class="s7_86">h</text>
<text x="256" y="383" class="s9_86">-</text>
<text x="271" y="383" class="s6_86">5</text>
<text x="278" y="377" class="sa_86">x</text>
<text x="283" y="385" class="sh_86">S</text>
<text x="294" y="373" class="s6_86">5</text>
<text x="302" y="367" class="sa_86">h</text>
<text x="310" y="373" class="sg_86">2</text>
<text x="325" y="373" class="s6_86">1</text>
<path d="M293,378.6h42.1" class="g7_86"/>
<text x="310" y="392" class="s7_86">h</text>
<text x="334" y="385" class="sh_86">D</text>
<text x="72" y="423" class="sc_86">24. </text>
<text x="97" y="423" dx="0,0,0,0,0,0,0,0,0,0,0,0,0,0,0,0,0,0,-.3,0,0,0,0,0,0,0,0,0,0,0,0,0,0,0,0,0,0,0,0,0,0,0,0,0,0,0,0,0,0,0,0,0,-.4,0,0,0,0,0" class="s6_86">Suppose you are offered a job that lasts one month. Which </text>
<text x="97" y="440" dx="0,0,0,0,0,0,0,0,0,0,0,0,-.3,0,0,0,0,0,0,0,0,0,0,0,0,0,0,0,0,0,0,0,0,0,0,0,0,0,0,0,0,0,0,0,0,0,0,0,0,0" class="s6_86">of the following methods of payment do you prefer?</text>
<text x="103" y="457" dx="0,0,0,4.2,0,0,0,0,0,0,0,0,0,0,0,0,0,0,0,0,0,0,0,0,0,0,0,0,0,0,0,0,0,0,0,0,0,0,0,0,0,0,0,0,0,0,0" class="s6_86">±. One million dollars at the end of the month.</text>
<text x="98" y="473" class="s6_86">±±. </text>
<text x="119" y="473" dx="0,0,0,0,0,0,0,0,0,0,0,0,0,0,0,0,0,0,0,0,0,0,0,0,0,0,0,0,0,0,0,0,0,0,0,0,0,0,0,0,0,-.1,0,0,0,0,0,0,0,0,0,0,0,0,0,0" class="s6_86">One cent on the Irst day of the month, two cents on the </text>
<text x="119" y="490" dx="0,0,0,0,0,0,0,0,0,0,-.9,0,0,0,0,0,0,0,0,0,0,0,0,0,0,0,0,0,0,0,0,0,0,0,0,0,0,0,0,-.9,0,0,0,0,0,0,0,0,0,0,0,0,0,0,0,0,0,0" class="s6_86">second day, four cents on the third day, and, in general, </text>
<text x="119" y="507" class="s6_86">2</text>
<text x="126" y="502" class="sa_86">n</text>
<text x="131" y="502" class="si_86">2</text>
<text x="138" y="502" class="sj_86">1</text>
<text x="145" y="507" class="s6_86">cents on the </text>
<text x="214" y="507" class="s7_86">n</text>
<text x="221" y="507" dx="0,0,0,0,0,0,-.9" class="s6_86">th day.</text>
<text x="72" y="533" class="sc_86">25. </text>
<text x="97" y="533" class="s6_86">Suppose the graphs of </text>
<text x="224" y="533" class="s7_86">f</text>
<text x="230" y="533" class="s8_86">s</text>
<text x="235" y="533" class="s7_86">x</text>
<text x="241" y="533" class="s8_86">d</text>
<text x="250" y="533" class="s9_86">-</text>
<text x="266" y="533" class="s7_86">x</text>
<text x="273" y="528" class="sj_86">2</text>
<text x="281" y="533" class="s6_86">and </text>
<text x="304" y="533" class="sk_86">t</text>
<text x="310" y="533" class="s8_86">s</text>
<text x="315" y="533" class="s7_86">x</text>
<text x="321" y="533" class="s8_86">d</text>
<text x="330" y="533" class="s9_86">-</text>
<text x="346" y="533" class="s6_86">2</text>
<text x="353" y="528" class="sa_86">x</text>
<text x="360" y="533" dx="0,0,0,0,0,0,0,-.2,0,0" class="s6_86">are drawn </text>
<text x="97" y="550" class="s6_86">on a coordinate grid where the unit of measurement is </text>
<text x="97" y="567" dx="0,0,0,0,0,0,0,0,0,0,0,-.3,0,0,0,0,0,0,0,0,0,0,0,0,0,0,0,0,0,0,0,0,0,0,0,0,0,0,0,0,0,0,0,0,0,0,0,0,0,0,0,0,0,0,0,0,0,0,0,0,0,0,0,0,0,0" class="s6_86">1 inch. Show that, at a distance 2 ft to the right of the origin, </text>
<text x="97" y="583" class="s6_86">the height of the graph of </text>
<text x="241" y="583" class="s7_86">f</text>
<text x="250" y="583" dx="0,0,0,0,0,0,0,0,0,0,-.3,0,0,0,0,0,0,0,0,0,0,0,0,0,0,0,0,0,0,0,0" class="s6_86">is 48 ft but the height of the </text>
<text x="97" y="600" class="s6_86">graph of </text>
<text x="146" y="600" class="sk_86">t</text>
<text x="156" y="600" class="s6_86">is about 265 mi.</text>
<text x="72" y="626" class="sc_86">26. </text>
<text x="97" y="626" class="s6_86">Compare the functions </text>
<text x="227" y="626" class="s7_86">f</text>
<text x="233" y="626" class="s8_86">s</text>
<text x="239" y="626" class="s7_86">x</text>
<text x="245" y="626" class="s8_86">d</text>
<text x="253" y="626" class="s9_86">-</text>
<text x="269" y="626" class="s7_86">x</text>
<text x="277" y="621" class="sj_86">5</text>
<text x="284" y="626" class="s6_86">and </text>
<text x="308" y="626" class="sk_86">t</text>
<text x="313" y="626" class="s8_86">s</text>
<text x="319" y="626" class="s7_86">x</text>
<text x="325" y="626" class="s8_86">d</text>
<text x="334" y="626" class="s9_86">-</text>
<text x="349" y="626" class="s6_86">5</text>
<text x="357" y="621" class="sa_86">x</text>
<text x="364" y="626" class="s6_86">by graph-</text>
<text x="97" y="643" dx="0,0,0,0,0,0,0,0,0,0,0,0,0,0,0,0,0,0,0,0,0,0,0,0,-.3,-.2,0,0,0,0,0,0,0,-.3,0,0,0,0,0,0,0,0,0,0,0,0,0,0,0,0,0,0,0,0,0,0,0,0,0" class="s6_86">ing both functions in several viewing rectangles. Find all </text>
<text x="97" y="660" class="s6_86">points of intersection of the graphs correct to one decimal </text>
<text x="97" y="677" dx="0,0,0,0,0,0,0,-.4,0,0,0,0,0,0,0,0,0,0,0,0,0,0,0,0,0,-.3,0,0,0,0,0,0,0,0,0,0,0,0,0,0,0,0,0,0,0,0" class="s6_86">place. Which function grows more rapidly when </text>
<text x="366" y="677" class="s7_86">x</text>
<text x="375" y="677" dx="0,0,0,0,0,0,-.2,0,0" class="s6_86">is large?</text>
<text x="72" y="703" class="sb_86">27. </text>
<text x="97" y="703" class="s6_86">Compare the functions </text>
<text x="227" y="703" class="s7_86">f</text>
<text x="233" y="703" class="s8_86">s</text>
<text x="239" y="703" class="s7_86">x</text>
<text x="245" y="703" class="s8_86">d</text>
<text x="253" y="703" class="s9_86">-</text>
<text x="269" y="703" class="s7_86">x</text>
<text x="277" y="697" class="sj_86">10</text>
<text x="288" y="703" class="s6_86">and </text>
<text x="312" y="703" class="sk_86">t</text>
<text x="318" y="703" class="s8_86">s</text>
<text x="323" y="703" class="s7_86">x</text>
<text x="329" y="703" class="s8_86">d</text>
<text x="338" y="703" class="s9_86">-</text>
<text x="353" y="703" class="s7_86">e</text>
<text x="361" y="697" class="sa_86">x</text>
<text x="368" y="703" class="s6_86">by </text>
<text x="97" y="719" class="s6_86">graphing both </text>
<text x="179" y="719" class="s7_86">f</text>
<text x="188" y="719" class="s6_86">and </text>
<text x="211" y="719" class="sk_86">t</text>
<text x="221" y="719" dx="0,0,0,0,0,-.3,-.2,0,0,0,0,0,0,0,-.3,0,0,0,0,0,0,0,0,0,0,0,0,0,0,0,0,-.4,0,0,0,0" class="s6_86">in several viewing rectangles. When </text>
<text x="97" y="736" class="s6_86">does the graph of </text>
<text x="195" y="736" class="sk_86">t</text>
<text x="205" y="736" class="s6_86">Inally surpass the graph of </text>
<text x="359" y="736" class="s7_86">f</text>
<text x="366" y="736" class="s6_86">?</text>
<text x="72" y="761" class="sc_86">28. </text>
<text x="97" y="761" dx="0,0,0,0,0,0,0,0,0,0,0,0,0,0,0,0,0,0,0,0,0,0,0,0,0,0,0,0,0,-.3,0,0,0,0,0,0,0,0" class="s6_86">Use a graph to estimate the values of </text>
<text x="303" y="761" class="s7_86">x</text>
<text x="312" y="761" class="s6_86">such that </text>
<text x="97" y="778" class="s7_86">e</text>
<text x="104" y="773" class="sa_86">x</text>
<text x="112" y="778" class="sg_86">.</text>
<text x="127" y="778" dx="0,0,0,0,0,0,0,0,0,0,0,0,0,-.1" class="s6_86">1,000,000,000.</text>
<text x="72" y="804" class="sc_86">29. </text>
<text x="97" y="804" class="s6_86">A researcher is trying to determine the doubling time for </text>
<text x="97" y="821" class="s6_86">a population of the bacterium </text>
<text x="262" y="821" dx="0,0,0,0,-.5,0,0,0,0,0,0,0,0,0,0" class="s7_86">Giardia lamblia</text>
<text x="350" y="821" class="s6_86">. He starts </text>
<text x="97" y="838" class="s6_86">a culture in a nutrient solution and estimates the bacteria </text>
<text x="97" y="855" dx="0,0,0,0,0,0,0,-.3,-.2,0,0,0,0,0,0,0,0,0,0,0,0,0,0,0,0,0,0,0,0,0,0,0,0,0,0,0,0,0,0,0,-.3,0,0,0,0,0,0,0,0,0,0,0,0,0,0,0" class="s6_86">count every four hours. His data are shown in the table.</text>
<path d="M85.6,875.4h94.7v29H85.6Zm0,29h94.7v38.2H85.6Z" class="g8_86"/>
<path d="M85.2,875.4h95.1M85.6,904V875.8m94.7,-.4h33.6M180.3,904V875.8m33.6,-.4h33.6M213.9,904V875.8m33.6,-.4h33.6M247.5,904V875.8m33.6,-.4h33.6M281.1,904V875.8m33.6,-.4h33.6M314.7,904V875.8m33.6,-.4H382M348.3,904V875.8m33.7,-.4h34M382,904V875.8M415.6,904V875.8M85.2,904.4h95.1M85.6,942.2V904.8m94.7,-.4h33.6m-33.6,37.8V904.8m33.6,-.4h33.6m-33.6,37.8V904.8m33.6,-.4h33.6m-33.6,37.8V904.8m33.6,-.4h33.6m-33.6,37.8V904.8m33.6,-.4h33.6m-33.6,37.8V904.8m33.6,-.4H382m-33.7,37.8V904.8m33.7,-.4h34m-34,37.8V904.8m33.6,37.4V904.8M85.2,942.6h95.1m0,0h33.6m0,0h33.6m0,0h33.6m0,0h33.6m0,0h33.6m0,0H382m0,0h34" class="g9_86"/>
<text x="97" y="893" dx="0,-.5,0,0,0,0,0,0,0,0,0,0" class="s6_86">Time (hours)</text>
<text x="193" y="894" class="s6_86">0</text>
<text x="227" y="894" class="s6_86">4</text>
<text x="260" y="894" class="s6_86">8</text>
<text x="291" y="894" class="s6_86">12</text>
<text x="324" y="894" class="s6_86">16</text>
<text x="358" y="894" class="s6_86">20</text>
<text x="391" y="894" class="s6_86">24</text>
<text x="92" y="919" class="s6_86">Bacteria count</text>
<text x="101" y="935" class="s8_86">s</text>
<text x="105" y="935" class="s6_86">CFU</text>
<text x="133" y="935" class="s8_86">y</text>
<text x="140" y="935" dx="0,.7" class="s6_86">mL</text>
<text x="160" y="935" class="s8_86">d</text>
<text x="190" y="928" class="s6_86">37</text>
<text x="223" y="928" class="s6_86">47</text>
<text x="257" y="928" class="s6_86">63</text>
<text x="291" y="928" class="s6_86">78</text>
<text x="321" y="928" class="s6_86">105</text>
<text x="354" y="928" class="s6_86">130</text>
<text x="388" y="928" class="s6_86">173</text>
<text x="96" y="971" class="s6_86">(a) </text>
<text x="119" y="971" dx="0,0,0,-.1,0,0,0,0,0,0,0,0,0,0,0,0,0,0,0,0,0,0,0,0,0,0,0,0,0,0,0,0" class="s6_86">Make a scatter plot of the data.</text>
<text x="96" y="988" class="s6_86">(b) </text>
<text x="119" y="988" dx="0,0,0,0,0,0,0,0,0,0,0,0,0,0,0,0,0,0,0,0,0,0,0,0,0,0,0,0,0,0,0,0,0,0,0,0,0,-.2,0,0,0,0,0,0,0,0,0,0,0,0,0,0,-.2,0" class="s6_86">Use a graphing calculator to Ind an exponential curve </text>
<text x="121" y="1005" class="s7_86">f</text>
<text x="128" y="1005" class="s8_86">s</text>
<text x="133" y="1005" class="s7_86">t</text>
<text x="137" y="1005" class="s8_86">d</text>
<text x="146" y="1005" class="s9_86">-</text>
<text x="162" y="1005" class="s7_86">a</text>
<text x="173" y="1005" class="sg_86">?</text>
<text x="181" y="1005" class="s7_86">b</text>
<text x="189" y="1000" class="sa_86">t</text>
<text x="195" y="1005" class="s6_86">that models the bacteria population </text>
<text x="119" y="1022" class="s7_86">t</text>
<text x="127" y="1022" dx="0,0,0,0,0,0,0,0,0,0,0,-.8" class="s6_86">hours later.</text>
<text x="53" y="628" class="sl_86">;</text>
<text x="53" y="704" class="sl_86">;</text>
<text x="53" y="763" class="sl_86">;</text>
<text x="53" y="806" class="sl_86">;</text>
<text x="495" y="106" class="s6_86">(c) </text>
<text x="518" y="106" class="s6_86">Graph the model from part (b) together with the scatter </text>
<text x="518" y="123" dx="0,0,0,0,0,0,0,0,0,0,0,0,0,0,0,0,0,0,0,0,0,0,0,0,0,0,-.2,0,0,-.6,0,0,0,0,0,0,0,0,0,0,0,0,0,0,0,0,0,0,0,0,0,0,0" class="s6_86">plot in part (a). Use the TRACE feature to determine </text>
<text x="518" y="140" dx="0,0,-.3,0,0,0,0,0,0,0,0,0,0,0,0,-.1,0,0,0,0,0,0,0,0,0,0,0,0,0,0,0,0,0,0,0,0,0,0,0,0,0,0,0,0,0,0,0,0,0,0,0" class="s6_86">how long it takes for the bacteria count to double.</text>
<image preserveAspectRatio="none" x="551" y="157" width="202" height="170" xlink:href="86/img/1.png"/>
<text transform="matrix(0,-1,1,0,547,326)" class="sm_86">© Sebastian Kaulitzki / Shutterstock.com</text>
<text x="617" y="346" class="s7_86">G. lamblia</text>
<text x="470" y="373" class="sc_86">30.</text>
<text x="495" y="373" class="s6_86">A bacteria culture starts with 500 bacteria and doubles in </text>
<text x="495" y="390" dx="0,0,0,0,0,0,-.3,-.2,0,0,0,0,0,0,0,0,0,0,0,0,-.8" class="s6_86">size every half hour.</text>
<text x="495" y="407" class="s6_86">(a) </text>
<text x="518" y="407" dx="0,0,-.3,0,0,0,0,-.2,0,0,0,0,0,0,0,0,0,0,0,0,0,0,0,0,0,0,0,0,0,0,0,0,0,0,0,0,0,0,0,0,0,0" class="s6_86">How many bacteria are there after 3 hours?</text>
<text x="495" y="424" class="s6_86">(b) </text>
<text x="518" y="424" dx="0,0,-.3,0,0,0,0,-.2,0,0,0,0,0,0,0,0,0,0,0,0,0,0,0,0,0,0,0,0,0,0,0,0,0,0" class="s6_86">How many bacteria are there after </text>
<text x="709" y="424" class="s7_86">t</text>
<text x="716" y="424" class="s6_86">hours?</text>
<text x="495" y="441" class="s6_86">(c) </text>
<text x="518" y="441" dx="0,0,-.3,0,0,0,0,-.2,0,0,0,0,0,0,0,0,0,0,0,0,0,0,0,0,0,0,0,0,0,0,0,0,0,0,0,0,0,0,0,0,0,0,0,0,0" class="s6_86">How many bacteria are there after 40 minutes?</text>
<text x="495" y="458" class="s6_86">(d) </text>
<text x="518" y="458" class="s6_86">Graph the population function and estimate the time </text>
<text x="518" y="474" class="s6_86">for the population to reach 100,000.</text>
<text x="471" y="500" class="sc_86">31. </text>
<text x="495" y="500" class="s6_86">The half-life of bismuth-210, </text>
<text x="659" y="495" class="sj_86">210</text>
<text x="672" y="500" class="s6_86">Bi, is 5 days.</text>
<text x="495" y="517" class="s6_86">(a) </text>
<text x="518" y="517" class="s6_86">±f a sample has a mass of 200 mg, Ind the amount </text>
<text x="518" y="534" class="s6_86">remaining after 15 days.</text>
<text x="495" y="551" class="s6_86">(b) </text>
<text x="518" y="551" class="s6_86">Find the amount remaining after </text>
<text x="700" y="551" class="s7_86">t</text>
<text x="707" y="551" class="s6_86">days.</text>
<text x="495" y="568" class="s6_86">(c) </text>
<text x="518" y="568" class="s6_86">Estimate the amount remaining after 3 weeks.</text>
<text x="495" y="584" class="s6_86">(d) </text>
<text x="518" y="584" class="s6_86">Use a graph to estimate the time required for the mass </text>
<text x="518" y="601" class="s6_86">to be reduced to 1 mg.</text>
<text x="471" y="627" class="sc_86">32. </text>
<text x="495" y="627" class="s6_86">An isotope of sodium, </text>
<text x="621" y="622" class="sj_86">24</text>
<text x="630" y="627" dx="0,0,.1,0,0,0,0,0,0,0,0,0,0,0,0,0,0,0,0,0,0,0,0,0,0,0,0,0,0,0,0,0,0,-.8,0" class="s6_86">Na, has a half-life of 15 hours. A </text>
<text x="495" y="644" class="s6_86">sample of this isotope has mass 2 g.</text>
<text x="495" y="661" class="s6_86">(a) </text>
<text x="518" y="661" class="s6_86">Find the amount remaining after 60 hours.</text>
<text x="495" y="678" class="s6_86">(b) </text>
<text x="518" y="678" class="s6_86">Find the amount remaining after </text>
<text x="700" y="678" class="s7_86">t</text>
<text x="707" y="678" class="s6_86">hours.</text>
<text x="495" y="694" class="s6_86">(c) </text>
<text x="518" y="694" class="s6_86">Estimate the amount remaining after 4 days.</text>
<text x="495" y="711" class="s6_86">(d) </text>
<text x="518" y="711" class="s6_86">Use a graph to estimate the time required for the mass </text>
<text x="518" y="728" class="s6_86">to be reduced to 0.01 g.</text>
<text x="471" y="754" class="sc_86">33. </text>
<text x="495" y="754" class="s6_86">Use the graph of </text>
<text x="590" y="754" class="s7_86">V</text>
<text x="603" y="754" class="s6_86">in Figure 11 to estimate the half-life </text>
<text x="495" y="771" class="s6_86">of the viral load of patient 303 during the Irst month of </text>
<text x="495" y="788" class="s6_86">treatment.</text>
<text x="471" y="813" class="sc_86">34. </text>
<text x="495" y="813" dx="0,0,0,0,0,0,0,0,0,0,0,0,0,0,0,0,0,0,0,0,0,0,0,0,0,0,0,0,0,0,0,0,0,0,0,0,0,0,0,0,0,0,0,0,0,-.9,0,0,0,0,0,0,0,0,0,0,0,0,0,0" class="s6_86">After alcohol is fully absorbed into the body, it is metabo-</text>
<text x="495" y="830" dx="0,0,0,0,0,0,0,0,0,0,0,0,0,0,0,0,0,0,0,0,0,0,0,0,0,0,0,0,0,0,0,0,0,0,0,0,0,0,0,0,0,0,0,0,0,0,0,0,0,0,0,0,0,0,0,0,0,-.3,-.2,0" class="s6_86">lized with a half-life of about 1.5 hours. Suppose you have </text>
<text x="495" y="847" dx="0,0,0,0,0,0,0,0,0,0,0,0,0,0,0,0,0,0,0,0,0,0,0,0,0,0,0,0,0,0,0,0,0,0,0,0,0,0,0,0,0,0,0,0,-.5,0,0,0,0,0,0,0,0,0,0,0,0,0,0" class="s6_86">had three alcoholic drinks and an hour later, at midnight, </text>
<text x="495" y="864" dx="0,0,0,0,0,0,0,0,0,0,0,0,0,0,0,0,0,0,0,0,0,0,0,0,0,0,0,0,0,0,0,0,0,0,0,-.5,-.6,0,0,0,0,0,0,0,0,0,0,0" class="s6_86">your blood alcohol concentration (BAC) is 0.6 mg</text>
<text x="772" y="864" class="s8_86">y</text>
<text x="779" y="864" class="s6_86">mL.</text>
<text x="495" y="881" class="s6_86">(a) </text>
<text x="518" y="881" dx="0,0,0,0,0,0,0,0,0,-.2,0,0,0,0,0,0,0,0,0,0,0,0,0,0,0,0,0,0,0,0,0,0,0,0,0,0,0,0,0,0,0,0,-.5,-.6,0" class="s6_86">Find an exponential decay model for your BAC </text>
<text x="783" y="881" class="s7_86">t</text>
<text x="790" y="881" class="s6_86">hours </text>
<text x="518" y="898" class="s6_86">after midnight.</text>
<text x="495" y="914" class="s6_86">(b) </text>
<text x="518" y="914" dx="0,0,0,0,0,0,0,0,0,0,0,0,-.5,-.6,0,0,0,0,0,0,0,0,0,0,0,0,0,0,0,0,0,0,0,0,0,0,0,0,0,0,0,0,0,0,0,0,0,0,0,0,0" class="s6_86">Graph your BAC and use the graph to determine when </text>
<text x="518" y="931" dx="0,0,0,0,0,0,0,0,0,0,0,-.3,-.2,0,0,0,0,0,0,0,0,0,0,0,0,0,0,0,-.2,-.1,0,0,0,0,0,0,0,0,0,0,0,0,0,0,0,0,0,0" class="s6_86">you can drive home if the legal limit is 0.08 mg</text>
<text x="779" y="931" class="s8_86">y</text>
<text x="786" y="931" dx="0,.7,0" class="s6_86">mL.</text>
<text x="498" y="953" dx="0,-.1,-.1,-.1,-.5,-.1,-.1,-.1" class="sn_86">Source: </text>
<text x="532" y="953" dx="0,-.1,-.1,-.1,-.1,-.1,-.1,-.1,-.1,-.1,-.1,-.1,-.1,-.1,-1.3,-.1,-.4,-.5,-.1,-.1,-.1,-.1,-.1,-.1,-.1,-.1,-.1,-.1,-.1,-.1,-.1,-.1,-.1,-.1,-.1,-.1,-.1,-.1,-.1,-.1,-.1,-.1,-.1,-.1,-.1,-.1,-.1,-.1,-.1,-.1,-.1,-.1,-.1,-.1,-.1,-.1,-.1,-.1,-.1,-.1,-.1,-.1,-.1,-.1,-.1,-.1,-.1,-.1,0" class="so_86">Adapted from P. Wilkinson et al., “Pharmacokinetics of Ethanol after </text>
<text x="498" y="966" dx="0,-.1,-.1,-.1,-.1,-.7,-.1,-.1,-.1,-.1,-.1,-.1,-.1,-.1,-.1,-.1,-.1,-.1,-.1,-.1,-.1,-.1,-.1,-.1,-.1,-.1,-.1,-.1,-.3,-.1,-.1,-.1,-.1,-.1,-.1,-.1,-.1,-.1,-.1,-.1,-.1,-.9,-.1" class="so_86">Oral Administration in the Fasting State,” </text>
<text x="673" y="966" dx="0,-.4,-.1,-.1,-.1,-.1,-.1,-.1,-.1,-.1,-.1,-.1,-.1,-.1,-.1,-.1,-.1,-.1,-.1,-.1,-.1,-.1,-.1,-.1,-.1,-.1,-.1,-.1,-.1,-.1,-.1,0" class="sn_86">Journal of Pharmacokinetics and </text>
<text x="498" y="980" dx="0,-.1,-.1,-.1,-.1,-.1,-.1,-.1,-.1,-.1,-.1,-.1,-.1,-.1,-.1,-.1" class="sn_86">Biopharmaceutics</text>
<text x="576" y="980" dx="0,-.1,-.1,-.1,-.1,-.1,-.1,-.1,-.1,-.1,-.1,-.1,-.1,-.1,-.1,-.1,-.1" class="so_86">5 (1977): 207–24.</text>
<text x="471" y="1004" class="sc_86">35. </text>
<text x="495" y="1004" dx="0,0,0,0,0,0,0,0,0,0,0,0,0,0,0,0,0,0,0,0,0,0,0,0,0,0,0,0,0,0,0,0,-.2,0,0,0,0,0,0,0,0,0,0,0,0,-.2,0,0,0,0,0,0,0,0" class="s6_86">Use a graphing calculator with exponential regression </text>
<text x="495" y="1021" dx="0,0,0,0,0,0,0,0,0,0,0,0,0,0,0,0,0,0,0,0,0,0,0,0,0,0,0,0,0,0,0,0,0,0,0,0,0,0,0,0,0,0,0,-.1,0,0,0,0,0,0,0,0,0,0,0,0,0" class="s6_86">capability to model the population of the world with the </text>
<text x="452" y="459" class="sl_86">;</text>
<text x="452" y="586" class="sl_86">;</text>
<text x="452" y="713" class="sl_86">;</text>
<text x="452" y="916" class="sl_86">;</text>
<text x="452" y="1006" class="sl_86">;</text>
<text x="121" y="1076" class="sp_86">Copyright 2016 Cengage Learning. All Rights Reserved. May not be copied, scanned, or duplicated, in whole or in part. Due to electronic rights, some third party content may be suppressed from the eBook and/or eChapter(s).</text>
<text x="106" y="1087" class="sp_86">Editorial review has deemed that any suppressed content does not materially affect the overall learning experience. Cengage Learning reserves the right to remove additional content at any time if subsequent rights restrictions require it.</text>

</g>

<!-- Any embedded fonts defined here -->
<style type="text/css" ><![CDATA[

@font-face {
	font-family: BeaconDingbatsTypeOne_1hn;
	src: url("fonts/BeaconDingbatsTypeOne_1hn.woff") format("woff");
}

@font-face {
	font-family: MathematicalPiLTStd-1_rr;
	src: url("fonts/MathematicalPiLTStd-1_rr.woff") format("woff");
}

@font-face {
	font-family: MathematicalPiLTStd-3_ry;
	src: url("fonts/MathematicalPiLTStd-3_ry.woff") format("woff");
}

@font-face {
	font-family: MathematicalPiLTStd-5_vb;
	src: url("fonts/MathematicalPiLTStd-5_vb.woff") format("woff");
}

@font-face {
	font-family: MyriadPro-BoldSemiCn_90;
	src: url("fonts/MyriadPro-BoldSemiCn_90.woff") format("woff");
}

@font-face {
	font-family: MyriadPro-Regular_4i;
	src: url("fonts/MyriadPro-Regular_4i.woff") format("woff");
}

@font-face {
	font-family: MyriadPro-Semibold_49;
	src: url("fonts/MyriadPro-Semibold_49.woff") format("woff");
}

@font-face {
	font-family: TECHMath-Mix_16e;
	src: url("fonts/TECHMath-Mix_16e.woff") format("woff");
}

@font-face {
	font-family: TECHMath-Mix_1hu;
	src: url("fonts/TECHMath-Mix_1hu.woff") format("woff");
}

@font-face {
	font-family: Times-Roman_4n;
	src: url("fonts/Times-Roman_4n.woff") format("woff");
}

@font-face {
	font-family: TimesLTStd-Italic_o3;
	src: url("fonts/TimesLTStd-Italic_o3.woff") format("woff");
}

@font-face {
	font-family: TimesLTStd-Roman_143;
	src: url("fonts/TimesLTStd-Roman_143.woff") format("woff");
}

@font-face {
	font-family: UniversLTStd-LightCn_tc;
	src: url("fonts/UniversLTStd-LightCn_tc.woff") format("woff");
}

]]></style>

</svg>
