<?xml version="1.0" encoding="UTF-8" standalone="no"?>
<!DOCTYPE svg PUBLIC "-//W3C//DTD SVG 1.1//EN"
"http://www.w3.org/Graphics/SVG/1.1/DTD/svg11.dtd">


<!-- Page 88 -->
<svg x="0" y="0" width="931" height="1096" viewBox="0 0 931 1096" version="1.1" xmlns="http://www.w3.org/2000/svg" xmlns:xlink="http://www.w3.org/1999/xlink"
style="display: block;margin-left: auto;margin-right: auto;">
<defs>
<clipPath id="c_88"><path d="M0,0H931V1096H0Z"/></clipPath>
<style type="text/css"><![CDATA[
text { white-space: pre; }
path, image { pointer-events: none; }

.s1_88{
font-size: 15.28px;
font-family: MyriadPro-Semibold_49;
fill: #231F20;
}
.s2_88{
font-size: 12.22px;
font-family: MyriadPro-Semibold_49;
fill: #231F20;
}
.s3_88{
font-size: 13.75px;
font-family: MyriadPro-Semibold_49;
fill: #231F20;
}
.s4_88{
font-size: 12.22px;
font-family: MyriadPro-Regular_4i;
fill: #231F20;
}
.s5_88{
font-size: 15.28px;
font-family: MyriadPro-Bold_74;
fill: #00AEEF;
}
.s6_88{
font-size: 15.28px;
font-family: TimesLTStd-Roman_143;
fill: #231F20;
}
.s7_88{
font-size: 15.28px;
font-family: TimesLTStd-Italic_o3;
fill: #231F20;
}
.s8_88{
font-size: 15.28px;
font-family: TimesLTStd-Bold_oh;
fill: #231F20;
}
.s9_88{
font-size: 15.28px;
font-family: MathematicalPiLTStd-3_ry;
fill: #231F20;
}
.sa_88{
font-size: 9.17px;
font-family: TimesLTStd-Roman_143;
fill: #231F20;
}
.sb_88{
font-size: 15.28px;
font-family: MathematicalPiLTStd-5_vb;
fill: #231F20;
}
.sc_88{
font-size: 13.75px;
font-family: TimesLTStd-Roman_143;
fill: #231F20;
}
.sd_88{
font-size: 12.22px;
font-family: TimesLTStd-Italic_o3;
fill: #231F20;
}
.se_88{
font-size: 12.22px;
font-family: TECHMath-Mix_16e;
fill: #231F20;
}
.sf_88{
font-size: 12.99px;
font-family: TECHMath-Mix_1hj;
fill: #231F20;
}
.sg_88{
font-size: 12.99px;
font-family: TECHMath-Mix_1ik;
fill: #231F20;
}
.sh_88{
font-size: 12.22px;
font-family: TECHMath-Mix_1ik;
fill: #231F20;
}
.si_88{
font-size: 16.81px;
font-family: MyriadPro-BoldSemiCn_90;
fill: #EC008C;
}
.sj_88{
font-size: 17.57px;
font-family: MyriadPro-BoldSemiCn_90;
fill: #EC008C;
}
.sk_88{
font-size: 13.75px;
font-family: MyriadPro-Semibold_49;
fill: #EC008C;
}
.sl_88{
font-size: 12.99px;
font-family: ZapfDingbatsITC_my;
fill: #EC008C;
}
.sm_88{
font-size: 15.28px;
font-family: BeaconDingbatsTypeOne_1hn;
fill: #231F20;
}
.sn_88{
font-size: 15.28px;
font-family: MathematicalPiLTStd-1_rr;
fill: #231F20;
}
.so_88{
font-size: 9.17px;
font-family: MathematicalPiLTStd-1_rr;
fill: #231F20;
}
.sp_88{
font-size: 15.28px;
font-family: UniversalChemicalPi-T_-_;
fill: #231F20;
}
.sq_88{
font-size: 14.51px;
font-family: MyriadPro-Bold_74;
fill: #231F20;
}
.sr_88{
font-size: 15.28px;
font-family: MyriadPro-Bold_74;
fill: #231F20;
}
.ss_88{
font-size: 13.75px;
font-family: TimesLTStd-Italic_o3;
fill: #231F20;
}
.st_88{
font-size: 13.75px;
font-family: MathematicalPiLTStd-3_ry;
fill: #231F20;
}
.su_88{
font-size: 8.25px;
font-family: TimesLTStd-Roman_143;
fill: #231F20;
}
.sv_88{
font-size: 13.75px;
font-family: MathematicalPiLTStd-5_vb;
fill: #231F20;
}
.sw_88{
font-size: 12.99px;
font-family: TECHMath-Mix_1ic;
fill: #231F20;
}
.sx_88{
font-size: 12.22px;
font-family: TECHMath-Mix_1ic;
fill: #231F20;
}
.sy_88{
font-size: 13.75px;
font-family: BeaconDingbatsTypeOne_1hn;
fill: #231F20;
}
.sz_88{
font-size: 12.99px;
font-family: TECHMath-Mix_1ig;
fill: #231F20;
}
.s10_88{
font-size: 12.22px;
font-family: TECHMath-Mix_1ig;
fill: #231F20;
}
.s11_88{
font-size: 7.64px;
font-family: Times-Roman_4n;
fill: #000000;
}

.g0_88{
fill: #FFFFFF;
}
.g1_88{
fill: none;
stroke: #00AEEF;
stroke-width: 1.145;
stroke-linecap: butt;
stroke-linejoin: miter;
stroke-miterlimit: 4;
}
.g2_88{
fill: none;
stroke: #00AEEF;
stroke-width: 0.763;
stroke-linecap: butt;
stroke-linejoin: miter;
stroke-miterlimit: 4;
}
.g3_88{
fill: #231F20;
}
.g4_88{
fill: none;
stroke: #EC008C;
stroke-width: 1.069;
stroke-linecap: butt;
stroke-linejoin: round;
stroke-miterlimit: 3;
}
.g5_88{
fill: none;
stroke: #00AEEF;
stroke-width: 1.069;
stroke-linecap: butt;
stroke-linejoin: round;
stroke-miterlimit: 3;
}
.g6_88{
fill: none;
stroke: #231F20;
stroke-width: 0.611;
stroke-linecap: butt;
stroke-linejoin: miter;
stroke-miterlimit: 3;
}
.g7_88{
fill: none;
stroke: #949698;
stroke-width: 0.763;
stroke-linecap: butt;
stroke-linejoin: miter;
stroke-miterlimit: 3;
}
.g8_88{
fill: none;
stroke: #231F20;
stroke-width: 0.534;
stroke-linecap: butt;
stroke-linejoin: miter;
stroke-miterlimit: 3;
}
.g9_88{
fill: none;
stroke: #EC008C;
stroke-width: 0.763;
stroke-linecap: butt;
stroke-linejoin: round;
stroke-miterlimit: 3;
}
.ga_88{
fill: none;
stroke: #00AEEF;
stroke-width: 0.916;
stroke-linecap: butt;
stroke-linejoin: round;
stroke-miterlimit: 3;
}
.gb_88{
fill: none;
stroke: #231F20;
stroke-width: 0.458;
stroke-linecap: butt;
stroke-linejoin: miter;
stroke-miterlimit: 3;
}

]]></style>

</defs>
<g clip-path="url(#c_88)">
<path d="M0,0
L0,1096
L931,1096
L931,0 Z " 
fill="#FFFFFF" stroke="none"/>
<text x="53" y="64" class="s1_88">56</text>
<text x="126" y="64" dx="0,.2,.2,.2,.2,.2,.2,.1" class="s2_88">CHAPTER </text>
<text x="180" y="64" class="s3_88">1</text>
<text x="200" y="64" dx="0,-.3,.1,.1,.3,.1,.1,.1,.1,.1,.1,.1,.1,.1,.1,.2,.1,.1,.1,.1" class="s4_88">Functions and Models</text>
<path d="M290.7,97.9c0,0,-3.1,0,-3.1,3.1v81.7c0,0,0,3.1,3.1,3.1H820.1c0,0,3,0,3,-3.1V101c0,0,0,-3.1,-3,-3.1Z" class="g0_88"/>
<text x="311" y="121" class="s5_88">1</text>
<path d="M308.4,108.1c0,0,-1.5,0,-1.5,1.5v14.1c0,0,0,1.6,1.5,1.6h14.2c0,0,1.5,0,1.5,-1.6V109.6c0,0,0,-1.5,-1.5,-1.5H308.4Z" class="g1_88"/>
<text x="332" y="122" class="s5_88">De±nition </text>
<text x="408" y="122" class="s6_88">A function </text>
<text x="480" y="122" class="s7_88">f</text>
<text x="490" y="122" class="s6_88">is called a </text>
<text x="555" y="122" class="s8_88">one-to-one function</text>
<text x="686" y="122" dx="0,0,0,0,0,0,0,0,-.4,-.2,0,0,0,0,0,-.2,0,0,0,0,0" class="s6_88">if it never takes on </text>
<text x="306" y="140" dx="0,0,0,0,0,0,0,0,0,0,-.4,0,0,0,0,0,0,0,0,0,0,0,0,0,0,0,0,0,0,0" class="s6_88">the same value twice; that is,</text>
<text x="444" y="167" class="s7_88">f</text>
<text x="450" y="167" class="s9_88">s</text>
<text x="456" y="167" class="s7_88">x</text>
<text x="464" y="169" class="sa_88">1</text>
<text x="470" y="167" class="s9_88">d</text>
<text x="479" y="167" class="sb_88">±</text>
<text x="497" y="167" class="s7_88">f</text>
<text x="503" y="167" class="s9_88">s</text>
<text x="509" y="167" class="s7_88">x</text>
<text x="517" y="169" class="sa_88">2</text>
<text x="523" y="167" class="s9_88">d</text>
<text x="558" y="167" class="s6_88">whenever </text>
<text x="622" y="167" class="s7_88">x</text>
<text x="630" y="169" class="sa_88">1</text>
<text x="639" y="167" class="sb_88">±</text>
<text x="656" y="167" class="s7_88">x</text>
<text x="664" y="169" class="sa_88">2</text>
<path d="M290.7,97.9c0,0,-3.1,0,-3.1,3.1v81.7c0,0,0,3.1,3.1,3.1H820.1c0,0,3,0,3,-3.1V101c0,0,0,-3.1,-3,-3.1H290.7Z" class="g2_88"/>
<text x="53" y="124" dx="0,-.1,-.1,-.1,-.1,-.1,-.1,-.1,-.1,-.1,-.1,-.1,-.1,-.1,-.1,-.1,-.1,-.1,-.1,-.1,-.1,-.1,-.1,-.1,-.1,-.1,-.1,-.1,-.1,-.1,-.1,-.1,-.1,-.1,-.1,-.1,-.1,-.1,0" class="sc_88">±n the language of inputs and outputs, </text>
<text x="53" y="140" dx="0,-.1,-.1,-.1,-.1,-.1,-.1,-.1,-.1,-.1,-.1,-.1,-.1,-.1,-.1,-.1,-.1,-.1,-.1,-.1,-.1,-.1,-.1,-.1,-.1" class="sc_88">this deInition says that </text>
<text x="184" y="140" class="sd_88">f</text>
<text x="192" y="140" dx="0,-.1,-.1,-.1,-.1,-.1,-.1,-.1,-.1,-.1,-.1,-.1,-.1,0" class="sc_88">is one-to-one </text>
<text x="53" y="157" dx="0,-.1,-.1,-.1,-.1,-.1,-.1,-.1,-.1,-.1,-.1,-.1,-.1,-.1,-.1,-.1,-.1,-.1,-.1,-.1,-.1,-.1,-.1,-.1,-.1,-.1,-.1,-.1,-.1,-.1,-.1,-.1,-.1,-.1,-.1,-.1,-.1,-.1,0" class="sc_88">if each output corresponds to only one </text>
<text x="53" y="174" dx="0,-.1,-.1,-.1,-.1,-.1" class="sc_88">input.</text>
<text x="305" y="215" dx="0,0,0,-.1,0,-.1,0,0,0,0,0,0,0,0,0,0,-.1,0,0,0,0,-.1,0,0,0,0,0,0,0,0,0,0,-.1,0,0,0,-.1,0,0,0,0,0,-.1,0,0" class="s6_88">±f a horizontal line intersects the graph of </text>
<text x="563" y="215" class="s7_88">f</text>
<text x="573" y="215" dx="0,0,0,-.1,0,0,0,0,-.1,0,0,0,0,-.1,0,0,0,-.1,0,0,0,0,0,0,-.1,0,0,0,0,-.1,0,0,-.1,0,0,0,-.1,0,0,0,0" class="s6_88">in more than one point, then we see from </text>
<text x="287" y="233" dx="0,0,0,0,0,0,0,.4,0,.4,0,0,0,0,.4,0,0,0,0,0,.4,0,0,0,.4,0,0,0,0,0,0,0" class="s6_88">Figure 2 that there are numbers </text>
<text x="485" y="233" class="s7_88">x</text>
<text x="492" y="235" class="sa_88">1</text>
<text x="501" y="233" class="s6_88">and </text>
<text x="528" y="233" class="s7_88">x</text>
<text x="536" y="235" class="sa_88">2</text>
<text x="544" y="233" dx="0,0,0,0,0,.4,0,0,0,0" class="s6_88">such that </text>
<text x="606" y="233" class="s7_88">f</text>
<text x="613" y="233" class="s9_88">s</text>
<text x="618" y="233" class="s7_88">x</text>
<text x="626" y="235" class="sa_88">1</text>
<text x="632" y="233" class="s9_88">d</text>
<text x="642" y="233" class="sb_88">-</text>
<text x="659" y="233" class="s7_88">f</text>
<text x="666" y="233" class="s9_88">s</text>
<text x="671" y="233" class="s7_88">x</text>
<text x="679" y="235" class="sa_88">2</text>
<text x="685" y="233" class="s9_88">d</text>
<text x="690" y="233" dx="0,0,.2,0,0,0,0,.4,0,0,0,0,0,.4,0,0,0,0" class="s6_88">. This means that </text>
<text x="802" y="233" class="s7_88">f</text>
<text x="813" y="233" class="s6_88">is </text>
<text x="287" y="251" class="s6_88">not one-to-one. </text>
<text x="456" y="391" class="se_88">0</text>
<text x="531" y="341" class="sf_88">‡</text>
<text x="491" y="341" class="sg_88">ﬂ</text>
<text x="590" y="318" class="sg_88">y=ƒ</text>
<path fill-rule="evenodd" d="M632.2,380l-1.6,-2.4L637,380l-6.5,2.5Z" class="g3_88"/>
<path fill-rule="evenodd" d="M466.6,265.7l-2.4,1.6l2.4,-6.5l2.5,6.5Z" class="g3_88"/>
<text x="456" y="266" class="sh_88">y</text>
<text x="629" y="391" class="sh_88">x</text>
<text x="479" y="391" class="sh_88">/</text>
<text x="560" y="391" class="sh_88">¤</text>
<path d="M633.2,297.6H446.8" class="g4_88"/>
<path d="M445.8,332.2c21.5,-25.6,56.2,-52.3,81.7,-52.3c43.7,0,57.3,58.2,104.7,85.6" class="g5_88"/>
<path d="M446,380H632.6m-166,20.5V265.2" class="g6_88"/>
<path d="M483.7,297.8v82.3m81,-82.3v82.1" class="g7_88"/>
<path d="M561.7,299.1c-1.9,.1,-2.2,1.8,-2.3,3.9v31.7c-.1,2.1,.1,3.8,-1.8,3.8c1.9,.1,1.7,1.8,1.8,3.9v32.4c.1,2.1,.4,4,2.3,4.1M485.9,299.1c1.9,.1,2.2,1.8,2.3,3.9v31.7c.1,2.1,-.1,3.8,1.8,3.8c-1.9,.1,-1.7,1.8,-1.8,3.9v32.4c-.1,2.1,-.4,4,-2.3,4.1" class="g8_88"/>
<text x="305" y="434" dx="0,0,0,0,0,0,0,0,0,0,.5,0,0,.5,0,-.3,-.2,0,.5,0,0,0,.5,0,0,0,0,-.4,0,0,0,0,.5,0,0,0,0,0,0,0,0,0,.5,0,0,0,0,0,0,.5,0,0,0,.5,0,0,0,0,0,0,0,0,0,0,0,.5,0,0,0,0,0,0,0,.5,0,.5,0,0,0,0" class="s6_88">Therefore we have the following geometric method for determining whether a func-</text>
<text x="287" y="452" class="s6_88">tion is one-to-one.</text>
<path d="M290.7,475.8c0,0,-3.1,0,-3.1,3V527c0,0,0,3,3.1,3H820.1c0,0,3,0,3,-3V478.8c0,0,0,-3,-3,-3Z" class="g0_88"/>
<text x="306" y="496" dx="0,0,0,0,0,-.1,0,-.1,0,0,0,0,0,0,0,0,-.6,-1.2,0,0,0" class="s5_88">Horizontal Line Test </text>
<text x="447" y="496" class="s6_88">A function is one-to-one if and only if no horizontal line </text>
<text x="306" y="515" class="s6_88">intersects its graph more than once.</text>
<path d="M290.7,475.8c0,0,-3.1,0,-3.1,3V527c0,0,0,3,3.1,3H820.1c0,0,3,0,3,-3V478.8c0,0,0,-3,-3,-3H290.7Z" class="g2_88"/>
<text x="287" y="570" dx="0,.3,.3,.3,.3,.3,.3,.2" class="si_88">EXAMPLE </text>
<text x="358" y="570" class="sj_88">1</text>
<text x="375" y="570" class="s6_88">±s the function </text>
<text x="469" y="570" class="s7_88">f</text>
<text x="476" y="570" class="s9_88">s</text>
<text x="482" y="570" class="s7_88">x</text>
<text x="488" y="570" class="s9_88">d</text>
<text x="498" y="570" class="sb_88">-</text>
<text x="515" y="570" class="s7_88">x</text>
<text x="524" y="564" class="sa_88">3</text>
<text x="532" y="570" class="s6_88">one-to-one?</text>
<text x="287" y="597" dx="0,.3,.3,.3,.3,.3,.3,.3,.1,0,0" class="sk_88">SOLUTION 1 </text>
<text x="369" y="597" class="s6_88">±f </text>
<text x="383" y="597" class="s7_88">x</text>
<text x="390" y="599" class="sa_88">1</text>
<text x="400" y="597" class="sb_88">±</text>
<text x="417" y="597" class="s7_88">x</text>
<text x="425" y="599" class="sa_88">2</text>
<text x="430" y="597" class="s6_88">, then </text>
<text x="468" y="597" class="s7_88">x</text>
<text x="478" y="591" class="sa_88">3</text>
<text x="475" y="599" class="sa_88">1</text>
<text x="485" y="597" class="sb_88">±</text>
<text x="503" y="597" class="s7_88">x</text>
<text x="514" y="591" class="sa_88">3</text>
<text x="510" y="599" class="sa_88">2</text>
<text x="522" y="597" dx="0,0,0,-.2,0,0,0,0,-.4,0,0,0,0,0,0,0,0,0,0,0,0,0,0,0,0,0,0,-.3,0,0,0,-.3,-.2,0,0,0,0,0,0,0,0,0,0" class="s6_88">(two different numbers can’t have the same </text>
<text x="287" y="615" dx="0,0,0,0,0,0,0,-.3,0,0,0,0,0,0,0,0,0,0,0,0,0,0,0,0,0,0,0,0,0,0,0,0,0,0" class="s6_88">cube). Therefore, by DeInition 1, </text>
<text x="498" y="615" class="s7_88">f</text>
<text x="505" y="615" class="s9_88">s</text>
<text x="511" y="615" class="s7_88">x</text>
<text x="517" y="615" class="s9_88">d</text>
<text x="527" y="615" class="sb_88">-</text>
<text x="544" y="615" class="s7_88">x</text>
<text x="553" y="609" class="sa_88">3</text>
<text x="561" y="615" class="s6_88">is one-to-one.</text>
<text x="287" y="643" dx="0,.3,.3,.3,.3,.3,.3,.3,.1,0,0" class="sk_88">SOLUTION 2 </text>
<text x="369" y="643" class="s6_88">From Figure 3 we see that no horizontal line intersects the graph of </text>
<text x="289" y="661" class="s7_88">f</text>
<text x="295" y="661" class="s9_88">s</text>
<text x="301" y="661" class="s7_88">x</text>
<text x="308" y="661" class="s9_88">d</text>
<text x="318" y="661" class="sb_88">-</text>
<text x="335" y="661" class="s7_88">x</text>
<text x="343" y="655" class="sa_88">3</text>
<text x="352" y="661" dx="0,0,0,0,0,0,0,0,0,0,0,0,0,0,0,0,-.3,0,0,0,0,0,0,0,0,0,0,0,0,0,0,0,0,0,0,0,0,0,0,0,0,0,0,0,0,0,0,0,0,0,-.3,-1.1,0,0,0,0" class="s6_88">more than once. Therefore, by the Horizontal Line Test, </text>
<text x="699" y="661" class="s7_88">f</text>
<text x="709" y="661" class="s6_88">is one-to-one. </text>
<text x="813" y="661" class="sl_88">■</text>
<text x="287" y="701" dx="0,.3,.3,.3,.3,.3,.3,.2" class="si_88">EXAMPLE </text>
<text x="358" y="701" class="sj_88">2</text>
<text x="375" y="701" class="s6_88">±s the function </text>
<text x="467" y="701" class="sm_88">t</text>
<text x="474" y="701" class="s9_88">s</text>
<text x="480" y="701" class="s7_88">x</text>
<text x="486" y="701" class="s9_88">d</text>
<text x="496" y="701" class="sb_88">-</text>
<text x="513" y="701" class="s7_88">x</text>
<text x="522" y="695" class="sa_88">2</text>
<text x="530" y="701" class="s6_88">one-to-one?</text>
<text x="287" y="729" dx="0,.3,.3,.3,.3,.3,.3,.3,.1,0,0" class="sk_88">SOLUTION 1 </text>
<text x="369" y="729" class="s6_88">This function is not one-to-one because, for instance,</text>
<text x="498" y="759" class="sm_88">t</text>
<text x="505" y="759" class="s9_88">s</text>
<text x="510" y="759" class="s6_88">1</text>
<text x="518" y="759" class="s9_88">d</text>
<text x="527" y="759" class="sb_88">-</text>
<text x="545" y="759" class="s6_88">1</text>
<text x="557" y="759" class="sb_88">-</text>
<text x="574" y="759" class="sm_88">t</text>
<text x="581" y="759" class="s9_88">s</text>
<text x="586" y="759" class="sn_88">2</text>
<text x="599" y="759" class="s6_88">1</text>
<text x="606" y="759" class="s9_88">d</text>
<text x="287" y="787" class="s6_88">and so 1 and </text>
<text x="367" y="787" class="sn_88">2</text>
<text x="380" y="787" dx="0,0,0,0,-.3,-.2,0,0,0,0,0,0,0,0,0,0,0,0,0,0,0,0,0" class="s6_88">1 have the same output.</text>
<text x="287" y="814" dx="0,.3,.3,.3,.3,.3,.3,.3,.1,-.3" class="sk_88">SOLUTION 2</text>
<text x="369" y="814" dx="0,0,0,0,0,-.4,0,0,0,0,0,0,-.4,0,-.4,0,0,-.4,0,0,0,-.4,0,0,0,0,-.4,0,0,0,0,0,-.4,0,0,0,-.4,0,0,0,0,0,0,0,0,0,0,-.4,0,0,0,0,0,-.4,0,0,0,0,-.4,0,0,0,0,0,0,0,0,0,-.4,0,0,0,-.4,0,0,0,0,0" class="s6_88">From Figure 4 we see that there are horizontal lines that intersect the graph </text>
<text x="287" y="832" class="s6_88">of </text>
<text x="303" y="832" class="sm_88">t</text>
<text x="314" y="832" dx="0,0,0,0,0,0,0,0,0,0,0,0,0,0,0,0,-.3,0,0,0,0,0,0,0,0,0,0,0,0,0,0,0,0,0,0,0,0,0,0,0,0,0,0,0,0,0,0,0,0,0,-.3,-1.1,0,0,0,0" class="s6_88">more than once. Therefore, by the Horizontal Line Test, </text>
<text x="658" y="832" class="sm_88">t</text>
<text x="669" y="832" class="s6_88">is not one-to-one. </text>
<text x="813" y="832" class="sl_88">■</text>
<text x="305" y="872" dx="0,0,0,0,0,0,0,0,0,0,0,-.2,0,0,0,0,0,0,0,0,0,-.2,0,0,0,-.2,0,0,0,0,0,0,0,0,0,-.2,0,0,0,0,0,0,0,-.2,0,0,-.2,0,-.2,0,0,0,-.2,0,0,0,0,0,0,0,0,0,-.2,0,0,0,-.2,0,0,0,0,0,0,0,0,0,-.2,0,0,0,0,-.2,0,0,0" class="s6_88">One-to-one functions are important because they are precisely the functions that pos-</text>
<text x="287" y="890" dx="0,0,0,0,0,0,0,-.6,-.2,0,0,0,0,0,0,0,0,0,0,0,0,0,0,0,0,0,0,0,0,0,0,0,0,0,0,0,0,0,0,0,0,0,0,0,0,-.4,0,0,0,0,0,0,0,0,0,0,0,0,0,0" class="s6_88">sess inverse functions according to the following deInition.</text>
<path d="M290.7,908.1c0,0,-3.1,0,-3.1,3.1v109.2c0,0,0,3.1,3.1,3.1H820.1c0,0,3,0,3,-3.1V911.2c0,0,0,-3.1,-3,-3.1Z" class="g0_88"/>
<text x="306" y="931" class="s5_88">2</text>
<path d="M303.8,917.5c0,0,-1.5,0,-1.5,1.5v14.2c0,0,0,1.5,1.5,1.5H318c0,0,1.5,0,1.5,-1.5V919c0,0,0,-1.5,-1.5,-1.5H303.8Z" class="g1_88"/>
<text x="327" y="932" class="s5_88">De±nition </text>
<text x="403" y="932" class="s6_88">Let </text>
<text x="430" y="932" class="s7_88">f</text>
<text x="440" y="932" class="s6_88">be a one-to-one function with domain </text>
<text x="675" y="932" class="s7_88">A</text>
<text x="688" y="932" class="s6_88">and range </text>
<text x="752" y="932" class="s7_88">B</text>
<text x="761" y="932" class="s6_88">.</text>
<text x="301" y="950" dx="0,0,0,0,0,.4,0,0,0" class="s6_88">Then its </text>
<text x="355" y="950" dx="0,0,0,0,0,0,0,0,.4,0,0,0,0,0,0,0" class="s8_88">inverse function</text>
<text x="467" y="950" class="s7_88">f</text>
<text x="474" y="944" class="so_88">2</text>
<text x="482" y="944" class="sa_88">1</text>
<text x="491" y="950" dx="0,0,0,0,.4,0,0,0,0,0,0" class="s6_88">has domain </text>
<text x="566" y="950" class="s7_88">B</text>
<text x="579" y="950" dx="0,0,0,0,.4,0,0,0,0,0" class="s6_88">and range </text>
<text x="644" y="950" class="s7_88">A</text>
<text x="658" y="950" dx="0,0,0,0,.4,0,0,.4,0,0,0,0,0,0,.4,0" class="s6_88">and is deIned by</text>
<text x="466" y="984" class="s7_88">f</text>
<text x="473" y="978" class="so_88">2</text>
<text x="481" y="978" class="sa_88">1</text>
<text x="486" y="984" class="s9_88">s</text>
<text x="492" y="984" class="s7_88">y</text>
<text x="499" y="984" class="s9_88">d</text>
<text x="509" y="984" class="sb_88">-</text>
<text x="526" y="984" class="s7_88">x</text>
<text x="548" y="984" dx="0,-3.1" class="sp_88">&amp;?</text>
<text x="593" y="984" class="s7_88">f</text>
<text x="600" y="984" class="s9_88">s</text>
<text x="605" y="984" class="s7_88">x</text>
<text x="612" y="984" class="s9_88">d</text>
<text x="622" y="984" class="sb_88">-</text>
<text x="639" y="984" class="s7_88">y</text>
<text x="301" y="1007" dx="0,0,0,0,.4,0,0,0" class="s6_88">for any </text>
<text x="350" y="1007" class="s7_88">y</text>
<text x="361" y="1007" class="s6_88">in </text>
<text x="377" y="1007" class="s7_88">B</text>
<text x="387" y="1007" class="s6_88">.</text>
<path d="M290.7,908.1c0,0,-3.1,0,-3.1,3.1v109.2c0,0,0,3.1,3.1,3.1H820.1c0,0,3,0,3,-3.1V911.2c0,0,0,-3.1,-3,-3.1H290.7Z" class="g2_88"/>
<text x="212" y="361" dx="0,.3,.3,.3,.3,.3,.1" class="sq_88">FIGURE </text>
<text x="265" y="361" class="sr_88">2 </text>
<text x="103" y="378" class="sc_88">This function is not one-to-one </text>
<text x="145" y="394" class="sc_88">because </text>
<text x="194" y="394" class="ss_88">f</text>
<text x="200" y="394" class="st_88">s</text>
<text x="205" y="394" class="ss_88">x</text>
<text x="212" y="396" class="su_88">1</text>
<text x="217" y="394" class="st_88">d</text>
<text x="226" y="394" class="sv_88">-</text>
<text x="242" y="394" class="ss_88">f</text>
<text x="247" y="394" class="st_88">s</text>
<text x="253" y="394" class="ss_88">x</text>
<text x="259" y="396" class="su_88">2</text>
<text x="265" y="394" class="st_88">d</text>
<text x="270" y="394" class="sc_88">.</text>
<text x="53" y="719" dx="0,.3,.3,.3,.3,.3,.1" class="sq_88">FIGURE </text>
<text x="106" y="719" class="sr_88">3 </text>
<text x="55" y="735" class="ss_88">f</text>
<text x="61" y="735" class="st_88">s</text>
<text x="66" y="735" class="ss_88">x</text>
<text x="72" y="735" class="st_88">d</text>
<text x="81" y="735" class="sv_88">-</text>
<text x="96" y="735" class="ss_88">x</text>
<text x="104" y="730" class="su_88">3</text>
<text x="112" y="735" class="sc_88">is one-to-one.</text>
<text x="120" y="641" class="se_88">0</text>
<text x="172" y="596" class="sw_88">y=˛</text>
<path fill-rule="evenodd" d="M128.7,562.9l-2.5,1.7l2.5,-6.5l2.4,6.5Z" class="g3_88"/>
<text x="118" y="564" class="sx_88">y</text>
<text x="202" y="640" class="sx_88">x</text>
<path d="M204.7,630H53.5m151.2,39H53.5M204.7,605.6H53.5M204.7,579.9H53.5" class="g9_88"/>
<path d="M174.5,571.6c-11.7,44,-21,58.4,-45.7,58.4c-24.6,0,-33.9,14.3,-45.5,58" class="ga_88"/>
<path d="M54,630H204.7" class="gb_88"/>
<path d="M128.7,689.4V562.5" class="g6_88"/>
<path fill-rule="evenodd" d="M204.3,630l-1.7,-2.5l6.6,2.5l-6.6,2.4Z" class="g3_88"/>
<text x="53" y="927" dx="0,.3,.3,.3,.3,.3,.1" class="sq_88">FIGURE </text>
<text x="106" y="927" class="sr_88">4 </text>
<text x="53" y="943" class="sy_88">t</text>
<text x="59" y="943" class="st_88">s</text>
<text x="64" y="943" class="ss_88">x</text>
<text x="70" y="943" class="st_88">d</text>
<text x="79" y="943" class="sv_88">-</text>
<text x="95" y="943" class="ss_88">x</text>
<text x="102" y="938" class="su_88">2</text>
<text x="110" y="943" class="sc_88">is not one-to-one.</text>
<text x="121" y="889" class="se_88">0</text>
<text x="170" y="802" class="sz_88">y=≈</text>
<text x="204" y="890" class="s10_88">x</text>
<text x="120" y="789" class="s10_88">y</text>
<path fill-rule="evenodd" d="M130.2,787.4l-2.4,1.7l2.4,-6.6l2.5,6.6Z" class="g3_88"/>
<path fill-rule="evenodd" d="M206,877.9l-1.7,-2.5l6.5,2.5l-6.5,2.4Z" class="g3_88"/>
<path d="M206.3,850.9H55m151.3,-35H55" class="g9_88"/>
<path d="M93.1,787.2c7.9,40.4,22.5,90.7,37.3,90.7c14.8,0,29.4,-50.3,37.3,-90.7" class="ga_88"/>
<path d="M130.2,896.3V786.7M55,877.9H206.4" class="g6_88"/>
<text x="121" y="1076" class="s11_88">Copyright 2016 Cengage Learning. All Rights Reserved. May not be copied, scanned, or duplicated, in whole or in part. Due to electronic rights, some third party content may be suppressed from the eBook and/or eChapter(s).</text>
<text x="106" y="1087" class="s11_88">Editorial review has deemed that any suppressed content does not materially affect the overall learning experience. Cengage Learning reserves the right to remove additional content at any time if subsequent rights restrictions require it.</text>

</g>

<!-- Any embedded fonts defined here -->
<style type="text/css" ><![CDATA[

@font-face {
	font-family: BeaconDingbatsTypeOne_1hn;
	src: url("fonts/BeaconDingbatsTypeOne_1hn.woff") format("woff");
}

@font-face {
	font-family: MathematicalPiLTStd-1_rr;
	src: url("fonts/MathematicalPiLTStd-1_rr.woff") format("woff");
}

@font-face {
	font-family: MathematicalPiLTStd-3_ry;
	src: url("fonts/MathematicalPiLTStd-3_ry.woff") format("woff");
}

@font-face {
	font-family: MathematicalPiLTStd-5_vb;
	src: url("fonts/MathematicalPiLTStd-5_vb.woff") format("woff");
}

@font-face {
	font-family: MyriadPro-BoldSemiCn_90;
	src: url("fonts/MyriadPro-BoldSemiCn_90.woff") format("woff");
}

@font-face {
	font-family: MyriadPro-Bold_74;
	src: url("fonts/MyriadPro-Bold_74.woff") format("woff");
}

@font-face {
	font-family: MyriadPro-Regular_4i;
	src: url("fonts/MyriadPro-Regular_4i.woff") format("woff");
}

@font-face {
	font-family: MyriadPro-Semibold_49;
	src: url("fonts/MyriadPro-Semibold_49.woff") format("woff");
}

@font-face {
	font-family: TECHMath-Mix_16e;
	src: url("fonts/TECHMath-Mix_16e.woff") format("woff");
}

@font-face {
	font-family: TECHMath-Mix_1hj;
	src: url("fonts/TECHMath-Mix_1hj.woff") format("woff");
}

@font-face {
	font-family: TECHMath-Mix_1ic;
	src: url("fonts/TECHMath-Mix_1ic.woff") format("woff");
}

@font-face {
	font-family: TECHMath-Mix_1ig;
	src: url("fonts/TECHMath-Mix_1ig.woff") format("woff");
}

@font-face {
	font-family: TECHMath-Mix_1ik;
	src: url("fonts/TECHMath-Mix_1ik.woff") format("woff");
}

@font-face {
	font-family: Times-Roman_4n;
	src: url("fonts/Times-Roman_4n.woff") format("woff");
}

@font-face {
	font-family: TimesLTStd-Bold_oh;
	src: url("fonts/TimesLTStd-Bold_oh.woff") format("woff");
}

@font-face {
	font-family: TimesLTStd-Italic_o3;
	src: url("fonts/TimesLTStd-Italic_o3.woff") format("woff");
}

@font-face {
	font-family: TimesLTStd-Roman_143;
	src: url("fonts/TimesLTStd-Roman_143.woff") format("woff");
}

@font-face {
	font-family: UniversalChemicalPi-T_-_;
	src: url("fonts/UniversalChemicalPi-T_-_.woff") format("woff");
}

@font-face {
	font-family: ZapfDingbatsITC_my;
	src: url("fonts/ZapfDingbatsITC_my.woff") format("woff");
}

]]></style>

</svg>
