<?xml version="1.0" encoding="UTF-8" standalone="no"?>
<!DOCTYPE svg PUBLIC "-//W3C//DTD SVG 1.1//EN"
"http://www.w3.org/Graphics/SVG/1.1/DTD/svg11.dtd">


<!-- Page 89 -->
<svg x="0" y="0" width="931" height="1096" viewBox="0 0 931 1096" version="1.1" xmlns="http://www.w3.org/2000/svg" xmlns:xlink="http://www.w3.org/1999/xlink"
style="display: block;margin-left: auto;margin-right: auto;">
<defs>
<clipPath id="c_89"><path d="M0,0H931V1096H0Z"/></clipPath>
<clipPath id="c0_89"><path d="M675,441.4V406.6h28.8v34.8Z"/></clipPath>
<clipPath id="c1_89"><path d="M110,801.7V509.5H295.6V801.7Z"/></clipPath>

<style type="text/css"><![CDATA[
text { white-space: pre; }
path, image { pointer-events: none; }

.s1_89{
font-size: 12.22px;
font-family: MyriadPro-Semibold_49;
fill: #231F20;
}
.s2_89{
font-size: 13.75px;
font-family: MyriadPro-Semibold_49;
fill: #231F20;
}
.s3_89{
font-size: 12.22px;
font-family: MyriadPro-Regular_4i;
fill: #231F20;
}
.s4_89{
font-size: 15.28px;
font-family: MyriadPro-Semibold_49;
fill: #231F20;
}
.s5_89{
font-size: 15.28px;
font-family: TimesLTStd-Roman_143;
fill: #231F20;
}
.s6_89{
font-size: 15.28px;
font-family: TimesLTStd-Italic_o3;
fill: #231F20;
}
.s7_89{
font-size: 9.17px;
font-family: MathematicalPiLTStd-1_rr;
fill: #231F20;
}
.s8_89{
font-size: 9.17px;
font-family: TimesLTStd-Roman_143;
fill: #231F20;
}
.s9_89{
font-size: 15.28px;
font-family: MathematicalPiLTStd-5_vb;
fill: #231F20;
}
.sa_89{
font-size: 15.28px;
font-family: MathematicalPiLTStd-3_ry;
fill: #231F20;
}
.sb_89{
font-size: 9.17px;
font-family: MathematicalPiLTStd-3_ry;
fill: #231F20;
}
.sc_89{
font-size: 14.51px;
font-family: MyriadPro-BlackSemiCn_14j;
fill: #5B2E91;
}
.sd_89{
font-size: 15.28px;
font-family: TimesLTStd-Roman_143;
fill: #EC008C;
}
.se_89{
font-size: 15.28px;
font-family: MathematicalPiLTStd-1_rr;
fill: #EC008C;
}
.sf_89{
font-size: 15.28px;
font-family: TimesLTStd-Italic_o3;
fill: #EC008C;
}
.sg_89{
font-size: 9.17px;
font-family: MathematicalPiLTStd-1_rr;
fill: #EC008C;
}
.sh_89{
font-size: 9.17px;
font-family: TimesLTStd-Roman_143;
fill: #EC008C;
}
.si_89{
font-size: 15.28px;
font-family: MathematicalPiLTStd-3_ry;
fill: #EC008C;
}
.sj_89{
font-size: 16.81px;
font-family: MyriadPro-BoldSemiCn_90;
fill: #EC008C;
}
.sk_89{
font-size: 17.57px;
font-family: MyriadPro-BoldSemiCn_90;
fill: #EC008C;
}
.sl_89{
font-size: 15.28px;
font-family: MathematicalPiLTStd-1_rr;
fill: #231F20;
}
.sm_89{
font-size: 13.75px;
font-family: MyriadPro-Semibold_49;
fill: #EC008C;
}
.sn_89{
font-size: 12.99px;
font-family: ZapfDingbatsITC_my;
fill: #EC008C;
}
.so_89{
font-size: 15.28px;
font-family: MyriadPro-Bold_74;
fill: #00AEEF;
}
.sp_89{
font-size: 15.19px;
font-family: TimesLTStd-Italic_o3;
fill: #231F20;
}
.sq_89{
font-size: 9.12px;
font-family: MathematicalPiLTStd-1_rr;
fill: #231F20;
}
.sr_89{
font-size: 9.12px;
font-family: TimesLTStd-Roman_143;
fill: #231F20;
}
.ss_89{
font-size: 15.19px;
font-family: MathematicalPiLTStd-3_ry;
fill: #231F20;
}
.st_89{
font-size: 15.19px;
font-family: MathematicalPiLTStd-5_vb;
fill: #231F20;
}
.su_89{
font-size: 15.28px;
font-family: UniversalChemicalPi-T_-_;
fill: #231F20;
}
.sv_89{
font-size: 15.28px;
font-family: TimesLTStd-Bold_oh;
fill: #231F20;
}
.sw_89{
font-size: 14.51px;
font-family: MyriadPro-Bold_74;
fill: #231F20;
}
.sx_89{
font-size: 15.28px;
font-family: MyriadPro-Bold_74;
fill: #231F20;
}
.sy_89{
font-size: 12.22px;
font-family: TECHMath-Mix_16a;
fill: #231F20;
}
.sz_89{
font-size: 12.22px;
font-family: TECHMath-Mix_1ic;
fill: #231F20;
}
.s10_89{
font-size: 12.99px;
font-family: TECHMath-Mix_1iq;
fill: #231F20;
}
.s11_89{
font-size: 12.99px;
font-family: TECHMath-Mix_1iu;
fill: #231F20;
}
.s12_89{
font-size: 13.75px;
font-family: TimesLTStd-Roman_143;
fill: #231F20;
}
.s13_89{
font-size: 7.64px;
font-family: Times-Roman_4n;
fill: #000000;
}

.g0_89{
fill: none;
stroke: #00AEEF;
stroke-width: 0.763;
stroke-linecap: butt;
stroke-linejoin: miter;
stroke-miterlimit: 4;
}
.g1_89{
fill: none;
stroke: #EC008C;
stroke-width: 0.763;
stroke-linecap: butt;
stroke-linejoin: miter;
}
.g2_89{
fill: none;
stroke: #00AEEF;
stroke-width: 1.145;
stroke-linecap: butt;
stroke-linejoin: miter;
stroke-miterlimit: 4;
}
.g3_89{
fill: none;
stroke: #00AEEF;
stroke-width: 0.916;
stroke-linecap: butt;
stroke-linejoin: round;
stroke-miterlimit: 3;
}
.g4_89{
fill: #00AEEF;
}
.g5_89{
fill: none;
stroke: #EC008C;
stroke-width: 0.916;
stroke-linecap: butt;
stroke-linejoin: round;
stroke-miterlimit: 3;
}
.g6_89{
fill: #EC008C;
}
.g7_89{
fill: none;
stroke: #231F20;
stroke-width: 0.611;
stroke-linecap: butt;
stroke-linejoin: miter;
stroke-miterlimit: 3;
}
.g8_89{
fill: #231F20;
}
.g9_89{
fill: none;
stroke: #231F20;
stroke-width: 0.763;
stroke-linecap: butt;
stroke-linejoin: miter;
stroke-miterlimit: 3;
}
.ga_89{
fill: none;
stroke: #FFFFFF;
stroke-width: 1.145;
stroke-linecap: butt;
stroke-linejoin: miter;
stroke-miterlimit: 4;
}
.gb_89{
fill: none;
stroke: #FFFFFF;
stroke-width: 1.283;
stroke-linecap: butt;
stroke-linejoin: miter;
stroke-miterlimit: 4;
}
.gc_89{
fill: #C7EAFA;
}
.gd_89{
fill: none;
stroke: #00AEEF;
stroke-width: 0.763;
stroke-linecap: butt;
stroke-linejoin: miter;
stroke-miterlimit: 3;
}

]]></style>

</defs>
<g clip-path="url(#c_89)">
<path d="M0,0
L0,1096
L931,1096
L931,0 Z " 
fill="#FFFFFF" stroke="none"/>
<text x="547" y="64" dx="0,.2,.2,.5,.2,.2,.2" class="s1_89">SECTION</text>
<text x="599" y="64" class="s2_89">1.5</text>
<text x="629" y="64" dx="0,.2,0,0,.1,.1,.1,.1,.1,-.3,.1,.1,.3,.1,.1,.1,.1,.1,.1,.1,.1,.1,.1,0,.1,.1,.1,.2,.1,.1,.1,.1,.1" class="s3_89">Inverse Functions and Logarithms </text>
<text x="862" y="64" class="s4_89">57</text>
<text x="360" y="109" dx="0,0,0,0,0,.7,0,0,0,0,0,0,0,0,0,.7,0,0,0,0,.7,0,0,0,0,.7,0,0" class="s5_89">This deInition says that if </text>
<text x="529" y="109" class="s6_89">f</text>
<text x="540" y="109" class="s5_89">maps </text>
<text x="577" y="109" class="s6_89">x</text>
<text x="589" y="109" class="s5_89">into </text>
<text x="617" y="109" class="s6_89">y</text>
<text x="624" y="109" dx="0,0,.7,0,0,0,0" class="s5_89">, then </text>
<text x="666" y="109" class="s6_89">f</text>
<text x="673" y="103" class="s7_89">2</text>
<text x="680" y="103" class="s8_89">1</text>
<text x="690" y="109" class="s5_89">maps </text>
<text x="727" y="109" class="s6_89">y</text>
<text x="738" y="109" dx="0,0,0,0,0,.7,0,0,0,0" class="s5_89">back into </text>
<text x="800" y="109" class="s6_89">x</text>
<text x="807" y="109" dx="0,0,.7,0,0,0" class="s5_89">. (±f </text>
<text x="837" y="109" class="s6_89">f</text>
<text x="848" y="109" class="s5_89">were </text>
<text x="342" y="128" dx="0,0,0,0,-.2,0,0,0,0,0,0,0,0,0,0,0,-.2,0,0,0,0" class="s5_89">not one-to-one, then </text>
<text x="471" y="128" class="s6_89">f</text>
<text x="478" y="122" class="s7_89">2</text>
<text x="486" y="122" class="s8_89">1</text>
<text x="494" y="128" dx="0,-.2,0,0,0,0,-.2,0,0,0,-.2,0,0,-.2,0,0,0,0,0,0,0,0,-.2,0,0,0,0,0,0,0,0,-.4,0,0,0,-.2,0,0,0,-.4,0,-.2,0,0,0,0,0,0,0,-.2,0,0,-.2,0,0,0,0,0,0,-.2,0" class="s5_89">would not be uniquely deIned.) The arrow diagram in Figure 5 </text>
<text x="342" y="146" class="s5_89">indicates that </text>
<text x="429" y="146" class="s6_89">f</text>
<text x="436" y="140" class="s7_89">2</text>
<text x="444" y="140" class="s8_89">1</text>
<text x="452" y="146" dx="0,0,-.4,-.2,0,0,0,0,0,0,0,0,0,0,0,-.4,0,0,0,0,0,0,0" class="s5_89">reverses the effect of </text>
<text x="585" y="146" class="s6_89">f</text>
<text x="589" y="146" class="s5_89">. Note that</text>
<text x="517" y="200" class="s5_89">domain of </text>
<text x="586" y="200" class="s6_89">f</text>
<text x="593" y="193" class="s7_89">2</text>
<text x="601" y="193" class="s8_89">1</text>
<text x="610" y="200" class="s9_89">-</text>
<text x="627" y="200" class="s5_89">range of </text>
<text x="683" y="200" class="s6_89">f</text>
<text x="529" y="230" class="s5_89">range of </text>
<text x="586" y="230" class="s6_89">f</text>
<text x="593" y="224" class="s7_89">2</text>
<text x="601" y="224" class="s8_89">1</text>
<text x="610" y="230" class="s9_89">-</text>
<text x="627" y="230" class="s5_89">domain of </text>
<text x="695" y="230" class="s6_89">f</text>
<path d="M475.8,171.3c0,0,-3,0,-3,3.1v69.5c0,0,0,3.1,3,3.1H744.9c0,0,3.1,0,3.1,-3.1V174.4c0,0,0,-3.1,-3.1,-3.1H475.8Z" class="g0_89"/>
<text x="360" y="291" dx="0,-.2,.1,.1,.1,-.2,.1,.1,.1,.1,.1,.1,.1,.1,.1,.1,.1,.1,.1,-.5,-.2,.1,.1,.1,.1,.1,.1,.1,.1,.1,.1,.1,.1,.1,.1,.1,.1" class="s5_89">For example, the inverse function of </text>
<text x="590" y="291" class="s6_89">f</text>
<text x="596" y="291" class="sa_89">s</text>
<text x="602" y="291" class="s6_89">x</text>
<text x="609" y="291" class="sa_89">d</text>
<text x="619" y="291" class="s9_89">-</text>
<text x="636" y="291" class="s6_89">x</text>
<text x="644" y="285" class="s8_89">3</text>
<text x="653" y="291" dx="0,.1,.1" class="s5_89">is </text>
<text x="669" y="291" class="s6_89">f</text>
<text x="677" y="285" class="s7_89">2</text>
<text x="684" y="285" class="s8_89">1</text>
<text x="689" y="291" class="sa_89">s</text>
<text x="695" y="291" class="s6_89">x</text>
<text x="701" y="291" class="sa_89">d</text>
<text x="711" y="291" class="s9_89">-</text>
<text x="728" y="291" class="s6_89">x</text>
<text x="737" y="285" class="s8_89">1</text>
<text x="741" y="285" class="sb_89">y</text>
<text x="747" y="285" class="s8_89">3</text>
<text x="755" y="291" dx="0,.1,.1,.1,.1,.1,.1,.1,.1,.1,.1" class="s5_89">because if </text>
<text x="822" y="291" class="s6_89">y</text>
<text x="833" y="291" class="s9_89">-</text>
<text x="850" y="291" class="s6_89">x</text>
<text x="859" y="285" class="s8_89">3</text>
<text x="863" y="291" class="s5_89">, </text>
<text x="346" y="309" dx="0,.1,.1,.1" class="s5_89">then</text>
<text x="513" y="339" class="s6_89">f</text>
<text x="521" y="332" class="s7_89">2</text>
<text x="528" y="332" class="s8_89">1</text>
<text x="533" y="339" class="sa_89">s</text>
<text x="540" y="339" class="s6_89">y</text>
<text x="546" y="339" class="sa_89">d</text>
<text x="556" y="339" class="s9_89">-</text>
<text x="573" y="339" class="s6_89">f</text>
<text x="581" y="332" class="s7_89">2</text>
<text x="588" y="332" class="s8_89">1</text>
<text x="593" y="339" class="sa_89">s</text>
<text x="599" y="339" class="s6_89">x</text>
<text x="607" y="332" class="s8_89">3</text>
<text x="613" y="339" class="sa_89">d</text>
<text x="623" y="339" class="s9_89">-</text>
<text x="640" y="339" class="sa_89">s</text>
<text x="646" y="339" class="s6_89">x</text>
<text x="654" y="332" class="s8_89">3</text>
<text x="660" y="339" class="sa_89">d</text>
<text x="665" y="332" class="s8_89">1</text>
<text x="670" y="332" class="sb_89">y</text>
<text x="675" y="332" class="s8_89">3</text>
<text x="684" y="339" class="s9_89">-</text>
<text x="702" y="339" class="s6_89">x</text>
<text x="360" y="381" dx="0,.9,.3,.7,.7,.7,.7" class="sc_89">CAUTION</text>
<text x="430" y="381" dx="0,0,0,0,0,0,0,0,0,0,0,0,0,-.2,0,0,0,0,0" class="sd_89">Do not mistake the </text>
<text x="549" y="381" class="se_89">2</text>
<text x="562" y="381" class="sd_89">1 in </text>
<text x="591" y="381" class="sf_89">f</text>
<text x="598" y="375" class="sg_89">2</text>
<text x="606" y="375" class="sh_89">1</text>
<text x="615" y="381" dx="0,0,0,0,0,0,0,0,-.2,0,0,0,0,0,0,0,0,-.3,0,0,0" class="sd_89">for an exponent. Thus</text>
<text x="519" y="427" class="sf_89">f</text>
<text x="526" y="421" class="sg_89">2</text>
<text x="534" y="421" class="sh_89">1</text>
<text x="538" y="427" class="si_89">s</text>
<text x="544" y="427" class="sf_89">x</text>
<text x="551" y="427" class="si_89">d</text>
<text x="571" y="427" class="sd_89">does </text>
<text x="603" y="427" class="sf_89">not</text>
<text x="626" y="427" class="sd_89">mean </text>
<text x="685" y="416" class="sd_89">1</text>
<g clip-path="url(#c0_89)">
<path d="M675.4,422.7h28.8" class="g1_89"/>
</g>
<text x="677" y="438" class="sf_89">f</text>
<text x="683" y="438" class="si_89">s</text>
<text x="689" y="438" class="sf_89">x</text>
<text x="696" y="438" class="si_89">d</text>
<text x="342" y="471" class="s5_89">The reciprocal 1</text>
<text x="440" y="471" class="sa_89">y</text>
<text x="448" y="471" class="s6_89">f</text>
<text x="454" y="471" class="sa_89">s</text>
<text x="460" y="471" class="s6_89">x</text>
<text x="467" y="471" class="sa_89">d</text>
<text x="476" y="471" dx="0,0,0,0,0,0,0,0,0,-.4,0,-.4,-.2,0,-.6,0,0,0,0,0,0,0,0,0,0,0,0,0,0,0" class="s5_89">could, however, be written as </text>
<text x="658" y="471" class="sa_89">f</text>
<text x="666" y="471" class="s6_89">f</text>
<text x="673" y="471" class="sa_89">s</text>
<text x="678" y="471" class="s6_89">x</text>
<text x="685" y="471" class="sa_89">dg</text>
<text x="696" y="465" class="s7_89">2</text>
<text x="704" y="465" class="s8_89">1</text>
<text x="708" y="471" class="s5_89">.</text>
<text x="342" y="520" dx="0,.3,.3,.3,.3,.3,.3,.2" class="sj_89">EXAMPLE </text>
<text x="413" y="520" class="sk_89">3</text>
<text x="430" y="520" class="s5_89">±f </text>
<text x="446" y="520" class="s6_89">f</text>
<text x="453" y="520" class="sa_89">s</text>
<text x="458" y="520" class="s5_89">1</text>
<text x="465" y="520" class="sa_89">d</text>
<text x="475" y="520" class="s9_89">-</text>
<text x="492" y="520" class="s5_89">5, </text>
<text x="510" y="520" class="s6_89">f</text>
<text x="516" y="520" class="sa_89">s</text>
<text x="522" y="520" class="s5_89">3</text>
<text x="529" y="520" class="sa_89">d</text>
<text x="539" y="520" class="s9_89">-</text>
<text x="556" y="520" class="s5_89">7, and </text>
<text x="600" y="520" class="s6_89">f</text>
<text x="606" y="520" class="sa_89">s</text>
<text x="611" y="520" class="s5_89">8</text>
<text x="619" y="520" class="sa_89">d</text>
<text x="628" y="520" class="s9_89">-</text>
<text x="646" y="520" class="sl_89">2</text>
<text x="658" y="520" class="s5_89">10, Ind </text>
<text x="711" y="520" class="s6_89">f</text>
<text x="718" y="514" class="s7_89">2</text>
<text x="726" y="514" class="s8_89">1</text>
<text x="731" y="520" class="sa_89">s</text>
<text x="736" y="520" class="s5_89">7</text>
<text x="743" y="520" class="sa_89">d</text>
<text x="748" y="520" class="s5_89">, </text>
<text x="758" y="520" class="s6_89">f</text>
<text x="766" y="514" class="s7_89">2</text>
<text x="773" y="514" class="s8_89">1</text>
<text x="778" y="520" class="sa_89">s</text>
<text x="783" y="520" class="s5_89">5</text>
<text x="790" y="520" class="sa_89">d</text>
<text x="796" y="520" class="s5_89">, and </text>
<text x="344" y="539" class="s6_89">f</text>
<text x="351" y="533" class="s7_89">2</text>
<text x="359" y="533" class="s8_89">1</text>
<text x="363" y="539" class="sa_89">s</text>
<text x="369" y="539" class="sl_89">2</text>
<text x="381" y="539" class="s5_89">10</text>
<text x="397" y="539" class="sa_89">d</text>
<text x="402" y="539" class="s5_89">.</text>
<text x="342" y="566" dx="0,.3,.3,.3,.3,.3,.3,.3,.1" class="sm_89">SOLUTION </text>
<text x="413" y="566" class="s5_89">From the deInition of </text>
<text x="554" y="566" class="s6_89">f</text>
<text x="561" y="560" class="s7_89">2</text>
<text x="569" y="560" class="s8_89">1</text>
<text x="577" y="566" dx="0,0,0,0,0,-.3,-.2" class="s5_89">we have</text>
<text x="495" y="603" class="s6_89">f</text>
<text x="502" y="597" class="s7_89">2</text>
<text x="510" y="597" class="s8_89">1</text>
<text x="514" y="603" class="sa_89">s</text>
<text x="519" y="603" class="s5_89">7</text>
<text x="527" y="603" class="sa_89">d</text>
<text x="537" y="603" class="s9_89">-</text>
<text x="554" y="603" class="s5_89">3 </text>
<text x="592" y="603" class="s5_89">because </text>
<text x="673" y="603" class="s6_89">f</text>
<text x="680" y="603" class="sa_89">s</text>
<text x="685" y="603" class="s5_89">3</text>
<text x="692" y="603" class="sa_89">d</text>
<text x="702" y="603" class="s9_89">-</text>
<text x="719" y="603" class="s5_89">7</text>
<text x="495" y="644" class="s6_89">f</text>
<text x="502" y="638" class="s7_89">2</text>
<text x="510" y="638" class="s8_89">1</text>
<text x="514" y="644" class="sa_89">s</text>
<text x="519" y="644" class="s5_89">5</text>
<text x="527" y="644" class="sa_89">d</text>
<text x="537" y="644" class="s9_89">-</text>
<text x="554" y="644" class="s5_89">1 </text>
<text x="592" y="644" class="s5_89">because </text>
<text x="673" y="644" class="s6_89">f</text>
<text x="680" y="644" class="sa_89">s</text>
<text x="685" y="644" class="s5_89">1</text>
<text x="692" y="644" class="sa_89">d</text>
<text x="702" y="644" class="s9_89">-</text>
<text x="719" y="644" class="s5_89">5</text>
<text x="475" y="685" class="s6_89">f</text>
<text x="482" y="679" class="s7_89">2</text>
<text x="489" y="679" class="s8_89">1</text>
<text x="494" y="685" class="sa_89">s</text>
<text x="499" y="685" class="sl_89">2</text>
<text x="512" y="685" class="s5_89">10</text>
<text x="527" y="685" class="sa_89">d</text>
<text x="537" y="685" class="s9_89">-</text>
<text x="554" y="685" class="s5_89">8 </text>
<text x="592" y="685" class="s5_89">because </text>
<text x="673" y="685" class="s6_89">f</text>
<text x="680" y="685" class="sa_89">s</text>
<text x="685" y="685" class="s5_89">8</text>
<text x="692" y="685" class="sa_89">d</text>
<text x="702" y="685" class="s9_89">-</text>
<text x="719" y="685" class="sl_89">2</text>
<text x="732" y="685" class="s5_89">10</text>
<text x="342" y="725" dx="0,0,0,0,0,0,0,0,0,0,0,0,0,0,0,0,0,0,0,0,0,0,0,0,0,0,0,-.2,0,0,0,0,0,0,0,0,0,0,0,0,0,-.4,0" class="s5_89">The diagram in Figure 6 makes it clear how </text>
<text x="615" y="725" class="s6_89">f</text>
<text x="622" y="719" class="s7_89">2</text>
<text x="629" y="719" class="s8_89">1</text>
<text x="638" y="725" dx="0,0,-.4,-.2,0,0,0,0,0,0,0,0,0,0,0,-.4,0,0,0,0,0,0,0" class="s5_89">reverses the effect of </text>
<text x="771" y="725" class="s6_89">f</text>
<text x="781" y="725" class="s5_89">in this case. </text>
<text x="868" y="725" class="sn_89">■</text>
<text x="360" y="779" class="s5_89">The letter </text>
<text x="423" y="779" class="s6_89">x</text>
<text x="434" y="779" dx="0,0,0,0,0,0,0,0,0,0,0,0,0,0,0,0,0,0,0,0,0,0,0,0,0,0,0,0,0,0,0,0,0,0,0,0,0,0,0,0,0,0,-.4,0,0,0,0,0,0,0,0,0,0,0,0,0,0,0,0,0,0,0,0,0,0,0,0,0,0,0,0,0,0,0" class="s5_89">is traditionally used as the independent variable, so when we concentrate </text>
<text x="342" y="797" class="s5_89">on </text>
<text x="363" y="797" class="s6_89">f</text>
<text x="370" y="791" class="s7_89">2</text>
<text x="378" y="791" class="s8_89">1</text>
<text x="386" y="797" class="s5_89">rather than on </text>
<text x="477" y="797" class="s6_89">f</text>
<text x="481" y="797" dx="0,0,0,0,0,0,0,0,0,0,0,0,0,0,0,-.4,-.2,0,0,0,0,0,0,0,0,0,0,0,0,0,0,0,0,0" class="s5_89">, we usually reverse the roles of </text>
<text x="679" y="797" class="s6_89">x</text>
<text x="690" y="797" class="s5_89">and </text>
<text x="716" y="797" class="s6_89">y</text>
<text x="727" y="797" class="s5_89">in DeInition 2 and write</text>
<text x="365" y="855" class="so_89">3</text>
<path d="M362.7,841.5c0,0,-1.6,0,-1.6,1.5v14.1c0,0,0,1.5,1.6,1.5h14.1c0,0,1.5,0,1.5,-1.5V843c0,0,0,-1.5,-1.5,-1.5H362.7Z" class="g2_89"/>
<text x="518" y="855" class="sp_89">f</text>
<text x="525" y="849" class="sq_89">2</text>
<text x="533" y="849" class="sr_89">1</text>
<text x="537" y="855" class="ss_89">s</text>
<text x="543" y="855" class="sp_89">x</text>
<text x="550" y="855" class="ss_89">d</text>
<text x="560" y="855" class="st_89">-</text>
<text x="577" y="855" class="sp_89">y</text>
<text x="599" y="855" dx="0,-3.1" class="su_89">&amp;?</text>
<text x="644" y="855" class="s6_89">f</text>
<text x="650" y="855" class="sa_89">s</text>
<text x="657" y="855" class="s6_89">y</text>
<text x="664" y="855" class="sa_89">d</text>
<text x="673" y="855" class="s9_89">-</text>
<text x="691" y="855" class="s6_89">x</text>
<path d="M473,822.2c0,0,-3,0,-3,3v48.2c0,0,0,3,3,3H742.1c0,0,3.1,0,3.1,-3V825.2c0,0,0,-3,-3.1,-3H473Z" class="g0_89"/>
<text x="360" y="908" class="s5_89">By substituting for </text>
<text x="479" y="908" class="s6_89">y</text>
<text x="490" y="908" class="s5_89">in DeInition 2 and substituting for </text>
<text x="706" y="908" class="s6_89">x</text>
<text x="716" y="908" class="s5_89">in</text>
<text x="732" y="908" dx="0,0,0,0,0,0,0,0,0,0,0,0,0,0,0,0,0,0,0,0,0,-.4,0" class="s5_89">(3), we get the follow-</text>
<text x="342" y="927" class="s5_89">ing </text>
<text x="365" y="927" class="sv_89">cancellation equations</text>
<text x="510" y="927" class="s5_89">:</text>
<text x="365" y="998" class="so_89">4</text>
<path d="M362.7,985.1c0,0,-1.6,0,-1.6,1.5v14.1c0,0,0,1.6,1.6,1.6h14.1c0,0,1.5,0,1.5,-1.6V986.6c0,0,0,-1.5,-1.5,-1.5H362.7Z" class="g2_89"/>
<text x="509" y="977" class="s6_89">f</text>
<text x="516" y="970" class="s7_89">2</text>
<text x="524" y="970" class="s8_89">1</text>
<text x="528" y="977" class="sa_89">s</text>
<text x="537" y="976" class="s6_89">f</text>
<text x="543" y="976" class="sa_89">s</text>
<text x="549" y="976" class="s6_89">x</text>
<text x="556" y="976" class="sa_89">dd</text>
<text x="570" y="976" class="s9_89">-</text>
<text x="588" y="976" class="s6_89">x</text>
<text x="614" y="976" class="s5_89">for every </text>
<text x="674" y="976" class="s6_89">x</text>
<text x="684" y="976" class="s5_89">in </text>
<text x="700" y="976" class="s6_89">A</text>
<text x="509" y="1009" class="s6_89">f</text>
<text x="515" y="1009" class="sa_89">s</text>
<text x="524" y="1008" class="s6_89">f</text>
<text x="531" y="1002" class="s7_89">2</text>
<text x="538" y="1002" class="s8_89">1</text>
<text x="543" y="1008" class="sa_89">s</text>
<text x="549" y="1008" class="s6_89">x</text>
<text x="556" y="1008" class="sa_89">dd</text>
<text x="570" y="1008" class="s9_89">-</text>
<text x="588" y="1008" class="s6_89">x</text>
<text x="614" y="1008" class="s5_89">for every </text>
<text x="674" y="1008" class="s6_89">x</text>
<text x="684" y="1008" class="s5_89">in </text>
<text x="700" y="1008" class="s6_89">B</text>
<path d="M473,952c0,0,-3,0,-3,3.1v69.5c0,0,0,3.1,3,3.1H742.1c0,0,3.1,0,3.1,-3.1V955.1c0,0,0,-3.1,-3.1,-3.1H473Z" class="g0_89"/>
<text x="108" y="216" dx="0,.3,.3,.3,.3,.3,.1" class="sw_89">FIGURE </text>
<text x="161" y="216" class="sx_89">5 </text>
<text x="193" y="109" class="sy_89">x</text>
<text x="211" y="184" class="sz_89">y</text>
<path d="M195.9,118.1c-8,30.3,1,41.6,12,50" class="g3_89"/>
<path d="M211.8,171.1l-6.7,-2l2.8,-1l.2,-2.9Z" class="g4_89"/>
<path d="M214.2,172.2c8,-30.3,-1,-42,-11.9,-50.3" class="g5_89"/>
<path d="M198.4,118.9l6.6,1.9l-2.7,1.1l-.2,2.9Z" class="g6_89"/>
<text x="110" y="121" class="s10_89">A</text>
<text x="110" y="177" class="s10_89">B</text>
<text x="222" y="150" dx="0,2.2,1.3" class="s10_89">f–!</text>
<text x="180" y="146" class="s10_89">f</text>
<path d="M129.5,172.8H279.4" class="g7_89"/>
<path fill-rule="evenodd" d="M279.4,172.8l-1.6,-2.5l6.5,2.5l-6.5,2.4Z" class="g8_89"/>
<path d="M128,117H277.9" class="g7_89"/>
<path fill-rule="evenodd" d="M277.9,117l-1.6,-2.4l6.5,2.4l-6.5,2.5Z" class="g8_89"/>
<path d="M212.3,172.8c0,-1,.8,-1.7,1.7,-1.7c1,0,1.8,.7,1.8,1.7c0,.9,-.8,1.7,-1.8,1.7c-.9,0,-1.7,-.8,-1.7,-1.7Z" class="g8_89"/>
<path d="M212.3,172.8c0,-1,.8,-1.7,1.7,-1.7c1,0,1.8,.7,1.8,1.7c0,.9,-.8,1.7,-1.8,1.7c-.9,0,-1.7,-.8,-1.7,-1.7Z" class="g9_89"/>
<path d="M194.4,117.3c0,-.9,.8,-1.7,1.8,-1.7c.9,0,1.7,.8,1.7,1.7c0,1,-.8,1.8,-1.7,1.8c-1,0,-1.8,-.8,-1.8,-1.8Z" class="g8_89"/>
<path d="M194.4,117.3c0,-.9,.8,-1.7,1.8,-1.7c.9,0,1.7,.8,1.7,1.7c0,1,-.8,1.8,-1.7,1.8c-1,0,-1.8,-.8,-1.8,-1.8Z" class="g9_89"/>
<path d="M314.7,383.9h13.8V369.4H314.7v14.5Z" class="g6_89"/>
<path d="M321.6,382.5c3.2,0,5.8,-2.6,5.8,-5.8c0,-3.3,-2.6,-5.9,-5.8,-5.9c-3.2,0,-5.8,2.6,-5.8,5.9c0,3.2,2.6,5.8,5.8,5.8Z" class="g6_89"/>
<path d="M321.6,382.5c3.2,0,5.8,-2.6,5.8,-5.8c0,-3.3,-2.6,-5.9,-5.8,-5.9c-3.2,0,-5.8,2.6,-5.8,5.9c0,3.2,2.6,5.8,5.8,5.8Z" class="ga_89"/>
<path d="M325.8,372.5l-8.3,8.3" class="gb_89"/>
<g clip-path="url(#c1_89)">
<path d="M230.8,566.4C240.3,540.3,261,523.8,277,529.6c15.9,5.9,21.2,31.8,11.7,57.9c-9.5,26.2,-30.2,42.6,-46.2,36.8c-16,-5.8,-21.2,-31.7,-11.7,-57.9Z" class="gc_89"/>
<path d="M230.8,566.4C240.3,540.3,261,523.8,277,529.6c15.9,5.9,21.2,31.8,11.7,57.9c-9.5,26.2,-30.2,42.6,-46.2,36.8c-16,-5.8,-21.2,-31.7,-11.7,-57.9Z" class="g3_89"/>
</g>
<text x="256" y="520" class="s10_89">B</text>
<text x="253" y="556" class="s10_89">5</text>
<path d="M245.2,552.8c0,-1,.8,-1.7,1.7,-1.7c1,0,1.7,.7,1.7,1.7c0,.9,-.7,1.7,-1.7,1.7c-.9,0,-1.7,-.8,-1.7,-1.7Z" class="g4_89"/>
<path d="M245.2,552.8c0,-1,.8,-1.7,1.7,-1.7c1,0,1.7,.7,1.7,1.7c0,.9,-.7,1.7,-1.7,1.7c-.9,0,-1.7,-.8,-1.7,-1.7Z" class="gd_89"/>
<text x="253" y="580" class="s11_89">7</text>
<path d="M245.2,577c0,-.9,.8,-1.7,1.7,-1.7c1,0,1.7,.8,1.7,1.7c0,1,-.7,1.8,-1.7,1.8c-.9,0,-1.7,-.8,-1.7,-1.8Z" class="g4_89"/>
<path d="M245.2,577c0,-.9,.8,-1.7,1.7,-1.7c1,0,1.7,.8,1.7,1.7c0,1,-.7,1.8,-1.7,1.8c-.9,0,-1.7,-.8,-1.7,-1.8Z" class="gd_89"/>
<text x="254" y="604" dx="0,.3,-.1" class="s11_89">_10</text>
<path d="M245.2,601.3c0,-1,.8,-1.7,1.7,-1.7c1,0,1.7,.7,1.7,1.7c0,.9,-.7,1.7,-1.7,1.7c-.9,0,-1.7,-.8,-1.7,-1.7Z" class="g4_89"/>
<path d="M245.2,601.3c0,-1,.8,-1.7,1.7,-1.7c1,0,1.7,.7,1.7,1.7c0,.9,-.7,1.7,-1.7,1.7c-.9,0,-1.7,-.8,-1.7,-1.7Z" class="gd_89"/>
<text x="193" y="635" class="s11_89">f</text>
<path d="M178.6,645.1h36.7" class="g5_89"/>
<path d="M220.3,645.1l-6.5,2.4l1.5,-2.4l-1.5,-2.5Z" class="g6_89"/>
<text x="137" y="520" class="s11_89">A</text>
<g clip-path="url(#c1_89)">
<path d="M120.4,573.6c0,-26.8,-22.9,-43.5,15.6,-45.1c18.8,-.7,34,21.8,34,48.6c0,26.7,-15.3,50,-34,48.5c-46.2,-3.9,-15.6,-25.2,-15.6,-52Z" class="gc_89"/>
<path d="M120.4,573.6c0,-26.8,-22.9,-43.5,15.6,-45.1c18.8,-.7,34,21.8,34,48.6c0,26.7,-15.3,50,-34,48.5c-46.2,-3.9,-15.6,-25.2,-15.6,-52Z" class="g3_89"/>
</g>
<path d="M145.7,552.2c27.4,-13.4,59.3,-15.9,93.1,-3.1" class="g5_89"/>
<path d="M243.4,550.9l-6.9,-.1l2.3,-1.7l-.6,-2.9Z" class="g6_89"/>
<path d="M145.7,576.4c27.4,-13.3,59.3,-15.9,93.1,-3.1" class="g5_89"/>
<path d="M243.4,575.1h-6.9l2.3,-1.8l-.6,-2.8Z" class="g6_89"/>
<path d="M145.7,600.7c27.4,-13.4,59.3,-15.9,93.1,-3.1" class="g5_89"/>
<path d="M243.4,599.4l-6.9,-.1l2.3,-1.7l-.6,-2.9Z" class="g6_89"/>
<text x="134" y="556" class="s11_89">1</text>
<path d="M143.7,552.8c0,-1,.8,-1.7,1.7,-1.7c1,0,1.8,.7,1.8,1.7c0,.9,-.8,1.7,-1.8,1.7c-.9,0,-1.7,-.8,-1.7,-1.7Z" class="g4_89"/>
<path d="M143.7,552.8c0,-1,.8,-1.7,1.7,-1.7c1,0,1.8,.7,1.8,1.7c0,.9,-.8,1.7,-1.8,1.7c-.9,0,-1.7,-.8,-1.7,-1.7Z" class="gd_89"/>
<text x="132" y="580" class="s11_89">3</text>
<path d="M143.7,577c0,-.9,.8,-1.7,1.7,-1.7c1,0,1.8,.8,1.8,1.7c0,1,-.8,1.8,-1.8,1.8c-.9,0,-1.7,-.8,-1.7,-1.8Z" class="g4_89"/>
<path d="M143.7,577c0,-.9,.8,-1.7,1.7,-1.7c1,0,1.8,.8,1.8,1.7c0,1,-.8,1.8,-1.8,1.8c-.9,0,-1.7,-.8,-1.7,-1.8Z" class="gd_89"/>
<text x="132" y="604" class="s11_89">8</text>
<path d="M143.7,601.3c0,-1,.8,-1.7,1.7,-1.7c1,0,1.8,.7,1.8,1.7c0,.9,-.8,1.7,-1.8,1.7c-.9,0,-1.7,-.8,-1.7,-1.7Z" class="g4_89"/>
<path d="M143.7,601.3c0,-1,.8,-1.7,1.7,-1.7c1,0,1.8,.7,1.8,1.7c0,.9,-.8,1.7,-1.8,1.7c-.9,0,-1.7,-.8,-1.7,-1.7Z" class="gd_89"/>
<text x="138" y="674" class="s11_89">A</text>
<g clip-path="url(#c1_89)">
<path d="M122.1,727.8c0,-26.8,-22.9,-43.5,15.6,-45c18.8,-.8,34,21.7,34,48.5c0,26.8,-15.3,50,-34,48.5C91.5,776,122.1,754.6,122.1,727.8Z" class="gc_89"/>
<path d="M122.1,727.8c0,-26.8,-22.9,-43.5,15.6,-45c18.8,-.8,34,21.7,34,48.5c0,26.8,-15.3,50,-34,48.5C91.5,776,122.1,754.6,122.1,727.8Z" class="g3_89"/>
</g>
<text x="135" y="710" class="s11_89">1</text>
<path d="M145.2,706.6c0,-.9,.8,-1.7,1.8,-1.7c.9,0,1.7,.8,1.7,1.7c0,1,-.8,1.7,-1.7,1.7c-1,0,-1.8,-.7,-1.8,-1.7Z" class="g4_89"/>
<path d="M145.2,706.6c0,-.9,.8,-1.7,1.8,-1.7c.9,0,1.7,.8,1.7,1.7c0,1,-.8,1.7,-1.7,1.7c-1,0,-1.8,-.7,-1.8,-1.7Z" class="gd_89"/>
<text x="133" y="734" class="s11_89">3</text>
<path d="M145.2,730.9c0,-1,.8,-1.7,1.8,-1.7c.9,0,1.7,.7,1.7,1.7c0,.9,-.8,1.7,-1.7,1.7c-1,0,-1.8,-.8,-1.8,-1.7Z" class="g4_89"/>
<path d="M145.2,730.9c0,-1,.8,-1.7,1.8,-1.7c.9,0,1.7,.7,1.7,1.7c0,.9,-.8,1.7,-1.7,1.7c-1,0,-1.8,-.8,-1.8,-1.7Z" class="gd_89"/>
<text x="133" y="758" class="s11_89">8</text>
<path d="M145.2,755.1c0,-.9,.8,-1.7,1.8,-1.7c.9,0,1.7,.8,1.7,1.7c0,1,-.8,1.7,-1.7,1.7c-1,0,-1.8,-.7,-1.8,-1.7Z" class="g4_89"/>
<path d="M145.2,755.1c0,-.9,.8,-1.7,1.8,-1.7c.9,0,1.7,.8,1.7,1.7c0,1,-.8,1.7,-1.7,1.7c-1,0,-1.8,-.7,-1.8,-1.7Z" class="gd_89"/>
<text x="190" y="789" dx="0,2.3,1" class="s11_89">f–!</text>
<path d="M217,799.3H180.3" class="g5_89"/>
<path d="M175.4,799.3l6.5,-2.5l-1.6,2.5l1.6,2.4Z" class="g6_89"/>
<g clip-path="url(#c1_89)">
<path d="M232.5,720.7C242,694.5,262.7,678,278.7,683.8c15.9,5.9,21.2,31.8,11.7,57.9c-9.5,26.2,-30.2,42.7,-46.2,36.8c-16,-5.8,-21.3,-31.7,-11.7,-57.8Z" class="gc_89"/>
<path d="M232.5,720.7C242,694.5,262.7,678,278.7,683.8c15.9,5.9,21.2,31.8,11.7,57.9c-9.5,26.2,-30.2,42.7,-46.2,36.8c-16,-5.8,-21.3,-31.7,-11.7,-57.8Z" class="g3_89"/>
</g>
<text x="258" y="674" class="s11_89">B</text>
<path d="M249,706.6C213.6,689,179.8,694.5,155.3,703.7" class="g5_89"/>
<path d="M150.7,705.5l5.2,-4.7l-.6,2.9l2.4,1.7Z" class="g6_89"/>
<path d="M249,730.9c-35.4,-17.7,-69.2,-12.2,-93.7,-3" class="g5_89"/>
<path d="M150.7,729.7l5.2,-4.6l-.6,2.8l2.4,1.8Z" class="g6_89"/>
<path d="M249,755.1C213.6,737.5,179.8,743,155.3,752.2" class="g5_89"/>
<path d="M150.7,754l5.2,-4.7l-.6,2.9l2.4,1.7Z" class="g6_89"/>
<text x="255" y="710" class="s11_89">5</text>
<path d="M247.3,706.6c0,-.9,.7,-1.7,1.7,-1.7c.9,0,1.7,.8,1.7,1.7c0,1,-.8,1.7,-1.7,1.7c-1,0,-1.7,-.7,-1.7,-1.7Z" class="g4_89"/>
<path d="M247.3,706.6c0,-.9,.7,-1.7,1.7,-1.7c.9,0,1.7,.8,1.7,1.7c0,1,-.8,1.7,-1.7,1.7c-1,0,-1.7,-.7,-1.7,-1.7Z" class="gd_89"/>
<text x="254" y="734" class="s11_89">7</text>
<path d="M247.3,730.9c0,-1,.7,-1.7,1.7,-1.7c.9,0,1.7,.7,1.7,1.7c0,.9,-.8,1.7,-1.7,1.7c-1,0,-1.7,-.8,-1.7,-1.7Z" class="g4_89"/>
<path d="M247.3,730.9c0,-1,.7,-1.7,1.7,-1.7c.9,0,1.7,.7,1.7,1.7c0,.9,-.8,1.7,-1.7,1.7c-1,0,-1.7,-.8,-1.7,-1.7Z" class="gd_89"/>
<text x="255" y="758" dx="0,.3,-.1" class="s11_89">_10</text>
<path d="M247.3,755.1c0,-.9,.7,-1.7,1.7,-1.7c.9,0,1.7,.8,1.7,1.7c0,1,-.8,1.7,-1.7,1.7c-1,0,-1.7,-.7,-1.7,-1.7Z" class="g4_89"/>
<path d="M247.3,755.1c0,-.9,.7,-1.7,1.7,-1.7c.9,0,1.7,.8,1.7,1.7c0,1,-.8,1.7,-1.7,1.7c-1,0,-1.7,-.7,-1.7,-1.7Z" class="gd_89"/>
<text x="108" y="826" dx="0,.3,.3,.3,.3,.3,.1" class="sw_89">FIGURE </text>
<text x="161" y="826" class="sx_89">6 </text>
<text x="108" y="843" dx="0,0,0,0,0,0,-.5,-.2,0,0,0,0,0,0,0,0,0,0,0,0,0,0,0,-.3,-.2,0,0,0,0,0,0,0,0,0,0,0,0" class="s12_89">The inverse function reverses inputs </text>
<text x="108" y="860" class="s12_89">and outputs.</text>
<text x="121" y="1076" class="s13_89">Copyright 2016 Cengage Learning. All Rights Reserved. May not be copied, scanned, or duplicated, in whole or in part. Due to electronic rights, some third party content may be suppressed from the eBook and/or eChapter(s).</text>
<text x="106" y="1087" class="s13_89">Editorial review has deemed that any suppressed content does not materially affect the overall learning experience. Cengage Learning reserves the right to remove additional content at any time if subsequent rights restrictions require it.</text>

</g>

<!-- Any embedded fonts defined here -->
<style type="text/css" ><![CDATA[

@font-face {
	font-family: MathematicalPiLTStd-1_rr;
	src: url("fonts/MathematicalPiLTStd-1_rr.woff") format("woff");
}

@font-face {
	font-family: MathematicalPiLTStd-3_ry;
	src: url("fonts/MathematicalPiLTStd-3_ry.woff") format("woff");
}

@font-face {
	font-family: MathematicalPiLTStd-5_vb;
	src: url("fonts/MathematicalPiLTStd-5_vb.woff") format("woff");
}

@font-face {
	font-family: MyriadPro-BlackSemiCn_14j;
	src: url("fonts/MyriadPro-BlackSemiCn_14j.woff") format("woff");
}

@font-face {
	font-family: MyriadPro-BoldSemiCn_90;
	src: url("fonts/MyriadPro-BoldSemiCn_90.woff") format("woff");
}

@font-face {
	font-family: MyriadPro-Bold_74;
	src: url("fonts/MyriadPro-Bold_74.woff") format("woff");
}

@font-face {
	font-family: MyriadPro-Regular_4i;
	src: url("fonts/MyriadPro-Regular_4i.woff") format("woff");
}

@font-face {
	font-family: MyriadPro-Semibold_49;
	src: url("fonts/MyriadPro-Semibold_49.woff") format("woff");
}

@font-face {
	font-family: TECHMath-Mix_16a;
	src: url("fonts/TECHMath-Mix_16a.woff") format("woff");
}

@font-face {
	font-family: TECHMath-Mix_1ic;
	src: url("fonts/TECHMath-Mix_1ic.woff") format("woff");
}

@font-face {
	font-family: TECHMath-Mix_1iq;
	src: url("fonts/TECHMath-Mix_1iq.woff") format("woff");
}

@font-face {
	font-family: TECHMath-Mix_1iu;
	src: url("fonts/TECHMath-Mix_1iu.woff") format("woff");
}

@font-face {
	font-family: Times-Roman_4n;
	src: url("fonts/Times-Roman_4n.woff") format("woff");
}

@font-face {
	font-family: TimesLTStd-Bold_oh;
	src: url("fonts/TimesLTStd-Bold_oh.woff") format("woff");
}

@font-face {
	font-family: TimesLTStd-Italic_o3;
	src: url("fonts/TimesLTStd-Italic_o3.woff") format("woff");
}

@font-face {
	font-family: TimesLTStd-Roman_143;
	src: url("fonts/TimesLTStd-Roman_143.woff") format("woff");
}

@font-face {
	font-family: UniversalChemicalPi-T_-_;
	src: url("fonts/UniversalChemicalPi-T_-_.woff") format("woff");
}

@font-face {
	font-family: ZapfDingbatsITC_my;
	src: url("fonts/ZapfDingbatsITC_my.woff") format("woff");
}

]]></style>

</svg>
