<?xml version="1.0" encoding="UTF-8" standalone="no"?>
<!DOCTYPE svg PUBLIC "-//W3C//DTD SVG 1.1//EN"
"http://www.w3.org/Graphics/SVG/1.1/DTD/svg11.dtd">


<!-- Page 9 -->
<svg x="0" y="0" width="931" height="1096" viewBox="0 0 931 1096" version="1.1" xmlns="http://www.w3.org/2000/svg" xmlns:xlink="http://www.w3.org/1999/xlink"
style="display: block;margin-left: auto;margin-right: auto;">
<defs>
<clipPath id="c_9"><path d="M0,0H931V1096H0Z"/></clipPath>
<clipPath id="c0_9"><path d="M109,924V761.2H245.6V924Z"/></clipPath>

<style type="text/css"><![CDATA[
text { white-space: pre; }
path, image { pointer-events: none; }

.s1_9{
font-size: 12.22px;
font-family: MyriadPro-Regular_4i;
fill: #231F20;
}
.s2_9{
font-size: 15.28px;
font-family: MyriadPro-SemiboldSemiCn_4e;
fill: #231F20;
}
.s3_9{
font-size: 16.74px;
font-family: MyriadPro-BoldSemiCn_90;
fill: #231F20;
}
.s4_9{
font-size: 16.04px;
font-family: MyriadPro-SemiCn_95;
fill: #231F20;
}
.s5_9{
font-size: 16.81px;
font-family: MyriadPro-SemiboldSemiCn_4e;
fill: #5B2E91;
}
.s6_9{
font-size: 15.28px;
font-family: MyriadPro-SemiCn_95;
fill: #231F20;
}
.s7_9{
font-size: 15.28px;
font-family: MyriadPro-SemiCn_8y;
fill: #00A54F;
}
.s8_9{
font-size: 7.64px;
font-family: Times-Roman_4n;
fill: #000000;
}

.g0_9{
fill: #D0D8DE;
}
.g1_9{
fill: none;
stroke: #0084B7;
stroke-width: 0.609;
stroke-linecap: round;
stroke-linejoin: round;
stroke-miterlimit: 4;
}
.g2_9{
fill: none;
stroke: #0084B7;
stroke-width: 0.305;
stroke-linecap: round;
stroke-linejoin: round;
stroke-miterlimit: 4;
}
.g3_9{
fill: #9EACB5;
}
.g4_9{
fill: #83A3B3;
}
.g5_9{
fill: #B1C7D3;
}
.g6_9{
fill: #8CA0AA;
}

]]></style>

</defs>
<g clip-path="url(#c_9)">
<path d="M0,0
L0,1096
L931,1096
L931,0 Z " 
fill="#FFFFFF" stroke="none"/>
<text x="772" y="64" dx="0,0,.1,.1,0,.1,.1,.1,.1" class="s1_9">Contents </text>
<text x="864" y="64" class="s2_9">vii</text>
<text x="301" y="110" class="s3_9">10.5</text>
<text x="351" y="110" dx="0,-.2,0,0,0,0,.3,.1,0,.2,0,0,0,0,0,4.9,0,0" class="s4_9">Conic Sections 674</text>
<text x="300" y="133" class="s3_9">10.6</text>
<text x="351" y="133" dx="0,-.2,0,0,0,0,.3,.1,0,.2,0,0,0,0,0,.3,0,0,.3,-.4,0,0,0,0,.3,-.2,0,0,-.2,0,0,0,-.1,-.1,0,0,4.8,0,0" class="s4_9">Conic Sections in Polar Coordinates 682</text>
<text x="351" y="159" dx="0,0,0,0,0,0,0,4.9,0,0" class="s4_9">Review 689</text>
<text x="301" y="184" dx="0,-.2,-.2,0,0,0,0,0,0,.3,0,0,0,0,5.2,0,0" class="s5_9">Problems Plus 692</text>
<image preserveAspectRatio="none" x="224" y="226" width="677" height="38" xlink:href="9/img/1.png"/>
<text x="300" y="292" class="s3_9">11.1</text>
<text x="351" y="292" dx="0,.1,0,0,0,0,0,-.1,0" class="s4_9">Sequences</text>
<text x="425" y="292" class="s6_9">694</text>
<text x="363" y="314" dx="0,0,0,0,0,-.1,-.1,-.1,0,.4,0,.3,-.2,-.2,0,0,0,.2,0,4.6" class="s7_9">Laboratory Project •</text>
<text x="491" y="314" dx="0,-.2,0,-.1,0,0,0,0,0,.3,.1,0,0,0,0,0,-.1,0,0,4.6,0,0" class="s6_9">Logistic Sequences 707</text>
<text x="300" y="337" class="s3_9">11.2</text>
<text x="351" y="337" dx="0,.1,0,0,0,0,0,4.9,0,0" class="s4_9">Series 707</text>
<text x="300" y="360" class="s3_9">11.3</text>
<text x="351" y="360" dx="0,-.1,0,0,.3,.1,-.1,-.1,0,-.1,-.1,0,0,-.3,-1.1,0,0,0,.3,0,0,0,.3,0,0,0,0,0,-.1,-.1,0,0,.3,0,0,.3,0,0,0,0,4.8,0,0" class="s4_9">The Integral Test and Estimates of Sums 719</text>
<text x="300" y="383" class="s3_9">11.4</text>
<text x="351" y="383" dx="0,-.1,0,0,.3,-.2,0,0,0,0,0,0,0,0,0,-.3,-1.1,0,0,0,0,4.9,0,0" class="s4_9">The Comparison Tests 727</text>
<text x="300" y="406" class="s3_9">11.5</text>
<text x="351" y="406" dx="0,0,0,-.1,0,0,0,-.1,0,0,0,0,.3,.1,0,0,0,0,0,4.9,0,0" class="s4_9">Alternating Series 732</text>
<text x="300" y="429" class="s3_9">11.6</text>
<text x="351" y="429" dx="0,0,0,0,0,0,0,-.1,0,.3,-.2,0,-.2,-.2,0,-.2,0,0,0,-.1,0,.3,0,0,0,.3,0,0,0,.3,.2,-.1,0,0,0,.3,0,0,0,.3,0,0,0,0,-.3,-1.1,0,0,0,0,4.8,0,0" class="s4_9">Absolute Convergence and the Ratio and Root Tests 737</text>
<text x="300" y="452" class="s3_9">11.7</text>
<text x="351" y="452" dx="0,-.1,0,-.1,-.1,-.1,0,0,0,.3,-.2,0,0,-.3,-1.1,0,0,0,0,0,0,.3,.1,0,0,0,0,0,4.9,0,0" class="s4_9">Strategy for Testing Series 744</text>
<text x="300" y="475" class="s3_9">11.8</text>
<text x="351" y="475" dx="0,-.4,-.1,-.2,0,0,.3,.1,0,0,0,0,0,4.9,0,0" class="s4_9">Power Series 746</text>
<text x="300" y="498" class="s3_9">11.9</text>
<text x="351" y="498" dx="0,0,0,0,-.2,0,0,0,-.1,0,-.1,0,0,0,0,0,.3,0,0,.3,-.5,0,0,.2,0,0,0,0,0,.3,0,0,.3,-.4,-.1,-.2,0,0,.3,.1,0,0,0,0,0,4.8,0,0" class="s4_9">Representations of Functions as Power Series 752</text>
<text x="300" y="521" class="s3_9">11.10</text>
<text x="351" y="521" dx="0,-1,-.1,0,0,0,0,.3,0,0,0,.3,.1,0,0,0,0,0,0,0,0,.3,.1,0,0,0,0,0,4.9,0,0" class="s4_9">Taylor and Maclaurin Series 759</text>
<text x="363" y="544" dx="0,0,0,0,0,-.1,-.1,-.1,0,.4,0,.3,-.2,-.2,0,0,0,.2,0,4.6" class="s7_9">Laboratory Project •</text>
<text x="491" y="544" dx="0,0,0,.3,0,0,0,0,0,-.2,0,.3,0,0,0,0,0,4.6,0,0" class="s6_9">An Elusive Limit 773</text>
<text x="363" y="567" dx="0,-.3,0,0,0,0,0,0,.3,-.2,-.2,0,0,0,.2,0,4.6" class="s7_9">Writing Project •</text>
<text x="470" y="567" dx="0,0,-.1,0,.3,0,0,0,-.1,0,0,.3,0,0,0,-.1,-.1,-.2,0,-.2,0,0,.3,0,0,0,.3,0,0,0,0,0,0,0,0,.3,.1,0,0,0,0,0,4.6,0,0" class="s6_9">How Newton Discovered the Binomial Series 773</text>
<text x="300" y="589" class="s3_9">11.11</text>
<text x="351" y="589" dx="0,0,0,0,0,0,0,-.1,0,0,0,0,0,.3,0,0,-.3,-1,-.1,0,0,0,0,.3,-.4,0,0,0,0,0,0,0,0,0,0,4.9,0,0" class="s4_9">Applications of Taylor Polynomials 774</text>
<text x="363" y="612" dx="0,0,0,0,0,0,0,0,.3,-.2,-.2,0,0,0,.2,0,4.6" class="s7_9">Applied Project •</text>
<text x="473" y="612" dx="0,.2,0,0,0,-.1,0,0,0,0,.3,0,-.2,0,0,.3,0,0,0,.3,-.1,0,0,0,0,4.6,0,0" class="s6_9">Radiation from the Stars 783</text>
<text x="351" y="638" dx="0,0,0,0,0,0,0,4.9,0,0" class="s4_9">Review 784</text>
<text x="301" y="664" dx="0,-.2,-.2,0,0,0,0,0,0,.3,0,0,0,0,5.2,0,0" class="s5_9">Problems Plus 787</text>
<image preserveAspectRatio="none" x="224" y="706" width="677" height="38" xlink:href="9/img/2.png"/>
<text x="300" y="771" class="s3_9">12.1</text>
<text x="351" y="771" dx="0,-.1,0,-.2,0,.4,0,0,0,0,0,0,0,0,0,0,0,0,.3,-.2,0,0,-.2,0,0,0,-.1,-.1,0,.3,-.1,-.1,0,-.1,0,0" class="s4_9">Three-Dimensional Coordinate Systems</text>
<text x="602" y="771" class="s6_9">792</text>
<text x="300" y="794" class="s3_9">12.2</text>
<text x="351" y="794" dx="0,-.5,0,.2,-.1,0,0,0,4.9,0,0" class="s4_9">Vectors 798</text>
<text x="300" y="817" class="s3_9">12.3</text>
<text x="351" y="817" dx="0,-.1,0,0,.3,.1,0,0,.3,-.2,-.2,0,0,0,.2,0,4.9,0,0" class="s4_9">The Dot Product 807</text>
<text x="300" y="840" class="s3_9">12.4</text>
<text x="351" y="840" dx="0,-.1,0,0,.3,0,-.2,0,0,0,.3,-.2,-.2,0,0,0,.2,0,4.9,0,0" class="s4_9">The Cross Product 814</text>
<text x="363" y="863" dx="0,0,0,0,-.1,-.1,-.2,0,.4,0,.3,-.2,-.2,0,0,0,.2,0,4.6" class="s7_9">Discovery Project •</text>
<text x="483" y="863" dx="0,-.1,0,0,.3,.1,0,0,0,0,0,.4,0,.3,0,0,.3,0,-.3,-1,0,0,-.1,0,0,0,0,-.2,0,0,4.6,0,0" class="s6_9">The Geometry of a Tetrahedron 823</text>
<text x="300" y="886" class="s3_9">12.5</text>
<text x="351" y="886" dx="0,-.1,0,0,-.1,0,0,0,0,0,.3,0,0,.3,0,0,0,0,0,.3,0,0,0,.3,-.1,0,0,0,0,0,4.8,0,0" class="s4_9">Equations of Lines and Planes 823</text>
<text x="363" y="909" dx="0,0,0,0,0,-.1,-.1,-.1,0,.4,0,.3,-.2,-.2,0,0,0,.2,0,4.6" class="s7_9">Laboratory Project •</text>
<text x="491" y="909" dx="0,-.2,0,0,0,0,0,0,.3,0,0,.3,0,0,.3,-.4,0,0,0,0,0,.2,0,0,-.2,0,4.6,0,0" class="s6_9">Putting 3D in Perspective 833</text>
<text x="300" y="932" class="s3_9">12.6</text>
<text x="351" y="932" dx="0,-.4,0,0,0,0,0,0,0,0,.3,0,0,0,.3,.1,0,0,0,0,0,0,.3,0,0,.5,0,0,-.1,0,0,4.9,0,0" class="s4_9">Cylinders and Quadric Surfaces 834</text>
<text x="351" y="958" dx="0,0,0,0,0,0,0,4.9,0,0" class="s4_9">Review 841</text>
<text x="301" y="984" dx="0,-.2,-.2,0,0,0,0,0,0,.3,0,0,0,0,5.2,0,0" class="s5_9">Problems Plus 844</text>
<image preserveAspectRatio="none" x="109" y="279" width="175" height="167" xlink:href="9/img/3.png"/>
<g clip-path="url(#c0_9)">
<path d="M195.4,869.4c-20,12,-29.8,26.2,-27.6,38.1c2.9,14.8,23.5,17.6,46.3,6.1c1.3,-.7,2.5,-1.3,3.8,-2.1c19.5,-11.7,30.2,-27.1,26.7,-38.2c-4,-11.4,-22.2,-15,-40.7,-8c-3,1.2,-5.8,2.6,-8.5,4.1Z" class="g0_9"/>
<path d="M195.4,869.4c-20,12,-29.8,26.2,-27.6,38.1c2.9,14.8,23.5,17.6,46.3,6.1c1.3,-.7,2.5,-1.3,3.8,-2.1c19.5,-11.7,30.2,-27.1,26.7,-38.2c-4,-11.4,-22.2,-15,-40.7,-8c-3,1.2,-5.8,2.6,-8.5,4.1" class="g1_9"/>
</g>
<path d="M213.2,885.9c0,-.1,0,-.2,-.1,-.3" class="g2_9"/>
<path d="M203.2,894.3l11.6,-5l.2,-.2l-4,-7.2c-1,-1.5,-4.3,-1.5,-7.4,.1c-3.1,1.5,-4.8,4,-3.9,5.6l3.5,6.7Z" class="g3_9"/>
<path d="M203.2,894.3l11.6,-5l.2,-.2l-4,-7.2c-1,-1.5,-4.3,-1.5,-7.4,.1c-3.1,1.5,-4.8,4,-3.9,5.6l3.5,6.7" class="g2_9"/>
<path d="M203.2,894.2c.5,2.2,4.5,2.4,7.9,.8c.1,0,.2,0,.2,-.1c3,-1.5,4.5,-4,3.7,-5.8c-.5,-1.4,-3.3,-1.8,-6.6,-.9c-.4,.2,-.9,.3,-1.2,.5c-2.9,1.7,-4.4,3.8,-4,5.5Z" class="g4_9"/>
<path d="M203.2,894.2c.5,2.2,4.5,2.4,7.9,.8c.1,0,.2,0,.2,-.1c3,-1.5,4.5,-4,3.7,-5.8c-.5,-1.4,-3.3,-1.8,-6.6,-.9c-.4,.2,-.9,.3,-1.2,.5c-2.9,1.7,-4.4,3.8,-4,5.5Z" class="g2_9"/>
<path d="M203.1,894.1l-3.4,-6.7m15.2,1.6l-4,-7.3m.1,.1c-1,-1.5,-4.3,-1.5,-7.4,.1c-3.1,1.6,-4.8,4.1,-3.9,5.6m-25.6,11.1c5.2,9.6,22.4,10.1,40,.9m0,0c14.7,-7.9,22.5,-20.1,18.9,-29.7m8,8.4c-1.4,-9.6,-16.5,-13.1,-33.8,-7.7c-3.2,1,-6.4,2.3,-9.4,3.8m0,0c-17.8,10.6,-26.9,23.4,-24.6,34.4m0,0c2.1,11.8,20.9,13.6,42,4.1c.9,-.4,1.9,-.7,2.7,-1.3c16.8,-11,26.1,-24.3,23.1,-33.3M215,889c-.4,-1.5,-3.4,-1.8,-6.7,-.8c-.4,.1,-.8,.2,-1.2,.4m0,0c-2.9,1.7,-4.4,3.8,-4,5.5m0,0c1,2,4.5,2.4,7.9,.9c.1,-.1,.2,-.1,.3,-.1m0,0c2.9,-1.6,4.4,-4.1,3.7,-5.9m-9,-3.4c-3.1,1.7,-4.7,3.8,-4.5,5.4m11.3,-5.9c-.9,-.8,-3.4,-.8,-5.7,0c-.4,.2,-.7,.4,-1.1,.5m-36.9,10c-.6,-.7,-.8,-1.7,-.5,-2.5c.5,0,1,.2,1.4,.6m1.6,-3c-.5,-.7,-.8,-1.5,-.7,-2.4c.7,0,1.3,.3,1.7,.9m-1.7,-.9l1.3,-5.8c.1,-.5,.5,-.8,1,-.7c.3,.3,.6,.7,.6,1.2l-1.2,6.2m-4,3.9l.3,-4.5c.1,-.6,.6,-1.1,1.2,-1.1c.3,.2,.5,.5,.5,.8l-.4,4.9m4,-6.1c-.6,-.6,-.8,-1.5,-.8,-2.3c.7,-.1,1.4,.3,1.7,.9m-1.7,-.9l1.3,-5.4c0,-.3,.2,-.6,.5,-.7c.2,-.2,.5,-.2,.8,-.1c.5,.3,.6,.8,.5,1.4l-1.4,5.7m2,-1.9c-.6,-.6,-.8,-1.5,-.6,-2.2c.7,-.1,1.5,.2,1.8,.9m-1.8,-.9l1.5,-6c.1,-.4,.6,-.7,1.1,-.7c.5,.3,.8,.8,.7,1.4l-1.4,6.1m2,-2c-.6,-.6,-.8,-1.6,-.4,-2.4c.4,-.2,.8,-.1,1.2,.1c.4,.2,.7,.5,.8,1M180,878l1.4,-5.6c.3,-.6,.8,-1,1.4,-1.1c.5,.4,.8,1.1,.7,1.8l-1.1,5.6m1.9,-1.7c-.6,-.4,-.8,-1.3,-.4,-2c.4,-.2,.8,-.2,1.2,0c.4,.1,.7,.4,.8,.8m-2,-.8l1.3,-5.6c.2,-.5,.7,-.9,1.3,-.9c.5,.3,.8,.7,.9,1.2l-1.3,6m2.5,-1.9c-.5,-.4,-.7,-1.1,-.5,-1.7c.4,-.3,.8,-.3,1.2,-.2c.4,.2,.7,.5,.8,.9m-2,-.7l1,-5.5c.2,-.6,.7,-.9,1.2,-.9c.5,.2,.9,.7,.9,1.2l-.8,5.7m2.6,-1.8c-.5,-.3,-.7,-1.1,-.5,-1.7c.4,-.2,.8,-.3,1.2,-.1c.4,.1,.7,.4,.8,.8m-2,-.7l.7,-5.5c.2,-.6,.5,-1.2,1.1,-1.5c.5,.4,.8,1,.8,1.7l-.3,5.8m2.9,-1.5c-.4,-.3,-.5,-.8,-.4,-1.2c.3,-.3,.7,-.4,1.1,-.3c.4,.1,.7,.4,.9,.7m-2,-.4l-.3,-4.8c.2,-.5,.5,-.9,1,-1.2c.4,.1,.7,.4,.9,.8l.9,5.4m2.5,-1.1c-.3,-.5,-.1,-1.2,.3,-1.5c.3,-.1,.6,-.1,.9,.1c.2,.2,.4,.4,.5,.7m-1.8,.4l-1,-5.2c-.1,-.5,.2,-1,.7,-1.1c.5,.1,.8,.5,.9,.9l1.2,5m3.4,-1.2c-.1,-.2,-.2,-.4,-.1,-.6c.1,-.3,.2,-.5,.4,-.6c.5,0,1,.3,1.2,.8m-1.6,.1l-1.8,-4.2c-.2,-.4,-.1,-.8,.2,-1.1c.5,.1,.9,.4,1.1,.8l1.9,4.1m3.8,-.6c-.2,-.2,-.2,-.4,-.2,-.6c.1,-.2,.2,-.4,.5,-.5c.2,-.1,.5,0,.8,.1c.2,.2,.3,.5,.4,.7m-1.5,.3l-2.7,-4c-.1,-.4,0,-.8,.3,-1.1c.4,0,.7,.2,.9,.5l2.8,3.8m3.4,0c-.2,-.1,-.2,-.4,-.1,-.6c0,-.2,.2,-.4,.4,-.5c.7,-.1,1.3,.3,1.4,1m-1.7,.1l-3.4,-3.5c-.2,-.4,-.2,-.9,.1,-1.2c.5,-.2,1,0,1.4,.4l3.3,3.6m3.2,.4c-.1,-.1,-.2,-.4,-.1,-.6c0,-.2,.2,-.4,.4,-.5c.7,-.1,1.4,.4,1.6,1.1m-1.9,0l-3.9,-4c-.1,-.2,-.2,-.5,-.1,-.7c0,-.3,.2,-.5,.4,-.6c.3,-.2,.7,-.1,.9,.2l4.2,4.4m3.7,.9c-.4,-.6,-.5,-1.3,-.2,-1.9c1.1,.4,1.9,1.2,2.3,2.3m-2.1,-.4l-5.2,-3.6c-.5,-.3,-.6,-.9,-.5,-1.4c.4,.1,.7,.2,.9,.3l4.6,2.8m-5.5,-3.1L202.9,843.5m15.3,12.9L206.8,846.3m7.1,11L198.5,838m11.6,19.7L200,839.8m5.7,18.7l-8,-23m.3,25.4l-.4,-27.6m4.3,26.1L198,836.6m-3.7,25.5l1.4,-26.5m-5.4,30.1L193,839.8m-6.5,28.7l3.7,-24.4m-7.4,27.2l2.9,-18.2m-6.6,21.8l3.3,-15.1M176,878.6l4.1,-14.1m-6.9,17.3l3.9,-11.4M183,786.8c-9.5,-1.4,-21,1,-30.8,6.5m0,0c-21.4,14.5,-28.6,31.1,-18.3,41.9m46.2,-48.7L179,797.9m-2.8,-11.5l-1.3,18.4m-2.5,-18.1l-.9,22.1m-3.3,-21.5l.3,24.9m-4,-24l1.2,26.9m-5.9,-25.3l3.5,27.5m-7.4,-25.9l4.9,28.3m-8.6,-26.4l6.3,28.4M148.4,796l8.1,27.6M144.6,799l10.2,26M141.5,801.8l11.1,25M138.8,804.5L151,828M136.5,807.2l12.1,22M134.4,809.9l12.1,20.2m-14,-17.2l12.4,17.8m-14,-14.5l12.3,15.2M129.8,819.8L141.7,832m-12.4,-8.3l10.5,9.1m-10.3,-6.1l8.6,6.8M130.5,830l5.8,4.2m33.8,53.3l1.5,-5.2m-3.7,17.2l.6,-5.3m.7,-6.2l.2,-2m69.8,-19.8l-27.1,-16" class="g1_9"/>
<g clip-path="url(#c0_9)">
<path d="M110.3,845.8c-4.3,5.6,5.1,19.8,20.7,34c16.2,14.8,31.5,21.1,34.9,14c2.8,-5.7,-5.2,-20.2,-20.2,-34.3C130.4,845.3,115.2,839.4,110.3,845.8Z" class="g5_9"/>
<path d="M110.3,845.8c-4.3,5.6,5.1,19.8,20.7,34c16.2,14.8,31.5,21.1,34.9,14c2.8,-5.7,-5.2,-20.2,-20.2,-34.3C130.4,845.3,115.2,839.4,110.3,845.8Zm26.5,34.5c.9,-1,-.3,-3.7,-2.8,-6.2c-2.4,-2.4,-5.2,-3.7,-6.1,-2.7c-1,.9,.3,3.7,2.7,6.1c2.5,2.5,5.3,3.7,6.2,2.8Zm-8.9,-8.9l7.1,-7.2m1.8,16.1l7.2,-7.2M114.5,850.7c-4.3,6.5,5.1,16.8,16.8,29.2c12.1,12.7,25.9,17,29.1,11.4c2.8,-4.8,-7.8,-20.9,-20.8,-31.6c-11.1,-9.1,-22.3,-13.4,-25.1,-9Zm51.4,43.1c2.8,-5.7,-5.6,-19.9,-20.2,-34.3m-25.8,-17l7.2,-2.1c.4,.5,.6,1.1,.5,1.7l-6.3,1.8m5.8,-3.5L240.4,802.2m-112.8,39L240.1,804.8m-1.1,3.6c4.2,-9.7,-1.4,-23.1,-14.6,-35.1m0,0c-14.5,-13.4,-30.1,-15.7,-37.5,-5.4m-56.5,74.2l109,-34.6M136.2,843.8L239.1,808.2M140.4,846L239,808.4m-95.3,40.4l74.7,-32.6m-91.9,29.7c.2,-.4,.5,-.7,1,-.7c.4,-.1,.8,.1,1,.5c.2,.4,.2,.9,-.1,1.2m-1.1,-1.7l7.5,-2.1c.6,-.1,1.1,.1,1.4,.6c.2,.5,.1,1.1,-.2,1.4l-7,2.1m1.8,1c.1,-.4,.5,-.8,1,-.8c.4,0,.9,.2,1,.7c.2,.4,.1,.9,-.3,1.2m-.9,-1.9l7.8,-2.1c.4,.1,.7,.4,.8,.8c.2,.4,.1,.8,-.1,1.1l-7.2,2.4m2.5,1.7c.3,-.6,1,-1,1.8,-1m0,0c.5,.8,.5,1.7,.2,2.5m-.2,-2.5l5.4,-1.8c.4,-.2,.8,-.1,1.1,.3c.2,.6,0,1.4,-.6,1.8l-5.7,2.2m2,1.6c.3,-.8,1,-1.2,1.8,-1.1c.4,.7,.4,1.6,-.1,2.3m.1,-2.3l6,-2.3c.2,0,.4,0,.5,0c.2,.1,.3,.3,.3,.4c.2,.6,0,1.2,-.4,1.6l-6.5,2.6m1.9,1.6c.3,-.7,1.1,-1.2,1.9,-1.1c.4,.8,.4,1.9,0,2.7m0,-2.7l5.3,-2.6c.3,-.1,.6,0,.8,.2c.5,.7,.4,1.5,-.1,2.1l-6,3m6.1,-5.1l85.5,-44.3m-88.5,42l80.1,-38.8M144,873.1c.9,-.9,-.3,-3.7,-2.8,-6.1c-2.5,-2.5,-5.2,-3.7,-6.2,-2.8" class="g1_9"/>
</g>
<path d="M144,873.1l-7.2,7.2l-9,-8.8l.1,-.1l7.1,-7.2Z" class="g3_9"/>
<path d="M144,873.1l-7.2,7.2l-9,-8.8l.1,-.1l7.1,-7.2" class="g2_9"/>
<path d="M144,873.1c.9,-.9,-.3,-3.7,-2.8,-6.1c-2.5,-2.5,-5.2,-3.7,-6.2,-2.8Z" class="g3_9"/>
<path d="M144,873.1c.9,-.9,-.3,-3.7,-2.8,-6.1c-2.5,-2.5,-5.2,-3.7,-6.2,-2.8" class="g2_9"/>
<path d="M119.1,852.1c-1.8,3.7,1.4,10.9,8.7,19.3m-8.7,-19.3c.8,-1.2,1.9,-2,3.3,-2.4m35.5,31.4c.3,1.7,.3,3.2,0,4.4m-21,-5.4c10.2,7.7,18.3,9.8,21,5.4M146.6,860.3c.1,-.6,.8,-1,1.5,-.8c.4,.2,.6,.7,.6,1.1c0,.5,-.2,1,-.6,1.2m-.8,-2.3l5.4,-3.3c.5,-.2,1.1,-.2,1.5,.1c.2,.8,0,1.6,-.6,2.2l-5.5,3.3m6.1,-5.5l43.6,-26.9m-47.9,34.1c.3,-.7,1.1,-1.1,1.8,-.8c.3,.4,.5,.9,.3,1.4c-.1,.5,-.4,.9,-.9,1.1m-.3,-2.6l5.3,-3.2c.4,-.2,.9,-.2,1.2,0c.3,.6,.2,1.3,-.2,1.9l-6,3.9m6.2,-5.8l43.9,-31.7m-82.5,15.7c.2,-.5,.6,-.9,1.2,-.9c.4,.3,.6,.8,.4,1.2m3.5,-.4l6,-1.8c.4,.1,.6,.4,.7,.8c0,.4,-.2,.8,-.5,1l-5.3,1.9m-2.1,-.8c.1,-.6,.6,-1,1.2,-1.1c.5,.4,.7,1.1,.6,1.7m28.1,21.8c.4,-.7,1.2,-1.1,2,-.9c.5,.8,.4,1.9,-.4,2.6m-.5,-2.6l4.8,-3.2c.4,-.2,.9,-.2,1.3,.1c.2,.4,.1,1,-.3,1.4l-5.3,4.3m1.1,1.3c.1,-.4,.3,-.7,.7,-.9c.4,-.1,.8,-.1,1.2,.1c.6,.8,.4,2,-.5,2.7m-.7,-2.8l4.1,-3.2c.4,-.3,1.1,-.4,1.6,-.3c.3,.6,.3,1.2,0,1.8l-5,4.5m1.3,1.5c0,-.4,.3,-.7,.7,-.8c.3,-.1,.7,-.1,1,.1c.5,.9,.3,1.9,-.5,2.5m-.9,-2.4l4.4,-4c.5,-.3,1.1,-.4,1.7,-.2c.4,.6,.3,1.3,-.3,1.8l-4.9,4.8m.6,.9c.3,-.7,1.1,-1.1,1.9,-.9c.4,.4,.5,1,.4,1.5c-.1,.6,-.5,1,-1,1.3m-.9,-2.5l4.2,-3.8c.4,-.4,1.1,-.6,1.6,-.4c.4,.6,.2,1.4,-.2,1.9l-4,4.2m.2,2.1c.1,-.4,.3,-.7,.6,-.8c.3,-.2,.7,-.1,1,.1c.3,.4,.5,.9,.4,1.4c0,.6,-.3,1.1,-.7,1.4m-.9,-2.8l4.4,-4.4c.3,-.5,.9,-.7,1.4,-.6c.4,.6,.3,1.3,-.1,1.8l-4.5,5.7m.4,1.5c0,-.3,.3,-.6,.6,-.8c.3,-.1,.7,-.1,1,0c.4,.5,.5,1.1,.4,1.7c-.2,.6,-.5,1.1,-1,1.4m-.7,-2.9l4.1,-4.7c.2,-.3,.6,-.5,1,-.4c.5,.6,.5,1.5,0,2.1l-3.9,5.4m-.2,1.2c.1,-.3,.3,-.6,.6,-.8c.3,-.1,.7,-.1,1,0c.6,1.1,.2,2.4,-.9,3.1m-.4,-2.9l4.2,-5.6c.2,-.3,.6,-.5,1,-.4c.5,.6,.4,1.5,0,2.1l-4.1,6.2m1.5,-13.7L195.4,836m-29.5,35.1l37.4,-44.5m-39,41.8l38.5,-41.6m-41.2,38.6l40.6,-38.3m-42.5,35.7l41.9,-35.3m-35.5,60.8c-.1,-.4,.2,-.7,.5,-.8c.3,-.1,.7,0,.9,.3c.3,1.1,-.1,2.3,-1.1,2.8m0,-2.9l4,-5.7c.3,-.5,.8,-.8,1.3,-.8c.1,.5,.1,1,-.2,1.4l-4.1,6.8m-1.5,4.4l3.5,-7.8m-.1,-9.1L195.4,836m-23.7,45.2l18.5,-37m-19,34.6l16.4,-29.5m-70.7,-6.9l6.2,-1.9c.1,-.1,.2,-.1,.2,0c.1,0,.1,.1,.1,.2l-6.3,2.5m-1.6,0c.4,-.3,.9,-.6,1.4,-.8c.2,0,.4,.2,.5,.4c0,.2,-.1,.3,-.3,.4m6.3,-2.5L240.2,799.2M116.9,842.4L239.6,795.6M113.4,843.7l125,-51.5m-88.6,36.5l86.9,-40.2m-87.8,40.6l85.4,-44.6m-82,42.8L231.7,781m-79.5,46.3l76.5,-49.8m-76.1,49.6L225.1,774m-73.8,53.8l70.3,-56.9m-65.4,52.9l61.4,-55.9m-51.9,47.2L214,765.6m-44.9,46l41.5,-47.7m-36.2,41.7l32.1,-43.1m-31,41.5l27.7,-42.3m-27.9,42.6l24.6,-42.8m-20.6,35.8l17.9,-35.6m-16.9,33.7l14.3,-33.1m-13,30.1l10.7,-29.2m-10.8,29.5l8.8,-28.3m-8.5,27.1l6.5,-25.4m-5.9,23.2l4.5,-21.4" class="g1_9"/>
<path d="M130.6,877.5c2.5,2.5,5.3,3.7,6.2,2.8c.9,-1,-.3,-3.7,-2.8,-6.2c-2.4,-2.4,-5.2,-3.7,-6.1,-2.7c-1,.9,.3,3.7,2.7,6.1Z" class="g6_9"/>
<path d="M130.6,877.5c2.5,2.5,5.3,3.7,6.2,2.8c.9,-1,-.3,-3.7,-2.8,-6.2c-2.4,-2.4,-5.2,-3.7,-6.1,-2.7c-1,.9,.3,3.7,2.7,6.1" class="g2_9"/>
<path d="M139.4,877.6c1,-.9,-.2,-3.7,-2.7,-6.1c-2.5,-2.5,-5.2,-3.7,-6.2,-2.8" class="g1_9"/>
<text x="121" y="1076" class="s8_9">Copyright 2016 Cengage Learning. All Rights Reserved. May not be copied, scanned, or duplicated, in whole or in part. Due to electronic rights, some third party content may be suppressed from the eBook and/or eChapter(s).</text>
<text x="106" y="1087" class="s8_9">Editorial review has deemed that any suppressed content does not materially affect the overall learning experience. Cengage Learning reserves the right to remove additional content at any time if subsequent rights restrictions require it.</text>

</g>

<!-- Any embedded fonts defined here -->
<style type="text/css" ><![CDATA[

@font-face {
	font-family: MyriadPro-BoldSemiCn_90;
	src: url("fonts/MyriadPro-BoldSemiCn_90.woff") format("woff");
}

@font-face {
	font-family: MyriadPro-Regular_4i;
	src: url("fonts/MyriadPro-Regular_4i.woff") format("woff");
}

@font-face {
	font-family: MyriadPro-SemiCn_8y;
	src: url("fonts/MyriadPro-SemiCn_8y.woff") format("woff");
}

@font-face {
	font-family: MyriadPro-SemiCn_95;
	src: url("fonts/MyriadPro-SemiCn_95.woff") format("woff");
}

@font-face {
	font-family: MyriadPro-SemiboldSemiCn_4e;
	src: url("fonts/MyriadPro-SemiboldSemiCn_4e.woff") format("woff");
}

@font-face {
	font-family: Times-Roman_4n;
	src: url("fonts/Times-Roman_4n.woff") format("woff");
}

]]></style>

</svg>
