<?xml version="1.0" encoding="UTF-8" standalone="no"?>
<!DOCTYPE svg PUBLIC "-//W3C//DTD SVG 1.1//EN"
"http://www.w3.org/Graphics/SVG/1.1/DTD/svg11.dtd">


<!-- Page 90 -->
<svg x="0" y="0" width="931" height="1096" viewBox="0 0 931 1096" version="1.1" xmlns="http://www.w3.org/2000/svg" xmlns:xlink="http://www.w3.org/1999/xlink"
style="display: block;margin-left: auto;margin-right: auto;">
<defs>
<clipPath id="c_90"><path d="M0,0H931V1096H0Z"/></clipPath>
<clipPath id="c0_90"><path d="M516.5,832.4V815.2h82.3v17.2Z"/></clipPath>
<clipPath id="c1_90"><path d="M516.5,892V874.8h82.3V892Z"/></clipPath>
<clipPath id="c2_90"><path d="M487,936.3V919.1H598.1v17.2Z"/></clipPath>

<style type="text/css"><![CDATA[
text { white-space: pre; }
path, image { pointer-events: none; }

.s1_90{
font-size: 15.28px;
font-family: MyriadPro-Semibold_49;
fill: #231F20;
}
.s2_90{
font-size: 12.22px;
font-family: MyriadPro-Semibold_49;
fill: #231F20;
}
.s3_90{
font-size: 13.75px;
font-family: MyriadPro-Semibold_49;
fill: #231F20;
}
.s4_90{
font-size: 12.22px;
font-family: MyriadPro-Regular_4i;
fill: #231F20;
}
.s5_90{
font-size: 15.28px;
font-family: TimesLTStd-Roman_143;
fill: #231F20;
}
.s6_90{
font-size: 15.28px;
font-family: TimesLTStd-Italic_o3;
fill: #231F20;
}
.s7_90{
font-size: 9.17px;
font-family: MathematicalPiLTStd-1_rr;
fill: #231F20;
}
.s8_90{
font-size: 9.17px;
font-family: TimesLTStd-Roman_143;
fill: #231F20;
}
.s9_90{
font-size: 13.25px;
font-family: TECHMath-Mix_16a;
fill: #231F20;
}
.sa_90{
font-size: 13.25px;
font-family: TECHMath-Mix_1av;
fill: #231F20;
}
.sb_90{
font-size: 13.25px;
font-family: TECHMath-Mix_1jb;
fill: #231F20;
}
.sc_90{
font-size: 15.28px;
font-family: MathematicalPiLTStd-3_ry;
fill: #231F20;
}
.sd_90{
font-size: 15.28px;
font-family: MathematicalPiLTStd-5_vb;
fill: #231F20;
}
.se_90{
font-size: 9.17px;
font-family: MathematicalPiLTStd-3_ry;
fill: #231F20;
}
.sf_90{
font-size: 15.28px;
font-family: MyriadPro-Bold_74;
fill: #00AEEF;
}
.sg_90{
font-size: 15.28px;
font-family: TimesLTStd-BoldItalic_12r;
fill: #00AEEF;
}
.sh_90{
font-size: 14.51px;
font-family: MyriadPro-Bold_74;
fill: #231F20;
}
.si_90{
font-size: 16.81px;
font-family: MyriadPro-BoldSemiCn_90;
fill: #EC008C;
}
.sj_90{
font-size: 17.57px;
font-family: MyriadPro-BoldSemiCn_90;
fill: #EC008C;
}
.sk_90{
font-size: 15.28px;
font-family: MathematicalPiLTStd-1_rr;
fill: #231F20;
}
.sl_90{
font-size: 13.75px;
font-family: MyriadPro-Semibold_49;
fill: #EC008C;
}
.sm_90{
font-size: 15.28px;
font-family: BeaconDingbatsTypeOne_12w;
fill: #231F20;
}
.sn_90{
font-size: 7.33px;
font-family: TimesLTStd-Roman_143;
fill: #231F20;
}
.so_90{
font-size: 12.99px;
font-family: ZapfDingbatsITC_my;
fill: #EC008C;
}
.sp_90{
font-size: 15.28px;
font-family: MyriadPro-Bold_74;
fill: #231F20;
}
.sq_90{
font-size: 13.75px;
font-family: TimesLTStd-Roman_143;
fill: #231F20;
}
.sr_90{
font-size: 12.22px;
font-family: TimesLTStd-Italic_o3;
fill: #231F20;
}
.ss_90{
font-size: 7.33px;
font-family: MathematicalPiLTStd-1_rr;
fill: #231F20;
}
.st_90{
font-size: 7.64px;
font-family: Times-Roman_4n;
fill: #000000;
}

.g0_90{
fill: none;
stroke: #EC008C;
stroke-width: 0.935;
stroke-linecap: butt;
stroke-linejoin: round;
stroke-miterlimit: 3;
}
.g1_90{
fill: #EC008C;
}
.g2_90{
fill: #FFFFFF;
}
.g3_90{
fill: none;
stroke: #00AEEF;
stroke-width: 1.145;
stroke-linecap: butt;
stroke-linejoin: miter;
stroke-miterlimit: 4;
}
.g4_90{
fill: none;
stroke: #00AEEF;
stroke-width: 0.763;
stroke-linecap: butt;
stroke-linejoin: miter;
stroke-miterlimit: 4;
}
.g5_90{
fill: none;
stroke: #231F20;
stroke-width: 0.763;
stroke-linecap: butt;
stroke-linejoin: miter;
}

]]></style>

</defs>
<g clip-path="url(#c_90)">
<path d="M0,0
L0,1096
L931,1096
L931,0 Z " 
fill="#FFFFFF" stroke="none"/>
<text x="53" y="64" class="s1_90">58</text>
<text x="126" y="64" dx="0,.2,.2,.2,.2,.2,.2,.1" class="s2_90">CHAPTER </text>
<text x="180" y="64" class="s3_90">1</text>
<text x="200" y="64" dx="0,-.3,.1,.1,.3,.1,.1,.1,.1,.1,.1,.1,.1,.1,.1,.2,.1,.1,.1,.1" class="s4_90">Functions and Models</text>
<text x="287" y="109" class="s5_90">The Irst cancellation equation says that if we start with </text>
<text x="629" y="109" class="s6_90">x</text>
<text x="636" y="109" class="s5_90">, apply </text>
<text x="684" y="109" class="s6_90">f</text>
<text x="688" y="109" class="s5_90">, and then apply </text>
<text x="791" y="109" class="s6_90">f</text>
<text x="799" y="103" class="s7_90">2</text>
<text x="806" y="103" class="s8_90">1</text>
<text x="811" y="109" class="s5_90">, </text>
<text x="287" y="128" dx="0,0,0,0,0,0,0,-.4,-.2,0,0,0,0,0,0,0,0,0" class="s5_90">we arrive back at </text>
<text x="395" y="128" class="s6_90">x</text>
<text x="402" y="128" dx="0,0,0,0,0,0,0,0,0,0,0,0,0,0,0,0,0,0,0,0,0,0,0,0,0,0,0,0,0,0,0,0,0,0,0,0,0,0,0,0,0,0,0,0,0,0,0,0,0,0,0,0,0,0,0,0,0,0,-.3,0,0,0,0" class="s5_90">, where we started (see the machine diagram in Figure 7). Thus </text>
<text x="793" y="128" class="s6_90">f</text>
<text x="801" y="122" class="s7_90">2</text>
<text x="808" y="122" class="s8_90">1</text>
<text x="287" y="146" class="s5_90">undoes what </text>
<text x="370" y="146" class="s6_90">f</text>
<text x="380" y="146" dx="0,0,0,0,0,0,-.3,0,0,0,0,0,0,0,0,0,0,0,0,0,0,0,0,0,0,0,0,0,0,0,0,0,0,0,0,0" class="s5_90">does. The second equation says that </text>
<text x="605" y="146" class="s6_90">f</text>
<text x="615" y="146" class="s5_90">undoes what </text>
<text x="698" y="146" class="s6_90">f</text>
<text x="705" y="140" class="s7_90">2</text>
<text x="713" y="140" class="s8_90">1</text>
<text x="721" y="146" class="s5_90">does.</text>
<image x="426" y="170" width="90" height="44" xlink:href="90/shade/1.png"/>
<image x="426" y="172" width="90" height="39" xlink:href="90/shade/2.png"/>
<image x="594" y="170" width="90" height="44" xlink:href="90/shade/3.png"/>
<image x="594" y="173" width="90" height="39" xlink:href="90/shade/4.png"/>
<path d="M404.4,192.8h28" class="g0_90"/>
<path d="M437.5,192.8l-6.7,2.5l1.6,-2.5l-1.6,-2.5Z" class="g1_90"/>
<path d="M506.5,192.8h23.3" class="g0_90"/>
<path d="M534.9,192.8l-6.6,2.5l1.5,-2.5l-1.5,-2.5Z" class="g1_90"/>
<path d="M577,192.3h23.4" class="g0_90"/>
<path d="M605.4,192.3l-6.6,2.5l1.6,-2.5l-1.6,-2.5Z" class="g1_90"/>
<text x="391" y="196" class="s9_90">x</text>
<text x="712" y="196" class="s9_90">x</text>
<text x="467" y="196" class="sa_90">f</text>
<text x="545" y="195" class="sb_90">ƒ</text>
<text x="630" y="196" dx="0,2,1.1" class="sb_90">f–!</text>
<path d="M674.4,192.3h28" class="g0_90"/>
<path d="M707.5,192.3l-6.6,2.5l1.5,-2.5l-1.5,-2.5Z" class="g1_90"/>
<text x="287" y="251" dx="0,-.2,0,0,-.1,-.2,0,0,0,0,0,0,0,-.1,0,0" class="s5_90">For example, if </text>
<text x="386" y="251" class="s6_90">f</text>
<text x="392" y="251" class="sc_90">s</text>
<text x="398" y="251" class="s6_90">x</text>
<text x="405" y="251" class="sc_90">d</text>
<text x="415" y="251" class="sd_90">-</text>
<text x="432" y="251" class="s6_90">x</text>
<text x="440" y="245" class="s8_90">3</text>
<text x="445" y="251" dx="0,0,-.1,0,0,0,0" class="s5_90">, then </text>
<text x="485" y="251" class="s6_90">f</text>
<text x="492" y="245" class="s7_90">2</text>
<text x="499" y="245" class="s8_90">1</text>
<text x="504" y="251" class="sc_90">s</text>
<text x="510" y="251" class="s6_90">x</text>
<text x="517" y="251" class="sc_90">d</text>
<text x="526" y="251" class="sd_90">-</text>
<text x="544" y="251" class="s6_90">x</text>
<text x="552" y="245" class="s8_90">1</text>
<text x="556" y="245" class="se_90">y</text>
<text x="562" y="245" class="s8_90">3</text>
<text x="570" y="251" dx="0,0,0,0,-.1,0,0,-.1,0,0,0,-.1,0,0,0,0,0,0,0,0,0,0,0,0,-.1,0,0,0,0,0,0,0,0,0,-.1,0,0,0,0,0" class="s5_90">and so the cancellation equations become</text>
<text x="483" y="292" class="s6_90">f</text>
<text x="490" y="286" class="s7_90">2</text>
<text x="498" y="286" class="s8_90">1</text>
<text x="503" y="292" class="sc_90">s</text>
<text x="511" y="292" class="s6_90">f</text>
<text x="517" y="292" class="sc_90">s</text>
<text x="523" y="292" class="s6_90">x</text>
<text x="530" y="292" class="sc_90">dd</text>
<text x="545" y="292" class="sd_90">-</text>
<text x="562" y="292" class="sc_90">s</text>
<text x="568" y="292" class="s6_90">x</text>
<text x="576" y="286" class="s8_90">3</text>
<text x="582" y="292" class="sc_90">d</text>
<text x="587" y="286" class="s8_90">1</text>
<text x="592" y="286" class="se_90">y</text>
<text x="597" y="286" class="s8_90">3</text>
<text x="606" y="292" class="sd_90">-</text>
<text x="624" y="292" class="s6_90">x</text>
<text x="483" y="331" class="s6_90">f</text>
<text x="490" y="331" class="sc_90">s</text>
<text x="498" y="331" class="s6_90">f</text>
<text x="505" y="325" class="s7_90">2</text>
<text x="513" y="325" class="s8_90">1</text>
<text x="517" y="331" class="sc_90">s</text>
<text x="523" y="331" class="s6_90">x</text>
<text x="530" y="331" class="sc_90">dd</text>
<text x="545" y="330" class="sd_90">-</text>
<text x="562" y="330" class="sc_90">s</text>
<text x="568" y="330" class="s6_90">x</text>
<text x="576" y="324" class="s8_90">1</text>
<text x="581" y="324" class="se_90">y</text>
<text x="586" y="324" class="s8_90">3</text>
<text x="592" y="330" class="sc_90">d</text>
<text x="597" y="324" class="s8_90">3</text>
<text x="606" y="330" class="sd_90">-</text>
<text x="624" y="330" class="s6_90">x</text>
<text x="287" y="369" dx="0,0,0,0,0,0,-.6,0,0,0,0,0,0,0,0,0,-.6,0,0,0,0,0,0,-.5,0,0,0,-.5,0,0,0,0,-.5,0,0,0,-.5,0,0,0,0,-.5,0,0,0,0,0,0,0,0,-.5,0,0,0,-.5,0,0,0,-.5,0,0,0,0,-.5,0,0,0,0,-.5,0,0,0,0,0,0,0,0,-.5,0,0,0,0,0,0,-.5,0,0,0,0" class="s5_90">These equations simply say that the cube function and the cube root function cancel each </text>
<text x="287" y="387" class="s5_90">other when applied in succession.</text>
<text x="305" y="406" dx="0,0,-.4,0,.5,0,0,0,-.8,0,.5,0,0,0,.5,0,-.4,0,.5,0,0,.5,0,0,0,0,0,0,0,.5,0,-.6,-.2,0,0,0,0,.5,0,0,0,0,0,0,0,0,0,0,.5,0,0,.5,0,0,.5,0,-.3,-.2,0,.5,0,.5,0,0,0,0,0,0,0,0" class="s5_90">Now let’s see how to compute inverse functions. ±f we have a function </text>
<text x="744" y="406" class="s6_90">y</text>
<text x="755" y="406" class="sd_90">-</text>
<text x="772" y="406" class="s6_90">f</text>
<text x="779" y="406" class="sc_90">s</text>
<text x="785" y="406" class="s6_90">x</text>
<text x="792" y="406" class="sc_90">d</text>
<text x="801" y="406" class="s5_90">and </text>
<text x="287" y="424" dx="0,0,0,0,-.3,0,0,0,0,-.3,0,0,-.3,0,0,0,-.2,0,-.3,0,0,0,0,-.3,0,0,0,0,0,0,0,0,-.3,0,0,0" class="s5_90">are able to solve this equation for </text>
<text x="492" y="424" class="s6_90">x</text>
<text x="503" y="424" dx="0,0,0,-.3,0,0,0,0,0,-.3,0,0" class="s5_90">in terms of </text>
<text x="572" y="424" class="s6_90">y</text>
<text x="579" y="424" dx="0,0,-.3,0,0,0,0,-.3,0,0,0,0,0,0,0,0,0,-.3,0,0,-.3,0,0,0,0,0,0,0,0,0,-.3,0,-.3,0,0,-.3,0,0,0,0" class="s5_90">, then according to DeInition 2 we must </text>
<text x="287" y="442" dx="0,0,-.3,-.2,0" class="s5_90">have </text>
<text x="319" y="442" class="s6_90">x</text>
<text x="330" y="442" class="sd_90">-</text>
<text x="347" y="442" class="s6_90">f</text>
<text x="355" y="436" class="s7_90">2</text>
<text x="362" y="436" class="s8_90">1</text>
<text x="367" y="442" class="sc_90">s</text>
<text x="373" y="442" class="s6_90">y</text>
<text x="380" y="442" class="sc_90">d</text>
<text x="385" y="442" dx="0,0,-.6,0,0,-.6,0,0,-.6,-.2,0,0,0,-.6,0,0,-.6,0,0,0,0,-.6,0,0,0,-.6,0,0,0,0,0,0,0,0,0,0,0,-.6,-.4,0,0,0,0,0,0,0" class="s5_90">. ±f we want to call the independent variable </text>
<text x="652" y="442" class="s6_90">x</text>
<text x="659" y="442" dx="0,0,-.6,0,0,-.6,0,0,0,0,-.6,0,0,0,0,0,0,0,0,0,0,0" class="s5_90">, we then interchange </text>
<text x="791" y="442" class="s6_90">x</text>
<text x="801" y="442" class="s5_90">and </text>
<text x="287" y="461" class="s6_90">y</text>
<text x="298" y="461" dx="0,0,0,0,0,0,0,0,-.4,-.2,0,0,0,0,0,0,0,0,0,0,0,0,0,0,0,0,0" class="s5_90">and arrive at the equation </text>
<text x="457" y="461" class="s6_90">y</text>
<text x="468" y="461" class="sd_90">-</text>
<text x="485" y="461" class="s6_90">f</text>
<text x="493" y="454" class="s7_90">2</text>
<text x="500" y="454" class="s8_90">1</text>
<text x="505" y="461" class="sc_90">s</text>
<text x="511" y="461" class="s6_90">x</text>
<text x="517" y="461" class="sc_90">d</text>
<text x="523" y="461" class="s5_90">.</text>
<path d="M290.7,493.5c0,0,-3.1,0,-3.1,3.1V631.8c0,0,0,3,3.1,3H820.1c0,0,3,0,3,-3V496.6c0,0,0,-3.1,-3,-3.1Z" class="g2_90"/>
<text x="306" y="517" class="sf_90">5</text>
<path d="M303.8,504.4c0,0,-1.5,0,-1.5,1.5v14.2c0,0,0,1.5,1.5,1.5H318c0,0,1.5,0,1.5,-1.5V505.9c0,0,0,-1.5,-1.5,-1.5H303.8Z" class="g3_90"/>
<text x="327" y="519" dx="0,0,-.1,0,0,-.1,0,0,-.3,0,0,0,0,0,0,0,0,0,-.3,-.2,0,0,0,0,0,-.4,0,0,.2,0,0,0,0,0,0,0,0,0,0,.1,0,.5,0,-.1,.2,.2,.1,0,0,0,-.4,0,0,.2,0,0,0,0" class="sf_90">How to Find the Inverse Function of a One-to-One Function </text>
<text x="731" y="519" class="sg_90">f</text>
<text x="301" y="545" dx="0,.3,.3,.3,.1,0" class="sh_90">STEP 1</text>
<text x="360" y="545" class="s5_90">Write </text>
<text x="399" y="545" class="s6_90">y</text>
<text x="411" y="545" class="sd_90">-</text>
<text x="428" y="545" class="s6_90">f</text>
<text x="434" y="545" class="sc_90">s</text>
<text x="440" y="545" class="s6_90">x</text>
<text x="447" y="545" class="sc_90">d</text>
<text x="452" y="545" class="s5_90">.</text>
<text x="301" y="571" dx="0,.3,.3,.3,.1,0" class="sh_90">STEP 2</text>
<text x="361" y="571" dx="0,0,0,0,-.2,0,0,0,0,0,0,0,0,0,0,0,0,0,0,0,0,0,0,0" class="s5_90">Solve this equation for </text>
<text x="503" y="571" class="s6_90">x</text>
<text x="514" y="571" class="s5_90">in terms of </text>
<text x="585" y="571" class="s6_90">y</text>
<text x="595" y="571" class="s5_90">(if possible).</text>
<text x="301" y="597" dx="0,.3,.3,.3,.1,0" class="sh_90">STEP 3</text>
<text x="360" y="597" dx="0,-1.2,0,0,-.2,0,0,0,0,0,0" class="s5_90">To express </text>
<text x="432" y="597" class="s6_90">f</text>
<text x="439" y="590" class="s7_90">2</text>
<text x="446" y="590" class="s8_90">1</text>
<text x="455" y="597" class="s5_90">as a function of </text>
<text x="554" y="597" class="s6_90">x</text>
<text x="561" y="597" class="s5_90">, interchange </text>
<text x="644" y="597" class="s6_90">x</text>
<text x="654" y="597" class="s5_90">and </text>
<text x="681" y="597" class="s6_90">y</text>
<text x="687" y="597" class="s5_90">. </text>
<text x="360" y="615" class="s5_90">The resulting equation is </text>
<text x="516" y="615" class="s6_90">y</text>
<text x="527" y="615" class="sd_90">-</text>
<text x="545" y="615" class="s6_90">f</text>
<text x="552" y="609" class="s7_90">2</text>
<text x="560" y="609" class="s8_90">1</text>
<text x="564" y="615" class="sc_90">s</text>
<text x="570" y="615" class="s6_90">x</text>
<text x="577" y="615" class="sc_90">d</text>
<text x="582" y="615" class="s5_90">.</text>
<path d="M290.7,493.5c0,0,-3.1,0,-3.1,3.1V631.8c0,0,0,3,3.1,3H820.1c0,0,3,0,3,-3V496.6c0,0,0,-3.1,-3,-3.1H290.7Z" class="g4_90"/>
<text x="287" y="681" dx="0,.3,.3,.3,.3,.3,.3,.2" class="si_90">EXAMPLE </text>
<text x="358" y="681" class="sj_90">4</text>
<text x="375" y="681" dx="0,0,0,0,0,0,0,0,0,0,0,-.6,-.2,0,0,0,0,0,0,0,0,0,0,0,0,0,0,0,0" class="s5_90">Find the inverse function of </text>
<text x="550" y="681" class="s6_90">f</text>
<text x="556" y="681" class="sc_90">s</text>
<text x="562" y="681" class="s6_90">x</text>
<text x="569" y="681" class="sc_90">d</text>
<text x="579" y="681" class="sd_90">-</text>
<text x="596" y="681" class="s6_90">x</text>
<text x="604" y="674" class="s8_90">3</text>
<text x="613" y="681" class="sk_90">1</text>
<text x="631" y="681" class="s5_90">2.</text>
<text x="287" y="708" dx="0,.3,.3,.3,.3,.3,.3,.3,.1" class="sl_90">SOLUTION </text>
<text x="358" y="708" class="s5_90">According to</text>
<text x="442" y="708" class="s5_90">(5) we Irst write</text>
<text x="520" y="740" class="s6_90">y</text>
<text x="531" y="740" class="sd_90">-</text>
<text x="548" y="740" class="s6_90">x</text>
<text x="557" y="734" class="s8_90">3</text>
<text x="566" y="740" class="sk_90">1</text>
<text x="583" y="740" class="s5_90">2</text>
<text x="287" y="768" dx="0,0,0,0,0,0,0,0,0,0,0,0,-.2,0,0,0,0,0,0,0,0,0,0,0,0,0,0,0,0,0,0,0" class="s5_90">Then we solve this equation for </text>
<text x="484" y="768" class="s6_90">x</text>
<text x="491" y="768" class="s5_90">:</text>
<text x="513" y="791" class="s6_90">x</text>
<text x="521" y="784" class="s8_90">3</text>
<text x="530" y="791" class="sd_90">-</text>
<text x="548" y="791" class="s6_90">y</text>
<text x="559" y="791" class="sk_90">2</text>
<text x="576" y="791" class="s5_90">2</text>
<text x="520" y="829" class="s6_90">x</text>
<text x="531" y="829" class="sd_90">-</text>
<text x="548" y="829" class="sm_90">s</text>
<text x="551" y="823" class="sn_90">3</text>
<text x="560" y="829" class="s6_90">y</text>
<text x="571" y="829" class="sk_90">2</text>
<text x="588" y="829" class="s5_90">2</text>
<g clip-path="url(#c0_90)">
<path d="M560.6,815.6h38.6" class="g5_90"/>
</g>
<text x="287" y="861" dx="0,0,0,0,0,0,0,-1,0,0,0,0,0,0,0,0,0,0,0,0,0,0,0,0" class="s5_90">Finally, we interchange </text>
<text x="434" y="861" class="s6_90">x</text>
<text x="444" y="861" class="s5_90">and </text>
<text x="471" y="861" class="s6_90">y</text>
<text x="478" y="861" class="s5_90">:</text>
<text x="520" y="888" class="s6_90">y</text>
<text x="531" y="888" class="sd_90">-</text>
<text x="548" y="889" class="sm_90">s</text>
<text x="551" y="882" class="sn_90">3</text>
<text x="560" y="888" class="s6_90">x</text>
<text x="571" y="888" class="sk_90">2</text>
<text x="588" y="888" class="s5_90">2</text>
<g clip-path="url(#c1_90)">
<path d="M560.6,875.2h38.6" class="g5_90"/>
</g>
<text x="287" y="933" dx="0,-.1,-.1,-.1,-.1,-.1,-.1,-.1,-.1,-.1,-.1,-.1,-.1,-.1,-.1,-.1,-.7,-.3,-.1,-.1,-.1,-.1,-.1,-.1,-.1,-.1,-.1,-.1,-.1,-.1,-.1,-.1,-.1,-.1" class="s5_90">Therefore the inverse function is </text>
<text x="489" y="933" class="s6_90">f</text>
<text x="496" y="927" class="s7_90">2</text>
<text x="504" y="927" class="s8_90">1</text>
<text x="508" y="933" class="sc_90">s</text>
<text x="514" y="933" class="s6_90">x</text>
<text x="521" y="933" class="sc_90">d</text>
<text x="531" y="933" class="sd_90">-</text>
<text x="548" y="933" class="sm_90">s</text>
<text x="551" y="927" class="sn_90">3</text>
<text x="559" y="933" class="s6_90">x</text>
<text x="570" y="933" class="sk_90">2</text>
<text x="588" y="933" class="s5_90">2</text>
<g clip-path="url(#c2_90)">
<path d="M560,919.5h38.5" class="g5_90"/>
</g>
<text x="598" y="933" class="s5_90">. </text>
<text x="813" y="933" class="so_90">■</text>
<text x="305" y="983" dx="0,0,0,0,.8,0,0,0,0,0,0,0,0,0,.8,0,0,.8,0,0,0,0,0,0,0,0,0,0,0,0,0" class="s5_90">The principle of interchanging </text>
<text x="499" y="983" class="s6_90">x</text>
<text x="510" y="983" class="s5_90">and </text>
<text x="537" y="983" class="s6_90">y</text>
<text x="549" y="983" dx="0,0,0,.8,0,0,0,.8,0,0,0,.8,0,-.6,-.2,0,0,0,0,.8,0,0,0,0,0,0,0,0,.8,0,0,0,0,.8,0,-.4,-.2,0,0,.8,0,0,.8,0,0,0" class="s5_90">to Ind the inverse function also gives us the </text>
<text x="287" y="1001" dx="0,0,0,0,0,0,0,.7,0,0,0,.7,0,0,0,0,0,0,0,0,0,.7,0,0,0,.7,0,0,0,0,0,.7,0,0" class="s5_90">method for obtaining the graph of </text>
<text x="504" y="1001" class="s6_90">f</text>
<text x="511" y="995" class="s7_90">2</text>
<text x="519" y="995" class="s8_90">1</text>
<text x="528" y="1001" dx="0,0,0,0,0,.7,0,0,0,.7,0,0,0,0,0,.7,0,0" class="s5_90">from the graph of </text>
<text x="644" y="1001" class="s6_90">f</text>
<text x="648" y="1001" dx="0,0,.7,0,0,0,0,0" class="s5_90">. Since </text>
<text x="697" y="1001" class="s6_90">f</text>
<text x="704" y="1001" class="sc_90">s</text>
<text x="709" y="1001" class="s6_90">a</text>
<text x="716" y="1001" class="sc_90">d</text>
<text x="726" y="1001" class="sd_90">-</text>
<text x="743" y="1001" class="s6_90">b</text>
<text x="755" y="1001" dx="0,0,0,.7,0,0,0,.7,0,0,0,0" class="s5_90">if and only </text>
<text x="287" y="1020" class="s5_90">if </text>
<text x="302" y="1020" class="s6_90">f</text>
<text x="309" y="1014" class="s7_90">2</text>
<text x="317" y="1014" class="s8_90">1</text>
<text x="322" y="1020" class="sc_90">s</text>
<text x="327" y="1020" class="s6_90">b</text>
<text x="334" y="1020" class="sc_90">d</text>
<text x="344" y="1020" class="sd_90">-</text>
<text x="361" y="1020" class="s6_90">a</text>
<text x="369" y="1020" class="s5_90">, the point </text>
<text x="434" y="1020" class="sc_90">s</text>
<text x="439" y="1020" class="s6_90">a</text>
<text x="447" y="1020" class="s5_90">, </text>
<text x="454" y="1020" class="s6_90">b</text>
<text x="462" y="1020" class="sc_90">d</text>
<text x="471" y="1020" class="s5_90">is on the graph of </text>
<text x="584" y="1020" class="s6_90">f</text>
<text x="594" y="1020" class="s5_90">if and only if the point </text>
<text x="734" y="1020" class="sc_90">s</text>
<text x="740" y="1020" class="s6_90">b</text>
<text x="747" y="1020" class="s5_90">, </text>
<text x="755" y="1020" class="s6_90">a</text>
<text x="762" y="1020" class="sc_90">d</text>
<text x="771" y="1020" class="s5_90">is on the </text>
<text x="207" y="213" dx="0,.3,.3,.3,.3,.3,.1" class="sh_90">FIGURE </text>
<text x="260" y="213" class="sp_90">7</text>
<text x="53" y="882" dx="0,-.1,-.1,-.1,-.1,-.1,-.1,-.1,-.1,-.1,-.1,-.1,-.1,-.1,-.1,-.1,-.1,-.1,-.1,-.1,-.1,-.1,-.1,-.4,-.1" class="sq_90">±n Example 4, notice how </text>
<text x="198" y="882" class="sr_90">f</text>
<text x="204" y="877" class="ss_90">2</text>
<text x="210" y="877" class="sn_90">1</text>
<text x="217" y="882" dx="0,-.1,-.4,-.3,-.1,-.1,-.1,-.1,0" class="sq_90">reverses </text>
<text x="53" y="899" dx="0,-.1,-.1,-.1,-.1,-.1,-.4,-.1,-.1,-.1,-.1,-.1,-.1,-.1" class="sq_90">the effect of </text>
<text x="123" y="899" class="sr_90">f</text>
<text x="128" y="899" dx="0,-.1,-.3,-.1,-.1,-.1,-.1,-.1,-.1,-.1,-.1,-.1,-.1,-.1,-.1" class="sq_90">. The function </text>
<text x="210" y="899" class="sr_90">f</text>
<text x="218" y="899" dx="0,-.1,-.1,-.1,-.1,-.1,0" class="sq_90">is the </text>
<text x="53" y="916" dx="0,-.1,-.1,-.1,-.1,-.1,-.1,-.1,-.1,-.1,-.1,-.1,-.1,-.1,-.1,-.1,-.1,-.1,-.1,-.1,-.1,-.1,-.1,-.1,-.1" class="sq_90">rule “Cube, then add 2”; </text>
<text x="191" y="916" class="sr_90">f</text>
<text x="197" y="911" class="ss_90">2</text>
<text x="203" y="911" class="sn_90">1</text>
<text x="210" y="916" dx="0,-.1,-.1,-.1,-.1,-.1,-.1,-.1,-.1,-.1,-.1,0" class="sq_90">is the rule </text>
<text x="53" y="933" dx="0,-.1,-.1,-.1,-.1,-.1,-.1,-.1,-.1,-.1,-.1,-.1,-.1,-.1,-.1,-.1,-.1,-.1,-.1,-.1,-.1,-.2,-.1,-.1,-.1,-.1,-.1,-.1,-.1,-.1,-.1,-.1,-.1,-.1,-.1,-.1,-.1,-1" class="sq_90">“Subtract 2, then take the cube root.”</text>
<text x="121" y="1076" class="st_90">Copyright 2016 Cengage Learning. All Rights Reserved. May not be copied, scanned, or duplicated, in whole or in part. Due to electronic rights, some third party content may be suppressed from the eBook and/or eChapter(s).</text>
<text x="106" y="1087" class="st_90">Editorial review has deemed that any suppressed content does not materially affect the overall learning experience. Cengage Learning reserves the right to remove additional content at any time if subsequent rights restrictions require it.</text>

</g>

<!-- Any embedded fonts defined here -->
<style type="text/css" ><![CDATA[

@font-face {
	font-family: BeaconDingbatsTypeOne_12w;
	src: url("fonts/BeaconDingbatsTypeOne_12w.woff") format("woff");
}

@font-face {
	font-family: MathematicalPiLTStd-1_rr;
	src: url("fonts/MathematicalPiLTStd-1_rr.woff") format("woff");
}

@font-face {
	font-family: MathematicalPiLTStd-3_ry;
	src: url("fonts/MathematicalPiLTStd-3_ry.woff") format("woff");
}

@font-face {
	font-family: MathematicalPiLTStd-5_vb;
	src: url("fonts/MathematicalPiLTStd-5_vb.woff") format("woff");
}

@font-face {
	font-family: MyriadPro-BoldSemiCn_90;
	src: url("fonts/MyriadPro-BoldSemiCn_90.woff") format("woff");
}

@font-face {
	font-family: MyriadPro-Bold_74;
	src: url("fonts/MyriadPro-Bold_74.woff") format("woff");
}

@font-face {
	font-family: MyriadPro-Regular_4i;
	src: url("fonts/MyriadPro-Regular_4i.woff") format("woff");
}

@font-face {
	font-family: MyriadPro-Semibold_49;
	src: url("fonts/MyriadPro-Semibold_49.woff") format("woff");
}

@font-face {
	font-family: TECHMath-Mix_16a;
	src: url("fonts/TECHMath-Mix_16a.woff") format("woff");
}

@font-face {
	font-family: TECHMath-Mix_1av;
	src: url("fonts/TECHMath-Mix_1av.woff") format("woff");
}

@font-face {
	font-family: TECHMath-Mix_1jb;
	src: url("fonts/TECHMath-Mix_1jb.woff") format("woff");
}

@font-face {
	font-family: Times-Roman_4n;
	src: url("fonts/Times-Roman_4n.woff") format("woff");
}

@font-face {
	font-family: TimesLTStd-BoldItalic_12r;
	src: url("fonts/TimesLTStd-BoldItalic_12r.woff") format("woff");
}

@font-face {
	font-family: TimesLTStd-Italic_o3;
	src: url("fonts/TimesLTStd-Italic_o3.woff") format("woff");
}

@font-face {
	font-family: TimesLTStd-Roman_143;
	src: url("fonts/TimesLTStd-Roman_143.woff") format("woff");
}

@font-face {
	font-family: ZapfDingbatsITC_my;
	src: url("fonts/ZapfDingbatsITC_my.woff") format("woff");
}

]]></style>

</svg>
