<?xml version="1.0" encoding="UTF-8" standalone="no"?>
<!DOCTYPE svg PUBLIC "-//W3C//DTD SVG 1.1//EN"
"http://www.w3.org/Graphics/SVG/1.1/DTD/svg11.dtd">


<!-- Page 93 -->
<svg x="0" y="0" width="931" height="1096" viewBox="0 0 931 1096" version="1.1" xmlns="http://www.w3.org/2000/svg" xmlns:xlink="http://www.w3.org/1999/xlink"
style="display: block;margin-left: auto;margin-right: auto;">
<defs>
<clipPath id="c_93"><path d="M0,0H931V1096H0Z"/></clipPath>
<style type="text/css"><![CDATA[
text { white-space: pre; }
path, image { pointer-events: none; }

.s1_93{
font-size: 12.22px;
font-family: MyriadPro-Semibold_49;
fill: #231F20;
}
.s2_93{
font-size: 13.75px;
font-family: MyriadPro-Semibold_49;
fill: #231F20;
}
.s3_93{
font-size: 12.22px;
font-family: MyriadPro-Regular_4i;
fill: #231F20;
}
.s4_93{
font-size: 15.28px;
font-family: MyriadPro-Semibold_49;
fill: #231F20;
}
.s5_93{
font-size: 15.28px;
font-family: MyriadPro-Bold_74;
fill: #00AEEF;
}
.s6_93{
font-size: 15.19px;
font-family: TimesLTStd-Roman_143;
fill: #231F20;
}
.s7_93{
font-size: 15.19px;
font-family: TimesLTStd-Italic_o3;
fill: #231F20;
}
.s8_93{
font-size: 15.19px;
font-family: MathematicalPiLTStd-5_vb;
fill: #231F20;
}
.s9_93{
font-size: 15.28px;
font-family: UniversalChemicalPi-T_-_;
fill: #231F20;
}
.sa_93{
font-size: 15.28px;
font-family: TimesLTStd-Italic_o3;
fill: #231F20;
}
.sb_93{
font-size: 9.17px;
font-family: TimesLTStd-Italic_o3;
fill: #231F20;
}
.sc_93{
font-size: 15.28px;
font-family: MathematicalPiLTStd-5_vb;
fill: #231F20;
}
.sd_93{
font-size: 15.28px;
font-family: TimesLTStd-Roman_143;
fill: #231F20;
}
.se_93{
font-size: 15.28px;
font-family: MathematicalPiLTStd-3_ry;
fill: #231F20;
}
.sf_93{
font-size: 15.28px;
font-family: MathematicalPiLTStd-4_v8;
fill: #231F20;
}
.sg_93{
font-size: 15.28px;
font-family: MathematicalPiLTStd-6_13j;
fill: #231F20;
}
.sh_93{
font-size: 9.17px;
font-family: TimesLTStd-Roman_143;
fill: #231F20;
}
.si_93{
font-size: 15.28px;
font-family: MathematicalPiLTStd-1_rr;
fill: #231F20;
}
.sj_93{
font-size: 16.81px;
font-family: MyriadPro-BoldSemiCn_90;
fill: #EC008C;
}
.sk_93{
font-size: 17.57px;
font-family: MyriadPro-BoldSemiCn_90;
fill: #EC008C;
}
.sl_93{
font-size: 13.75px;
font-family: MyriadPro-Semibold_49;
fill: #EC008C;
}
.sm_93{
font-size: 12.99px;
font-family: ZapfDingbatsITC_my;
fill: #EC008C;
}
.sn_93{
font-size: 9.17px;
font-family: MathematicalPiLTStd-1_rr;
fill: #231F20;
}
.so_93{
font-size: 10.69px;
font-family: TimesLTStd-Roman_143;
fill: #231F20;
}
.sp_93{
font-size: 9.17px;
font-family: MathematicalPiLTStd-3_ry;
fill: #231F20;
}
.sq_93{
font-size: 15.28px;
font-family: BeaconDingbatsTypeOne_12w;
fill: #231F20;
}
.sr_93{
font-size: 21.39px;
font-family: TimesLTStd-Roman_143;
fill: #231F20;
}
.ss_93{
font-size: 7.64px;
font-family: Times-Roman_4n;
fill: #000000;
}

.g0_93{
fill: none;
stroke: #00AEEF;
stroke-width: 1.145;
stroke-linecap: butt;
stroke-linejoin: miter;
stroke-miterlimit: 4;
}
.g1_93{
fill: none;
stroke: #00AEEF;
stroke-width: 0.763;
stroke-linecap: butt;
stroke-linejoin: miter;
stroke-miterlimit: 4;
}
.g2_93{
fill: none;
stroke: #231F20;
stroke-width: 0.534;
stroke-linecap: butt;
stroke-linejoin: miter;
}
.g3_93{
fill: none;
stroke: #231F20;
stroke-width: 0.763;
stroke-linecap: butt;
stroke-linejoin: miter;
}

]]></style>

</defs>
<g clip-path="url(#c_93)">
<path d="M0,0
L0,1096
L931,1096
L931,0 Z " 
fill="#FFFFFF" stroke="none"/>
<text x="547" y="64" dx="0,.2,.2,.5,.2,.2,.2" class="s1_93">SECTION</text>
<text x="599" y="64" class="s2_93">1.5</text>
<text x="629" y="64" dx="0,.2,0,0,.1,.1,.1,.1,.1,-.3,.1,.1,.3,.1,.1,.1,.1,.1,.1,.1,.1,.1,.1,0,.1,.1,.1,.2,.1,.1,.1,.1,.1" class="s3_93">Inverse Functions and Logarithms </text>
<text x="862" y="64" class="s4_93">61</text>
<text x="365" y="117" class="s5_93">8</text>
<path d="M362.7,103.5c0,0,-1.6,0,-1.6,1.5v14.2c0,0,0,1.5,1.6,1.5h14.1c0,0,1.5,0,1.5,-1.5V105c0,0,0,-1.5,-1.5,-1.5H362.7Z" class="g0_93"/>
<text x="534" y="123" class="s6_93">ln </text>
<text x="551" y="123" class="s7_93">x</text>
<text x="562" y="123" class="s8_93">-</text>
<text x="579" y="123" class="s7_93">y</text>
<text x="601" y="123" dx="0,-3.1" class="s9_93">&amp;?</text>
<text x="644" y="123" class="sa_93">e</text>
<text x="652" y="117" class="sb_93">y</text>
<text x="661" y="123" class="sc_93">-</text>
<text x="678" y="123" class="sa_93">x</text>
<path d="M503,97.9c0,0,-3,0,-3,3.1v34.4c0,0,0,3,3,3H717.7c0,0,3,0,3,-3V101c0,0,0,-3.1,-3,-3.1H503Z" class="g1_93"/>
<text x="365" y="204" class="s5_93">9</text>
<path d="M362.7,190.6c0,0,-1.6,0,-1.6,1.5v14.1c0,0,0,1.6,1.6,1.6h14.1c0,0,1.5,0,1.5,-1.6V192.1c0,0,0,-1.5,-1.5,-1.5H362.7Z" class="g0_93"/>
<text x="542" y="188" class="sd_93">ln</text>
<text x="554" y="188" class="se_93">s</text>
<text x="559" y="188" class="sa_93">e</text>
<text x="567" y="182" class="sb_93">x</text>
<text x="573" y="188" class="se_93">d</text>
<text x="583" y="188" class="sc_93">-</text>
<text x="600" y="188" class="sa_93">x</text>
<text x="637" y="188" class="sa_93">x</text>
<text x="649" y="188" class="sf_93">[</text>
<text x="666" y="188" class="sg_93">R</text>
<text x="557" y="217" class="sa_93">e</text>
<text x="565" y="211" class="sh_93">ln</text>
<text x="574" y="211" class="sb_93">x</text>
<text x="583" y="217" class="sc_93">-</text>
<text x="600" y="217" class="sa_93">x</text>
<text x="637" y="217" class="sa_93">x</text>
<text x="649" y="217" class="si_93">.</text>
<text x="666" y="217" class="sd_93">0</text>
<path d="M503,160.6c0,0,-3,0,-3,3v66.5c0,0,0,3.1,3,3.1H717.7c0,0,3,0,3,-3.1V163.6c0,0,0,-3,-3,-3H503Z" class="g1_93"/>
<text x="360" y="262" dx="0,0,0,0,0,0,0,0,0,0,0,0,0,-.6,0,0,0,0,0,0,0,0,0,0,0" class="sd_93">±n particular, if we set </text>
<text x="498" y="262" class="sa_93">x</text>
<text x="509" y="262" class="sc_93">-</text>
<text x="527" y="262" class="sd_93">1, we get</text>
<text x="584" y="308" class="sd_93">ln</text>
<text x="599" y="308" class="sa_93">e</text>
<text x="611" y="308" class="sc_93">-</text>
<text x="628" y="308" class="sd_93">1</text>
<path d="M503,282.8c0,0,-3,0,-3,3.1v34.3c0,0,0,3.1,3,3.1H717.7c0,0,3,0,3,-3.1V285.9c0,0,0,-3.1,-3,-3.1H503Z" class="g1_93"/>
<text x="342" y="360" dx="0,.3,.3,.3,.3,.3,.3,.2" class="sj_93">EXAMPLE </text>
<text x="413" y="360" class="sk_93">7</text>
<text x="430" y="360" class="sd_93">Find </text>
<text x="462" y="360" class="sa_93">x</text>
<text x="473" y="360" class="sd_93">if ln</text>
<text x="502" y="360" class="sa_93">x</text>
<text x="513" y="360" class="sc_93">-</text>
<text x="530" y="360" class="sd_93">5.</text>
<text x="342" y="387" dx="0,.3,.3,.3,.3,.3,.3,.3,.1,0,0" class="sl_93">SOLUTION 1 </text>
<text x="424" y="387" class="sd_93">From (8) we see that</text>
<text x="513" y="419" class="sd_93">ln</text>
<text x="529" y="419" class="sa_93">x</text>
<text x="540" y="419" class="sc_93">-</text>
<text x="557" y="419" class="sd_93">5 </text>
<text x="596" y="419" class="sd_93">means </text>
<text x="665" y="419" class="sa_93">e</text>
<text x="673" y="413" class="sh_93">5</text>
<text x="683" y="419" class="sc_93">-</text>
<text x="700" y="419" class="sa_93">x</text>
<text x="342" y="445" class="sd_93">Therefore </text>
<text x="406" y="445" class="sa_93">x</text>
<text x="417" y="445" class="sc_93">-</text>
<text x="435" y="445" class="sa_93">e</text>
<text x="443" y="439" class="sh_93">5</text>
<text x="448" y="445" class="sd_93">.</text>
<text x="360" y="464" dx="0,0,0,0,.5,0,0,0,.5,0,-.3,-.2,0,.5,0,0,0,0,0,0,0,.5,-.2,0,0,0,0,0,0,.5,0,0,0,0,.5,0,0,0,.5,0,0,0,0,.5,0,0,0,0,0,0,0,0,0,.5,0,0,0,0,.5,0,0,0,0,0,0,0,.5,0,0,.5,0,0,.4,0,0" class="sd_93">(±f you have trouble working with the “ln” notation, just replace it by log</text>
<text x="812" y="465" class="sb_93">e</text>
<text x="816" y="464" dx="0,0,.2,0,0,0,0,.5,0,0,0" class="sd_93">. Then the </text>
<text x="342" y="482" class="sd_93">equation becomes log</text>
<text x="476" y="484" class="sb_93">e</text>
<text x="482" y="482" class="sa_93">x</text>
<text x="493" y="482" class="sc_93">-</text>
<text x="511" y="482" dx="0,0,0,0,0,0,0,0,0,0,0,0,0,0,0,0,0,0,0,0,0,0,0,0,0,0,0,0,0,0,-.1,0,0,0,0,0,0,0" class="sd_93">5; so, by the deInition of logarithm, </text>
<text x="735" y="482" class="sa_93">e</text>
<text x="743" y="476" class="sh_93">5</text>
<text x="753" y="482" class="sc_93">-</text>
<text x="770" y="482" class="sa_93">x</text>
<text x="777" y="482" class="sd_93">.)</text>
<text x="342" y="510" dx="0,.3,.3,.3,.3,.3,.3,.3,.1,0,0" class="sl_93">SOLUTION 2 </text>
<text x="424" y="510" class="sd_93">Start with the equation</text>
<text x="584" y="532" class="sd_93">ln</text>
<text x="600" y="532" class="sa_93">x</text>
<text x="611" y="532" class="sc_93">-</text>
<text x="628" y="532" class="sd_93">5</text>
<text x="342" y="563" dx="0,0,0,0,0,0,0,0,0,0,0,0,0,0,0,-.2,0,0,0,0,0,0,0,0,0,0,0,0,0,0,0,0,0,0,0,0,0,0,0,0,0,0,0,0,0,0,0,0,0,0,0,0,0,0,0,0,0,0,0,0,0,0,0,0,0" class="sd_93">and apply the exponential function to both sides of the equation:</text>
<text x="582" y="597" class="sa_93">e</text>
<text x="590" y="591" class="sh_93">ln</text>
<text x="599" y="591" class="sb_93">x</text>
<text x="608" y="597" class="sc_93">-</text>
<text x="625" y="597" class="sa_93">e</text>
<text x="633" y="591" class="sh_93">5</text>
<text x="342" y="627" dx="0,0,0,0,0,0,0,0,0,0,0,0,0,0,0,0,0,0,0,0,0,0,0,0,0,0,0,0,0,0,0,0,0,0,0,0,0,0,0,0,0,.8,0,0,0,0,0,0,0,0,0,0,0,0" class="sd_93">But the second cancellation equation in (9) says that </text>
<text x="665" y="627" class="sa_93">e</text>
<text x="674" y="621" class="sh_93">ln</text>
<text x="682" y="621" class="sb_93">x</text>
<text x="691" y="627" class="sc_93">-</text>
<text x="708" y="627" class="sa_93">x</text>
<text x="715" y="627" dx="0,0,-.3,0,0,0,0,0,0,0,0,0" class="sd_93">. Therefore </text>
<text x="787" y="627" class="sa_93">x</text>
<text x="798" y="627" class="sc_93">-</text>
<text x="816" y="627" class="sa_93">e</text>
<text x="824" y="621" class="sh_93">5</text>
<text x="828" y="627" class="sd_93">. </text>
<text x="868" y="627" class="sm_93">■</text>
<text x="342" y="668" dx="0,.3,.3,.3,.3,.3,.3,.2" class="sj_93">EXAMPLE </text>
<text x="413" y="668" class="sk_93">8</text>
<text x="430" y="668" dx="0,0,0,0,-.2,0,0,0,0,0,0,0,0,0,0,0,0,0,0" class="sd_93">Solve the equation </text>
<text x="547" y="668" class="sa_93">e</text>
<text x="556" y="662" class="sh_93">5</text>
<text x="560" y="662" class="sn_93">2</text>
<text x="568" y="662" class="sh_93">3</text>
<text x="572" y="662" class="sb_93">x</text>
<text x="581" y="668" class="sc_93">-</text>
<text x="598" y="668" class="sd_93">10.</text>
<text x="342" y="696" dx="0,.3,.3,.3,.3,.3,.3,.3,.1" class="sl_93">SOLUTION </text>
<text x="413" y="696" dx="0,-1.2,0,0,0,0,-.2,0,0,0,0,0,0,0,0,0,0,0,0,-.1,0,0,0,0,0,0,0,0,0,0,0,0,0,0,0,0,0,0,0,0,0,0,0,0,0,0,0,0,0,0,0,0,0,0,0,0,0,0,0,0,0,0,0,0,0,0,0,0,0" class="sd_93">We take natural logarithms of both sides of the equation and use (9):</text>
<text x="534" y="725" class="sd_93">ln</text>
<text x="546" y="725" class="se_93">s</text>
<text x="551" y="725" class="sa_93">e</text>
<text x="559" y="719" class="sh_93">5</text>
<text x="564" y="719" class="sn_93">2</text>
<text x="571" y="719" class="sh_93">3</text>
<text x="576" y="719" class="sb_93">x</text>
<text x="582" y="725" class="se_93">d</text>
<text x="591" y="725" class="sc_93">-</text>
<text x="609" y="725" dx="0,0,0,-.8,0" class="sd_93">ln 10</text>
<text x="543" y="756" class="sd_93">5</text>
<text x="555" y="756" class="si_93">2</text>
<text x="572" y="756" class="sd_93">3</text>
<text x="580" y="756" class="sa_93">x</text>
<text x="591" y="756" class="sc_93">-</text>
<text x="609" y="756" dx="0,0,0,-.8,0" class="sd_93">ln 10</text>
<text x="572" y="785" class="sd_93">3</text>
<text x="580" y="785" class="sa_93">x</text>
<text x="591" y="785" class="sc_93">-</text>
<text x="609" y="785" class="sd_93">5</text>
<text x="621" y="785" class="si_93">2</text>
<text x="638" y="785" dx="0,0,0,-.8,0" class="sd_93">ln 10</text>
<text x="580" y="814" class="sa_93">x</text>
<text x="591" y="814" class="sc_93">-</text>
<text x="609" y="807" class="so_93">1</text>
<path d="M609.4,809h5.4" class="g2_93"/>
<text x="609" y="818" class="so_93">3</text>
<text x="616" y="814" class="se_93">s</text>
<text x="621" y="814" class="sd_93">5</text>
<text x="633" y="814" class="si_93">2</text>
<text x="650" y="814" dx="0,0,0,-.8,0" class="sd_93">ln 10</text>
<text x="681" y="814" class="se_93">d</text>
<text x="342" y="841" dx="0,0,0,0,0,0,0,0,0,0,0,0,0,0,0,0,0,0,0,0,0,-.1,0,0,0,0,0,0,0,0,0,0,0,0,0,0,0,0,0,0,0,0,0,0,0,0,0,0,0,0,0,0,0,0,0,0,0,0,0,0,0,0,0,0,0,0,0,0,0,0,0,0,0,0,0,0,0,0,0,0,0,0,0,0,0,0" class="sd_93">Since the natural logarithm is found on scientiIc calculators, we can approximate the </text>
<text x="342" y="859" class="sd_93">solution: to four decimal places, </text>
<text x="542" y="859" class="sa_93">x</text>
<text x="554" y="859" class="se_93">&lt;</text>
<text x="571" y="859" class="sd_93">0.8991. </text>
<text x="868" y="859" class="sm_93">■</text>
<text x="342" y="901" dx="0,.3,.3,.3,.3,.3,.3,.2" class="sj_93">EXAMPLE </text>
<text x="413" y="901" class="sk_93">9</text>
<text x="430" y="901" class="sd_93">Express ln</text>
<text x="497" y="901" class="sa_93">a</text>
<text x="509" y="901" class="si_93">1</text>
<text x="527" y="894" class="so_93">1</text>
<path d="M527.4,896.1h5.3" class="g2_93"/>
<text x="527" y="905" class="so_93">2</text>
<text x="535" y="901" class="sd_93">ln</text>
<text x="550" y="901" class="sa_93">b</text>
<text x="562" y="901" dx="0,0,0,0,0,0,0,0,0,0,0,0,0,0,0,-.1,0,0,0,0,0,0" class="sd_93">as a single logarithm.</text>
<text x="342" y="928" dx="0,.3,.3,.3,.3,.3,.3,.3,.1" class="sl_93">SOLUTION </text>
<text x="413" y="928" dx="0,0,0,0,0,0,0,0,-.2,0,0,0,0,0,0,0,0,0,0,0,0,0,0,0,0,-.1,0,0,0,0,0,0,0,0,0,0,0,0,0,-.3,-.2" class="sd_93">Using Laws 3 and 1 of logarithms, we have</text>
<text x="520" y="959" class="sd_93">ln</text>
<text x="534" y="959" class="sa_93">a</text>
<text x="547" y="959" class="si_93">1</text>
<text x="564" y="952" class="so_93">1</text>
<path d="M564.8,954.2h5.4" class="g2_93"/>
<text x="564" y="963" class="so_93">2</text>
<text x="573" y="959" class="sd_93">ln</text>
<text x="588" y="959" class="sa_93">b</text>
<text x="600" y="959" class="sc_93">-</text>
<text x="617" y="959" class="sd_93">ln</text>
<text x="632" y="959" class="sa_93">a</text>
<text x="644" y="959" class="si_93">1</text>
<text x="662" y="959" class="sd_93">ln</text>
<text x="676" y="959" class="sa_93">b</text>
<text x="686" y="953" class="sh_93">1</text>
<text x="690" y="953" class="sp_93">y</text>
<text x="696" y="953" class="sh_93">2</text>
<text x="600" y="991" class="sc_93">-</text>
<text x="617" y="991" class="sd_93">ln</text>
<text x="632" y="991" class="sa_93">a</text>
<text x="644" y="991" class="si_93">1</text>
<text x="662" y="991" class="sd_93">ln</text>
<text x="675" y="991" class="sq_93">s</text>
<text x="686" y="991" class="sa_93">b</text>
<path d="M687.1,977.6h10.1" class="g3_93"/>
<text x="600" y="1023" class="sc_93">-</text>
<text x="618" y="1023" class="sd_93">ln</text>
<text transform="matrix(0.71,0,0,1,631,1023)" class="sr_93">(</text>
<text x="637" y="1023" class="sa_93">a</text>
<text x="646" y="1023" class="sq_93">s</text>
<text x="658" y="1023" class="sa_93">b</text>
<path d="M658.3,1009.7h10" class="g3_93"/>
<text transform="matrix(0.71,0,0,1,669,1023)" class="sr_93">)</text>
<text x="868" y="1023" class="sm_93">■</text>
<text x="121" y="1076" class="ss_93">Copyright 2016 Cengage Learning. All Rights Reserved. May not be copied, scanned, or duplicated, in whole or in part. Due to electronic rights, some third party content may be suppressed from the eBook and/or eChapter(s).</text>
<text x="106" y="1087" class="ss_93">Editorial review has deemed that any suppressed content does not materially affect the overall learning experience. Cengage Learning reserves the right to remove additional content at any time if subsequent rights restrictions require it.</text>

</g>

<!-- Any embedded fonts defined here -->
<style type="text/css" ><![CDATA[

@font-face {
	font-family: BeaconDingbatsTypeOne_12w;
	src: url("fonts/BeaconDingbatsTypeOne_12w.woff") format("woff");
}

@font-face {
	font-family: MathematicalPiLTStd-1_rr;
	src: url("fonts/MathematicalPiLTStd-1_rr.woff") format("woff");
}

@font-face {
	font-family: MathematicalPiLTStd-3_ry;
	src: url("fonts/MathematicalPiLTStd-3_ry.woff") format("woff");
}

@font-face {
	font-family: MathematicalPiLTStd-4_v8;
	src: url("fonts/MathematicalPiLTStd-4_v8.woff") format("woff");
}

@font-face {
	font-family: MathematicalPiLTStd-5_vb;
	src: url("fonts/MathematicalPiLTStd-5_vb.woff") format("woff");
}

@font-face {
	font-family: MathematicalPiLTStd-6_13j;
	src: url("fonts/MathematicalPiLTStd-6_13j.woff") format("woff");
}

@font-face {
	font-family: MyriadPro-BoldSemiCn_90;
	src: url("fonts/MyriadPro-BoldSemiCn_90.woff") format("woff");
}

@font-face {
	font-family: MyriadPro-Bold_74;
	src: url("fonts/MyriadPro-Bold_74.woff") format("woff");
}

@font-face {
	font-family: MyriadPro-Regular_4i;
	src: url("fonts/MyriadPro-Regular_4i.woff") format("woff");
}

@font-face {
	font-family: MyriadPro-Semibold_49;
	src: url("fonts/MyriadPro-Semibold_49.woff") format("woff");
}

@font-face {
	font-family: Times-Roman_4n;
	src: url("fonts/Times-Roman_4n.woff") format("woff");
}

@font-face {
	font-family: TimesLTStd-Italic_o3;
	src: url("fonts/TimesLTStd-Italic_o3.woff") format("woff");
}

@font-face {
	font-family: TimesLTStd-Roman_143;
	src: url("fonts/TimesLTStd-Roman_143.woff") format("woff");
}

@font-face {
	font-family: UniversalChemicalPi-T_-_;
	src: url("fonts/UniversalChemicalPi-T_-_.woff") format("woff");
}

@font-face {
	font-family: ZapfDingbatsITC_my;
	src: url("fonts/ZapfDingbatsITC_my.woff") format("woff");
}

]]></style>

</svg>
