<?xml version="1.0" encoding="UTF-8" standalone="no"?>
<!DOCTYPE svg PUBLIC "-//W3C//DTD SVG 1.1//EN"
"http://www.w3.org/Graphics/SVG/1.1/DTD/svg11.dtd">


<!-- Page 94 -->
<svg x="0" y="0" width="931" height="1096" viewBox="0 0 931 1096" version="1.1" xmlns="http://www.w3.org/2000/svg" xmlns:xlink="http://www.w3.org/1999/xlink"
style="display: block;margin-left: auto;margin-right: auto;">
<defs>
<clipPath id="c_94"><path d="M0,0H931V1096H0Z"/></clipPath>
<clipPath id="c0_94"><path d="M512.8,218V185.9h85.1V218Z"/></clipPath>
<clipPath id="c1_94"><path d="M527.3,329.7v-32H585v32Z"/></clipPath>

<style type="text/css"><![CDATA[
text { white-space: pre; }
path, image { pointer-events: none; }

.s1_94{
font-size: 15.28px;
font-family: MyriadPro-Semibold_49;
fill: #231F20;
}
.s2_94{
font-size: 12.22px;
font-family: MyriadPro-Semibold_49;
fill: #231F20;
}
.s3_94{
font-size: 13.75px;
font-family: MyriadPro-Semibold_49;
fill: #231F20;
}
.s4_94{
font-size: 12.22px;
font-family: MyriadPro-Regular_4i;
fill: #231F20;
}
.s5_94{
font-size: 15.28px;
font-family: TimesLTStd-Roman_143;
fill: #231F20;
}
.s6_94{
font-size: 15.28px;
font-family: MyriadPro-Bold_74;
fill: #00AEEF;
}
.s7_94{
font-size: 15.28px;
font-family: TimesLTStd-Italic_o3;
fill: #231F20;
}
.s8_94{
font-size: 15.28px;
font-family: MathematicalPiLTStd-3_ry;
fill: #231F20;
}
.s9_94{
font-size: 15.28px;
font-family: MathematicalPiLTStd-5_vb;
fill: #231F20;
}
.sa_94{
font-size: 9.17px;
font-family: TimesLTStd-Italic_o3;
fill: #231F20;
}
.sb_94{
font-size: 13.75px;
font-family: MyriadPro-Semibold_49;
fill: #00AEEF;
}
.sc_94{
font-size: 12.99px;
font-family: ZapfDingbatsITC_my;
fill: #00AEEF;
}
.sd_94{
font-size: 16.81px;
font-family: MyriadPro-BoldSemiCn_90;
fill: #EC008C;
}
.se_94{
font-size: 17.57px;
font-family: MyriadPro-BoldSemiCn_90;
fill: #EC008C;
}
.sf_94{
font-size: 9.17px;
font-family: TimesLTStd-Roman_143;
fill: #231F20;
}
.sg_94{
font-size: 13.75px;
font-family: MyriadPro-Semibold_49;
fill: #EC008C;
}
.sh_94{
font-size: 12.99px;
font-family: ZapfDingbatsITC_my;
fill: #EC008C;
}
.si_94{
font-size: 16.81px;
font-family: MyriadPro-Semibold_49;
fill: #231F20;
}
.sj_94{
font-size: 15.28px;
font-family: TimesLTStd-Roman_6c;
fill: #231F20;
}
.sk_94{
font-size: 15.28px;
font-family: MathematicalPiLTStd-1_rr;
fill: #231F20;
}
.sl_94{
font-size: 12.22px;
font-family: TECHMath-Mix_16e;
fill: #231F20;
}
.sm_94{
font-size: 12.22px;
font-family: TECHMath-Mix_1ic;
fill: #231F20;
}
.sn_94{
font-size: 12.22px;
font-family: TECHMath-Mix_-x;
fill: #231F20;
}
.so_94{
font-size: 12.22px;
font-family: TECHMath-Mix_1jz;
fill: #231F20;
}
.sp_94{
font-size: 12.99px;
font-family: TECHMath-Mix_1jz;
fill: #231F20;
}
.sq_94{
font-size: 12.99px;
font-family: Times-Roman_n6;
fill: #231F20;
}
.sr_94{
font-size: 12.22px;
font-family: TECHMath-Mix_13x;
fill: #231F20;
}
.ss_94{
font-size: 12.99px;
font-family: TECHMath-Mix_1bc;
fill: #231F20;
}
.st_94{
font-size: 12.99px;
font-family: TECHMath-Mix_1k1;
fill: #231F20;
}
.su_94{
font-size: 14.51px;
font-family: MyriadPro-Bold_74;
fill: #231F20;
}
.sv_94{
font-size: 15.28px;
font-family: MyriadPro-Bold_74;
fill: #231F20;
}
.sw_94{
font-size: 13.75px;
font-family: TimesLTStd-Roman_6c;
fill: #231F20;
}
.sx_94{
font-size: 13.75px;
font-family: TimesLTStd-Italic_o3;
fill: #231F20;
}
.sy_94{
font-size: 13.75px;
font-family: MathematicalPiLTStd-5_vb;
fill: #231F20;
}
.sz_94{
font-size: 8.25px;
font-family: TimesLTStd-Italic_o3;
fill: #231F20;
}
.s10_94{
font-size: 7.64px;
font-family: Times-Roman_4n;
fill: #000000;
}

.g0_94{
fill: none;
stroke: #00AEEF;
stroke-width: 1.145;
stroke-linecap: butt;
stroke-linejoin: miter;
stroke-miterlimit: 4;
}
.g1_94{
fill: none;
stroke: #231F20;
stroke-width: 0.763;
stroke-linecap: butt;
stroke-linejoin: miter;
}
.g2_94{
fill: none;
stroke: #00AEEF;
stroke-width: 0.763;
stroke-linecap: butt;
stroke-linejoin: miter;
stroke-miterlimit: 4;
}
.g3_94{
fill: #CC017A;
}
.g4_94{
fill: none;
stroke: #00AEEF;
stroke-width: 0.916;
stroke-linecap: butt;
stroke-linejoin: round;
stroke-miterlimit: 3;
}
.g5_94{
fill: #00AEEF;
}
.g6_94{
fill: none;
stroke: #00AEEF;
stroke-width: 0.763;
stroke-linecap: butt;
stroke-linejoin: miter;
stroke-miterlimit: 3;
}
.g7_94{
fill: #231F20;
}
.g8_94{
fill: none;
stroke: #231F20;
stroke-width: 0.611;
stroke-linecap: butt;
stroke-linejoin: miter;
stroke-miterlimit: 3;
}
.g9_94{
fill: none;
stroke: #231F20;
stroke-width: 0.763;
stroke-linecap: butt;
stroke-linejoin: miter;
stroke-miterlimit: 3;
stroke-dasharray: 10,4;
}
.ga_94{
fill: none;
stroke: #231F20;
stroke-width: 0.763;
stroke-linecap: butt;
stroke-linejoin: miter;
stroke-miterlimit: 3;
}
.gb_94{
fill: none;
stroke: #231F20;
stroke-width: 0.916;
stroke-linecap: butt;
stroke-linejoin: round;
stroke-miterlimit: 3;
}
.gc_94{
fill: #EC008C;
}
.gd_94{
fill: none;
stroke: #EC008C;
stroke-width: 0.763;
stroke-linecap: butt;
stroke-linejoin: miter;
stroke-miterlimit: 3;
}
.ge_94{
fill: none;
stroke: #EC008C;
stroke-width: 0.916;
stroke-linecap: butt;
stroke-linejoin: round;
stroke-miterlimit: 3;
}
.gf_94{
fill: none;
stroke: #66C18C;
stroke-width: 0.916;
stroke-linecap: butt;
stroke-linejoin: round;
stroke-miterlimit: 3;
}

]]></style>

</defs>
<g clip-path="url(#c_94)">
<path d="M0,0
L0,1096
L931,1096
L931,0 Z " 
fill="#FFFFFF" stroke="none"/>
<text x="53" y="64" class="s1_94">62</text>
<text x="126" y="64" dx="0,.2,.2,.2,.2,.2,.2,.1" class="s2_94">CHAPTER </text>
<text x="180" y="64" class="s3_94">1</text>
<text x="200" y="64" dx="0,-.3,.1,.1,.3,.1,.1,.1,.1,.1,.1,.1,.1,.1,.1,.2,.1,.1,.1,.1" class="s4_94">Functions and Models</text>
<text x="305" y="107" dx="0,0,0,0,-.5,0,0,0,0,-.4,0,0,0,0,-.5,0,0,0,0,0,0,0,-.5,0,0,-.4,0,0,-.5,0,0,0,0,-.5,0,0,-.1,0,0,0,0,0,0,0,-.5,0,0,0,0,-.5,0,-.2,0,-.5,0,0,0,0,-.5,0,0,0,-.5,0,0,-.5,-.2,0,0,0,0,0,0,0,0,-.5,0,0,-.5,0,0,0,0,0" class="s5_94">The following formula shows that logarithms with any base can be expressed in terms </text>
<text x="287" y="126" dx="0,0,0,0,0,0,0,0,0,0,0,0,0,0,0,0,0,0,-.1,0,0,0,0,0,0" class="s5_94">of the natural logarithm.</text>
<text x="308" y="163" dx="0,-1.5" class="s6_94">10</text>
<path d="M308.4,149.8c0,0,-1.5,0,-1.5,1.6v14.1c0,0,0,1.5,1.5,1.5h17.2c0,0,1.5,0,1.5,-1.5V151.4c0,0,0,-1.6,-1.5,-1.6H308.4Z" class="g0_94"/>
<text x="335" y="164" dx="0,0,0,0,0,0,0,0,0,0,0,0,0,0,0,0,-.4,0,0,0,0,0" class="s6_94">Change of Base Formula</text>
<text x="506" y="164" dx="0,-.2,0,0,0,0,-.2,0,0,0,0,0,0,0,-.4,-.2,0,0,0,0,0,0,0,0" class="s5_94">For any positive number </text>
<text x="659" y="164" class="s7_94">b</text>
<text x="670" y="164" class="s8_94">s</text>
<text x="676" y="164" class="s7_94">b</text>
<text x="688" y="164" class="s9_94">±</text>
<text x="705" y="164" class="s5_94">1</text>
<text x="713" y="164" class="s8_94">d</text>
<text x="718" y="164" dx="0,0,0,0,0,0,0,-.3,-.2" class="s5_94">, we have</text>
<text x="512" y="207" class="s5_94">log</text>
<text x="533" y="208" class="sa_94">b</text>
<text x="540" y="207" class="s7_94">x</text>
<text x="552" y="207" class="s9_94">-</text>
<text x="572" y="196" class="s5_94">ln</text>
<text x="588" y="196" class="s7_94">x</text>
<g clip-path="url(#c0_94)">
<path d="M569.7,202.1h28.6" class="g1_94"/>
</g>
<text x="572" y="217" class="s5_94">ln </text>
<text x="587" y="217" class="s7_94">b</text>
<path d="M290.7,140.5c0,0,-3.1,0,-3.1,3v87.9c0,0,0,3,3.1,3H820.1c0,0,3,0,3,-3V143.5c0,0,0,-3,-3,-3H290.7Z" class="g2_94"/>
<text x="287" y="262" dx="0,.3,.3,.3,.3,.1" class="sb_94">PROOF </text>
<text x="337" y="262" class="s5_94">Let </text>
<text x="362" y="262" class="s7_94">y</text>
<text x="373" y="262" class="s9_94">-</text>
<text x="390" y="262" class="s5_94">log</text>
<text x="410" y="263" class="sa_94">b</text>
<text x="418" y="262" class="s7_94">x</text>
<text x="425" y="262" dx="0,0,-.3,0,0,0,0,0,0,0,0,0,0,0,0,0,0,0,0,0,0,0,0,-.3,-.2,0" class="s5_94">. Then, from (6), we have </text>
<text x="584" y="262" class="s7_94">b</text>
<text x="593" y="256" class="sa_94">y</text>
<text x="602" y="262" class="s9_94">-</text>
<text x="619" y="262" class="s7_94">x</text>
<text x="626" y="262" dx="0,0,-.3,-1.2,0,0,0,0,0,0,0,0,0,0,0,0,0,0,0,0,-.1,0,0,0,0,0,0,0,0,0,0" class="s5_94">. Taking natural logarithms of </text>
<text x="287" y="280" class="s5_94">both sides of this equation, we get </text>
<text x="499" y="280" class="s7_94">y</text>
<text x="509" y="280" class="s5_94">ln </text>
<text x="525" y="280" class="s7_94">b</text>
<text x="537" y="280" class="s9_94">-</text>
<text x="554" y="280" class="s5_94">ln</text>
<text x="570" y="280" class="s7_94">x</text>
<text x="577" y="280" dx="0,0,-.3,0,0,0,0,0,0,0,0" class="s5_94">. Therefore</text>
<text x="527" y="318" class="s7_94">y</text>
<text x="539" y="318" class="s9_94">-</text>
<text x="559" y="308" class="s5_94">ln</text>
<text x="575" y="308" class="s7_94">x</text>
<g clip-path="url(#c1_94)">
<path d="M556.8,313.9h28.6" class="g1_94"/>
</g>
<text x="559" y="329" class="s5_94">ln </text>
<text x="575" y="329" class="s7_94">b</text>
<text x="813" y="318" class="sc_94">■</text>
<text x="305" y="361" dx="0,0,0,0,0,0,0,0,0,0,1.8,0,0,0,0,0,0,0,0,0,0,0,1.8,0,-.3,-.2,0,1.8,0,1.8,-.2,-.2,0,1.8,0,0,0,1.8,0,0,0,0,0,0,0,1.8,0,0,-.1,0,0,0,0,0,0,0,0,1.8,0,0,1.8,-.2,0,0,0,0,0,0,1.8,0,0,1.8,0,0,0,0,0,0,0,1.8,0,0" class="s5_94">ScientiIc calculators have a key for natural logarithms, so Formula 10 enables us </text>
<text x="287" y="379" dx="0,0,0,1.7,0,0,0,1.7,0,1.7,0,0,0,0,0,0,0,0,0,0,1.7,0,0,1.7,0,0,0,0,0,0,0,1.7,0,1.7,0,0,-.1,0,0,0,0,0,0,1.7,0,0,0,0,1.7,0,-.2,0,1.7,0,0,0,0,1.7,0,0,0,1.7,0,0,-.4,0,0,1.7,0,0,1.7,0,0,0,1.7,0,0,0,0,-.4,0,0,0,0" class="s5_94">to use a calculator to compute a logarithm with any base (as shown in the following </text>
<text x="287" y="398" dx="0,-.2,0,0,0,0,0,0,0,0,-.4,0,0,0,0,0,0,0,0,-1,0,-.4,-.2,0,0,0,0,0,0,-.4,0,0,-.4,0,0,0,-.4,0,0,-.4,0,0,-.4,0,0,-.4,0,0,0,0,0,-.4,0,-.2,0,-.4,0,0,-.1,0,0,0,0,0,0,0,0,-.4,0,0,0,0,0,0,0,0,-.4,0,0,-.4,0,-.4,0,0,0,0,0" class="s5_94">example). Similarly, Formula 10 allows us to graph any logarithmic function on a graph-</text>
<text x="287" y="416" dx="0,0,0,0,0,0,0,0,0,0,0,0,0,0,0,0,0,0,0,0,0,0,0,0,0,0,0,0,0,0,0,0,0,0,-.2,0,0,0,0,0,0,0,0,0,0,0,0,0,0,0,0,0,0" class="s5_94">ing calculator or computer (see Exercises 43 and 44).</text>
<text x="287" y="453" dx="0,.3,.3,.3,.3,.3,.3,.2" class="sd_94">EXAMPLE </text>
<text x="358" y="453" class="se_94">10</text>
<text x="384" y="453" dx="0,0,-.4,0,0,0,0,0,0,0,0,0" class="s5_94">Evaluate log</text>
<text x="461" y="454" class="sf_94">8</text>
<text x="468" y="453" class="s5_94">5 correct to six decimal places.</text>
<text x="287" y="480" dx="0,.3,.3,.3,.3,.3,.3,.3,.1" class="sg_94">SOLUTION </text>
<text x="358" y="480" dx="0,-.2,0,0,0,0,0,0,0,0,0,0,0,-.4,-.2,0" class="s5_94">Formula 10 gives</text>
<text x="476" y="523" class="s5_94">log</text>
<text x="496" y="525" class="sf_94">8</text>
<text x="503" y="523" class="s5_94">5</text>
<text x="515" y="523" class="s9_94">-</text>
<text x="535" y="512" dx="0,0,0,-.8" class="s5_94">ln 5</text>
<path d="M533.3,518.6h27" class="g1_94"/>
<text x="535" y="534" dx="0,0,0,-.8" class="s5_94">ln 8</text>
<text x="564" y="523" class="s8_94">&lt;</text>
<text x="581" y="523" class="s5_94">0.773976 </text>
<text x="813" y="534" class="sh_94">■</text>
<path d="M288.8,567.9c0,0,-1.6,0,-1.6,1.5v9.2c0,0,0,1.5,1.6,1.5h9.1c0,0,1.6,0,1.6,-1.5v-9.2c0,0,0,-1.5,-1.6,-1.5Z" class="g3_94"/>
<text x="307" y="580" dx="0,.1,-.2,0,0,0,0,0,0,0,0,.1,-.2,-.1,0,0,0,0,0,0,0,0,0,0,0,0,-.1,0,0,-.2,0,0,0,-.2,0,0,0,0,0,0,0" class="si_94">Graph and Growth of the Natural Logarithm</text>
<text x="286" y="602" dx="0,-.1,-.1,-.1,.5,-.1,-.1,-.1,-.1,-.1,-.1,.5,-.1,-.1,.5,-.1,-.1,-.1,.5,-.3,-.1,-.1,-.1,-.1,-.1,-.1,-.1,-.1,-.1,-.1,.5,-.1,-.1,-.1,-.1,-.1,-.1,-.1,-.1" class="s5_94">The graphs of the exponential function </text>
<text x="528" y="602" class="s7_94">y</text>
<text x="539" y="602" class="s9_94">-</text>
<text x="557" y="602" class="s7_94">e</text>
<text x="565" y="596" class="sa_94">x</text>
<text x="573" y="602" dx="0,-.1,-.1,-.1,.5,-.1,-.1,-.1,.5,-.1,-.7,-.3,-.1,-.1,-.1,-.1,.5,-.1,-.1,-.1,-.1,-.1,-.1,-.1,-.1,-.1,.5,-.1,-.1,-.1,.5,-.1,-.1,-.1,-.1,-.1,-.1,-.1,.5,-.1,-.1,-.2,-.1" class="s5_94">and its inverse function, the natural loga-</text>
<text x="287" y="621" dx="0,-.1,-.1,-.1,-.1,-.1,0,-.1,-.1,-.1,-.1,-.1,-.1,-.1,-.1,-.1,0,-.1,-.1,-.1,0,-.1,-.1,-.5,-.1,-.1,0,-.1,-.1,0,-.1,-.1,-.1,-.1,-.1,-.1,0,-.1,-.1,-.1,0,-.1,-.1,-.1,-.1,-.1,-.1,-.1,0,-.1,-.1,-.1,0,-.1,-.1,-.1,-.3,-.1" class="s5_94">rithm function, are shown in Figure 13. Because the curve </text>
<text x="642" y="621" class="s7_94">y</text>
<text x="653" y="621" class="s9_94">-</text>
<text x="670" y="621" class="s7_94">e</text>
<text x="678" y="615" class="sa_94">x</text>
<text x="686" y="621" dx="0,-.1,-.1,-.1,-.1,-.1,-.1,-.1,0,-.1,-.1,-.1" class="s5_94">crosses the </text>
<text x="756" y="621" class="s7_94">y</text>
<text x="763" y="621" dx="0,-.1,-.1,-.1,-.1,-.1,0,-.1,-.1,-.1,0" class="s5_94">-axis with </text>
<text x="287" y="639" dx="0,-.1,-.7,-.1,-.1,-.1,-.1,-.1,-.7,-.1,-.1,-.7,-.1,-.1,-.7,-.1,-.1,-.7,-.1,-.1,-.1,-.1" class="s5_94">a slope of 1, it follo</text>
<text x="401" y="639" dx="0,-.1,-.1,-.7,-.1,-.1,-.1,-.1,-.7,-.1,-.1,-.1,-.7,-.1,-.1,-.1,-.1,-.1,-.1,-.1,-.1,-.7,-.1,-.1,-.1,-.3,-.1" class="sj_94">ws that the re²ected curve </text>
<text x="560" y="639" class="s7_94">y</text>
<text x="571" y="639" class="s9_94">-</text>
<text x="589" y="639" class="sj_94">ln</text>
<text x="604" y="639" class="s7_94">x</text>
<text x="613" y="639" dx="0,-.1,-.1,-.1,-.1,-.1,-.1,-.1,-.7,-.1,-.1,-.1" class="sj_94">crosses the </text>
<text x="682" y="639" class="s7_94">x</text>
<text x="689" y="639" dx="0,-.1,-.1,-.1,-.1,-.1,-.7,-.1,-.1,-.1,-.1,-.7,-.1,-.7,-.1,-.1,-.1,-.1,-.1,-.7,-.1,-.1,-.7,-.1" class="sj_94">-axis with a slope of 1.</text>
<text x="305" y="657" dx="0,0,0,.4,0,0,0,0,0,0,.4,0,0,0,0,.4,0,0,0,.4,0,0,0,0,0,.4,0,0,-.1,0,0,0,0,0,0,0,0,.4,0,0,0,0,0,0,0,0,0,.4,0,0,0,0,.4,0,0,0,0,.4,0,0,0,0,0,0,0,.4,0,0,0,0,.4,0,0,.4,0,0,0,.4,0,0,0,0,0,0,0" class="sj_94">In common with all other logarithmic functions with base greater than 1, the natural </text>
<text x="287" y="676" dx="0,0,0,-.1,0,0,0,0,0,0,.3,0,0,.3,0,0,.3,0,0,0,0,0,0,0,0,0,0,.3,0,0,0,0,0,0,0,0,.3,0,0,0,0,0,0,.3,0,0" class="sj_94">logarithm is an increasing function de±ned on </text>
<text x="573" y="676" class="s8_94">s</text>
<text x="579" y="676" class="sj_94">0, </text>
<text x="594" y="676" class="sk_94">`</text>
<text x="604" y="676" class="s8_94">d</text>
<text x="613" y="676" dx="0,0,0,0,.3,0,0,0" class="sj_94">and the </text>
<text x="663" y="676" class="s7_94">y</text>
<text x="669" y="676" dx="0,0,0,0,0,0,.3,0,0,.3,0,.3,-.2,0,0,0,0,0,0,0,.3,0,0,0,0,0" class="sj_94">-axis is a vertical asymp-</text>
<text x="287" y="694" dx="0,0,0,0,0,0,0,0,0,0,0,0,0,0,0,0,0,0,0,0,0,0,0,0,0,0,0,0,-.4,0,0,0,0,0,0,0,0,0,0,0" class="sj_94">tote. (This means that the values of ln </text>
<text x="520" y="694" class="s7_94">x</text>
<text x="531" y="694" dx="0,0,0,0,0,0,0,0,-.2,0,0,0,0,0,0,-.3,0,0,0,0,-.2,-.1,0,0,-.4,-.2,0,0,0,0" class="sj_94">become very large negative as </text>
<text x="719" y="694" class="s7_94">x</text>
<text x="729" y="694" class="sj_94">approaches 0.)</text>
<text x="287" y="731" dx="0,.3,.3,.3,.3,.3,.3,.2" class="sd_94">EXAMPLE </text>
<text x="358" y="731" dx="0,-1.3" class="se_94">11</text>
<text x="383" y="731" dx="0,0,-.2,0,0,0,0,0,0,0,0,0,0,0,0,0,0,0,0,0,0,0,0,0,0,0,0,0,0,0,0,0,0" class="sj_94">Sketch the graph of the function </text>
<text x="583" y="731" class="s7_94">y</text>
<text x="595" y="731" class="s9_94">-</text>
<text x="612" y="731" class="sj_94">ln</text>
<text x="624" y="731" class="s8_94">s</text>
<text x="630" y="731" class="s7_94">x</text>
<text x="641" y="731" class="sk_94">2</text>
<text x="658" y="731" class="sj_94">2</text>
<text x="666" y="731" class="s8_94">d</text>
<text x="676" y="731" class="sk_94">2</text>
<text x="693" y="731" class="sj_94">1.</text>
<text x="287" y="758" dx="0,.3,.3,.3,.3,.3,.3,.3,.1" class="sg_94">SOLUTION </text>
<text x="358" y="758" dx="0,-1.3,-.1,-.1,-.1,-.1,-.1,-.1,-.1,-.1,-.1,-.1,-.1,-.1,-.1,-.1,-.1,-.1,-.1,-.1,-.1,-.1,-.1,-.1,-.1,-.1,-.1" class="sj_94">We start with the graph of </text>
<text x="519" y="758" class="s7_94">y</text>
<text x="531" y="758" class="s9_94">-</text>
<text x="548" y="758" class="sj_94">ln</text>
<text x="564" y="758" class="s7_94">x</text>
<text x="574" y="758" dx="0,-.1,-.1,-.1,-.1,-.5,-.3,-.1,-.1,-.1,-.1,-.1,-.1,-.1,-.1,-.1,-.1,-.1,-.1,-.1,-.1,-.1,-.1,-.1,-.1,-.1,-.1,-.1,-.1,-.1,-.1,-.1,-.1,-.1,-.1,-.1,-.1,-.1,-.1,-.1,-.1,-.4,0" class="sj_94">as given in Figure 13. Using the transfor- </text>
<text x="287" y="777" dx="0,.1,.1,.1,.1,.1,.1,.1,.1,.1,.1,.1,.1,.1,.1,.1,.1,.1,.1,.1,.1,.1,.1,.1,.1,.1,.1,.1,.1,.1,.1,.1,.1,.1,.1,.1,.1,.1,.1,.1,.1,.1,.1,.1,.1,.1,.1,.1,.1,.1,.1,.1,.1,.1,.1,.1,.1,.1,.1,.1,.1,.1,.1,.1,.1,.1,.1,.1,.1,.1,.1,.1,.1,.1,.1,.1,.1" class="sj_94">mations of Section 1.3, we shift it 2 units to the right to get the graph of </text>
<text x="735" y="777" class="s7_94">y</text>
<text x="746" y="777" class="s9_94">-</text>
<text x="764" y="777" class="sj_94">ln</text>
<text x="775" y="777" class="s8_94">s</text>
<text x="781" y="777" class="s7_94">x</text>
<text x="793" y="777" class="sk_94">2</text>
<text x="810" y="777" class="sj_94">2</text>
<text x="817" y="777" class="s8_94">d</text>
<text x="287" y="795" dx="0,.1,.1,.1,.1,.1,.1,.1,.1,.1,.1,.1,.1,.1,.1,.1,.1,.1,.1,.1,.1,.1,.1,.1,.1,.1,.1,.1,.1,.1,-.3,.1,.1,-.1,.1,.1,.1,.1,.1,.1,.1,.1,.1,.1,.1,.1,.1,.1,.1,.1,.1,.1,.1,.1,.1,.1,.1" class="sj_94">and then we shift it 1 unit downward to get the graph of </text>
<text x="635" y="795" class="s7_94">y</text>
<text x="647" y="795" class="s9_94">-</text>
<text x="664" y="795" class="sj_94">ln</text>
<text x="676" y="795" class="s8_94">s</text>
<text x="681" y="795" class="s7_94">x</text>
<text x="693" y="795" class="sk_94">2</text>
<text x="710" y="795" class="sj_94">2</text>
<text x="718" y="795" class="s8_94">d</text>
<text x="727" y="795" class="sk_94">2</text>
<text x="745" y="795" dx="0,0,.1,.1,.1,.1,.1,0" class="sj_94">1. (See </text>
<text x="287" y="813" dx="0,.1,.1,.1,.1,.1,.1,.1,.1,.1,.1" class="sj_94">Figure 14.)</text>
<path d="M402.3,1000.5C406.2,903.4,453,886.4,524.9,868" class="g4_94"/>
<path d="M424.4,917.5c0,-.9,.8,-1.7,1.7,-1.7c1,0,1.7,.8,1.7,1.7c0,1,-.7,1.8,-1.7,1.8c-.9,0,-1.7,-.8,-1.7,-1.8Z" class="g5_94"/>
<path d="M424.4,917.5c0,-.9,.8,-1.7,1.7,-1.7c1,0,1.7,.8,1.7,1.7c0,1,-.7,1.8,-1.7,1.8c-.9,0,-1.7,-.8,-1.7,-1.8Z" class="g6_94"/>
<path fill-rule="evenodd" d="M526,917.6l-1.7,-2.4l6.6,2.4l-6.6,2.5Z" class="g7_94"/>
<path fill-rule="evenodd" d="M348.7,848.1l-2.4,1.7l2.4,-6.5l2.4,6.5Z" class="g7_94"/>
<text x="338" y="928" class="sl_94">0</text>
<text x="338" y="850" class="sm_94">y</text>
<text x="390" y="929" class="sl_94">2</text>
<text x="524" y="928" class="sn_94">x</text>
<text x="429" y="929" class="so_94">(3, 0)</text>
<text x="405" y="857" class="sp_94">x=2</text>
<text x="468" y="899" class="sp_94">y=</text>
<text x="489" y="899" class="sq_94">ln</text>
<text x="499" y="899" class="sp_94">(x-2)</text>
<path d="M426.1,914.5v6.1m-103.2,-3H526.5M348.7,1003V847.8" class="g8_94"/>
<path d="M399.3,849.4V1002" class="g9_94"/>
<path fill-rule="evenodd" d="M257.3,917.7l-1.6,-2.4l6.5,2.4l-6.5,2.4Z" class="g7_94"/>
<path fill-rule="evenodd" d="M80.1,848.1l-2.4,1.6l2.4,-6.5l2.5,6.5Z" class="g7_94"/>
<path d="M105.1,914.7v6.1" class="g8_94"/>
<text x="70" y="928" class="so_94">0</text>
<text x="69" y="849" class="so_94">y</text>
<text x="254" y="929" class="so_94">x</text>
<text x="181" y="888" class="sp_94">y=</text>
<text x="202" y="888" class="sq_94">ln</text>
<text x="215" y="888" class="sp_94">x</text>
<text x="106" y="931" class="so_94">(1, 0)</text>
<path d="M103.4,917.6c0,-.9,.7,-1.7,1.7,-1.7c.9,0,1.7,.8,1.7,1.7c0,1,-.8,1.8,-1.7,1.8c-1,0,-1.7,-.8,-1.7,-1.8Z" class="g7_94"/>
<path d="M103.4,917.6c0,-.9,.7,-1.7,1.7,-1.7c.9,0,1.7,.8,1.7,1.7c0,1,-.8,1.8,-1.7,1.8c-1,0,-1.7,-.8,-1.7,-1.8Z" class="ga_94"/>
<path d="M54.2,917.7H257.9M80.1,1003.1V843.6" class="g8_94"/>
<path d="M82.2,1002.8C84.9,903.6,122.1,884.4,255.6,859.6" class="gb_94"/>
<path d="M697.3,949.3c0,-.9,.7,-1.7,1.7,-1.7c.9,0,1.7,.8,1.7,1.7c0,1,-.8,1.7,-1.7,1.7c-1,0,-1.7,-.7,-1.7,-1.7Z" class="gc_94"/>
<path d="M697.3,949.3c0,-.9,.7,-1.7,1.7,-1.7c.9,0,1.7,.8,1.7,1.7c0,1,-.8,1.7,-1.7,1.7c-1,0,-1.7,-.7,-1.7,-1.7Z" class="gd_94"/>
<path fill-rule="evenodd" d="M798.7,917.9L797,915.5l6.6,2.4l-6.6,2.5Z" class="g7_94"/>
<path fill-rule="evenodd" d="M621.3,848.6l-2.4,1.7l2.4,-6.6l2.5,6.6Z" class="g7_94"/>
<text x="612" y="928" class="so_94">0</text>
<text x="610" y="850" class="so_94">y</text>
<text x="663" y="928" class="so_94">2</text>
<text x="796" y="929" class="so_94">x</text>
<text x="679" y="856" class="sp_94">x=2</text>
<text x="701" y="960" class="so_94">(3, _1)</text>
<text x="710" y="894" class="sp_94">y=</text>
<text x="731" y="894" class="sq_94">ln</text>
<text x="741" y="894" class="sp_94">(x-2)-1</text>
<path d="M675.4,1001.5c13.2,-66.3,59.7,-85.9,122.8,-102.1" class="ge_94"/>
<path d="M595.5,918H799.1m-177.8,85.3V848.1" class="g8_94"/>
<path d="M672.6,850.5v151.9" class="g9_94"/>
<path d="M239.5,551L60.1,730.4" class="gf_94"/>
<path d="M122.1,734.7c2.1,-66.1,36,-86.6,124,-104.5" class="ge_94"/>
<path d="M55.8,668.4c66.1,-2.1,86.6,-36,104.5,-124" class="g4_94"/>
<path d="M56.2,670.6H252.7" class="g8_94"/>
<path fill-rule="evenodd" d="M252.7,670.6L251,668.2l6.6,2.4l-6.6,2.5Z" class="g7_94"/>
<path d="M119.9,735V547.2" class="g8_94"/>
<path fill-rule="evenodd" d="M119.9,547.2l-2.4,1.6l2.4,-6.5l2.4,6.5Z" class="g7_94"/>
<text x="109" y="548" class="sm_94">y</text>
<text x="108" y="647" class="sr_94">1</text>
<text x="109" y="667" class="sr_94">0</text>
<text x="250" y="682" class="so_94">x</text>
<text x="143" y="688" class="sr_94">1</text>
<path d="M116.8,645.9h6.1m21.7,21.7v6.1" class="g8_94"/>
<text x="221" y="583" class="ss_94">y=x</text>
<text x="162" y="569" class="st_94">y=´</text>
<text x="205" y="653" class="st_94">y=</text>
<text x="225" y="653" class="sq_94">ln</text>
<text x="239" y="653" class="st_94">x</text>
<text x="53" y="761" dx="0,.3,.3,.3,.3,.3,.1" class="su_94">FIGURE </text>
<text x="106" y="761" class="sv_94">13</text>
<text x="53" y="778" class="sw_94">The graph of </text>
<text x="128" y="778" class="sx_94">y</text>
<text x="138" y="778" class="sy_94">-</text>
<text x="154" y="778" class="sw_94">ln </text>
<text x="168" y="778" class="sx_94">x</text>
<text x="177" y="778" class="sw_94">is the re²ection </text>
<text x="53" y="795" class="sw_94">of the graph of </text>
<text x="138" y="795" class="sx_94">y</text>
<text x="148" y="795" class="sy_94">-</text>
<text x="164" y="795" class="sx_94">e</text>
<text x="171" y="790" class="sz_94">x</text>
<text x="178" y="795" class="sw_94">about the line </text>
<text x="53" y="812" class="sx_94">y</text>
<text x="64" y="812" class="sy_94">-</text>
<text x="79" y="812" class="sx_94">x</text>
<text x="87" y="812" class="sw_94">.</text>
<text x="53" y="1027" dx="0,.3,.3,.3,.3,.3,.1" class="su_94">FIGURE </text>
<text x="106" y="1027" class="sv_94">14</text>
<text x="813" y="1027" class="sh_94">■</text>
<text x="121" y="1076" class="s10_94">Copyright 2016 Cengage Learning. All Rights Reserved. May not be copied, scanned, or duplicated, in whole or in part. Due to electronic rights, some third party content may be suppressed from the eBook and/or eChapter(s).</text>
<text x="106" y="1087" class="s10_94">Editorial review has deemed that any suppressed content does not materially affect the overall learning experience. Cengage Learning reserves the right to remove additional content at any time if subsequent rights restrictions require it.</text>

</g>

<!-- Any embedded fonts defined here -->
<style type="text/css" ><![CDATA[

@font-face {
	font-family: MathematicalPiLTStd-1_rr;
	src: url("fonts/MathematicalPiLTStd-1_rr.woff") format("woff");
}

@font-face {
	font-family: MathematicalPiLTStd-3_ry;
	src: url("fonts/MathematicalPiLTStd-3_ry.woff") format("woff");
}

@font-face {
	font-family: MathematicalPiLTStd-5_vb;
	src: url("fonts/MathematicalPiLTStd-5_vb.woff") format("woff");
}

@font-face {
	font-family: MyriadPro-BoldSemiCn_90;
	src: url("fonts/MyriadPro-BoldSemiCn_90.woff") format("woff");
}

@font-face {
	font-family: MyriadPro-Bold_74;
	src: url("fonts/MyriadPro-Bold_74.woff") format("woff");
}

@font-face {
	font-family: MyriadPro-Regular_4i;
	src: url("fonts/MyriadPro-Regular_4i.woff") format("woff");
}

@font-face {
	font-family: MyriadPro-Semibold_49;
	src: url("fonts/MyriadPro-Semibold_49.woff") format("woff");
}

@font-face {
	font-family: TECHMath-Mix_-x;
	src: url("fonts/TECHMath-Mix_-x.woff") format("woff");
}

@font-face {
	font-family: TECHMath-Mix_13x;
	src: url("fonts/TECHMath-Mix_13x.woff") format("woff");
}

@font-face {
	font-family: TECHMath-Mix_16e;
	src: url("fonts/TECHMath-Mix_16e.woff") format("woff");
}

@font-face {
	font-family: TECHMath-Mix_1bc;
	src: url("fonts/TECHMath-Mix_1bc.woff") format("woff");
}

@font-face {
	font-family: TECHMath-Mix_1ic;
	src: url("fonts/TECHMath-Mix_1ic.woff") format("woff");
}

@font-face {
	font-family: TECHMath-Mix_1jz;
	src: url("fonts/TECHMath-Mix_1jz.woff") format("woff");
}

@font-face {
	font-family: TECHMath-Mix_1k1;
	src: url("fonts/TECHMath-Mix_1k1.woff") format("woff");
}

@font-face {
	font-family: Times-Roman_4n;
	src: url("fonts/Times-Roman_4n.woff") format("woff");
}

@font-face {
	font-family: Times-Roman_n6;
	src: url("fonts/Times-Roman_n6.woff") format("woff");
}

@font-face {
	font-family: TimesLTStd-Italic_o3;
	src: url("fonts/TimesLTStd-Italic_o3.woff") format("woff");
}

@font-face {
	font-family: TimesLTStd-Roman_143;
	src: url("fonts/TimesLTStd-Roman_143.woff") format("woff");
}

@font-face {
	font-family: TimesLTStd-Roman_6c;
	src: url("fonts/TimesLTStd-Roman_6c.woff") format("woff");
}

@font-face {
	font-family: ZapfDingbatsITC_my;
	src: url("fonts/ZapfDingbatsITC_my.woff") format("woff");
}

]]></style>

</svg>
