<?xml version="1.0" encoding="UTF-8" standalone="no"?>
<!DOCTYPE svg PUBLIC "-//W3C//DTD SVG 1.1//EN"
"http://www.w3.org/Graphics/SVG/1.1/DTD/svg11.dtd">


<!-- Page 97 -->
<svg x="0" y="0" width="931" height="1096" viewBox="0 0 931 1096" version="1.1" xmlns="http://www.w3.org/2000/svg" xmlns:xlink="http://www.w3.org/1999/xlink"
style="display: block;margin-left: auto;margin-right: auto;">
<defs>
<clipPath id="c_97"><path d="M0,0H931V1096H0Z"/></clipPath>
<clipPath id="c0_97"><path d="M680.5,256V228h94.3v28Z"/></clipPath>
<clipPath id="c1_97"><path d="M428.7,447.5V430.4H540.4v17.1Z"/></clipPath>
<clipPath id="c2_97"><path d="M480.4,513.8V478.4H740.3v35.4Z"/></clipPath>
<clipPath id="c3_97"><path d="M507.9,664.3V628.1H711.3v36.2Z"/></clipPath>

<style type="text/css"><![CDATA[
text { white-space: pre; }
path, image { pointer-events: none; }

.s1_97{
font-size: 12.22px;
font-family: MyriadPro-Semibold_49;
fill: #231F20;
}
.s2_97{
font-size: 13.75px;
font-family: MyriadPro-Semibold_49;
fill: #231F20;
}
.s3_97{
font-size: 12.22px;
font-family: MyriadPro-Regular_4i;
fill: #231F20;
}
.s4_97{
font-size: 15.28px;
font-family: MyriadPro-Semibold_49;
fill: #231F20;
}
.s5_97{
font-size: 15.28px;
font-family: TimesLTStd-Roman_143;
fill: #231F20;
}
.s6_97{
font-size: 9.17px;
font-family: MathematicalPiLTStd-1_rr;
fill: #231F20;
}
.s7_97{
font-size: 9.17px;
font-family: TimesLTStd-Roman_143;
fill: #231F20;
}
.s8_97{
font-size: 15.28px;
font-family: MathematicalPiLTStd-3_ry;
fill: #231F20;
}
.s9_97{
font-size: 15.28px;
font-family: MathematicalPiLTStd-1_rr;
fill: #231F20;
}
.sa_97{
font-size: 15.28px;
font-family: MathematicalPi-One-Italic_x2;
fill: #231F20;
}
.sb_97{
font-size: 15.28px;
font-family: TimesLTStd-Bold_oh;
fill: #231F20;
}
.sc_97{
font-size: 15.28px;
font-family: TimesLTStd-Italic_o3;
fill: #231F20;
}
.sd_97{
font-size: 15.28px;
font-family: MathematicalPiLTStd-5_vb;
fill: #231F20;
}
.se_97{
font-size: 15.28px;
font-family: UniversalChemicalPi-T_-_;
fill: #231F20;
}
.sf_97{
font-size: 16.81px;
font-family: MyriadPro-BoldSemiCn_90;
fill: #EC008C;
}
.sg_97{
font-size: 17.57px;
font-family: MyriadPro-BoldSemiCn_90;
fill: #EC008C;
}
.sh_97{
font-size: 13.75px;
font-family: MyriadPro-Semibold_49;
fill: #EC008C;
}
.si_97{
font-size: 15.28px;
font-family: BeaconDingbatsTypeOne_12w;
fill: #231F20;
}
.sj_97{
font-size: 13.75px;
font-family: MathematicalPiLTStd-3_ry;
fill: #00AEEF;
}
.sk_97{
font-size: 13.75px;
font-family: TimesLTStd-Roman_143;
fill: #00AEEF;
}
.sl_97{
font-size: 13.75px;
font-family: TimesLTStd-Italic_o3;
fill: #00AEEF;
}
.sm_97{
font-size: 13.75px;
font-family: MathematicalPiLTStd-1_rr;
fill: #00AEEF;
}
.sn_97{
font-size: 13.75px;
font-family: MathematicalPi-One-Italic_x2;
fill: #00AEEF;
}
.so_97{
font-size: 12.99px;
font-family: ZapfDingbatsITC_my;
fill: #EC008C;
}
.sp_97{
font-size: 15.28px;
font-family: MathematicalPiLTStd-6_13j;
fill: #231F20;
}
.sq_97{
font-size: 9.17px;
font-family: TECHMath-Mix_1ig;
fill: #231F20;
}
.sr_97{
font-size: 9.17px;
font-family: TECHMath-Mix_1gv;
fill: #231F20;
}
.ss_97{
font-size: 12.22px;
font-family: TECHMath-Mix_191;
fill: #231F20;
}
.st_97{
font-size: 12.22px;
font-family: TECHMath-Mix_1ew;
fill: #231F20;
}
.su_97{
font-size: 12.22px;
font-family: TECHMath-Mix_1cp;
fill: #231F20;
}
.sv_97{
font-size: 12.22px;
font-family: TECHMath-Mix_1ic;
fill: #231F20;
}
.sw_97{
font-size: 15.28px;
font-family: TimesLTStd-Roman_6c;
fill: #231F20;
}
.sx_97{
font-size: 9.17px;
font-family: TimesLTStd-Roman_6c;
fill: #231F20;
}
.sy_97{
font-size: 14.51px;
font-family: MyriadPro-Bold_74;
fill: #231F20;
}
.sz_97{
font-size: 15.28px;
font-family: MyriadPro-Bold_74;
fill: #231F20;
}
.s10_97{
font-size: 13.75px;
font-family: TimesLTStd-Italic_o3;
fill: #231F20;
}
.s11_97{
font-size: 13.75px;
font-family: MathematicalPiLTStd-5_vb;
fill: #231F20;
}
.s12_97{
font-size: 13.75px;
font-family: TimesLTStd-Roman_6c;
fill: #231F20;
}
.s13_97{
font-size: 8.25px;
font-family: MathematicalPiLTStd-1_rr;
fill: #231F20;
}
.s14_97{
font-size: 8.25px;
font-family: TimesLTStd-Roman_6c;
fill: #231F20;
}
.s15_97{
font-size: 12.22px;
font-family: TECHMath-Mix_1jz;
fill: #231F20;
}
.s16_97{
font-size: 12.22px;
font-family: TECHMath-Mix_12-;
fill: #231F20;
}
.s17_97{
font-size: 12.22px;
font-family: TECHMath-Mix_1ac;
fill: #231F20;
}
.s18_97{
font-size: 12.22px;
font-family: TECHMath-Mix_1c_;
fill: #231F20;
}
.s19_97{
font-size: 12.22px;
font-family: TECHMath-Mix_x7;
fill: #231F20;
}
.s1a_97{
font-size: 9.17px;
font-family: TECHMath-Mix_1c_;
fill: #231F20;
}
.s1b_97{
font-size: 12.99px;
font-family: TECHMath-Mix_1kh;
fill: #231F20;
}
.s1c_97{
font-size: 12.99px;
font-family: TECHMath-Mix_1kr;
fill: #231F20;
}
.s1d_97{
font-size: 13.75px;
font-family: MathematicalPiLTStd-1_rr;
fill: #231F20;
}
.s1e_97{
font-size: 9.63px;
font-family: MathematicalPi-One-Italic_x2;
fill: #231F20;
}
.s1f_97{
font-size: 9.63px;
font-family: TimesLTStd-Roman_6c;
fill: #231F20;
}
.s1g_97{
font-size: 9.17px;
font-family: TECHMath-Mix_1kr;
fill: #231F20;
}
.s1h_97{
font-size: 7.64px;
font-family: Times-Roman_4n;
fill: #000000;
}

.g0_97{
fill: none;
stroke: #231F20;
stroke-width: 0.763;
stroke-linecap: butt;
stroke-linejoin: miter;
}
.g1_97{
fill: none;
stroke: #00AEEF;
stroke-width: 0.763;
stroke-linecap: butt;
stroke-linejoin: miter;
stroke-miterlimit: 4;
}
.g2_97{
fill: none;
stroke: #EC008C;
stroke-width: 0.916;
stroke-linecap: butt;
stroke-linejoin: round;
stroke-miterlimit: 3;
}
.g3_97{
fill: none;
stroke: #231F20;
stroke-width: 0.763;
stroke-linecap: butt;
stroke-linejoin: miter;
stroke-miterlimit: 3;
stroke-dasharray: 9,4;
}
.g4_97{
fill: none;
stroke: #231F20;
stroke-width: 0.763;
stroke-linecap: butt;
stroke-linejoin: round;
stroke-miterlimit: 3;
}
.g5_97{
fill: none;
stroke: #231F20;
stroke-width: 0.458;
stroke-linecap: butt;
stroke-linejoin: miter;
stroke-miterlimit: 3;
}
.g6_97{
fill: none;
stroke: #231F20;
stroke-width: 0.611;
stroke-linecap: butt;
stroke-linejoin: miter;
stroke-miterlimit: 3;
}
.g7_97{
fill: #231F20;
}
.g8_97{
fill: none;
stroke: #231F20;
stroke-width: 0.381;
stroke-linecap: butt;
stroke-linejoin: miter;
stroke-miterlimit: 3;
}
.g9_97{
fill: #EC008C;
}
.ga_97{
fill: none;
stroke: #EC008C;
stroke-width: 0.763;
stroke-linecap: butt;
stroke-linejoin: miter;
stroke-miterlimit: 3;
}
.gb_97{
fill: none;
stroke: #00AEEF;
stroke-width: 0.916;
stroke-linecap: butt;
stroke-linejoin: round;
stroke-miterlimit: 3;
}
.gc_97{
fill: none;
stroke: #231F20;
stroke-width: 0.534;
stroke-linecap: butt;
stroke-linejoin: miter;
stroke-miterlimit: 3;
}
.gd_97{
fill: none;
stroke: #231F20;
stroke-width: 0.481;
stroke-linecap: butt;
stroke-linejoin: miter;
}

]]></style>

</defs>
<g clip-path="url(#c_97)">
<path d="M0,0
L0,1096
L931,1096
L931,0 Z " 
fill="#FFFFFF" stroke="none"/>
<text x="547" y="64" dx="0,.2,.2,.5,.2,.2,.2" class="s1_97">SECTION</text>
<text x="599" y="64" class="s2_97">1.5</text>
<text x="629" y="64" dx="0,.2,0,0,.1,.1,.1,.1,.1,-.3,.1,.1,.3,.1,.1,.1,.1,.1,.1,.1,.1,.1,.1,0,.1,.1,.1,.2,.1,.1,.1,.1,.1" class="s3_97">Inverse Functions and Logarithms </text>
<text x="862" y="64" class="s4_97">65</text>
<text x="360" y="109" dx="0,0,0,0,.3,0,-.6,-.2,0,0,0,0,.3,0,0,0,0,0,0,.3,0,0,0,0,0,0,0,0,0,.3,0,0" class="s5_97">The inverse cosine function, cos</text>
<text x="558" y="103" class="s6_97">2</text>
<text x="565" y="103" class="s7_97">1</text>
<text x="570" y="109" dx="0,0,.3,0,0,0,.3,0,0,0,0,0,0" class="s5_97">, has domain </text>
<text x="652" y="109" class="s8_97">f</text>
<text x="657" y="109" class="s9_97">2</text>
<text x="670" y="109" class="s5_97">1, 1</text>
<text x="693" y="109" class="s8_97">g</text>
<text x="702" y="109" dx="0,0,0,0,.3,0,0,0,0,0" class="s5_97">and range </text>
<text x="766" y="109" class="s8_97">f</text>
<text x="771" y="109" class="s5_97">0, </text>
<text x="786" y="109" class="sa_97">°</text>
<text x="797" y="109" class="s8_97">g</text>
<text x="802" y="109" dx="0,0,.3,0,0,0,.3,0,0,0,0,0,.3,0,0" class="s5_97">. ±ts graph is </text>
<text x="342" y="128" dx="0,0,0,-.4,0,0,0,0,0,0,0,0,0,0,0,0,0,0,0" class="s5_97">shown in Figure 22.</text>
<text x="360" y="146" dx="0,0,0,0,4.6,0,0,0,0,0,0,0,4.6,0,0,0,0,0,0,0,0,4.6,0,0,0,4.6,0,0,4.6,0,0,0,0,4.6,0,0,0,0,0,0,0,0,0,0,4.6,0,0,4.6,0,0,0,0,0,0,0,0,0,0,0,4.6,0,0,4.6,0,0,4.6,0,0,0,4.6,0,0,0,0,0,-.4,0,0" class="s5_97">The tangent function can be made one-to-one by restricting it to the interval </text>
<text x="342" y="164" class="s8_97">s</text>
<text x="347" y="164" class="s9_97">2</text>
<text x="360" y="164" class="sa_97">°</text>
<text x="370" y="164" class="s8_97">y</text>
<text x="378" y="164" class="s5_97">2, </text>
<text x="393" y="164" class="sa_97">°</text>
<text x="403" y="164" class="s8_97">y</text>
<text x="412" y="164" class="s5_97">2</text>
<text x="419" y="164" class="s8_97">d</text>
<text x="424" y="164" dx="0,0,.4,0,0,0,0,.6,0,0" class="s5_97">. Thus the</text>
<text x="491" y="164" dx="0,0,-.6,-.2,0,0,0,0,.6,0,0,0,0,0,0,0,.6,0,0,0,0,0,0,0" class="sb_97">inverse tangent function</text>
<text x="653" y="164" dx="0,0,0,.6,0,0,0,0,0,0,.6,0,0,.6,0,0,0,.6,0,-.6,-.2,0,0,0,0,.6,0,0,.6,0,0,0,.6,0,0,0,0" class="s5_97">is deIned as the inverse of the func-</text>
<text x="342" y="183" class="s5_97">tion </text>
<text x="372" y="183" class="sc_97">f</text>
<text x="379" y="183" class="s8_97">s</text>
<text x="385" y="183" class="sc_97">x</text>
<text x="391" y="183" class="s8_97">d</text>
<text x="401" y="183" class="sd_97">-</text>
<text x="418" y="183" class="s5_97">tan </text>
<text x="441" y="183" class="sc_97">x</text>
<text x="448" y="183" class="s5_97">, </text>
<text x="456" y="183" class="s9_97">2</text>
<text x="468" y="183" class="sa_97">°</text>
<text x="479" y="183" class="s8_97">y</text>
<text x="487" y="183" class="s5_97">2</text>
<text x="499" y="183" class="s9_97">,</text>
<text x="516" y="183" class="sc_97">x</text>
<text x="528" y="183" class="s9_97">,</text>
<text x="545" y="183" class="sa_97">°</text>
<text x="555" y="183" class="s8_97">y</text>
<text x="564" y="183" dx="0,0,0,.6,0,0,0,0,.6,0,0,0,0,0,0,.6,0,0,0,0,.6,0,0,.6,0,0,.6,0,0,0,0,0,0,0,.6,0,0,.6,0,0" class="s5_97">2. (See Figure 23.) ±t is denoted by tan</text>
<text x="803" y="177" class="s6_97">2</text>
<text x="811" y="177" class="s7_97">1</text>
<text x="820" y="183" dx="0,0,0,.6,0,0,0,0,0,0" class="s5_97">or arctan.</text>
<text x="445" y="245" class="s5_97">tan</text>
<text x="464" y="239" class="s6_97">2</text>
<text x="472" y="239" class="s7_97">1</text>
<text x="476" y="245" class="sc_97">x</text>
<text x="488" y="245" class="sd_97">-</text>
<text x="505" y="245" class="sc_97">y</text>
<text x="527" y="245" dx="0,-3.1" class="se_97">&amp;?</text>
<text x="570" y="245" class="s5_97">tan </text>
<text x="592" y="245" class="sc_97">y</text>
<text x="603" y="245" class="sd_97">-</text>
<text x="621" y="245" class="sc_97">x</text>
<text x="643" y="245" class="s5_97">and </text>
<text x="680" y="245" class="s9_97">2</text>
<text x="697" y="234" class="sa_97">°</text>
<path d="M693.6,240.3h16.3" class="g0_97"/>
<text x="697" y="256" class="s5_97">2</text>
<text x="714" y="245" class="s9_97">,</text>
<text x="731" y="245" class="sc_97">y</text>
<text x="742" y="245" class="s9_97">,</text>
<text x="762" y="234" class="sa_97">°</text>
<g clip-path="url(#c0_97)">
<path d="M760.4,240.3h14.8" class="g0_97"/>
</g>
<text x="763" y="256" class="s5_97">2</text>
<path d="M407.6,212.6c0,0,-3.1,0,-3.1,3v48.2c0,0,0,3,3.1,3H813.2c0,0,3,0,3,-3V215.6c0,0,0,-3,-3,-3H407.6Z" class="g1_97"/>
<text x="342" y="313" dx="0,.3,.3,.3,.3,.3,.3,.2" class="sf_97">EXAMPLE </text>
<text x="413" y="313" class="sg_97">13</text>
<text x="439" y="313" dx="0,0,0,0,0,0,0,0,0,0,0,0,0,0,-.2,0,0,0,0,0,0,0,0,0,0,0,0" class="s5_97">Simplify the expression cos</text>
<text x="608" y="313" class="s8_97">s</text>
<text x="613" y="313" class="s5_97">tan</text>
<text x="632" y="306" class="s6_97">2</text>
<text x="639" y="306" class="s7_97">1</text>
<text x="644" y="313" class="sc_97">x</text>
<text x="651" y="313" class="s8_97">d</text>
<text x="656" y="313" class="s5_97">.</text>
<text x="342" y="343" dx="0,.3,.3,.3,.3,.3,.3,.3,.1,0,0" class="sh_97">SOLUTION 1 </text>
<text x="424" y="343" class="s5_97">Let </text>
<text x="448" y="343" class="sc_97">y</text>
<text x="460" y="343" class="sd_97">-</text>
<text x="477" y="343" class="s5_97">tan</text>
<text x="495" y="337" class="s6_97">2</text>
<text x="503" y="337" class="s7_97">1</text>
<text x="508" y="343" class="sc_97">x</text>
<text x="515" y="343" dx="0,0,-.3,0,0,0,0,0,0,0,0" class="s5_97">. Then tan </text>
<text x="580" y="343" class="sc_97">y</text>
<text x="591" y="343" class="sd_97">-</text>
<text x="608" y="343" class="sc_97">x</text>
<text x="619" y="343" class="s5_97">and </text>
<text x="645" y="343" class="s9_97">2</text>
<text x="657" y="343" class="sa_97">°</text>
<text x="668" y="343" class="s8_97">y</text>
<text x="676" y="343" class="s5_97">2</text>
<text x="688" y="343" class="s9_97">,</text>
<text x="705" y="343" class="sc_97">y</text>
<text x="717" y="343" class="s9_97">,</text>
<text x="734" y="343" class="sa_97">°</text>
<text x="744" y="343" class="s8_97">y</text>
<text x="752" y="343" dx="0,0,0,-.5,-1.2,0,0,-.2,0,0,0,0,0,0,0,0,0,0" class="s5_97">2. We want to Ind </text>
<text x="342" y="361" class="s5_97">cos </text>
<text x="366" y="361" class="sc_97">y</text>
<text x="376" y="361" dx="0,-.3,0,0,0,0,0,0,0,0,0,0,0,0,0" class="s5_97">but, since tan </text>
<text x="461" y="361" class="sc_97">y</text>
<text x="471" y="361" dx="0,0,0,0,0,0,-.4,0,0,0,0,0,0,0,0,0,0,0,0,0,0,0,0,0,0,0,0,0,0,0,0,0,0,0" class="s5_97">is known, it is easier to Ind sec </text>
<text x="667" y="361" class="sc_97">y</text>
<text x="677" y="361" class="s5_97">Irst:</text>
<text x="432" y="401" class="s5_97">sec</text>
<text x="451" y="395" class="s7_97">2</text>
<text x="457" y="401" class="sc_97">y</text>
<text x="469" y="401" class="sd_97">-</text>
<text x="486" y="401" class="s5_97">1</text>
<text x="498" y="401" class="s9_97">1</text>
<text x="516" y="401" class="s5_97">tan</text>
<text x="534" y="395" class="s7_97">2</text>
<text x="540" y="401" class="sc_97">y</text>
<text x="552" y="401" class="sd_97">-</text>
<text x="569" y="401" class="s5_97">1</text>
<text x="581" y="401" class="s9_97">1</text>
<text x="598" y="401" class="sc_97">x</text>
<text x="607" y="395" class="s7_97">2</text>
<text x="432" y="444" class="s5_97">sec </text>
<text x="455" y="444" class="sc_97">y</text>
<text x="467" y="444" class="sd_97">-</text>
<text x="484" y="444" class="si_97">s</text>
<text x="495" y="444" class="s5_97">1</text>
<text x="508" y="444" class="s9_97">1</text>
<text x="525" y="444" class="sc_97">x</text>
<text x="533" y="439" class="s7_97">2 </text>
<g clip-path="url(#c1_97)">
<path d="M496,430.8h44.8" class="g0_97"/>
</g>
<text x="570" y="444" class="sj_97">s</text>
<text x="575" y="444" class="sk_97">since sec </text>
<text x="628" y="444" class="sl_97">y</text>
<text x="638" y="444" class="sm_97">.</text>
<text x="653" y="444" class="sk_97">0 for </text>
<text x="683" y="444" class="sm_97">2</text>
<text x="695" y="444" class="sn_97">°</text>
<text x="704" y="444" class="sj_97">y</text>
<text x="711" y="444" class="sk_97">2</text>
<text x="722" y="444" class="sm_97">,</text>
<text x="738" y="444" class="sl_97">y</text>
<text x="748" y="444" class="sm_97">,</text>
<text x="763" y="444" class="sn_97">°</text>
<text x="773" y="444" class="sj_97">y</text>
<text x="780" y="444" class="sk_97">2</text>
<text x="787" y="444" class="sj_97">d</text>
<text x="342" y="499" class="s5_97">Thus </text>
<text x="480" y="499" class="s5_97">cos</text>
<text x="500" y="499" class="s8_97">s</text>
<text x="505" y="499" class="s5_97">tan</text>
<text x="524" y="493" class="s6_97">2</text>
<text x="532" y="493" class="s7_97">1</text>
<text x="536" y="499" class="sc_97">x</text>
<text x="543" y="499" class="s8_97">d</text>
<text x="553" y="499" class="sd_97">-</text>
<text x="570" y="499" class="s5_97">cos </text>
<text x="594" y="499" class="sc_97">y</text>
<text x="605" y="499" class="sd_97">-</text>
<text x="636" y="488" class="s5_97">1</text>
<path d="M623.5,494.5h34.6" class="g0_97"/>
<text x="625" y="510" class="s5_97">sec </text>
<text x="648" y="510" class="sc_97">y</text>
<text x="662" y="499" class="sd_97">-</text>
<text x="706" y="488" class="s5_97">1</text>
<g clip-path="url(#c2_97)">
<path d="M680,494.5h60.7" class="g0_97"/>
</g>
<text x="681" y="511" class="si_97">s</text>
<text x="693" y="510" class="s5_97">1</text>
<text x="705" y="510" class="s9_97">1</text>
<text x="722" y="510" class="sc_97">x</text>
<text x="731" y="506" class="s7_97">2 </text>
<path d="M693.6,497.2h44.8" class="g0_97"/>
<text x="342" y="559" dx="0,.3,.3,.3,.3,.3,.3,.3,.1,0,0" class="sh_97">SOLUTION 2 </text>
<text x="424" y="559" class="s5_97">±nstead of using trigonometric identities as in Solution 1, it is perhaps </text>
<text x="342" y="577" class="s5_97">easier to use a diagram. ±f </text>
<text x="504" y="577" class="sc_97">y</text>
<text x="515" y="577" class="sd_97">-</text>
<text x="532" y="577" class="s5_97">tan</text>
<text x="551" y="571" class="s6_97">2</text>
<text x="559" y="571" class="s7_97">1</text>
<text x="563" y="577" class="sc_97">x</text>
<text x="570" y="577" class="s5_97">, then tan </text>
<text x="630" y="577" class="sc_97">y</text>
<text x="642" y="577" class="sd_97">-</text>
<text x="659" y="577" class="sc_97">x</text>
<text x="666" y="577" class="s5_97">, and we can read from Figure 24 </text>
<text x="342" y="595" class="s5_97">(which illustrates the case </text>
<text x="504" y="595" class="sc_97">y</text>
<text x="516" y="595" class="s9_97">.</text>
<text x="533" y="595" class="s5_97">0) that</text>
<text x="507" y="649" class="s5_97">cos</text>
<text x="528" y="649" class="s8_97">s</text>
<text x="533" y="649" class="s5_97">tan</text>
<text x="551" y="643" class="s6_97">2</text>
<text x="559" y="643" class="s7_97">1</text>
<text x="564" y="649" class="sc_97">x</text>
<text x="570" y="649" class="s8_97">d</text>
<text x="580" y="649" class="sd_97">-</text>
<text x="597" y="649" class="s5_97">cos </text>
<text x="622" y="649" class="sc_97">y</text>
<text x="633" y="649" class="sd_97">-</text>
<text x="677" y="638" class="s5_97">1</text>
<g clip-path="url(#c3_97)">
<path d="M651,644.2h60.7" class="g0_97"/>
</g>
<text x="652" y="661" class="si_97">s</text>
<text x="664" y="661" class="s5_97">1</text>
<text x="676" y="661" class="s9_97">1</text>
<text x="693" y="661" class="sc_97">x</text>
<text x="702" y="656" class="s7_97">2 </text>
<path d="M664.6,646.9h44.8" class="g0_97"/>
<text x="868" y="655" class="so_97">■</text>
<text x="360" y="719" dx="0,0,0,0,0,0,-.6,-.2,0,0,0,0,0,0,0,0,0,0,0,0,0,0,0,0,0,0,0,0,0,0,0,0,0" class="s5_97">The inverse tangent function, tan</text>
<text x="561" y="713" class="s6_97">2</text>
<text x="568" y="713" class="s7_97">1</text>
<text x="577" y="719" class="sd_97">-</text>
<text x="595" y="719" class="s5_97">arctan, has domain </text>
<text x="713" y="719" class="sp_97">R</text>
<text x="728" y="719" class="s5_97">and range </text>
<text x="791" y="719" class="s8_97">s</text>
<text x="797" y="719" class="s9_97">2</text>
<text x="809" y="719" class="sa_97">°</text>
<text x="819" y="719" class="s8_97">y</text>
<text x="828" y="719" class="s5_97">2, </text>
<text x="843" y="719" class="sa_97">°</text>
<text x="853" y="719" class="s8_97">y</text>
<text x="861" y="719" class="s5_97">2</text>
<text x="869" y="719" class="s8_97">d</text>
<text x="874" y="719" class="s5_97">. </text>
<text x="342" y="737" dx="0,0,0,0,0,0,0,0,0,0,0,0,0,0,0,0,-.4,0,0,0,0,0,0,0,0,0,0,0,0,0,0,0" class="s5_97">±ts graph is shown in Figure 25.</text>
<path d="M714.3,813.6C662,816,628.5,824.1,608.7,849.5c-19.8,25.4,-53.4,33.4,-105.6,35.9" class="g2_97"/>
<path d="M501.7,892.7H602.6" class="g3_97"/>
<path d="M605.6,892.7h6.1" class="g4_97"/>
<path d="M614.8,892.7H715.6" class="g3_97"/>
<path d="M619.4,791.2h-5.9" class="g5_97"/>
<text x="612" y="789" class="sq_97">π</text>
<text x="613" y="800" class="sr_97">2</text>
<text x="612" y="910" class="ss_97">_</text>
<path d="M628.5,906.6h-5.8" class="g5_97"/>
<text x="622" y="904" class="sq_97">π</text>
<text x="623" y="915" class="sr_97">2</text>
<path d="M605.6,806.3h6.1" class="g4_97"/>
<path d="M614.8,806.3H715.6" class="g3_97"/>
<text x="598" y="775" class="st_97">y</text>
<path d="M501.7,849.5H714.1" class="g6_97"/>
<path fill-rule="evenodd" d="M714.1,849.5L712.5,847l6.5,2.5l-6.5,2.4Z" class="g7_97"/>
<path d="M608.7,924.3V774.6" class="g6_97"/>
<path fill-rule="evenodd" d="M608.7,774.6l-2.5,1.6l2.5,-6.5l2.4,6.5Z" class="g7_97"/>
<text x="598" y="845" class="su_97">0</text>
<text x="712" y="861" class="sv_97">x</text>
<path d="M501.7,806.3H602.6" class="g3_97"/>
<text x="360" y="967" dx="0,-1.2,0,.3,0,0,-.4,0,.3,0,0,0,0,.3,0,0,0,.3,0,0,0,0,0" class="s5_97">We know that the lines </text>
<text x="505" y="967" class="sc_97">x</text>
<text x="516" y="967" class="sd_97">-</text>
<text x="534" y="967" class="s9_97">6</text>
<text x="546" y="967" class="sa_97">°</text>
<text x="557" y="967" class="s8_97">y</text>
<text x="565" y="967" dx="0,0,.3,0,0,0,.3,-.2,0,0,0,0,0,0,0,.3,0,0,0,0,0,0,0,0,0,0,.3,0,0,.3,0,0,0,.3,0,0,0,0,0,.3,0,0,.4,0,0,0,0,.3,0,0,0,0,0" class="s5_97">2 are vertical asymptotes of the graph of tan. Since </text>
<text x="342" y="985" dx="0,0,0,0,.9,0,0,0,0,0,.9,0,0,.9,0,0" class="s5_97">the graph of tan</text>
<text x="441" y="979" class="s6_97">2</text>
<text x="448" y="979" class="s7_97">1</text>
<text x="458" y="985" dx="0,0,0,.9,0,0,0,0,0,0,0,0,.9,0,0,.9,0,0,0,0,0,0,0,0,0,.9,0,0,0,.9,0,0,0,0,0,.9,0,0,.9,0,0,0,.9,0,0,0,0,0,0,0,0,0,0,.9,0,0,0,0,0,0,0,.9,0,0,0,0,0,0,0,0" class="sw_97">is obtained by re²ecting the graph of the restricted tangent function </text>
<text x="342" y="1003" dx="0,0,0,0,0,0,1.6,0,0,0,1.6,0,0,0,0" class="sw_97">about the line </text>
<text x="434" y="1003" class="sc_97">y</text>
<text x="445" y="1003" class="sd_97">-</text>
<text x="463" y="1003" class="sc_97">x</text>
<text x="470" y="1003" dx="0,0,1.6,0,0,1.6,0,0,0,0,-.4,0,0,1.6,0,0,0,0,1.6,0,0,0,1.6,0,0,0,0,0" class="sw_97">, it follows that the lines </text>
<text x="631" y="1003" class="sc_97">y</text>
<text x="642" y="1003" class="sd_97">-</text>
<text x="660" y="1003" class="sa_97">°</text>
<text x="670" y="1003" class="s8_97">y</text>
<text x="678" y="1003" dx="0,0,1.6,0,0,0" class="sw_97">2 and </text>
<text x="719" y="1003" class="sc_97">y</text>
<text x="730" y="1003" class="sd_97">-</text>
<text x="748" y="1003" class="s9_97">2</text>
<text x="760" y="1003" class="sa_97">°</text>
<text x="771" y="1003" class="s8_97">y</text>
<text x="779" y="1003" dx="0,0,1.6,0,0,0,1.6,0,0,0,0,0,0,0,0,0,0" class="sw_97">2 are horizontal </text>
<text x="342" y="1022" class="sw_97">asymptotes of the graph of tan</text>
<text x="528" y="1015" class="s6_97">2</text>
<text x="535" y="1015" class="sx_97">1</text>
<text x="540" y="1022" class="sw_97">.</text>
<text x="259" y="908" dx="0,.3,.3,.3,.3,.3,.1" class="sy_97">FIGURE </text>
<text x="311" y="908" class="sz_97">25 </text>
<text x="204" y="925" class="s10_97">y</text>
<text x="214" y="925" class="s11_97">-</text>
<text x="230" y="925" class="s12_97">tan</text>
<text x="247" y="919" class="s13_97">2</text>
<text x="254" y="919" class="s14_97">1</text>
<text x="259" y="925" class="s10_97">x</text>
<text x="270" y="925" class="s11_97">-</text>
<text x="285" y="925" class="s12_97">arctan </text>
<text x="322" y="925" class="s10_97">x</text>
<text x="108" y="275" class="sz_97">FIGURE 22</text>
<text x="108" y="292" class="s10_97">y</text>
<text x="119" y="292" class="s11_97">-</text>
<text x="134" y="292" class="s12_97">cos</text>
<text x="153" y="286" class="s13_97">2</text>
<text x="160" y="286" class="s14_97">1</text>
<text x="164" y="292" class="s10_97">x</text>
<text x="175" y="292" class="s11_97">-</text>
<text x="190" y="292" class="s12_97">arccos </text>
<text x="229" y="292" class="s10_97">x</text>
<path d="M233.7,232.5c0,-36.6,-64.1,-64.5,-64.1,-100.8" class="g2_97"/>
<path d="M201.7,253.9V107.3" class="g6_97"/>
<path fill-rule="evenodd" d="M201.7,107.3l-2.5,1.6l2.5,-6.5l2.4,6.5Z" class="g7_97"/>
<path d="M110,232.5H293.3" class="g6_97"/>
<path fill-rule="evenodd" d="M293.3,232.5l-1.6,-2.4l6.5,2.4l-6.5,2.5Z" class="g7_97"/>
<path d="M233.7,229.5v6.1" class="g6_97"/>
<text x="191" y="244" class="s15_97">0</text>
<text x="191" y="108" class="s15_97">y</text>
<text x="291" y="244" class="s16_97">x</text>
<path d="M198.6,182.1h6.1" class="g6_97"/>
<text x="231" y="249" class="s17_97">1</text>
<text x="186" y="134" class="s18_97">π</text>
<path d="M169.6,229.5v6.1" class="g6_97"/>
<text x="163" y="249" dx="0,.3" class="s19_97">_1</text>
<path d="M198.6,131.7h6.1" class="g6_97"/>
<text x="187" y="179" class="s1a_97">π</text>
<text x="188" y="190" class="s1a_97">2</text>
<path d="M193.8,182h-6.6" class="g8_97"/>
<path d="M232,232.5c0,-.9,.8,-1.7,1.7,-1.7c1,0,1.7,.8,1.7,1.7c0,1,-.7,1.8,-1.7,1.8c-.9,0,-1.7,-.8,-1.7,-1.8Z" class="g9_97"/>
<path d="M232,232.5c0,-.9,.8,-1.7,1.7,-1.7c1,0,1.7,.8,1.7,1.7c0,1,-.7,1.8,-1.7,1.8c-.9,0,-1.7,-.8,-1.7,-1.8Z" class="ga_97"/>
<path d="M167.8,131.7c0,-.9,.8,-1.7,1.8,-1.7c.9,0,1.7,.8,1.7,1.7c0,1,-.8,1.7,-1.7,1.7c-1,0,-1.8,-.7,-1.8,-1.7Z" class="g9_97"/>
<path d="M167.8,131.7c0,-.9,.8,-1.7,1.8,-1.7c.9,0,1.7,.8,1.7,1.7c0,1,-.8,1.7,-1.7,1.7c-1,0,-1.8,-.7,-1.8,-1.7Z" class="ga_97"/>
<text x="108" y="704" dx="0,.3,.3,.3,.3,.3,.1" class="sy_97">FIGURE </text>
<text x="161" y="704" class="sz_97">24 </text>
<text x="175" y="618" class="s1b_97">œ„„„„„</text>
<text x="184" y="618" class="s1c_97">1+≈</text>
<text x="212" y="680" class="s1c_97">1</text>
<text x="152" y="660" class="s1c_97">y</text>
<text x="299" y="633" class="s1c_97">x</text>
<path d="M110.5,666.4L293.8,593v73.4H110.5Z" class="gb_97"/>
<path d="M284.3,666.4v-9.2h9.2" class="gc_97"/>
<text x="108" y="533" dx="0,.3,.3,.3,.3,.3,.1" class="sy_97">FIGURE </text>
<text x="161" y="533" class="sz_97">23</text>
<text x="108" y="549" class="s10_97">y</text>
<text x="119" y="549" class="s11_97">-</text>
<text x="134" y="549" class="s12_97">tan </text>
<text x="154" y="549" class="s10_97">x</text>
<text x="160" y="549" class="s12_97">, </text>
<text x="167" y="549" class="s1d_97">2</text>
<text x="179" y="543" class="s1e_97">°</text>
<path d="M179.4,545.3h6.4" class="gd_97"/>
<text x="179" y="553" dx="0,1.2" class="s1f_97">2 </text>
<text x="188" y="549" class="s1d_97">,</text>
<text x="202" y="549" class="s10_97">x</text>
<text x="211" y="549" class="s1d_97">,</text>
<text x="226" y="543" class="s1e_97">°</text>
<path d="M226.9,545.3h6.4" class="gd_97"/>
<text x="227" y="553" class="s1f_97">2</text>
<path d="M203.8,342.4c-4.3,59.3,-15.5,68.8,-29.9,81.5c-14.4,12.6,-25.5,23.6,-29.8,83" class="gb_97"/>
<path d="M217.9,432.3h-5.2" class="g8_97"/>
<text x="212" y="430" class="s1g_97">π</text>
<text x="213" y="441" class="s1g_97">2</text>
<text x="129" y="430" class="s1g_97">π</text>
<text x="130" y="441" class="s1g_97">2</text>
<path d="M134.8,432.3h-5.2" class="g8_97"/>
<text x="120" y="436" class="ss_97">_</text>
<text x="165" y="345" class="st_97">y</text>
<path d="M108.5,423.9H238.9" class="g6_97"/>
<path fill-rule="evenodd" d="M238.9,423.9l-1.7,-2.5l6.5,2.5l-6.5,2.4Z" class="g7_97"/>
<path d="M173.9,506.9v-163" class="g6_97"/>
<path fill-rule="evenodd" d="M173.9,343.9l-2.4,1.7l2.4,-6.6l2.5,6.6Z" class="g7_97"/>
<text x="176" y="435" class="su_97">0</text>
<text x="237" y="435" class="sv_97">x</text>
<path d="M138.1,340.9v166m71.7,-166v166" class="g3_97"/>
<text x="121" y="1076" class="s1h_97">Copyright 2016 Cengage Learning. All Rights Reserved. May not be copied, scanned, or duplicated, in whole or in part. Due to electronic rights, some third party content may be suppressed from the eBook and/or eChapter(s).</text>
<text x="106" y="1087" class="s1h_97">Editorial review has deemed that any suppressed content does not materially affect the overall learning experience. Cengage Learning reserves the right to remove additional content at any time if subsequent rights restrictions require it.</text>

</g>

<!-- Any embedded fonts defined here -->
<style type="text/css" ><![CDATA[

@font-face {
	font-family: BeaconDingbatsTypeOne_12w;
	src: url("fonts/BeaconDingbatsTypeOne_12w.woff") format("woff");
}

@font-face {
	font-family: MathematicalPi-One-Italic_x2;
	src: url("fonts/MathematicalPi-One-Italic_x2.woff") format("woff");
}

@font-face {
	font-family: MathematicalPiLTStd-1_rr;
	src: url("fonts/MathematicalPiLTStd-1_rr.woff") format("woff");
}

@font-face {
	font-family: MathematicalPiLTStd-3_ry;
	src: url("fonts/MathematicalPiLTStd-3_ry.woff") format("woff");
}

@font-face {
	font-family: MathematicalPiLTStd-5_vb;
	src: url("fonts/MathematicalPiLTStd-5_vb.woff") format("woff");
}

@font-face {
	font-family: MathematicalPiLTStd-6_13j;
	src: url("fonts/MathematicalPiLTStd-6_13j.woff") format("woff");
}

@font-face {
	font-family: MyriadPro-BoldSemiCn_90;
	src: url("fonts/MyriadPro-BoldSemiCn_90.woff") format("woff");
}

@font-face {
	font-family: MyriadPro-Bold_74;
	src: url("fonts/MyriadPro-Bold_74.woff") format("woff");
}

@font-face {
	font-family: MyriadPro-Regular_4i;
	src: url("fonts/MyriadPro-Regular_4i.woff") format("woff");
}

@font-face {
	font-family: MyriadPro-Semibold_49;
	src: url("fonts/MyriadPro-Semibold_49.woff") format("woff");
}

@font-face {
	font-family: TECHMath-Mix_12-;
	src: url("fonts/TECHMath-Mix_12-.woff") format("woff");
}

@font-face {
	font-family: TECHMath-Mix_191;
	src: url("fonts/TECHMath-Mix_191.woff") format("woff");
}

@font-face {
	font-family: TECHMath-Mix_1ac;
	src: url("fonts/TECHMath-Mix_1ac.woff") format("woff");
}

@font-face {
	font-family: TECHMath-Mix_1c_;
	src: url("fonts/TECHMath-Mix_1c_.woff") format("woff");
}

@font-face {
	font-family: TECHMath-Mix_1cp;
	src: url("fonts/TECHMath-Mix_1cp.woff") format("woff");
}

@font-face {
	font-family: TECHMath-Mix_1ew;
	src: url("fonts/TECHMath-Mix_1ew.woff") format("woff");
}

@font-face {
	font-family: TECHMath-Mix_1gv;
	src: url("fonts/TECHMath-Mix_1gv.woff") format("woff");
}

@font-face {
	font-family: TECHMath-Mix_1ic;
	src: url("fonts/TECHMath-Mix_1ic.woff") format("woff");
}

@font-face {
	font-family: TECHMath-Mix_1ig;
	src: url("fonts/TECHMath-Mix_1ig.woff") format("woff");
}

@font-face {
	font-family: TECHMath-Mix_1jz;
	src: url("fonts/TECHMath-Mix_1jz.woff") format("woff");
}

@font-face {
	font-family: TECHMath-Mix_1kh;
	src: url("fonts/TECHMath-Mix_1kh.woff") format("woff");
}

@font-face {
	font-family: TECHMath-Mix_1kr;
	src: url("fonts/TECHMath-Mix_1kr.woff") format("woff");
}

@font-face {
	font-family: TECHMath-Mix_x7;
	src: url("fonts/TECHMath-Mix_x7.woff") format("woff");
}

@font-face {
	font-family: Times-Roman_4n;
	src: url("fonts/Times-Roman_4n.woff") format("woff");
}

@font-face {
	font-family: TimesLTStd-Bold_oh;
	src: url("fonts/TimesLTStd-Bold_oh.woff") format("woff");
}

@font-face {
	font-family: TimesLTStd-Italic_o3;
	src: url("fonts/TimesLTStd-Italic_o3.woff") format("woff");
}

@font-face {
	font-family: TimesLTStd-Roman_143;
	src: url("fonts/TimesLTStd-Roman_143.woff") format("woff");
}

@font-face {
	font-family: TimesLTStd-Roman_6c;
	src: url("fonts/TimesLTStd-Roman_6c.woff") format("woff");
}

@font-face {
	font-family: UniversalChemicalPi-T_-_;
	src: url("fonts/UniversalChemicalPi-T_-_.woff") format("woff");
}

@font-face {
	font-family: ZapfDingbatsITC_my;
	src: url("fonts/ZapfDingbatsITC_my.woff") format("woff");
}

]]></style>

</svg>
