<?xml version="1.0" encoding="UTF-8" standalone="no"?>
<!DOCTYPE svg PUBLIC "-//W3C//DTD SVG 1.1//EN"
"http://www.w3.org/Graphics/SVG/1.1/DTD/svg11.dtd">


<!-- Page 99 -->
<svg x="0" y="0" width="931" height="1096" viewBox="0 0 931 1096" version="1.1" xmlns="http://www.w3.org/2000/svg" xmlns:xlink="http://www.w3.org/1999/xlink"
style="display: block;margin-left: auto;margin-right: auto;">
<defs>
<clipPath id="c_99"><path d="M0,0H931V1096H0Z"/></clipPath>
<clipPath id="c0_99"><path d="M240.8,152.3V122.8H384.1v29.5Z"/></clipPath>
<clipPath id="c1_99"><path d="M152,263.5V247.6H272v15.9Z"/></clipPath>
<clipPath id="c2_99"><path d="M335.4,270.5V241.7h88.1v28.8Z"/></clipPath>
<clipPath id="c3_99"><path d="M335.4,330.1V301.3h74.1v28.8Z"/></clipPath>
<clipPath id="c4_99"><path d="M152,431.6v-16h97.1v16Z"/></clipPath>
<clipPath id="c5_99"><path d="M173.8,647V631h94.3v16Z"/></clipPath>

<style type="text/css"><![CDATA[
text { white-space: pre; }
path, image { pointer-events: none; }

.s1_99{
font-size: 12.22px;
font-family: MyriadPro-Semibold_49;
fill: #231F20;
}
.s2_99{
font-size: 13.75px;
font-family: MyriadPro-Semibold_49;
fill: #231F20;
}
.s3_99{
font-size: 12.22px;
font-family: MyriadPro-Regular_4i;
fill: #231F20;
}
.s4_99{
font-size: 15.28px;
font-family: MyriadPro-Semibold_49;
fill: #231F20;
}
.s5_99{
font-size: 13.75px;
font-family: MyriadPro-BoldSemiCn_90;
fill: #231F20;
}
.s6_99{
font-size: 13.75px;
font-family: TimesLTStd-Roman_143;
fill: #231F20;
}
.s7_99{
font-size: 13.75px;
font-family: MathematicalPi-One-Italic_1l9;
fill: #231F20;
}
.s8_99{
font-size: 13.75px;
font-family: TimesLTStd-Italic_o3;
fill: #231F20;
}
.s9_99{
font-size: 13.75px;
font-family: MathematicalPiLTStd-5_vb;
fill: #231F20;
}
.sa_99{
font-size: 13.75px;
font-family: MathematicalPiLTStd-3_ry;
fill: #231F20;
}
.sb_99{
font-size: 13.75px;
font-family: CenturyOldStyle-Italic__q;
fill: #231F20;
}
.sc_99{
font-size: 8.25px;
font-family: TimesLTStd-Roman_143;
fill: #231F20;
}
.sd_99{
font-size: 13.75px;
font-family: BeaconDingbatsTypeOne_12w;
fill: #231F20;
}
.se_99{
font-size: 13.75px;
font-family: MathematicalPiLTStd-1_rr;
fill: #231F20;
}
.sf_99{
font-size: 13.75px;
font-family: MyriadPro-BoldSemiCn_90;
fill: #00AEEF;
}
.sg_99{
font-size: 13.75px;
font-family: MyriadPro-BoldSemiCn_90;
fill: #EC008C;
}
.sh_99{
font-size: 8.25px;
font-family: TimesLTStd-Italic_o3;
fill: #231F20;
}
.si_99{
font-size: 8.25px;
font-family: MathematicalPiLTStd-1_rr;
fill: #231F20;
}
.sj_99{
font-size: 9.63px;
font-family: TimesLTStd-Roman_143;
fill: #231F20;
}
.sk_99{
font-size: 13.75px;
font-family: TimesLTStd-Roman_16m;
fill: #231F20;
}
.sl_99{
font-size: 8.25px;
font-family: TimesLTStd-Roman_16m;
fill: #231F20;
}
.sm_99{
font-size: 12.22px;
font-family: TECHMath-Mix_1k1;
fill: #231F20;
}
.sn_99{
font-size: 12.22px;
font-family: TECHMath-Mix_187;
fill: #231F20;
}
.so_99{
font-size: 12.22px;
font-family: TECHMath-Mix_13x;
fill: #231F20;
}
.sp_99{
font-size: 12.22px;
font-family: TECHMath-Mix_1ac;
fill: #231F20;
}
.sq_99{
font-size: 12.22px;
font-family: TECHMath-Mix_1gz;
fill: #231F20;
}
.sr_99{
font-size: 6.60px;
font-family: TimesLTStd-Roman_16m;
fill: #231F20;
}
.ss_99{
font-size: 9.63px;
font-family: TimesLTStd-Roman_16m;
fill: #231F20;
}
.st_99{
font-size: 13.75px;
font-family: BeaconDingbatsTypeOne_12w;
fill: #EC008C;
}
.su_99{
font-size: 8.25px;
font-family: MathematicalPiLTStd-3_ry;
fill: #231F20;
}
.sv_99{
font-size: 5.78px;
font-family: TimesLTStd-Roman_16m;
fill: #231F20;
}
.sw_99{
font-size: 22.00px;
font-family: MathematicalPiLTStd-3_ry;
fill: #231F20;
}
.sx_99{
font-size: 7.64px;
font-family: Times-Roman_4n;
fill: #000000;
}

.g0_99{
fill: none;
stroke: #00AEEF;
stroke-width: 0.763;
stroke-linecap: butt;
stroke-linejoin: miter;
}
.g1_99{
fill: none;
stroke: #231F20;
stroke-width: 0.687;
stroke-linecap: butt;
stroke-linejoin: miter;
}
.g2_99{
fill: none;
stroke: #231F20;
stroke-width: 0.481;
stroke-linecap: butt;
stroke-linejoin: miter;
}
.g3_99{
fill: none;
stroke: #00AEEF;
stroke-width: 0.916;
stroke-linecap: butt;
stroke-linejoin: round;
stroke-miterlimit: 3;
}
.g4_99{
fill: none;
stroke: #231F20;
stroke-width: 0.611;
stroke-linecap: butt;
stroke-linejoin: miter;
stroke-miterlimit: 3;
}
.g5_99{
fill: #231F20;
}
.g6_99{
fill: none;
stroke: #8A8C8E;
stroke-width: 0.534;
stroke-linecap: butt;
stroke-linejoin: miter;
stroke-miterlimit: 3;
}
.g7_99{
fill: #FFFFFF;
}
.g8_99{
fill: none;
stroke: #EC008C;
stroke-width: 0.916;
stroke-linecap: butt;
stroke-linejoin: miter;
stroke-miterlimit: 3;
}
.g9_99{
fill: none;
stroke: #FFFFFF;
stroke-width: 1.527;
stroke-linecap: butt;
stroke-linejoin: miter;
stroke-miterlimit: 4;
}

]]></style>

</defs>
<g clip-path="url(#c_99)">
<path d="M0,0
L0,1096
L931,1096
L931,0 Z " 
fill="#FFFFFF" stroke="none"/>
<text x="547" y="64" dx="0,.2,.2,.5,.2,.2,.2" class="s1_99">SECTION</text>
<text x="599" y="64" class="s2_99">1.5</text>
<text x="629" y="64" dx="0,.2,0,0,.1,.1,.1,.1,.1,-.3,.1,.1,.3,.1,.1,.1,.1,.1,.1,.1,.1,.1,.1,0,.1,.1,.1,.2,.1,.1,.1,.1,.1" class="s3_99">Inverse Functions and Logarithms </text>
<text x="862" y="64" class="s4_99">67</text>
<path d="M126.8,342.8H498.1M126.8,445.1H498.1M126.8,619.3H498.1" class="g0_99"/>
<text x="127" y="107" dx="0,-.1,-.1,-.1" class="s5_99">20. </text>
<text x="152" y="107" dx="0,-.1,-.1,-.1,-.1,-.1,-.1,-.1,-.1,-.1,-.1,-.1,-.1,-.1,-.1,-.1,-.1,-.1,-.1,-.1,-.1,-.1,-.1,-.4,-.1,-.1,-.1,-1,-.1,-.1,-.1,-.1,-.1,-.1,-.1,-.1,-.1,-.1,-.1,-.1,-.1,-.1,-.1,-.1,-.1,-.1,-.1,-.1,-.1,-.1,-.1,-.1,-.1,-.1,-.1,-.1,-.1,-.1,-.1,-.1,-.1,-.1,-.1" class="s6_99">±n the theory of relativity, the mass of a particle with speed </text>
<text x="474" y="107" class="s7_99">°</text>
<text x="484" y="107" dx="0,-.1" class="s6_99">is</text>
<text x="240" y="138" class="s8_99">m</text>
<text x="254" y="138" class="s9_99">-</text>
<text x="270" y="138" class="s8_99">f</text>
<text x="276" y="138" class="sa_99">s</text>
<text x="281" y="138" class="sb_99">v</text>
<text x="287" y="138" class="sa_99">d</text>
<text x="296" y="138" class="s9_99">-</text>
<text x="340" y="128" class="s8_99">m</text>
<text x="351" y="130" class="sc_99">0</text>
<g clip-path="url(#c0_99)">
<path d="M312.3,134h72.1" class="g1_99"/>
</g>
<text x="313" y="149" class="sd_99">s</text>
<text x="324" y="149" class="s6_99">1</text>
<text x="335" y="149" class="se_99">2</text>
<text x="350" y="149" class="sb_99">v</text>
<text x="358" y="145" class="sc_99">2</text>
<text x="361" y="149" class="sa_99">y</text>
<text x="368" y="149" class="s8_99">c</text>
<text x="375" y="144" class="sc_99">2 </text>
<path d="M324.5,136.8h57.9" class="g1_99"/>
<text x="154" y="170" class="s6_99">where </text>
<text x="191" y="170" class="s8_99">m</text>
<text x="202" y="172" class="sc_99">0</text>
<text x="210" y="170" class="s6_99">is the rest mass of the particle and </text>
<text x="400" y="170" class="s8_99">c</text>
<text x="410" y="170" class="s6_99">is the speed of </text>
<text x="154" y="187" dx="0,0,0,0,0,0,0,0,0,0,0,0,-.3,0,0,0,0,0,0,0,0,0,0,0,0,0,0,0,0,0,-.6,-.2,0,0,0,0,0,0,0,0,0,0,0,0,0,0,0,0" class="s6_99">light in a vacuum. Find the inverse function of </text>
<text x="414" y="187" class="s8_99">f</text>
<text x="423" y="187" dx="0,0,0,0,0,-.2,0,0,0,0,0,0" class="s6_99">and explain </text>
<text x="154" y="204" class="s6_99">its meaning.</text>
<text x="128" y="231" class="sf_99">21–26 </text>
<text x="170" y="231" dx="0,0,0,0,0,0,0,0,0,0,0,0,0,0,0,0,0,0,0,0,0,0,0,0,0,-.5,-.2,0,0,0,0,0,0,0,0,0,0,0,0,0,0,0,0,0,0,0,0" class="s6_99">Find a formula for the inverse of the function.</text>
<text x="127" y="260" class="s5_99">21. </text>
<text x="153" y="260" class="s8_99">f</text>
<text x="160" y="260" class="sa_99">s</text>
<text x="165" y="260" class="s8_99">x</text>
<text x="171" y="260" class="sa_99">d</text>
<text x="180" y="260" class="s9_99">-</text>
<text x="195" y="260" class="s6_99">1</text>
<text x="206" y="260" class="se_99">1</text>
<text x="222" y="261" class="sd_99">s</text>
<text x="232" y="260" class="s6_99">2</text>
<text x="243" y="260" class="se_99">1</text>
<text x="259" y="260" class="s6_99">3</text>
<text x="265" y="260" class="s8_99">x</text>
<g clip-path="url(#c1_99)">
<path d="M232.8,247.9h39.6" class="g1_99"/>
</g>
<text x="310" y="260" class="sg_99">22. </text>
<text x="337" y="260" class="s8_99">f</text>
<text x="343" y="260" class="sa_99">s</text>
<text x="348" y="260" class="s8_99">x</text>
<text x="354" y="260" class="sa_99">d</text>
<text x="363" y="260" class="s9_99">-</text>
<text x="381" y="251" class="s6_99">4</text>
<text x="388" y="251" class="s8_99">x</text>
<text x="398" y="251" class="se_99">2</text>
<text x="414" y="251" class="s6_99">1</text>
<g clip-path="url(#c2_99)">
<path d="M379.5,256.2h44.3" class="g1_99"/>
</g>
<text x="381" y="270" class="s6_99">2</text>
<text x="389" y="270" class="s8_99">x</text>
<text x="398" y="270" class="se_99">1</text>
<text x="414" y="270" class="s6_99">3</text>
<text x="127" y="291" class="s5_99">23. </text>
<text x="153" y="291" class="s8_99">f</text>
<text x="160" y="291" class="sa_99">s</text>
<text x="165" y="291" class="s8_99">x</text>
<text x="171" y="291" class="sa_99">d</text>
<text x="180" y="291" class="s9_99">-</text>
<text x="195" y="291" class="s8_99">e</text>
<text x="203" y="285" class="sc_99">2</text>
<text x="207" y="285" class="sh_99">x</text>
<text x="211" y="285" class="si_99">2</text>
<text x="218" y="285" class="sc_99">1</text>
<text x="310" y="291" class="s5_99">24. </text>
<text x="335" y="291" class="s8_99">y</text>
<text x="345" y="291" class="s9_99">-</text>
<text x="361" y="291" class="s8_99">x</text>
<text x="369" y="285" class="sc_99">2</text>
<text x="377" y="291" class="se_99">2</text>
<text x="392" y="291" class="s8_99">x</text>
<text x="398" y="291" class="s6_99">, </text>
<text x="416" y="291" class="s8_99">x</text>
<text x="426" y="291" class="se_99">&gt;</text>
<text x="442" y="285" class="sj_99">1</text>
<path d="M442.5,286.6h4.8" class="g2_99"/>
<text x="442" y="294" class="sj_99">2</text>
<text x="127" y="320" class="sg_99">25. </text>
<text x="152" y="320" class="s8_99">y</text>
<text x="162" y="320" class="s9_99">-</text>
<text x="178" y="320" class="s6_99">ln</text>
<text x="188" y="320" class="sa_99">s</text>
<text x="194" y="320" class="s8_99">x</text>
<text x="204" y="320" class="se_99">1</text>
<text x="219" y="320" class="s6_99">3</text>
<text x="226" y="320" class="sa_99">d</text>
<text x="310" y="320" class="s5_99">26. </text>
<text x="335" y="320" class="s8_99">y</text>
<text x="345" y="320" class="s9_99">-</text>
<text x="363" y="310" class="s6_99">1</text>
<text x="374" y="310" class="se_99">2</text>
<text x="390" y="310" class="s8_99">e</text>
<text x="396" y="305" class="si_99">2</text>
<text x="403" y="305" class="sh_99">x</text>
<g clip-path="url(#c3_99)">
<path d="M361.8,315.8h48" class="g1_99"/>
</g>
<text x="363" y="329" class="s6_99">1</text>
<text x="374" y="329" class="se_99">1</text>
<text x="390" y="329" class="s8_99">e</text>
<text x="396" y="324" class="si_99">2</text>
<text x="403" y="324" class="sh_99">x</text>
<text x="128" y="370" class="sf_99">27–28 </text>
<text x="168" y="370" dx="0,0,0,0,0,0,0,0,0,-.2,0,0,0,0,0,0,0,0,0,0,0,0,0,0,0,0,0,0,0" class="s6_99">Find an explicit formula for </text>
<text x="326" y="370" class="s8_99">f</text>
<text x="332" y="365" class="si_99">2</text>
<text x="339" y="365" class="sc_99">1</text>
<text x="347" y="370" class="s6_99">and use it to graph </text>
<text x="454" y="370" class="s8_99">f</text>
<text x="461" y="365" class="si_99">2</text>
<text x="467" y="365" class="sc_99">1</text>
<text x="472" y="370" class="s6_99">, </text>
<text x="128" y="387" class="s8_99">f</text>
<text x="133" y="387" class="s6_99">, and the line </text>
<text x="208" y="387" class="s8_99">y</text>
<text x="218" y="387" class="s9_99">-</text>
<text x="233" y="387" class="s8_99">x</text>
<text x="243" y="387" dx="0,0,0,0,0,0,0,0,0,0,0,0,0,0,0,0,0,0,0,0,-.2,-1.1,0,0,0,0,0,0,0,0,0,0,0,0,0,-.1,0,0,0,0,0,0,0,0" class="s6_99">on the same screen. To check your work, see </text>
<text x="126" y="404" class="s6_99">whether the graphs of </text>
<text x="251" y="404" class="s8_99">f</text>
<text x="260" y="404" class="s6_99">and </text>
<text x="286" y="404" class="s8_99">f</text>
<text x="292" y="398" class="si_99">2</text>
<text x="299" y="398" class="sc_99">1</text>
<text x="307" y="404" class="sk_99">are reLections about the line.</text>
<text x="127" y="428" class="s5_99">27. </text>
<text x="153" y="428" class="s8_99">f</text>
<text x="160" y="428" class="sa_99">s</text>
<text x="165" y="428" class="s8_99">x</text>
<text x="171" y="428" class="sa_99">d</text>
<text x="180" y="428" class="s9_99">-</text>
<text x="195" y="429" class="sd_99">s</text>
<text x="206" y="428" class="sk_99">4</text>
<text x="214" y="428" class="s8_99">x</text>
<text x="224" y="428" class="se_99">1</text>
<text x="240" y="428" class="sk_99">3</text>
<g clip-path="url(#c4_99)">
<path d="M206.3,416h43.1" class="g1_99"/>
</g>
<text x="310" y="428" class="s5_99">28. </text>
<text x="337" y="428" class="s8_99">f</text>
<text x="343" y="428" class="sa_99">s</text>
<text x="348" y="428" class="s8_99">x</text>
<text x="354" y="428" class="sa_99">d</text>
<text x="363" y="428" class="s9_99">-</text>
<text x="379" y="428" class="sk_99">1</text>
<text x="390" y="428" class="se_99">1</text>
<text x="405" y="428" class="s8_99">e</text>
<text x="411" y="423" class="si_99">2</text>
<text x="418" y="423" class="sh_99">x</text>
<text x="128" y="473" class="sf_99">29–30 </text>
<text x="170" y="473" dx="0,0,0,0,0,0,0,0,0,0,-.3,-.2,0,0,0,0,0,0,0,0,0,0,0" class="sk_99">Use the given graph of </text>
<text x="300" y="473" class="s8_99">f</text>
<text x="309" y="473" dx="0,0,0,0,0,-.1,0,0,0,0,0,0,0,0,0,0,0,0,0,0,0,0,0" class="sk_99">to sketch the graph of </text>
<text x="434" y="473" class="s8_99">f</text>
<text x="440" y="467" class="si_99">2</text>
<text x="447" y="467" class="sl_99">1</text>
<text x="451" y="473" class="sk_99">.</text>
<text x="127" y="497" class="s5_99">29. </text>
<text x="310" y="497" class="s5_99">30. </text>
<path d="M339.4,518.4c34.4,0,57.3,45.9,91.7,45.9" class="g3_99"/>
<path d="M192.8,596.4V491.3" class="g4_99"/>
<path fill-rule="evenodd" d="M192.8,491.3l-2.5,1.7l2.5,-6.6l2.4,6.6Z" class="g5_99"/>
<text x="182" y="492" class="sm_99">y</text>
<text x="259" y="572" class="sn_99">x</text>
<text x="184" y="571" class="so_99">0</text>
<path d="M156.1,504.7h110M156.1,523h110m-110,18.4h110M156.1,578h110M247.8,486.4v110m-18.4,-110v110m-18.3,-110v75.2m0,13.8v21m-36.7,-110v110m-18.3,-110h110v110h-110Z" class="g6_99"/>
<path d="M156.1,559.7h105" class="g4_99"/>
<path fill-rule="evenodd" d="M261.1,559.7l-1.6,-2.5l6.5,2.5l-6.5,2.4Z" class="g5_99"/>
<path d="M182.1,536.4l8.3,-1.6v13.7h-9.2Z" class="g7_99"/>
<text x="207" y="572" class="sp_99">1</text>
<text x="183" y="544" class="sp_99">1</text>
<text x="329" y="501" class="sm_99">y</text>
<text x="429" y="554" class="sn_99">x</text>
<text x="330" y="552" class="so_99">0</text>
<path d="M339.4,582.6V500.5" class="g4_99"/>
<path fill-rule="evenodd" d="M339.4,500.5l-2.4,1.6l2.4,-6.5l2.5,6.5Z" class="g5_99"/>
<path d="M321.1,541.4h110" class="g4_99"/>
<path fill-rule="evenodd" d="M431.1,541.4l-1.6,-2.5l6.5,2.5l-6.5,2.4Z" class="g5_99"/>
<text x="380" y="554" class="sq_99">2</text>
<text x="332" y="521" class="sp_99">1</text>
<path d="M174.4,596.4L211.1,578l18.3,-55l18.4,-18.3" class="g8_99"/>
<path d="M155.9,598.4H266.7" class="g9_99"/>
<text x="127" y="644" class="s5_99">31. </text>
<text x="152" y="644" class="sk_99">²et </text>
<text x="175" y="644" class="s8_99">f</text>
<text x="181" y="644" class="sa_99">s</text>
<text x="187" y="644" class="s8_99">x</text>
<text x="193" y="644" class="sa_99">d</text>
<text x="201" y="644" class="s9_99">-</text>
<text x="217" y="644" class="sd_99">s</text>
<text x="227" y="644" class="sk_99">1</text>
<text x="238" y="644" class="se_99">2</text>
<text x="254" y="644" class="s8_99">x</text>
<text x="261" y="639" class="sl_99">2 </text>
<g clip-path="url(#c5_99)">
<path d="M228,631.4h40.5" class="g1_99"/>
</g>
<text x="268" y="644" dx="0,0,3.4" class="sk_99">, 0</text>
<text x="289" y="644" class="se_99">&lt;</text>
<text x="304" y="644" class="s8_99">x</text>
<text x="315" y="644" class="se_99">&lt;</text>
<text x="330" y="644" class="sk_99">1.</text>
<text x="152" y="660" dx="0,0,0,0,4.2,0,0,0,0" class="sk_99">(a) Find </text>
<text x="205" y="660" class="s8_99">f</text>
<text x="212" y="655" class="si_99">2</text>
<text x="219" y="655" class="sl_99">1</text>
<text x="223" y="660" dx="0,0,0,0,-.3,0,0,0,0,0,0,0,0,0,0,0,0,0,0,0,0,0,0" class="sk_99">. How is it related to </text>
<text x="340" y="660" class="s8_99">f</text>
<text x="347" y="660" class="sk_99">?</text>
<text x="152" y="677" dx="0,-.1,-.1,-.1,3.9,-.1,-.1,-.1,-.1,-.1,-.1,-.1,-.1,-.1,-.1,-.1,-.1,-.1,-.1,-.1,-.1,-.1,-.1,-.1,-.1,-.1" class="sk_99">(b) Identify the graph of </text>
<text x="290" y="677" class="s8_99">f</text>
<text x="299" y="677" dx="0,-.1,-.1,-.1,-.1,-.3,-.1,-.1,-.1,-.1,-.1,-.1,-.1,-.1,-.1,-.1,-.1,-.1,-.1,-.1,-.1,-.1,-.1,-.1,-.1,-.1,-.1,-.1,-.1,-.1,-.1,-.1,-.1,-.1,-.1,-.1" class="sk_99">and explain your answer to part (a).</text>
<text x="127" y="702" class="s5_99">32. </text>
<text x="152" y="702" class="sk_99">²et </text>
<text x="173" y="702" class="sd_99">t</text>
<text x="180" y="702" class="sa_99">s</text>
<text x="185" y="702" class="s8_99">x</text>
<text x="192" y="702" class="sa_99">d</text>
<text x="200" y="702" class="s9_99">-</text>
<text x="216" y="702" class="sd_99">s</text>
<text x="218" y="696" class="sr_99">3</text>
<text x="226" y="702" class="sk_99">1</text>
<text x="237" y="702" class="se_99">2</text>
<text x="253" y="702" class="s8_99">x</text>
<text x="260" y="696" class="sl_99">3 </text>
<path d="M226.8,689.4h40.3" class="g1_99"/>
<text x="270" y="702" class="sk_99">.</text>
<text x="152" y="718" dx="0,0,0,0,4.2,0,0,0,0" class="sk_99">(a) Find </text>
<text x="203" y="718" class="sd_99">t</text>
<text x="210" y="713" class="si_99">2</text>
<text x="217" y="713" class="sl_99">1</text>
<text x="221" y="718" dx="0,0,0,0,-.3,0,0,0,0,0,0,0,0,0,0,0,0,0,0,0,0,0,0" class="sk_99">. How is it related to </text>
<text x="336" y="718" class="sd_99">t</text>
<text x="342" y="718" class="sk_99">?</text>
<text x="152" y="735" class="sk_99">(b) </text>
<text x="174" y="735" class="sk_99">Graph </text>
<text x="212" y="735" class="sd_99">t</text>
<text x="218" y="735" dx="0,0,0,0,-.3,0,0,0,0,0,0,0,0,0,-.2,0,0,0,0,0,0,0,0,0,0,0,0,0,0,0,0,0,0,0,0,0,0,0,0,0,0,0,0,0,0" class="sk_99">. How do you explain your answer to part (a)?</text>
<text x="127" y="760" class="s5_99">33. </text>
<text x="152" y="760" dx="0,0,0,0,4.2,0,-.3,0,0,0,0,0,0,0,0,0,0,0,-.1,0,0,0,0,0,0,0,0,0,0,0,0,0,0,0,0,0" class="sk_99">(a) How is the logarithmic function </text>
<text x="354" y="760" class="s8_99">y</text>
<text x="364" y="760" class="s9_99">-</text>
<text x="379" y="760" class="sk_99">log</text>
<text x="398" y="761" class="sh_99">b</text>
<text x="404" y="760" class="s8_99">x</text>
<text x="413" y="760" class="sk_99">de³ned?</text>
<text x="152" y="777" dx="0,0,0,0,3.5,0,0,0,0,0,0,0,0,0,0,0,0,0,0,0,0,0,0,0,0,0,0,0,0,0,0,0,0,0,0,0,0,0,0,0" class="sk_99">(b) What is the domain of this function?</text>
<text x="152" y="793" dx="0,0,0,0,4.2,0,0,0,0,0,0,0,0,0,0,0,0,0,0,0,0,0,0,0,0,0,0,0,0,0,0,0,0,0,0,0,0,0,0" class="sk_99">(c) What is the range of this function?</text>
<text x="152" y="810" class="sk_99">(d) </text>
<text x="174" y="810" dx="0,0,-.1,0,0,0,0,0,0,0,0,0,0,0,0,0,0,0,0,0,0,0,0,0,0,0,0,0,0,0,0,0,0,0,0,0,0,0,0,0,0,0,0,0,0,0,0,0,0,0,0,0,0,0" class="sk_99">Sketch the general shape of the graph of the function </text>
<text x="175" y="827" class="s8_99">y</text>
<text x="185" y="827" class="s9_99">-</text>
<text x="201" y="827" class="sk_99">log</text>
<text x="219" y="828" class="sh_99">b</text>
<text x="225" y="827" class="s8_99">x</text>
<text x="235" y="827" class="sk_99">if </text>
<text x="247" y="827" class="s8_99">b</text>
<text x="258" y="827" class="se_99">.</text>
<text x="273" y="827" class="sk_99">1.</text>
<text x="127" y="851" class="s5_99">34. </text>
<text x="152" y="851" dx="0,0,0,0,4.2,0,0,0,0,0,0,0,0,0,0,0,0,0,0,0,0,0,0,0,0,0,0,-.1,0,0,0,0,0,0" class="sk_99">(a) What is the natural logarithm?</text>
<text x="152" y="868" dx="0,0,0,0,3.5,0,0,0,0,0,0,0,0,0,0,0,0,0,0,0,0,0,0,0,0,0,-.1,0,0,0,0,0,0" class="sk_99">(b) What is the common logarithm?</text>
<text x="152" y="885" dx="0,-.2,-.2,-.2" class="sk_99">(c) </text>
<text x="174" y="885" dx="0,-.2,-.3,-.2,-.2,-.2,-.2,-.2,-.2,-.2,-.2,-.2,-.2,-.2,-.2,-.2,-.2,-.2,-.2,-.2,-.2,-.2,-.2,-.2,-.2,-.2,-.2,-.2,-.2,-.2,-.2,-.2,-.2,-.2,-.2,-.2,-.3,-.2,-.2,-.2,-.2,-.2,-.2,-.2,-.2,-.2,-.2,-.2,-.2,-.2,-.2,-.2,-.2,-.2,-.2,-.2,-.2,-.2,-.2,0" class="sk_99">Sketch the graphs of the natural logarithm function and the </text>
<text x="174" y="902" dx="0,0,0,0,0,0,0,0,0,-.2,0,0,0,0,0,0,0,0,0,0,0,0,0,0,0,0,0,0,0,0,0,0,0,0,0,0,0,0,0,0,0,0,0,0,0,0,0,0,0,0,0,0,-.2,0,0" class="sk_99">natural exponential function with a common set of axes.</text>
<text x="128" y="928" class="sf_99">35–38 </text>
<text x="170" y="928" dx="0,0,0,0,0,0,0,0,0,0,-.2,0,0,0,0,0,-.3,0,0,0,0,0,0,0,0,0,0,0,0,0,-.2,0,0,0,0,0,0,0,0,0" class="sk_99">Find the exact value of each expression.</text>
<text x="127" y="954" class="s5_99">35. </text>
<text x="152" y="954" dx="0,0,0,0,4.2,0,0" class="sk_99">(a) log</text>
<text x="193" y="955" class="sl_99">2 </text>
<text x="199" y="954" class="sk_99">32 </text>
<text x="312" y="954" dx="0,0,0,0,3.4,0,0" class="sk_99">(b) log</text>
<text x="353" y="955" class="sl_99">8 </text>
<text x="359" y="954" class="sk_99">2</text>
<text x="127" y="980" class="s5_99">36. </text>
<text x="152" y="980" dx="0,0,0,0,4.2,0,0" class="sk_99">(a) log</text>
<text x="193" y="981" class="sl_99">5 </text>
<text x="206" y="974" class="ss_99">1</text>
<path d="M201.7,975.7H216" class="g2_99"/>
<text x="201" y="983" class="ss_99">125</text>
<text x="312" y="980" dx="0,0,0,0,3.4,0" class="sk_99">(b) ln</text>
<text x="346" y="980" class="sa_99">s</text>
<text x="350" y="980" class="sk_99">1</text>
<text x="357" y="980" class="sa_99">y</text>
<text x="364" y="980" class="s8_99">e</text>
<text x="371" y="974" class="sl_99">2 </text>
<text x="378" y="980" class="sa_99">d</text>
<text x="127" y="1006" class="s5_99">37. </text>
<text x="152" y="1006" dx="0,0,0,0,4.2,0,0" class="sk_99">(a) log</text>
<text x="193" y="1007" class="sl_99">10</text>
<text x="204" y="1006" class="sk_99">40</text>
<text x="222" y="1006" class="se_99">1</text>
<text x="238" y="1006" class="sk_99">log</text>
<text x="256" y="1007" class="sl_99">10</text>
<text x="268" y="1006" class="sk_99">2.5</text>
<text x="152" y="1024" dx="0,0,0,0,3.5,0,0" class="sk_99">(b) log</text>
<text x="193" y="1026" class="sl_99">8</text>
<text x="201" y="1024" class="sk_99">60</text>
<text x="219" y="1024" class="se_99">2</text>
<text x="234" y="1024" class="sk_99">log</text>
<text x="253" y="1026" class="sl_99">8</text>
<text x="261" y="1024" class="sk_99">3</text>
<text x="272" y="1024" class="se_99">2</text>
<text x="287" y="1024" class="sk_99">log</text>
<text x="307" y="1026" class="sl_99">8</text>
<text x="314" y="1024" class="sk_99">5</text>
<text x="108" y="372" class="st_99">;</text>
<text x="108" y="737" class="st_99">;</text>
<path d="M525.6,126.5H878.5M525.6,219.7H878.5M525.6,389.3H878.5M525.6,650.5H878.5M525.6,752.9H878.5M525.6,893.4H878.5M525.6,985.1H878.5" class="g0_99"/>
<text x="526" y="110" class="s5_99">38. </text>
<text x="550" y="110" class="sk_99">(a) </text>
<text x="573" y="110" class="s8_99">e</text>
<text x="579" y="104" class="si_99">2</text>
<text x="586" y="104" class="sl_99">ln 2</text>
<text x="708" y="110" class="sk_99">(b) </text>
<text x="731" y="110" class="s8_99">e</text>
<text x="739" y="104" class="sl_99">ln</text>
<text x="745" y="104" class="su_99">s</text>
<text x="748" y="104" class="sl_99">ln </text>
<text x="756" y="104" class="sh_99">e</text>
<text x="761" y="101" class="sv_99">3</text>
<text x="764" y="104" class="su_99">d</text>
<text x="527" y="152" class="sf_99">39–41 </text>
<text x="569" y="152" dx="0,0,0,0,0,0,0,0,0,0,0,0,0,0,-.3,-.2,0,0,0,0,0,0,0,0,0,0,0,0,0,0,0,0,0,0,0,0,0,0,0,0,0,0,-.1,0,0,0,0,0,0" class="sk_99">Express the given quantity as a single logarithm.</text>
<text x="527" y="178" class="s5_99">39. </text>
<text x="551" y="178" class="sk_99">ln 10</text>
<text x="583" y="178" class="se_99">1</text>
<text x="599" y="178" class="sk_99">2 ln 5</text>
<text x="710" y="178" dx="0,.7,0,0" class="s5_99">40. </text>
<text x="731" y="178" class="sk_99">ln </text>
<text x="745" y="178" class="s8_99">b</text>
<text x="756" y="178" class="se_99">1</text>
<text x="772" y="178" class="sk_99">2 ln </text>
<text x="796" y="178" class="s8_99">c</text>
<text x="806" y="178" class="se_99">2</text>
<text x="822" y="178" class="sk_99">3 ln </text>
<text x="846" y="178" class="s8_99">d</text>
<text x="527" y="203" class="s5_99">41. </text>
<text x="550" y="197" class="ss_99">1</text>
<path d="M551,198.7h4.8" class="g2_99"/>
<text x="550" y="206" class="ss_99">3</text>
<text x="559" y="203" class="sk_99">ln</text>
<text x="570" y="203" class="sa_99">s</text>
<text x="575" y="203" class="s8_99">x</text>
<text x="585" y="203" class="se_99">1</text>
<text x="601" y="203" class="sk_99">2</text>
<text x="608" y="203" class="sa_99">d</text>
<text x="613" y="197" class="sl_99">3</text>
<text x="621" y="203" class="se_99">1</text>
<text x="637" y="197" class="ss_99">1</text>
<path d="M637.4,198.7h4.8" class="g2_99"/>
<text x="637" y="206" class="ss_99">2</text>
<text x="645" y="203" class="sa_99">f</text>
<text x="650" y="203" class="sk_99">ln </text>
<text x="665" y="203" class="s8_99">x</text>
<text x="675" y="203" class="se_99">2</text>
<text x="690" y="203" class="sk_99">ln</text>
<text x="701" y="203" class="sa_99">s</text>
<text x="706" y="203" class="s8_99">x</text>
<text x="714" y="197" class="sl_99">2</text>
<text x="722" y="203" class="se_99">1</text>
<text x="738" y="203" class="sk_99">3</text>
<text x="745" y="203" class="s8_99">x</text>
<text x="755" y="203" class="se_99">1</text>
<text x="770" y="203" class="sk_99">2</text>
<text x="777" y="203" class="sa_99">d</text>
<text x="782" y="197" class="sl_99">2</text>
<text x="787" y="203" class="sa_99">g</text>
<text x="527" y="246" class="s5_99">42. </text>
<text x="550" y="246" dx="0,0,0,0,0,-.2,0,0,0,0,0,0,0,0,0,0,0,0,0,-.3,-.3,0,0,0,0,0,0,0,0,0,0,0,0,0,0,-.1,0,0,0,0,0,0,0,0,0,0,0,0,0,0,0,0,0,0,0,0,0" class="sk_99">Use Formula 10 to evaluate each logarithm correct to six </text>
<text x="550" y="262" class="sk_99">decimal places.</text>
<text x="550" y="279" dx="0,0,0,0,4.2,0,0" class="sk_99">(a) log</text>
<text x="591" y="281" class="sl_99">5 </text>
<text x="598" y="279" class="sk_99">10 </text>
<text x="708" y="279" dx="0,0,0,0,4.2,0,0" class="sk_99">(b) log</text>
<text x="750" y="281" class="sl_99">3 </text>
<text x="757" y="279" class="sk_99">57</text>
<text x="527" y="305" class="sf_99">43–44 </text>
<text x="566" y="305" dx="0,0,0,0,0,-.2,0,0,0,0,0,0,0,0,0,0,0,0,0,0,0,0,0,0,0,0,0,0,0,0,-.3,-.2,0,0,0,0,0,0,0,0,0,0,0,0,0,0,0,0,0" class="sk_99">Use Formula 10 to graph the given functions on a </text>
<text x="525" y="322" dx="0,0,0,0,0,0,0,0,0,0,0,0,0,0,0,0,0,-.3,0,0,0,0,0,0,0,0,0,0,0,0,0,0,0,0,0,0,0,0,0,0,0,0,0,0" class="sk_99">common screen. How are these graphs related?</text>
<text x="526" y="348" class="s5_99">43. </text>
<text x="551" y="348" class="s8_99">y</text>
<text x="561" y="348" class="s9_99">-</text>
<text x="576" y="348" class="sk_99">log</text>
<text x="595" y="349" class="sl_99">1.5</text>
<text x="607" y="348" class="s8_99">x</text>
<text x="613" y="348" class="sk_99">, </text>
<text x="631" y="348" class="s8_99">y</text>
<text x="641" y="348" class="s9_99">-</text>
<text x="657" y="348" class="sk_99">ln</text>
<text x="671" y="348" class="s8_99">x</text>
<text x="677" y="348" class="sk_99">, </text>
<text x="695" y="348" class="s8_99">y</text>
<text x="705" y="348" class="s9_99">-</text>
<text x="721" y="348" class="sk_99">log</text>
<text x="739" y="349" class="sl_99">10</text>
<text x="749" y="348" class="s8_99">x</text>
<text x="755" y="348" class="sk_99">, </text>
<text x="773" y="348" class="s8_99">y</text>
<text x="783" y="348" class="s9_99">-</text>
<text x="799" y="348" class="sk_99">log</text>
<text x="817" y="349" class="sl_99">50</text>
<text x="827" y="348" class="s8_99">x</text>
<text x="526" y="372" class="s5_99">44. </text>
<text x="551" y="372" class="s8_99">y</text>
<text x="561" y="372" class="s9_99">-</text>
<text x="576" y="372" class="sk_99">ln</text>
<text x="591" y="372" class="s8_99">x</text>
<text x="597" y="372" class="sk_99">, </text>
<text x="615" y="372" class="s8_99">y</text>
<text x="625" y="372" class="s9_99">-</text>
<text x="640" y="372" class="sk_99">log</text>
<text x="659" y="374" class="sl_99">10</text>
<text x="669" y="372" class="s8_99">x</text>
<text x="675" y="372" class="sk_99">, </text>
<text x="693" y="372" class="s8_99">y</text>
<text x="703" y="372" class="s9_99">-</text>
<text x="718" y="372" class="s8_99">e</text>
<text x="726" y="367" class="sh_99">x</text>
<text x="730" y="372" class="sk_99">, </text>
<text x="747" y="372" class="s8_99">y</text>
<text x="757" y="372" class="s9_99">-</text>
<text x="773" y="372" class="sk_99">10</text>
<text x="788" y="367" class="sh_99">x</text>
<text x="526" y="415" class="sg_99">45. </text>
<text x="550" y="415" class="sk_99">Suppose that the graph of </text>
<text x="695" y="415" class="s8_99">y</text>
<text x="705" y="415" class="s9_99">-</text>
<text x="720" y="415" class="sk_99">log</text>
<text x="739" y="417" class="sl_99">2</text>
<text x="745" y="415" class="s8_99">x</text>
<text x="755" y="415" dx="0,0,0,0,0,0,-.2,0,0,0,0,0,0,0,0,0,0,0,0,0,0" class="sk_99">is drawn on a coordi-</text>
<text x="550" y="432" dx="0,0,0,0,0,0,0,0,0,0,0,0,0,0,0,0,0,0,0,0,0,0,0,0,0,0,0,0,0,0,0,0,0,0,0,0,0,0,0,0,0,0,0,0,0,0,0,0,0,0,0,0,0,0,-.3,0" class="sk_99">nate grid where the unit of measurement is an inch. How </text>
<text x="550" y="449" dx="0,0,0,-.2,0,0,0,0,0,0,0,0,0,0,0,0,0,0,0,0,0,0,0,0,0,0,0,0,0,0,0,0,0,0,0,0,0,0,0,0,0,0,0,0,0,0,-.3,-.2,0,0,0,0,0,0,-.2,-.2,0" class="sk_99">many miles to the right of the origin do we have to move </text>
<text x="550" y="466" dx="0,0,0,0,0,0,0,0,0,0,0,0,0,0,0,0,0,0,0,0,0,0,0,0,0,0,0,0,0,-.2,0,0,0,0,0,0,0,0,0,0,0,0,0,0" class="sk_99">before the height of the curve reaches 3 ft?</text>
<text x="526" y="490" class="s5_99">46. </text>
<text x="550" y="490" dx="0,-.1,0,0,0,0,0,0,0,0,0,0,0,0,0,0,0,0,0,0,0,0" class="sk_99">Compare the functions </text>
<text x="681" y="490" class="s8_99">f</text>
<text x="687" y="490" class="sa_99">s</text>
<text x="692" y="490" class="s8_99">x</text>
<text x="698" y="490" class="sa_99">d</text>
<text x="707" y="490" class="s9_99">-</text>
<text x="723" y="490" class="s8_99">x</text>
<text x="730" y="484" class="sl_99">0.1</text>
<text x="744" y="490" class="sk_99">and </text>
<text x="767" y="490" class="sd_99">t</text>
<text x="773" y="490" class="sa_99">s</text>
<text x="779" y="490" class="s8_99">x</text>
<text x="785" y="490" class="sa_99">d</text>
<text x="793" y="490" class="s9_99">-</text>
<text x="809" y="490" class="sk_99">ln</text>
<text x="823" y="490" class="s8_99">x</text>
<text x="833" y="490" class="sk_99">by </text>
<text x="550" y="507" class="sk_99">graphing both </text>
<text x="632" y="507" class="s8_99">f</text>
<text x="642" y="507" class="sk_99">and </text>
<text x="665" y="507" class="sd_99">t</text>
<text x="674" y="507" dx="0,0,0,0,0,-.3,-.2,0,0,0,0,0,0,0,-.3,0,0,0,0,0,0,0,0,0,0,0,0,0,0,0,0" class="sk_99">in several viewing rectangles. </text>
<text x="550" y="524" class="sk_99">When does the graph of </text>
<text x="687" y="524" class="s8_99">f</text>
<text x="696" y="524" class="sk_99">³nally surpass the graph of </text>
<text x="849" y="524" class="sd_99">t</text>
<text x="855" y="524" class="sk_99">?</text>
<text x="527" y="550" class="sf_99">47–48 </text>
<text x="569" y="550" dx="0,0,0,-.1,0,0,0,0,0,0,0,0,0,0,0,-.1,0,0,0,0,0,0,0,0,0,0,0,0,0,0,0,0,0,0,0,0,0,0,0,0,0,0,0,0,0,0,0,0,0,0,0" class="sk_99">´ake a rough sketch of the graph of each function. </text>
<text x="527" y="566" dx="0,0,0,0,0,0,0,0,0,0,0,0,0,0,0,0,0,0,0,0,0,0,0,-.8,0,0,0,0,0,0,0,0,0,0,0,0,0,0,0,0,0,0,0,0,0,0,0,-.3,-.2,0,0,0,0,0,0,0,0,0,0,0,0,0,0,0,0" class="sk_99">Do not use a calculator. Just use the graphs given in Figures 12 </text>
<text x="527" y="583" dx="0,0,0,0,0,0,0,0,0,0,0,0,0,0,0,0,0,0,0,0,0,0,0,0,-.9,0,0,0,0,0,0,0,0,0,0,0,0,0,0,0,0,0,0,0,0,0,0,0,0,0,0,0,0,0,0,0,0,0,0,0,0" class="sk_99">and 13 and, if necessary, the transformations of Section 1.3.</text>
<text x="526" y="609" class="sg_99">47. </text>
<text x="550" y="609" class="sk_99">(a) </text>
<text x="574" y="609" class="s8_99">y</text>
<text x="584" y="609" class="s9_99">-</text>
<text x="599" y="609" class="sk_99">log</text>
<text x="618" y="611" class="sl_99">10</text>
<text x="626" y="609" class="sa_99">s</text>
<text x="631" y="609" class="s8_99">x</text>
<text x="641" y="609" class="se_99">1</text>
<text x="657" y="609" class="sk_99">5</text>
<text x="664" y="609" class="sa_99">d</text>
<text x="708" y="609" class="sk_99">(b) </text>
<text x="732" y="609" class="s8_99">y</text>
<text x="742" y="609" class="s9_99">-</text>
<text x="757" y="609" class="se_99">2</text>
<text x="769" y="609" class="sk_99">ln</text>
<text x="783" y="609" class="s8_99">x</text>
<text x="526" y="634" class="s5_99">48. </text>
<text x="550" y="634" class="sk_99">(a) </text>
<text x="574" y="634" class="s8_99">y</text>
<text x="584" y="634" class="s9_99">-</text>
<text x="599" y="634" class="sk_99">ln</text>
<text x="610" y="634" class="sa_99">s</text>
<text x="615" y="634" class="se_99">2</text>
<text x="626" y="634" class="s8_99">x</text>
<text x="632" y="634" class="sa_99">d</text>
<text x="708" y="634" class="sk_99">(b) </text>
<text x="732" y="634" class="s8_99">y</text>
<text x="742" y="634" class="s9_99">-</text>
<text x="757" y="634" class="sk_99">ln</text>
<text transform="matrix(0.63,0,0,1,771,637)" class="sw_99">|</text>
<text x="777" y="634" class="s8_99">x</text>
<text transform="matrix(0.63,0,0,1,786,637)" class="sw_99">|</text>
<text x="527" y="676" class="sf_99">49–50 </text>
<text x="569" y="676" dx="0,0,0,0,1.8,0,0,0,0,0,0,0,0,0,0,0,0,0,0,0,0,0,0,0,0,0,0,0,0,0,0,0,0,0,0,0,0" class="sk_99">(a) What are the domain and range of </text>
<text x="782" y="676" class="s8_99">f</text>
<text x="789" y="676" class="sk_99">?</text>
<text x="525" y="693" dx="0,0,0,0,5.7,0,0,0,0,0,0,0,0,0,0,0" class="sk_99">(b) What is the </text>
<text x="617" y="693" class="s8_99">x</text>
<text x="623" y="693" class="sk_99">-intercept of the graph of </text>
<text x="766" y="693" class="s8_99">f</text>
<text x="773" y="693" class="sk_99">?</text>
<text x="525" y="710" dx="0,0,0,0,6.5,0,-.1,0,0,0,0,0,0,0,0,0,0,0,0,0,0,0,0,0" class="sk_99">(c) Sketch the graph of </text>
<text x="663" y="710" class="s8_99">f</text>
<text x="667" y="710" class="sk_99">.</text>
<text x="526" y="736" class="s5_99">49. </text>
<text x="552" y="736" class="s8_99">f</text>
<text x="558" y="736" class="sa_99">s</text>
<text x="564" y="736" class="s8_99">x</text>
<text x="570" y="736" class="sa_99">d</text>
<text x="578" y="736" class="s9_99">-</text>
<text x="594" y="736" class="sk_99">ln </text>
<text x="608" y="736" class="s8_99">x</text>
<text x="618" y="736" class="se_99">1</text>
<text x="634" y="736" class="sk_99">2</text>
<text x="708" y="736" class="s5_99">50. </text>
<text x="733" y="736" class="s8_99">f</text>
<text x="739" y="736" class="sa_99">s</text>
<text x="745" y="736" class="s8_99">x</text>
<text x="751" y="736" class="sa_99">d</text>
<text x="760" y="736" class="s9_99">-</text>
<text x="775" y="736" class="sk_99">ln</text>
<text x="786" y="736" class="sa_99">s</text>
<text x="791" y="736" class="s8_99">x</text>
<text x="801" y="736" class="se_99">2</text>
<text x="817" y="736" class="sk_99">1</text>
<text x="824" y="736" class="sa_99">d</text>
<text x="832" y="736" class="se_99">2</text>
<text x="848" y="736" class="sk_99">1</text>
<text x="525" y="779" class="sf_99">51–54 </text>
<text x="567" y="779" dx="0,0,0,0,-.2,0,0,0,0,0,0,0,0,0,0,0,0,0,0,0,0,0,0,0" class="sk_99">Solve each equation for </text>
<text x="701" y="779" class="s8_99">x</text>
<text x="707" y="779" class="sk_99">.</text>
<text x="526" y="803" class="s5_99">51. </text>
<text x="550" y="803" class="sk_99">(a) </text>
<text x="573" y="803" class="s8_99">e</text>
<text x="580" y="798" class="sl_99">7</text>
<text x="584" y="798" class="si_99">2</text>
<text x="591" y="798" class="sl_99">4</text>
<text x="596" y="798" class="sh_99">x</text>
<text x="604" y="803" class="s9_99">-</text>
<text x="620" y="803" class="sk_99">6 </text>
<text x="708" y="803" dx="0,0,0,0,3.5,0" class="sk_99">(b) ln</text>
<text x="742" y="803" class="sa_99">s</text>
<text x="747" y="803" class="sk_99">3</text>
<text x="753" y="803" class="s8_99">x</text>
<text x="764" y="803" class="se_99">2</text>
<text x="779" y="803" class="sk_99">10</text>
<text x="793" y="803" class="sa_99">d</text>
<text x="802" y="803" class="s9_99">-</text>
<text x="817" y="803" class="sk_99">2</text>
<text x="526" y="828" class="s5_99">52. </text>
<text x="550" y="828" dx="0,0,0,0,4.2,0" class="sk_99">(a) ln</text>
<text x="584" y="828" class="sa_99">s</text>
<text x="589" y="828" class="s8_99">x</text>
<text x="597" y="822" class="sl_99">2</text>
<text x="605" y="828" class="se_99">2</text>
<text x="621" y="828" class="sk_99">1</text>
<text x="627" y="828" class="sa_99">d</text>
<text x="636" y="828" class="s9_99">-</text>
<text x="652" y="828" class="sk_99">3 </text>
<text x="708" y="828" class="sk_99">(b) </text>
<text x="731" y="828" class="s8_99">e</text>
<text x="739" y="822" class="sl_99">2</text>
<text x="743" y="822" class="sh_99">x</text>
<text x="751" y="828" class="se_99">2</text>
<text x="766" y="828" class="sk_99">3</text>
<text x="773" y="828" class="s8_99">e</text>
<text x="781" y="822" class="sh_99">x</text>
<text x="789" y="828" class="se_99">1</text>
<text x="804" y="828" class="sk_99">2</text>
<text x="815" y="828" class="s9_99">-</text>
<text x="831" y="828" class="sk_99">0</text>
<text x="526" y="852" class="sg_99">53. </text>
<text x="550" y="852" dx="0,0,0,0,4.2" class="sk_99">(a) 2</text>
<text x="581" y="847" class="sh_99">x</text>
<text x="584" y="847" class="si_99">2</text>
<text x="591" y="847" class="sl_99">5</text>
<text x="600" y="852" class="s9_99">-</text>
<text x="615" y="852" class="sk_99">3 </text>
<text x="708" y="852" dx="0,0,0,0,3.4,0" class="sk_99">(b) ln</text>
<text x="746" y="852" class="s8_99">x</text>
<text x="756" y="852" class="se_99">1</text>
<text x="772" y="852" class="sk_99">ln</text>
<text x="782" y="852" class="sa_99">s</text>
<text x="788" y="852" class="s8_99">x</text>
<text x="798" y="852" class="se_99">2</text>
<text x="813" y="852" class="sk_99">1</text>
<text x="820" y="852" class="sa_99">d</text>
<text x="829" y="852" class="s9_99">-</text>
<text x="844" y="852" class="sk_99">1</text>
<text x="526" y="877" class="s5_99">54. </text>
<text x="550" y="877" dx="0,0,0,0,4.2,0" class="sk_99">(a) ln</text>
<text x="584" y="877" class="sa_99">s</text>
<text x="588" y="877" class="sk_99">ln</text>
<text x="603" y="877" class="s8_99">x</text>
<text x="609" y="877" class="sa_99">d</text>
<text x="618" y="877" class="s9_99">-</text>
<text x="633" y="877" class="sk_99">1 </text>
<text x="708" y="877" class="sk_99">(b) </text>
<text x="731" y="877" class="s8_99">e</text>
<text x="739" y="871" dx="0,.7" class="sh_99">ax</text>
<text x="752" y="877" class="s9_99">-</text>
<text x="767" y="877" class="s8_99">Ce</text>
<text x="784" y="871" dx="0,.7" class="sh_99">bx</text>
<text x="792" y="877" dx="0,0,3.4,0,0,0,0,0" class="sk_99">, where </text>
<text x="840" y="877" class="s8_99">a</text>
<text x="851" y="877" class="s9_99">±</text>
<text x="866" y="877" class="s8_99">b</text>
<text x="525" y="919" class="sf_99">55–56 </text>
<text x="567" y="919" dx="0,0,0,0,-.2,0,0,0,0,0,0,0,0,0,0,0,0,0,0,0,0,0,0,0,0,0" class="sk_99">Solve each inequality for </text>
<text x="709" y="919" class="s8_99">x</text>
<text x="715" y="919" class="sk_99">.</text>
<text x="526" y="944" class="s5_99">55. </text>
<text x="550" y="944" dx="0,0,0,0,4.2,0,0" class="sk_99">(a) ln </text>
<text x="587" y="944" class="s8_99">x</text>
<text x="597" y="944" class="se_99">,</text>
<text x="613" y="944" class="sk_99">0 </text>
<text x="708" y="944" class="sk_99">(b) </text>
<text x="731" y="944" class="s8_99">e</text>
<text x="739" y="938" class="sh_99">x</text>
<text x="747" y="944" class="se_99">.</text>
<text x="762" y="944" class="sk_99">5</text>
<text x="526" y="968" class="s5_99">56. </text>
<text x="550" y="968" dx="0,0,0,0,4.2" class="sk_99">(a) 1</text>
<text x="584" y="968" class="se_99">,</text>
<text x="600" y="968" class="s8_99">e</text>
<text x="607" y="963" class="sl_99">3</text>
<text x="611" y="963" class="sh_99">x</text>
<text x="615" y="963" class="si_99">2</text>
<text x="622" y="963" class="sl_99">1</text>
<text x="631" y="968" class="se_99">,</text>
<text x="646" y="968" class="sk_99">2 </text>
<text x="708" y="968" dx="0,0,0,0,3.4" class="sk_99">(b) 1</text>
<text x="742" y="968" class="se_99">2</text>
<text x="758" y="968" class="sk_99">2 ln </text>
<text x="782" y="968" class="s8_99">x</text>
<text x="792" y="968" class="se_99">,</text>
<text x="808" y="968" class="sk_99">3</text>
<text x="526" y="1009" class="s5_99">57. </text>
<text x="550" y="1009" class="sk_99">(a) </text>
<text x="573" y="1009" class="sk_99">Find the domain of </text>
<text x="684" y="1009" class="s8_99">f</text>
<text x="690" y="1009" class="sa_99">s</text>
<text x="695" y="1009" class="s8_99">x</text>
<text x="701" y="1009" class="sa_99">d</text>
<text x="710" y="1009" class="s9_99">-</text>
<text x="725" y="1009" class="sk_99">ln</text>
<text x="736" y="1009" class="sa_99">s</text>
<text x="741" y="1009" class="s8_99">e</text>
<text x="748" y="1004" class="sh_99">x</text>
<text x="756" y="1009" class="se_99">2</text>
<text x="772" y="1009" class="sk_99">3</text>
<text x="778" y="1009" class="sa_99">d</text>
<text x="783" y="1009" class="sk_99">.</text>
<text x="550" y="1026" class="sk_99">(b) </text>
<text x="573" y="1026" class="sk_99">Find </text>
<text x="604" y="1026" class="s8_99">f</text>
<text x="611" y="1021" class="si_99">2</text>
<text x="618" y="1021" class="sl_99">1</text>
<text x="625" y="1026" class="sk_99">and its domain.</text>
<text x="507" y="307" class="st_99">;</text>
<text x="507" y="492" class="st_99">;</text>
<text x="121" y="1076" class="sx_99">Copyright 2016 Cengage Learning. All Rights Reserved. May not be copied, scanned, or duplicated, in whole or in part. Due to electronic rights, some third party content may be suppressed from the eBook and/or eChapter(s).</text>
<text x="106" y="1087" class="sx_99">Editorial review has deemed that any suppressed content does not materially affect the overall learning experience. Cengage Learning reserves the right to remove additional content at any time if subsequent rights restrictions require it.</text>

</g>

<!-- Any embedded fonts defined here -->
<style type="text/css" ><![CDATA[

@font-face {
	font-family: BeaconDingbatsTypeOne_12w;
	src: url("fonts/BeaconDingbatsTypeOne_12w.woff") format("woff");
}

@font-face {
	font-family: CenturyOldStyle-Italic__q;
	src: url("fonts/CenturyOldStyle-Italic__q.woff") format("woff");
}

@font-face {
	font-family: MathematicalPi-One-Italic_1l9;
	src: url("fonts/MathematicalPi-One-Italic_1l9.woff") format("woff");
}

@font-face {
	font-family: MathematicalPiLTStd-1_rr;
	src: url("fonts/MathematicalPiLTStd-1_rr.woff") format("woff");
}

@font-face {
	font-family: MathematicalPiLTStd-3_ry;
	src: url("fonts/MathematicalPiLTStd-3_ry.woff") format("woff");
}

@font-face {
	font-family: MathematicalPiLTStd-5_vb;
	src: url("fonts/MathematicalPiLTStd-5_vb.woff") format("woff");
}

@font-face {
	font-family: MyriadPro-BoldSemiCn_90;
	src: url("fonts/MyriadPro-BoldSemiCn_90.woff") format("woff");
}

@font-face {
	font-family: MyriadPro-Regular_4i;
	src: url("fonts/MyriadPro-Regular_4i.woff") format("woff");
}

@font-face {
	font-family: MyriadPro-Semibold_49;
	src: url("fonts/MyriadPro-Semibold_49.woff") format("woff");
}

@font-face {
	font-family: TECHMath-Mix_13x;
	src: url("fonts/TECHMath-Mix_13x.woff") format("woff");
}

@font-face {
	font-family: TECHMath-Mix_187;
	src: url("fonts/TECHMath-Mix_187.woff") format("woff");
}

@font-face {
	font-family: TECHMath-Mix_1ac;
	src: url("fonts/TECHMath-Mix_1ac.woff") format("woff");
}

@font-face {
	font-family: TECHMath-Mix_1gz;
	src: url("fonts/TECHMath-Mix_1gz.woff") format("woff");
}

@font-face {
	font-family: TECHMath-Mix_1k1;
	src: url("fonts/TECHMath-Mix_1k1.woff") format("woff");
}

@font-face {
	font-family: Times-Roman_4n;
	src: url("fonts/Times-Roman_4n.woff") format("woff");
}

@font-face {
	font-family: TimesLTStd-Italic_o3;
	src: url("fonts/TimesLTStd-Italic_o3.woff") format("woff");
}

@font-face {
	font-family: TimesLTStd-Roman_143;
	src: url("fonts/TimesLTStd-Roman_143.woff") format("woff");
}

@font-face {
	font-family: TimesLTStd-Roman_16m;
	src: url("fonts/TimesLTStd-Roman_16m.woff") format("woff");
}

]]></style>

</svg>
